# Blender v2.80 (sub 44) OBJ File: ''
# www.blender.org
mtllib panels.mtl
o Plane.003
v -29.751434 1.198272 17.380901
v -56.391800 1.198272 17.380911
v -29.751434 27.838638 17.380899
v -56.391800 27.838638 17.380909
vt 0.000000 0.000000
vt 1.000000 0.000000
vt 1.000000 1.000000
vt 0.000000 1.000000
vn -0.0000 -0.0000 -1.0000
usemtl PanelRed
s off
f 1/1/1 2/2/1 4/3/1 3/4/1
o Green_Plane.005
v 44.325771 1.198272 17.380894
v 17.685406 1.198272 17.380903
v 44.325771 27.838638 17.380892
v 17.685406 27.838638 17.380901
vt 0.000000 0.000000
vt 1.000000 0.000000
vt 1.000000 1.000000
vt 0.000000 1.000000
vn -0.0000 -0.0000 -1.0000
usemtl PanelGreen
s off
f 5/5/2 6/6/2 8/7/2 7/8/2
o Plane
v 8.098724 1.198272 17.380898
v -18.541641 1.198272 17.380907
v 8.098724 27.838638 17.380896
v -18.541641 27.838638 17.380905
vt 0.000000 0.000000
vt 1.000000 0.000000
vt 1.000000 1.000000
vt 0.000000 1.000000
vn -0.0000 -0.0000 -1.0000
usemtl PanelBlue
s off
f 9/9/3 10/10/3 12/11/3 11/12/3
