# Blender v2.80 (sub 44) OBJ File: ''
# www.blender.org
mtllib floor.mtl
o room_room.002
v -115.841660 -0.044054 115.841660
v -115.841660 -3.642724 115.841660
v -115.841644 -3.642676 -115.841660
v -115.841644 -0.044006 -115.841660
v -115.841644 -0.044006 -115.841660
v -115.841644 -3.642676 -115.841660
v 115.841644 -3.642672 -115.841660
v 115.841644 -0.044002 -115.841660
v 115.841644 -0.044002 -115.841660
v 115.841644 -3.642672 -115.841660
v 115.841644 -3.642720 115.841660
v 115.841644 -0.044050 115.841660
v 115.841644 -0.044050 115.841660
v 115.841644 -3.642720 115.841660
v -115.841660 -3.642724 115.841660
v -115.841660 -0.044054 115.841660
v -115.841644 -0.044006 -115.841660
v 115.841644 -0.044002 -115.841660
v 115.841644 -0.044050 115.841660
v -115.841660 -0.044054 115.841660
v 115.841644 -3.642672 -115.841660
v -115.841644 -3.642676 -115.841660
v -115.841660 -3.642724 115.841660
v 115.841644 -3.642720 115.841660
vt -4.500000 -4.500000
vt -4.500000 -4.500000
vt -4.499999 5.500000
vt -4.499999 5.500000
vt -4.499999 5.500000
vt -4.499999 5.500000
vt 5.500000 5.500000
vt 5.500000 5.500000
vt 5.500000 5.500000
vt 5.500000 5.500000
vt 5.500000 -4.500000
vt 5.500000 -4.500000
vt 5.500000 -4.500000
vt 5.500000 -4.500000
vt -4.500000 -4.500000
vt -4.500000 -4.500000
vt -4.499999 5.500000
vt 5.500000 5.500000
vt 5.500000 -4.500000
vt -4.500000 -4.500000
vt 5.500000 5.500000
vt -4.499999 5.500000
vt -4.500000 -4.500000
vt 5.500000 -4.500000
vn 1.0000 0.0000 0.0000
vn -0.0000 0.0000 1.0000
vn -1.0000 0.0000 0.0000
vn 0.0000 0.0000 -1.0000
vn 0.0000 -1.0000 -0.0000
vn -0.0000 1.0000 0.0000
usemtl None.002
s 1
f 1/1/1 2/2/1 3/3/1
f 1/1/1 3/3/1 4/4/1
f 5/5/2 6/6/2 7/7/2
f 5/5/2 7/7/2 8/8/2
f 9/9/3 10/10/3 11/11/3
f 9/9/3 11/11/3 12/12/3
f 13/13/4 14/14/4 15/15/4
f 13/13/4 15/15/4 16/16/4
f 17/17/5 18/18/5 19/19/5
f 17/17/5 19/19/5 20/20/5
f 21/21/6 22/22/6 23/23/6
f 21/21/6 23/23/6 24/24/6
