# Blender v2.80 (sub 44) OBJ File: ''
# www.blender.org
mtllib Diamond.mtl
o Cube.001
v -0.887540 0.880821 0.000000
v 0.000000 0.880821 0.887540
v 0.000000 1.000000 0.000000
v 0.000000 -1.000000 -0.000000
v -0.808351 0.420435 0.808351
v -1.000000 0.281036 0.000000
v 0.808351 0.420435 -0.808351
v 1.000000 0.281036 0.000000
v 0.887540 0.880821 0.000000
v 0.808351 0.420435 0.808351
v 0.000000 0.281036 1.000000
v -0.808351 0.420435 -0.808351
v 0.000000 0.281036 -1.000000
v 0.000000 0.880821 -0.887540
vt 0.625000 0.187500
vt 0.562500 0.250000
vt 0.562500 0.187500
vt 0.375000 0.562500
vt 0.535130 0.562500
vt 0.535130 0.625000
vt 0.125000 0.562500
vt 0.285130 0.562500
vt 0.285130 0.625000
vt 0.375000 0.625000
vt 0.625000 0.625000
vt 0.375000 0.312500
vt 0.535130 0.312500
vt 0.535130 0.375000
vt 0.625000 0.562500
vt 0.785130 0.562500
vt 0.785130 0.625000
vt 0.875000 0.625000
vt 0.625000 0.375000
vt 0.375000 0.187500
vt 0.437500 0.250000
vt 0.375000 0.250000
vt 0.625000 0.625000
vt 0.785130 0.687500
vt 0.875000 0.687500
vt 0.375000 0.375000
vt 0.535130 0.437500
vt 0.625000 0.437500
vt 0.125000 0.625000
vt 0.285130 0.687500
vt 0.375000 0.687500
vt 0.437500 0.000000
vt 0.375000 0.062500
vt 0.375000 0.000000
vt 0.562500 0.000000
vt 0.625000 0.062500
vt 0.562500 0.062500
vt 0.375000 0.625000
vt 0.535130 0.687500
vt 0.625000 0.687500
vt 0.625000 0.250000
vt 0.437500 0.187500
vt 0.437500 0.062500
vt 0.625000 0.000000
vn -0.1319 0.9824 0.1319
vn -0.7565 -0.5905 0.2812
vn 0.7565 -0.5905 -0.2812
vn 0.9636 0.1807 -0.1973
vn -0.9636 0.1807 0.1973
vn 0.2812 -0.5905 0.7565
vn -0.2812 -0.5905 -0.7565
vn -0.1973 0.1807 -0.9636
vn 0.1973 0.1807 0.9636
vn 0.4710 0.7459 0.4710
vn 0.2812 -0.5905 -0.7565
vn 0.1973 0.1807 -0.9636
vn -0.2812 -0.5905 0.7565
vn -0.1973 0.1807 0.9636
vn 0.7565 -0.5905 0.2812
vn 0.9636 0.1807 0.1973
vn 0.4710 0.7459 -0.4710
vn -0.1319 0.9824 -0.1319
vn -0.7565 -0.5905 -0.2812
vn -0.9636 0.1807 -0.1973
vn -0.4710 0.7459 0.4710
vn 0.1319 0.9824 0.1319
vn 0.1319 0.9824 -0.1319
vn -0.4710 0.7459 -0.4710
usemtl Crystal
s off
f 1/1/1 2/2/1 3/3/1
f 4/4/2 5/5/2 6/6/2
f 4/7/3 7/8/3 8/9/3
f 7/8/4 9/10/4 8/9/4
f 5/5/5 1/11/5 6/6/5
f 4/12/6 10/13/6 11/14/6
f 4/15/7 12/16/7 13/17/7
f 12/16/8 14/18/8 13/17/8
f 10/13/9 2/19/9 11/14/9
f 9/20/10 2/21/10 10/22/10
f 4/23/11 13/17/11 7/24/11
f 13/17/12 14/25/12 7/24/12
f 4/26/13 11/14/13 5/27/13
f 11/14/14 2/28/14 5/27/14
f 4/29/15 8/9/15 10/30/15
f 8/9/16 9/31/16 10/30/16
f 14/32/17 9/33/17 7/34/17
f 14/35/18 1/36/18 3/37/18
f 4/38/19 6/6/19 12/39/19
f 6/6/20 1/40/20 12/39/20
f 1/1/21 5/41/21 2/2/21
f 9/20/22 3/42/22 2/21/22
f 14/32/23 3/43/23 9/33/23
f 14/35/24 12/44/24 1/36/24
