# Blender v2.80 (sub 44) OBJ File: ''
# www.blender.org
mtllib Lantern.mtl
o Cube
v 0.312256 1.951506 0.316649
v 0.449057 0.345123 0.449057
v 0.368738 0.345123 0.449057
v 0.449057 0.345123 0.368738
v 0.449057 0.417314 0.449057
v 0.368738 0.417314 0.449057
v 0.449057 0.417314 0.368738
v 0.408898 1.874620 0.408898
v 0.328578 1.874620 0.408898
v 0.408898 1.874620 0.328578
v 0.504972 1.341786 0.508023
v 0.445244 1.341786 0.521750
v 0.525563 1.341786 0.441431
v 0.504972 1.421158 0.508023
v 0.445244 1.421158 0.521750
v 0.525563 1.421158 0.441431
v 0.360423 0.417314 0.356436
v 0.441014 1.342283 0.431391
v 0.439955 1.418547 0.431391
v 0.333212 1.874620 0.334533
v -0.312256 1.951506 0.316649
v -0.449057 0.345123 0.449057
v 0.000000 0.345123 0.449057
v 0.000000 1.951506 0.449787
v -0.368738 0.345123 0.449057
v -0.449057 0.345123 0.368738
v -0.449057 0.417314 0.449057
v 0.000000 0.417314 0.449057
v -0.368738 0.417314 0.449057
v -0.449057 0.417314 0.368738
v -0.408898 1.874620 0.408898
v 0.000000 1.874620 0.449787
v -0.328578 1.874620 0.408898
v -0.408898 1.874620 0.328578
v -0.504972 1.341786 0.508023
v 0.000000 1.341786 0.649855
v -0.445244 1.341786 0.521750
v -0.525563 1.341786 0.441431
v -0.504972 1.421158 0.508023
v 0.000000 1.421158 0.649855
v -0.445244 1.421158 0.521750
v -0.525563 1.421158 0.441431
v -0.360423 0.417314 0.356436
v -0.441014 1.342283 0.431391
v -0.439955 1.418547 0.431391
v -0.333212 1.874620 0.334533
v 0.000000 1.346870 0.571050
v 0.000000 1.421910 0.571656
v 0.312256 1.951506 -0.316649
v 0.449057 0.345123 -0.449057
v 0.449787 1.951506 0.000000
v 0.449057 0.345123 0.000000
v 0.368738 0.345123 -0.449057
v 0.449057 0.345123 -0.368738
v 0.449057 0.417314 -0.449057
v 0.449057 0.417314 0.000000
v 0.368738 0.417314 -0.449057
v 0.449057 0.417314 -0.368738
v 0.408898 1.874620 -0.408898
v 0.449787 1.874620 0.000000
v 0.328578 1.874620 -0.408898
v 0.408898 1.874620 -0.328578
v 0.504972 1.341786 -0.508023
v 0.649855 1.341786 0.000000
v 0.445244 1.341786 -0.521750
v 0.525563 1.341786 -0.441431
v 0.504972 1.421158 -0.508023
v 0.649855 1.421158 0.000000
v 0.445244 1.421158 -0.521750
v 0.525563 1.421158 -0.441431
v 0.360423 0.417314 -0.356436
v 0.441014 1.342283 -0.431391
v 0.439955 1.418547 -0.431391
v 0.333212 1.874620 -0.334533
v 0.564004 1.341786 0.000000
v 0.564004 1.421158 0.000000
v -0.312256 1.951506 -0.316649
v -0.449057 0.345123 -0.449057
v 0.000000 0.345123 0.000000
v 0.000000 2.008891 0.000000
v -0.449787 1.951506 0.000000
v -0.449057 0.345123 0.000000
v 0.000000 0.345123 -0.449057
v 0.000000 1.951506 -0.449787
v -0.368738 0.345123 -0.449057
v -0.449057 0.345123 -0.368738
v -0.449057 0.417314 -0.449057
v -0.449057 0.417314 0.000000
v 0.000000 0.417314 -0.449057
v -0.368738 0.417314 -0.449057
v -0.449057 0.417314 -0.368738
v -0.408898 1.874620 -0.408898
v 0.000000 0.417503 0.000000
v -0.449787 1.874620 0.000000
v 0.000000 1.874620 -0.449787
v -0.328578 1.874620 -0.408898
v -0.408898 1.874620 -0.328578
v -0.504972 1.341786 -0.508023
v -0.649855 1.341786 0.000000
v 0.000000 1.341786 -0.649855
v -0.445244 1.341786 -0.521750
v -0.525563 1.341786 -0.441431
v -0.504972 1.421158 -0.508023
v -0.649855 1.421158 0.000000
v 0.000000 1.421158 -0.649855
v -0.445244 1.421158 -0.521750
v -0.525563 1.421158 -0.441431
v -0.360423 0.417314 -0.356436
v -0.441014 1.342283 -0.431391
v -0.439955 1.418547 -0.431391
v 0.000000 1.874633 0.000000
v -0.333212 1.874620 -0.334533
v 0.000000 1.346870 -0.571050
v 0.000000 1.421910 -0.571656
v -0.564004 1.341786 0.000000
v -0.564004 1.421158 0.000000
vt 0.612500 0.987500
vt 0.625000 0.987500
vt 0.625000 1.000000
vt 0.612500 1.000000
vt 0.363034 0.737500
vt 0.375000 0.737500
vt 0.375000 0.750000
vt 0.363034 0.750000
vt 0.613034 0.262500
vt 0.625000 0.312500
vt 0.613034 0.312500
vt 0.613034 0.250000
vt 0.625000 0.250000
vt 0.625000 0.262500
vt 0.375000 0.237500
vt 0.387500 0.237500
vt 0.387500 0.250000
vt 0.375000 0.250000
vt 0.562500 1.000000
vt 0.363034 0.687500
vt 0.612500 0.937500
vt 0.625000 0.937500
vt 0.125000 0.687500
vt 0.136235 0.687500
vt 0.136235 0.737500
vt 0.125000 0.737500
vt 0.375000 0.250000
vt 0.386235 0.250000
vt 0.386235 0.262500
vt 0.375000 0.262500
vt 0.386235 0.312500
vt 0.375000 0.312500
vt 0.136235 0.750000
vt 0.125000 0.750000
vt 0.542462 0.250000
vt 0.542462 0.262500
vt 0.292462 0.737500
vt 0.292462 0.750000
vt 0.280110 0.737500
vt 0.280110 0.750000
vt 0.530110 0.250000
vt 0.530110 0.262500
vt 0.542462 0.312500
vt 0.530110 0.312500
vt 0.280110 0.687500
vt 0.292462 0.687500
vt 0.000000 0.000000
vt 0.000000 0.000000
vt 0.000000 0.000000
vt 0.000000 0.000000
vt 0.000000 0.000000
vt 0.000000 0.000000
vt 0.000000 0.000000
vt 0.000000 0.000000
vt 0.000000 0.000000
vt 0.000000 0.000000
vt 0.000000 0.000000
vt 0.000000 0.000000
vt 0.000000 0.000000
vt 0.000000 0.000000
vt 0.000000 0.000000
vt 0.000000 0.000000
vt 0.000000 0.000000
vt 0.000000 0.000000
vt 0.000000 0.000000
vt 0.000000 0.000000
vt 0.000000 0.000000
vt 0.000000 0.000000
vt 0.000000 0.000000
vt 0.000000 0.000000
vt 0.280110 0.687500
vt 0.292462 0.687500
vt 0.000000 0.000000
vt 0.000000 0.000000
vt 0.000000 0.000000
vt 0.000000 0.000000
vt 0.612500 1.000000
vt 0.625000 1.000000
vt 0.625000 0.987500
vt 0.363034 0.737500
vt 0.363034 0.750000
vt 0.375000 0.750000
vt 0.375000 0.737500
vt 0.613034 0.262500
vt 0.613034 0.250000
vt 0.625000 0.250000
vt 0.375000 0.237500
vt 0.375000 0.250000
vt 0.363034 0.687500
vt 0.625000 0.937500
vt 0.125000 0.687500
vt 0.125000 0.737500
vt 0.136235 0.737500
vt 0.136235 0.687500
vt 0.375000 0.250000
vt 0.375000 0.262500
vt 0.386235 0.262500
vt 0.386235 0.250000
vt 0.125000 0.750000
vt 0.136235 0.750000
vt 0.542462 0.250000
vt 0.542462 0.262500
vt 0.292462 0.737500
vt 0.292462 0.750000
vt 0.280110 0.750000
vt 0.280110 0.737500
vt 0.530110 0.262500
vt 0.530110 0.250000
vt 0.280110 0.687500
vt 0.292462 0.687500
vt 0.000000 0.000000
vt 0.000000 0.000000
vt 0.000000 0.000000
vt 0.000000 0.000000
vt 0.000000 0.000000
vt 0.000000 0.000000
vt 0.000000 0.000000
vt 0.000000 0.000000
vt 0.000000 0.000000
vt 0.000000 0.000000
vt 0.000000 0.000000
vt 0.000000 0.000000
vt 0.000000 0.000000
vt 0.000000 0.000000
vt 0.000000 0.000000
vt 0.000000 0.000000
vt 0.530110 0.362500
vt 0.530110 0.362500
vt 0.542462 0.362500
vt 0.542462 0.362500
vt 0.280110 0.687500
vt 0.292462 0.687500
vt 0.000000 0.000000
vt 0.000000 0.000000
vt 0.000000 0.000000
vt 0.000000 0.000000
vt 0.612500 1.000000
vt 0.625000 1.000000
vt 0.625000 0.987500
vt 0.363034 0.737500
vt 0.363034 0.750000
vt 0.375000 0.750000
vt 0.613034 0.262500
vt 0.613034 0.312500
vt 0.625000 0.312500
vt 0.613034 0.250000
vt 0.625000 0.262500
vt 0.625000 0.250000
vt 0.375000 0.250000
vt 0.387500 0.250000
vt 0.562500 1.000000
vt 0.125000 0.737500
vt 0.136235 0.737500
vt 0.375000 0.250000
vt 0.375000 0.262500
vt 0.386235 0.262500
vt 0.386235 0.250000
vt 0.375000 0.312500
vt 0.386235 0.312500
vt 0.125000 0.750000
vt 0.136235 0.750000
vt 0.542462 0.250000
vt 0.542462 0.262500
vt 0.292462 0.737500
vt 0.292462 0.750000
vt 0.280110 0.750000
vt 0.280110 0.737500
vt 0.530110 0.262500
vt 0.530110 0.250000
vt 0.530110 0.312500
vt 0.542462 0.312500
vt 0.000000 0.000000
vt 0.000000 0.000000
vt 0.000000 0.000000
vt 0.000000 0.000000
vt 0.000000 0.000000
vt 0.000000 0.000000
vt 0.000000 0.000000
vt 0.000000 0.000000
vt 0.000000 0.000000
vt 0.000000 0.000000
vt 0.000000 0.000000
vt 0.000000 0.000000
vt 0.000000 0.000000
vt 0.000000 0.000000
vt 0.000000 0.000000
vt 0.000000 0.000000
vt 0.000000 0.000000
vt 0.000000 0.000000
vt 0.000000 0.000000
vt 0.000000 0.000000
vt 0.625000 0.987500
vt 0.625000 1.000000
vt 0.612500 1.000000
vt 0.363034 0.737500
vt 0.375000 0.750000
vt 0.363034 0.750000
vt 0.613034 0.262500
vt 0.613034 0.250000
vt 0.625000 0.250000
vt 0.375000 0.250000
vt 0.136235 0.737500
vt 0.125000 0.737500
vt 0.375000 0.250000
vt 0.386235 0.250000
vt 0.386235 0.262500
vt 0.375000 0.262500
vt 0.136235 0.750000
vt 0.125000 0.750000
vt 0.542462 0.250000
vt 0.542462 0.262500
vt 0.292462 0.737500
vt 0.292462 0.750000
vt 0.280110 0.737500
vt 0.280110 0.750000
vt 0.530110 0.250000
vt 0.530110 0.262500
vt 0.000000 0.000000
vt 0.000000 0.000000
vt 0.000000 0.000000
vt 0.000000 0.000000
vt 0.000000 0.000000
vt 0.000000 0.000000
vt 0.000000 0.000000
vt 0.000000 0.000000
vt 0.000000 0.000000
vt 0.000000 0.000000
vt 0.000000 0.000000
vt 0.000000 0.000000
vt 0.000000 0.000000
vt 0.000000 0.000000
vt 0.530110 0.362500
vt 0.542462 0.362500
vt 0.542462 0.362500
vt 0.530110 0.362500
vn 0.0000 -1.0000 0.0000
vn 0.5936 0.7780 0.2057
vn 0.1235 0.0000 0.9923
vn 0.2052 0.7694 0.6050
vn 0.0905 0.9918 0.0905
vn 0.9923 0.0000 0.1235
vn 1.0000 0.0000 0.0000
vn 0.0000 0.0000 1.0000
vn 0.0945 0.2475 0.9643
vn 0.9573 0.2559 0.1342
vn 0.9871 -0.0805 0.1384
vn 0.0973 -0.0776 0.9922
vn 0.9554 0.0000 0.2954
vn 0.2765 0.0000 0.9610
vn 0.2240 0.0000 0.9746
vn 0.9626 0.0000 0.2710
vn -0.0002 -1.0000 -0.0002
vn 0.1278 0.0681 -0.9895
vn -0.9945 0.0790 0.0684
vn 0.1172 0.0008 -0.9931
vn -0.9986 -0.0068 0.0527
vn 0.0282 -0.2180 -0.9755
vn -0.9715 -0.2369 0.0076
vn 0.0005 0.9999 -0.0110
vn -0.3028 0.0017 -0.9530
vn -0.0150 -0.9994 -0.0326
vn 0.9613 0.0065 0.2753
vn 0.0151 -0.9999 0.0013
vn 0.0029 1.0000 0.0003
vn -0.5936 0.7780 0.2057
vn -0.1235 0.0000 0.9923
vn -0.2052 0.7694 0.6050
vn -0.0905 0.9918 0.0905
vn -0.9923 0.0000 0.1235
vn -1.0000 0.0000 0.0000
vn -0.0945 0.2475 0.9643
vn -0.9573 0.2559 0.1342
vn -0.9871 -0.0805 0.1384
vn -0.0973 -0.0776 0.9922
vn -0.9554 0.0000 0.2954
vn -0.2765 0.0000 0.9610
vn -0.2240 0.0000 0.9746
vn -0.9626 0.0000 0.2710
vn 0.0002 -1.0000 -0.0002
vn -0.1278 0.0681 -0.9895
vn 0.9945 0.0790 0.0684
vn -0.1172 0.0008 -0.9931
vn 0.9986 -0.0068 0.0527
vn -0.0282 -0.2180 -0.9755
vn 0.9715 -0.2369 0.0076
vn -0.0005 0.9999 -0.0110
vn 0.3028 0.0017 -0.9530
vn 0.0150 -0.9994 -0.0326
vn -0.9613 0.0065 0.2753
vn -0.0151 -0.9999 0.0013
vn -0.0029 1.0000 0.0003
vn 0.5936 0.7780 -0.2057
vn 0.1235 0.0000 -0.9923
vn 0.2052 0.7694 -0.6050
vn 0.0905 0.9918 -0.0905
vn 0.9923 0.0000 -0.1235
vn 0.0000 0.0000 -1.0000
vn 0.0945 0.2475 -0.9643
vn 0.9573 0.2559 -0.1342
vn 0.9871 -0.0805 -0.1384
vn 0.0973 -0.0776 -0.9922
vn 0.9554 0.0000 -0.2954
vn 0.2765 0.0000 -0.9610
vn 0.2240 0.0000 -0.9746
vn 0.9626 0.0000 -0.2710
vn -0.0002 -1.0000 0.0002
vn 0.1278 0.0681 0.9895
vn -0.9945 0.0790 -0.0684
vn 0.1172 0.0008 0.9931
vn -0.9986 -0.0068 -0.0527
vn 0.0282 -0.2180 0.9755
vn -0.9715 -0.2369 -0.0076
vn 0.0005 0.9999 0.0110
vn -0.3028 0.0017 0.9530
vn -0.0150 -0.9994 0.0326
vn 0.9613 0.0065 -0.2753
vn 0.0151 -0.9999 -0.0013
vn 0.0029 1.0000 -0.0003
vn -0.5936 0.7780 -0.2057
vn -0.1235 0.0000 -0.9923
vn -0.2052 0.7694 -0.6050
vn -0.0905 0.9918 -0.0905
vn -0.9923 0.0000 -0.1235
vn -0.0945 0.2475 -0.9643
vn -0.9573 0.2559 -0.1342
vn -0.9871 -0.0805 -0.1384
vn -0.0973 -0.0776 -0.9922
vn -0.9554 0.0000 -0.2954
vn -0.2765 0.0000 -0.9610
vn -0.2240 0.0000 -0.9746
vn -0.9626 0.0000 -0.2710
vn 0.0002 -1.0000 0.0002
vn -0.1278 0.0681 0.9895
vn 0.9945 0.0790 -0.0684
vn -0.1172 0.0008 0.9931
vn 0.9986 -0.0068 -0.0527
vn -0.0282 -0.2180 0.9755
vn 0.9715 -0.2369 -0.0076
vn -0.0005 0.9999 0.0110
vn 0.3028 0.0017 0.9530
vn 0.0150 -0.9994 0.0326
vn -0.9613 0.0065 -0.2753
vn -0.0151 -0.9999 -0.0013
vn -0.0029 1.0000 -0.0003
usemtl Cage
s off
f 79/1/1 4/2/1 2/3/1 3/4/1
f 10/5/2 51/6/2 1/7/2 8/8/2
f 9/9/3 24/10/3 32/11/3
f 8/12/4 1/13/4 24/14/4 9/9/4
f 51/15/5 80/16/5 24/17/5 1/18/5
f 79/1/1 3/4/1 23/19/1
f 60/20/6 51/6/6 10/5/6
f 79/21/1 52/22/1 4/2/1
f 52/23/7 56/24/7 7/25/7 4/26/7
f 2/27/8 5/28/8 6/29/8 3/30/8
f 3/30/8 6/29/8 28/31/8 23/32/8
f 4/26/7 7/25/7 5/33/7 2/34/7
f 14/35/9 8/12/9 9/9/9 15/36/9
f 16/37/10 10/5/10 8/8/10 14/38/10
f 7/25/11 13/39/11 11/40/11 5/33/11
f 5/28/12 11/41/12 12/42/12 6/29/12
f 13/39/13 16/37/13 14/38/13 11/40/13
f 12/42/14 15/36/14 40/43/14 36/44/14
f 11/41/15 14/35/15 15/36/15 12/42/15
f 64/45/16 68/46/16 16/37/16 13/39/16
f 93/47/17 56/48/17 7/49/17 17/50/17 6/51/17 28/52/17
f 18/53/18 13/54/18 7/49/18 17/50/18
f 6/51/1 17/50/1 7/49/1 5/55/1
f 12/56/19 18/53/19 17/50/19 6/51/19
f 19/57/20 16/58/20 13/54/20 18/53/20
f 15/59/21 19/57/21 18/53/21 12/56/21
f 111/60/1 60/61/1 10/62/1 20/63/1 9/64/1 32/65/1
f 20/63/22 10/62/22 16/58/22 19/57/22
f 9/64/1 20/63/1 10/62/1 8/66/1
f 9/64/23 20/63/23 19/57/23 15/59/23
f 15/59/24 19/57/24 48/67/24 40/68/24
f 18/53/25 47/69/25 48/67/25 19/57/25
f 18/53/26 12/56/26 36/70/26 47/69/26
f 75/71/27 76/72/27 19/57/27 18/53/27
f 76/73/28 68/74/28 16/58/28 19/57/28
f 64/75/29 75/76/29 18/53/29 13/54/29
f 79/1/1 25/77/1 22/78/1 26/79/1
f 34/80/30 31/81/30 21/82/30 81/83/30
f 33/84/31 32/11/31 24/10/31
f 31/85/32 33/84/32 24/14/32 21/86/32
f 81/87/33 21/88/33 24/17/33 80/16/33
f 79/1/1 23/19/1 25/77/1
f 94/89/34 34/80/34 81/83/34
f 79/21/1 26/79/1 82/90/1
f 82/91/35 26/92/35 30/93/35 88/94/35
f 22/95/8 25/96/8 29/97/8 27/98/8
f 25/96/8 23/32/8 28/31/8 29/97/8
f 26/92/35 22/99/35 27/100/35 30/93/35
f 39/101/36 41/102/36 33/84/36 31/85/36
f 42/103/37 39/104/37 31/81/37 34/80/37
f 30/93/38 27/100/38 35/105/38 38/106/38
f 27/98/39 29/97/39 37/107/39 35/108/39
f 38/106/40 35/105/40 39/104/40 42/103/40
f 37/107/41 36/44/41 40/43/41 41/102/41
f 35/108/42 37/107/42 41/102/42 39/101/42
f 99/109/43 38/106/43 42/103/43 104/110/43
f 93/47/44 28/52/44 29/111/44 43/112/44 30/113/44 88/114/44
f 44/115/45 43/112/45 30/113/45 38/116/45
f 29/111/1 27/117/1 30/113/1 43/112/1
f 37/118/46 29/111/46 43/112/46 44/115/46
f 45/119/47 44/115/47 38/116/47 42/120/47
f 41/121/48 37/118/48 44/115/48 45/119/48
f 111/60/1 32/65/1 33/122/1 46/123/1 34/124/1 94/125/1
f 46/123/49 45/119/49 42/120/49 34/124/49
f 33/122/1 31/126/1 34/124/1 46/123/1
f 33/122/50 41/121/50 45/119/50 46/123/50
f 36/127/7 47/128/7 48/129/7 40/130/7
f 41/121/51 40/68/51 48/67/51 45/119/51
f 44/115/52 45/119/52 48/67/52 47/69/52
f 44/115/53 47/69/53 36/70/53 37/118/53
f 115/131/54 44/115/54 45/119/54 116/132/54
f 116/133/55 45/119/55 42/120/55 104/134/55
f 99/135/56 38/116/56 44/115/56 115/136/56
f 79/1/1 53/137/1 50/138/1 54/139/1
f 62/140/57 59/141/57 49/142/57 51/6/57
f 61/143/58 95/144/58 84/145/58
f 59/146/59 61/143/59 84/147/59 49/148/59
f 51/15/60 49/149/60 84/150/60 80/16/60
f 79/1/1 83/151/1 53/137/1
f 60/20/61 62/140/61 51/6/61
f 79/21/1 54/139/1 52/22/1
f 52/23/7 54/152/7 58/153/7 56/24/7
f 50/154/62 53/155/62 57/156/62 55/157/62
f 53/155/62 83/158/62 89/159/62 57/156/62
f 54/152/7 50/160/7 55/161/7 58/153/7
f 67/162/63 69/163/63 61/143/63 59/146/63
f 70/164/64 67/165/64 59/141/64 62/140/64
f 58/153/65 55/161/65 63/166/65 66/167/65
f 55/157/66 57/156/66 65/168/66 63/169/66
f 66/167/67 63/166/67 67/165/67 70/164/67
f 65/168/68 100/170/68 105/171/68 69/163/68
f 63/169/69 65/168/69 69/163/69 67/162/69
f 64/45/70 66/167/70 70/164/70 68/46/70
f 93/47/71 89/172/71 57/173/71 71/174/71 58/175/71 56/48/71
f 72/176/72 71/174/72 58/175/72 66/177/72
f 57/173/1 55/178/1 58/175/1 71/174/1
f 65/179/73 57/173/73 71/174/73 72/176/73
f 73/180/74 72/176/74 66/177/74 70/181/74
f 69/182/75 65/179/75 72/176/75 73/180/75
f 111/60/1 95/183/1 61/184/1 74/185/1 62/186/1 60/61/1
f 74/185/76 73/180/76 70/181/76 62/186/76
f 61/184/1 59/187/1 62/186/1 74/185/1
f 61/184/77 69/182/77 73/180/77 74/185/77
f 69/182/78 105/188/78 114/189/78 73/180/78
f 72/176/79 73/180/79 114/189/79 113/190/79
f 72/176/80 113/190/80 100/191/80 65/179/80
f 64/45/62 75/71/62 76/72/62 68/46/62
f 75/71/81 72/176/81 73/180/81 76/72/81
f 76/73/82 73/180/82 70/181/82 68/74/82
f 64/75/83 66/177/83 72/176/83 75/76/83
f 79/1/1 86/192/1 78/193/1 85/194/1
f 97/195/84 81/83/84 77/196/84 92/197/84
f 96/198/85 84/145/85 95/144/85
f 92/199/86 77/200/86 84/147/86 96/198/86
f 81/87/87 80/16/87 84/150/87 77/201/87
f 79/1/1 85/194/1 83/151/1
f 94/89/88 81/83/88 97/195/88
f 79/21/1 82/90/1 86/192/1
f 82/91/35 88/94/35 91/202/35 86/203/35
f 78/204/62 87/205/62 90/206/62 85/207/62
f 85/207/62 90/206/62 89/159/62 83/158/62
f 86/203/35 91/202/35 87/208/35 78/209/35
f 103/210/89 92/199/89 96/198/89 106/211/89
f 107/212/90 97/195/90 92/197/90 103/213/90
f 91/202/91 102/214/91 98/215/91 87/208/91
f 87/205/92 98/216/92 101/217/92 90/206/92
f 102/214/93 107/212/93 103/213/93 98/215/93
f 101/217/94 106/211/94 105/171/94 100/170/94
f 98/216/95 103/210/95 106/211/95 101/217/95
f 99/109/96 104/110/96 107/212/96 102/214/96
f 93/47/97 88/114/97 91/218/97 108/219/97 90/220/97 89/172/97
f 109/221/98 102/222/98 91/218/98 108/219/98
f 90/220/1 108/219/1 91/218/1 87/223/1
f 101/224/99 109/221/99 108/219/99 90/220/99
f 110/225/100 107/226/100 102/222/100 109/221/100
f 106/227/101 110/225/101 109/221/101 101/224/101
f 111/60/1 94/125/1 97/228/1 112/229/1 96/230/1 95/183/1
f 112/229/102 97/228/102 107/226/102 110/225/102
f 96/230/1 112/229/1 97/228/1 92/231/1
f 96/230/103 112/229/103 110/225/103 106/227/103
f 100/232/7 105/233/7 114/234/7 113/235/7
f 106/227/104 110/225/104 114/189/104 105/188/104
f 109/221/105 113/190/105 114/189/105 110/225/105
f 109/221/106 101/224/106 100/191/106 113/190/106
f 99/109/62 104/110/62 116/132/62 115/131/62
f 115/131/107 116/132/107 110/225/107 109/221/107
f 116/133/108 104/134/108 107/226/108 110/225/108
f 99/135/109 115/136/109 109/221/109 102/222/109
l 79 93
l 80 111
o Cube.001
v 0.321277 0.496007 0.321277
v 0.321277 1.781114 0.321277
v 0.398087 1.385020 0.398087
v -0.321277 0.496007 0.321277
v -0.321277 1.781114 0.321277
v 0.000000 0.496007 0.321277
v 0.000000 1.781114 0.321277
v -0.398087 1.385020 0.398087
v 0.000000 1.385020 0.458330
v 0.321277 0.496007 -0.321277
v 0.321277 1.781114 -0.321277
v 0.321277 0.496007 0.000000
v 0.321277 1.781114 0.000000
v 0.398087 1.385020 -0.398087
v 0.458330 1.385020 0.000000
v -0.321277 0.496007 -0.321277
v -0.321277 1.781114 -0.321277
v -0.321277 0.496007 0.000000
v -0.321277 1.781114 0.000000
v 0.000000 0.496007 -0.321277
v 0.000000 1.781114 -0.321277
v 0.000000 1.781114 0.000000
v 0.000000 0.496007 0.000000
v -0.398087 1.385020 -0.398087
v -0.458330 1.385020 0.000000
v 0.000000 1.385020 -0.458330
vt 0.547945 0.625000
vt 0.625000 0.625000
vt 0.625000 0.750000
vt 0.547945 0.750000
vt 0.250000 0.625000
vt 0.375000 0.625000
vt 0.375000 0.750000
vt 0.250000 0.750000
vt 0.750000 0.625000
vt 0.750000 0.750000
vt 0.625000 0.875000
vt 0.547945 0.875000
vt 0.375000 0.875000
vt 0.547945 0.625000
vt 0.547945 0.750000
vt 0.625000 0.750000
vt 0.625000 0.625000
vt 0.375000 0.750000
vt 0.375000 0.625000
vt 0.547945 0.750000
vt 0.625000 0.750000
vt 0.250000 0.750000
vt 0.375000 0.750000
vt 0.750000 0.750000
vt 0.547945 0.875000
vt 0.625000 0.875000
vt 0.375000 0.875000
vt 0.625000 0.750000
vt 0.547945 0.750000
vt 0.375000 0.750000
vn 0.9603 0.2671 0.0804
vn 0.0000 -1.0000 0.0000
vn 0.0000 1.0000 0.0000
vn 0.0804 0.2671 0.9603
vn 0.0828 -0.1225 0.9890
vn 0.9890 -0.1225 0.0828
vn -0.9603 0.2671 0.0804
vn -0.0804 0.2671 0.9603
vn -0.0828 -0.1225 0.9890
vn -0.9890 -0.1225 0.0828
vn 0.9603 0.2671 -0.0804
vn 0.0804 0.2671 -0.9603
vn 0.0828 -0.1225 -0.9890
vn 0.9890 -0.1225 -0.0828
vn -0.9603 0.2671 -0.0804
vn -0.0804 0.2671 -0.9603
vn -0.0828 -0.1225 -0.9890
vn -0.9890 -0.1225 -0.0828
usemtl Light
s off
f 131/236/110 129/237/110 118/238/110 119/239/110
f 139/240/111 128/241/111 117/242/111 122/243/111
f 129/237/112 138/244/112 123/245/112 118/238/112
f 119/239/113 118/238/113 123/246/113 125/247/113
f 117/242/114 119/239/114 125/247/114 122/248/114
f 128/241/115 131/236/115 119/239/115 117/242/115
f 141/249/116 124/250/116 121/251/116 135/252/116
f 139/240/111 122/243/111 120/253/111 134/254/111
f 135/252/112 121/251/112 123/245/112 138/244/112
f 124/250/117 125/247/117 123/246/117 121/251/117
f 120/253/118 122/248/118 125/247/118 124/250/118
f 134/254/119 120/253/119 124/250/119 141/249/119
f 131/236/120 130/255/120 127/256/120 129/237/120
f 139/240/111 136/257/111 126/258/111 128/241/111
f 129/237/112 127/256/112 137/259/112 138/244/112
f 130/255/121 142/260/121 137/261/121 127/256/121
f 126/258/122 136/262/122 142/260/122 130/255/122
f 128/241/123 126/258/123 130/255/123 131/236/123
f 141/249/124 135/252/124 133/263/124 140/264/124
f 139/240/111 134/254/111 132/265/111 136/257/111
f 135/252/112 138/244/112 137/259/112 133/263/112
f 140/264/125 133/263/125 137/261/125 142/260/125
f 132/265/126 140/264/126 142/260/126 136/262/126
f 134/254/127 141/249/127 140/264/127 132/265/127
