# Blender v2.80 (sub 44) OBJ File: ''
# www.blender.org
mtllib Test.mtl
o Cube
v -9.765483 0.400000 17.140471
v -9.765483 -0.400000 17.140471
v -9.765483 0.400000 -17.140471
v -9.765483 -0.400000 -17.140471
v 9.765483 0.400000 17.140471
v 9.765483 -0.400000 17.140471
v 9.765483 0.400000 -17.140471
v 9.765483 -0.400000 -17.140471
vt 0.625000 0.000000
vt 0.375000 0.250000
vt 0.375000 0.000000
vt 0.625000 0.250000
vt 0.375000 0.500000
vt 0.375000 0.250000
vt 0.625000 0.500000
vt 0.375000 0.750000
vt 0.625000 0.750000
vt 0.375000 1.000000
vt 0.375000 0.500000
vt 0.125000 0.750000
vt 0.125000 0.500000
vt 0.875000 0.500000
vt 0.625000 0.500000
vt 0.625000 0.250000
vt 0.625000 0.750000
vt 0.625000 1.000000
vt 0.375000 0.750000
vt 0.875000 0.750000
vn 0.0000 1.0000 0.0000
vn 0.0000 0.0000 -1.0000
vn 1.0000 0.0000 0.0000
vn 0.0000 -1.0000 0.0000
vn -1.0000 0.0000 0.0000
vn 0.0000 0.0000 1.0000
usemtl Material
s off
f 5/1/1 3/2/1 1/3/1
f 3/4/2 8/5/2 4/6/2
f 7/7/3 6/8/3 8/5/3
f 2/9/4 8/10/4 6/8/4
f 1/11/5 4/12/5 2/13/5
f 5/14/6 2/9/6 6/15/6
f 5/1/1 7/16/1 3/2/1
f 3/4/2 7/7/2 8/5/2
f 7/7/3 5/17/3 6/8/3
f 2/9/4 4/18/4 8/10/4
f 1/11/5 3/19/5 4/12/5
f 5/14/6 1/20/6 2/9/6
o Plane
v -4.581808 8.413285 5.360641
v -3.171717 1.957880 5.672839
v 0.547615 3.021078 -7.363935
vt 0.000000 0.000000
vt 1.000000 0.000000
vt 0.000000 1.000000
vn 0.9337 0.2177 0.2841
usemtl Light_Big
s off
f 9/21/7 10/22/7 11/23/7
o Cube.001
v -9.821440 10.670453 -16.103014
v -9.821440 0.306575 -16.103014
v -9.821440 10.670453 -17.056181
v -9.821440 0.306575 -17.056181
v 9.821440 10.670453 -16.103014
v 9.821440 0.306575 -16.103014
v 9.821440 10.670453 -17.056181
v 9.821440 0.306575 -17.056181
vt 0.625000 0.000000
vt 0.375000 0.250000
vt 0.375000 0.000000
vt 0.625000 0.250000
vt 0.375000 0.500000
vt 0.375000 0.250000
vt 0.625000 0.500000
vt 0.375000 0.750000
vt 0.625000 0.750000
vt 0.375000 1.000000
vt 0.375000 0.500000
vt 0.125000 0.750000
vt 0.125000 0.500000
vt 0.875000 0.500000
vt 0.625000 0.500000
vt 0.625000 0.250000
vt 0.625000 0.750000
vt 0.625000 1.000000
vt 0.375000 0.750000
vt 0.875000 0.750000
vn 0.0000 1.0000 0.0000
vn 0.0000 0.0000 -1.0000
vn 1.0000 0.0000 0.0000
vn 0.0000 -1.0000 0.0000
vn -1.0000 0.0000 0.0000
vn 0.0000 0.0000 1.0000
usemtl Material.001
s off
f 16/24/8 14/25/8 12/26/8
f 14/27/9 19/28/9 15/29/9
f 18/30/10 17/31/10 19/28/10
f 13/32/11 19/33/11 17/31/11
f 12/34/12 15/35/12 13/36/12
f 16/37/13 13/32/13 17/38/13
f 16/24/8 18/39/8 14/25/8
f 14/27/9 18/30/9 19/28/9
f 18/30/10 16/40/10 17/31/10
f 13/32/11 15/41/11 19/33/11
f 12/34/12 14/42/12 15/35/12
f 16/37/13 12/43/13 13/32/13
o Cube.002
v 9.788413 10.526691 17.140471
v 9.788413 0.292308 17.140471
v 9.788413 10.526691 -17.140471
v 9.788413 0.292308 -17.140471
v 8.892980 10.526691 17.140471
v 8.892980 0.292308 17.140471
v 8.892980 10.526691 -17.140471
v 8.892980 0.292308 -17.140471
vt 0.625000 0.000000
vt 0.375000 0.000000
vt 0.375000 0.250000
vt 0.625000 0.250000
vt 0.375000 0.250000
vt 0.375000 0.500000
vt 0.625000 0.500000
vt 0.375000 0.750000
vt 0.625000 0.750000
vt 0.375000 1.000000
vt 0.375000 0.500000
vt 0.125000 0.500000
vt 0.125000 0.750000
vt 0.875000 0.500000
vt 0.625000 0.500000
vt 0.625000 0.250000
vt 0.625000 0.750000
vt 0.625000 1.000000
vt 0.375000 0.750000
vt 0.875000 0.750000
vn 0.0000 1.0000 0.0000
vn 0.0000 0.0000 -1.0000
vn -1.0000 0.0000 0.0000
vn 0.0000 -1.0000 0.0000
vn 1.0000 0.0000 0.0000
vn 0.0000 0.0000 1.0000
usemtl Material.002
s off
f 24/44/14 20/45/14 22/46/14
f 22/47/15 23/48/15 27/49/15
f 26/50/16 27/49/16 25/51/16
f 21/52/17 25/51/17 27/53/17
f 20/54/18 21/55/18 23/56/18
f 24/57/19 25/58/19 21/52/19
f 24/44/14 22/46/14 26/59/14
f 22/47/15 27/49/15 26/50/15
f 26/50/16 25/51/16 24/60/16
f 21/52/17 27/53/17 23/61/17
f 20/54/18 23/56/18 22/62/18
f 24/57/19 21/52/19 20/63/19
o Cube.003
v -9.821440 10.670453 17.056181
v -9.821440 0.306575 17.056181
v -9.821440 10.670453 16.103014
v -9.821440 0.306575 16.103014
v 9.821440 10.670453 17.056181
v 9.821440 0.306575 17.056181
v 9.821440 10.670453 16.103014
v 9.821440 0.306575 16.103014
vt 0.625000 0.000000
vt 0.375000 0.250000
vt 0.375000 0.000000
vt 0.625000 0.250000
vt 0.375000 0.500000
vt 0.375000 0.250000
vt 0.625000 0.500000
vt 0.375000 0.750000
vt 0.625000 0.750000
vt 0.375000 1.000000
vt 0.375000 0.500000
vt 0.125000 0.750000
vt 0.125000 0.500000
vt 0.875000 0.500000
vt 0.625000 0.500000
vt 0.625000 0.250000
vt 0.625000 0.750000
vt 0.625000 1.000000
vt 0.375000 0.750000
vt 0.875000 0.750000
vn 0.0000 1.0000 0.0000
vn 0.0000 0.0000 -1.0000
vn 1.0000 0.0000 0.0000
vn 0.0000 -1.0000 0.0000
vn -1.0000 0.0000 0.0000
vn 0.0000 0.0000 1.0000
usemtl Material
s off
f 32/64/20 30/65/20 28/66/20
f 30/67/21 35/68/21 31/69/21
f 34/70/22 33/71/22 35/68/22
f 29/72/23 35/73/23 33/71/23
f 28/74/24 31/75/24 29/76/24
f 32/77/25 29/72/25 33/78/25
f 32/64/20 34/79/20 30/65/20
f 30/67/21 34/70/21 35/68/21
f 34/70/22 32/80/22 33/71/22
f 29/72/23 31/81/23 35/73/23
f 28/74/24 30/82/24 31/75/24
f 32/77/25 28/83/25 29/72/25
o Cube.004
v -9.765483 11.171228 17.140471
v -9.765483 10.371229 17.140471
v -9.765483 11.171228 -17.140471
v -9.765483 10.371229 -17.140471
v 9.765483 11.171228 17.140471
v 9.765483 10.371229 17.140471
v 9.765483 11.171228 -17.140471
v 9.765483 10.371229 -17.140471
vt 0.625000 0.000000
vt 0.375000 0.250000
vt 0.375000 0.000000
vt 0.625000 0.250000
vt 0.375000 0.500000
vt 0.375000 0.250000
vt 0.625000 0.500000
vt 0.375000 0.750000
vt 0.625000 0.750000
vt 0.375000 1.000000
vt 0.375000 0.500000
vt 0.125000 0.750000
vt 0.125000 0.500000
vt 0.875000 0.500000
vt 0.625000 0.500000
vt 0.625000 0.250000
vt 0.625000 0.750000
vt 0.625000 1.000000
vt 0.375000 0.750000
vt 0.875000 0.750000
vn 0.0000 1.0000 0.0000
vn 0.0000 0.0000 -1.0000
vn 1.0000 0.0000 0.0000
vn 0.0000 -1.0000 0.0000
vn -1.0000 0.0000 0.0000
vn 0.0000 0.0000 1.0000
usemtl Material.004
s off
f 40/84/26 38/85/26 36/86/26
f 38/87/27 43/88/27 39/89/27
f 42/90/28 41/91/28 43/88/28
f 37/92/29 43/93/29 41/91/29
f 36/94/30 39/95/30 37/96/30
f 40/97/31 37/92/31 41/98/31
f 40/84/26 42/99/26 38/85/26
f 38/87/27 42/90/27 43/88/27
f 42/90/28 40/100/28 41/91/28
f 37/92/29 39/101/29 43/93/29
f 36/94/30 38/102/30 39/95/30
f 40/97/31 36/103/31 37/92/31
o Cube.005
v -8.864762 10.526691 17.140471
v -8.864762 0.292308 17.140471
v -8.864762 10.526691 -17.140471
v -8.864762 0.292308 -17.140471
v -9.760196 10.526691 17.140471
v -9.760196 0.292308 17.140471
v -9.760196 10.526691 -17.140471
v -9.760196 0.292308 -17.140471
vt 0.625000 0.000000
vt 0.375000 0.000000
vt 0.375000 0.250000
vt 0.625000 0.250000
vt 0.375000 0.250000
vt 0.375000 0.500000
vt 0.625000 0.500000
vt 0.375000 0.750000
vt 0.625000 0.750000
vt 0.375000 1.000000
vt 0.375000 0.500000
vt 0.125000 0.500000
vt 0.125000 0.750000
vt 0.875000 0.500000
vt 0.625000 0.500000
vt 0.625000 0.250000
vt 0.625000 0.750000
vt 0.625000 1.000000
vt 0.375000 0.750000
vt 0.875000 0.750000
vn 0.0000 1.0000 0.0000
vn 0.0000 0.0000 -1.0000
vn -1.0000 0.0000 0.0000
vn 0.0000 -1.0000 0.0000
vn 1.0000 0.0000 0.0000
vn 0.0000 0.0000 1.0000
usemtl Material.005
s off
f 48/104/32 44/105/32 46/106/32
f 46/107/33 47/108/33 51/109/33
f 50/110/34 51/109/34 49/111/34
f 45/112/35 49/111/35 51/113/35
f 44/114/36 45/115/36 47/116/36
f 48/117/37 49/118/37 45/112/37
f 48/104/32 46/106/32 50/119/32
f 46/107/33 51/109/33 50/110/33
f 50/110/34 49/111/34 48/120/34
f 45/112/35 51/113/35 47/121/35
f 44/114/36 47/116/36 46/122/36
f 48/117/37 45/112/37 44/123/37
o Plane.002
v -5.342356 9.009406 6.073301
v -3.693278 1.459917 6.438411
v 0.656419 2.703309 -8.807879
v -5.490526 8.135109 5.123772
v -4.107100 1.801775 5.430065
v -0.458101 2.844867 -7.360183
v -5.030589 8.681667 5.299900
v -3.421933 1.537483 5.487308
v -5.214346 8.423373 6.101643
v -4.900705 8.104842 5.315031
v 0.469811 2.649966 -8.153791
v -0.011421 3.138757 -6.946899
v -3.776940 1.842922 6.419888
v -3.511358 1.934629 5.476890
v 0.179590 3.204567 -7.625007
v -4.542246 8.795525 5.448507
v -4.854014 9.123263 6.221910
v -3.288598 1.956779 6.568495
v -3.204936 1.573775 6.587018
v 0.958153 2.763823 -8.005184
v 1.144762 2.817166 -8.659270
v 0.667932 3.318424 -7.476399
v -2.933590 1.651340 5.635915
v -4.412363 8.218699 5.463638
v -4.726004 8.537230 6.250250
v -3.023016 2.048486 5.625497
v 0.476921 3.252615 -6.798292
vt 0.937617 0.062383
vt 0.042901 0.957099
vt 0.042901 0.957099
vt 0.000000 0.000000
vt 1.000000 0.000000
vt 0.000000 1.000000
vt 0.949267 0.000000
vt 0.000000 0.051972
vt 0.000000 0.051972
vt 0.077625 0.000000
vt 0.000000 0.000000
vt 0.000000 0.000000
vt 0.075704 0.052812
vt 0.045841 0.876069
vt 0.045841 0.876069
vt 1.000000 0.000000
vt 0.937617 0.062383
vt 0.885495 0.061804
vt 0.000000 0.920512
vt 0.000000 1.000000
vt 0.000000 0.920512
vt 0.075704 0.052812
vt 0.949267 0.000000
vt 0.885495 0.061804
vt 1.000000 0.000000
vt 0.077625 0.000000
vt 0.000000 1.000000
vn -0.2309 0.9729 0.0135
vn 0.9337 0.2177 0.2841
vn 0.3419 0.9237 0.1729
vn 0.9294 0.1876 -0.3178
vn 0.5735 -0.6453 0.5046
vn -0.9337 -0.2177 -0.2841
vn 0.0840 -0.9049 0.4173
vn -0.0892 0.9103 -0.4042
vn -0.2827 -0.0385 0.9584
vn 0.2350 -0.9716 -0.0280
vn 0.2876 0.0165 -0.9576
usemtl Case
s off
f 59/124/38 71/125/38 62/126/38
f 55/127/39 56/128/39 57/129/39
f 57/129/40 56/128/40 59/124/40
f 55/127/41 64/130/41 56/128/41
f 57/129/42 58/131/42 55/127/42
f 67/132/43 76/133/43 68/134/43
f 52/135/44 67/132/44 68/134/44
f 61/136/45 78/137/45 63/138/45
f 59/124/38 70/139/38 74/140/38
f 63/138/43 65/141/43 61/136/43
f 66/142/44 72/143/44 73/144/44
f 65/141/46 75/145/46 61/136/46
f 74/140/43 78/137/43 71/125/43
f 71/125/43 73/144/43 72/143/43
f 75/145/43 69/146/43 76/133/43
f 78/137/43 67/132/43 73/144/43
f 69/146/43 74/140/43 70/139/43
f 63/138/47 77/147/47 65/141/47
f 64/130/48 76/133/48 69/146/48
f 53/148/48 69/146/48 70/139/48
f 60/149/48 68/134/48 76/133/48
f 62/126/38 72/143/38 54/150/38
f 66/142/44 67/132/44 58/131/44
f 59/124/38 74/140/38 71/125/38
f 56/128/40 53/148/40 59/124/40
f 59/124/40 62/126/40 57/129/40
f 62/126/40 54/150/40 57/129/40
f 55/127/41 52/135/41 60/149/41
f 60/149/41 64/130/41 55/127/41
f 64/130/41 53/148/41 56/128/41
f 57/129/42 54/150/42 66/142/42
f 66/142/42 58/131/42 57/129/42
f 58/131/42 52/135/42 55/127/42
f 67/132/43 75/145/43 76/133/43
f 52/135/44 58/131/44 67/132/44
f 61/136/45 75/145/45 78/137/45
f 59/124/38 53/148/38 70/139/38
f 66/142/44 54/150/44 72/143/44
f 65/141/46 77/147/46 75/145/46
f 74/140/43 77/147/43 78/137/43
f 71/125/43 78/137/43 73/144/43
f 75/145/43 77/147/43 69/146/43
f 78/137/43 75/145/43 67/132/43
f 69/146/43 77/147/43 74/140/43
f 63/138/47 78/137/47 77/147/47
f 64/130/48 60/149/48 76/133/48
f 53/148/48 64/130/48 69/146/48
f 60/149/48 52/135/48 68/134/48
f 62/126/38 71/125/38 72/143/38
f 66/142/44 73/144/44 67/132/44
o Plane.001
v 7.824595 8.207139 -11.428466
v 6.668073 7.893624 -12.534026
v 7.000986 9.404163 -13.176636
vt 0.000000 0.000000
vt 0.000000 1.000000
vt 1.000000 0.000000
vn -0.6863 0.4075 0.6024
usemtl Light_Small
s off
f 79/151/49 81/152/49 80/153/49
