o sponza_249
v 90.3611 68.0957 -3.88253
v 90.3611 68.0957 -3.08367
v 89.3576 68.0957 -3.08367
v 89.3576 68.0957 -3.88253
v 89.3576 69.2297 -3.08367
v 90.6566 69.2297 -3.08367
v 90.6566 69.2297 -3.88252
v 89.3576 69.2297 -3.88252
v 90.3611 68.0957 -3.88253
v 89.3576 68.0957 -3.88253
v 90.4621 68.2607 -3.88253
v 90.3611 68.0957 -3.88253
v 90.4621 68.2607 -3.88253
v 90.4621 68.2607 -3.08367
v 90.3611 68.0957 -3.08367
v 90.3611 68.0957 -3.08367
v 90.4621 68.2607 -3.08367
v 89.3576 68.0957 -3.08367
v 89.3576 69.2297 -3.88252
v 90.6566 69.2297 -3.88252
v 90.6566 68.3503 -3.08367
v 90.6566 68.3503 -3.88253
v 90.6566 69.2297 -3.88252
v 90.6566 69.2297 -3.08367
v 89.3576 69.2297 -3.08367
v 90.6566 69.2297 -3.08367
v 90.6566 68.3503 -3.88253
v 90.6566 68.3503 -3.88253
v 90.6566 68.3503 -3.08367
v 90.4621 68.2607 -3.08367
v 90.4621 68.2607 -3.88253
v 90.6566 68.3503 -3.08367
vt 0.6529 0.9132
vt 0.5979 0.9132
vt 0.5979 0.9823
vt 0.6529 0.9823
vt 0.5979 0.7366
vt 0.5979 0.826
vt 0.6529 0.826
vt 0.6529 0.7366
vt 0.5153 0.8138
vt 0.5153 0.8829
vt 0.5266 0.8068
vt 0.6529 0.9132
vt 0.6529 0.8999
vt 0.5979 0.8999
vt 0.5979 0.9132
vt 0.5979 0.9132
vt 0.5866 0.9063
vt 0.5979 0.9823
vt 0.5933 0.8829
vt 0.5933 0.7934
vt 0.5979 0.8865
vt 0.6529 0.8865
vt 0.6529 0.826
vt 0.5979 0.826
vt 0.5198 0.9823
vt 0.5199 0.8929
vt 0.5328 0.7934
vt 0.6529 0.8865
vt 0.5979 0.8865
vt 0.5979 0.8999
vt 0.6529 0.8999
vt 0.5804 0.8929
vn 0 -1 0
vn 0 -1 0
vn 0 -1 0
vn 0 -1 0
vn 0 1 0
vn 0 1 0
vn 0 1 0
vn 0 1 0
vn 0 0 -1
vn 0 0 -1
vn 0 0 -1
vn 0.8527 -0.5224 0
vn 0.8527 -0.5224 0
vn 0.8528 -0.5223 0
vn 0.8528 -0.5223 0
vn 0 0 1
vn 0 0 1
vn 0 0 1
vn 0 0 -1
vn 0 0 -1
vn 1 -0 0
vn 1 -0 0
vn 1 -0 0
vn 1 -0 0
vn 0 0 1
vn 0 0 1
vn 0 0 -1
vn 0.4185 -0.9082 0
vn 0.4185 -0.9082 0
vn 0.4185 -0.9082 0
vn 0.4185 -0.9082 0
vn 0 0 1
f 1/1/1 2/2/2 3/3/3
f 1/1/1 3/3/3 4/4/4
f 5/5/5 6/6/6 7/7/7
f 5/5/5 7/7/7 8/8/8
f 9/9/9 10/10/10 11/11/11
f 12/12/12 13/13/13 14/14/14
f 12/12/12 14/14/14 15/15/15
f 16/16/16 17/17/17 18/18/18
f 11/11/11 10/10/10 19/19/19
f 11/11/11 19/19/19 20/20/20
f 21/21/21 22/22/22 23/23/23
f 21/21/21 23/23/23 24/24/24
f 25/25/25 18/18/18 17/17/17
f 25/25/25 17/17/17 26/26/26
f 20/20/20 27/27/27 11/11/11
f 28/28/28 29/29/29 30/30/30
f 28/28/28 30/30/30 31/31/31
f 17/17/17 32/32/32 26/26/26
