o sponza_262
v 12.2006 84.205 -23.0868
v 12.088 84.2342 -23.0946
v 12.088 83.1947 -26.9742
v 12.2006 83.1655 -26.9664
v 12.0056 84.3138 -23.1159
v 12.0056 83.2743 -26.9955
v 11.9754 84.4226 -23.1451
v 11.9754 83.3831 -27.0247
v 11.9754 84.4226 -23.1451
v 12.0056 84.5314 -23.1742
v 12.0056 83.4919 -27.0538
v 11.9754 83.3831 -27.0247
v 12.088 84.611 -23.1956
v 12.088 83.5715 -27.0752
v 12.2006 84.6401 -23.2034
v 12.2006 83.6006 -27.083
v 12.088 83.5715 -27.0752
v 12.2006 84.6401 -23.2034
v 12.3132 84.611 -23.1956
v 12.3132 83.5715 -27.0752
v 12.2006 83.6006 -27.083
v 12.3957 84.5314 -23.1742
v 12.3957 83.4919 -27.0538
v 12.3957 84.5314 -23.1742
v 12.4258 84.4226 -23.1451
v 12.4258 83.3831 -27.0247
v 12.3957 83.4919 -27.0538
v 12.3957 84.3138 -23.1159
v 12.3957 83.2743 -26.9955
v 12.3957 84.3138 -23.1159
v 12.3132 84.2342 -23.0946
v 12.3132 83.1947 -26.9742
v 12.3957 83.2743 -26.9955
v 12.2006 84.205 -23.0868
v 12.2006 83.1655 -26.9664
v 12.088 84.2342 -23.0946
v 12.2006 84.205 -23.0868
v 12.2006 85.2446 -19.2072
v 12.088 85.2737 -19.215
v 12.088 85.2737 -19.215
v 12.0056 85.3533 -19.2363
v 12.0056 84.3138 -23.1159
v 11.9754 85.4621 -19.2655
v 11.9754 84.4226 -23.1451
v 11.9754 85.4621 -19.2655
v 12.0056 85.5709 -19.2946
v 12.0056 84.5314 -23.1742
v 11.9754 84.4226 -23.1451
v 12.088 85.6505 -19.316
v 12.088 84.611 -23.1956
v 12.2006 85.6797 -19.3238
v 12.2006 84.6401 -23.2034
v 12.2006 85.6797 -19.3238
v 12.3132 85.6505 -19.316
v 12.3132 84.611 -23.1956
v 12.2006 84.6401 -23.2034
v 12.3957 85.5709 -19.2946
v 12.3957 84.5314 -23.1742
v 12.4258 85.4621 -19.2655
v 12.4258 84.4226 -23.1451
v 12.3957 84.5314 -23.1742
v 12.3957 85.3533 -19.2363
v 12.3957 84.3138 -23.1159
v 12.3957 85.3533 -19.2363
v 12.3132 85.2737 -19.215
v 12.3132 84.2342 -23.0946
v 12.3957 84.3138 -23.1159
v 12.2006 84.205 -23.0868
v 12.2006 85.2446 -19.2072
v 12.2006 86.2841 -15.3276
v 12.088 86.3132 -15.3354
v 12.088 85.2737 -19.215
v 12.2006 85.2446 -19.2072
v 12.088 86.3132 -15.3354
v 12.0056 86.3929 -15.3567
v 12.0056 85.3533 -19.2363
v 12.088 85.2737 -19.215
v 11.9754 86.5016 -15.3859
v 11.9754 85.4621 -19.2655
v 11.9754 86.5016 -15.3859
v 12.0056 86.6104 -15.415
v 12.0056 85.5709 -19.2946
v 11.9754 85.4621 -19.2655
v 12.088 86.6901 -15.4364
v 12.088 85.6505 -19.316
v 12.088 86.6901 -15.4364
v 12.2006 86.7192 -15.4442
v 12.2006 85.6797 -19.3238
v 12.3132 86.6901 -15.4364
v 12.3132 85.6505 -19.316
v 12.2006 85.6797 -19.3238
v 12.3957 86.6104 -15.415
v 12.3957 85.5709 -19.2946
v 12.4258 86.5016 -15.3859
v 12.4258 85.4621 -19.2655
v 12.3957 86.3929 -15.3567
v 12.3957 85.3533 -19.2363
v 12.3132 86.3132 -15.3354
v 12.3132 85.2737 -19.215
v 12.3957 85.3533 -19.2363
v 12.2006 86.2841 -15.3276
v 12.2006 85.2446 -19.2072
v 12.1479 88.4356 -7.93154
v 12.1702 88.4141 -7.92576
v 12.2006 88.4062 -7.92365
v 12.2534 88.4356 -7.93154
v 12.1479 88.4944 -7.94731
v 12.2616 88.465 -7.93942
v 12.2534 88.4944 -7.94731
v 12.2311 88.516 -7.95308
v 12.2006 88.5239 -7.95519
v 12.1702 88.516 -7.95308
v 12.1397 88.465 -7.93942
v 12.2311 88.4141 -7.92576
v 12.2006 87.5652 -10.2218
v 12.046 87.6052 -10.2325
v 12.088 87.5882 -10.5771
v 12.2006 87.5591 -10.5693
v 11.9328 87.7146 -10.2618
v 12.0056 87.6678 -10.5985
v 11.8914 87.8639 -10.3019
v 11.9754 87.7766 -10.6276
v 11.9328 88.0132 -10.3419
v 12.0056 87.8854 -10.6568
v 12.046 88.1226 -10.3712
v 12.088 87.965 -10.6781
v 12.2006 88.1626 -10.3819
v 12.2006 87.9942 -10.6859
v 12.3552 88.1226 -10.3712
v 12.3132 87.965 -10.6781
v 12.4684 88.0132 -10.3419
v 12.3957 87.8854 -10.6568
v 12.5098 87.8639 -10.3019
v 12.4258 87.7766 -10.6276
v 12.4684 87.7146 -10.2618
v 12.3957 87.6678 -10.5985
v 12.3552 87.6052 -10.2325
v 12.3132 87.5882 -10.5771
v 12.2006 87.5652 -10.2218
v 12.2006 87.5591 -10.5693
v 12.2006 87.9769 -8.54664
v 12.0357 88.0196 -8.55808
v 12.0074 87.8025 -9.23792
v 12.2006 87.7525 -9.22452
v 11.915 88.1361 -8.58932
v 11.8659 87.9391 -9.27454
v 11.8709 88.2954 -8.63199
v 11.8141 88.1258 -9.32455
v 11.915 88.4547 -8.67466
v 11.8659 88.3124 -9.37456
v 12.0357 88.5712 -8.7059
v 12.0074 88.4491 -9.41118
v 12.2006 88.6139 -8.71734
v 12.2006 88.4991 -9.42458
v 12.3655 88.5712 -8.7059
v 12.3939 88.4491 -9.41117
v 12.4862 88.4547 -8.67466
v 12.5353 88.3124 -9.37456
v 12.5304 88.2954 -8.63199
v 12.5871 88.1258 -9.32455
v 12.4862 88.1361 -8.58932
v 12.5353 87.9391 -9.27454
v 12.3655 88.0196 -8.55808
v 12.3939 87.8025 -9.23792
v 12.2006 87.9769 -8.54664
v 12.2006 87.7525 -9.22452
v 12.2006 88.4062 -7.92365
v 12.1702 88.4141 -7.92576
v 12.1479 88.4356 -7.93154
v 12.1397 88.465 -7.93942
v 12.1479 88.4944 -7.94731
v 12.1702 88.516 -7.95308
v 12.2006 88.5239 -7.95519
v 12.2311 88.516 -7.95308
v 12.2534 88.4944 -7.94731
v 12.2616 88.465 -7.93942
v 12.2534 88.4356 -7.93154
v 12.2311 88.4141 -7.92576
v 12.2006 88.4062 -7.92365
v 12.0477 87.6953 -9.90753
v 12.2006 87.6558 -9.89692
v 11.9357 87.8035 -9.93651
v 11.8948 87.9512 -9.97608
v 11.9357 88.0989 -10.0157
v 12.0477 88.207 -10.0446
v 12.2006 88.2466 -10.0552
v 12.3535 88.207 -10.0446
v 12.4655 88.0989 -10.0157
v 12.5065 87.9512 -9.97608
v 12.4655 87.8035 -9.9365
v 12.3535 87.6953 -9.90753
v 12.2006 87.6558 -9.89692
v 12.088 86.3132 -15.3354
v 12.2006 86.2841 -15.3276
v 12.0056 86.3929 -15.3567
v 12.088 86.3132 -15.3354
v 11.9754 86.5016 -15.3859
v 12.0056 86.6104 -15.415
v 11.9754 86.5016 -15.3859
v 12.088 86.6901 -15.4364
v 12.2006 86.7192 -15.4442
v 12.088 86.6901 -15.4364
v 12.3132 86.6901 -15.4364
v 12.3957 86.6104 -15.415
v 12.4258 86.5016 -15.3859
v 12.3957 86.3929 -15.3567
v 12.3132 86.3132 -15.3354
v 12.2006 86.2841 -15.3276
vt 0.9876 0.5241
vt 0.9633 0.5241
vt 0.9633 0.0053
vt 0.9876 0.0053
vt 0.9391 0.5241
vt 0.9391 0.0053
vt 0.9148 0.5241
vt 0.9148 0.0053
vt 0.9148 0.5241
vt 0.8906 0.5241
vt 0.8906 0.0053
vt 0.9148 0.0053
vt 0.8663 0.5241
vt 0.8663 0.0053
vt 0.8421 0.5241
vt 0.8421 0.0053
vt 0.8663 0.0053
vt 0.8421 0.5241
vt 0.8178 0.5241
vt 0.8178 0.0053
vt 0.8421 0.0053
vt 0.7936 0.5241
vt 0.7936 0.0053
vt 0.7936 0.5241
vt 0.7694 0.5241
vt 0.7694 0.0053
vt 0.7936 0.0053
vt 0.7451 0.5241
vt 0.7451 0.0053
vt 0.7451 0.5241
vt 0.7209 0.5241
vt 0.7209 0.0053
vt 0.7451 0.0053
vt 0.6966 0.5241
vt 0.6966 0.0053
vt 0.9633 0.0053
vt 0.9876 0.0053
vt 0.9876 0.5241
vt 0.9633 0.5241
vt 0.9633 0.5241
vt 0.9391 0.5241
vt 0.9391 0.0053
vt 0.9148 0.5241
vt 0.9148 0.0053
vt 0.9148 0.5241
vt 0.8906 0.5241
vt 0.8906 0.0053
vt 0.9148 0.0053
vt 0.8663 0.5241
vt 0.8663 0.0053
vt 0.8421 0.5241
vt 0.8421 0.0053
vt 0.8421 0.5241
vt 0.8178 0.5241
vt 0.8178 0.0053
vt 0.8421 0.0053
vt 0.7936 0.5241
vt 0.7936 0.0053
vt 0.7694 0.5241
vt 0.7694 0.0053
vt 0.7936 0.0053
vt 0.7451 0.5241
vt 0.7451 0.0053
vt 0.7451 0.5241
vt 0.7209 0.5241
vt 0.7209 0.0053
vt 0.7451 0.0053
vt 0.6966 0.0053
vt 0.6966 0.5241
vt 0.9876 0.5241
vt 0.9633 0.5241
vt 0.9633 0.0053
vt 0.9876 0.0053
vt 0.9633 0.5241
vt 0.9391 0.5241
vt 0.9391 0.0053
vt 0.9633 0.0053
vt 0.9148 0.5241
vt 0.9148 0.0053
vt 0.9148 0.5241
vt 0.8906 0.5241
vt 0.8906 0.0053
vt 0.9148 0.0053
vt 0.8663 0.5241
vt 0.8663 0.0053
vt 0.8663 0.5241
vt 0.8421 0.5241
vt 0.8421 0.0053
vt 0.8178 0.5241
vt 0.8178 0.0053
vt 0.8421 0.0053
vt 0.7936 0.5241
vt 0.7936 0.0053
vt 0.7694 0.5241
vt 0.7694 0.0053
vt 0.7451 0.5241
vt 0.7451 0.0053
vt 0.7209 0.5241
vt 0.7209 0.0053
vt 0.7451 0.0053
vt 0.6966 0.5241
vt 0.6966 0.0053
vt 0.9918 0.0129
vt 0.9918 0.0129
vt 0.9918 0.0129
vt 0.9918 0.0129
vt 0.9918 0.0129
vt 0.9918 0.0129
vt 0.9918 0.0129
vt 0.9918 0.0129
vt 0.9918 0.0129
vt 0.9918 0.0129
vt 0.9918 0.0129
vt 0.9918 0.0129
vt 0.9876 0.6851
vt 0.9633 0.6851
vt 0.9633 0.6416
vt 0.9876 0.6416
vt 0.9391 0.6851
vt 0.9391 0.6416
vt 0.9148 0.6851
vt 0.9148 0.6416
vt 0.8906 0.6851
vt 0.8906 0.6416
vt 0.8663 0.6851
vt 0.8663 0.6416
vt 0.8421 0.6851
vt 0.8421 0.6416
vt 0.8178 0.6851
vt 0.8178 0.6416
vt 0.7936 0.6851
vt 0.7936 0.6416
vt 0.7694 0.6851
vt 0.7694 0.6416
vt 0.7451 0.6851
vt 0.7451 0.6416
vt 0.7209 0.6851
vt 0.7209 0.6416
vt 0.6966 0.6851
vt 0.6966 0.6416
vt 0.9876 0.9029
vt 0.9633 0.9029
vt 0.9633 0.8158
vt 0.9876 0.8158
vt 0.9391 0.9029
vt 0.9391 0.8158
vt 0.9148 0.9029
vt 0.9148 0.8158
vt 0.8906 0.9029
vt 0.8906 0.8158
vt 0.8663 0.9029
vt 0.8663 0.8158
vt 0.8421 0.9029
vt 0.8421 0.8158
vt 0.8178 0.9029
vt 0.8178 0.8158
vt 0.7936 0.9029
vt 0.7936 0.8158
vt 0.7694 0.9029
vt 0.7694 0.8158
vt 0.7451 0.9029
vt 0.7451 0.8158
vt 0.7209 0.9029
vt 0.7209 0.8158
vt 0.6966 0.9029
vt 0.6966 0.8158
vt 0.9876 0.99
vt 0.9633 0.99
vt 0.9391 0.99
vt 0.9148 0.99
vt 0.8906 0.99
vt 0.8663 0.99
vt 0.8421 0.99
vt 0.8178 0.99
vt 0.7936 0.99
vt 0.7694 0.99
vt 0.7451 0.99
vt 0.7209 0.99
vt 0.6966 0.99
vt 0.9633 0.7287
vt 0.9876 0.7287
vt 0.9391 0.7287
vt 0.9148 0.7287
vt 0.8906 0.7287
vt 0.8663 0.7287
vt 0.8421 0.7287
vt 0.8178 0.7287
vt 0.7936 0.7287
vt 0.7694 0.7287
vt 0.7451 0.7287
vt 0.7209 0.7287
vt 0.6966 0.7287
vt 0.9633 0.0053
vt 0.9876 0.0053
vt 0.9391 0.0053
vt 0.9633 0.0053
vt 0.9148 0.0053
vt 0.8906 0.0053
vt 0.9148 0.0053
vt 0.8663 0.0053
vt 0.8421 0.0053
vt 0.8663 0.0053
vt 0.8178 0.0053
vt 0.7936 0.0053
vt 0.7694 0.0053
vt 0.7451 0.0053
vt 0.7209 0.0053
vt 0.6966 0.0053
vn -0.2588 -0.933 0.25
vn -0.5 -0.8365 0.2241
vn -0.5 -0.8365 0.2241
vn -0.2588 -0.933 0.25
vn -0.866 -0.483 0.1294
vn -0.866 -0.483 0.1294
vn -0.9659 -0.2501 0.067
vn -0.9659 -0.25 0.067
vn -0.9659 0.25 -0.067
vn -0.866 0.483 -0.1294
vn -0.866 0.483 -0.1294
vn -0.9659 0.25 -0.067
vn -0.5 0.8365 -0.2241
vn -0.7071 0.683 -0.183
vn -0.2588 0.933 -0.25
vn -0.2589 0.933 -0.25
vn -0.2589 0.933 -0.25
vn 0.2589 0.933 -0.25
vn 0.5 0.8365 -0.2241
vn 0.5 0.8365 -0.2241
vn 0.2589 0.933 -0.25
vn 0.7071 0.683 -0.183
vn 0.707 0.6831 -0.183
vn 0.9659 0.25 -0.067
vn 1 -0 0
vn 1 -0 0
vn 0.9659 0.25 -0.067
vn 0.9659 -0.25 0.067
vn 0.9659 -0.25 0.067
vn 0.7071 -0.683 0.183
vn 0.5 -0.8365 0.2241
vn 0.5 -0.8365 0.2241
vn 0.707 -0.6831 0.183
vn 0.2589 -0.933 0.25
vn 0.2589 -0.933 0.25
vn -0.5 -0.8365 0.2241
vn -0.2588 -0.933 0.25
vn 0 -0.9659 0.2588
vn -0.2588 -0.933 0.25
vn -0.7071 -0.683 0.183
vn -0.866 -0.483 0.1294
vn -0.866 -0.483 0.1294
vn -0.9659 -0.25 0.067
vn -0.9659 -0.2501 0.067
vn -0.9659 0.25 -0.067
vn -0.866 0.483 -0.1294
vn -0.866 0.483 -0.1294
vn -0.9659 0.25 -0.067
vn -0.5 0.8365 -0.2241
vn -0.5 0.8365 -0.2241
vn -0.2588 0.933 -0.25
vn -0.2588 0.933 -0.25
vn 0.2589 0.933 -0.25
vn 0.5 0.8365 -0.2241
vn 0.5 0.8365 -0.2241
vn 0.2589 0.933 -0.25
vn 0.866 0.483 -0.1294
vn 0.7071 0.683 -0.183
vn 1 -0 0
vn 1 -0 0
vn 0.9659 0.25 -0.067
vn 0.9659 -0.2499 0.067
vn 0.9659 -0.25 0.067
vn 0.7071 -0.6831 0.183
vn 0.5 -0.8365 0.2241
vn 0.5 -0.8365 0.2241
vn 0.7071 -0.683 0.183
vn 0.2589 -0.933 0.25
vn 0 -0.9659 0.2588
vn 0 -0.9659 0.2588
vn -0.2587 -0.933 0.25
vn -0.2588 -0.933 0.25
vn 0 -0.9659 0.2588
vn -0.7072 -0.683 0.183
vn -0.866 -0.483 0.1294
vn -0.866 -0.483 0.1294
vn -0.7071 -0.683 0.183
vn -0.9659 -0.2501 0.067
vn -0.9659 -0.25 0.067
vn -0.9659 0.25 -0.067
vn -0.866 0.4829 -0.1294
vn -0.866 0.483 -0.1294
vn -0.9659 0.25 -0.067
vn -0.7072 0.683 -0.183
vn -0.5 0.8365 -0.2241
vn -0.2588 0.933 -0.25
vn 0 0.9659 -0.2588
vn -0.2588 0.933 -0.25
vn 0.5 0.8365 -0.2241
vn 0.5 0.8365 -0.2241
vn 0.2589 0.933 -0.25
vn 0.866 0.4829 -0.1294
vn 0.866 0.483 -0.1294
vn 1 -0 0
vn 1 -0 0
vn 0.866 -0.483 0.1294
vn 0.9659 -0.2499 0.067
vn 0.5 -0.8365 0.2241
vn 0.5 -0.8365 0.2241
vn 0.7071 -0.6831 0.183
vn 0 -0.9659 0.2588
vn 0 -0.9659 0.2588
vn 0.0001 0.2589 0.9659
vn 0.0002 0.2594 0.9658
vn -0 0.259 0.9659
vn -0.0001 0.259 0.9659
vn 0.0001 0.2588 0.9659
vn -0.0007 0.2589 0.9659
vn -0.0001 0.2588 0.9659
vn 0.0001 0.2587 0.966
vn 0 0.2586 0.966
vn -0.0001 0.2588 0.9659
vn 0.0007 0.2588 0.9659
vn -0.0002 0.2598 0.9657
vn 0 -0.9892 0.1466
vn -0.4967 -0.8606 0.1121
vn -0.4961 -0.8622 0.1024
vn 0 -0.9906 0.1368
vn -0.8603 -0.5094 0.018
vn -0.8593 -0.5114 0.0084
vn -0.9934 -0.0296 -0.1105
vn -0.9923 -0.0322 -0.12
vn -0.8603 0.4502 -0.2391
vn -0.8593 0.447 -0.2484
vn -0.4967 0.8014 -0.3332
vn -0.4961 0.7979 -0.3424
vn 0 0.93 -0.3676
vn 0 0.9263 -0.3768
vn 0.4967 0.8014 -0.3332
vn 0.4961 0.7979 -0.3424
vn 0.8603 0.4502 -0.2391
vn 0.8593 0.447 -0.2484
vn 0.9934 -0.0296 -0.1105
vn 0.9923 -0.0322 -0.12
vn 0.8603 -0.5094 0.018
vn 0.8593 -0.5114 0.0084
vn 0.4967 -0.8606 0.1122
vn 0.4961 -0.8622 0.1024
vn 0 -0.9892 0.1466
vn 0 -0.9906 0.1368
vn 0 -0.8974 0.4413
vn -0.49 -0.7694 0.4097
vn -0.5005 -0.8432 0.1963
vn 0 -0.9733 0.2296
vn -0.8476 -0.4205 0.3236
vn -0.8665 -0.488 0.1051
vn -0.977 0.0548 0.2063
vn -0.9998 -0.0033 -0.0192
vn -0.8444 0.5282 0.0895
vn -0.8652 0.4805 -0.1434
vn -0.4868 0.8735 0.0042
vn -0.4992 0.8342 -0.2342
vn 0 0.9996 -0.027
vn 0 0.9636 -0.2674
vn 0.4868 0.8735 0.0042
vn 0.4992 0.8342 -0.2342
vn 0.8444 0.5282 0.0895
vn 0.8652 0.4805 -0.1434
vn 0.977 0.0548 0.2063
vn 0.9998 -0.0033 -0.0192
vn 0.8476 -0.4205 0.3236
vn 0.8665 -0.488 0.1051
vn 0.49 -0.7694 0.4097
vn 0.5005 -0.8432 0.1963
vn 0 -0.8974 0.4413
vn 0 -0.9733 0.2296
vn -0 -0.8234 0.5674
vn -0.4692 -0.7009 0.5371
vn -0.8117 -0.367 0.4544
vn -0.9357 0.088 0.3416
vn -0.8089 0.5415 0.2293
vn -0.4665 0.8722 0.1473
vn -0 0.9931 0.1173
vn 0.4665 0.8722 0.1473
vn 0.8089 0.5415 0.2292
vn 0.9357 0.0881 0.3416
vn 0.8117 -0.367 0.4544
vn 0.4692 -0.701 0.5371
vn -0 -0.8234 0.5674
vn -0.4993 -0.8495 0.1706
vn 0 -0.9787 0.2052
vn -0.8647 -0.4965 0.076
vn -0.9985 -0.0143 -0.0532
vn -0.8647 0.468 -0.1824
vn -0.4992 0.821 -0.277
vn 0 0.9502 -0.3116
vn 0.4992 0.821 -0.277
vn 0.8647 0.468 -0.1824
vn 0.9985 -0.0143 -0.0532
vn 0.8647 -0.4965 0.076
vn 0.4993 -0.8495 0.1706
vn 0 -0.9787 0.2052
vn -0.2587 -0.933 0.25
vn 0 -0.9659 0.2588
vn -0.866 -0.483 0.1294
vn -0.7072 -0.683 0.183
vn -0.9659 -0.2501 0.067
vn -0.866 0.4829 -0.1294
vn -0.9659 0.25 -0.067
vn -0.7072 0.683 -0.183
vn 0 0.9659 -0.2588
vn -0.2588 0.933 -0.25
vn 0.5 0.8365 -0.2241
vn 0.866 0.4829 -0.1294
vn 1 -0 0
vn 0.866 -0.483 0.1294
vn 0.5 -0.8365 0.2241
vn 0 -0.9659 0.2588
f 1/1/1 2/2/2 3/3/3
f 1/1/1 3/3/3 4/4/4
f 2/2/2 5/5/5 6/6/6
f 2/2/2 6/6/6 3/3/3
f 5/5/5 7/7/7 8/8/8
f 5/5/5 8/8/8 6/6/6
f 9/9/9 10/10/10 11/11/11
f 9/9/9 11/11/11 12/12/12
f 10/10/10 13/13/13 14/14/14
f 10/10/10 14/14/14 11/11/11
f 13/13/13 15/15/15 16/16/16
f 13/13/13 16/16/16 17/17/17
f 18/18/18 19/19/19 20/20/20
f 18/18/18 20/20/20 21/21/21
f 19/19/19 22/22/22 23/23/23
f 19/19/19 23/23/23 20/20/20
f 24/24/24 25/25/25 26/26/26
f 24/24/24 26/26/26 27/27/27
f 25/25/25 28/28/28 29/29/29
f 25/25/25 29/29/29 26/26/26
f 30/30/30 31/31/31 32/32/32
f 30/30/30 32/32/32 33/33/33
f 31/31/31 34/34/34 35/35/35
f 31/31/31 35/35/35 32/32/32
f 36/36/36 37/37/37 38/38/38
f 36/36/36 38/38/38 39/39/39
f 40/40/40 41/41/41 42/42/42
f 40/40/40 42/42/42 36/36/36
f 41/41/41 43/43/43 44/44/44
f 41/41/41 44/44/44 42/42/42
f 45/45/45 46/46/46 47/47/47
f 45/45/45 47/47/47 48/48/48
f 46/46/46 49/49/49 50/50/50
f 46/46/46 50/50/50 47/47/47
f 49/49/49 51/51/51 52/52/52
f 49/49/49 52/52/52 50/50/50
f 53/53/53 54/54/54 55/55/55
f 53/53/53 55/55/55 56/56/56
f 54/54/54 57/57/57 58/58/58
f 54/54/54 58/58/58 55/55/55
f 57/57/57 59/59/59 60/60/60
f 57/57/57 60/60/60 61/61/61
f 59/59/59 62/62/62 63/63/63
f 59/59/59 63/63/63 60/60/60
f 64/64/64 65/65/65 66/66/66
f 64/64/64 66/66/66 67/67/67
f 68/68/68 66/66/66 65/65/65
f 68/68/68 65/65/65 69/69/69
f 70/70/70 71/71/71 72/72/72
f 70/70/70 72/72/72 73/73/73
f 74/74/74 75/75/75 76/76/76
f 74/74/74 76/76/76 77/77/77
f 75/75/75 78/78/78 79/79/79
f 75/75/75 79/79/79 76/76/76
f 80/80/80 81/81/81 82/82/82
f 80/80/80 82/82/82 83/83/83
f 81/81/81 84/84/84 85/85/85
f 81/81/81 85/85/85 82/82/82
f 86/86/86 87/87/87 88/88/88
f 86/86/86 88/88/88 85/85/85
f 87/87/87 89/89/89 90/90/90
f 87/87/87 90/90/90 91/91/91
f 89/89/89 92/92/92 93/93/93
f 89/89/89 93/93/93 90/90/90
f 92/92/92 94/94/94 95/95/95
f 92/92/92 95/95/95 93/93/93
f 94/94/94 96/96/96 97/97/97
f 94/94/94 97/97/97 95/95/95
f 96/96/96 98/98/98 99/99/99
f 96/96/96 99/99/99 100/100/100
f 98/98/98 101/101/101 102/102/102
f 98/98/98 102/102/102 99/99/99
f 103/103/103 104/104/104 105/105/105
f 103/103/103 105/105/105 106/106/106
f 103/103/103 106/106/106 107/107/107
f 106/106/106 108/108/108 109/109/109
f 106/106/106 109/109/109 107/107/107
f 109/109/109 110/110/110 111/111/111
f 109/109/109 111/111/111 107/107/107
f 111/111/111 112/112/112 107/107/107
f 113/113/113 103/103/103 107/107/107
f 114/114/114 106/106/106 105/105/105
f 115/115/115 116/116/116 117/117/117
f 115/115/115 117/117/117 118/118/118
f 116/116/116 119/119/119 120/120/120
f 116/116/116 120/120/120 117/117/117
f 119/119/119 121/121/121 122/122/122
f 119/119/119 122/122/122 120/120/120
f 121/121/121 123/123/123 124/124/124
f 121/121/121 124/124/124 122/122/122
f 123/123/123 125/125/125 126/126/126
f 123/123/123 126/126/126 124/124/124
f 125/125/125 127/127/127 128/128/128
f 125/125/125 128/128/128 126/126/126
f 127/127/127 129/129/129 130/130/130
f 127/127/127 130/130/130 128/128/128
f 129/129/129 131/131/131 132/132/132
f 129/129/129 132/132/132 130/130/130
f 131/131/131 133/133/133 134/134/134
f 131/131/131 134/134/134 132/132/132
f 133/133/133 135/135/135 136/136/136
f 133/133/133 136/136/136 134/134/134
f 135/135/135 137/137/137 138/138/138
f 135/135/135 138/138/138 136/136/136
f 137/137/137 139/139/139 140/140/140
f 137/137/137 140/140/140 138/138/138
f 141/141/141 142/142/142 143/143/143
f 141/141/141 143/143/143 144/144/144
f 143/143/143 142/142/142 145/145/145
f 143/143/143 145/145/145 146/146/146
f 146/146/146 145/145/145 147/147/147
f 146/146/146 147/147/147 148/148/148
f 148/148/148 147/147/147 149/149/149
f 148/148/148 149/149/149 150/150/150
f 150/150/150 149/149/149 151/151/151
f 150/150/150 151/151/151 152/152/152
f 151/151/151 153/153/153 154/154/154
f 151/151/151 154/154/154 152/152/152
f 153/153/153 155/155/155 156/156/156
f 153/153/153 156/156/156 154/154/154
f 155/155/155 157/157/157 158/158/158
f 155/155/155 158/158/158 156/156/156
f 157/157/157 159/159/159 160/160/160
f 157/157/157 160/160/160 158/158/158
f 159/159/159 161/161/161 162/162/162
f 159/159/159 162/162/162 160/160/160
f 161/161/161 163/163/163 164/164/164
f 161/161/161 164/164/164 162/162/162
f 163/163/163 165/165/165 166/166/166
f 163/163/163 166/166/166 164/164/164
f 167/167/167 168/168/168 142/142/142
f 167/167/167 142/142/142 141/141/141
f 168/168/168 169/169/169 145/145/145
f 168/168/168 145/145/145 142/142/142
f 145/145/145 169/169/169 170/170/170
f 145/145/145 170/170/170 147/147/147
f 147/147/147 170/170/170 171/171/171
f 147/147/147 171/171/171 149/149/149
f 171/171/171 172/172/172 151/151/151
f 171/171/171 151/151/151 149/149/149
f 172/172/172 173/173/173 153/153/153
f 172/172/172 153/153/153 151/151/151
f 173/173/173 174/174/174 155/155/155
f 173/173/173 155/155/155 153/153/153
f 174/174/174 175/175/175 157/157/157
f 174/174/174 157/157/157 155/155/155
f 175/175/175 176/176/176 159/159/159
f 175/175/175 159/159/159 157/157/157
f 176/176/176 177/177/177 161/161/161
f 176/176/176 161/161/161 159/159/159
f 177/177/177 178/178/178 163/163/163
f 177/177/177 163/163/163 161/161/161
f 178/178/178 179/179/179 165/165/165
f 178/178/178 165/165/165 163/163/163
f 144/144/144 143/143/143 180/180/180
f 144/144/144 180/180/180 181/181/181
f 143/143/143 146/146/146 182/182/182
f 143/143/143 182/182/182 180/180/180
f 146/146/146 148/148/148 183/183/183
f 146/146/146 183/183/183 182/182/182
f 148/148/148 150/150/150 184/184/184
f 148/148/148 184/184/184 183/183/183
f 150/150/150 152/152/152 185/185/185
f 150/150/150 185/185/185 184/184/184
f 152/152/152 154/154/154 186/186/186
f 152/152/152 186/186/186 185/185/185
f 154/154/154 156/156/156 187/187/187
f 154/154/154 187/187/187 186/186/186
f 156/156/156 158/158/158 188/188/188
f 156/156/156 188/188/188 187/187/187
f 158/158/158 160/160/160 189/189/189
f 158/158/158 189/189/189 188/188/188
f 160/160/160 162/162/162 190/190/190
f 160/160/160 190/190/190 189/189/189
f 162/162/162 164/164/164 191/191/191
f 162/162/162 191/191/191 190/190/190
f 164/164/164 166/166/166 192/192/192
f 164/164/164 192/192/192 191/191/191
f 181/181/181 180/180/180 116/116/116
f 181/181/181 116/116/116 115/115/115
f 180/180/180 182/182/182 119/119/119
f 180/180/180 119/119/119 116/116/116
f 182/182/182 183/183/183 121/121/121
f 182/182/182 121/121/121 119/119/119
f 183/183/183 184/184/184 123/123/123
f 183/183/183 123/123/123 121/121/121
f 184/184/184 185/185/185 125/125/125
f 184/184/184 125/125/125 123/123/123
f 185/185/185 186/186/186 127/127/127
f 185/185/185 127/127/127 125/125/125
f 186/186/186 187/187/187 129/129/129
f 186/186/186 129/129/129 127/127/127
f 187/187/187 188/188/188 131/131/131
f 187/187/187 131/131/131 129/129/129
f 188/188/188 189/189/189 133/133/133
f 188/188/188 133/133/133 131/131/131
f 189/189/189 190/190/190 135/135/135
f 189/189/189 135/135/135 133/133/133
f 190/190/190 191/191/191 137/137/137
f 190/190/190 137/137/137 135/135/135
f 191/191/191 192/192/192 139/139/139
f 191/191/191 139/139/139 137/137/137
f 118/118/118 117/117/117 193/193/193
f 118/118/118 193/193/193 194/194/194
f 117/117/117 120/120/120 195/195/195
f 117/117/117 195/195/195 196/196/196
f 120/120/120 122/122/122 197/197/197
f 120/120/120 197/197/197 195/195/195
f 122/122/122 124/124/124 198/198/198
f 122/122/122 198/198/198 199/199/199
f 124/124/124 126/126/126 200/200/200
f 124/124/124 200/200/200 198/198/198
f 126/126/126 128/128/128 201/201/201
f 126/126/126 201/201/201 202/202/202
f 128/128/128 130/130/130 203/203/203
f 128/128/128 203/203/203 201/201/201
f 130/130/130 132/132/132 204/204/204
f 130/130/130 204/204/204 203/203/203
f 132/132/132 134/134/134 205/205/205
f 132/132/132 205/205/205 204/204/204
f 134/134/134 136/136/136 206/206/206
f 134/134/134 206/206/206 205/205/205
f 136/136/136 138/138/138 207/207/207
f 136/136/136 207/207/207 206/206/206
f 138/138/138 140/140/140 208/208/208
f 138/138/138 208/208/208 207/207/207
