o sponza_81
v -103.824 66.0363 57.5489
v -103.824 66.0363 56.9962
v -97.3561 66.0363 56.9962
v -97.3561 66.0363 57.5489
v -97.4424 66.0363 56.9216
v -103.738 66.0363 56.9216
v -97.2902 66.4232 56.9379
v -97.2003 67.0696 56.8557
v -97.2003 67.0696 57.5489
v -97.2902 66.4232 57.5489
v -103.9 67.0696 56.7871
v -97.2798 67.0696 56.7871
v -97.3749 66.4232 56.8647
v -103.805 66.4232 56.8647
v -104.588 68.6596 56.1918
v -104.584 69.0959 56.1918
v -96.5964 69.0959 56.1918
v -96.5923 68.6596 56.1918
v -104.669 68.6596 57.5489
v -104.669 69.0959 57.5489
v -104.669 69.0959 56.2654
v -104.669 68.6596 56.2619
v -97.3561 66.0363 56.9962
v -97.1019 66.2297 56.7838
v -97.1019 66.2297 57.5489
v -97.3561 66.0363 57.5489
v -103.983 66.2297 56.702
v -97.1966 66.2297 56.702
v -97.4424 66.0363 56.9216
v -103.738 66.0363 56.9216
v -97.2902 66.4232 56.9379
v -97.2902 66.4232 57.5489
v -97.1019 66.2297 57.5489
v -97.1019 66.2297 56.7838
v -103.805 66.4232 56.8647
v -97.3749 66.4232 56.8647
v -97.1966 66.2297 56.702
v -103.983 66.2297 56.702
v -96.5113 69.0959 56.2654
v -96.2745 69.3141 56.0686
v -96.2745 69.3141 57.5489
v -96.5113 69.0959 57.5489
v -104.811 69.3141 55.9873
v -96.3687 69.3141 55.9873
v -96.5964 69.0959 56.1918
v -104.584 69.0959 56.1918
v -96.5113 69.5322 56.2731
v -96.5113 69.5322 57.5489
v -96.2745 69.3141 57.5489
v -96.2745 69.3141 56.0686
v -104.575 69.5322 56.1918
v -96.6054 69.5322 56.1918
v -96.3687 69.3141 55.9873
v -104.811 69.3141 55.9873
v -96.896 67.9695 56.5956
v -96.5113 68.6596 56.2619
v -96.5113 68.6596 57.5489
v -96.896 67.9695 57.5489
v -96.9787 67.9695 56.5242
v -104.201 67.9695 56.5242
v -97.2902 66.4232 56.9379
v -97.3749 66.4232 56.8647
v -97.2798 67.0696 56.7871
v -97.2003 67.0696 56.8557
v -103.89 66.4232 56.9379
v -103.98 67.0696 56.8557
v -103.9 67.0696 56.7871
v -103.805 66.4232 56.8647
v -96.5923 68.6596 56.1918
v -96.5964 69.0959 56.1918
v -96.5113 69.0959 56.2654
v -96.5113 68.6596 56.2619
v -104.669 68.6596 56.2619
v -104.669 69.0959 56.2654
v -104.584 69.0959 56.1918
v -104.588 68.6596 56.1918
v -97.2902 66.4232 56.9379
v -97.1019 66.2297 56.7838
v -97.1966 66.2297 56.702
v -97.3749 66.4232 56.8647
v -103.89 66.4232 56.9379
v -103.805 66.4232 56.8647
v -103.983 66.2297 56.702
v -104.078 66.2297 56.7838
v -97.1019 66.2297 56.7838
v -97.3561 66.0363 56.9962
v -103.824 66.0363 56.9962
v -104.078 66.2297 56.7838
v -96.5113 69.0959 56.2654
v -96.2745 69.3141 56.0686
v -104.669 69.0959 56.2654
v -104.905 69.3141 56.0686
v -104.811 69.3141 55.9873
v -104.584 69.0959 56.1918
v -96.5113 69.5322 56.2731
v -96.2745 69.3141 56.0686
v -104.811 69.3141 55.9873
v -104.905 69.3141 56.0686
v -104.669 69.5322 56.2731
v -104.575 69.5322 56.1918
v -96.896 67.9695 56.5956
v -96.9787 67.9695 56.5242
v -96.5923 68.6596 56.1918
v -96.5113 68.6596 56.2619
v -104.284 67.9695 56.5956
v -104.669 68.6596 56.2619
v -104.588 68.6596 56.1918
v -104.201 67.9695 56.5242
v -96.5113 69.5322 57.5489
v -96.5113 69.5322 56.2731
v -96.6054 69.5322 56.1918
v -104.669 69.5322 56.2731
v -104.575 69.5322 56.1918
v -104.669 69.5322 57.5489
v -103.98 67.0696 57.5489
v -103.98 67.0696 56.8557
v -103.89 66.4232 56.9379
v -103.89 66.4232 57.5489
v -96.5113 69.0959 56.2654
v -96.5113 69.0959 57.5489
v -104.078 66.2297 57.5489
v -103.824 66.0363 57.5489
v -104.078 66.2297 57.5489
v -103.89 66.4232 57.5489
v -103.89 66.4232 56.9379
v -104.078 66.2297 56.7838
v -104.905 69.3141 57.5489
v -104.905 69.3141 56.0686
v -104.669 69.0959 56.2654
v -104.669 69.0959 57.5489
v -104.905 69.3141 57.5489
v -104.669 69.5322 57.5489
v -104.669 69.5322 56.2731
v -104.905 69.3141 56.0686
v -104.284 67.9695 56.5956
v -104.284 67.9695 57.5489
vt 0.2773 0.6742
vt 0.2773 0.6911
vt 0.4476 0.6911
vt 0.4476 0.6742
vt 0.4453 0.6933
vt 0.2795 0.6933
vt 0.5504 0.8881
vt 0.5526 0.9084
vt 0.5337 0.9084
vt 0.5337 0.8881
vt 0.7614 0.91
vt 0.6053 0.91
vt 0.6076 0.8897
vt 0.7592 0.8897
vt 0.7776 0.96
vt 0.7775 0.9737
vt 0.5892 0.9737
vt 0.5891 0.96
vt 0.8287 0.9596
vt 0.8287 0.9733
vt 0.7937 0.9733
vt 0.7936 0.9596
vt 0.9865 0.7672
vt 0.9959 0.7791
vt 0.9632 0.7791
vt 0.9619 0.7672
vt 0.2524 0.779
vt 0.0111 0.779
vt 0.0112 0.7672
vt 0.2525 0.7672
vt 0.5504 0.8881
vt 0.5337 0.8881
vt 0.5337 0.882
vt 0.5546 0.882
vt 0.7592 0.8897
vt 0.6076 0.8897
vt 0.6034 0.8836
vt 0.7634 0.8836
vt 0.5687 0.9721
vt 0.5741 0.979
vt 0.5337 0.979
vt 0.5337 0.9721
vt 0.7829 0.9806
vt 0.5839 0.9806
vt 0.5892 0.9737
vt 0.7775 0.9737
vt 0.5685 0.9859
vt 0.5337 0.9859
vt 0.5337 0.979
vt 0.5741 0.979
vt 0.7773 0.9875
vt 0.5894 0.9875
vt 0.5839 0.9806
vt 0.7829 0.9806
vt 0.5597 0.9367
vt 0.5688 0.9584
vt 0.5337 0.9584
vt 0.5337 0.9367
vt 0.5982 0.9383
vt 0.7685 0.9383
vt 0.605 0.8907
vt 0.6076 0.8897
vt 0.6053 0.91
vt 0.6028 0.9094
vt 0.8121 0.8892
vt 0.8098 0.9096
vt 0.8073 0.909
vt 0.8095 0.8902
vt 0.5891 0.96
vt 0.5892 0.9737
vt 0.5867 0.9726
vt 0.5865 0.9593
vt 0.7936 0.9596
vt 0.7937 0.9733
vt 0.7912 0.9721
vt 0.791 0.9589
vt 0.605 0.8907
vt 0.6007 0.8862
vt 0.6034 0.8836
vt 0.6076 0.8897
vt 0.8121 0.8892
vt 0.8095 0.8902
vt 0.8052 0.8857
vt 0.8079 0.8832
vt 0.0078 0.7789
vt 0.0079 0.7672
vt 0.2558 0.7672
vt 0.2559 0.779
vt 0.5867 0.9726
vt 0.5815 0.9806
vt 0.7937 0.9733
vt 0.7884 0.9801
vt 0.786 0.9801
vt 0.7912 0.9721
vt 0.5871 0.99
vt 0.5815 0.9806
vt 0.786 0.9801
vt 0.7884 0.9801
vt 0.7939 0.987
vt 0.7916 0.9896
vt 0.5957 0.9372
vt 0.5982 0.9383
vt 0.5891 0.96
vt 0.5865 0.9593
vt 0.8027 0.9379
vt 0.7936 0.9596
vt 0.791 0.9589
vt 0.8002 0.9367
vt 0.0091 0.8976
vt 0.0091 0.876
vt 0.0109 0.8746
vt 0.1674 0.876
vt 0.1655 0.8746
vt 0.1674 0.8976
vt 0.8287 0.9096
vt 0.8098 0.9096
vt 0.8121 0.8892
vt 0.8287 0.8892
vt 0.5687 0.9721
vt 0.5337 0.9721
vt 0.2874 0.779
vt 0.2803 0.7672
vt 0.8287 0.8832
vt 0.8287 0.8892
vt 0.8121 0.8892
vt 0.8079 0.8832
vt 0.8287 0.9801
vt 0.7884 0.9801
vt 0.7937 0.9733
vt 0.8287 0.9733
vt 0.8287 0.9801
vt 0.8287 0.987
vt 0.7939 0.987
vt 0.7884 0.9801
vt 0.8027 0.9379
vt 0.8287 0.9379
vn 0 -1 0
vn 0 -1 0
vn 0 -1 0
vn 0 -1 0
vn 0 -1 -0.0001
vn 0 -1 0
vn 0.9905 -0.1376 0
vn 0.9705 -0.2409 0
vn 0.9732 -0.23 0
vn 0.9905 -0.1376 0
vn 0 -0.2116 -0.9774
vn 0 -0.2116 -0.9774
vn 0 -0.1192 -0.9929
vn 0 -0.1192 -0.9929
vn 0 -0.1842 -0.9829
vn 0 0 -1
vn 0 0 -1
vn 0 -0.1842 -0.9829
vn -0.9678 -0.2516 0
vn -1 0 0
vn -1 0 0
vn -0.9765 -0.2154 0
vn 0.3222 -0.9399 -0.1132
vn 0.4567 -0.858 -0.2349
vn 0.6056 -0.7958 0
vn 0.3196 -0.9476 -0
vn -0.2243 -0.842 -0.4906
vn 0.2243 -0.842 -0.4906
vn 0.0839 -0.9306 -0.3562
vn -0.0839 -0.9306 -0.3563
vn 0.7166 0.6975 0
vn 0.7166 0.6975 0
vn 0.7166 0.6975 0
vn 0.7166 0.6975 0
vn 0 0.6436 -0.7654
vn 0 0.6436 -0.7654
vn 0 0.6436 -0.7654
vn 0 0.6436 -0.7654
vn 0.6776 -0.7354 -0
vn 0.6776 -0.7354 -0
vn 0.6776 -0.7354 -0
vn 0.6776 -0.7354 -0
vn -0.2534 -0.7892 -0.5595
vn 0.2533 -0.7891 -0.5595
vn 0.1564 -0.7575 -0.6338
vn -0.1563 -0.7575 -0.6338
vn 0.6776 0.7355 0
vn 0.6776 0.7355 0
vn 0.6776 0.7355 0
vn 0.6776 0.7354 0
vn -0.1526 0.759 -0.6329
vn 0.1526 0.7591 -0.6329
vn 0.2528 0.7934 -0.5537
vn -0.2528 0.7935 -0.5536
vn 0.9065 -0.4223 0
vn 0.9765 -0.2154 0
vn 0.9678 -0.2516 0
vn 0.9142 -0.4053 0
vn 0 -0.3765 -0.9264
vn 0 -0.3765 -0.9264
vn 0.6427 -0.1839 -0.7437
vn 0.6427 -0.1838 -0.7437
vn 0.6253 -0.292 -0.7237
vn 0.6241 -0.298 -0.7223
vn -0.6424 -0.1839 -0.744
vn -0.624 -0.298 -0.7224
vn -0.6252 -0.292 -0.7238
vn -0.6424 -0.1839 -0.744
vn 0.6538 0.0061 -0.7567
vn 0.6537 0.0061 -0.7567
vn 0.6537 0.0061 -0.7567
vn 0.6538 0.0061 -0.7567
vn -0.6538 0.0062 -0.7566
vn -0.6536 0.0061 -0.7568
vn -0.6536 0.0061 -0.7568
vn -0.6539 0.0062 -0.7566
vn 0.4107 0.7781 -0.4752
vn 0.4106 0.7782 -0.4752
vn 0.4106 0.7782 -0.4752
vn 0.4107 0.7781 -0.4752
vn -0.4105 0.7782 -0.4753
vn -0.4105 0.7782 -0.4753
vn -0.4106 0.7781 -0.4754
vn -0.4106 0.7781 -0.4754
vn 0.4567 -0.858 -0.2349
vn 0.3222 -0.9399 -0.1132
vn -0.3222 -0.9399 -0.1133
vn -0.4567 -0.8581 -0.2349
vn 0.3813 -0.8122 -0.4415
vn 0.3814 -0.8122 -0.4415
vn -0.3813 -0.8122 -0.4415
vn -0.3815 -0.8122 -0.4414
vn -0.2534 -0.7892 -0.5595
vn -0.1563 -0.7575 -0.6338
vn 0.3767 0.8174 -0.4358
vn 0.3766 0.8174 -0.4359
vn -0.2528 0.7935 -0.5536
vn -0.3767 0.8174 -0.4358
vn -0.3766 0.8174 -0.4359
vn -0.1526 0.759 -0.6329
vn 0.5649 -0.5035 -0.6538
vn 0.5682 -0.4947 -0.6576
vn 0.5279 -0.5898 -0.6111
vn 0.5279 -0.5898 -0.6111
vn -0.5649 -0.5034 -0.6538
vn -0.5279 -0.5899 -0.611
vn -0.5279 -0.5899 -0.611
vn -0.5682 -0.4947 -0.6576
vn 0 1 0
vn 0.0001 1 0
vn 0 1 0
vn -0 1 0.0001
vn 0 1 0.0003
vn 0 1 0
vn -0.9732 -0.23 0
vn -0.9705 -0.2409 0
vn -0.9905 -0.1377 0
vn -0.9905 -0.1377 0
vn 1 -0 0
vn 1 -0 0
vn -0.6055 -0.7958 -0
vn -0.3196 -0.9476 -0
vn -0.7166 0.6975 -0
vn -0.7165 0.6975 0
vn -0.7166 0.6975 -0
vn -0.7166 0.6975 -0
vn -0.6776 -0.7354 -0
vn -0.6777 -0.7354 -0
vn -0.6777 -0.7354 -0
vn -0.6776 -0.7354 -0
vn -0.6776 0.7354 0
vn -0.6776 0.7354 0
vn -0.6776 0.7354 0
vn -0.6776 0.7354 0
vn -0.9065 -0.4223 0
vn -0.9142 -0.4053 0
f 1/1/1 2/2/2 3/3/3
f 1/1/1 3/3/3 4/4/4
f 5/5/5 3/3/3 2/2/2
f 5/5/5 2/2/2 6/6/6
f 7/7/7 8/8/8 9/9/9
f 7/7/7 9/9/9 10/10/10
f 11/11/11 12/12/12 13/13/13
f 11/11/11 13/13/13 14/14/14
f 15/15/15 16/16/16 17/17/17
f 15/15/15 17/17/17 18/18/18
f 19/19/19 20/20/20 21/21/21
f 19/19/19 21/21/21 22/22/22
f 23/23/23 24/24/24 25/25/25
f 23/23/23 25/25/25 26/26/26
f 27/27/27 28/28/28 29/29/29
f 27/27/27 29/29/29 30/30/30
f 31/31/31 32/32/32 33/33/33
f 31/31/31 33/33/33 34/34/34
f 35/35/35 36/36/36 37/37/37
f 35/35/35 37/37/37 38/38/38
f 39/39/39 40/40/40 41/41/41
f 39/39/39 41/41/41 42/42/42
f 43/43/43 44/44/44 45/45/45
f 43/43/43 45/45/45 46/46/46
f 47/47/47 48/48/48 49/49/49
f 47/47/47 49/49/49 50/50/50
f 51/51/51 52/52/52 53/53/53
f 51/51/51 53/53/53 54/54/54
f 55/55/55 56/56/56 57/57/57
f 55/55/55 57/57/57 58/58/58
f 15/15/15 18/18/18 59/59/59
f 15/15/15 59/59/59 60/60/60
f 8/8/8 55/55/55 58/58/58
f 8/8/8 58/58/58 9/9/9
f 60/60/60 59/59/59 12/12/12
f 60/60/60 12/12/12 11/11/11
f 61/61/61 62/62/62 63/63/63
f 61/61/61 63/63/63 64/64/64
f 65/65/65 66/66/66 67/67/67
f 65/65/65 67/67/67 68/68/68
f 69/69/69 70/70/70 71/71/71
f 69/69/69 71/71/71 72/72/72
f 73/73/73 74/74/74 75/75/75
f 73/73/73 75/75/75 76/76/76
f 77/77/77 78/78/78 79/79/79
f 77/77/77 79/79/79 80/80/80
f 81/81/81 82/82/82 83/83/83
f 81/81/81 83/83/83 84/84/84
f 28/28/28 85/85/85 86/86/86
f 28/28/28 86/86/86 29/29/29
f 27/27/27 30/30/30 87/87/87
f 27/27/27 87/87/87 88/88/88
f 89/89/89 45/45/45 44/44/44
f 89/89/89 44/44/44 90/90/90
f 91/91/91 92/92/92 93/93/93
f 91/91/91 93/93/93 94/94/94
f 53/53/53 52/52/52 95/95/95
f 53/53/53 95/95/95 96/96/96
f 97/97/97 98/98/98 99/99/99
f 97/97/97 99/99/99 100/100/100
f 101/101/101 102/102/102 103/103/103
f 101/101/101 103/103/103 104/104/104
f 105/105/105 106/106/106 107/107/107
f 105/105/105 107/107/107 108/108/108
f 64/64/64 63/63/63 102/102/102
f 64/64/64 102/102/102 101/101/101
f 66/66/66 105/105/105 108/108/108
f 66/66/66 108/108/108 67/67/67
f 109/109/109 110/110/110 111/111/111
f 109/109/109 111/111/111 112/112/112
f 111/111/111 113/113/113 112/112/112
f 114/114/114 109/109/109 112/112/112
f 115/115/115 116/116/116 117/117/117
f 115/115/115 117/117/117 118/118/118
f 57/57/57 56/56/56 119/119/119
f 57/57/57 119/119/119 120/120/120
f 121/121/121 88/88/88 87/87/87
f 121/121/121 87/87/87 122/122/122
f 123/123/123 124/124/124 125/125/125
f 123/123/123 125/125/125 126/126/126
f 127/127/127 128/128/128 129/129/129
f 127/127/127 129/129/129 130/130/130
f 131/131/131 132/132/132 133/133/133
f 131/131/131 133/133/133 134/134/134
f 19/19/19 22/22/22 135/135/135
f 19/19/19 135/135/135 136/136/136
f 136/136/136 135/135/135 116/116/116
f 136/136/136 116/116/116 115/115/115
