o sponza_212
v 32.5875 51.6433 22.4695
v 32.5875 51.6433 18.4866
v 32.562 51.7401 18.5121
v 32.562 51.7401 22.4439
v 32.5481 51.6433 22.509
v 32.5875 51.6433 22.4695
v 32.562 51.7401 22.4439
v 32.5225 51.7401 22.4834
v 33.0657 51.0635 23.0267
v 33.1051 51.0635 22.9872
v 32.9374 51.1885 22.8194
v 32.8979 51.1885 22.8589
v 32.6182 51.5708 22.5002
v 32.5787 51.5708 22.5396
v 32.6327 51.484 22.5936
v 32.6722 51.484 22.5542
v 32.7979 51.2804 22.7589
v 32.8374 51.2804 22.7194
v 32.7588 51.368 22.6408
v 32.7193 51.368 22.6802
v 32.8374 51.2804 18.2366
v 32.7588 51.368 18.3153
v 32.7588 51.368 22.6408
v 32.6182 51.5708 22.5002
v 32.6182 51.5708 18.4559
v 32.562 51.7401 18.5121
v 32.5875 51.6433 18.4866
v 32.5481 51.6433 18.4471
v 32.5225 51.7401 18.4726
v 32.9374 51.1885 18.1366
v 33.1051 51.0635 17.9688
v 33.0657 51.0635 17.9294
v 32.8979 51.1885 18.0972
v 32.6327 51.484 18.3624
v 32.5787 51.5708 18.4164
v 32.6182 51.5708 18.4559
v 32.6722 51.484 18.4019
v 32.7588 51.368 18.3153
v 32.8374 51.2804 18.2366
v 32.7979 51.2804 18.1972
v 32.7193 51.368 18.2758
v 28.0484 51.0635 17.9294
v 28.2161 51.1885 18.0972
v 32.5787 51.5708 18.4164
v 32.6327 51.484 18.3624
v 28.4813 51.484 18.3624
v 28.5353 51.5708 18.4164
v 28.3947 51.368 18.2758
v 32.7193 51.368 18.2758
v 28.3161 51.2804 18.1972
v 32.5481 51.6433 18.4471
v 28.566 51.6433 18.4471
v 28.566 51.6433 18.4471
v 28.5265 51.6433 18.4866
v 28.5521 51.7401 18.5121
v 28.5915 51.7401 18.4726
v 28.0089 51.0635 17.9688
v 28.1766 51.1885 18.1366
v 28.4959 51.5708 18.4559
v 28.5353 51.5708 18.4164
v 28.4813 51.484 18.3624
v 28.4418 51.484 18.4019
v 28.2766 51.2804 18.2366
v 28.3553 51.368 18.3153
v 28.3947 51.368 18.2758
v 28.5915 51.7401 18.4726
v 32.5225 51.7401 18.4726
v 33.1051 51.0635 17.9688
v 32.9374 51.1885 18.1366
v 32.6722 51.484 22.5542
v 32.6722 51.484 18.4019
v 33.0657 50.9805 23.0267
v 33.1051 50.9805 22.9872
v 33.1051 51.0635 22.9872
v 33.0657 51.0635 23.0267
v 33.1051 51.0635 22.9872
v 33.1051 50.9805 22.9872
v 33.1051 50.9805 17.9688
v 33.1051 51.0635 17.9688
v 33.0657 50.9805 17.9294
v 28.0484 50.9805 17.9294
v 28.0484 51.0635 17.9294
v 33.0657 51.0635 17.9294
v 33.1051 50.9805 17.9688
v 33.0657 50.9805 17.9294
v 33.0657 51.0635 17.9294
v 33.1051 51.0635 17.9688
v 28.0484 50.9805 17.9294
v 28.0089 50.9805 17.9688
v 28.0089 51.0635 17.9688
v 28.0484 51.0635 17.9294
v 33.2615 50.9805 23.2256
v 33.304 50.9805 23.1831
v 33.1051 50.9805 22.9872
v 33.0657 50.9805 23.0267
v 33.304 50.9805 17.773
v 33.1051 50.9805 17.9688
v 33.2615 50.9805 17.7305
v 27.8525 50.9805 17.7305
v 28.0484 50.9805 17.9294
v 33.0657 50.9805 17.9294
v 33.304 50.9805 17.773
v 33.1051 50.9805 17.9688
v 27.81 50.9805 17.773
v 28.0089 50.9805 17.9688
v 33.2615 50.9805 23.2256
v 33.2615 50.6633 23.2256
v 33.304 50.6633 23.1831
v 33.304 50.9805 23.1831
v 33.304 50.9805 23.1831
v 33.304 50.6633 23.1831
v 33.304 50.6633 17.773
v 33.304 50.9805 17.773
v 33.2615 50.9805 17.7305
v 33.2615 50.6633 17.7305
v 27.8525 50.6633 17.7305
v 27.8525 50.9805 17.7305
v 33.304 50.9805 17.773
v 33.304 50.6633 17.773
v 33.2615 50.6633 17.7305
v 33.2615 50.9805 17.7305
v 27.8525 50.9805 17.7305
v 27.8525 50.6633 17.7305
v 27.81 50.6633 17.773
v 27.81 50.9805 17.773
v 28.5265 51.6433 18.4866
v 28.5265 51.6433 22.4695
v 28.5521 51.7401 22.444
v 28.5521 51.7401 18.5121
v 28.2766 51.2804 18.2366
v 28.2766 51.2804 22.7194
v 28.3553 51.368 22.6408
v 28.3553 51.368 18.3153
v 28.4959 51.5708 18.4559
v 28.4959 51.5708 22.5002
v 28.5521 51.7401 22.444
v 28.5265 51.6433 22.4695
v 28.566 51.6433 22.509
v 28.5915 51.7401 22.4834
v 28.1766 51.1885 22.8194
v 28.0089 51.0635 22.9872
v 28.0484 51.0635 23.0267
v 28.2161 51.1885 22.8589
v 28.4813 51.484 22.5936
v 28.5353 51.5708 22.5396
v 28.4959 51.5708 22.5002
v 28.4418 51.484 22.5542
v 28.3553 51.368 22.6408
v 28.2766 51.2804 22.7194
v 28.3161 51.2804 22.7589
v 28.3947 51.368 22.6802
v 33.0657 51.0635 23.0267
v 32.8979 51.1885 22.8589
v 28.5353 51.5708 22.5396
v 28.4813 51.484 22.5936
v 32.6327 51.484 22.5936
v 32.5787 51.5708 22.5396
v 32.7193 51.368 22.6802
v 28.3947 51.368 22.6802
v 32.7979 51.2804 22.7589
v 28.566 51.6433 22.509
v 32.5481 51.6433 22.509
v 32.5225 51.7401 22.4834
v 28.5915 51.7401 22.4834
v 28.0089 51.0635 17.9688
v 28.0089 51.0635 22.9872
v 28.1766 51.1885 22.8194
v 28.1766 51.1885 18.1366
v 28.4418 51.484 18.4019
v 28.4418 51.484 22.5542
v 28.0089 51.0635 17.9688
v 28.0089 50.9805 17.9688
v 28.0089 50.9805 22.9872
v 28.0089 51.0635 22.9872
v 28.0484 50.9805 23.0267
v 33.0657 50.9805 23.0267
v 33.0657 51.0635 23.0267
v 28.0484 51.0635 23.0267
v 28.0089 50.9805 22.9872
v 28.0484 50.9805 23.0267
v 28.0484 51.0635 23.0267
v 28.0089 51.0635 22.9872
v 27.81 50.9805 17.773
v 27.81 50.9805 23.1831
v 28.0089 50.9805 22.9872
v 28.0089 50.9805 17.9688
v 27.8526 50.9805 23.2256
v 33.2615 50.9805 23.2256
v 33.0657 50.9805 23.0267
v 28.0484 50.9805 23.0267
v 27.81 50.9805 23.1831
v 28.0089 50.9805 22.9872
v 27.81 50.9805 17.773
v 27.81 50.6633 17.773
v 27.81 50.6633 23.1831
v 27.81 50.9805 23.1831
v 27.8526 50.9805 23.2256
v 27.8526 50.6633 23.2256
v 33.2615 50.6633 23.2256
v 33.2615 50.9805 23.2256
v 27.81 50.9805 23.1831
v 27.81 50.6633 23.1831
v 27.8526 50.6633 23.2256
v 27.8526 50.9805 23.2256
v 28.5521 51.7401 18.5121
v 28.5521 51.7401 22.444
v 28.5915 51.7401 22.4834
v 28.5915 51.7401 18.4726
v 32.5225 51.7401 22.4834
v 32.562 51.7401 22.4439
v 32.562 51.7401 18.5121
v 32.5225 51.7401 18.4726
vt 0.2788 0.949
vt 0.2788 0.7224
vt 0.2734 0.7237
vt 0.2733 0.9476
vt 0.2778 0.9519
vt 0.2788 0.949
vt 0.2733 0.9476
vt 0.2712 0.9499
vt 0.3144 0.9807
vt 0.3147 0.9785
vt 0.3052 0.9689
vt 0.3029 0.9712
vt 0.2829 0.9508
vt 0.2816 0.9534
vt 0.286 0.9566
vt 0.2879 0.9539
vt 0.2972 0.9656
vt 0.2995 0.9633
vt 0.2945 0.9588
vt 0.2922 0.9615
vt 0.2995 0.7081
vt 0.2945 0.7126
vt 0.2945 0.9588
vt 0.2829 0.9508
vt 0.2829 0.7206
vt 0.2734 0.7237
vt 0.2755 0.7168
vt 0.2725 0.7161
vt 0.2711 0.7216
vt 0.2947 0.692
vt 0.3045 0.6818
vt 0.302 0.6802
vt 0.2924 0.6897
vt 0.2773 0.707
vt 0.2743 0.7119
vt 0.2768 0.7135
vt 0.2801 0.7089
vt 0.285 0.7026
vt 0.2891 0.6976
vt 0.2867 0.6954
vt 0.2823 0.7004
vt 0.0164 0.6802
vt 0.026 0.6897
vt 0.2743 0.7119
vt 0.2773 0.707
vt 0.0411 0.707
vt 0.0441 0.7119
vt 0.0361 0.7004
vt 0.2823 0.7004
vt 0.0317 0.6953
vt 0.2725 0.7161
vt 0.0459 0.7161
vt 0.0459 0.7161
vt 0.044 0.7173
vt 0.0451 0.7238
vt 0.0473 0.7216
vt 0.014 0.6812
vt 0.0237 0.692
vt 0.0416 0.7135
vt 0.0441 0.7119
vt 0.0411 0.707
vt 0.0383 0.7089
vt 0.0293 0.6976
vt 0.0334 0.7026
vt 0.0361 0.7004
vt 0.0473 0.7216
vt 0.2711 0.7216
vt 0.3147 0.6929
vt 0.3052 0.7024
vt 0.2879 0.9539
vt 0.2879 0.7175
vt 0.3184 0.9812
vt 0.3194 0.9785
vt 0.3147 0.9785
vt 0.3144 0.9807
vt 0.3147 0.9785
vt 0.3194 0.9785
vt 0.3194 0.6929
vt 0.3147 0.6929
vt 0.302 0.6754
vt 0.0164 0.6754
vt 0.0164 0.6802
vt 0.302 0.6802
vt 0.3048 0.6767
vt 0.302 0.6754
vt 0.302 0.6802
vt 0.3045 0.6818
vt 0.0164 0.6754
vt 0.0138 0.6766
vt 0.014 0.6812
vt 0.0164 0.6802
vt 0.3283 0.9921
vt 0.3307 0.9896
vt 0.3194 0.9785
vt 0.3184 0.9812
vt 0.3307 0.6817
vt 0.3194 0.6929
vt 0.3131 0.6641
vt 0.0053 0.6641
vt 0.0164 0.6754
vt 0.302 0.6754
vt 0.316 0.6653
vt 0.3048 0.6767
vt 0.0029 0.6653
vt 0.0138 0.6766
vt 0.3307 0.9921
vt 0.3488 0.9921
vt 0.3488 0.9896
vt 0.3307 0.9896
vt 0.3307 0.9896
vt 0.3488 0.9896
vt 0.3488 0.6817
vt 0.3307 0.6817
vt 0.3131 0.6641
vt 0.3131 0.6461
vt 0.0053 0.6461
vt 0.0053 0.6641
vt 0.316 0.6653
vt 0.3155 0.6461
vt 0.3131 0.6461
vt 0.3131 0.6641
vt 0.0053 0.6641
vt 0.0053 0.6461
vt 0.0029 0.6461
vt 0.0029 0.6653
vt 0.2788 0.949
vt 0.2788 0.7224
vt 0.2734 0.7237
vt 0.2733 0.9476
vt 0.2995 0.9633
vt 0.2995 0.7081
vt 0.2945 0.7126
vt 0.2945 0.9588
vt 0.2829 0.9508
vt 0.2829 0.7206
vt 0.2734 0.7237
vt 0.2755 0.7168
vt 0.2725 0.7161
vt 0.2711 0.7216
vt 0.2947 0.692
vt 0.3045 0.6818
vt 0.302 0.6802
vt 0.2924 0.6897
vt 0.2773 0.707
vt 0.2743 0.7119
vt 0.2768 0.7135
vt 0.2801 0.7089
vt 0.285 0.7026
vt 0.2891 0.6976
vt 0.2867 0.6954
vt 0.2823 0.7004
vt 0.0164 0.6802
vt 0.026 0.6897
vt 0.2743 0.7119
vt 0.2773 0.707
vt 0.0411 0.707
vt 0.0441 0.7119
vt 0.0361 0.7004
vt 0.2823 0.7004
vt 0.0317 0.6953
vt 0.2725 0.7161
vt 0.0459 0.7161
vt 0.0473 0.7216
vt 0.2711 0.7216
vt 0.3147 0.9785
vt 0.3147 0.6929
vt 0.3052 0.7024
vt 0.3052 0.9689
vt 0.2879 0.9539
vt 0.2879 0.7175
vt 0.3147 0.9785
vt 0.3194 0.9785
vt 0.3194 0.6929
vt 0.3147 0.6929
vt 0.302 0.6754
vt 0.0164 0.6754
vt 0.0164 0.6802
vt 0.302 0.6802
vt 0.3048 0.6767
vt 0.302 0.6754
vt 0.302 0.6802
vt 0.3045 0.6818
vt 0.3307 0.9896
vt 0.3307 0.6817
vt 0.3194 0.6929
vt 0.3194 0.9785
vt 0.3131 0.6641
vt 0.0053 0.6641
vt 0.0164 0.6754
vt 0.302 0.6754
vt 0.316 0.6653
vt 0.3048 0.6767
vt 0.3307 0.9896
vt 0.3488 0.9896
vt 0.3488 0.6817
vt 0.3307 0.6817
vt 0.3131 0.6641
vt 0.3131 0.6461
vt 0.0053 0.6461
vt 0.0053 0.6641
vt 0.316 0.6653
vt 0.3155 0.6461
vt 0.3131 0.6461
vt 0.3131 0.6641
vt 0.0451 0.7238
vt 0.0451 0.9476
vt 0.0473 0.9498
vt 0.0473 0.7216
vt 0.2712 0.9499
vt 0.2733 0.9476
vt 0.2734 0.7237
vt 0.2711 0.7216
vn 0.9419 0.3359 -0
vn 0.9419 0.336 0
vn 0.9669 0.2551 0
vn 0.9669 0.255 -0
vn 0.6374 0.4332 0.6372
vn 0.6374 0.4332 0.6372
vn 0.6625 0.3495 0.6625
vn 0.6625 0.3495 0.6625
vn 0.2147 0.8737 0.4365
vn 0.4364 0.8737 0.2148
vn 0.5035 0.8445 0.1824
vn 0.1825 0.8445 0.5035
vn 0.5712 0.5894 0.5713
vn 0.5712 0.5893 0.5713
vn 0.5091 0.6939 0.5092
vn 0.5091 0.6939 0.5092
vn 0.2114 0.7904 0.575
vn 0.575 0.7903 0.2114
vn 0.4623 0.7566 0.4624
vn 0.4623 0.7566 0.4624
vn 0.575 0.7903 -0.2114
vn 0.7633 0.646 0
vn 0.7633 0.646 0
vn 0.8781 0.4784 0
vn 0.8781 0.4785 0
vn 0.6625 0.3494 -0.6625
vn 0.6372 0.4333 -0.6374
vn 0.6372 0.4333 -0.6374
vn 0.6626 0.3494 -0.6625
vn 0.5035 0.8445 -0.1824
vn 0.4364 0.8738 -0.2147
vn 0.2147 0.8737 -0.4365
vn 0.1825 0.8445 -0.5035
vn 0.5091 0.6939 -0.5092
vn 0.5712 0.5894 -0.5713
vn 0.5711 0.5894 -0.5713
vn 0.5091 0.6939 -0.5092
vn 0.4624 0.7566 -0.4624
vn 0.575 0.7903 -0.2114
vn 0.2114 0.7904 -0.575
vn 0.4624 0.7566 -0.4624
vn -0.2147 0.8737 -0.4365
vn -0.1825 0.8445 -0.5035
vn 0 0.4785 -0.8781
vn 0 0.5749 -0.8182
vn 0 0.5749 -0.8182
vn 0 0.4786 -0.8781
vn 0 0.6461 -0.7633
vn 0 0.6461 -0.7633
vn -0.2114 0.7904 -0.575
vn 0 0.336 -0.9419
vn 0 0.336 -0.9419
vn -0.6373 0.4333 -0.6373
vn -0.6372 0.4333 -0.6374
vn -0.6626 0.3494 -0.6625
vn -0.6627 0.3494 -0.6624
vn -0.4364 0.8737 -0.2148
vn -0.5035 0.8445 -0.1825
vn -0.5711 0.5894 -0.5713
vn -0.5711 0.5894 -0.5713
vn -0.5091 0.694 -0.5092
vn -0.5091 0.694 -0.5092
vn -0.575 0.7903 -0.2114
vn -0.4625 0.7565 -0.4623
vn -0.4625 0.7566 -0.4623
vn 0 0.255 -0.9669
vn 0 0.255 -0.9669
vn 0.4364 0.8738 -0.2147
vn 0.5035 0.8445 -0.1824
vn 0.8183 0.5748 0
vn 0.8183 0.5748 0
vn 0.707 0 0.7072
vn 0.707 0 0.7072
vn 0.707 0 0.7072
vn 0.707 0 0.7073
vn 1 0 0
vn 1 0 0
vn 1 0 0
vn 1 0 0
vn 0 0 -1
vn 0 0 -1
vn 0 0 -1
vn 0 0 -1
vn 0.707 0 -0.7072
vn 0.7071 0 -0.7072
vn 0.707 0 -0.7072
vn 0.707 0 -0.7073
vn -0.707 0 -0.7072
vn -0.7071 0 -0.7072
vn -0.707 0 -0.7072
vn -0.707 0 -0.7073
vn 0 1 0.0001
vn 0 1 0.0001
vn 0 1 0
vn 0 1 0
vn 0 1 -0.0001
vn 0 1 0
vn 0 1 -0.0001
vn 0 1 -0.0001
vn 0 1 0
vn 0 1 0
vn 0 1 -0.0001
vn 0 1 0
vn 0 1 -0.0001
vn 0 1 0
vn 0.7072 0 0.707
vn 0.7072 0 0.707
vn 0.7072 0 0.707
vn 0.7072 0 0.707
vn 1 0 0
vn 1 0 0
vn 1 0 0
vn 1 0 0
vn 0 0 -1
vn 0 0 -1
vn 0 0 -1
vn 0 0 -1
vn 0.7072 0 -0.707
vn 0.7072 0 -0.707
vn 0.7072 0 -0.707
vn 0.7072 0 -0.707
vn -0.7072 0 -0.707
vn -0.7072 0 -0.707
vn -0.7072 0 -0.707
vn -0.7072 0 -0.707
vn -0.9419 0.336 0
vn -0.9419 0.3359 0
vn -0.9669 0.2551 0
vn -0.9669 0.255 0
vn -0.575 0.7903 -0.2114
vn -0.575 0.7904 0.2114
vn -0.7633 0.646 0
vn -0.7633 0.646 0
vn -0.8781 0.4785 0
vn -0.8781 0.4784 0
vn -0.6626 0.3495 0.6625
vn -0.6373 0.4333 0.6373
vn -0.6373 0.4333 0.6373
vn -0.6626 0.3494 0.6625
vn -0.5035 0.8445 0.1824
vn -0.4365 0.8737 0.2147
vn -0.2147 0.8737 0.4364
vn -0.1825 0.8445 0.5034
vn -0.5091 0.6939 0.5092
vn -0.5713 0.5894 0.5712
vn -0.5712 0.5894 0.5713
vn -0.5091 0.6939 0.5092
vn -0.4624 0.7566 0.4624
vn -0.575 0.7904 0.2114
vn -0.2114 0.7904 0.5749
vn -0.4624 0.7566 0.4624
vn 0.2147 0.8737 0.4365
vn 0.1825 0.8445 0.5035
vn 0 0.4784 0.8781
vn 0 0.5748 0.8183
vn 0 0.5749 0.8182
vn 0 0.4785 0.8781
vn 0 0.6461 0.7633
vn 0 0.6461 0.7633
vn 0.2114 0.7904 0.575
vn 0 0.336 0.9419
vn 0 0.3359 0.9419
vn 0 0.255 0.9669
vn 0 0.2551 0.9669
vn -0.4364 0.8737 -0.2148
vn -0.4365 0.8737 0.2147
vn -0.5035 0.8445 0.1824
vn -0.5035 0.8445 -0.1825
vn -0.8183 0.5748 0
vn -0.8183 0.5748 0
vn -1 0 0
vn -1 0 0
vn -1 0 0
vn -1 0 0
vn 0 0 1
vn 0 0 1
vn 0 0 1
vn 0 0 1
vn -0.7071 0 0.7071
vn -0.7072 0 0.7071
vn -0.7071 0 0.7071
vn -0.7071 0 0.7072
vn 0 1 -0.0001
vn 0 1 0.0001
vn 0 1 0
vn 0 1 0
vn 0 1 0.0001
vn 0 1 0.0001
vn 0 1 0
vn 0 1 0
vn 0 1 0.0001
vn 0 1 0
vn -1 0 0
vn -1 0 0
vn -1 0 0
vn -1 0 0
vn 0 0 1
vn 0 0 1
vn 0 0 1
vn 0 0 1
vn -0.707 0 0.7072
vn -0.707 0 0.7072
vn -0.707 0 0.7072
vn -0.707 0 0.7072
vn 0 1 0
vn 0 1 0
vn 0 1 0
vn 0 1 0
vn 0 1 0
vn 0 1 0
vn 0 1 0
vn 0 1 0
f 1/1/1 2/2/2 3/3/3
f 1/1/1 3/3/3 4/4/4
f 5/5/5 6/6/6 7/7/7
f 5/5/5 7/7/7 8/8/8
f 9/9/9 10/10/10 11/11/11
f 9/9/9 11/11/11 12/12/12
f 13/13/13 14/14/14 15/15/15
f 13/13/13 15/15/15 16/16/16
f 17/17/17 18/18/18 19/19/19
f 17/17/17 19/19/19 20/20/20
f 12/12/12 11/11/11 18/18/18
f 12/12/12 18/18/18 17/17/17
f 16/16/16 15/15/15 20/20/20
f 16/16/16 20/20/20 19/19/19
f 6/6/6 5/5/5 14/14/14
f 6/6/6 14/14/14 13/13/13
f 18/18/18 21/21/21 22/22/22
f 18/18/18 22/22/22 23/23/23
f 2/2/2 1/1/1 24/24/24
f 2/2/2 24/24/24 25/25/25
f 26/26/26 27/27/27 28/28/28
f 26/26/26 28/28/28 29/29/29
f 30/30/30 31/31/31 32/32/32
f 30/30/30 32/32/32 33/33/33
f 34/34/34 35/35/35 36/36/36
f 34/34/34 36/36/36 37/37/37
f 38/38/38 39/39/39 40/40/40
f 38/38/38 40/40/40 41/41/41
f 39/39/39 30/30/30 33/33/33
f 39/39/39 33/33/33 40/40/40
f 41/41/41 34/34/34 37/37/37
f 41/41/41 37/37/37 38/38/38
f 35/35/35 28/28/28 27/27/27
f 35/35/35 27/27/27 36/36/36
f 33/33/33 32/32/32 42/42/42
f 33/33/33 42/42/42 43/43/43
f 44/44/44 45/45/45 46/46/46
f 44/44/44 46/46/46 47/47/47
f 48/48/48 49/49/49 40/40/40
f 48/48/48 40/40/40 50/50/50
f 45/45/45 49/49/49 48/48/48
f 45/45/45 48/48/48 46/46/46
f 40/40/40 33/33/33 43/43/43
f 40/40/40 43/43/43 50/50/50
f 51/51/51 44/44/44 47/47/47
f 51/51/51 47/47/47 52/52/52
f 53/53/53 54/54/54 55/55/55
f 53/53/53 55/55/55 56/56/56
f 42/42/42 57/57/57 58/58/58
f 42/42/42 58/58/58 43/43/43
f 59/59/59 60/60/60 61/61/61
f 59/59/59 61/61/61 62/62/62
f 50/50/50 63/63/63 64/64/64
f 50/50/50 64/64/64 65/65/65
f 43/43/43 58/58/58 63/63/63
f 43/43/43 63/63/63 50/50/50
f 62/62/62 61/61/61 65/65/65
f 62/62/62 65/65/65 64/64/64
f 54/54/54 53/53/53 60/60/60
f 54/54/54 60/60/60 59/59/59
f 66/66/66 67/67/67 51/51/51
f 66/66/66 51/51/51 52/52/52
f 10/10/10 68/68/68 69/69/69
f 10/10/10 69/69/69 11/11/11
f 70/70/70 71/71/71 25/25/25
f 70/70/70 25/25/25 24/24/24
f 23/23/23 22/22/22 71/71/71
f 23/23/23 71/71/71 70/70/70
f 11/11/11 69/69/69 21/21/21
f 11/11/11 21/21/21 18/18/18
f 72/72/72 73/73/73 74/74/74
f 72/72/72 74/74/74 75/75/75
f 76/76/76 77/77/77 78/78/78
f 76/76/76 78/78/78 79/79/79
f 80/80/80 81/81/81 82/82/82
f 80/80/80 82/82/82 83/83/83
f 84/84/84 85/85/85 86/86/86
f 84/84/84 86/86/86 87/87/87
f 88/88/88 89/89/89 90/90/90
f 88/88/88 90/90/90 91/91/91
f 92/92/92 93/93/93 94/94/94
f 92/92/92 94/94/94 95/95/95
f 93/93/93 96/96/96 97/97/97
f 93/93/93 97/97/97 94/94/94
f 98/98/98 99/99/99 100/100/100
f 98/98/98 100/100/100 101/101/101
f 102/102/102 98/98/98 101/101/101
f 102/102/102 101/101/101 103/103/103
f 99/99/99 104/104/104 105/105/105
f 99/99/99 105/105/105 100/100/100
f 106/106/106 107/107/107 108/108/108
f 106/106/106 108/108/108 109/109/109
f 110/110/110 111/111/111 112/112/112
f 110/110/110 112/112/112 113/113/113
f 114/114/114 115/115/115 116/116/116
f 114/114/114 116/116/116 117/117/117
f 118/118/118 119/119/119 120/120/120
f 118/118/118 120/120/120 121/121/121
f 122/122/122 123/123/123 124/124/124
f 122/122/122 124/124/124 125/125/125
f 126/126/126 127/127/127 128/128/128
f 126/126/126 128/128/128 129/129/129
f 130/130/130 131/131/131 132/132/132
f 130/130/130 132/132/132 133/133/133
f 134/134/134 135/135/135 127/127/127
f 134/134/134 127/127/127 126/126/126
f 136/136/136 137/137/137 138/138/138
f 136/136/136 138/138/138 139/139/139
f 140/140/140 141/141/141 142/142/142
f 140/140/140 142/142/142 143/143/143
f 144/144/144 145/145/145 146/146/146
f 144/144/144 146/146/146 147/147/147
f 148/148/148 149/149/149 150/150/150
f 148/148/148 150/150/150 151/151/151
f 149/149/149 140/140/140 143/143/143
f 149/149/149 143/143/143 150/150/150
f 151/151/151 144/144/144 147/147/147
f 151/151/151 147/147/147 148/148/148
f 145/145/145 138/138/138 137/137/137
f 145/145/145 137/137/137 146/146/146
f 143/143/143 142/142/142 152/152/152
f 143/143/143 152/152/152 153/153/153
f 154/154/154 155/155/155 156/156/156
f 154/154/154 156/156/156 157/157/157
f 158/158/158 159/159/159 150/150/150
f 158/158/158 150/150/150 160/160/160
f 155/155/155 159/159/159 158/158/158
f 155/155/155 158/158/158 156/156/156
f 150/150/150 143/143/143 153/153/153
f 150/150/150 153/153/153 160/160/160
f 161/161/161 154/154/154 157/157/157
f 161/161/161 157/157/157 162/162/162
f 163/163/163 164/164/164 161/161/161
f 163/163/163 161/161/161 162/162/162
f 165/165/165 166/166/166 167/167/167
f 165/165/165 167/167/167 168/168/168
f 169/169/169 170/170/170 135/135/135
f 169/169/169 135/135/135 134/134/134
f 133/133/133 132/132/132 170/170/170
f 133/133/133 170/170/170 169/169/169
f 168/168/168 167/167/167 131/131/131
f 168/168/168 131/131/131 130/130/130
f 171/171/171 172/172/172 173/173/173
f 171/171/171 173/173/173 174/174/174
f 175/175/175 176/176/176 177/177/177
f 175/175/175 177/177/177 178/178/178
f 179/179/179 180/180/180 181/181/181
f 179/179/179 181/181/181 182/182/182
f 183/183/183 184/184/184 185/185/185
f 183/183/183 185/185/185 186/186/186
f 187/187/187 188/188/188 189/189/189
f 187/187/187 189/189/189 190/190/190
f 191/191/191 187/187/187 190/190/190
f 191/191/191 190/190/190 192/192/192
f 193/193/193 194/194/194 195/195/195
f 193/193/193 195/195/195 196/196/196
f 197/197/197 198/198/198 199/199/199
f 197/197/197 199/199/199 200/200/200
f 201/201/201 202/202/202 203/203/203
f 201/201/201 203/203/203 204/204/204
f 205/205/205 206/206/206 207/207/207
f 205/205/205 207/207/207 208/208/208
f 207/207/207 209/209/209 210/210/210
f 207/207/207 210/210/210 208/208/208
f 210/210/210 211/211/211 212/212/212
f 210/210/210 212/212/212 208/208/208
