o sponza_47
v 50.7228 122.553 17.4642
v 50.7228 122.071 17.2983
v 49.7697 122.269 17.2983
v 49.9609 122.711 17.4642
v 48.9555 124.583 17.6657
v 48.9555 124.583 18.9929
v 49.0559 123.871 18.9929
v 49.0559 123.871 17.6657
v 48.8102 124.593 17.4642
v 48.3297 124.623 17.2983
v 48.5541 125.493 17.2983
v 48.9897 125.287 17.4643
v 48.4657 123.66 17.2983
v 48.0127 123.497 16.9438
v 47.8494 124.654 16.9438
v 48.0127 123.497 18.9929
v 47.8494 124.654 18.9929
v 50.7228 126.24 17.6657
v 50.7228 126.24 18.9929
v 50.0714 126.116 18.9929
v 50.0714 126.116 17.6657
v 50.7228 126.868 17.2983
v 49.8408 126.699 17.2983
v 49.6638 127.147 16.9438
v 50.7228 127.349 16.9438
v 49.6638 127.147 18.9929
v 50.7228 127.349 18.9929
v 51.4847 122.711 17.4642
v 51.676 122.269 17.2983
v 52.3897 123.871 17.6657
v 52.3897 123.871 18.9929
v 52.4901 124.583 18.9929
v 52.4901 124.583 17.6657
v 52.4559 125.287 17.4643
v 52.8915 125.493 17.2983
v 53.1159 124.623 17.2983
v 52.6354 124.593 17.4642
v 53.4329 123.497 16.9438
v 52.9799 123.66 17.2983
v 53.5962 124.654 16.9438
v 53.4329 123.497 18.9929
v 53.5962 124.654 18.9929
v 51.3742 126.116 17.6657
v 51.3742 126.116 18.9929
v 51.7818 127.147 16.9438
v 51.6048 126.699 17.2983
v 51.7818 127.147 18.9929
v 49.3246 123.158 17.4642
v 48.9736 122.829 17.2983
v 48.9187 123.822 17.4642
v 49.4309 123.258 17.6657
v 49.4309 123.258 18.9929
v 50.0189 122.844 18.9929
v 50.0189 122.844 17.6657
v 49.412 125.867 17.4643
v 49.0825 126.219 17.2983
v 50.018 126.252 17.4643
v 49.5784 121.827 16.9438
v 48.6225 122.5 16.9438
v 49.5784 121.827 18.9929
v 48.6225 122.5 18.9929
v 49.5114 125.761 17.6657
v 49.5114 125.761 18.9929
v 49.1212 125.225 18.9929
v 49.1212 125.225 17.6657
v 48.1189 125.698 16.9438
v 48.7533 126.57 16.9438
v 48.1189 125.698 18.9929
v 48.7533 126.57 18.9929
v 52.121 123.158 17.4642
v 52.5269 123.822 17.4642
v 52.472 122.829 17.2983
v 52.0147 123.258 17.6657
v 51.4267 122.844 17.6657
v 51.4267 122.844 18.9929
v 52.0147 123.258 18.9929
v 52.0336 125.867 17.4643
v 51.4276 126.252 17.4643
v 52.3631 126.219 17.2983
v 52.8231 122.5 16.9438
v 51.8673 121.827 16.9438
v 52.8231 122.5 18.9929
v 51.8673 121.827 18.9929
v 51.9342 125.761 17.6657
v 52.3244 125.225 17.6657
v 52.3244 125.225 18.9929
v 51.9342 125.761 18.9929
v 52.6923 126.57 16.9438
v 53.3267 125.698 16.9438
v 52.6923 126.57 18.9929
v 53.3267 125.698 18.9929
v 50.7228 122.698 18.9929
v 50.7228 122.698 17.6657
v 50.7228 126.386 17.4643
v 50.7228 121.59 16.9438
v 50.7228 121.59 18.9929
v 48.0127 123.497 16.9438
v 47.8494 124.654 16.9438
v 49.6638 127.147 16.9438
v 50.7228 127.349 16.9438
v 53.4329 123.497 16.9438
v 53.5962 124.654 16.9438
v 51.7818 127.147 16.9438
v 49.5784 121.827 16.9438
v 48.6225 122.5 16.9438
v 48.1189 125.698 16.9438
v 48.7533 126.57 16.9438
v 52.8231 122.5 16.9438
v 51.8673 121.827 16.9438
v 52.6923 126.57 16.9438
v 53.3267 125.698 16.9438
v 50.7228 121.59 16.9438
vt 0.0033 0.1621
vt 0.0033 0.1878
vt 0.1275 0.1878
vt 0.1275 0.1621
vt 0.4999 0.1451
vt 0.4999 0.0638
vt 0.3758 0.0638
vt 0.3758 0.1451
vt 0.4999 0.1621
vt 0.4999 0.1878
vt 0.6143 0.1878
vt 0.6143 0.1621
vt 0.3758 0.1878
vt 0.3758 0.2169
vt 0.4999 0.2169
vt 0.4999 0.2169
vt 0.3758 0.2169
vt 0.3758 0.3263
vt 0.4999 0.3263
vt 0.9575 0.1451
vt 0.9575 0.0638
vt 0.8431 0.0638
vt 0.8431 0.1451
vt 0.9575 0.1878
vt 0.8431 0.1878
vt 0.8431 0.2169
vt 0.9575 0.2169
vt 0.9575 0.2169
vt 0.8431 0.2169
vt 0.8431 0.3263
vt 0.9575 0.3263
vt 0.1275 0.1621
vt 0.1275 0.1878
vt 0.3758 0.1451
vt 0.3758 0.0638
vt 0.4999 0.0638
vt 0.4999 0.1451
vt 0.6143 0.1621
vt 0.6143 0.1878
vt 0.4999 0.1878
vt 0.4999 0.1621
vt 0.3758 0.2169
vt 0.3758 0.1878
vt 0.4999 0.2169
vt 0.3758 0.3263
vt 0.3758 0.2169
vt 0.4999 0.2169
vt 0.4999 0.3263
vt 0.8431 0.1451
vt 0.8431 0.0638
vt 0.8431 0.2169
vt 0.8431 0.1878
vt 0.8431 0.3263
vt 0.8431 0.2169
vt 0.2516 0.1621
vt 0.2516 0.1878
vt 0.3758 0.1621
vt 0.2516 0.1451
vt 0.2516 0.0638
vt 0.1275 0.0638
vt 0.1275 0.1451
vt 0.7287 0.1621
vt 0.7287 0.1878
vt 0.8431 0.1621
vt 0.1275 0.2169
vt 0.2516 0.2169
vt 0.2516 0.2169
vt 0.1275 0.2169
vt 0.1275 0.3263
vt 0.2516 0.3263
vt 0.7287 0.1451
vt 0.7287 0.0638
vt 0.6143 0.0638
vt 0.6143 0.1451
vt 0.6143 0.2169
vt 0.7287 0.2169
vt 0.7287 0.2169
vt 0.6143 0.2169
vt 0.6143 0.3263
vt 0.7287 0.3263
vt 0.2516 0.1621
vt 0.3758 0.1621
vt 0.2516 0.1878
vt 0.2516 0.1451
vt 0.1275 0.1451
vt 0.1275 0.0638
vt 0.2516 0.0638
vt 0.7287 0.1621
vt 0.8431 0.1621
vt 0.7287 0.1878
vt 0.2516 0.2169
vt 0.1275 0.2169
vt 0.2516 0.3263
vt 0.1275 0.3263
vt 0.1275 0.2169
vt 0.2516 0.2169
vt 0.7287 0.1451
vt 0.6143 0.1451
vt 0.6143 0.0638
vt 0.7287 0.0638
vt 0.7287 0.2169
vt 0.6143 0.2169
vt 0.7287 0.3263
vt 0.6143 0.3263
vt 0.6143 0.2169
vt 0.7287 0.2169
vt 0.0033 0.0638
vt 0.0033 0.1451
vt 0.9575 0.1621
vt 0.0033 0.2169
vt 0.0033 0.2169
vt 0.0033 0.3263
vn 0 0.5694 -0.8221
vn 0 0.4799 -0.8773
vn 0.1907 0.4403 -0.8773
vn 0.2263 0.5225 -0.8221
vn 0.9461 -0.053 -0.3195
vn 0.9984 -0.0562 0
vn 0.9412 0.3377 0
vn 0.8917 0.3199 -0.3203
vn 0.5697 -0.0321 -0.8212
vn 0.4786 -0.0267 -0.8776
vn 0.4329 -0.2043 -0.878
vn 0.5172 -0.2441 -0.8203
vn 0.4517 0.1621 -0.8773
vn 0.5582 0.2003 -0.8052
vn 0.5921 -0.0337 -0.8051
vn -0.9984 0.0562 0
vn -0.9412 -0.3377 0
vn 0 -0.9478 -0.3188
vn -0 -1 0
vn 0.3678 -0.9299 0
vn 0.3486 -0.8814 -0.3188
vn 0 -0.4787 -0.878
vn 0.1761 -0.4452 -0.878
vn 0.2181 -0.5515 -0.8052
vn 0 -0.5931 -0.8052
vn 0 1 0
vn -0.3678 0.9299 0
vn -0.2263 0.5225 -0.8221
vn -0.1907 0.4403 -0.8773
vn -0.8917 0.3199 -0.3203
vn -0.9412 0.3377 0
vn -0.9984 -0.0562 0
vn -0.9461 -0.053 -0.3196
vn -0.5172 -0.2441 -0.8203
vn -0.4329 -0.2043 -0.878
vn -0.4786 -0.0267 -0.8776
vn -0.5698 -0.0321 -0.8212
vn -0.5582 0.2003 -0.8051
vn -0.4517 0.1621 -0.8773
vn -0.5921 -0.0337 -0.8051
vn 0.9412 -0.3377 0
vn 0.9984 0.0562 0
vn -0.3486 -0.8814 -0.3188
vn -0.3678 -0.9299 0
vn -0.2181 -0.5515 -0.8052
vn -0.1761 -0.4452 -0.878
vn 0.3678 0.9299 0
vn 0.4153 0.3895 -0.8221
vn 0.3501 0.3283 -0.8773
vn 0.5359 0.1923 -0.8221
vn 0.691 0.648 -0.3203
vn 0.7295 0.684 0
vn 0.3975 0.9176 0
vn 0.3765 0.8693 -0.3203
vn 0.3912 -0.4172 -0.8203
vn 0.3275 -0.3492 -0.878
vn 0.2103 -0.5318 -0.8203
vn 0.2357 0.5442 -0.8052
vn 0.4326 0.4057 -0.8051
vn -0.7295 -0.684 0
vn -0.3975 -0.9176 0
vn 0.6483 -0.6914 -0.3188
vn 0.684 -0.7295 0
vn 0.9044 -0.4268 0
vn 0.8572 -0.4045 -0.3188
vn 0.5364 -0.2531 -0.8052
vn 0.4057 -0.4326 -0.8052
vn -0.684 0.7295 0
vn -0.9044 0.4268 0
vn -0.4153 0.3895 -0.8221
vn -0.5359 0.1923 -0.8221
vn -0.3501 0.3283 -0.8773
vn -0.691 0.648 -0.3203
vn -0.3765 0.8693 -0.3203
vn -0.3975 0.9176 0
vn -0.7295 0.684 0
vn -0.3912 -0.4172 -0.8203
vn -0.2103 -0.5318 -0.8203
vn -0.3275 -0.3492 -0.878
vn -0.4326 0.4057 -0.8051
vn -0.2357 0.5442 -0.8052
vn 0.7295 -0.684 0
vn 0.3975 -0.9176 0
vn -0.6483 -0.6914 -0.3188
vn -0.8572 -0.4045 -0.3188
vn -0.9044 -0.4267 0
vn -0.684 -0.7295 0
vn -0.4057 -0.4326 -0.8051
vn -0.5364 -0.2531 -0.8051
vn 0.684 0.7295 0
vn 0.9044 0.4268 0
vn -0 0.9473 -0.3203
vn 0 -0.5719 -0.8203
vn 0 0.5931 -0.8052
f 1/1/1 2/2/2 3/3/3
f 1/1/1 3/3/3 4/4/4
f 5/5/5 6/6/6 7/7/7
f 5/5/5 7/7/7 8/8/8
f 9/9/9 10/10/10 11/11/11
f 9/9/9 11/11/11 12/12/12
f 10/10/10 13/13/13 97/14/14
f 10/10/10 97/14/14 98/15/15
f 15/16/16 14/17/17 16/18/17
f 15/16/16 16/18/17 17/19/16
f 18/20/18 19/21/19 20/22/20
f 18/20/18 20/22/20 21/23/21
f 22/24/22 23/25/23 99/26/24
f 22/24/22 99/26/24 100/27/25
f 25/28/26 24/29/27 26/30/27
f 25/28/26 26/30/27 27/31/26
f 2/2/2 1/1/1 28/32/28
f 2/2/2 28/32/28 29/33/29
f 30/34/30 31/35/31 32/36/32
f 30/34/30 32/36/32 33/37/33
f 34/38/34 35/39/35 36/40/36
f 34/38/34 36/40/36 37/41/37
f 101/42/38 39/43/39 36/40/36
f 101/42/38 36/40/36 102/44/40
f 41/45/41 38/46/41 40/47/42
f 41/45/41 40/47/42 42/48/42
f 43/49/43 44/50/44 19/21/19
f 43/49/43 19/21/19 18/20/18
f 103/51/45 46/52/46 22/24/22
f 103/51/45 22/24/22 100/27/25
f 47/53/47 45/54/47 25/28/26
f 47/53/47 25/28/26 27/31/26
f 48/55/48 49/56/49 13/13/13
f 48/55/48 13/13/13 50/57/50
f 51/58/51 52/59/52 53/60/53
f 51/58/51 53/60/53 54/61/54
f 55/62/55 56/63/56 23/25/23
f 55/62/55 23/25/23 57/64/57
f 49/56/49 3/3/3 104/65/58
f 49/56/49 104/65/58 105/66/59
f 59/67/60 58/68/61 60/69/61
f 59/67/60 60/69/61 61/70/60
f 62/71/62 63/72/63 64/73/64
f 62/71/62 64/73/64 65/74/65
f 56/63/56 11/11/11 106/75/66
f 56/63/56 106/75/66 107/76/67
f 67/77/68 66/78/69 68/79/69
f 67/77/68 68/79/69 69/80/68
f 70/81/70 71/82/71 39/43/39
f 70/81/70 39/43/39 72/83/72
f 73/84/73 74/85/74 75/86/75
f 73/84/73 75/86/75 76/87/76
f 77/88/77 78/89/78 46/52/46
f 77/88/77 46/52/46 79/90/79
f 108/91/80 109/92/81 29/33/29
f 108/91/80 29/33/29 72/83/72
f 82/93/82 83/94/83 81/95/83
f 82/93/82 81/95/83 80/96/82
f 84/97/84 85/98/85 86/99/86
f 84/97/84 86/99/86 87/100/87
f 110/101/88 111/102/89 35/39/35
f 110/101/88 35/39/35 79/90/79
f 90/103/90 91/104/91 89/105/91
f 90/103/90 89/105/91 88/106/90
f 4/4/4 3/3/3 49/56/49
f 4/4/4 49/56/49 48/55/48
f 8/8/8 7/7/7 52/59/52
f 8/8/8 52/59/52 51/58/51
f 12/12/12 11/11/11 56/63/56
f 12/12/12 56/63/56 55/62/55
f 13/13/13 49/56/49 105/66/59
f 13/13/13 105/66/59 97/14/14
f 14/17/17 59/67/60 61/70/60
f 14/17/17 61/70/60 16/18/17
f 21/23/21 20/22/20 63/72/63
f 21/23/21 63/72/63 62/71/62
f 23/25/23 56/63/56 107/76/67
f 23/25/23 107/76/67 99/26/24
f 24/29/27 67/77/68 69/80/68
f 24/29/27 69/80/68 26/30/27
f 28/32/28 70/81/70 72/83/72
f 28/32/28 72/83/72 29/33/29
f 30/34/30 73/84/73 76/87/76
f 30/34/30 76/87/76 31/35/31
f 34/38/34 77/88/77 79/90/79
f 34/38/34 79/90/79 35/39/35
f 101/42/38 108/91/80 72/83/72
f 101/42/38 72/83/72 39/43/39
f 41/45/41 82/93/82 80/96/82
f 41/45/41 80/96/82 38/46/41
f 43/49/43 84/97/84 87/100/87
f 43/49/43 87/100/87 44/50/44
f 103/51/45 110/101/88 79/90/79
f 103/51/45 79/90/79 46/52/46
f 47/53/47 90/103/90 88/106/90
f 47/53/47 88/106/90 45/54/47
f 50/57/50 13/13/13 10/10/10
f 50/57/50 10/10/10 9/9/9
f 54/61/54 53/60/53 92/107/26
f 54/61/54 92/107/26 93/108/92
f 57/64/57 23/25/23 22/24/22
f 57/64/57 22/24/22 94/109/93
f 3/3/3 2/2/2 112/110/94
f 3/3/3 112/110/94 104/65/58
f 58/68/61 95/111/19 96/112/19
f 58/68/61 96/112/19 60/69/61
f 65/74/65 64/73/64 6/6/6
f 65/74/65 6/6/6 5/5/5
f 11/11/11 10/10/10 98/15/15
f 11/11/11 98/15/15 106/75/66
f 66/78/69 15/16/16 17/19/16
f 66/78/69 17/19/16 68/79/69
f 71/82/71 37/41/37 36/40/36
f 71/82/71 36/40/36 39/43/39
f 74/85/74 93/108/92 92/107/26
f 74/85/74 92/107/26 75/86/75
f 78/89/78 94/109/93 22/24/22
f 78/89/78 22/24/22 46/52/46
f 109/92/81 112/110/94 2/2/2
f 109/92/81 2/2/2 29/33/29
f 83/94/83 96/112/19 95/111/19
f 83/94/83 95/111/19 81/95/83
f 85/98/85 33/37/33 32/36/32
f 85/98/85 32/36/32 86/99/86
f 111/102/89 102/44/40 36/40/36
f 111/102/89 36/40/36 35/39/35
f 91/104/91 42/48/42 40/47/42
f 91/104/91 40/47/42 89/105/91
f 8/8/8 50/57/50 9/9/9
f 8/8/8 9/9/9 5/5/5
f 21/23/21 57/64/57 94/109/93
f 21/23/21 94/109/93 18/20/18
f 33/37/33 37/41/37 71/82/71
f 33/37/33 71/82/71 30/34/30
f 18/20/18 94/109/93 78/89/78
f 18/20/18 78/89/78 43/49/43
f 54/61/54 4/4/4 48/55/48
f 54/61/54 48/55/48 51/58/51
f 65/74/65 12/12/12 55/62/55
f 65/74/65 55/62/55 62/71/62
f 73/84/73 70/81/70 28/32/28
f 73/84/73 28/32/28 74/85/74
f 84/97/84 77/88/77 34/38/34
f 84/97/84 34/38/34 85/98/85
f 51/58/51 48/55/48 50/57/50
f 51/58/51 50/57/50 8/8/8
f 62/71/62 55/62/55 57/64/57
f 62/71/62 57/64/57 21/23/21
f 30/34/30 71/82/71 70/81/70
f 30/34/30 70/81/70 73/84/73
f 43/49/43 78/89/78 77/88/77
f 43/49/43 77/88/77 84/97/84
f 93/108/92 1/1/1 4/4/4
f 93/108/92 4/4/4 54/61/54
f 5/5/5 9/9/9 12/12/12
f 5/5/5 12/12/12 65/74/65
f 1/1/1 93/108/92 74/85/74
f 1/1/1 74/85/74 28/32/28
f 85/98/85 34/38/34 37/41/37
f 85/98/85 37/41/37 33/37/33
