o sponza_126
v -101.574 68.0957 -5.69064
v -100.775 68.0957 -5.69064
v -100.775 68.0957 -4.68716
v -101.574 68.0957 -4.68716
v -100.775 69.2297 -4.68716
v -100.775 69.2297 -5.98613
v -101.574 69.2297 -5.98613
v -101.574 69.2297 -4.68716
v -101.574 68.2607 -5.79168
v -100.775 68.2607 -5.79168
v -100.775 68.3503 -5.98613
v -101.574 68.3503 -5.98613
v -100.775 68.0957 -5.69064
v -100.775 68.0957 -4.68716
v -101.574 68.0957 -5.69064
v -101.574 68.0957 -4.68716
v -100.775 69.2297 -4.68716
v -100.775 69.2297 -5.98613
v -100.775 69.2297 -5.98613
v -101.574 69.2297 -5.98613
v -101.574 69.2297 -5.98613
v -101.574 69.2297 -4.68716
v -101.574 68.2607 -5.79168
v -100.775 68.2607 -5.79168
v -101.574 68.3503 -5.98613
v -100.775 68.3503 -5.98613
vt 0.3593 0.8072
vt 0.4143 0.8072
vt 0.4143 0.7381
vt 0.3593 0.7381
vt 0.4143 0.9839
vt 0.4143 0.8945
vt 0.3593 0.8945
vt 0.3593 0.9839
vt 0.4915 0.9031
vt 0.4224 0.9031
vt 0.4984 0.9145
vt 0.3593 0.8205
vt 0.4143 0.8205
vt 0.4346 0.8164
vt 0.4277 0.8278
vt 0.5037 0.8164
vt 0.4224 0.9812
vt 0.5118 0.9812
vt 0.4143 0.8339
vt 0.3593 0.8339
vt 0.3593 0.8945
vt 0.4143 0.8945
vt 0.5037 0.8945
vt 0.4143 0.8945
vt 0.5118 0.9206
vt 0.4143 0.8339
vn 0 -0.8725 -0.4887
vn 0 -1 0
vn 0 1 0
vn -1 0 0
vn 0 -0.7475 -0.6642
vn 0 -0.7475 -0.6643
vn 1 -0.0001 0
vn 1 -0 0
vn 0 -0.5392 -0.8422
vn 0 0 -1
f 15/1/1 13/2/1 14/3/2
f 15/1/1 14/3/2 16/4/2
f 17/5/3 18/6/3 20/7/3
f 17/5/3 20/7/3 22/8/3
f 1/9/4 4/10/4 23/11/4
f 15/1/1 9/12/5 24/13/6
f 15/1/1 24/13/6 13/2/1
f 2/14/7 10/15/8 3/16/8
f 23/11/4 4/10/4 8/17/4
f 23/11/4 8/17/4 21/18/4
f 26/19/9 25/20/9 7/21/10
f 26/19/9 7/21/10 19/22/10
f 5/23/8 3/16/8 10/15/8
f 5/23/8 10/15/8 6/24/8
f 21/18/4 12/25/4 23/11/4
f 25/20/9 26/19/9 24/13/6
f 25/20/9 24/13/6 9/12/5
f 10/15/8 11/26/8 6/24/8
