o sponza_174
v -80.0284 67.4124 -25.4193
v -80.9509 67.4124 -25.4193
v -80.951 67.4124 -26.5781
v -80.0284 67.4124 -26.5781
v -80.951 68.722 -26.5781
v -80.9509 68.722 -25.0781
v -80.0284 68.722 -25.0781
v -80.0284 68.722 -26.5781
v -80.0284 67.4124 -25.4193
v -80.0284 67.4124 -26.5781
v -80.0284 67.6029 -25.3026
v -80.0284 67.4124 -25.4193
v -80.0284 67.6029 -25.3026
v -80.9509 67.6029 -25.3026
v -80.9509 67.4124 -25.4193
v -80.9509 67.4124 -25.4193
v -80.9509 67.6029 -25.3026
v -80.951 67.4124 -26.5781
v -80.0284 68.722 -26.5781
v -80.0284 68.722 -25.0781
v -80.9509 67.7064 -25.0781
v -80.0284 67.7064 -25.0781
v -80.0284 68.722 -25.0781
v -80.9509 68.722 -25.0781
v -80.951 68.722 -26.5781
v -80.9509 68.722 -25.0781
v -80.0284 67.7064 -25.0781
v -80.0284 67.7064 -25.0781
v -80.9509 67.7064 -25.0781
v -80.9509 67.6029 -25.3026
v -80.0284 67.6029 -25.3026
v -80.9509 67.7064 -25.0781
vt 0.3593 0.8072
vt 0.4143 0.8072
vt 0.4143 0.7381
vt 0.3593 0.7381
vt 0.4143 0.9839
vt 0.4143 0.8945
vt 0.3593 0.8945
vt 0.3593 0.9839
vt 0.4915 0.9031
vt 0.4224 0.9031
vt 0.4984 0.9145
vt 0.3593 0.8072
vt 0.3593 0.8205
vt 0.4143 0.8205
vt 0.4143 0.8072
vt 0.4346 0.8164
vt 0.4277 0.8278
vt 0.5037 0.8164
vt 0.4224 0.9812
vt 0.5118 0.9812
vt 0.4143 0.8339
vt 0.3593 0.8339
vt 0.3593 0.8945
vt 0.4143 0.8945
vt 0.5037 0.8945
vt 0.4143 0.8945
vt 0.5118 0.9206
vt 0.3593 0.8339
vt 0.4143 0.8339
vt 0.4143 0.8205
vt 0.3593 0.8205
vt 0.4143 0.8339
vn 0 -1 -0
vn 0 -1 -0
vn 0 -1 -0
vn 0 -1 -0
vn 0 1 0
vn 0 1 0
vn 0 1 0
vn 0 1 0
vn 1 0 0
vn 1 0 0
vn 1 0 0
vn 0 -0.5224 0.8527
vn 0 -0.5224 0.8527
vn 0 -0.5224 0.8527
vn 0 -0.5223 0.8527
vn -1 0 0
vn -1 0 0
vn -1 0 0
vn 1 0 0
vn 1 0 0
vn 0 0 1
vn 0 0 1
vn 0 0 1
vn 0 0 1
vn -1 0 0
vn -1 0 0
vn 1 0 0
vn 0 -0.9082 0.4185
vn 0 -0.9082 0.4185
vn 0 -0.9082 0.4185
vn 0 -0.9082 0.4184
vn -1 0 0
f 1/1/1 2/2/2 3/3/3
f 1/1/1 3/3/3 4/4/4
f 5/5/5 6/6/6 7/7/7
f 5/5/5 7/7/7 8/8/8
f 9/9/9 10/10/10 11/11/11
f 12/12/12 13/13/13 14/14/14
f 12/12/12 14/14/14 15/15/15
f 16/16/16 17/17/17 18/18/18
f 11/11/11 10/10/10 19/19/19
f 11/11/11 19/19/19 20/20/20
f 21/21/21 22/22/22 23/23/23
f 21/21/21 23/23/23 24/24/24
f 25/25/25 18/18/18 17/17/17
f 25/25/25 17/17/17 26/26/26
f 20/20/20 27/27/27 11/11/11
f 28/28/28 29/29/29 30/30/30
f 28/28/28 30/30/30 31/31/31
f 17/17/17 32/32/32 26/26/26
