o sponza_84
v 47.0271 66.0363 57.5488
v 47.0271 66.0363 56.9962
v 51.5761 66.0363 56.9962
v 51.5761 66.0363 57.5488
v 51.5154 66.0363 56.9216
v 47.0879 66.0363 56.9216
v 51.6225 66.4232 56.9379
v 51.6857 67.0696 56.8557
v 51.6857 67.0696 57.5488
v 51.6225 66.4232 57.5488
v 46.9735 67.0696 56.787
v 51.6298 67.0696 56.787
v 51.5629 66.4232 56.8647
v 47.0404 66.4232 56.8647
v 46.49 68.6596 56.1918
v 46.4929 69.096 56.1918
v 52.1104 69.096 56.1918
v 52.1133 68.6596 56.1918
v 46.433 68.6596 57.5488
v 46.433 69.0959 57.5488
v 46.433 69.0959 56.2654
v 46.433 68.6596 56.2618
v 51.7549 66.2297 56.7838
v 51.7549 66.2297 57.5488
v 46.915 66.2297 56.702
v 51.6883 66.2297 56.702
v 52.1703 69.0959 56.2654
v 52.3368 69.3141 56.0686
v 52.3368 69.3141 57.5488
v 52.1703 69.0959 57.5488
v 46.3327 69.3141 55.9873
v 52.2706 69.3141 55.9873
v 52.1703 69.5323 56.2731
v 52.1703 69.5323 57.5488
v 46.4992 69.5323 56.1918
v 52.1041 69.5323 56.1918
v 51.8997 67.9695 56.5956
v 52.1703 68.6596 56.2618
v 52.1703 68.6596 57.5488
v 51.8997 67.9695 57.5488
v 51.8416 67.9695 56.5242
v 46.7618 67.9695 56.5242
v 46.9808 66.4232 56.9379
v 46.9176 67.0696 56.8557
v 46.8484 66.2297 56.7838
v 46.2665 69.3141 56.0686
v 46.433 69.5323 56.2731
v 46.7036 67.9695 56.5956
v 46.433 69.5323 57.5488
v 46.9176 67.0696 57.5488
v 46.9808 66.4232 57.5488
v 46.8484 66.2297 57.5488
v 46.2665 69.3141 57.5488
v 46.7036 67.9695 57.5488
v 47.0271 66.0363 57.5488
v 47.0271 66.0363 56.9962
v 51.5761 66.0363 56.9962
v 51.5761 66.0363 57.5488
v 51.5154 66.0363 56.9216
v 47.0879 66.0363 56.9216
v 46.915 66.2297 56.702
v 51.6883 66.2297 56.702
v 46.3327 69.3141 55.9873
v 52.2706 69.3141 55.9873
vt 0.2773 0.6742
vt 0.2773 0.6911
vt 0.4476 0.6911
vt 0.4476 0.6742
vt 0.4453 0.6933
vt 0.2795 0.6933
vt 0.5504 0.8881
vt 0.5526 0.9084
vt 0.5337 0.9084
vt 0.5337 0.8881
vt 0.7614 0.91
vt 0.6053 0.91
vt 0.6076 0.8897
vt 0.7592 0.8897
vt 0.7776 0.96
vt 0.7775 0.9737
vt 0.5892 0.9737
vt 0.5891 0.96
vt 0.8287 0.9596
vt 0.8287 0.9733
vt 0.7937 0.9733
vt 0.7936 0.9596
vt 0.9865 0.7672
vt 0.9959 0.7791
vt 0.9632 0.7791
vt 0.9619 0.7672
vt 0.2524 0.779
vt 0.0111 0.779
vt 0.0112 0.7672
vt 0.2525 0.7672
vt 0.5337 0.882
vt 0.5546 0.882
vt 0.6034 0.8836
vt 0.7634 0.8836
vt 0.5687 0.9721
vt 0.5741 0.979
vt 0.5337 0.979
vt 0.5337 0.9721
vt 0.7829 0.9806
vt 0.5839 0.9806
vt 0.5685 0.9859
vt 0.5337 0.9859
vt 0.7773 0.9875
vt 0.5894 0.9875
vt 0.5839 0.9806
vt 0.7829 0.9806
vt 0.5597 0.9367
vt 0.5688 0.9584
vt 0.5337 0.9584
vt 0.5337 0.9367
vt 0.5982 0.9383
vt 0.7685 0.9383
vt 0.6028 0.9094
vt 0.605 0.8907
vt 0.8095 0.8902
vt 0.8121 0.8892
vt 0.8098 0.9096
vt 0.8073 0.909
vt 0.5867 0.9726
vt 0.5865 0.9593
vt 0.7912 0.9721
vt 0.791 0.9589
vt 0.6007 0.8862
vt 0.8052 0.8857
vt 0.8079 0.8832
vt 0.0078 0.7789
vt 0.0079 0.7672
vt 0.2559 0.779
vt 0.2558 0.7672
vt 0.5815 0.9806
vt 0.7884 0.9801
vt 0.786 0.9801
vt 0.5871 0.99
vt 0.7939 0.987
vt 0.7916 0.9896
vt 0.786 0.9801
vt 0.5957 0.9372
vt 0.8002 0.9367
vt 0.8027 0.9379
vt 0.0091 0.8976
vt 0.0091 0.876
vt 0.0109 0.8746
vt 0.1674 0.876
vt 0.1655 0.8746
vt 0.1674 0.8976
vt 0.8287 0.9096
vt 0.8287 0.8892
vt 0.2874 0.779
vt 0.2803 0.7672
vt 0.8287 0.8832
vt 0.8287 0.9801
vt 0.8287 0.987
vt 0.8287 0.9379
vn 0 -1 0
vn 0 -1 -0.0002
vn 0 -1 0.0001
vn 0.9118 0.3115 -0.2676
vn 0.9231 -0.2213 -0.3144
vn 0.9863 -0.1647 0
vn 0.9686 0.2488 0
vn -0.4078 -0.254 -0.877
vn 0.4079 -0.254 -0.877
vn 0.3713 0.3626 -0.8548
vn -0.3714 0.3626 -0.8548
vn -0.4272 -0.251 -0.8686
vn -0.3556 -0.4619 -0.8125
vn 0.3556 -0.4619 -0.8125
vn 0.4272 -0.251 -0.8686
vn -0.9826 -0.1858 0
vn -0.9473 -0.3202 0
vn -0.8773 -0.4014 -0.2631
vn -0.9078 -0.2349 -0.3474
vn 0.4048 -0.9098 -0.0916
vn 0.9149 -0.0672 -0.3981
vn 0.9973 -0.0728 0
vn 0.4008 -0.9162 -0
vn -0.2667 -0.8176 -0.5102
vn 0.2667 -0.8177 -0.5102
vn 0.138 -0.924 -0.3566
vn -0.1379 -0.924 -0.3566
vn 0.3173 0.7224 -0.6144
vn -0.3172 0.7224 -0.6145
vn 0.8773 -0.4014 -0.2631
vn 0.9163 0.0033 -0.4004
vn 1 -0 0
vn 0.9473 -0.3203 0
vn -0.2995 -0.7603 -0.5764
vn 0.2994 -0.7603 -0.5764
vn 0.4484 0.8877 -0.1047
vn 0.4434 0.8963 0
vn -0.1562 0.9026 -0.4011
vn 0.1562 0.9026 -0.4011
vn 0.2992 0.7641 -0.5715
vn -0.2992 0.7641 -0.5715
vn 0.8738 -0.3895 -0.2913
vn 0.9078 -0.2349 -0.3474
vn 0.9826 -0.1858 0
vn 0.9543 -0.2989 0
vn 0.3737 -0.4407 -0.8162
vn -0.3736 -0.4407 -0.8162
vn -0.9118 0.3115 -0.2676
vn -0.9231 -0.2213 -0.3144
vn -0.9149 -0.0672 -0.3981
vn -0.4048 -0.9098 -0.0916
vn -0.9163 0.0033 -0.4004
vn -0.4484 0.8877 -0.1047
vn -0.8737 -0.3895 -0.2913
vn -0.4434 0.8963 0
vn -0.9863 -0.1647 0
vn -0.9686 0.2488 0
vn -0.9973 -0.0728 0
vn -0.4008 -0.9162 -0
vn -1 0 -0
vn -0.9543 -0.2989 0
f 55/1/1 56/2/1 57/3/1
f 55/1/1 57/3/1 58/4/1
f 59/5/2 57/3/2 56/2/2
f 59/5/3 56/2/3 60/6/3
f 7/7/4 8/8/5 9/9/6
f 7/7/4 9/9/6 10/10/7
f 11/11/8 12/12/9 13/13/10
f 11/11/8 13/13/10 14/14/11
f 15/15/12 16/16/13 17/17/14
f 15/15/12 17/17/14 18/18/15
f 19/19/16 20/20/17 21/21/18
f 19/19/16 21/21/18 22/22/19
f 3/23/20 23/24/21 24/25/22
f 3/23/20 24/25/22 4/26/23
f 61/27/24 62/28/25 5/29/26
f 61/27/24 5/29/26 6/30/27
f 7/7/4 10/10/7 24/31/22
f 7/7/4 24/31/22 23/32/21
f 14/14/11 13/13/10 26/33/28
f 14/14/11 26/33/28 25/34/29
f 27/35/30 28/36/31 29/37/32
f 27/35/30 29/37/32 30/38/33
f 63/39/34 64/40/35 17/17/14
f 63/39/34 17/17/14 16/16/13
f 33/41/36 34/42/37 29/37/32
f 33/41/36 29/37/32 28/36/31
f 35/43/38 36/44/39 32/45/40
f 35/43/38 32/45/40 31/46/41
f 37/47/42 38/48/43 39/49/44
f 37/47/42 39/49/44 40/50/45
f 15/15/12 18/18/15 41/51/46
f 15/15/12 41/51/46 42/52/47
f 8/8/5 37/47/42 40/50/45
f 8/8/5 40/50/45 9/9/6
f 42/52/47 41/51/46 12/12/9
f 42/52/47 12/12/9 11/11/8
f 8/53/5 7/54/4 13/13/10
f 8/53/5 13/13/10 12/12/9
f 14/55/11 43/56/48 44/57/49
f 14/55/11 44/57/49 11/58/8
f 18/18/15 17/17/14 27/59/30
f 18/18/15 27/59/30 38/60/43
f 22/22/19 21/21/18 16/61/13
f 22/22/19 16/61/13 15/62/12
f 13/13/10 7/54/4 23/63/21
f 13/13/10 23/63/21 26/33/28
f 14/55/11 25/64/29 45/65/50
f 14/55/11 45/65/50 43/56/48
f 23/66/21 3/67/20 5/29/26
f 23/66/21 5/29/26 62/28/25
f 45/68/50 61/27/24 6/30/27
f 45/68/50 6/30/27 2/69/51
f 17/17/14 64/40/35 28/70/31
f 17/17/14 28/70/31 27/59/30
f 16/61/13 21/21/18 46/71/52
f 16/61/13 46/71/52 63/72/34
f 28/70/31 32/45/40 36/44/39
f 28/70/31 36/44/39 33/73/36
f 46/71/52 47/74/53 35/75/38
f 46/71/52 35/75/38 31/76/41
f 41/51/46 18/18/15 38/60/43
f 41/51/46 38/60/43 37/77/42
f 42/78/47 48/79/54 22/22/19
f 42/78/47 22/22/19 15/62/12
f 12/12/9 41/51/46 37/77/42
f 12/12/9 37/77/42 8/53/5
f 11/58/8 44/57/49 48/79/54
f 11/58/8 48/79/54 42/78/47
f 34/80/37 33/81/36 36/82/39
f 34/80/37 36/82/39 47/83/53
f 36/82/39 35/84/38 47/83/53
f 49/85/55 34/80/37 47/83/53
f 50/86/56 44/57/49 43/56/48
f 50/86/56 43/56/48 51/87/57
f 39/49/44 38/48/43 27/35/30
f 39/49/44 27/35/30 30/38/33
f 52/88/58 45/68/50 2/69/51
f 52/88/58 2/69/51 1/89/59
f 52/90/58 51/87/57 43/56/48
f 52/90/58 43/56/48 45/65/50
f 53/91/60 46/71/52 21/21/18
f 53/91/60 21/21/18 20/20/17
f 53/91/60 49/92/55 47/74/53
f 53/91/60 47/74/53 46/71/52
f 19/19/16 22/22/19 48/79/54
f 19/19/16 48/79/54 54/93/61
f 54/93/61 48/79/54 44/57/49
f 54/93/61 44/57/49 50/86/56
