o sponza_71
v -43.0466 28.9317 57.3104
v -40.5817 28.6824 57.3104
v -41.9812 26.8294 57.3104
v -43.3806 26.9282 57.3104
v -47.5791 26.4012 58.9753
v -45.4322 26.8017 58.9753
v -43.3806 26.9282 58.9753
v -38.0849 25.9702 58.9753
v -41.9812 26.8293 58.9753
v -39.9455 26.4984 58.9753
v -48.8832 25.9048 58.9753
v -48.8832 25.9048 57.3104
v -50.9683 27.7304 57.3104
v -49.6465 27.7235 57.3104
v -47.5791 26.4012 57.3104
v -48.1039 28.2339 57.3104
v -46.2114 28.6814 57.3104
v -45.4322 26.8017 57.3104
v -44.1441 28.9317 57.3104
v -38.7846 28.2613 57.3104
v -39.9455 26.4984 57.3104
v -37.5601 27.8126 57.3104
v -38.0849 25.9702 57.3104
v -35.7128 27.8487 57.3104
v -49.8925 13.1404 57.7458
v -49.8546 24.6997 57.7458
v -48.898 23.8031 58.2138
v -48.974 13.9744 58.2138
v -48.974 13.9744 58.9753
v -48.898 23.8031 58.9753
v -37.8503 23.7817 58.9753
v -37.7554 14.0613 58.9753
v -38.0849 25.9702 57.3104
v -38.0849 25.9702 58.9753
v -39.9455 26.4984 58.9753
v -39.9455 26.4984 57.3104
v -48.8832 25.9048 57.3104
v -48.8832 25.9048 58.9753
v -38.0849 25.9702 58.9753
v -38.0849 25.9702 57.3104
v -47.5791 26.4012 57.3104
v -47.5791 26.4012 58.9753
v -48.8832 25.9048 58.9753
v -48.8832 25.9048 57.3104
v -45.4322 26.8017 57.3104
v -45.4322 26.8017 58.9753
v -43.3806 26.9282 57.3104
v -43.3806 26.9282 58.9753
v -41.9812 26.8294 57.3104
v -41.9812 26.8293 58.9753
v -37.8503 23.7817 58.2138
v -37.8503 23.7817 58.9753
v -48.898 23.8031 58.9753
v -48.898 23.8031 58.2138
v -37.7554 14.0613 58.2138
v -37.7554 14.0613 58.9753
v -37.8503 23.7817 58.9753
v -37.8503 23.7817 58.2138
v -48.974 13.9744 58.2138
v -48.974 13.9744 58.9753
v -37.7554 14.0613 58.9753
v -37.7554 14.0613 58.2138
v -48.898 23.8031 58.2138
v -48.898 23.8031 58.9753
v -48.974 13.9744 58.9753
v -48.974 13.9744 58.2138
v -36.0468 12.3208 57.3104
v -36.0328 12.3064 57.3104
v -36.0468 12.3064 57.3104
v -36.474 12.7559 57.3104
v -36.4977 25.1426 57.3104
v -36.0468 25.5963 57.3104
v -35.7128 11.9805 57.3104
v -50.9683 11.9805 57.3104
v -50.8111 12.3064 57.3104
v -50.8111 25.5963 57.3104
v -48.974 13.9744 58.2138
v -37.7554 14.0613 58.2138
v -36.9011 13.191 57.7458
v -49.8925 13.1404 57.7458
v -50.3328 25.148 57.3104
v -50.3518 12.7234 57.3104
v -50.3328 25.148 57.3104
v -37.7554 14.0613 58.2138
v -37.8503 23.7817 58.2138
v -36.9486 24.689 57.7458
v -36.9011 13.191 57.7458
v -36.474 12.7559 57.3104
v -50.3518 12.7234 57.3104
v -37.8503 23.7817 58.2138
v -48.898 23.8031 58.2138
v -49.8546 24.6997 57.7458
v -36.9486 24.689 57.7458
v -36.4977 25.1426 57.3104
v -36.474 12.7559 57.3104
v -50.3328 25.148 57.3104
v -36.4977 25.1426 57.3104
v -50.3518 12.7234 57.3104
v -35.7128 11.9805 57.3104
v -35.7128 11.9805 58.3672
v -50.9683 11.9805 58.3672
v -50.9683 11.9805 57.3104
v -50.9683 11.9805 57.3104
v -50.9683 11.9805 58.3672
v -50.9684 27.7304 58.3672
v -50.9683 27.7304 57.3104
v -35.7128 27.8487 57.3104
v -35.7128 27.8487 58.3672
v -35.7128 11.9805 58.3672
v -35.7128 11.9805 57.3104
v -37.5601 27.8126 57.3104
v -37.5601 27.8126 58.3672
v -35.7128 27.8487 58.3672
v -35.7128 27.8487 57.3104
v -38.7846 28.2613 57.3104
v -38.7846 28.2613 58.3672
v -40.5817 28.6824 57.3104
v -40.5817 28.6824 58.3672
v -43.0466 28.9317 57.3104
v -43.0466 28.9317 58.3672
v -44.1441 28.9317 57.3104
v -44.1441 28.9317 58.3672
v -46.2114 28.6814 57.3104
v -46.2114 28.6814 58.3672
v -48.1039 28.2339 57.3104
v -48.1039 28.2339 58.3672
v -49.6465 27.7235 57.3104
v -49.6465 27.7235 58.3672
v -50.9683 27.7304 57.3104
v -50.9684 27.7304 58.3672
vt 0.6641 0.4155
vt 0.6068 0.4094
vt 0.6394 0.364
vt 0.6719 0.3664
vt 0.7694 0.3535
vt 0.7195 0.3633
vt 0.6719 0.3664
vt 0.5488 0.3429
vt 0.6394 0.364
vt 0.5921 0.3559
vt 0.7997 0.3413
vt 0.7997 0.3413
vt 0.8481 0.3861
vt 0.8174 0.3859
vt 0.7694 0.3535
vt 0.7816 0.3984
vt 0.7376 0.4094
vt 0.7195 0.3633
vt 0.6896 0.4155
vt 0.5651 0.3991
vt 0.5921 0.3559
vt 0.5366 0.3881
vt 0.5488 0.3429
vt 0.4937 0.389
vt 0.8231 0.0284
vt 0.8223 0.3118
vt 0.8 0.2898
vt 0.8018 0.0489
vt 0.8018 0.0489
vt 0.8 0.2898
vt 0.5434 0.2893
vt 0.5412 0.051
vt 0.4408 0.1672
vt 0.4726 0.1672
vt 0.4726 0.2037
vt 0.4408 0.2037
vt 0.4408 0.3751
vt 0.4726 0.3751
vt 0.4726 0.5781
vt 0.4408 0.5781
vt 0.4408 0.3487
vt 0.4726 0.3487
vt 0.4726 0.3751
vt 0.4408 0.3751
vt 0.4408 0.3076
vt 0.4726 0.3076
vt 0.4408 0.2689
vt 0.4726 0.2689
vt 0.4408 0.2426
vt 0.4726 0.2426
vt 0.4408 0.0817
vt 0.4726 0.0817
vt 0.4726 0.2893
vt 0.4408 0.2893
vt 0.4408 0.0891
vt 0.4726 0.0891
vt 0.4726 0.2819
vt 0.4408 0.2819
vt 0.4408 0.0801
vt 0.4726 0.0801
vt 0.4726 0.2909
vt 0.4408 0.2909
vt 0.4408 0.088
vt 0.4726 0.088
vt 0.4726 0.283
vt 0.4408 0.283
vt 0.5015 0.0083
vt 0.5012 0.008
vt 0.5015 0.008
vt 0.5114 0.019
vt 0.512 0.3227
vt 0.5015 0.3338
vt 0.4937 0
vt 0.8481 0
vt 0.8445 0.008
vt 0.8445 0.3338
vt 0.8018 0.0489
vt 0.5412 0.051
vt 0.5213 0.0297
vt 0.8231 0.0284
vt 0.8334 0.3228
vt 0.8338 0.0182
vt 0.8334 0.3228
vt 0.5412 0.051
vt 0.5434 0.2893
vt 0.5224 0.3115
vt 0.5213 0.0297
vt 0.5114 0.019
vt 0.8338 0.0182
vt 0.5434 0.2893
vt 0.8 0.2898
vt 0.8223 0.3118
vt 0.5224 0.3115
vt 0.512 0.3227
vt 0.5114 0.019
vt 0.8334 0.3228
vt 0.512 0.3227
vt 0.8338 0.0182
vt 0.4937 0
vt 0.4937 0
vt 0.8481 0
vt 0.8481 0
vt 0.8481 0
vt 0.8481 0
vt 0.8481 0.3861
vt 0.8481 0.3861
vt 0.4937 0.389
vt 0.4937 0.389
vt 0.4937 0
vt 0.4937 0
vt 0.5366 0.3881
vt 0.5366 0.3881
vt 0.4937 0.389
vt 0.4937 0.389
vt 0.5651 0.3991
vt 0.5651 0.3991
vt 0.6068 0.4094
vt 0.6068 0.4094
vt 0.6641 0.4155
vt 0.6641 0.4155
vt 0.6896 0.4155
vt 0.6896 0.4155
vt 0.7376 0.4094
vt 0.7376 0.4094
vt 0.7816 0.3984
vt 0.7816 0.3984
vt 0.8174 0.3859
vt 0.8174 0.3859
vt 0.8481 0.3861
vt 0.8481 0.3861
vn 0.0361 0.7172 -0.6959
vn 0.1188 0.7112 -0.6928
vn 0 0 -1
vn 0 0 -1
vn 0 0 -1
vn 0 0 -1
vn 0 0 -1
vn 0 0 -1
vn 0 0 -1
vn 0 0 -1
vn 0 0 -1
vn 0 0 -1
vn -0.5759 0.579 -0.5771
vn -0.1043 0.6584 -0.7454
vn 0 0 -1
vn -0.1952 0.6896 -0.6974
vn -0.1261 0.7081 -0.6947
vn 0 0 -1
vn -0.0433 0.7189 -0.6938
vn 0.2064 0.69 -0.6937
vn 0 0 -1
vn 0.109 0.6512 -0.7511
vn 0 0 -1
vn 0.5722 0.5834 -0.5763
vn 0.6242 0.0088 -0.7812
vn 0.6063 0 -0.7952
vn 0.436 -0.0017 -0.8999
vn 0.4512 -0.0081 -0.8924
vn 0 0 -1
vn 0 0 -1
vn 0 0 -1
vn 0 0 -1
vn -0.2731 -0.962 -0
vn -0.2731 -0.962 -0
vn -0.2171 -0.9761 -0
vn -0.2171 -0.9761 -0
vn -0.0061 1 0
vn -0.0061 1 0
vn -0.0061 1 0
vn -0.0061 1 0
vn 0.2707 -0.9627 0
vn 0.2707 -0.9627 0
vn 0.3557 -0.9346 0
vn 0.3557 -0.9346 0
vn 0.1227 -0.9924 -0
vn 0.1227 -0.9924 -0
vn -0.0045 -1 -0
vn -0.0045 -1 -0
vn -0.1156 -0.9933 -0
vn -0.1156 -0.9933 -0
vn -0.003 -1 0.0069
vn -0.0019 -1 0
vn -0.0019 -1 0
vn -0.0002 -1 0.003
vn -1 -0.0071 0.0061
vn -1 -0.0098 0
vn -1 -0.0098 0
vn -0.9999 -0.0167 0.001
vn -0.0076 0.9999 0.0075
vn -0.0077 1 0
vn -0.0077 1 0
vn -0.0138 0.9999 0.0027
vn 0.9999 -0.0108 0.0017
vn 1 -0.0077 -0
vn 1 -0.0077 -0
vn 1 -0.0002 0.0001
vn -0.0001 0 -1
vn 0 0 -1
vn 0 0 -1
vn 0.0013 0.0014 -1
vn 0.0016 0.0006 -1
vn 0 0 -1
vn 0.5773 -0.5774 -0.5773
vn -0.5774 -0.5773 -0.5774
vn 0 0 -1
vn 0 0 -1
vn 0.0055 0.4901 -0.8716
vn -0.0029 0.465 -0.8853
vn -0.0082 0.6396 -0.7687
vn 0.003 0.659 -0.7522
vn 0.001 0.0001 -1
vn 0.689 -0.0006 -0.7247
vn 0.6727 -0.002 -0.7399
vn -0.4777 0.0034 -0.8785
vn -0.4517 -0.001 -0.8922
vn -0.6259 -0.003 -0.7799
vn -0.6528 0.0069 -0.7575
vn -0.0045 0.707 -0.7072
vn 0.0002 0.7236 -0.6903
vn -0.0072 -0.4569 -0.8895
vn 0.0016 -0.4614 -0.8872
vn 0.0047 -0.6414 -0.7672
vn -0.0099 -0.6341 -0.7732
vn -0.695 -0.0042 -0.719
vn -0.7155 -0.0001 -0.6987
vn 0.0001 -0.6974 -0.7167
vn -0.0019 -0.6928 -0.7212
vn -0.002 -0.0003 -1
vn 0 -1 0
vn 0 -1 0
vn 0 -1 0
vn 0 -1 0
vn -1 -0 -0
vn -1 -0 -0
vn -1 -0 -0
vn -1 -0 -0
vn 1 -0 0
vn 1 -0 0
vn 1 -0 0
vn 1 -0 0
vn 0.1651 0.9863 0
vn 0.1651 0.9863 0
vn -0.0195 0.9998 0
vn -0.0195 0.9998 0
vn 0.2866 0.958 0
vn 0.2866 0.958 0
vn 0.1647 0.9863 0
vn 0.1647 0.9863 0
vn 0.0504 0.9987 0
vn 0.0504 0.9987 0
vn -0.0602 0.9982 0
vn -0.0602 0.9982 0
vn -0.1754 0.9845 0
vn -0.1754 0.9845 0
vn -0.2724 0.9622 0
vn -0.2724 0.9622 0
vn -0.1565 0.9877 0
vn -0.1565 0.9877 0
vn 0.0052 1 0
vn 0.0052 1 0
f 1/1/1 2/2/2 3/3/3
f 1/1/1 3/3/3 4/4/4
f 5/5/5 6/6/6 7/7/7
f 5/5/5 7/7/7 8/8/8
f 7/7/7 9/9/9 10/10/10
f 7/7/7 10/10/10 8/8/8
f 11/11/11 5/5/5 8/8/8
f 12/12/12 13/13/13 14/14/14
f 12/12/12 14/14/14 15/15/15
f 15/15/15 14/14/14 16/16/16
f 15/15/15 16/16/16 17/17/17
f 18/18/18 15/15/15 17/17/17
f 18/18/18 17/17/17 19/19/19
f 18/18/18 19/19/19 4/4/4
f 19/19/19 1/1/1 4/4/4
f 2/2/2 20/20/20 21/21/21
f 2/2/2 21/21/21 3/3/3
f 20/20/20 22/22/22 23/23/23
f 20/20/20 23/23/23 21/21/21
f 22/22/22 24/24/24 23/23/23
f 25/25/25 26/26/26 27/27/27
f 25/25/25 27/27/27 28/28/28
f 29/29/29 30/30/30 31/31/31
f 29/29/29 31/31/31 32/32/32
f 33/33/33 34/34/34 35/35/35
f 33/33/33 35/35/35 36/36/36
f 37/37/37 38/38/38 39/39/39
f 37/37/37 39/39/39 40/40/40
f 41/41/41 42/42/42 43/43/43
f 41/41/41 43/43/43 44/44/44
f 45/45/45 46/46/46 42/42/42
f 45/45/45 42/42/42 41/41/41
f 47/47/47 48/48/48 46/46/46
f 47/47/47 46/46/46 45/45/45
f 49/49/49 50/50/50 48/48/48
f 49/49/49 48/48/48 47/47/47
f 36/36/36 35/35/35 50/50/50
f 36/36/36 50/50/50 49/49/49
f 51/51/51 52/52/52 53/53/53
f 51/51/51 53/53/53 54/54/54
f 55/55/55 56/56/56 57/57/57
f 55/55/55 57/57/57 58/58/58
f 59/59/59 60/60/60 61/61/61
f 59/59/59 61/61/61 62/62/62
f 63/63/63 64/64/64 65/65/65
f 63/63/63 65/65/65 66/66/66
f 67/67/67 68/68/68 69/69/69
f 70/70/70 71/71/71 72/72/72
f 70/70/70 72/72/72 67/67/67
f 69/69/69 68/68/68 73/73/73
f 69/69/69 73/73/73 74/74/74
f 69/69/69 74/74/74 75/75/75
f 24/24/24 73/73/73 68/68/68
f 24/24/24 68/68/68 67/67/67
f 24/24/24 67/67/67 72/72/72
f 13/13/13 12/12/12 76/76/76
f 77/77/77 78/78/78 79/79/79
f 77/77/77 79/79/79 80/80/80
f 74/74/74 13/13/13 76/76/76
f 74/74/74 76/76/76 75/75/75
f 72/72/72 71/71/71 81/81/81
f 72/72/72 81/81/81 76/76/76
f 23/23/23 72/72/72 76/76/76
f 23/23/23 76/76/76 12/12/12
f 23/23/23 24/24/24 72/72/72
f 82/82/82 83/83/83 26/26/26
f 82/82/82 26/26/26 25/25/25
f 84/84/84 85/85/85 86/86/86
f 84/84/84 86/86/86 87/87/87
f 88/88/88 89/89/89 80/80/80
f 88/88/88 80/80/80 79/79/79
f 90/90/90 91/91/91 92/92/92
f 90/90/90 92/92/92 93/93/93
f 87/87/87 86/86/86 94/94/94
f 87/87/87 94/94/94 95/95/95
f 93/93/93 92/92/92 96/96/96
f 93/93/93 96/96/96 97/97/97
f 75/75/75 76/76/76 81/81/81
f 75/75/75 81/81/81 98/98/98
f 69/69/69 75/75/75 98/98/98
f 69/69/69 98/98/98 67/67/67
f 70/70/70 67/67/67 98/98/98
f 99/99/99 100/100/100 101/101/101
f 99/99/99 101/101/101 102/102/102
f 103/103/103 104/104/104 105/105/105
f 103/103/103 105/105/105 106/106/106
f 107/107/107 108/108/108 109/109/109
f 107/107/107 109/109/109 110/110/110
f 111/111/111 112/112/112 113/113/113
f 111/111/111 113/113/113 114/114/114
f 115/115/115 116/116/116 112/112/112
f 115/115/115 112/112/112 111/111/111
f 117/117/117 118/118/118 116/116/116
f 117/117/117 116/116/116 115/115/115
f 119/119/119 120/120/120 118/118/118
f 119/119/119 118/118/118 117/117/117
f 120/120/120 119/119/119 121/121/121
f 120/120/120 121/121/121 122/122/122
f 123/123/123 124/124/124 122/122/122
f 123/123/123 122/122/122 121/121/121
f 125/125/125 126/126/126 124/124/124
f 125/125/125 124/124/124 123/123/123
f 127/127/127 128/128/128 126/126/126
f 127/127/127 126/126/126 125/125/125
f 129/129/129 130/130/130 128/128/128
f 129/129/129 128/128/128 127/127/127
