o sponza_97
v 129.761 18.2652 57.5725
v 129.761 18.2652 57.0198
v 129.861 18.2652 57.0199
v 130.31 18.2652 57.5725
v 129.811 18.2652 56.9587
v 130.31 18.2652 56.8976
v 129.86 18.2652 56.8976
v 129.715 18.6521 56.9615
v 129.715 18.6521 57.5725
v 129.651 19.2985 57.5725
v 129.651 19.2985 56.8793
v 129.582 18.4586 57.5725
v 129.582 18.4586 56.8075
v 129.167 21.3248 56.289
v 129.167 21.3248 57.5725
v 129 21.543 57.5725
v 129 21.543 56.0922
v 129.167 21.7611 57.5725
v 129.167 21.7611 56.2968
v 129.437 20.1984 56.6193
v 129.437 20.1984 57.5725
v 129.167 20.8885 57.5725
v 129.167 20.8885 56.2855
v 129.764 18.6521 56.9011
v 129.699 19.2985 56.8212
v 129.216 21.3248 56.2284
v 129.215 20.8885 56.2266
v 129.053 21.543 56.0277
v 129.219 21.7611 56.2322
v 129.486 20.1984 56.5597
v 129.635 18.4586 56.7427
v 130.31 21.7611 57.5726
v 129.813 18.6521 56.8407
v 129.746 19.2985 56.763
v 130.31 19.2985 56.763
v 130.31 18.6521 56.8407
v 129.688 18.4586 56.678
v 130.31 18.4586 56.678
v 129.266 21.3248 56.1677
v 129.105 21.543 55.9631
v 130.31 21.543 55.9631
v 130.31 21.3248 56.1677
v 129.272 21.7611 56.1677
v 130.31 21.7611 56.1677
v 129.534 20.1984 56.5002
v 129.263 20.8885 56.1677
v 130.31 20.8885 56.1677
v 130.31 20.1984 56.5002
v 129.761 18.2652 57.5725
v 129.761 18.2652 57.0198
v 129.811 18.2652 56.9587
v 130.31 18.2652 56.8976
v 129.86 18.2652 56.8976
v 129.053 21.543 56.0277
v 129.635 18.4586 56.7427
v 129.688 18.4586 56.678
v 130.31 18.4586 56.678
v 129.105 21.543 55.9631
v 130.31 21.543 55.9631
vt 0.4476 0.6742
vt 0.4476 0.6911
vt 0.4439 0.6911
vt 0.427 0.6742
vt 0.4457 0.6929
vt 0.4476 0.6742
vt 0.4476 0.6911
vt 0.5504 0.8881
vt 0.5337 0.8881
vt 0.5337 0.9084
vt 0.5526 0.9084
vt 0.9865 0.7672
vt 0.9619 0.7672
vt 0.9632 0.7791
vt 0.9959 0.7791
vt 0.5546 0.882
vt 0.5337 0.882
vt 0.5687 0.9721
vt 0.5337 0.9721
vt 0.5337 0.979
vt 0.5741 0.979
vt 0.5337 0.9859
vt 0.5685 0.9859
vt 0.5597 0.9367
vt 0.5337 0.9367
vt 0.5337 0.9584
vt 0.5688 0.9584
vt 0.6071 0.8899
vt 0.605 0.8907
vt 0.6028 0.9094
vt 0.605 0.9099
vt 0.5867 0.9726
vt 0.5888 0.9735
vt 0.5887 0.9599
vt 0.5865 0.9593
vt 0.5815 0.9806
vt 0.5834 0.9806
vt 0.5871 0.99
vt 0.589 0.988
vt 0.5834 0.9806
vt 0.5978 0.9381
vt 0.5957 0.9372
vt 0.6007 0.8862
vt 0.6028 0.8842
vt 0.0107 0.7672
vt 0.0079 0.7672
vt 0.0078 0.7789
vt 0.0104 0.779
vt 0.0105 0.8749
vt 0.0091 0.876
vt 0.0091 0.8976
vt 0.0406 0.8976
vt 0.5504 0.8881
vt 0.5526 0.9084
vt 0.5337 0.9084
vt 0.5337 0.8881
vt 0.9865 0.7672
vt 0.9959 0.7791
vt 0.9632 0.7791
vt 0.9619 0.7672
vt 0.5337 0.882
vt 0.5546 0.882
vt 0.5687 0.9721
vt 0.5741 0.979
vt 0.5337 0.979
vt 0.5337 0.9721
vt 0.5685 0.9859
vt 0.5337 0.9859
vt 0.5337 0.979
vt 0.5741 0.979
vt 0.5597 0.9367
vt 0.5688 0.9584
vt 0.5337 0.9584
vt 0.5337 0.9367
vt 0.605 0.8907
vt 0.6028 0.9094
vt 0.5867 0.9726
vt 0.5865 0.9593
vt 0.5815 0.9806
vt 0.5871 0.99
vt 0.5815 0.9806
vt 0.5957 0.9372
vt 0.6007 0.8862
vt 0.0078 0.7789
vt 0.0079 0.7672
vt 0.0091 0.8976
vt 0.0091 0.876
vn 0 -1 0
vn -0.9118 0.3115 -0.2676
vn -0.9686 0.2488 0
vn -0.9863 -0.1647 0
vn -0.9232 -0.2213 -0.3143
vn -0.4048 -0.9098 -0.0915
vn -0.4007 -0.9162 -0
vn -0.9973 -0.0728 0
vn -0.9149 -0.0672 -0.3981
vn -0.8773 -0.4014 -0.263
vn -0.9473 -0.3203 0
vn -1 -0 0
vn -0.9163 0.0033 -0.4004
vn -0.4433 0.8963 0
vn -0.4484 0.8877 -0.1047
vn -0.8738 -0.3894 -0.2912
vn -0.9543 -0.2989 0
vn -0.9826 -0.1858 0
vn -0.9078 -0.2349 -0.3474
vn -0.7353 0.3179 -0.5985
vn -0.7508 -0.2505 -0.6112
vn -0.7058 -0.4145 -0.5745
vn -0.7473 -0.2678 -0.6082
vn -0.506 -0.7578 -0.4119
vn -0.2665 0.9391 -0.2169
vn -0.5004 0.764 -0.4073
vn -0.6985 -0.4345 -0.5686
vn -0.5393 0.7187 -0.439
vn -0.2354 -0.9528 -0.1916
vn -0.4487 -0.8157 -0.3652
vn 0 1 0
vn -0.3714 0.3626 -0.8548
vn -0.4078 -0.254 -0.877
vn 0 -0.2005 -0.9797
vn 0 0.2858 -0.9583
vn -0.138 -0.924 -0.3565
vn -0.2666 -0.8177 -0.5102
vn 0 -0.7505 -0.6609
vn -0 -0.9356 -0.3532
vn 0 0.6437 -0.7653
vn -0.3173 0.7224 -0.6144
vn -0.3557 -0.462 -0.8124
vn -0.2995 -0.7604 -0.5763
vn 0 -0.6841 -0.7294
vn 0 -0.3678 -0.9299
vn -0.1562 0.9026 -0.4011
vn -0 0.9176 -0.3974
vn -0 0.6841 -0.7294
vn -0.2992 0.7643 -0.5713
vn -0.3735 -0.4407 -0.8162
vn -0.4272 -0.251 -0.8686
vn 0 -0.2226 -0.9749
vn 0 -0.3584 -0.9336
f 49/1/1 50/2/1 3/3/1
f 49/1/1 3/3/1 4/4/1
f 51/5/1 3/3/1 50/2/1
f 52/6/1 4/4/1 3/3/1
f 52/6/1 3/3/1 53/7/1
f 51/5/1 53/7/1 3/3/1
f 8/8/2 9/9/3 10/10/4
f 8/8/2 10/10/4 11/11/5
f 2/12/6 1/13/7 12/14/8
f 2/12/6 12/14/8 13/15/9
f 8/8/2 13/16/9 12/17/8
f 8/8/2 12/17/8 9/9/3
f 14/18/10 15/19/11 16/20/12
f 14/18/10 16/20/12 17/21/13
f 16/20/12 18/22/14 19/23/15
f 16/20/12 19/23/15 17/21/13
f 20/24/16 21/25/17 22/26/18
f 20/24/16 22/26/18 23/27/19
f 11/11/5 10/10/4 21/25/17
f 11/11/5 21/25/17 20/24/16
f 24/28/20 8/29/2 11/30/5
f 24/28/20 11/30/5 25/31/21
f 14/32/10 26/33/22 27/34/23
f 14/32/10 27/34/23 23/35/19
f 17/36/13 54/37/24 26/33/22
f 17/36/13 26/33/22 14/32/10
f 17/36/13 19/38/15 29/39/25
f 17/36/13 29/39/25 28/40/26
f 23/35/19 27/34/23 30/41/27
f 23/35/19 30/41/27 20/42/16
f 20/42/16 30/41/27 25/31/21
f 20/42/16 25/31/21 11/30/5
f 14/18/10 23/27/19 22/26/18
f 14/18/10 22/26/18 15/19/11
f 13/43/9 8/29/2 24/28/20
f 13/43/9 24/28/20 55/44/28
f 5/45/29 2/46/6 13/47/9
f 5/45/29 13/47/9 31/48/30
f 29/49/25 19/50/15 18/51/14
f 29/49/25 18/51/14 32/52/31
f 33/53/32 34/54/33 35/55/34
f 33/53/32 35/55/34 36/56/35
f 7/57/36 56/58/37 57/59/38
f 7/57/36 57/59/38 6/60/39
f 33/53/32 36/56/35 38/61/40
f 33/53/32 38/61/40 37/62/41
f 39/63/42 58/64/43 59/65/44
f 39/63/42 59/65/44 42/66/45
f 43/67/46 44/68/47 41/69/48
f 43/67/46 41/69/48 40/70/49
f 45/71/50 46/72/51 47/73/52
f 45/71/50 47/73/52 48/74/53
f 34/54/33 45/71/50 48/74/53
f 34/54/33 48/74/53 35/55/34
f 33/75/32 24/28/20 25/31/21
f 33/75/32 25/31/21 34/76/33
f 27/34/23 26/33/22 39/77/42
f 27/34/23 39/77/42 46/78/51
f 39/77/42 26/33/22 54/37/24
f 39/77/42 54/37/24 58/79/43
f 28/40/26 29/39/25 43/80/46
f 28/40/26 43/80/46 40/81/49
f 45/82/50 30/41/27 27/34/23
f 45/82/50 27/34/23 46/78/51
f 34/76/33 25/31/21 30/41/27
f 34/76/33 30/41/27 45/82/50
f 47/73/52 46/72/51 39/63/42
f 47/73/52 39/63/42 42/66/45
f 33/75/32 37/83/41 55/44/28
f 33/75/32 55/44/28 24/28/20
f 31/48/30 56/84/37 7/85/36
f 31/48/30 7/85/36 5/45/29
f 44/86/47 43/87/46 29/49/25
f 44/86/47 29/49/25 32/52/31
