o sponza_72
v 31.0783 28.9317 57.3104
v 33.5432 28.6825 57.3104
v 32.1437 26.8294 57.3104
v 30.7442 26.9282 57.3104
v 26.5458 26.4012 58.9753
v 28.6927 26.8017 58.9753
v 30.7442 26.9282 58.9753
v 36.04 25.9702 58.9753
v 32.1437 26.8294 58.9753
v 34.1794 26.4985 58.9753
v 25.2417 25.9048 58.9753
v 25.2417 25.9048 57.3104
v 23.1565 27.7304 57.3104
v 24.4783 27.7235 57.3104
v 26.5458 26.4012 57.3104
v 26.021 28.2339 57.3104
v 27.9135 28.6815 57.3104
v 28.6927 26.8017 57.3104
v 29.9808 28.9317 57.3104
v 35.3403 28.2613 57.3104
v 34.1794 26.4985 57.3104
v 36.5648 27.8127 57.3104
v 36.04 25.9702 57.3104
v 38.4121 27.8487 57.3104
v 24.2324 13.1405 57.7458
v 24.2703 24.6997 57.7458
v 25.2269 23.8032 58.2138
v 25.1509 13.9744 58.2138
v 25.1509 13.9744 58.9753
v 25.2269 23.8032 58.9753
v 36.2746 23.7817 58.9753
v 36.3695 14.0613 58.9753
v 36.2746 23.7817 58.2138
v 36.3695 14.0613 58.2138
v 38.078 12.3208 57.3104
v 38.0921 12.3065 57.3104
v 38.078 12.3065 57.3104
v 37.6509 12.7559 57.3104
v 37.6272 25.1426 57.3104
v 38.078 25.5963 57.3104
v 38.4121 11.9805 57.3104
v 23.1565 11.9805 57.3104
v 23.3138 12.3065 57.3104
v 23.3138 25.5963 57.3104
v 37.2238 13.191 57.7458
v 23.7921 25.148 57.3104
v 23.7731 12.7235 57.3104
v 37.1763 24.689 57.7458
v 38.4121 11.9805 58.3672
v 23.1566 11.9805 58.3672
v 23.1565 27.7304 58.3672
v 38.4121 27.8487 58.3672
v 36.5648 27.8127 58.3672
v 35.3403 28.2613 58.3672
v 33.5432 28.6825 58.3672
v 31.0783 28.9317 58.3672
v 29.9808 28.9317 58.3672
v 27.9135 28.6815 58.3672
v 26.021 28.2339 58.3672
v 24.4783 27.7235 58.3672
v 31.0783 28.9317 57.3104
v 33.5432 28.6825 57.3104
v 32.1437 26.8294 57.3104
v 30.7442 26.9282 57.3104
v 26.5458 26.4012 58.9753
v 28.6927 26.8017 58.9753
v 30.7442 26.9282 58.9753
v 32.1437 26.8294 58.9753
v 34.1794 26.4985 58.9753
v 36.04 25.9702 58.9753
v 36.04 25.9702 58.9753
v 25.2417 25.9048 58.9753
v 25.2417 25.9048 58.9753
v 23.1565 27.7304 57.3104
v 23.1565 27.7304 57.3104
v 24.4783 27.7235 57.3104
v 25.2417 25.9048 57.3104
v 25.2417 25.9048 57.3104
v 26.5458 26.4012 57.3104
v 26.021 28.2339 57.3104
v 27.9135 28.6815 57.3104
v 28.6927 26.8017 57.3104
v 29.9808 28.9317 57.3104
v 35.3403 28.2613 57.3104
v 34.1794 26.4985 57.3104
v 36.5648 27.8127 57.3104
v 36.04 25.9702 57.3104
v 36.04 25.9702 57.3104
v 38.4121 27.8487 57.3104
v 38.4121 27.8487 57.3104
v 25.1509 13.9744 58.9753
v 25.1509 13.9744 58.9753
v 25.2269 23.8032 58.9753
v 25.2269 23.8032 58.9753
v 36.2746 23.7817 58.9753
v 36.2746 23.7817 58.9753
v 36.3695 14.0613 58.9753
v 36.3695 14.0613 58.9753
v 38.4121 11.9805 57.3104
v 38.4121 11.9805 57.3104
v 23.1565 11.9805 57.3104
v 23.1565 11.9805 57.3104
v 38.4121 11.9805 58.3672
v 23.1566 11.9805 58.3672
v 23.1565 27.7304 58.3672
v 38.4121 27.8487 58.3672
vt 0.6641 0.4155
vt 0.6068 0.4094
vt 0.6394 0.364
vt 0.6719 0.3664
vt 0.7694 0.3535
vt 0.7195 0.3633
vt 0.6719 0.3664
vt 0.5488 0.3429
vt 0.6394 0.364
vt 0.5921 0.3559
vt 0.7997 0.3413
vt 0.7997 0.3413
vt 0.8481 0.3861
vt 0.8174 0.3859
vt 0.7694 0.3535
vt 0.7816 0.3984
vt 0.7376 0.4094
vt 0.7195 0.3633
vt 0.6896 0.4155
vt 0.5651 0.3991
vt 0.5921 0.3559
vt 0.5366 0.3881
vt 0.5488 0.3429
vt 0.4937 0.389
vt 0.8231 0.0284
vt 0.8223 0.3118
vt 0.8 0.2898
vt 0.8018 0.0489
vt 0.8018 0.0489
vt 0.8 0.2898
vt 0.5434 0.2893
vt 0.5412 0.051
vt 0.4408 0.1672
vt 0.4726 0.1672
vt 0.4726 0.2037
vt 0.4408 0.2037
vt 0.4408 0.3751
vt 0.4726 0.3751
vt 0.4726 0.5781
vt 0.4408 0.5781
vt 0.4408 0.3487
vt 0.4726 0.3487
vt 0.4726 0.3751
vt 0.4408 0.3751
vt 0.4408 0.3076
vt 0.4726 0.3076
vt 0.4408 0.2689
vt 0.4726 0.2689
vt 0.4408 0.2426
vt 0.4726 0.2426
vt 0.4408 0.0817
vt 0.4726 0.0817
vt 0.4726 0.2893
vt 0.4408 0.2893
vt 0.4408 0.0891
vt 0.4726 0.0891
vt 0.4726 0.2819
vt 0.4408 0.2819
vt 0.4408 0.0801
vt 0.4726 0.0801
vt 0.4726 0.2909
vt 0.4408 0.2909
vt 0.4408 0.088
vt 0.4726 0.088
vt 0.4726 0.283
vt 0.4408 0.283
vt 0.5015 0.0083
vt 0.5012 0.008
vt 0.5015 0.008
vt 0.5114 0.019
vt 0.512 0.3227
vt 0.5015 0.3338
vt 0.4937 0
vt 0.8481 0
vt 0.8445 0.008
vt 0.8445 0.3338
vt 0.5412 0.051
vt 0.5213 0.0297
vt 0.8334 0.3228
vt 0.8338 0.0182
vt 0.5434 0.2893
vt 0.5224 0.3115
vt 0.4937 0
vt 0.4937 0
vt 0.8481 0
vt 0.8481 0
vt 0.8481 0
vt 0.8481 0
vt 0.8481 0.3861
vt 0.8481 0.3861
vt 0.4937 0.389
vt 0.4937 0.389
vt 0.4937 0
vt 0.4937 0
vt 0.5366 0.3881
vt 0.5366 0.3881
vt 0.4937 0.389
vt 0.4937 0.389
vt 0.5651 0.3991
vt 0.5651 0.3991
vt 0.6068 0.4094
vt 0.6068 0.4094
vt 0.6641 0.4155
vt 0.6641 0.4155
vt 0.6896 0.4155
vt 0.6896 0.4155
vt 0.7376 0.4094
vt 0.7376 0.4094
vt 0.7816 0.3984
vt 0.7816 0.3984
vt 0.8174 0.3859
vt 0.8174 0.3859
vt 0.8481 0.3861
vt 0.8481 0.3861
vn 0.0361 0.7172 -0.6959
vn 0.1188 0.7112 -0.6928
vn 0 0 -1
vn 0 0.0001 -1
vn -0.5759 0.579 -0.5771
vn -0.1043 0.6585 -0.7454
vn -0.1952 0.6896 -0.6974
vn -0.1262 0.7081 -0.6947
vn -0.0433 0.7189 -0.6938
vn 0.2064 0.69 -0.6937
vn 0.109 0.6512 -0.7511
vn 0.5722 0.5835 -0.5763
vn 0.346 0.3673 -0.8634
vn 0.3455 -0.3559 -0.8683
vn 0.4652 -0.48 -0.7437
vn 0.4731 0.4934 -0.7299
vn -0.2731 -0.962 -0
vn -0.2171 -0.9761 -0
vn -0.0061 1 0
vn 0.2707 -0.9627 0
vn 0.3557 -0.9346 0
vn 0.1227 -0.9924 0
vn -0.0045 -1 0
vn -0.1156 -0.9933 0
vn -0.4807 -0.4796 -0.7341
vn -0.0019 -1 0
vn -0.4847 0.4799 -0.7313
vn -1 -0.0098 0
vn -0.0077 1 0
vn 1 -0.0077 0
vn -0.0001 0 -1
vn -0.1093 0.1121 -0.9877
vn -0.1085 -0.1077 -0.9883
vn 0.5773 -0.5774 -0.5774
vn -0.5774 -0.5773 -0.5774
vn -0.3642 0.3672 -0.8559
vn 0.1069 -0.1039 -0.9888
vn 0.1089 0.1064 -0.9883
vn -0.3614 -0.357 -0.8614
vn 0 -1 0
vn -1 -0 0
vn 1 0 -0
vn -0.0195 0.9998 0
vn 0.344 0.939 0
vn 0.2282 0.9736 0
vn 0.1006 0.9949 0
vn 0 1 0
vn -0.1202 0.9928 0
vn -0.2301 0.9732 0
vn -0.2302 0.9732 0
vn -0.3141 0.9494 0
vn 0.0052 1 0
f 61/1/1 62/2/2 63/3/3
f 61/1/1 63/3/3 64/4/3
f 65/5/3 66/6/3 67/7/3
f 65/5/3 67/7/3 70/8/3
f 67/7/3 68/9/4 69/10/3
f 67/7/3 69/10/3 70/8/3
f 72/11/3 65/5/3 70/8/3
f 77/12/3 74/13/5 76/14/6
f 77/12/3 76/14/6 79/15/3
f 79/15/3 76/14/6 80/16/7
f 79/15/3 80/16/7 81/17/8
f 82/18/3 79/15/3 81/17/8
f 82/18/3 81/17/8 83/19/9
f 82/18/3 83/19/9 64/4/3
f 83/19/9 61/1/1 64/4/3
f 62/2/2 84/20/10 85/21/3
f 62/2/2 85/21/3 63/3/3
f 84/20/10 86/22/11 87/23/3
f 84/20/10 87/23/3 85/21/3
f 86/22/11 89/24/12 87/23/3
f 25/25/13 26/26/14 27/27/15
f 25/25/13 27/27/15 28/28/16
f 91/29/3 93/30/3 95/31/3
f 91/29/3 95/31/3 97/32/3
f 88/33/17 71/34/17 10/35/18
f 88/33/17 10/35/18 21/36/18
f 78/37/19 73/38/19 8/39/19
f 78/37/19 8/39/19 23/40/19
f 15/41/20 5/42/20 11/43/21
f 15/41/20 11/43/21 12/44/21
f 18/45/22 6/46/22 5/42/20
f 18/45/22 5/42/20 15/41/20
f 4/47/23 7/48/23 6/46/22
f 4/47/23 6/46/22 18/45/22
f 3/49/24 9/50/24 7/48/23
f 3/49/24 7/48/23 4/47/23
f 21/36/18 10/35/18 9/50/24
f 21/36/18 9/50/24 3/49/24
f 33/51/25 96/52/26 94/53/26
f 33/51/25 94/53/26 27/54/15
f 34/55/27 98/56/28 31/57/28
f 34/55/27 31/57/28 33/58/25
f 28/59/16 92/60/29 32/61/29
f 28/59/16 32/61/29 34/62/27
f 27/63/15 30/64/30 29/65/30
f 27/63/15 29/65/30 28/66/16
f 35/67/31 36/68/3 37/69/3
f 38/70/32 39/71/33 40/72/3
f 38/70/32 40/72/3 35/67/31
f 37/69/3 36/68/3 99/73/34
f 37/69/3 99/73/34 101/74/35
f 37/69/3 101/74/35 43/75/3
f 89/24/12 99/73/34 36/68/3
f 89/24/12 36/68/3 35/67/31
f 89/24/12 35/67/31 40/72/3
f 74/13/5 77/12/3 44/76/3
f 28/28/16 34/77/27 45/78/36
f 28/28/16 45/78/36 25/25/13
f 101/74/35 74/13/5 44/76/3
f 101/74/35 44/76/3 43/75/3
f 40/72/3 39/71/33 46/79/37
f 40/72/3 46/79/37 44/76/3
f 87/23/3 40/72/3 44/76/3
f 87/23/3 44/76/3 77/12/3
f 87/23/3 89/24/12 40/72/3
f 47/80/38 46/79/37 26/26/14
f 47/80/38 26/26/14 25/25/13
f 34/77/27 33/81/25 48/82/39
f 34/77/27 48/82/39 45/78/36
f 38/70/32 47/80/38 25/25/13
f 38/70/32 25/25/13 45/78/36
f 33/81/25 27/27/15 26/26/14
f 33/81/25 26/26/14 48/82/39
f 45/78/36 48/82/39 39/71/33
f 45/78/36 39/71/33 38/70/32
f 48/82/39 26/26/14 46/79/37
f 48/82/39 46/79/37 39/71/33
f 43/75/3 44/76/3 46/79/37
f 43/75/3 46/79/37 47/80/38
f 37/69/3 43/75/3 47/80/38
f 37/69/3 47/80/38 35/67/31
f 38/70/32 35/67/31 47/80/38
f 100/83/40 103/84/40 104/85/40
f 100/83/40 104/85/40 102/86/40
f 42/87/41 50/88/41 105/89/41
f 42/87/41 105/89/41 75/90/41
f 90/91/42 106/92/42 49/93/42
f 90/91/42 49/93/42 41/94/42
f 22/95/43 53/96/43 52/97/43
f 22/95/43 52/97/43 24/98/43
f 20/99/44 54/100/44 53/96/44
f 20/99/44 53/96/44 22/95/44
f 2/101/45 55/102/45 54/100/45
f 2/101/45 54/100/45 20/99/45
f 1/103/46 56/104/46 55/102/46
f 1/103/46 55/102/46 2/101/46
f 56/104/47 1/103/47 19/105/47
f 56/104/47 19/105/47 57/106/47
f 17/107/48 58/108/48 57/106/48
f 17/107/48 57/106/48 19/105/48
f 16/109/49 59/110/49 58/108/49
f 16/109/50 58/108/50 17/107/50
f 14/111/51 60/112/51 59/110/51
f 14/111/51 59/110/51 16/109/51
f 13/113/52 51/114/52 60/112/52
f 13/113/52 60/112/52 14/111/52
