o sponza_91
v 91.264 66.0364 -64.1441
v 84.6308 66.0364 -64.1441
v 84.6308 66.0364 -64.6968
v 91.264 66.0364 -64.6968
v 91.1754 66.0364 -64.0695
v 84.7194 66.0364 -64.0695
v 91.3316 66.4232 -64.0858
v 91.3316 66.4232 -64.6968
v 91.4237 67.0697 -64.6968
v 91.4237 67.0697 -64.0036
v 91.2447 66.4232 -64.0126
v 91.3423 67.0697 -63.935
v 84.5526 67.0697 -63.935
v 84.6501 66.4232 -64.0126
v 92.043 69.096 -63.3397
v 83.8518 69.096 -63.3397
v 83.8476 68.6597 -63.3397
v 92.0472 68.6597 -63.3397
v 83.7645 69.096 -63.4133
v 83.7645 69.096 -64.6968
v 83.7645 68.6597 -64.6968
v 83.7645 68.6597 -63.4098
v 91.5247 66.2298 -64.6968
v 91.5247 66.2298 -63.9317
v 91.4276 66.2298 -63.8499
v 84.4673 66.2298 -63.8499
v 92.1303 69.096 -63.4133
v 92.1303 69.096 -64.6968
v 92.3732 69.3142 -64.6968
v 92.3732 69.3142 -63.2165
v 92.2766 69.3142 -63.1352
v 83.6182 69.3142 -63.1352
v 92.1303 69.5323 -64.6968
v 92.1303 69.5323 -63.4211
v 92.0338 69.5323 -63.3397
v 83.861 69.5323 -63.3397
v 91.7357 67.9696 -63.7435
v 91.7357 67.9696 -64.6968
v 92.1303 68.6597 -64.6968
v 92.1303 68.6597 -63.4098
v 91.651 67.9696 -63.6721
v 84.2438 67.9696 -63.6721
v 84.4711 67.0697 -64.0036
v 84.5633 66.4232 -64.0858
v 84.3702 66.2298 -63.9317
v 83.5216 69.3142 -63.2165
v 83.7645 69.5323 -63.4211
v 84.1591 67.9696 -63.7435
v 83.7645 69.5323 -64.6968
v 84.4711 67.0697 -64.6968
v 84.5633 66.4232 -64.6968
v 84.3701 66.2298 -64.6968
v 83.5216 69.3142 -64.6968
v 84.1591 67.9696 -64.6968
v 84.6308 66.0364 -64.1441
v 84.6308 66.0364 -64.6968
v 91.264 66.0364 -64.1441
v 91.264 66.0364 -64.6968
v 91.1754 66.0364 -64.0695
v 84.7194 66.0364 -64.0695
v 91.5247 66.2298 -64.6968
v 91.5247 66.2298 -63.9317
v 91.4276 66.2298 -63.8499
v 84.4673 66.2298 -63.8499
v 92.3732 69.3142 -64.6968
v 92.3732 69.3142 -63.2165
v 92.2766 69.3142 -63.1352
v 83.6182 69.3142 -63.1352
v 84.3702 66.2298 -63.9317
v 83.5216 69.3142 -63.2165
v 84.3701 66.2298 -64.6968
v 83.5216 69.3142 -64.6968
vt 0.4476 0.6911
vt 0.2773 0.6911
vt 0.2773 0.6742
vt 0.4476 0.6742
vt 0.4453 0.6933
vt 0.2795 0.6933
vt 0.5504 0.8881
vt 0.5337 0.8881
vt 0.5337 0.9084
vt 0.5526 0.9084
vt 0.6076 0.8897
vt 0.6053 0.91
vt 0.7614 0.91
vt 0.7592 0.8897
vt 0.5892 0.9737
vt 0.7775 0.9737
vt 0.7776 0.96
vt 0.5891 0.96
vt 0.7937 0.9733
vt 0.8287 0.9733
vt 0.8287 0.9596
vt 0.7936 0.9596
vt 0.9865 0.7672
vt 0.9619 0.7672
vt 0.9632 0.7791
vt 0.9959 0.7791
vt 0.0112 0.7672
vt 0.0111 0.779
vt 0.2524 0.779
vt 0.2525 0.7672
vt 0.5546 0.882
vt 0.5337 0.882
vt 0.6034 0.8836
vt 0.7634 0.8836
vt 0.5687 0.9721
vt 0.5337 0.9721
vt 0.5337 0.979
vt 0.5741 0.979
vt 0.5839 0.9806
vt 0.7829 0.9806
vt 0.5337 0.979
vt 0.5337 0.9859
vt 0.5685 0.9859
vt 0.5741 0.979
vt 0.5839 0.9806
vt 0.5894 0.9875
vt 0.7773 0.9875
vt 0.7829 0.9806
vt 0.5597 0.9367
vt 0.5337 0.9367
vt 0.5337 0.9584
vt 0.5688 0.9584
vt 0.5982 0.9383
vt 0.7685 0.9383
vt 0.605 0.8907
vt 0.6028 0.9094
vt 0.8073 0.909
vt 0.8098 0.9096
vt 0.8121 0.8892
vt 0.8095 0.8902
vt 0.5867 0.9726
vt 0.5865 0.9593
vt 0.7912 0.9721
vt 0.791 0.9589
vt 0.6007 0.8862
vt 0.8079 0.8832
vt 0.8052 0.8857
vt 0.0079 0.7672
vt 0.0078 0.7789
vt 0.2558 0.7672
vt 0.2559 0.779
vt 0.5815 0.9806
vt 0.786 0.9801
vt 0.7884 0.9801
vt 0.5871 0.99
vt 0.5815 0.9806
vt 0.786 0.9801
vt 0.7916 0.9896
vt 0.7939 0.987
vt 0.7884 0.9801
vt 0.5957 0.9372
vt 0.8027 0.9379
vt 0.8002 0.9367
vt 0.1674 0.876
vt 0.1655 0.8746
vt 0.0109 0.8746
vt 0.0091 0.8976
vt 0.0091 0.876
vt 0.1674 0.8976
vt 0.8287 0.9096
vt 0.8287 0.8892
vt 0.2874 0.779
vt 0.2803 0.7672
vt 0.8287 0.8832
vt 0.8287 0.9801
vt 0.8287 0.9801
vt 0.8287 0.987
vt 0.8287 0.9379
vn 0 -1 -0
vn 0 -1 0.0001
vn 0 -1 -0.0001
vn 0.8468 0.3982 0.3528
vn 0.9488 0.316 0
vn 0.9719 -0.2354 0
vn 0.8696 -0.2994 0.3926
vn 0.2665 0.3533 0.8967
vn 0.316 -0.267 0.9104
vn -0.3159 -0.267 0.9104
vn -0.2665 0.3533 0.8967
vn 0.261 -0.4551 0.8513
vn -0.261 -0.455 0.8514
vn -0.3526 -0.273 0.8951
vn 0.3527 -0.273 0.895
vn -0.7937 -0.5075 0.3354
vn -0.9133 -0.4072 0
vn -0.9665 -0.2568 -0
vn -0.8625 -0.2861 0.4175
vn 0.3163 -0.9417 0.1148
vn 0.3138 -0.9495 0
vn 0.5959 -0.8031 0
vn 0.4496 -0.8622 0.2333
vn 0.0807 -0.9309 0.3561
vn 0.2212 -0.8437 0.4892
vn -0.2212 -0.8437 0.4892
vn -0.0807 -0.9309 0.3562
vn 0.5554 0.7813 0.2848
vn 0.7077 0.7065 0
vn 0.2658 0.7552 0.5993
vn -0.2658 0.7551 0.5993
vn 0.7937 -0.5075 0.3353
vn 0.9133 -0.4073 0
vn 0.6683 -0.7439 0
vn 0.5159 -0.8143 0.2662
vn 0.2499 -0.7911 0.5583
vn -0.2499 -0.7911 0.5583
vn 0.6683 0.7439 0
vn 0.3578 0.9338 0
vn 0.3607 0.9234 0.1314
vn 0.5107 0.8177 0.2657
vn 0.2493 0.7955 0.5524
vn 0.0932 0.9113 0.4011
vn -0.0931 0.9113 0.4011
vn -0.2493 0.7954 0.5524
vn 0.789 -0.5056 0.3491
vn 0.9104 -0.4138 0
vn 0.9665 -0.2568 0
vn 0.8625 -0.2861 0.4174
vn 0.2851 -0.4587 0.8416
vn -0.285 -0.4587 0.8416
vn -0.8696 -0.2994 0.3927
vn -0.8468 0.3982 0.3528
vn -0.5555 0.7812 0.2848
vn -0.3163 -0.9417 0.1148
vn -0.4496 -0.8622 0.2333
vn -0.5159 -0.8143 0.2662
vn -0.3607 0.9234 0.1315
vn -0.5107 0.8176 0.2657
vn -0.7889 -0.5056 0.3492
vn -0.3579 0.9338 0
vn -0.9719 -0.2354 0
vn -0.9488 0.316 0
vn -0.5959 -0.8031 0
vn -0.3138 -0.9495 -0
vn -0.7077 0.7065 0
vn -0.6683 -0.7439 0
vn -0.6683 0.7439 0
vn -0.9104 -0.4138 -0
f 57/1/1 55/2/1 56/3/1
f 57/1/1 56/3/1 58/4/1
f 55/2/2 57/1/2 59/5/2
f 55/2/3 59/5/3 60/6/3
f 7/7/4 8/8/5 9/9/6
f 7/7/4 9/9/6 10/10/7
f 11/11/8 12/12/9 13/13/10
f 11/11/8 13/13/10 14/14/11
f 15/15/12 16/16/13 17/17/14
f 15/15/12 17/17/14 18/18/15
f 19/19/16 20/20/17 21/21/18
f 19/19/16 21/21/18 22/22/19
f 1/23/20 4/24/21 61/25/22
f 1/23/20 61/25/22 62/26/23
f 5/27/24 63/28/25 64/29/26
f 5/27/24 64/29/26 6/30/27
f 7/7/4 24/31/28 23/32/29
f 7/7/4 23/32/29 8/8/5
f 25/33/30 11/11/8 14/14/11
f 25/33/30 14/14/11 26/34/31
f 27/35/32 28/36/33 65/37/34
f 27/35/32 65/37/34 66/38/35
f 15/15/12 67/39/36 68/40/37
f 15/15/12 68/40/37 16/16/13
f 29/41/38 33/42/39 34/43/40
f 29/41/38 34/43/40 30/44/41
f 31/45/42 35/46/43 36/47/44
f 31/45/42 36/47/44 32/48/45
f 37/49/46 38/50/47 39/51/48
f 37/49/46 39/51/48 40/52/49
f 41/53/50 18/18/15 17/17/14
f 41/53/50 17/17/14 42/54/51
f 10/10/7 9/9/6 38/50/47
f 10/10/7 38/50/47 37/49/46
f 12/12/9 41/53/50 42/54/51
f 12/12/9 42/54/51 13/13/10
f 7/55/4 10/56/7 12/12/9
f 7/55/4 12/12/9 11/11/8
f 13/57/10 43/58/52 44/59/53
f 13/57/10 44/59/53 14/60/11
f 27/61/32 15/15/12 18/18/15
f 27/61/32 18/18/15 40/62/49
f 16/63/13 19/19/16 22/22/19
f 16/63/13 22/22/19 17/64/14
f 7/55/4 11/11/8 25/33/30
f 7/55/4 25/33/30 24/65/28
f 44/59/53 69/66/54 26/67/31
f 44/59/53 26/67/31 14/60/11
f 63/28/25 5/27/24 1/68/20
f 63/28/25 1/68/20 62/69/23
f 2/70/55 6/30/27 64/29/26
f 2/70/55 64/29/26 45/71/56
f 27/61/32 66/72/35 67/39/36
f 27/61/32 67/39/36 15/15/12
f 68/73/37 70/74/57 19/19/16
f 68/73/37 19/19/16 16/63/13
f 34/75/40 35/46/43 31/45/42
f 34/75/40 31/45/42 30/76/41
f 32/77/45 36/78/44 47/79/58
f 32/77/45 47/79/58 46/80/59
f 37/81/46 40/62/49 18/18/15
f 37/81/46 18/18/15 41/53/50
f 17/64/14 22/22/19 48/82/60
f 17/64/14 48/82/60 42/83/51
f 10/56/7 37/81/46 41/53/50
f 10/56/7 41/53/50 12/12/9
f 42/83/51 48/82/60 43/58/52
f 42/83/51 43/58/52 13/57/10
f 47/84/58 36/85/44 35/86/43
f 47/84/58 35/86/43 33/87/39
f 35/86/43 34/88/40 33/87/39
f 49/89/61 47/84/58 33/87/39
f 44/59/53 43/58/52 50/90/62
f 44/59/53 50/90/62 51/91/63
f 27/35/32 40/52/49 39/51/48
f 27/35/32 39/51/48 28/36/33
f 2/70/55 45/71/56 71/92/64
f 2/70/55 71/92/64 3/93/65
f 52/94/66 69/66/54 44/59/53
f 52/94/66 44/59/53 51/91/63
f 19/19/16 70/74/57 72/95/67
f 19/19/16 72/95/67 20/20/17
f 53/96/68 46/80/59 47/79/58
f 53/96/68 47/79/58 49/97/61
f 48/82/60 22/22/19 21/21/18
f 48/82/60 21/21/18 54/98/69
f 43/58/52 48/82/60 54/98/69
f 43/58/52 54/98/69 50/90/62
