o sponza_05
v -104.574 41.3911 -31.0134
v -104.574 41.3911 23.868
v -104.574 49.4053 23.868
v -104.574 49.4053 -31.0134
v 91.4801 41.3911 23.8679
v 91.4801 49.4053 23.8679
v 91.4801 41.3911 -31.0134
v 91.4801 49.4053 -31.0134
v -104.574 41.3911 23.868
v -104.574 49.4053 23.868
v -104.574 41.3911 -31.0134
v -104.574 49.4053 -31.0134
v 91.4801 41.3911 23.8679
v 91.4801 49.4053 23.8679
v 91.4801 41.3911 -31.0134
v 91.4801 49.4053 -31.0134
vt 8.6439 0.3609
vt 6.4963 0.3609
vt 6.4963 0.6819
vt 8.6439 0.6819
vt 6.4963 0.3609
vt -1.3153 0.3609
vt -1.3153 0.6819
vt 6.4963 0.6819
vt 16.4555 0.3608
vt 16.4555 0.6819
vt 18.6031 0.6819
vt 18.6031 0.3608
vt 16.4555 0.6819
vt 16.4555 0.3608
vt 8.6439 0.3609
vt 8.6439 0.6819
vn -1 0 0
vn 0 0 1
vn 1 0 -0
vn 0.7071 -0 0.7071
vn 0.7071 -0.0004 0.7071
vn -0 0 -1
vn -0.7071 0 -0.7071
vn -0.7071 -0.0002 -0.7071
f 11/1/1 9/2/1 10/3/1
f 11/1/1 10/3/1 12/4/1
f 2/5/2 13/6/2 14/7/2
f 2/5/2 14/7/2 3/8/2
f 15/9/3 16/10/3 6/11/4
f 15/9/3 6/11/4 5/12/5
f 8/13/6 7/14/6 1/15/7
f 8/13/6 1/15/7 4/16/8
