o sponza_81
v -103.824 66.0363 57.5488
v -103.824 66.0363 56.9962
v -97.3561 66.0363 56.9962
v -97.3561 66.0363 57.5488
v -97.4424 66.0363 56.9216
v -103.738 66.0363 56.9216
v -97.2902 66.4232 56.9379
v -97.2003 67.0696 56.8557
v -97.2003 67.0696 57.5488
v -97.2902 66.4232 57.5488
v -103.9 67.0696 56.787
v -97.2798 67.0696 56.787
v -97.3749 66.4232 56.8647
v -103.805 66.4232 56.8647
v -104.588 68.6596 56.1918
v -104.584 69.096 56.1918
v -96.5964 69.096 56.1918
v -96.5923 68.6596 56.1918
v -104.669 68.6596 57.5488
v -104.669 69.0959 57.5488
v -104.669 69.0959 56.2654
v -104.669 68.6596 56.2618
v -97.1019 66.2297 56.7838
v -97.1019 66.2297 57.5488
v -103.983 66.2297 56.702
v -97.1966 66.2297 56.702
v -96.5113 69.0959 56.2654
v -96.2745 69.3141 56.0686
v -96.2745 69.3141 57.5488
v -96.5113 69.0959 57.5488
v -104.811 69.3141 55.9873
v -96.3687 69.3141 55.9873
v -96.5113 69.5323 56.2731
v -96.5113 69.5323 57.5488
v -104.575 69.5323 56.1918
v -96.6054 69.5323 56.1918
v -96.896 67.9695 56.5956
v -96.5113 68.6596 56.2618
v -96.5113 68.6596 57.5488
v -96.896 67.9695 57.5488
v -96.9787 67.9695 56.5242
v -104.201 67.9695 56.5242
v -103.89 66.4232 56.9379
v -103.98 67.0696 56.8557
v -104.078 66.2297 56.7838
v -104.905 69.3141 56.0686
v -104.669 69.5323 56.2731
v -104.284 67.9695 56.5956
v -104.669 69.5323 57.5488
v -103.98 67.0696 57.5488
v -103.89 66.4232 57.5488
v -104.078 66.2297 57.5488
v -104.905 69.3141 57.5488
v -104.284 67.9695 57.5488
v -103.824 66.0363 57.5488
v -103.824 66.0363 56.9962
v -97.3561 66.0363 56.9962
v -97.3561 66.0363 57.5488
v -97.4424 66.0363 56.9216
v -103.738 66.0363 56.9216
v -97.1019 66.2297 56.7838
v -97.1019 66.2297 57.5488
v -103.983 66.2297 56.702
v -97.1966 66.2297 56.702
v -96.2745 69.3141 56.0686
v -96.2745 69.3141 57.5488
v -104.811 69.3141 55.9873
v -96.3687 69.3141 55.9873
v -104.078 66.2297 56.7838
v -104.905 69.3141 56.0686
v -104.078 66.2297 57.5488
v -104.905 69.3141 57.5488
vt 0.2773 0.6742
vt 0.2773 0.6911
vt 0.4476 0.6911
vt 0.4476 0.6742
vt 0.4453 0.6933
vt 0.2795 0.6933
vt 0.5504 0.8881
vt 0.5526 0.9084
vt 0.5337 0.9084
vt 0.5337 0.8881
vt 0.7614 0.91
vt 0.6053 0.91
vt 0.6076 0.8897
vt 0.7592 0.8897
vt 0.7776 0.96
vt 0.7775 0.9737
vt 0.5892 0.9737
vt 0.5891 0.96
vt 0.8287 0.9596
vt 0.8287 0.9733
vt 0.7937 0.9733
vt 0.7936 0.9596
vt 0.9865 0.7672
vt 0.9959 0.7791
vt 0.9632 0.7791
vt 0.9619 0.7672
vt 0.2524 0.779
vt 0.0111 0.779
vt 0.0112 0.7672
vt 0.2525 0.7672
vt 0.5337 0.882
vt 0.5546 0.882
vt 0.6034 0.8836
vt 0.7634 0.8836
vt 0.5687 0.9721
vt 0.5741 0.979
vt 0.5337 0.979
vt 0.5337 0.9721
vt 0.7829 0.9806
vt 0.5839 0.9806
vt 0.5685 0.9859
vt 0.5337 0.9859
vt 0.5337 0.979
vt 0.5741 0.979
vt 0.7773 0.9875
vt 0.5894 0.9875
vt 0.5839 0.9806
vt 0.7829 0.9806
vt 0.5597 0.9367
vt 0.5688 0.9584
vt 0.5337 0.9584
vt 0.5337 0.9367
vt 0.5982 0.9383
vt 0.7685 0.9383
vt 0.605 0.8907
vt 0.6028 0.9094
vt 0.8121 0.8892
vt 0.8098 0.9096
vt 0.8073 0.909
vt 0.8095 0.8902
vt 0.5867 0.9726
vt 0.5865 0.9593
vt 0.7912 0.9721
vt 0.791 0.9589
vt 0.6007 0.8862
vt 0.8052 0.8857
vt 0.8079 0.8832
vt 0.0078 0.7789
vt 0.0079 0.7672
vt 0.2558 0.7672
vt 0.2559 0.779
vt 0.5815 0.9806
vt 0.7884 0.9801
vt 0.786 0.9801
vt 0.5871 0.99
vt 0.5815 0.9806
vt 0.786 0.9801
vt 0.7884 0.9801
vt 0.7939 0.987
vt 0.7916 0.9896
vt 0.5957 0.9372
vt 0.8027 0.9379
vt 0.8002 0.9367
vt 0.0091 0.8976
vt 0.0091 0.876
vt 0.0109 0.8746
vt 0.1674 0.876
vt 0.1655 0.8746
vt 0.1674 0.8976
vt 0.8287 0.9096
vt 0.8287 0.8892
vt 0.2874 0.779
vt 0.2803 0.7672
vt 0.8287 0.8832
vt 0.8287 0.9801
vt 0.8287 0.9801
vt 0.8287 0.987
vt 0.8287 0.9379
vn 0 -1 0
vn 0.8519 0.3925 -0.3467
vn 0.8738 -0.2937 -0.3876
vn 0.9732 -0.23 0
vn 0.9502 0.3116 0
vn -0.322 -0.2664 -0.9085
vn 0.322 -0.2664 -0.9085
vn 0.2733 0.3543 -0.8943
vn -0.2731 0.3543 -0.8944
vn -0.3578 -0.2715 -0.8935
vn -0.2668 -0.4559 -0.8491
vn 0.2669 -0.4559 -0.8491
vn 0.3577 -0.2715 -0.8935
vn -0.9678 -0.2516 0
vn -0.9159 -0.4015 0
vn -0.8 -0.5006 -0.3307
vn -0.8657 -0.2827 -0.4132
vn 0.3222 -0.9399 -0.1132
vn 0.4568 -0.858 -0.2349
vn 0.6056 -0.7958 0
vn 0.3196 -0.9476 -0
vn -0.2243 -0.842 -0.4906
vn 0.2244 -0.842 -0.4906
vn 0.0839 -0.9306 -0.3562
vn -0.0839 -0.9306 -0.3562
vn 0.7166 0.6975 0
vn 0.5628 0.7756 -0.2859
vn 0.2693 0.7531 -0.6003
vn -0.2693 0.753 -0.6004
vn 0.8 -0.5006 -0.3306
vn 0.5232 -0.8091 -0.2675
vn 0.6776 -0.7354 -0
vn 0.9159 -0.4015 0
vn -0.2534 -0.7891 -0.5595
vn 0.2533 -0.7891 -0.5595
vn 0.3667 0.9213 -0.1296
vn 0.3637 0.9315 0
vn 0.6776 0.7355 0
vn 0.5181 0.8126 -0.267
vn -0.0967 0.911 -0.401
vn 0.0968 0.9109 -0.4011
vn 0.2528 0.7935 -0.5536
vn -0.2528 0.7935 -0.5536
vn 0.7955 -0.4977 -0.3458
vn 0.8657 -0.2827 -0.4132
vn 0.9678 -0.2516 0
vn 0.9142 -0.4053 0
vn 0.2906 -0.4578 -0.8402
vn -0.2906 -0.4578 -0.8402
vn -0.8518 0.3926 -0.3469
vn -0.8738 -0.2937 -0.3877
vn -0.5629 0.7755 -0.286
vn -0.3222 -0.9399 -0.1133
vn -0.4567 -0.8581 -0.2349
vn -0.5233 -0.8091 -0.2675
vn -0.5181 0.8126 -0.267
vn -0.3667 0.9213 -0.1296
vn -0.7955 -0.4977 -0.3458
vn -0.3637 0.9315 0
vn -0.9732 -0.23 0
vn -0.9502 0.3117 0
vn -0.6055 -0.7958 -0
vn -0.3196 -0.9476 -0
vn -0.7166 0.6975 -0
vn -0.6776 -0.7354 -0
vn -0.6776 0.7354 0
vn -0.9142 -0.4053 0
f 55/1/1 56/2/1 57/3/1
f 55/1/1 57/3/1 58/4/1
f 59/5/1 57/3/1 56/2/1
f 59/5/1 56/2/1 60/6/1
f 7/7/2 8/8/3 9/9/4
f 7/7/2 9/9/4 10/10/5
f 11/11/6 12/12/7 13/13/8
f 11/11/6 13/13/8 14/14/9
f 15/15/10 16/16/11 17/17/12
f 15/15/10 17/17/12 18/18/13
f 19/19/14 20/20/15 21/21/16
f 19/19/14 21/21/16 22/22/17
f 3/23/18 61/24/19 62/25/20
f 3/23/18 62/25/20 4/26/21
f 63/27/22 64/28/23 5/29/24
f 63/27/22 5/29/24 6/30/25
f 7/7/2 10/10/5 24/31/26
f 7/7/2 24/31/26 23/32/27
f 14/14/9 13/13/8 26/33/28
f 14/14/9 26/33/28 25/34/29
f 27/35/30 65/36/31 66/37/32
f 27/35/30 66/37/32 30/38/33
f 67/39/34 68/40/35 17/17/12
f 67/39/34 17/17/12 16/16/11
f 33/41/36 34/42/37 29/43/38
f 33/41/36 29/43/38 28/44/39
f 35/45/40 36/46/41 32/47/42
f 35/45/40 32/47/42 31/48/43
f 37/49/44 38/50/45 39/51/46
f 37/49/44 39/51/46 40/52/47
f 15/15/10 18/18/13 41/53/48
f 15/15/10 41/53/48 42/54/49
f 8/8/3 37/49/44 40/52/47
f 8/8/3 40/52/47 9/9/4
f 42/54/49 41/53/48 12/12/7
f 42/54/49 12/12/7 11/11/6
f 7/55/2 13/13/8 12/12/7
f 7/55/2 12/12/7 8/56/3
f 43/57/50 44/58/51 11/59/6
f 43/57/50 11/59/6 14/60/9
f 18/18/13 17/17/12 27/61/30
f 18/18/13 27/61/30 38/62/45
f 22/22/17 21/21/16 16/63/11
f 22/22/17 16/63/11 15/64/10
f 7/55/2 23/65/27 26/33/28
f 7/55/2 26/33/28 13/13/8
f 43/57/50 14/60/9 25/66/29
f 43/57/50 25/66/29 69/67/52
f 64/28/23 61/68/19 3/69/18
f 64/28/23 3/69/18 5/29/24
f 63/27/22 6/30/25 2/70/53
f 63/27/22 2/70/53 45/71/54
f 27/61/30 17/17/12 68/40/35
f 27/61/30 68/40/35 65/72/31
f 21/21/16 70/73/55 67/74/34
f 21/21/16 67/74/34 16/63/11
f 32/47/42 36/46/41 33/75/36
f 32/47/42 33/75/36 28/76/39
f 31/77/43 46/78/56 47/79/57
f 31/77/43 47/79/57 35/80/40
f 37/81/44 41/53/48 18/18/13
f 37/81/44 18/18/13 38/62/45
f 48/82/58 22/22/17 15/64/10
f 48/82/58 15/64/10 42/83/49
f 8/56/3 12/12/7 41/53/48
f 8/56/3 41/53/48 37/81/44
f 44/58/51 48/82/58 42/83/49
f 44/58/51 42/83/49 11/59/6
f 34/84/37 33/85/36 36/86/41
f 34/84/37 36/86/41 47/87/57
f 36/86/41 35/88/40 47/87/57
f 49/89/59 34/84/37 47/87/57
f 50/90/60 44/58/51 43/57/50
f 50/90/60 43/57/50 51/91/61
f 39/51/46 38/50/45 27/35/30
f 39/51/46 27/35/30 30/38/33
f 71/92/62 45/71/54 2/70/53
f 71/92/62 2/70/53 1/93/63
f 52/94/64 51/91/61 43/57/50
f 52/94/64 43/57/50 69/67/52
f 72/95/65 70/73/55 21/21/16
f 72/95/65 21/21/16 20/20/15
f 53/96/66 49/97/59 47/79/57
f 53/96/66 47/79/57 46/78/56
f 19/19/14 22/22/17 48/82/58
f 19/19/14 48/82/58 54/98/67
f 54/98/67 48/82/58 44/58/51
f 54/98/67 44/58/51 50/90/60
