o sponza_204
v 30.888 66.5982 22.7027
v 30.888 66.5982 22.5704
v 30.888 66.6759 22.3976
v 30.888 66.6759 22.8961
v 30.888 67.0594 23.0523
v 30.888 67.0594 22.0561
v 30.888 67.2375 22.16
v 30.888 67.2375 23.0097
v 30.888 67.4156 22.3542
v 30.888 67.4156 22.8566
v 30.888 66.8285 22.3006
v 30.888 66.8583 23.0239
v 30.888 66.1125 21.9242
v 30.888 66.2721 21.6379
v 30.888 67.2375 23.0097
v 30.2004 67.2375 23.0097
v 30.2004 67.0594 23.0523
v 30.888 67.0594 23.0523
v 30.2004 67.4156 22.8566
v 30.888 67.4156 22.8566
v 30.2004 66.6759 22.3976
v 30.2004 66.8285 22.3006
v 30.888 66.8285 22.3006
v 30.888 66.6759 22.3976
v 30.888 66.8583 23.0239
v 30.2004 66.8583 23.0239
v 30.2004 66.6759 22.8961
v 30.888 66.6759 22.8961
v 30.888 66.8285 22.3006
v 30.2004 66.8285 22.3006
v 30.2004 66.1125 21.9242
v 30.888 66.1125 21.9242
v 30.888 66.1125 21.9242
v 30.2004 66.1125 21.9242
v 30.2004 66.2721 21.6379
v 30.888 66.2721 21.6379
v 30.2004 66.5982 22.7027
v 30.2004 66.6759 22.8961
v 30.2004 66.6759 22.3976
v 30.2004 66.5982 22.5704
v 30.2004 67.2375 22.16
v 30.2004 67.0594 22.0561
v 30.2004 67.0594 23.0523
v 30.2004 67.2375 23.0097
v 30.2004 67.4156 22.3542
v 30.2004 67.4156 22.8566
v 30.2004 66.8285 22.3006
v 30.2004 66.8583 23.0239
v 30.2004 66.2721 21.6379
v 30.2004 66.1125 21.9242
v 30.888 66.5982 22.5704
v 30.888 66.5982 22.7027
v 30.2004 66.5982 22.7027
v 30.2004 66.5982 22.5704
v 30.888 66.6759 22.8961
v 30.2004 66.6759 22.8961
v 30.2004 66.6759 22.3976
v 30.888 66.6759 22.3976
vt 0.1992 0.5029
vt 0.1937 0.4935
vt 0.1809 0.4846
vt 0.2019 0.5199
vt 0.1813 0.5471
vt 0.1394 0.4765
vt 0.1311 0.4913
vt 0.1669 0.5515
vt 0.1267 0.5126
vt 0.1478 0.5482
vt 0.166 0.4841
vt 0.1943 0.5366
vt 0.2009 0.4273
vt 0.1776 0.4138
vt 0.1179 0.2654
vt 0.0646 0.2653
vt 0.0645 0.2791
vt 0.1179 0.2792
vt 0.0646 0.2515
vt 0.118 0.2515
vt 0.0645 0.3476
vt 0.0645 0.3594
vt 0.1178 0.3595
vt 0.1178 0.3476
vt 0.1179 0.2948
vt 0.0645 0.2947
vt 0.0645 0.3089
vt 0.1179 0.3089
vt 0.1178 0.3595
vt 0.0645 0.3594
vt 0.0644 0.415
vt 0.1178 0.415
vt 0.1178 0.415
vt 0.0644 0.415
vt 0.0644 0.4372
vt 0.1177 0.4373
vt 0.1564 0.5656
vt 0.1415 0.5741
vt 0.1821 0.5684
vt 0.1671 0.564
vt 0.2079 0.6115
vt 0.2144 0.5958
vt 0.1331 0.6072
vt 0.1386 0.6212
vt 0.1941 0.6282
vt 0.1531 0.634
vt 0.1918 0.5797
vt 0.1331 0.5904
vt 0.2395 0.5268
vt 0.2143 0.517
vt 0.1179 0.3342
vt 0.1179 0.324
vt 0.0645 0.3239
vt 0.0645 0.3342
vt 0.1179 0.3089
vt 0.0645 0.3089
vt 0.0645 0.3476
vt 0.1178 0.3476
vn 1 -0 0
vn 1 0.0001 0
vn 1 -0 0
vn 1 -0 0
vn 1 -0 0
vn 1 -0 0
vn 1 -0 0
vn 1 -0 0
vn 1 -0 0
vn 1 -0 0
vn 1 -0 0
vn 1 -0 0
vn 1 -0 0
vn 1 -0 0
vn 0 0.4552 0.8904
vn 0 0.4552 0.8904
vn 0 0.0474 0.9989
vn 0 0.0474 0.9989
vn 0 0.6518 0.7584
vn 0 0.6519 0.7583
vn 0 -0.5368 -0.8437
vn 0 -0.5368 -0.8437
vn 0 -0.5368 -0.8437
vn 0 -0.5368 -0.8437
vn 0 -0.367 0.9302
vn 0 -0.367 0.9302
vn 0 -0.5738 0.819
vn 0 -0.5738 0.819
vn 0 -0.4652 0.8852
vn 0 -0.4652 0.8852
vn 0 -0.4652 0.8852
vn 0 -0.4652 0.8852
vn 0 -0.8733 -0.4871
vn 0 -0.8734 -0.4871
vn 0 -0.8734 -0.4871
vn 0 -0.8733 -0.4871
vn -1 0 0
vn -1 0 0
vn -1 0 0
vn -1 0.0001 0
vn -1 0 0
vn -1 0 0
vn -1 0 0
vn -1 0 0
vn -1 0 0
vn -1 0 0
vn -1 0 0
vn -1 0 0
vn -1 0 0
vn -1 0 0
vn 0 -0.9777 -0.2099
vn 0 -0.9818 0.19
vn 0 -0.9818 0.1899
vn 0 -0.9777 -0.2099
vn 0 -0.9278 0.373
vn 0 -0.9278 0.373
vn 0 -0.9119 -0.4104
vn 0 -0.9119 -0.4104
f 1/1/1 2/2/2 3/3/3
f 1/1/1 3/3/3 4/4/4
f 5/5/5 6/6/6 7/7/7
f 5/5/5 7/7/7 8/8/8
f 8/8/8 7/7/7 9/9/9
f 8/8/8 9/9/9 10/10/10
f 11/11/11 6/6/6 5/5/5
f 11/11/11 5/5/5 12/12/12
f 4/4/4 3/3/3 11/11/11
f 4/4/4 11/11/11 12/12/12
f 11/11/11 13/13/13 14/14/14
f 11/11/11 14/14/14 6/6/6
f 15/15/15 16/16/16 17/17/17
f 15/15/15 17/17/17 18/18/18
f 19/19/19 16/16/16 15/15/15
f 19/19/19 15/15/15 20/20/20
f 21/21/21 22/22/22 23/23/23
f 21/21/21 23/23/23 24/24/24
f 25/25/25 26/26/26 27/27/27
f 25/25/25 27/27/27 28/28/28
f 29/29/29 30/30/30 31/31/31
f 29/29/29 31/31/31 32/32/32
f 33/33/33 34/34/34 35/35/35
f 33/33/33 35/35/35 36/36/36
f 37/37/37 38/38/38 39/39/39
f 37/37/37 39/39/39 40/40/40
f 41/41/41 42/42/42 43/43/43
f 41/41/41 43/43/43 44/44/44
f 45/45/45 41/41/41 44/44/44
f 45/45/45 44/44/44 46/46/46
f 43/43/43 42/42/42 47/47/47
f 43/43/43 47/47/47 48/48/48
f 38/38/38 48/48/48 47/47/47
f 38/38/38 47/47/47 39/39/39
f 47/47/47 42/42/42 49/49/49
f 47/47/47 49/49/49 50/50/50
f 51/51/51 52/52/52 53/53/53
f 51/51/51 53/53/53 54/54/54
f 52/52/52 55/55/55 56/56/56
f 52/52/52 56/56/56 53/53/53
f 17/17/17 26/26/26 25/25/25
f 17/17/17 25/25/25 18/18/18
f 54/54/54 57/57/57 58/58/58
f 54/54/54 58/58/58 51/51/51
