o sponza_236
v -42.861 67.4124 21.8531
v -42.861 67.4124 23.0119
v -43.7835 67.4124 23.0119
v -43.7835 67.4124 21.8531
v -43.7835 68.7219 23.3531
v -42.861 68.7219 23.3531
v -42.861 68.7219 21.8531
v -43.7835 68.7219 21.8531
v -43.7835 67.6029 23.1286
v -42.861 67.6029 23.1286
v -43.7835 67.7063 23.3531
v -42.861 67.7063 23.3531
v -42.861 67.4124 21.8531
v -42.861 67.4124 23.0119
v -43.7835 67.4124 21.8531
v -43.7835 67.4124 23.0119
v -43.7835 68.7219 23.3531
v -43.7835 68.7219 23.3531
v -42.861 68.7219 23.3531
v -42.861 68.7219 23.3531
v -42.861 68.7219 21.8531
v -43.7835 68.7219 21.8531
v -43.7835 67.6029 23.1286
v -42.861 67.6029 23.1286
v -43.7835 67.7063 23.3531
v -42.861 67.7063 23.3531
vt 0.4143 0.7381
vt 0.4143 0.8072
vt 0.3593 0.8072
vt 0.3593 0.7381
vt 0.3593 0.8945
vt 0.4143 0.8945
vt 0.4143 0.9839
vt 0.3593 0.9839
vt 0.4915 0.9031
vt 0.4984 0.9145
vt 0.4224 0.9031
vt 0.4143 0.8205
vt 0.3593 0.8205
vt 0.4346 0.8164
vt 0.5037 0.8164
vt 0.4277 0.8278
vt 0.4224 0.9812
vt 0.5118 0.9812
vt 0.3593 0.8945
vt 0.3593 0.8339
vt 0.4143 0.8339
vt 0.4143 0.8945
vt 0.5037 0.8945
vt 0.4143 0.8945
vt 0.5118 0.9206
vt 0.4143 0.8339
vn 0 -1 0
vn 0 -0.8724 0.4887
vn 0 -0.8725 0.4887
vn 0 1 0
vn -1 0 0
vn 0 -0.7475 0.6642
vn 1 0 0
vn 0 0 1
vn 0 -0.5392 0.8422
f 13/1/1 14/2/2 16/3/3
f 13/1/1 16/3/3 15/4/1
f 17/5/4 19/6/4 21/7/4
f 17/5/4 21/7/4 22/8/4
f 3/9/5 23/10/5 4/11/5
f 24/12/6 9/13/6 16/3/3
f 24/12/6 16/3/3 14/2/2
f 2/14/7 1/15/7 10/16/7
f 8/17/5 4/11/5 23/10/5
f 8/17/5 23/10/5 18/18/5
f 5/19/8 25/20/9 26/21/9
f 5/19/8 26/21/9 20/22/8
f 10/16/7 1/15/7 7/23/7
f 10/16/7 7/23/7 6/24/7
f 18/18/5 23/10/5 11/25/5
f 24/12/6 26/21/9 25/20/9
f 24/12/6 25/20/9 9/13/6
f 10/16/7 6/24/7 12/26/7
