o sponza_382
v 138.06 -11.5979 -78.2521
v 138.06 -11.5979 67.4757
v -150.447 -11.5979 67.4757
v -150.447 -11.5979 -78.2521
v 138.06 127.104 67.4758
v -150.447 127.104 67.4758
v 138.06 127.104 -78.252
v -150.447 127.104 -78.252
v 138.06 -11.5979 -78.2521
v 138.06 -11.5979 -78.2521
v 138.06 -11.5979 67.4757
v 138.06 -11.5979 67.4757
v -150.447 -11.5979 67.4757
v -150.447 -11.5979 67.4757
v -150.447 -11.5979 -78.2521
v -150.447 -11.5979 -78.2521
v 138.06 127.104 67.4758
v -150.447 127.104 67.4758
v 138.06 127.104 -78.252
v -150.447 127.104 -78.252
vt -3.6432 0
vt -3.6432 -3.6432
vt -10.8559 -3.6432
vt -10.8559 0
vt -0 3.5588
vt 7.2127 3.5588
vt 7.2127 -0
vt -0 0
vt -0 0
vt -3.6432 0
vt -3.6432 3.5588
vt -0 3.5588
vt -3.6432 0
vt -10.8559 0
vt -10.8559 3.5588
vt -3.6432 3.5588
vt -14.4991 3.5588
vt -10.8559 3.5588
vt -10.8559 0
vt -14.4991 0
vn 0 -1 -0
vn 0 -0 1
vn 1 -0 -0
vn 0 0 -1
vn -1 -0 0
f 9/1/1 11/2/1 13/3/1
f 9/1/1 13/3/1 15/4/1
f 17/5/2 18/6/2 14/7/2
f 17/5/2 14/7/2 12/8/2
f 2/9/3 10/10/3 19/11/3
f 2/9/3 19/11/3 5/12/3
f 1/13/4 16/14/4 20/15/4
f 1/13/4 20/15/4 7/16/4
f 6/17/5 8/18/5 4/19/5
f 6/17/5 4/19/5 3/20/5
