o sponza_248
v 87.8511 67.3907 -5.42287
v 87.8511 67.3907 -5.30829
v 87.8511 67.458 -5.15866
v 87.8511 67.458 -5.59038
v 87.8511 67.7901 -5.72562
v 87.8511 67.7901 -4.86292
v 87.8511 67.9443 -4.95292
v 87.8511 67.9443 -5.68867
v 87.8511 68.0985 -5.12107
v 87.8511 68.0985 -5.55612
v 87.8511 67.5901 -5.07462
v 87.8511 67.6159 -5.70099
v 87.8511 66.9701 -4.74874
v 87.8511 67.1083 -4.50081
v 88.4466 67.9443 -5.68867
v 88.4466 67.7901 -5.72562
v 88.4466 68.0985 -5.55612
v 88.4466 67.458 -5.15866
v 88.4466 67.5901 -5.07462
v 88.4466 67.6159 -5.70099
v 88.4466 67.458 -5.59038
v 88.4466 66.9701 -4.74874
v 88.4466 67.1083 -4.50081
v 88.4466 67.3907 -5.42287
v 88.4466 67.3907 -5.30829
v 88.4466 67.9443 -4.95292
v 88.4466 67.7901 -4.86292
v 88.4466 68.0985 -5.12107
v 87.8511 67.3907 -5.42287
v 87.8511 67.3907 -5.30829
v 87.8511 67.458 -5.15866
v 87.8511 67.458 -5.59038
v 87.8511 67.7901 -5.72562
v 87.8511 67.9443 -5.68867
v 87.8511 68.0985 -5.55612
v 87.8511 67.6159 -5.70099
v 87.8511 67.5901 -5.07462
v 87.8511 67.5901 -5.07462
v 87.8511 66.9701 -4.74874
v 87.8511 66.9701 -4.74874
v 87.8511 67.1083 -4.50081
v 88.4466 67.9443 -5.68867
v 88.4466 67.7901 -5.72562
v 88.4466 68.0985 -5.55612
v 88.4466 67.458 -5.15866
v 88.4466 67.5901 -5.07462
v 88.4466 67.5901 -5.07462
v 88.4466 67.6159 -5.70099
v 88.4466 67.458 -5.59038
v 88.4466 66.9701 -4.74874
v 88.4466 66.9701 -4.74874
v 88.4466 67.1083 -4.50081
v 88.4466 67.3907 -5.42287
v 88.4466 67.3907 -5.30829
vt 0.1992 0.5029
vt 0.1937 0.4935
vt 0.1809 0.4846
vt 0.2019 0.5199
vt 0.1813 0.5471
vt 0.1394 0.4765
vt 0.1311 0.4913
vt 0.1669 0.5515
vt 0.1267 0.5126
vt 0.1478 0.5482
vt 0.166 0.4841
vt 0.1943 0.5366
vt 0.2009 0.4273
vt 0.1776 0.4138
vt 0.1179 0.2654
vt 0.0646 0.2653
vt 0.0645 0.2791
vt 0.1179 0.2792
vt 0.0646 0.2515
vt 0.118 0.2515
vt 0.0645 0.3476
vt 0.0645 0.3594
vt 0.1178 0.3595
vt 0.1178 0.3476
vt 0.1179 0.2948
vt 0.0645 0.2947
vt 0.0645 0.3089
vt 0.1179 0.3089
vt 0.1178 0.3595
vt 0.0645 0.3594
vt 0.0644 0.415
vt 0.1178 0.415
vt 0.1178 0.415
vt 0.0644 0.415
vt 0.0644 0.4372
vt 0.1177 0.4373
vt 0.1564 0.5656
vt 0.1415 0.5741
vt 0.1821 0.5684
vt 0.1671 0.564
vt 0.2079 0.6115
vt 0.2144 0.5958
vt 0.1331 0.6072
vt 0.1386 0.6212
vt 0.1941 0.6282
vt 0.1531 0.634
vt 0.1918 0.5797
vt 0.1331 0.5904
vt 0.2395 0.5268
vt 0.2143 0.517
vt 0.1179 0.3342
vt 0.1179 0.324
vt 0.0645 0.3239
vt 0.0645 0.3342
vn -1 0.0003 0
vn -1 0.0005 0.0002
vn -1 0 0
vn -1 0.0001 0
vn 0 0.4552 -0.8904
vn 0 0.0473 -0.9989
vn 0 0.6519 -0.7583
vn 0 0.6518 -0.7584
vn 0 -0.7561 0.6545
vn 0 -0.5368 0.8437
vn 0 -0.367 -0.9302
vn 0 -0.7832 -0.6217
vn 0 -0.4652 -0.8852
vn 0 -0.4653 -0.8852
vn 0 -0.8733 0.4871
vn 1 0 0
vn 1 -0.0001 0
vn 1 0.0001 0
vn 0.0002 -0.9778 0.2096
vn 0 -0.9818 -0.1899
vn 0 -0.9777 0.2098
f 29/1/1 30/2/2 31/3/3
f 29/1/1 31/3/3 32/4/3
f 33/5/3 6/6/3 7/7/4
f 33/5/3 7/7/4 34/8/3
f 34/8/3 7/7/4 9/9/3
f 34/8/3 9/9/3 35/10/3
f 37/11/3 6/6/3 33/5/3
f 37/11/3 33/5/3 36/12/3
f 32/4/3 31/3/3 37/11/3
f 32/4/3 37/11/3 36/12/3
f 37/11/3 39/13/3 41/14/3
f 37/11/3 41/14/3 6/6/3
f 8/15/5 42/16/5 43/17/6
f 8/15/5 43/17/6 5/18/6
f 44/19/7 42/16/5 8/15/5
f 44/19/7 8/15/5 10/20/8
f 45/21/9 46/22/10 38/23/10
f 45/21/9 38/23/10 3/24/9
f 12/25/11 48/26/11 49/27/12
f 12/25/11 49/27/12 4/28/12
f 11/29/13 47/30/14 50/31/13
f 11/29/13 50/31/13 40/32/13
f 13/33/15 51/34/15 52/35/15
f 13/33/15 52/35/15 14/36/15
f 53/37/16 21/38/17 18/39/16
f 53/37/16 18/39/16 54/40/16
f 26/41/16 27/42/16 16/43/16
f 26/41/16 16/43/16 15/44/16
f 28/45/18 26/41/16 15/44/16
f 28/45/18 15/44/16 17/46/16
f 16/43/16 27/42/16 19/47/16
f 16/43/16 19/47/16 20/48/16
f 21/38/17 20/48/16 19/47/16
f 21/38/17 19/47/16 18/39/16
f 19/47/16 27/42/16 23/49/16
f 19/47/16 23/49/16 22/50/16
f 2/51/19 1/52/20 24/53/20
f 2/51/19 24/53/20 25/54/21
f 1/52/20 4/28/12 49/27/12
f 1/52/20 49/27/12 24/53/20
f 43/17/6 48/26/11 12/25/11
f 43/17/6 12/25/11 5/18/6
f 25/54/21 45/21/9 3/24/9
f 25/54/21 3/24/9 2/51/19
