o sponza_257
v -0.82629 25.6731 56.8659
v -1.53207 26.0576 57.1497
v -1.53208 33.9745 57.1497
v -0.8263 34.8197 56.8659
v -0.82629 25.6731 56.8659
v -0.82629 25.6731 57.5506
v -11.9407 25.6731 57.5506
v -11.9407 25.6731 56.8659
v -11.9407 34.8197 57.5506
v -11.9407 34.8197 56.8659
v -11.9407 25.6731 56.8659
v -11.9407 25.6731 57.5506
v -0.8263 34.8197 57.5506
v -0.8263 34.8197 56.8659
v -11.9407 34.8197 56.8659
v -11.9407 34.8197 57.5506
v -0.82629 25.6731 57.5506
v -0.82629 25.6731 56.8659
v -0.8263 34.8197 56.8659
v -0.8263 34.8197 57.5506
v -11.1898 26.0575 57.1497
v -11.1898 33.9745 57.1497
v -11.9407 34.8197 56.8659
v -1.53207 26.0576 57.1497
v -0.82629 25.6731 56.8659
v -11.9407 25.6731 56.8659
v -11.1898 26.0575 57.1497
v -11.9407 25.6731 56.8659
vt 0.0684 0.1763
vt 0.0929 0.2085
vt 0.0929 0.8714
vt 0.0684 0.9037
vt 0.0684 0.1763
vt 0.0684 0.119
vt 0.937 0.119
vt 0.937 0.1763
vt 0.9943 0.9037
vt 0.937 0.9037
vt 0.937 0.1763
vt 0.9943 0.1763
vt 0.0684 0.961
vt 0.0684 0.9037
vt 0.937 0.9037
vt 0.937 0.961
vt 0.0111 0.1763
vt 0.0684 0.1763
vt 0.0684 0.9037
vt 0.0111 0.9037
vt 0.9015 0.2085
vt 0.9015 0.8714
vt 0.937 0.9037
vt 0.0929 0.2085
vt 0.0684 0.1763
vt 0.937 0.1763
vt 0.9015 0.2085
vt 0.937 0.1763
vn -0.3731 -0 -0.9278
vn -0.2146 -0 -0.9767
vn -0.1488 -0.1181 -0.9818
vn -0.1726 -0.1811 -0.9682
vn 0 -1 0
vn 0 -1 0
vn 0 -1 0
vn 0 -1 0
vn -1 0 0
vn -1 0 0
vn -1 0 0
vn -1 0 0
vn 0 1 0
vn 0 1 0
vn 0 1 0
vn 0 1 0
vn 1 0 0
vn 1 0 0
vn 1 0 0
vn 1 0 0
vn 0.202 0 -0.9794
vn 0.1391 -0.1194 -0.9831
vn 0.1696 -0.175 -0.9698
vn -0 0.5939 -0.8045
vn -0 0.5939 -0.8045
vn -0 0.5939 -0.8045
vn -0 0.5939 -0.8045
vn 0.3536 0 -0.9354
f 1/1/1 2/2/2 3/3/3
f 1/1/1 3/3/3 4/4/4
f 5/5/5 6/6/6 7/7/7
f 5/5/5 7/7/7 8/8/8
f 9/9/9 10/10/10 11/11/11
f 9/9/9 11/11/11 12/12/12
f 13/13/13 14/14/14 15/15/15
f 13/13/13 15/15/15 16/16/16
f 17/17/17 18/18/18 19/19/19
f 17/17/17 19/19/19 20/20/20
f 3/3/3 2/2/2 21/21/21
f 3/3/3 21/21/21 22/22/22
f 4/4/4 3/3/3 22/22/22
f 4/4/4 22/22/22 23/23/23
f 24/24/24 25/25/25 26/26/26
f 24/24/24 26/26/26 27/27/27
f 28/28/28 23/23/23 22/22/22
f 28/28/28 22/22/22 21/21/21
