o sponza_196
v 67.2888 67.4124 19.085
v 67.2888 67.4124 17.9262
v 68.2113 67.4124 17.9262
v 68.2113 67.4124 19.085
v 68.2113 68.7219 17.585
v 67.2888 68.7219 17.585
v 67.2888 68.7219 19.085
v 68.2113 68.7219 19.085
v 68.2113 67.6029 17.8095
v 67.2888 67.6029 17.8095
v 68.2113 67.7063 17.585
v 67.2888 67.7063 17.585
v 67.2888 67.4124 19.085
v 67.2888 67.4124 17.9262
v 68.2113 67.4124 19.085
v 68.2113 67.4124 17.9262
v 68.2113 68.7219 17.585
v 68.2113 68.7219 17.585
v 67.2888 68.7219 17.585
v 67.2888 68.7219 17.585
v 67.2888 68.7219 19.085
v 68.2113 68.7219 19.085
v 68.2113 67.6029 17.8095
v 67.2888 67.6029 17.8095
v 68.2113 67.7063 17.585
v 67.2888 67.7063 17.585
vt 0.4143 0.7381
vt 0.4143 0.8072
vt 0.3593 0.8072
vt 0.3593 0.7381
vt 0.3593 0.8945
vt 0.4143 0.8945
vt 0.4143 0.9839
vt 0.3593 0.9839
vt 0.4915 0.9031
vt 0.4984 0.9145
vt 0.4224 0.9031
vt 0.4143 0.8205
vt 0.3593 0.8205
vt 0.4346 0.8164
vt 0.5037 0.8164
vt 0.4277 0.8278
vt 0.4224 0.9812
vt 0.5118 0.9812
vt 0.3593 0.8945
vt 0.3593 0.8339
vt 0.4143 0.8339
vt 0.4143 0.8945
vt 0.5037 0.8945
vt 0.4143 0.8945
vt 0.5118 0.9206
vt 0.4143 0.8339
vn 0 -1 -0
vn 0 -0.8725 -0.4887
vn 0 1 0
vn 1 0 0
vn 0 -0.7475 -0.6642
vn 0 -0.7475 -0.6643
vn -1 0 0
vn 0 0 -1
vn 0 -0.5392 -0.8422
f 13/1/1 14/2/2 16/3/2
f 13/1/1 16/3/2 15/4/1
f 17/5/3 19/6/3 21/7/3
f 17/5/3 21/7/3 22/8/3
f 3/9/4 23/10/4 4/11/4
f 24/12/5 9/13/6 16/3/2
f 24/12/5 16/3/2 14/2/2
f 2/14/7 1/15/7 10/16/7
f 8/17/4 4/11/4 23/10/4
f 8/17/4 23/10/4 18/18/4
f 5/19/8 25/20/9 26/21/9
f 5/19/8 26/21/9 20/22/8
f 10/16/7 1/15/7 7/23/7
f 10/16/7 7/23/7 6/24/7
f 18/18/4 23/10/4 11/25/4
f 24/12/5 26/21/9 25/20/9
f 24/12/5 25/20/9 9/13/6
f 10/16/7 6/24/7 12/26/7
