o sponza_267
v 49.1964 83.1946 19.8304
v 49.1964 84.2342 15.9508
v 49.3091 84.205 15.943
v 49.3091 83.1655 19.8226
v 49.114 83.2743 19.8517
v 49.114 84.3138 15.9721
v 49.0838 83.383 19.8809
v 49.0838 84.4226 16.0013
v 49.114 83.4918 19.91
v 49.114 84.5313 16.0304
v 49.0838 84.4226 16.0013
v 49.0838 83.383 19.8809
v 49.1964 83.5714 19.9313
v 49.1964 84.611 16.0517
v 49.3091 83.6006 19.9391
v 49.3091 84.6401 16.0595
v 49.1964 84.611 16.0517
v 49.1964 83.5714 19.9313
v 49.4217 83.5714 19.9313
v 49.4217 84.611 16.0517
v 49.5041 83.4918 19.91
v 49.5041 84.5313 16.0304
v 49.5343 83.383 19.8809
v 49.5343 84.4226 16.0013
v 49.5041 83.2743 19.8517
v 49.5041 84.3138 15.9721
v 49.4217 83.1946 19.8304
v 49.4217 84.2342 15.9508
v 49.5041 83.2743 19.8517
v 49.3091 83.1655 19.8226
v 49.3091 84.205 15.943
v 49.4217 83.1946 19.8304
v 49.1964 84.2342 15.9508
v 49.1964 85.2737 12.0712
v 49.3091 85.2446 12.0634
v 49.3091 84.205 15.943
v 49.114 84.3138 15.9721
v 49.114 85.3533 12.0925
v 49.1964 85.2737 12.0712
v 49.0838 84.4226 16.0013
v 49.0838 85.4621 12.1217
v 49.114 84.5313 16.0304
v 49.114 85.5709 12.1508
v 49.0838 85.4621 12.1217
v 49.0838 84.4226 16.0013
v 49.1964 84.611 16.0517
v 49.1964 85.6505 12.1721
v 49.3091 84.6401 16.0595
v 49.3091 85.6797 12.1799
v 49.1964 85.6505 12.1721
v 49.1964 84.611 16.0517
v 49.4217 84.611 16.0517
v 49.4217 85.6505 12.1721
v 49.3091 85.6797 12.1799
v 49.5041 84.5313 16.0304
v 49.5041 85.5709 12.1508
v 49.5343 84.4226 16.0013
v 49.5343 85.4621 12.1217
v 49.5041 84.3138 15.9721
v 49.5041 85.3533 12.0925
v 49.4217 84.2342 15.9508
v 49.4217 85.2737 12.0712
v 49.3091 84.205 15.943
v 49.3091 85.2446 12.0634
v 49.1964 85.2737 12.0712
v 49.1964 86.3132 8.19156
v 49.3091 86.2841 8.18375
v 49.3091 85.2446 12.0634
v 49.114 85.3533 12.0925
v 49.114 86.3929 8.2129
v 49.1964 86.3132 8.19156
v 49.1964 85.2737 12.0712
v 49.0838 85.4621 12.1217
v 49.0838 86.5016 8.24204
v 49.114 85.5709 12.1508
v 49.114 86.6104 8.27119
v 49.0838 86.5016 8.24204
v 49.0838 85.4621 12.1217
v 49.1964 85.6505 12.1721
v 49.1964 86.6901 8.29253
v 49.3091 85.6797 12.1799
v 49.3091 86.7192 8.30034
v 49.1964 86.6901 8.29253
v 49.1964 85.6505 12.1721
v 49.4217 85.6505 12.1721
v 49.4217 86.6901 8.29253
v 49.3091 85.6797 12.1799
v 49.5041 85.5709 12.1508
v 49.5041 86.6104 8.27119
v 49.5343 85.4621 12.1217
v 49.5343 86.5016 8.24204
v 49.5041 85.3533 12.0925
v 49.5041 86.3929 8.2129
v 49.4217 85.2737 12.0712
v 49.4217 86.3132 8.19156
v 49.3091 85.2446 12.0634
v 49.3091 86.2841 8.18375
v 49.4217 86.3132 8.19156
v 49.2563 88.4356 0.787711
v 49.3091 88.4062 0.779831
v 49.2786 88.4141 0.781941
v 49.2563 88.4944 0.803481
v 49.2786 88.516 0.809261
v 49.3091 88.5239 0.811371
v 49.3395 88.516 0.809261
v 49.3618 88.4944 0.803481
v 49.3618 88.4356 0.787711
v 49.37 88.465 0.795601
v 49.2481 88.465 0.795601
v 49.3395 88.4141 0.781941
v 49.1964 87.5882 3.43331
v 49.1545 87.6052 3.08872
v 49.3091 87.5652 3.078
v 49.3091 87.5591 3.4255
v 49.114 87.6678 3.45465
v 49.0413 87.7146 3.11801
v 49.0838 87.7766 3.48379
v 48.9999 87.8639 3.15803
v 49.114 87.8854 3.51294
v 49.0413 88.0132 3.19804
v 49.1964 87.965 3.53427
v 49.1545 88.1226 3.22733
v 49.3091 87.9942 3.54209
v 49.3091 88.1626 3.23806
v 49.4217 87.965 3.53427
v 49.4637 88.1226 3.22733
v 49.5041 87.8854 3.51294
v 49.5768 88.0132 3.19804
v 49.5343 87.7766 3.48379
v 49.6183 87.8639 3.15803
v 49.5041 87.6678 3.45465
v 49.5768 87.7146 3.11801
v 49.4217 87.5882 3.43331
v 49.4637 87.6052 3.08872
v 49.3091 87.5591 3.4255
v 49.3091 87.5652 3.078
v 49.1158 87.8025 2.0941
v 49.1442 88.0196 1.41425
v 49.3091 87.9769 1.40281
v 49.3091 87.7525 2.0807
v 48.9744 87.9391 2.13071
v 49.0235 88.1361 1.44549
v 48.9226 88.1258 2.18073
v 48.9793 88.2954 1.48816
v 48.9744 88.3124 2.23074
v 49.0235 88.4547 1.53084
v 49.1158 88.4491 2.26735
v 49.1442 88.5712 1.56208
v 49.3091 88.4991 2.28075
v 49.3091 88.6139 1.57351
v 49.5023 88.4491 2.26735
v 49.4739 88.5712 1.56207
v 49.6438 88.3124 2.23074
v 49.5946 88.4547 1.53084
v 49.6955 88.1258 2.18072
v 49.6388 88.2954 1.48817
v 49.6438 87.9391 2.13071
v 49.5946 88.1361 1.44549
v 49.5023 87.8025 2.0941
v 49.4739 88.0196 1.41425
v 49.3091 87.7525 2.0807
v 49.3091 87.9769 1.40281
v 49.2786 88.4141 0.781941
v 49.3091 88.4062 0.779831
v 49.2563 88.4356 0.787711
v 49.2481 88.465 0.795601
v 49.2563 88.4944 0.803481
v 49.2786 88.516 0.809261
v 49.3091 88.5239 0.811371
v 49.3395 88.516 0.809261
v 49.3618 88.4944 0.803481
v 49.37 88.465 0.795601
v 49.3618 88.4356 0.787711
v 49.3395 88.4141 0.781941
v 49.3091 88.4062 0.779831
v 49.1561 87.6953 2.7637
v 49.3091 87.6558 2.7531
v 49.0442 87.8035 2.79268
v 49.0032 87.9512 2.83226
v 49.0442 88.0989 2.87184
v 49.1561 88.2071 2.90081
v 49.3091 88.2466 2.91142
v 49.462 88.2071 2.90081
v 49.5739 88.0989 2.87184
v 49.6149 87.9512 2.83226
v 49.5739 87.8035 2.79268
v 49.462 87.6953 2.7637
v 49.3091 87.6558 2.7531
v 49.1964 86.3132 8.19156
v 49.3091 86.2841 8.18375
v 49.114 86.3929 8.2129
v 49.1964 86.3132 8.19156
v 49.0838 86.5016 8.24204
v 49.114 86.6104 8.27119
v 49.0838 86.5016 8.24204
v 49.1964 86.6901 8.29253
v 49.3091 86.7192 8.30034
v 49.1964 86.6901 8.29253
v 49.4217 86.6901 8.29253
v 49.5041 86.6104 8.27119
v 49.5343 86.5016 8.24204
v 49.5041 86.3929 8.2129
v 49.4217 86.3132 8.19156
v 49.3091 86.2841 8.18375
v 49.4217 86.3132 8.19156
vt 0.9633 0.0053
vt 0.9633 0.5241
vt 0.9876 0.5241
vt 0.9876 0.0053
vt 0.9391 0.0053
vt 0.9391 0.5241
vt 0.9148 0.0053
vt 0.9148 0.5241
vt 0.8906 0.0053
vt 0.8906 0.5241
vt 0.9148 0.5241
vt 0.9148 0.0053
vt 0.8663 0.0053
vt 0.8663 0.5241
vt 0.8421 0.0053
vt 0.8421 0.5241
vt 0.8663 0.5241
vt 0.8663 0.0053
vt 0.8178 0.0053
vt 0.8178 0.5241
vt 0.7936 0.0053
vt 0.7936 0.5241
vt 0.7694 0.0053
vt 0.7694 0.5241
vt 0.7451 0.0053
vt 0.7451 0.5241
vt 0.7209 0.0053
vt 0.7209 0.5241
vt 0.7451 0.0053
vt 0.6966 0.0053
vt 0.6966 0.5241
vt 0.7209 0.0053
vt 0.9633 0.0053
vt 0.9633 0.5241
vt 0.9876 0.5241
vt 0.9876 0.0053
vt 0.9391 0.0053
vt 0.9391 0.5241
vt 0.9633 0.5241
vt 0.9148 0.0053
vt 0.9148 0.5241
vt 0.8906 0.0053
vt 0.8906 0.5241
vt 0.9148 0.5241
vt 0.9148 0.0053
vt 0.8663 0.0053
vt 0.8663 0.5241
vt 0.8421 0.0053
vt 0.8421 0.5241
vt 0.8663 0.5241
vt 0.8663 0.0053
vt 0.8178 0.0053
vt 0.8178 0.5241
vt 0.8421 0.5241
vt 0.7936 0.0053
vt 0.7936 0.5241
vt 0.7694 0.0053
vt 0.7694 0.5241
vt 0.7451 0.0053
vt 0.7451 0.5241
vt 0.7209 0.0053
vt 0.7209 0.5241
vt 0.6966 0.0053
vt 0.6966 0.5241
vt 0.9633 0.0053
vt 0.9633 0.5241
vt 0.9876 0.5241
vt 0.9876 0.0053
vt 0.9391 0.0053
vt 0.9391 0.5241
vt 0.9633 0.5241
vt 0.9633 0.0053
vt 0.9148 0.0053
vt 0.9148 0.5241
vt 0.8906 0.0053
vt 0.8906 0.5241
vt 0.9148 0.5241
vt 0.9148 0.0053
vt 0.8663 0.0053
vt 0.8663 0.5241
vt 0.8421 0.0053
vt 0.8421 0.5241
vt 0.8663 0.5241
vt 0.8663 0.0053
vt 0.8178 0.0053
vt 0.8178 0.5241
vt 0.8421 0.0053
vt 0.7936 0.0053
vt 0.7936 0.5241
vt 0.7694 0.0053
vt 0.7694 0.5241
vt 0.7451 0.0053
vt 0.7451 0.5241
vt 0.7209 0.0053
vt 0.7209 0.5241
vt 0.6966 0.0053
vt 0.6966 0.5241
vt 0.7209 0.5241
vt 0.9918 0.0129
vt 0.9918 0.0129
vt 0.9918 0.0129
vt 0.9918 0.0129
vt 0.9918 0.0129
vt 0.9918 0.0129
vt 0.9918 0.0129
vt 0.9918 0.0129
vt 0.9918 0.0129
vt 0.9918 0.0129
vt 0.9918 0.0129
vt 0.9918 0.0129
vt 0.9633 0.6416
vt 0.9633 0.6851
vt 0.9876 0.6851
vt 0.9876 0.6416
vt 0.9391 0.6416
vt 0.9391 0.6851
vt 0.9148 0.6416
vt 0.9148 0.6851
vt 0.8906 0.6416
vt 0.8906 0.6851
vt 0.8663 0.6416
vt 0.8663 0.6851
vt 0.8421 0.6416
vt 0.8421 0.6851
vt 0.8178 0.6416
vt 0.8178 0.6851
vt 0.7936 0.6416
vt 0.7936 0.6851
vt 0.7694 0.6416
vt 0.7694 0.6851
vt 0.7451 0.6416
vt 0.7451 0.6851
vt 0.7209 0.6416
vt 0.7209 0.6851
vt 0.6966 0.6416
vt 0.6966 0.6851
vt 0.9633 0.8158
vt 0.9633 0.9029
vt 0.9876 0.9029
vt 0.9876 0.8158
vt 0.9391 0.8158
vt 0.9391 0.9029
vt 0.9148 0.8158
vt 0.9148 0.9029
vt 0.8906 0.8158
vt 0.8906 0.9029
vt 0.8663 0.8158
vt 0.8663 0.9029
vt 0.8421 0.8158
vt 0.8421 0.9029
vt 0.8178 0.8158
vt 0.8178 0.9029
vt 0.7936 0.8158
vt 0.7936 0.9029
vt 0.7694 0.8158
vt 0.7694 0.9029
vt 0.7451 0.8158
vt 0.7451 0.9029
vt 0.7209 0.8158
vt 0.7209 0.9029
vt 0.6966 0.8158
vt 0.6966 0.9029
vt 0.9633 0.99
vt 0.9876 0.99
vt 0.9391 0.99
vt 0.9148 0.99
vt 0.8906 0.99
vt 0.8663 0.99
vt 0.8421 0.99
vt 0.8178 0.99
vt 0.7936 0.99
vt 0.7694 0.99
vt 0.7451 0.99
vt 0.7209 0.99
vt 0.6966 0.99
vt 0.9633 0.7287
vt 0.9876 0.7287
vt 0.9391 0.7287
vt 0.9148 0.7287
vt 0.8906 0.7287
vt 0.8663 0.7287
vt 0.8421 0.7287
vt 0.8178 0.7287
vt 0.7936 0.7287
vt 0.7694 0.7287
vt 0.7451 0.7287
vt 0.7209 0.7287
vt 0.6966 0.7287
vt 0.9633 0.0053
vt 0.9876 0.0053
vt 0.9391 0.0053
vt 0.9633 0.0053
vt 0.9148 0.0053
vt 0.8906 0.0053
vt 0.9148 0.0053
vt 0.8663 0.0053
vt 0.8421 0.0053
vt 0.8663 0.0053
vt 0.8178 0.0053
vt 0.7936 0.0053
vt 0.7694 0.0053
vt 0.7451 0.0053
vt 0.7209 0.0053
vt 0.6966 0.0053
vt 0.7209 0.0053
vn -0.5 -0.8365 -0.2241
vn -0.5001 -0.8365 -0.2241
vn -0.2588 -0.933 -0.25
vn -0.2588 -0.933 -0.25
vn -0.866 -0.483 -0.1294
vn -0.866 -0.4829 -0.1294
vn -0.9659 -0.25 -0.067
vn -0.9659 -0.2501 -0.067
vn -0.866 0.483 0.1294
vn -0.8661 0.4829 0.1294
vn -0.9659 0.25 0.067
vn -0.9659 0.2501 0.067
vn -0.7071 0.683 0.183
vn -0.7072 0.6829 0.183
vn 0 0.9659 0.2588
vn 0 0.9659 0.2588
vn -0.2588 0.933 0.25
vn -0.2588 0.933 0.25
vn 0.5 0.8365 0.2241
vn 0.5 0.8365 0.2241
vn 0.866 0.483 0.1294
vn 0.866 0.4829 0.1294
vn 1 -0 -0
vn 1 -0 -0
vn 0.9659 -0.25 -0.067
vn 0.866 -0.483 -0.1294
vn 0.7071 -0.6831 -0.183
vn 0.5 -0.8365 -0.2241
vn 0.7071 -0.6831 -0.183
vn 0.2588 -0.933 -0.25
vn 0.2589 -0.933 -0.25
vn 0.2588 -0.933 -0.25
vn -0.5001 -0.8365 -0.2241
vn -0.2588 -0.933 -0.25
vn 0 -0.9659 -0.2588
vn -0.2588 -0.933 -0.25
vn -0.866 -0.4829 -0.1294
vn -0.866 -0.483 -0.1294
vn -0.7071 -0.683 -0.183
vn -0.9659 -0.2501 -0.067
vn -0.9659 -0.25 -0.067
vn -0.8661 0.4829 0.1294
vn -0.866 0.483 0.1294
vn -0.9659 0.2501 0.067
vn -0.9659 0.25 0.067
vn -0.7072 0.6829 0.183
vn -0.7071 0.683 0.183
vn 0 0.9659 0.2588
vn -0.2588 0.933 0.25
vn -0.2588 0.933 0.25
vn -0.2588 0.933 0.25
vn 0.5 0.8365 0.2241
vn 0.5 0.8365 0.2241
vn 0.2589 0.933 0.25
vn 0.866 0.4829 0.1294
vn 0.866 0.483 0.1294
vn 1 -0 -0
vn 1 -0 -0
vn 0.866 -0.483 -0.1294
vn 0.866 -0.483 -0.1294
vn 0.5 -0.8365 -0.2241
vn 0.5 -0.8365 -0.2242
vn 0.2589 -0.933 -0.25
vn 0 -0.9659 -0.2588
vn -0.2588 -0.933 -0.25
vn -0.2587 -0.933 -0.25
vn 0 -0.9659 -0.2588
vn 0 -0.9659 -0.2588
vn -0.866 -0.483 -0.1294
vn -0.866 -0.4829 -0.1294
vn -0.7072 -0.6829 -0.183
vn -0.7071 -0.683 -0.183
vn -0.9659 -0.25 -0.067
vn -0.9659 -0.2501 -0.067
vn -0.866 0.483 0.1294
vn -0.866 0.4829 0.1294
vn -0.9659 0.2501 0.067
vn -0.9659 0.2501 0.067
vn -0.7071 0.683 0.183
vn -0.7072 0.6829 0.183
vn -0.2588 0.933 0.25
vn 0 0.9659 0.2588
vn -0.2588 0.933 0.25
vn -0.2588 0.933 0.25
vn 0.5 0.8365 0.2241
vn 0.5 0.8365 0.2241
vn 0.2589 0.933 0.25
vn 0.866 0.483 0.1294
vn 0.866 0.4829 0.1294
vn 1 -0 -0
vn 1 -0 -0
vn 0.866 -0.483 -0.1294
vn 0.866 -0.483 -0.1294
vn 0.5 -0.8365 -0.2242
vn 0.7072 -0.683 -0.183
vn 0 -0.9659 -0.2588
vn 0 -0.9659 -0.2588
vn 0.2588 -0.933 -0.25
vn -0 0.2588 -0.9659
vn -0 0.2587 -0.966
vn 0 0.2586 -0.966
vn -0 0.2589 -0.9659
vn -0.0003 0.2594 -0.9658
vn 0 0.259 -0.9659
vn 0.0003 0.2594 -0.9658
vn -0 0.2589 -0.9659
vn -0 0.2588 -0.9659
vn 0.0005 0.2588 -0.9659
vn -0.0005 0.2586 -0.966
vn 0 0.2586 -0.966
vn -0.4961 -0.8622 -0.1024
vn -0.4967 -0.8607 -0.1121
vn 0 -0.9892 -0.1466
vn 0 -0.9906 -0.1368
vn -0.8593 -0.5114 -0.0084
vn -0.8603 -0.5094 -0.018
vn -0.9923 -0.0322 0.12
vn -0.9934 -0.0296 0.1105
vn -0.8593 0.447 0.2484
vn -0.8603 0.4502 0.2391
vn -0.4962 0.7979 0.3424
vn -0.4967 0.8014 0.3332
vn 0 0.9263 0.3768
vn 0 0.93 0.3677
vn 0.4961 0.7979 0.3424
vn 0.4967 0.8014 0.3332
vn 0.8593 0.4471 0.2484
vn 0.8603 0.4502 0.2391
vn 0.9923 -0.0322 0.12
vn 0.9934 -0.0296 0.1105
vn 0.8593 -0.5114 -0.0084
vn 0.8603 -0.5094 -0.018
vn 0.4961 -0.8622 -0.1024
vn 0.4967 -0.8606 -0.1122
vn 0 -0.9906 -0.1368
vn 0 -0.9892 -0.1466
vn -0.5005 -0.8432 -0.1963
vn -0.49 -0.7694 -0.4097
vn 0 -0.8974 -0.4413
vn 0 -0.9733 -0.2296
vn -0.8665 -0.488 -0.1051
vn -0.8476 -0.4205 -0.3236
vn -0.9998 -0.0033 0.0192
vn -0.977 0.0548 -0.2063
vn -0.8652 0.4805 0.1434
vn -0.8444 0.5282 -0.0894
vn -0.4992 0.8342 0.2342
vn -0.4868 0.8735 -0.0042
vn 0 0.9636 0.2674
vn 0 0.9996 0.027
vn 0.4992 0.8342 0.2342
vn 0.4868 0.8735 -0.0042
vn 0.8652 0.4805 0.1434
vn 0.8444 0.5282 -0.0894
vn 0.9998 -0.0034 0.0192
vn 0.977 0.0548 -0.2063
vn 0.8665 -0.488 -0.1051
vn 0.8476 -0.4204 -0.3236
vn 0.5005 -0.8432 -0.1963
vn 0.49 -0.7694 -0.4097
vn 0 -0.9733 -0.2296
vn 0 -0.8974 -0.4413
vn -0.4691 -0.7011 -0.5371
vn 0 -0.8234 -0.5674
vn -0.8117 -0.367 -0.4543
vn -0.9357 0.0879 -0.3417
vn -0.8089 0.5414 -0.2293
vn -0.4664 0.8722 -0.1473
vn 0 0.9931 -0.1173
vn 0.4665 0.8722 -0.1474
vn 0.8089 0.5414 -0.2293
vn 0.9357 0.088 -0.3416
vn 0.8117 -0.3671 -0.4543
vn 0.4692 -0.701 -0.5371
vn 0 -0.8234 -0.5674
vn -0.4992 -0.8495 -0.1706
vn 0 -0.9787 -0.2052
vn -0.8647 -0.4965 -0.076
vn -0.9985 -0.0142 0.0532
vn -0.8647 0.468 0.1824
vn -0.4992 0.821 0.277
vn 0 0.9502 0.3116
vn 0.4992 0.821 0.277
vn 0.8647 0.468 0.1824
vn 0.9985 -0.0143 0.0532
vn 0.8647 -0.4965 -0.076
vn 0.4992 -0.8495 -0.1706
vn 0 -0.9787 -0.2052
vn -0.2587 -0.933 -0.25
vn 0 -0.9659 -0.2588
vn -0.866 -0.4829 -0.1294
vn -0.7072 -0.6829 -0.183
vn -0.9659 -0.2501 -0.067
vn -0.866 0.4829 0.1294
vn -0.9659 0.2501 0.067
vn -0.7072 0.6829 0.183
vn 0 0.9659 0.2588
vn -0.2588 0.933 0.25
vn 0.5 0.8365 0.2241
vn 0.866 0.4829 0.1294
vn 1 -0 -0
vn 0.866 -0.483 -0.1294
vn 0.7072 -0.683 -0.183
vn 0 -0.9659 -0.2588
vn 0.2588 -0.933 -0.25
f 1/1/1 2/2/2 3/3/3
f 1/1/1 3/3/3 4/4/4
f 2/2/2 1/1/1 5/5/5
f 2/2/2 5/5/5 6/6/6
f 7/7/7 8/8/8 6/6/6
f 7/7/7 6/6/6 5/5/5
f 9/9/9 10/10/10 11/11/11
f 9/9/9 11/11/11 12/12/12
f 13/13/13 14/14/14 10/10/10
f 13/13/13 10/10/10 9/9/9
f 15/15/15 16/16/16 17/17/17
f 15/15/15 17/17/17 18/18/18
f 19/19/19 20/20/20 16/16/16
f 19/19/19 16/16/16 15/15/15
f 21/21/21 22/22/22 20/20/20
f 21/21/21 20/20/20 19/19/19
f 23/23/23 24/24/24 22/22/22
f 23/23/23 22/22/22 21/21/21
f 25/25/25 26/26/26 24/24/24
f 25/25/25 24/24/24 23/23/23
f 27/27/27 28/28/28 26/26/26
f 27/27/27 26/26/26 29/29/29
f 30/30/30 31/31/31 28/28/28
f 30/30/30 28/28/28 32/32/32
f 33/33/33 34/34/34 35/35/35
f 33/33/33 35/35/35 36/36/36
f 37/37/37 38/38/38 39/39/39
f 37/37/37 39/39/39 33/33/33
f 40/40/40 41/41/41 38/38/38
f 40/40/40 38/38/38 37/37/37
f 42/42/42 43/43/43 44/44/44
f 42/42/42 44/44/44 45/45/45
f 46/46/46 47/47/47 43/43/43
f 46/46/46 43/43/43 42/42/42
f 48/48/48 49/49/49 50/50/50
f 48/48/48 50/50/50 51/51/51
f 52/52/52 53/53/53 54/54/54
f 52/52/52 54/54/54 48/48/48
f 55/55/55 56/56/56 53/53/53
f 55/55/55 53/53/53 52/52/52
f 57/57/57 58/58/58 56/56/56
f 57/57/57 56/56/56 55/55/55
f 59/59/59 60/60/60 58/58/58
f 59/59/59 58/58/58 57/57/57
f 61/61/61 62/62/62 60/60/60
f 61/61/61 60/60/60 59/59/59
f 63/63/63 64/64/64 62/62/62
f 63/63/63 62/62/62 61/61/61
f 65/65/65 66/66/66 67/67/67
f 65/65/65 67/67/67 68/68/68
f 69/69/69 70/70/70 71/71/71
f 69/69/69 71/71/71 72/72/72
f 73/73/73 74/74/74 70/70/70
f 73/73/73 70/70/70 69/69/69
f 75/75/75 76/76/76 77/77/77
f 75/75/75 77/77/77 78/78/78
f 79/79/79 80/80/80 76/76/76
f 79/79/79 76/76/76 75/75/75
f 81/81/81 82/82/82 83/83/83
f 81/81/81 83/83/83 84/84/84
f 85/85/85 86/86/86 82/82/82
f 85/85/85 82/82/82 87/87/87
f 88/88/88 89/89/89 86/86/86
f 88/88/88 86/86/86 85/85/85
f 90/90/90 91/91/91 89/89/89
f 90/90/90 89/89/89 88/88/88
f 92/92/92 93/93/93 91/91/91
f 92/92/92 91/91/91 90/90/90
f 94/94/94 95/95/95 93/93/93
f 94/94/94 93/93/93 92/92/92
f 96/96/96 97/97/97 98/98/98
f 96/96/96 98/98/98 94/94/94
f 99/99/99 100/100/100 101/101/101
f 102/102/102 103/103/103 104/104/104
f 102/102/102 104/104/104 99/99/99
f 104/104/104 105/105/105 106/106/106
f 104/104/104 106/106/106 107/107/107
f 106/106/106 108/108/108 107/107/107
f 107/107/107 100/100/100 99/99/99
f 107/107/107 99/99/99 104/104/104
f 109/109/109 102/102/102 99/99/99
f 110/110/110 100/100/100 107/107/107
f 111/111/111 112/112/112 113/113/113
f 111/111/111 113/113/113 114/114/114
f 115/115/115 116/116/116 112/112/112
f 115/115/115 112/112/112 111/111/111
f 117/117/117 118/118/118 116/116/116
f 117/117/117 116/116/116 115/115/115
f 119/119/119 120/120/120 118/118/118
f 119/119/119 118/118/118 117/117/117
f 121/121/121 122/122/122 120/120/120
f 121/121/121 120/120/120 119/119/119
f 123/123/123 124/124/124 122/122/122
f 123/123/123 122/122/122 121/121/121
f 125/125/125 126/126/126 124/124/124
f 125/125/125 124/124/124 123/123/123
f 127/127/127 128/128/128 126/126/126
f 127/127/127 126/126/126 125/125/125
f 129/129/129 130/130/130 128/128/128
f 129/129/129 128/128/128 127/127/127
f 131/131/131 132/132/132 130/130/130
f 131/131/131 130/130/130 129/129/129
f 133/133/133 134/134/134 132/132/132
f 133/133/133 132/132/132 131/131/131
f 135/135/135 136/136/136 134/134/134
f 135/135/135 134/134/134 133/133/133
f 137/137/137 138/138/138 139/139/139
f 137/137/137 139/139/139 140/140/140
f 137/137/137 141/141/141 142/142/142
f 137/137/137 142/142/142 138/138/138
f 141/141/141 143/143/143 144/144/144
f 141/141/141 144/144/144 142/142/142
f 143/143/143 145/145/145 146/146/146
f 143/143/143 146/146/146 144/144/144
f 145/145/145 147/147/147 148/148/148
f 145/145/145 148/148/148 146/146/146
f 149/149/149 150/150/150 148/148/148
f 149/149/149 148/148/148 147/147/147
f 151/151/151 152/152/152 150/150/150
f 151/151/151 150/150/150 149/149/149
f 153/153/153 154/154/154 152/152/152
f 153/153/153 152/152/152 151/151/151
f 155/155/155 156/156/156 154/154/154
f 155/155/155 154/154/154 153/153/153
f 157/157/157 158/158/158 156/156/156
f 157/157/157 156/156/156 155/155/155
f 159/159/159 160/160/160 158/158/158
f 159/159/159 158/158/158 157/157/157
f 161/161/161 162/162/162 160/160/160
f 161/161/161 160/160/160 159/159/159
f 138/138/138 163/163/163 164/164/164
f 138/138/138 164/164/164 139/139/139
f 142/142/142 165/165/165 163/163/163
f 142/142/142 163/163/163 138/138/138
f 142/142/142 144/144/144 166/166/166
f 142/142/142 166/166/166 165/165/165
f 144/144/144 146/146/146 167/167/167
f 144/144/144 167/167/167 166/166/166
f 148/148/148 168/168/168 167/167/167
f 148/148/148 167/167/167 146/146/146
f 150/150/150 169/169/169 168/168/168
f 150/150/150 168/168/168 148/148/148
f 152/152/152 170/170/170 169/169/169
f 152/152/152 169/169/169 150/150/150
f 154/154/154 171/171/171 170/170/170
f 154/154/154 170/170/170 152/152/152
f 156/156/156 172/172/172 171/171/171
f 156/156/156 171/171/171 154/154/154
f 158/158/158 173/173/173 172/172/172
f 158/158/158 172/172/172 156/156/156
f 160/160/160 174/174/174 173/173/173
f 160/160/160 173/173/173 158/158/158
f 162/162/162 175/175/175 174/174/174
f 162/162/162 174/174/174 160/160/160
f 176/176/176 137/137/137 140/140/140
f 176/176/176 140/140/140 177/177/177
f 178/178/178 141/141/141 137/137/137
f 178/178/178 137/137/137 176/176/176
f 179/179/179 143/143/143 141/141/141
f 179/179/179 141/141/141 178/178/178
f 180/180/180 145/145/145 143/143/143
f 180/180/180 143/143/143 179/179/179
f 181/181/181 147/147/147 145/145/145
f 181/181/181 145/145/145 180/180/180
f 182/182/182 149/149/149 147/147/147
f 182/182/182 147/147/147 181/181/181
f 183/183/183 151/151/151 149/149/149
f 183/183/183 149/149/149 182/182/182
f 184/184/184 153/153/153 151/151/151
f 184/184/184 151/151/151 183/183/183
f 185/185/185 155/155/155 153/153/153
f 185/185/185 153/153/153 184/184/184
f 186/186/186 157/157/157 155/155/155
f 186/186/186 155/155/155 185/185/185
f 187/187/187 159/159/159 157/157/157
f 187/187/187 157/157/157 186/186/186
f 188/188/188 161/161/161 159/159/159
f 188/188/188 159/159/159 187/187/187
f 112/112/112 176/176/176 177/177/177
f 112/112/112 177/177/177 113/113/113
f 116/116/116 178/178/178 176/176/176
f 116/116/116 176/176/176 112/112/112
f 118/118/118 179/179/179 178/178/178
f 118/118/118 178/178/178 116/116/116
f 120/120/120 180/180/180 179/179/179
f 120/120/120 179/179/179 118/118/118
f 122/122/122 181/181/181 180/180/180
f 122/122/122 180/180/180 120/120/120
f 124/124/124 182/182/182 181/181/181
f 124/124/124 181/181/181 122/122/122
f 126/126/126 183/183/183 182/182/182
f 126/126/126 182/182/182 124/124/124
f 128/128/128 184/184/184 183/183/183
f 128/128/128 183/183/183 126/126/126
f 130/130/130 185/185/185 184/184/184
f 130/130/130 184/184/184 128/128/128
f 132/132/132 186/186/186 185/185/185
f 132/132/132 185/185/185 130/130/130
f 134/134/134 187/187/187 186/186/186
f 134/134/134 186/186/186 132/132/132
f 136/136/136 188/188/188 187/187/187
f 136/136/136 187/187/187 134/134/134
f 189/189/189 111/111/111 114/114/114
f 189/189/189 114/114/114 190/190/190
f 191/191/191 115/115/115 111/111/111
f 191/191/191 111/111/111 192/192/192
f 193/193/193 117/117/117 115/115/115
f 193/193/193 115/115/115 191/191/191
f 194/194/194 119/119/119 117/117/117
f 194/194/194 117/117/117 195/195/195
f 196/196/196 121/121/121 119/119/119
f 196/196/196 119/119/119 194/194/194
f 197/197/197 123/123/123 121/121/121
f 197/197/197 121/121/121 198/198/198
f 199/199/199 125/125/125 123/123/123
f 199/199/199 123/123/123 197/197/197
f 200/200/200 127/127/127 125/125/125
f 200/200/200 125/125/125 199/199/199
f 201/201/201 129/129/129 127/127/127
f 201/201/201 127/127/127 200/200/200
f 202/202/202 131/131/131 129/129/129
f 202/202/202 129/129/129 201/201/201
f 203/203/203 133/133/133 131/131/131
f 203/203/203 131/131/131 202/202/202
f 204/204/204 135/135/135 133/133/133
f 204/204/204 133/133/133 205/205/205
