o sponza_110
v 51.5761 18.2653 -64.1441
v 47.0271 18.2653 -64.1441
v 47.0271 18.2653 -64.6968
v 51.5761 18.2653 -64.6968
v 51.5154 18.2653 -64.0695
v 47.0879 18.2653 -64.0695
v 51.6225 18.6522 -64.0858
v 51.6225 18.6522 -64.6968
v 51.6857 19.2986 -64.6968
v 51.6857 19.2986 -64.0036
v 51.5629 18.6522 -64.0126
v 51.6298 19.2986 -63.935
v 46.9735 19.2986 -63.935
v 47.0404 18.6522 -64.0126
v 52.1104 21.3249 -63.3397
v 46.4929 21.3249 -63.3397
v 46.49 20.8886 -63.3397
v 52.1133 20.8886 -63.3397
v 46.433 21.3249 -63.4133
v 46.433 21.3249 -64.6968
v 46.433 20.8886 -64.6968
v 46.433 20.8886 -63.4098
v 51.5761 18.2653 -64.1441
v 51.5761 18.2653 -64.6968
v 51.7549 18.4587 -64.6968
v 51.7549 18.4587 -63.9318
v 51.5154 18.2653 -64.0695
v 51.6883 18.4587 -63.85
v 46.915 18.4587 -63.85
v 47.0879 18.2653 -64.0695
v 51.6225 18.6522 -64.0858
v 51.7549 18.4587 -63.9318
v 51.7549 18.4587 -64.6968
v 51.6225 18.6522 -64.6968
v 51.6883 18.4587 -63.85
v 51.5629 18.6522 -64.0126
v 47.0404 18.6522 -64.0126
v 46.915 18.4587 -63.85
v 52.1703 21.3249 -63.4133
v 52.1703 21.3249 -64.6968
v 52.3368 21.5431 -64.6968
v 52.3368 21.5431 -63.2165
v 52.1104 21.3249 -63.3397
v 52.2706 21.5431 -63.1352
v 46.3327 21.5431 -63.1352
v 46.4929 21.3249 -63.3397
v 52.3368 21.5431 -64.6968
v 52.1703 21.7612 -64.6968
v 52.1703 21.7612 -63.4211
v 52.3368 21.5431 -63.2165
v 52.2706 21.5431 -63.1352
v 52.1041 21.7612 -63.3397
v 46.4992 21.7612 -63.3397
v 46.3327 21.5431 -63.1352
v 51.8997 20.1985 -63.7435
v 51.8997 20.1985 -64.6968
v 52.1703 20.8886 -64.6968
v 52.1703 20.8886 -63.4098
v 51.8416 20.1985 -63.6721
v 46.7618 20.1985 -63.6721
v 51.5629 18.6522 -64.0126
v 51.6225 18.6522 -64.0858
v 51.6857 19.2986 -64.0036
v 51.6298 19.2986 -63.935
v 47.0404 18.6522 -64.0126
v 46.9735 19.2986 -63.935
v 46.9176 19.2986 -64.0036
v 46.9808 18.6522 -64.0858
v 52.1703 21.3249 -63.4133
v 52.1104 21.3249 -63.3397
v 52.1133 20.8886 -63.3397
v 52.1703 20.8886 -63.4098
v 46.4929 21.3249 -63.3397
v 46.433 21.3249 -63.4133
v 46.433 20.8886 -63.4098
v 46.49 20.8886 -63.3397
v 51.7549 18.4587 -63.9318
v 51.6225 18.6522 -64.0858
v 51.5629 18.6522 -64.0126
v 51.6883 18.4587 -63.85
v 46.8484 18.4587 -63.9318
v 46.915 18.4587 -63.85
v 47.0404 18.6522 -64.0126
v 46.9808 18.6522 -64.0858
v 51.5154 18.2653 -64.0695
v 51.5761 18.2653 -64.1441
v 51.7549 18.4587 -63.9318
v 51.6883 18.4587 -63.85
v 46.8484 18.4587 -63.9318
v 47.0271 18.2653 -64.1441
v 47.0879 18.2653 -64.0695
v 46.915 18.4587 -63.85
v 52.3368 21.5431 -63.2165
v 52.2706 21.5431 -63.1352
v 52.1104 21.3249 -63.3397
v 52.1703 21.3249 -63.4133
v 46.4929 21.3249 -63.3397
v 46.3327 21.5431 -63.1352
v 46.2665 21.5431 -63.2165
v 46.433 21.3249 -63.4133
v 52.3368 21.5431 -63.2165
v 52.1703 21.7612 -63.4211
v 52.1041 21.7612 -63.3397
v 52.2706 21.5431 -63.1352
v 46.4992 21.7612 -63.3397
v 46.433 21.7612 -63.4211
v 46.2665 21.5431 -63.2165
v 46.3327 21.5431 -63.1352
v 52.1703 20.8886 -63.4098
v 52.1133 20.8886 -63.3397
v 51.8416 20.1985 -63.6721
v 51.8997 20.1985 -63.7435
v 46.7618 20.1985 -63.6721
v 46.49 20.8886 -63.3397
v 46.433 20.8886 -63.4098
v 46.7036 20.1985 -63.7435
v 46.433 21.7612 -63.4211
v 46.4992 21.7612 -63.3397
v 52.1041 21.7612 -63.3397
v 52.1703 21.7612 -64.6968
v 52.1703 21.7612 -63.4211
v 46.433 21.7612 -64.6968
v 46.9808 18.6522 -64.0858
v 46.9176 19.2986 -64.0036
v 46.9176 19.2986 -64.6968
v 46.9808 18.6522 -64.6968
v 52.1703 21.3249 -63.4133
v 52.1703 21.3249 -64.6968
v 46.8484 18.4587 -64.6968
v 47.0271 18.2653 -64.6968
v 46.8484 18.4587 -64.6968
v 46.8484 18.4587 -63.9318
v 46.9808 18.6522 -64.0858
v 46.9808 18.6522 -64.6968
v 46.433 21.3249 -63.4133
v 46.2665 21.5431 -63.2165
v 46.2665 21.5431 -64.6968
v 46.433 21.3249 -64.6968
v 46.2665 21.5431 -64.6968
v 46.2665 21.5431 -63.2165
v 46.433 21.7612 -63.4211
v 46.433 21.7612 -64.6968
v 46.7036 20.1985 -63.7435
v 46.7036 20.1985 -64.6968
vt 0.4476 0.6911
vt 0.2773 0.6911
vt 0.2773 0.6742
vt 0.4476 0.6742
vt 0.4453 0.6933
vt 0.2795 0.6933
vt 0.5504 0.8881
vt 0.5337 0.8881
vt 0.5337 0.9084
vt 0.5526 0.9084
vt 0.6076 0.8897
vt 0.6053 0.91
vt 0.7614 0.91
vt 0.7592 0.8897
vt 0.5892 0.9737
vt 0.7775 0.9737
vt 0.7776 0.96
vt 0.5891 0.96
vt 0.7937 0.9733
vt 0.8287 0.9733
vt 0.8287 0.9596
vt 0.7936 0.9596
vt 0.9865 0.7672
vt 0.9619 0.7672
vt 0.9632 0.7791
vt 0.9959 0.7791
vt 0.0112 0.7672
vt 0.0111 0.779
vt 0.2524 0.779
vt 0.2525 0.7672
vt 0.5504 0.8881
vt 0.5546 0.882
vt 0.5337 0.882
vt 0.5337 0.8881
vt 0.6034 0.8836
vt 0.6076 0.8897
vt 0.7592 0.8897
vt 0.7634 0.8836
vt 0.5687 0.9721
vt 0.5337 0.9721
vt 0.5337 0.979
vt 0.5741 0.979
vt 0.5892 0.9737
vt 0.5839 0.9806
vt 0.7829 0.9806
vt 0.7775 0.9737
vt 0.5337 0.979
vt 0.5337 0.9859
vt 0.5685 0.9859
vt 0.5741 0.979
vt 0.5839 0.9806
vt 0.5894 0.9875
vt 0.7773 0.9875
vt 0.7829 0.9806
vt 0.5597 0.9367
vt 0.5337 0.9367
vt 0.5337 0.9584
vt 0.5688 0.9584
vt 0.5982 0.9383
vt 0.7685 0.9383
vt 0.6076 0.8897
vt 0.605 0.8907
vt 0.6028 0.9094
vt 0.6053 0.91
vt 0.8095 0.8902
vt 0.8073 0.909
vt 0.8098 0.9096
vt 0.8121 0.8892
vt 0.5867 0.9726
vt 0.5892 0.9737
vt 0.5891 0.96
vt 0.5865 0.9593
vt 0.7912 0.9721
vt 0.7937 0.9733
vt 0.7936 0.9596
vt 0.791 0.9589
vt 0.6007 0.8862
vt 0.605 0.8907
vt 0.6076 0.8897
vt 0.6034 0.8836
vt 0.8079 0.8832
vt 0.8052 0.8857
vt 0.8095 0.8902
vt 0.8121 0.8892
vt 0.0112 0.7672
vt 0.0079 0.7672
vt 0.0078 0.7789
vt 0.0111 0.779
vt 0.2559 0.779
vt 0.2558 0.7672
vt 0.2525 0.7672
vt 0.2524 0.779
vt 0.5815 0.9806
vt 0.5839 0.9806
vt 0.5892 0.9737
vt 0.5867 0.9726
vt 0.7912 0.9721
vt 0.786 0.9801
vt 0.7884 0.9801
vt 0.7937 0.9733
vt 0.5815 0.9806
vt 0.5871 0.99
vt 0.5894 0.9875
vt 0.5839 0.9806
vt 0.7916 0.9896
vt 0.7939 0.987
vt 0.7884 0.9801
vt 0.786 0.9801
vt 0.5865 0.9593
vt 0.5891 0.96
vt 0.5982 0.9383
vt 0.5957 0.9372
vt 0.8002 0.9367
vt 0.791 0.9589
vt 0.7936 0.9596
vt 0.8027 0.9379
vt 0.1674 0.876
vt 0.1655 0.8746
vt 0.0109 0.8746
vt 0.0091 0.8976
vt 0.0091 0.876
vt 0.1674 0.8976
vt 0.8121 0.8892
vt 0.8098 0.9096
vt 0.8287 0.9096
vt 0.8287 0.8892
vt 0.5687 0.9721
vt 0.5337 0.9721
vt 0.2874 0.779
vt 0.2803 0.7672
vt 0.8287 0.8832
vt 0.8079 0.8832
vt 0.8121 0.8892
vt 0.8287 0.8892
vt 0.7937 0.9733
vt 0.7884 0.9801
vt 0.8287 0.9801
vt 0.8287 0.9733
vt 0.8287 0.9801
vt 0.7884 0.9801
vt 0.7939 0.987
vt 0.8287 0.987
vt 0.8027 0.9379
vt 0.8287 0.9379
vn 0 -1 -0
vn 0 -1 -0
vn 0 -1 -0
vn 0 -1 -0
vn 0 -1 -0
vn 0 -1 -0
vn 0.9953 -0.0973 -0
vn 0.9953 -0.0973 -0
vn 0.9863 -0.1647 -0
vn 0.9849 -0.1729 -0
vn 0 -0.1192 0.9929
vn 0 -0.2085 0.978
vn 0 -0.2085 0.978
vn 0 -0.1192 0.9929
vn 0 0 1
vn 0 0 1
vn 0 -0.1958 0.9806
vn 0 -0.1958 0.9806
vn -1 0 0
vn -1 0 0
vn -0.9826 -0.1858 -0
vn -0.9876 -0.1573 -0
vn 0.4048 -0.9098 0.0916
vn 0.4008 -0.9162 0
vn 0.7344 -0.6787 -0
vn 0.561 -0.79 0.2473
vn 0.1241 -0.846 0.5186
vn 0 -0.7504 0.661
vn 0 -0.7504 0.661
vn -0.1252 -0.8466 0.5173
vn 0.8252 0.5649 0
vn 0.8252 0.5649 0
vn 0.8252 0.5649 0
vn 0.8252 0.5649 0
vn 0 0.6436 0.7653
vn 0 0.6436 0.7653
vn 0 0.6436 0.7653
vn 0 0.6436 0.7653
vn 0.7949 -0.6068 -0
vn 0.7949 -0.6068 -0
vn 0.7949 -0.6068 -0
vn 0.7949 -0.6068 -0
vn 0 -0.684 0.7295
vn 0 -0.684 0.7295
vn 0 -0.684 0.7295
vn 0 -0.684 0.7295
vn 0.7948 0.6068 0
vn 0.7948 0.6068 0
vn 0.7949 0.6068 0
vn 0.7949 0.6068 0
vn 0 0.684 0.7295
vn 0 0.684 0.7295
vn 0 0.684 0.7295
vn 0 0.684 0.7295
vn 0.9497 -0.3131 -0
vn 0.9543 -0.2989 -0
vn 0.9826 -0.1858 -0
vn 0.9876 -0.1572 -0
vn 0 -0.3716 0.9284
vn 0 -0.3716 0.9284
vn 0.7661 -0.1542 0.6239
vn 0.7661 -0.1542 0.6239
vn 0.7515 -0.2473 0.6116
vn 0.7503 -0.2536 0.6106
vn -0.7661 -0.1542 0.6239
vn -0.7501 -0.2536 0.6108
vn -0.7513 -0.2473 0.6118
vn -0.7661 -0.1542 0.6239
vn 0.7755 0.0051 0.6313
vn 0.7755 0.0051 0.6313
vn 0.7756 0.0051 0.6312
vn 0.7756 0.0051 0.6312
vn -0.7754 0.0051 0.6315
vn -0.7753 0.0051 0.6315
vn -0.7756 0.0052 0.6312
vn -0.7756 0.0052 0.6312
vn 0.5392 0.7187 0.439
vn 0.5391 0.7188 0.4391
vn 0.5391 0.7188 0.439
vn 0.5392 0.7187 0.439
vn -0.5392 0.7187 0.439
vn -0.5392 0.7187 0.439
vn -0.5391 0.7187 0.439
vn -0.5391 0.7188 0.439
vn 0.2547 -0.8997 0.3545
vn 0.4048 -0.9098 0.0916
vn 0.561 -0.79 0.2473
vn 0.4486 -0.8157 0.3653
vn -0.561 -0.79 0.2473
vn -0.4049 -0.9098 0.0916
vn -0.2529 -0.9002 0.3544
vn -0.4487 -0.8156 0.3653
vn 0.506 -0.7578 0.4119
vn 0.506 -0.7578 0.4119
vn 0.506 -0.7578 0.4119
vn 0.506 -0.7578 0.4119
vn -0.5059 -0.7578 0.412
vn -0.506 -0.7578 0.412
vn -0.506 -0.7578 0.412
vn -0.5059 -0.7578 0.412
vn 0.5005 0.7639 0.4074
vn 0.5005 0.7639 0.4073
vn 0.5005 0.7639 0.4073
vn 0.5005 0.7639 0.4074
vn -0.5004 0.7639 0.4074
vn -0.5005 0.7639 0.4074
vn -0.5004 0.7639 0.4074
vn -0.5004 0.7639 0.4074
vn 0.6624 -0.5204 0.539
vn 0.6624 -0.5204 0.539
vn 0.6968 -0.4395 0.5669
vn 0.7005 -0.4294 0.57
vn -0.6967 -0.4395 0.567
vn -0.6623 -0.5204 0.539
vn -0.6623 -0.5204 0.539
vn -0.7005 -0.4294 0.57
vn -0 1 0
vn -0 1 0
vn -0 1 0
vn -0 1 0
vn -0 1 0
vn -0 1 0
vn -0.9953 -0.0973 -0
vn -0.9849 -0.1728 -0
vn -0.9863 -0.1647 -0
vn -0.9953 -0.0973 -0
vn 1 0 0
vn 1 0 0
vn -0.7344 -0.6787 -0
vn -0.4008 -0.9162 0
vn -0.8252 0.5649 0
vn -0.8252 0.5649 0
vn -0.8252 0.5649 0
vn -0.8252 0.5648 0
vn -0.7949 -0.6068 -0
vn -0.7949 -0.6068 -0
vn -0.7949 -0.6068 -0
vn -0.7949 -0.6068 -0
vn -0.7949 0.6068 0
vn -0.7949 0.6068 0
vn -0.7949 0.6068 0
vn -0.7949 0.6068 0
vn -0.9497 -0.3131 -0
vn -0.9543 -0.2989 -0
f 1/1/1 2/2/2 3/3/3
f 1/1/1 3/3/3 4/4/4
f 2/2/2 1/1/1 5/5/5
f 2/2/2 5/5/5 6/6/6
f 7/7/7 8/8/8 9/9/9
f 7/7/7 9/9/9 10/10/10
f 11/11/11 12/12/12 13/13/13
f 11/11/11 13/13/13 14/14/14
f 15/15/15 16/16/16 17/17/17
f 15/15/15 17/17/17 18/18/18
f 19/19/19 20/20/20 21/21/21
f 19/19/19 21/21/21 22/22/22
f 23/23/23 24/24/24 25/25/25
f 23/23/23 25/25/25 26/26/26
f 27/27/27 28/28/28 29/29/29
f 27/27/27 29/29/29 30/30/30
f 31/31/31 32/32/32 33/33/33
f 31/31/31 33/33/33 34/34/34
f 35/35/35 36/36/36 37/37/37
f 35/35/35 37/37/37 38/38/38
f 39/39/39 40/40/40 41/41/41
f 39/39/39 41/41/41 42/42/42
f 43/43/43 44/44/44 45/45/45
f 43/43/43 45/45/45 46/46/46
f 47/47/47 48/48/48 49/49/49
f 47/47/47 49/49/49 50/50/50
f 51/51/51 52/52/52 53/53/53
f 51/51/51 53/53/53 54/54/54
f 55/55/55 56/56/56 57/57/57
f 55/55/55 57/57/57 58/58/58
f 59/59/59 18/18/18 17/17/17
f 59/59/59 17/17/17 60/60/60
f 10/10/10 9/9/9 56/56/56
f 10/10/10 56/56/56 55/55/55
f 12/12/12 59/59/59 60/60/60
f 12/12/12 60/60/60 13/13/13
f 61/61/61 62/62/62 63/63/63
f 61/61/61 63/63/63 64/64/64
f 65/65/65 66/66/66 67/67/67
f 65/65/65 67/67/67 68/68/68
f 69/69/69 70/70/70 71/71/71
f 69/69/69 71/71/71 72/72/72
f 73/73/73 74/74/74 75/75/75
f 73/73/73 75/75/75 76/76/76
f 77/77/77 78/78/78 79/79/79
f 77/77/77 79/79/79 80/80/80
f 81/81/81 82/82/82 83/83/83
f 81/81/81 83/83/83 84/84/84
f 85/85/85 86/86/86 87/87/87
f 85/85/85 87/87/87 88/88/88
f 89/89/89 90/90/90 91/91/91
f 89/89/89 91/91/91 92/92/92
f 93/93/93 94/94/94 95/95/95
f 93/93/93 95/95/95 96/96/96
f 97/97/97 98/98/98 99/99/99
f 97/97/97 99/99/99 100/100/100
f 101/101/101 102/102/102 103/103/103
f 101/101/101 103/103/103 104/104/104
f 105/105/105 106/106/106 107/107/107
f 105/105/105 107/107/107 108/108/108
f 109/109/109 110/110/110 111/111/111
f 109/109/109 111/111/111 112/112/112
f 113/113/113 114/114/114 115/115/115
f 113/113/113 115/115/115 116/116/116
f 112/112/112 111/111/111 64/64/64
f 112/112/112 64/64/64 63/63/63
f 66/66/66 113/113/113 116/116/116
f 66/66/66 116/116/116 67/67/67
f 117/117/117 118/118/118 119/119/119
f 117/117/117 119/119/119 120/120/120
f 119/119/119 121/121/121 120/120/120
f 122/122/122 117/117/117 120/120/120
f 123/123/123 124/124/124 125/125/125
f 123/123/123 125/125/125 126/126/126
f 127/127/127 58/58/58 57/57/57
f 127/127/127 57/57/57 128/128/128
f 90/90/90 89/89/89 129/129/129
f 90/90/90 129/129/129 130/130/130
f 131/131/131 132/132/132 133/133/133
f 131/131/131 133/133/133 134/134/134
f 135/135/135 136/136/136 137/137/137
f 135/135/135 137/137/137 138/138/138
f 139/139/139 140/140/140 141/141/141
f 139/139/139 141/141/141 142/142/142
f 143/143/143 22/22/22 21/21/21
f 143/143/143 21/21/21 144/144/144
f 124/124/124 143/143/143 144/144/144
f 124/124/124 144/144/144 125/125/125
