o sponza_264
v -24.7764 84.205 -23.0868
v -24.889 84.2342 -23.0946
v -24.889 83.1947 -26.9742
v -24.7764 83.1655 -26.9664
v -24.9714 84.3138 -23.1159
v -24.9714 83.2743 -26.9955
v -24.9714 84.3138 -23.1159
v -25.0016 84.4226 -23.1451
v -25.0016 83.3831 -27.0247
v -24.9714 83.2743 -26.9955
v -24.9714 84.5314 -23.1742
v -24.9714 83.4919 -27.0538
v -24.9714 84.5314 -23.1742
v -24.889 84.611 -23.1956
v -24.889 83.5715 -27.0752
v -24.9714 83.4919 -27.0538
v -24.7764 84.6401 -23.2034
v -24.7764 83.6006 -27.083
v -24.7764 84.6401 -23.2034
v -24.6638 84.611 -23.1956
v -24.6638 83.5715 -27.0752
v -24.7764 83.6006 -27.083
v -24.5813 84.5314 -23.1742
v -24.5813 83.4919 -27.0538
v -24.5813 84.5314 -23.1742
v -24.5511 84.4226 -23.1451
v -24.5511 83.3831 -27.0247
v -24.5813 83.4919 -27.0538
v -24.5511 84.4226 -23.1451
v -24.5813 84.3138 -23.1159
v -24.5813 83.2743 -26.9955
v -24.5511 83.3831 -27.0247
v -24.5813 84.3138 -23.1159
v -24.6638 84.2342 -23.0946
v -24.6638 83.1947 -26.9742
v -24.5813 83.2743 -26.9955
v -24.7764 84.205 -23.0868
v -24.7764 83.1655 -26.9664
v -24.889 84.2342 -23.0946
v -24.7764 84.205 -23.0868
v -24.7764 85.2446 -19.2072
v -24.889 85.2737 -19.215
v -24.9714 85.3533 -19.2363
v -24.9714 84.3138 -23.1159
v -24.9714 85.3533 -19.2363
v -25.0016 85.4621 -19.2655
v -25.0016 84.4226 -23.1451
v -24.9714 84.3138 -23.1159
v -24.9714 85.5709 -19.2946
v -24.9714 84.5314 -23.1742
v -24.9714 85.5709 -19.2946
v -24.889 85.6505 -19.316
v -24.889 84.611 -23.1956
v -24.9714 84.5314 -23.1742
v -24.7764 85.6797 -19.3238
v -24.7764 84.6401 -23.2034
v -24.7764 85.6797 -19.3238
v -24.6638 85.6505 -19.316
v -24.6638 84.611 -23.1956
v -24.7764 84.6401 -23.2034
v -24.5813 85.5709 -19.2946
v -24.5813 84.5314 -23.1742
v -24.5511 85.4621 -19.2655
v -24.5511 84.4226 -23.1451
v -24.5813 84.5314 -23.1742
v -24.5511 85.4621 -19.2655
v -24.5813 85.3533 -19.2363
v -24.5813 84.3138 -23.1159
v -24.5511 84.4226 -23.1451
v -24.5813 85.3533 -19.2363
v -24.6638 85.2737 -19.215
v -24.6638 84.2342 -23.0946
v -24.5813 84.3138 -23.1159
v -24.7764 84.205 -23.0868
v -24.7764 85.2446 -19.2072
v -24.7764 86.2841 -15.3276
v -24.889 86.3132 -15.3354
v -24.889 85.2737 -19.215
v -24.7764 85.2446 -19.2072
v -24.9714 86.3929 -15.3567
v -24.9714 85.3533 -19.2363
v -25.0016 86.5016 -15.3859
v -25.0016 85.4621 -19.2655
v -24.9714 85.3533 -19.2363
v -24.9714 86.6104 -15.415
v -24.9714 85.5709 -19.2946
v -24.9714 86.6104 -15.415
v -24.889 86.6901 -15.4364
v -24.889 85.6505 -19.316
v -24.9714 85.5709 -19.2946
v -24.7764 86.7192 -15.4442
v -24.7764 85.6797 -19.3238
v -24.6638 86.6901 -15.4364
v -24.6638 85.6505 -19.316
v -24.7764 85.6797 -19.3238
v -24.5813 86.6104 -15.415
v -24.5813 85.5709 -19.2946
v -24.5511 86.5016 -15.3859
v -24.5511 85.4621 -19.2655
v -24.5511 86.5016 -15.3859
v -24.5813 86.3929 -15.3567
v -24.5813 85.3533 -19.2363
v -24.5511 85.4621 -19.2655
v -24.6638 86.3132 -15.3354
v -24.6638 85.2737 -19.215
v -24.5813 85.3533 -19.2363
v -24.7764 86.2841 -15.3276
v -24.7764 85.2446 -19.2072
v -24.8291 88.4356 -7.93154
v -24.8068 88.4141 -7.92576
v -24.7764 88.4062 -7.92365
v -24.7236 88.4356 -7.93154
v -24.8291 88.4944 -7.94731
v -24.7154 88.465 -7.93942
v -24.7236 88.4944 -7.94731
v -24.7459 88.516 -7.95308
v -24.7764 88.5239 -7.95519
v -24.8068 88.516 -7.95308
v -24.8373 88.465 -7.93942
v -24.7459 88.4141 -7.92576
v -24.7764 87.5652 -10.2218
v -24.931 87.6052 -10.2325
v -24.889 87.5882 -10.5771
v -24.7764 87.5591 -10.5693
v -25.0442 87.7146 -10.2618
v -24.9714 87.6678 -10.5985
v -25.0856 87.8639 -10.3019
v -25.0016 87.7766 -10.6276
v -25.0442 88.0132 -10.3419
v -24.9714 87.8854 -10.6568
v -24.931 88.1226 -10.3712
v -24.889 87.965 -10.6781
v -24.7764 88.1626 -10.3819
v -24.7764 87.9942 -10.6859
v -24.6218 88.1226 -10.3712
v -24.6638 87.965 -10.6781
v -24.5086 88.0132 -10.3419
v -24.5813 87.8854 -10.6568
v -24.4672 87.8639 -10.3019
v -24.5511 87.7766 -10.6276
v -24.5086 87.7146 -10.2618
v -24.5813 87.6678 -10.5985
v -24.6218 87.6052 -10.2325
v -24.6638 87.5882 -10.5771
v -24.7764 87.5652 -10.2218
v -24.7764 87.5591 -10.5693
v -24.7764 87.9769 -8.54664
v -24.9413 88.0196 -8.55808
v -24.9696 87.8025 -9.23792
v -24.7764 87.7525 -9.22452
v -25.0619 88.1361 -8.58932
v -25.1111 87.9391 -9.27454
v -25.1061 88.2954 -8.63199
v -25.1628 88.1258 -9.32455
v -25.0619 88.4547 -8.67466
v -25.1111 88.3124 -9.37456
v -24.9413 88.5712 -8.7059
v -24.9696 88.4491 -9.41118
v -24.7764 88.6139 -8.71734
v -24.7764 88.4991 -9.42458
v -24.6115 88.5712 -8.7059
v -24.5831 88.4491 -9.41117
v -24.4908 88.4547 -8.67466
v -24.4417 88.3124 -9.37456
v -24.4466 88.2954 -8.63199
v -24.3899 88.1258 -9.32455
v -24.4908 88.1361 -8.58932
v -24.4417 87.9391 -9.27454
v -24.6115 88.0196 -8.55808
v -24.5831 87.8025 -9.23792
v -24.7764 87.9769 -8.54664
v -24.7764 87.7525 -9.22452
v -24.7764 88.4062 -7.92365
v -24.8068 88.4141 -7.92576
v -24.8291 88.4356 -7.93154
v -24.8373 88.465 -7.93942
v -24.8291 88.4944 -7.94731
v -24.8068 88.516 -7.95308
v -24.7764 88.5239 -7.95519
v -24.7459 88.516 -7.95308
v -24.7236 88.4944 -7.94731
v -24.7154 88.465 -7.93942
v -24.7236 88.4356 -7.93154
v -24.7459 88.4141 -7.92576
v -24.7764 88.4062 -7.92365
v -24.9293 87.6953 -9.90753
v -24.7764 87.6558 -9.89692
v -25.0412 87.8035 -9.93651
v -25.0822 87.9512 -9.97608
v -25.0412 88.0989 -10.0157
v -24.9293 88.207 -10.0446
v -24.7764 88.2466 -10.0552
v -24.6234 88.207 -10.0446
v -24.5115 88.0989 -10.0157
v -24.4705 87.9512 -9.97608
v -24.5115 87.8035 -9.9365
v -24.6234 87.6953 -9.90753
v -24.7764 87.6558 -9.89692
v -24.889 86.3132 -15.3354
v -24.7764 86.2841 -15.3276
v -24.9714 86.3929 -15.3567
v -25.0016 86.5016 -15.3859
v -24.9714 86.6104 -15.415
v -24.889 86.6901 -15.4364
v -24.9714 86.6104 -15.415
v -24.7764 86.7192 -15.4442
v -24.6638 86.6901 -15.4364
v -24.5813 86.6104 -15.415
v -24.5511 86.5016 -15.3859
v -24.5813 86.3929 -15.3567
v -24.5511 86.5016 -15.3859
v -24.6638 86.3132 -15.3354
v -24.7764 86.2841 -15.3276
vt 0.9876 0.5241
vt 0.9633 0.5241
vt 0.9633 0.0053
vt 0.9876 0.0053
vt 0.9391 0.5241
vt 0.9391 0.0053
vt 0.9391 0.5241
vt 0.9148 0.5241
vt 0.9148 0.0053
vt 0.9391 0.0053
vt 0.8906 0.5241
vt 0.8906 0.0053
vt 0.8906 0.5241
vt 0.8663 0.5241
vt 0.8663 0.0053
vt 0.8906 0.0053
vt 0.8421 0.5241
vt 0.8421 0.0053
vt 0.8421 0.5241
vt 0.8178 0.5241
vt 0.8178 0.0053
vt 0.8421 0.0053
vt 0.7936 0.5241
vt 0.7936 0.0053
vt 0.7936 0.5241
vt 0.7694 0.5241
vt 0.7694 0.0053
vt 0.7936 0.0053
vt 0.7694 0.5241
vt 0.7451 0.5241
vt 0.7451 0.0053
vt 0.7694 0.0053
vt 0.7451 0.5241
vt 0.7209 0.5241
vt 0.7209 0.0053
vt 0.7451 0.0053
vt 0.6966 0.5241
vt 0.6966 0.0053
vt 0.9633 0.0053
vt 0.9876 0.0053
vt 0.9876 0.5241
vt 0.9633 0.5241
vt 0.9391 0.5241
vt 0.9391 0.0053
vt 0.9391 0.5241
vt 0.9148 0.5241
vt 0.9148 0.0053
vt 0.9391 0.0053
vt 0.8906 0.5241
vt 0.8906 0.0053
vt 0.8906 0.5241
vt 0.8663 0.5241
vt 0.8663 0.0053
vt 0.8906 0.0053
vt 0.8421 0.5241
vt 0.8421 0.0053
vt 0.8421 0.5241
vt 0.8178 0.5241
vt 0.8178 0.0053
vt 0.8421 0.0053
vt 0.7936 0.5241
vt 0.7936 0.0053
vt 0.7694 0.5241
vt 0.7694 0.0053
vt 0.7936 0.0053
vt 0.7694 0.5241
vt 0.7451 0.5241
vt 0.7451 0.0053
vt 0.7694 0.0053
vt 0.7451 0.5241
vt 0.7209 0.5241
vt 0.7209 0.0053
vt 0.7451 0.0053
vt 0.6966 0.0053
vt 0.6966 0.5241
vt 0.9876 0.5241
vt 0.9633 0.5241
vt 0.9633 0.0053
vt 0.9876 0.0053
vt 0.9391 0.5241
vt 0.9391 0.0053
vt 0.9148 0.5241
vt 0.9148 0.0053
vt 0.9391 0.0053
vt 0.8906 0.5241
vt 0.8906 0.0053
vt 0.8906 0.5241
vt 0.8663 0.5241
vt 0.8663 0.0053
vt 0.8906 0.0053
vt 0.8421 0.5241
vt 0.8421 0.0053
vt 0.8178 0.5241
vt 0.8178 0.0053
vt 0.8421 0.0053
vt 0.7936 0.5241
vt 0.7936 0.0053
vt 0.7694 0.5241
vt 0.7694 0.0053
vt 0.7694 0.5241
vt 0.7451 0.5241
vt 0.7451 0.0053
vt 0.7694 0.0053
vt 0.7209 0.5241
vt 0.7209 0.0053
vt 0.7451 0.0053
vt 0.6966 0.5241
vt 0.6966 0.0053
vt 0.9918 0.0129
vt 0.9918 0.0129
vt 0.9918 0.0129
vt 0.9918 0.0129
vt 0.9918 0.0129
vt 0.9918 0.0129
vt 0.9918 0.0129
vt 0.9918 0.0129
vt 0.9918 0.0129
vt 0.9918 0.0129
vt 0.9918 0.0129
vt 0.9918 0.0129
vt 0.9876 0.6851
vt 0.9633 0.6851
vt 0.9633 0.6416
vt 0.9876 0.6416
vt 0.9391 0.6851
vt 0.9391 0.6416
vt 0.9148 0.6851
vt 0.9148 0.6416
vt 0.8906 0.6851
vt 0.8906 0.6416
vt 0.8663 0.6851
vt 0.8663 0.6416
vt 0.8421 0.6851
vt 0.8421 0.6416
vt 0.8178 0.6851
vt 0.8178 0.6416
vt 0.7936 0.6851
vt 0.7936 0.6416
vt 0.7694 0.6851
vt 0.7694 0.6416
vt 0.7451 0.6851
vt 0.7451 0.6416
vt 0.7209 0.6851
vt 0.7209 0.6416
vt 0.6966 0.6851
vt 0.6966 0.6416
vt 0.9876 0.9029
vt 0.9633 0.9029
vt 0.9633 0.8158
vt 0.9876 0.8158
vt 0.9391 0.9029
vt 0.9391 0.8158
vt 0.9148 0.9029
vt 0.9148 0.8158
vt 0.8906 0.9029
vt 0.8906 0.8158
vt 0.8663 0.9029
vt 0.8663 0.8158
vt 0.8421 0.9029
vt 0.8421 0.8158
vt 0.8178 0.9029
vt 0.8178 0.8158
vt 0.7936 0.9029
vt 0.7936 0.8158
vt 0.7694 0.9029
vt 0.7694 0.8158
vt 0.7451 0.9029
vt 0.7451 0.8158
vt 0.7209 0.9029
vt 0.7209 0.8158
vt 0.6966 0.9029
vt 0.6966 0.8158
vt 0.9876 0.99
vt 0.9633 0.99
vt 0.9391 0.99
vt 0.9148 0.99
vt 0.8906 0.99
vt 0.8663 0.99
vt 0.8421 0.99
vt 0.8178 0.99
vt 0.7936 0.99
vt 0.7694 0.99
vt 0.7451 0.99
vt 0.7209 0.99
vt 0.6966 0.99
vt 0.9633 0.7287
vt 0.9876 0.7287
vt 0.9391 0.7287
vt 0.9148 0.7287
vt 0.8906 0.7287
vt 0.8663 0.7287
vt 0.8421 0.7287
vt 0.8178 0.7287
vt 0.7936 0.7287
vt 0.7694 0.7287
vt 0.7451 0.7287
vt 0.7209 0.7287
vt 0.6966 0.7287
vt 0.9633 0.0053
vt 0.9876 0.0053
vt 0.9391 0.0053
vt 0.9148 0.0053
vt 0.8906 0.0053
vt 0.8663 0.0053
vt 0.8906 0.0053
vt 0.8421 0.0053
vt 0.8178 0.0053
vt 0.7936 0.0053
vt 0.7694 0.0053
vt 0.7451 0.0053
vt 0.7694 0.0053
vt 0.7209 0.0053
vt 0.6966 0.0053
vn -0.2589 -0.933 0.25
vn -0.5 -0.8365 0.2241
vn -0.5 -0.8365 0.2241
vn -0.2589 -0.933 0.25
vn -0.7071 -0.683 0.183
vn -0.707 -0.6831 0.183
vn -0.9659 -0.25 0.067
vn -1 -0 0
vn -1 -0 0
vn -0.9659 -0.25 0.067
vn -0.9659 0.25 -0.067
vn -0.9659 0.25 -0.067
vn -0.7071 0.683 -0.183
vn -0.5 0.8365 -0.2241
vn -0.5 0.8365 -0.2241
vn -0.707 0.6831 -0.183
vn -0.2589 0.933 -0.25
vn -0.2589 0.933 -0.25
vn 0.2589 0.933 -0.25
vn 0.5 0.8365 -0.2241
vn 0.5 0.8365 -0.2241
vn 0.2589 0.933 -0.25
vn 0.7071 0.683 -0.183
vn 0.707 0.6831 -0.183
vn 0.9659 0.25 -0.067
vn 0.9659 0.25 -0.067
vn 0.9659 0.25 -0.067
vn 0.9659 0.25 -0.067
vn 0.9659 -0.25 0.067
vn 0.9659 -0.25 0.067
vn 0.9659 -0.25 0.067
vn 0.9659 -0.25 0.067
vn 0.7071 -0.683 0.183
vn 0.5 -0.8365 0.2241
vn 0.5 -0.8365 0.2241
vn 0.707 -0.6831 0.183
vn 0.2589 -0.933 0.25
vn 0.2589 -0.933 0.25
vn -0.5 -0.8365 0.2241
vn -0.2589 -0.933 0.25
vn -0.2589 -0.933 0.25
vn -0.5 -0.8365 0.2241
vn -0.707 -0.6831 0.183
vn -0.7071 -0.683 0.183
vn -0.9659 -0.2499 0.067
vn -1 -0 0
vn -1 -0 0
vn -0.9659 -0.25 0.067
vn -0.9659 0.25 -0.067
vn -0.9659 0.25 -0.067
vn -0.7071 0.6831 -0.183
vn -0.5 0.8365 -0.2241
vn -0.5 0.8365 -0.2241
vn -0.7071 0.683 -0.183
vn -0.2589 0.933 -0.25
vn -0.2589 0.933 -0.25
vn 0.2589 0.933 -0.25
vn 0.5 0.8365 -0.2241
vn 0.5 0.8365 -0.2241
vn 0.2589 0.933 -0.25
vn 0.866 0.483 -0.1294
vn 0.7071 0.683 -0.183
vn 0.9659 0.25 -0.067
vn 0.9659 0.25 -0.067
vn 0.9659 0.25 -0.067
vn 0.9659 -0.25 0.067
vn 0.9659 -0.25 0.067
vn 0.9659 -0.25 0.067
vn 0.9659 -0.25 0.067
vn 0.707 -0.6831 0.183
vn 0.5 -0.8365 0.2241
vn 0.5 -0.8365 0.2241
vn 0.7071 -0.683 0.183
vn 0.2589 -0.933 0.25
vn 0.2589 -0.933 0.25
vn 0 -0.9659 0.2588
vn -0.5 -0.8365 0.2241
vn -0.5 -0.8365 0.2241
vn -0.2589 -0.933 0.25
vn -0.866 -0.4829 0.1294
vn -0.707 -0.6831 0.183
vn -1 -0 0
vn -1 -0 0
vn -0.9659 -0.2499 0.067
vn -0.9659 0.25 -0.067
vn -0.9659 0.25 -0.067
vn -0.7071 0.683 -0.183
vn -0.5 0.8365 -0.2241
vn -0.5 0.8365 -0.2241
vn -0.7071 0.6831 -0.183
vn 0 0.9659 -0.2588
vn -0.2589 0.933 -0.25
vn 0.5 0.8365 -0.2241
vn 0.5 0.8365 -0.2241
vn 0.2589 0.933 -0.25
vn 0.866 0.483 -0.1294
vn 0.866 0.483 -0.1294
vn 0.9659 0.25 -0.067
vn 0.9659 0.25 -0.067
vn 0.9659 -0.2501 0.067
vn 0.866 -0.483 0.1294
vn 0.9659 -0.25 0.067
vn 0.9659 -0.25 0.067
vn 0.5 -0.8365 0.2241
vn 0.5 -0.8365 0.2241
vn 0.707 -0.6831 0.183
vn 0 -0.9659 0.2588
vn 0.2589 -0.933 0.25
vn 0.0001 0.2589 0.9659
vn 0.0002 0.2593 0.9658
vn 0 0.259 0.9659
vn -0.0001 0.259 0.9659
vn 0.0001 0.2588 0.9659
vn -0.0008 0.2583 0.9661
vn -0.0001 0.2588 0.9659
vn 0.0001 0.2587 0.966
vn 0 0.2586 0.966
vn -0.0001 0.2587 0.966
vn 0.0007 0.2589 0.9659
vn -0.0002 0.2594 0.9658
vn 0 -0.9892 0.1466
vn -0.4967 -0.8606 0.1121
vn -0.4961 -0.8622 0.1024
vn 0 -0.9906 0.1368
vn -0.8603 -0.5094 0.018
vn -0.8593 -0.5114 0.0084
vn -0.9934 -0.0296 -0.1105
vn -0.9923 -0.0322 -0.12
vn -0.8603 0.4502 -0.2391
vn -0.8593 0.447 -0.2484
vn -0.4967 0.8014 -0.3332
vn -0.4961 0.7979 -0.3424
vn 0 0.93 -0.3676
vn 0 0.9263 -0.3768
vn 0.4967 0.8014 -0.3332
vn 0.4961 0.7979 -0.3424
vn 0.8603 0.4502 -0.2391
vn 0.8593 0.4471 -0.2484
vn 0.9934 -0.0296 -0.1105
vn 0.9923 -0.0322 -0.12
vn 0.8603 -0.5094 0.018
vn 0.8593 -0.5114 0.0084
vn 0.4967 -0.8607 0.1121
vn 0.4961 -0.8622 0.1024
vn 0 -0.9892 0.1466
vn 0 -0.9906 0.1368
vn -0 -0.8974 0.4413
vn -0.49 -0.7694 0.4097
vn -0.5005 -0.8432 0.1963
vn -0 -0.9733 0.2296
vn -0.8477 -0.4204 0.3236
vn -0.8665 -0.488 0.1051
vn -0.977 0.0548 0.2063
vn -0.9998 -0.0033 -0.0192
vn -0.8444 0.5282 0.0895
vn -0.8652 0.4805 -0.1434
vn -0.4868 0.8735 0.0042
vn -0.4992 0.8342 -0.2342
vn -0 0.9996 -0.027
vn -0 0.9636 -0.2674
vn 0.4868 0.8735 0.0042
vn 0.4992 0.8342 -0.2342
vn 0.8444 0.5282 0.0895
vn 0.8652 0.4805 -0.1434
vn 0.977 0.0548 0.2063
vn 0.9998 -0.0033 -0.0192
vn 0.8476 -0.4205 0.3236
vn 0.8665 -0.488 0.1051
vn 0.49 -0.7694 0.4097
vn 0.5005 -0.8432 0.1963
vn -0 -0.8974 0.4413
vn -0 -0.9733 0.2296
vn -0 -0.8234 0.5674
vn -0.4692 -0.701 0.5371
vn -0.8118 -0.3669 0.4543
vn -0.9357 0.0881 0.3416
vn -0.8089 0.5414 0.2293
vn -0.4665 0.8722 0.1473
vn -0 0.9931 0.1173
vn 0.4664 0.8722 0.1473
vn 0.809 0.5413 0.2293
vn 0.9357 0.0886 0.3415
vn 0.8118 -0.3669 0.4544
vn 0.4692 -0.701 0.5371
vn -0 -0.8234 0.5674
vn -0.4993 -0.8495 0.1706
vn -0 -0.9787 0.2053
vn -0.8647 -0.4965 0.076
vn -0.9985 -0.0143 -0.0532
vn -0.8647 0.468 -0.1824
vn -0.4992 0.821 -0.277
vn -0 0.9502 -0.3116
vn 0.4992 0.821 -0.277
vn 0.8647 0.468 -0.1824
vn 0.9985 -0.0142 -0.0532
vn 0.8647 -0.4965 0.076
vn 0.4992 -0.8495 0.1706
vn -0 -0.9787 0.2053
vn -0.5 -0.8365 0.2241
vn 0 -0.9659 0.2588
vn -0.866 -0.4829 0.1294
vn -1 -0 0
vn -0.9659 0.25 -0.067
vn -0.5 0.8365 -0.2241
vn -0.7071 0.683 -0.183
vn 0 0.9659 -0.2588
vn 0.5 0.8365 -0.2241
vn 0.866 0.483 -0.1294
vn 0.9659 0.25 -0.067
vn 0.866 -0.483 0.1294
vn 0.9659 -0.2501 0.067
vn 0.5 -0.8365 0.2241
vn 0 -0.9659 0.2588
f 1/1/1 2/2/2 3/3/3
f 1/1/1 3/3/3 4/4/4
f 2/2/2 5/5/5 6/6/6
f 2/2/2 6/6/6 3/3/3
f 7/7/7 8/8/8 9/9/9
f 7/7/7 9/9/9 10/10/10
f 8/8/8 11/11/11 12/12/12
f 8/8/8 12/12/12 9/9/9
f 13/13/13 14/14/14 15/15/15
f 13/13/13 15/15/15 16/16/16
f 14/14/14 17/17/17 18/18/18
f 14/14/14 18/18/18 15/15/15
f 19/19/19 20/20/20 21/21/21
f 19/19/19 21/21/21 22/22/22
f 20/20/20 23/23/23 24/24/24
f 20/20/20 24/24/24 21/21/21
f 25/25/25 26/26/26 27/27/27
f 25/25/25 27/27/27 28/28/28
f 29/29/29 30/30/30 31/31/31
f 29/29/29 31/31/31 32/32/32
f 33/33/33 34/34/34 35/35/35
f 33/33/33 35/35/35 36/36/36
f 34/34/34 37/37/37 38/38/38
f 34/34/34 38/38/38 35/35/35
f 39/39/39 40/40/40 41/41/41
f 39/39/39 41/41/41 42/42/42
f 42/42/42 43/43/43 44/44/44
f 42/42/42 44/44/44 39/39/39
f 45/45/45 46/46/46 47/47/47
f 45/45/45 47/47/47 48/48/48
f 46/46/46 49/49/49 50/50/50
f 46/46/46 50/50/50 47/47/47
f 51/51/51 52/52/52 53/53/53
f 51/51/51 53/53/53 54/54/54
f 52/52/52 55/55/55 56/56/56
f 52/52/52 56/56/56 53/53/53
f 57/57/57 58/58/58 59/59/59
f 57/57/57 59/59/59 60/60/60
f 58/58/58 61/61/61 62/62/62
f 58/58/58 62/62/62 59/59/59
f 61/61/61 63/63/63 64/64/64
f 61/61/61 64/64/64 65/65/65
f 66/66/66 67/67/67 68/68/68
f 66/66/66 68/68/68 69/69/69
f 70/70/70 71/71/71 72/72/72
f 70/70/70 72/72/72 73/73/73
f 74/74/74 72/72/72 71/71/71
f 74/74/74 71/71/71 75/75/75
f 76/76/76 77/77/77 78/78/78
f 76/76/76 78/78/78 79/79/79
f 77/77/77 80/80/80 81/81/81
f 77/77/77 81/81/81 78/78/78
f 80/80/80 82/82/82 83/83/83
f 80/80/80 83/83/83 84/84/84
f 82/82/82 85/85/85 86/86/86
f 82/82/82 86/86/86 83/83/83
f 87/87/87 88/88/88 89/89/89
f 87/87/87 89/89/89 90/90/90
f 88/88/88 91/91/91 92/92/92
f 88/88/88 92/92/92 89/89/89
f 91/91/91 93/93/93 94/94/94
f 91/91/91 94/94/94 95/95/95
f 93/93/93 96/96/96 97/97/97
f 93/93/93 97/97/97 94/94/94
f 96/96/96 98/98/98 99/99/99
f 96/96/96 99/99/99 97/97/97
f 100/100/100 101/101/101 102/102/102
f 100/100/100 102/102/102 103/103/103
f 101/101/101 104/104/104 105/105/105
f 101/101/101 105/105/105 106/106/106
f 104/104/104 107/107/107 108/108/108
f 104/104/104 108/108/108 105/105/105
f 109/109/109 110/110/110 111/111/111
f 109/109/109 111/111/111 112/112/112
f 109/109/109 112/112/112 113/113/113
f 112/112/112 114/114/114 115/115/115
f 112/112/112 115/115/115 113/113/113
f 115/115/115 116/116/116 117/117/117
f 115/115/115 117/117/117 113/113/113
f 117/117/117 118/118/118 113/113/113
f 119/119/119 109/109/109 113/113/113
f 120/120/120 112/112/112 111/111/111
f 121/121/121 122/122/122 123/123/123
f 121/121/121 123/123/123 124/124/124
f 122/122/122 125/125/125 126/126/126
f 122/122/122 126/126/126 123/123/123
f 125/125/125 127/127/127 128/128/128
f 125/125/125 128/128/128 126/126/126
f 127/127/127 129/129/129 130/130/130
f 127/127/127 130/130/130 128/128/128
f 129/129/129 131/131/131 132/132/132
f 129/129/129 132/132/132 130/130/130
f 131/131/131 133/133/133 134/134/134
f 131/131/131 134/134/134 132/132/132
f 133/133/133 135/135/135 136/136/136
f 133/133/133 136/136/136 134/134/134
f 135/135/135 137/137/137 138/138/138
f 135/135/135 138/138/138 136/136/136
f 137/137/137 139/139/139 140/140/140
f 137/137/137 140/140/140 138/138/138
f 139/139/139 141/141/141 142/142/142
f 139/139/139 142/142/142 140/140/140
f 141/141/141 143/143/143 144/144/144
f 141/141/141 144/144/144 142/142/142
f 143/143/143 145/145/145 146/146/146
f 143/143/143 146/146/146 144/144/144
f 147/147/147 148/148/148 149/149/149
f 147/147/147 149/149/149 150/150/150
f 149/149/149 148/148/148 151/151/151
f 149/149/149 151/151/151 152/152/152
f 152/152/152 151/151/151 153/153/153
f 152/152/152 153/153/153 154/154/154
f 154/154/154 153/153/153 155/155/155
f 154/154/154 155/155/155 156/156/156
f 156/156/156 155/155/155 157/157/157
f 156/156/156 157/157/157 158/158/158
f 157/157/157 159/159/159 160/160/160
f 157/157/157 160/160/160 158/158/158
f 159/159/159 161/161/161 162/162/162
f 159/159/159 162/162/162 160/160/160
f 161/161/161 163/163/163 164/164/164
f 161/161/161 164/164/164 162/162/162
f 163/163/163 165/165/165 166/166/166
f 163/163/163 166/166/166 164/164/164
f 165/165/165 167/167/167 168/168/168
f 165/165/165 168/168/168 166/166/166
f 167/167/167 169/169/169 170/170/170
f 167/167/167 170/170/170 168/168/168
f 169/169/169 171/171/171 172/172/172
f 169/169/169 172/172/172 170/170/170
f 173/173/173 174/174/174 148/148/148
f 173/173/173 148/148/148 147/147/147
f 174/174/174 175/175/175 151/151/151
f 174/174/174 151/151/151 148/148/148
f 151/151/151 175/175/175 176/176/176
f 151/151/151 176/176/176 153/153/153
f 153/153/153 176/176/176 177/177/177
f 153/153/153 177/177/177 155/155/155
f 177/177/177 178/178/178 157/157/157
f 177/177/177 157/157/157 155/155/155
f 178/178/178 179/179/179 159/159/159
f 178/178/178 159/159/159 157/157/157
f 179/179/179 180/180/180 161/161/161
f 179/179/179 161/161/161 159/159/159
f 180/180/180 181/181/181 163/163/163
f 180/180/180 163/163/163 161/161/161
f 181/181/181 182/182/182 165/165/165
f 181/181/181 165/165/165 163/163/163
f 182/182/182 183/183/183 167/167/167
f 182/182/182 167/167/167 165/165/165
f 183/183/183 184/184/184 169/169/169
f 183/183/183 169/169/169 167/167/167
f 184/184/184 185/185/185 171/171/171
f 184/184/184 171/171/171 169/169/169
f 150/150/150 149/149/149 186/186/186
f 150/150/150 186/186/186 187/187/187
f 149/149/149 152/152/152 188/188/188
f 149/149/149 188/188/188 186/186/186
f 152/152/152 154/154/154 189/189/189
f 152/152/152 189/189/189 188/188/188
f 154/154/154 156/156/156 190/190/190
f 154/154/154 190/190/190 189/189/189
f 156/156/156 158/158/158 191/191/191
f 156/156/156 191/191/191 190/190/190
f 158/158/158 160/160/160 192/192/192
f 158/158/158 192/192/192 191/191/191
f 160/160/160 162/162/162 193/193/193
f 160/160/160 193/193/193 192/192/192
f 162/162/162 164/164/164 194/194/194
f 162/162/162 194/194/194 193/193/193
f 164/164/164 166/166/166 195/195/195
f 164/164/164 195/195/195 194/194/194
f 166/166/166 168/168/168 196/196/196
f 166/166/166 196/196/196 195/195/195
f 168/168/168 170/170/170 197/197/197
f 168/168/168 197/197/197 196/196/196
f 170/170/170 172/172/172 198/198/198
f 170/170/170 198/198/198 197/197/197
f 187/187/187 186/186/186 122/122/122
f 187/187/187 122/122/122 121/121/121
f 186/186/186 188/188/188 125/125/125
f 186/186/186 125/125/125 122/122/122
f 188/188/188 189/189/189 127/127/127
f 188/188/188 127/127/127 125/125/125
f 189/189/189 190/190/190 129/129/129
f 189/189/189 129/129/129 127/127/127
f 190/190/190 191/191/191 131/131/131
f 190/190/190 131/131/131 129/129/129
f 191/191/191 192/192/192 133/133/133
f 191/191/191 133/133/133 131/131/131
f 192/192/192 193/193/193 135/135/135
f 192/192/192 135/135/135 133/133/133
f 193/193/193 194/194/194 137/137/137
f 193/193/193 137/137/137 135/135/135
f 194/194/194 195/195/195 139/139/139
f 194/194/194 139/139/139 137/137/137
f 195/195/195 196/196/196 141/141/141
f 195/195/195 141/141/141 139/139/139
f 196/196/196 197/197/197 143/143/143
f 196/196/196 143/143/143 141/141/141
f 197/197/197 198/198/198 145/145/145
f 197/197/197 145/145/145 143/143/143
f 124/124/124 123/123/123 199/199/199
f 124/124/124 199/199/199 200/200/200
f 123/123/123 126/126/126 201/201/201
f 123/123/123 201/201/201 199/199/199
f 126/126/126 128/128/128 202/202/202
f 126/126/126 202/202/202 201/201/201
f 128/128/128 130/130/130 203/203/203
f 128/128/128 203/203/203 202/202/202
f 130/130/130 132/132/132 204/204/204
f 130/130/130 204/204/204 205/205/205
f 132/132/132 134/134/134 206/206/206
f 132/132/132 206/206/206 204/204/204
f 134/134/134 136/136/136 207/207/207
f 134/134/134 207/207/207 206/206/206
f 136/136/136 138/138/138 208/208/208
f 136/136/136 208/208/208 207/207/207
f 138/138/138 140/140/140 209/209/209
f 138/138/138 209/209/209 208/208/208
f 140/140/140 142/142/142 210/210/210
f 140/140/140 210/210/210 211/211/211
f 142/142/142 144/144/144 212/212/212
f 142/142/142 212/212/212 210/210/210
f 144/144/144 146/146/146 213/213/213
f 144/144/144 213/213/213 212/212/212
