o sponza_06
v -99.8518 22.1488 18.0131
v -99.8518 31.4004 11.9479
v -99.8518 49.569 18.0131
v -99.8518 35.4699 6.08255
v -99.8518 38.1163 0.21722
v -99.8518 38.1765 -3.53434
v -99.8518 49.569 -3.53433
v 86.9351 22.1488 18.0131
v 86.9351 49.569 18.0131
v 86.9351 31.4004 11.9479
v 86.9351 35.4699 6.08255
v 86.9351 38.1163 0.21722
v 86.9351 49.569 -3.53433
v 86.9351 38.1765 -3.53434
v -99.8518 22.1488 -25.0818
v -99.8518 49.569 -25.0818
v -99.8518 31.4004 -19.0166
v -99.8518 35.4699 -13.1512
v -99.8518 38.1163 -7.2859
v 86.9351 22.1488 -25.0818
v 86.9351 31.4004 -19.0166
v 86.9351 49.569 -25.0818
v 86.9351 35.4699 -13.1512
v 86.9351 38.1163 -7.2859
v -24.6654 22.1488 18.0131
v -27.8904 32.9257 18.0131
v -24.6654 49.569 18.0131
v -33.8173 38.2468 18.0131
v -43.4789 40.6419 18.0131
v -43.4789 49.569 18.0131
v -61.7827 22.1488 18.0131
v -61.7827 49.569 18.0131
v -59.255 32.8861 18.0131
v -52.6308 38.1432 18.0131
v 11.9422 22.1488 18.0131
v 8.71708 32.9257 18.0131
v 11.9422 49.569 18.0131
v 2.79028 38.2468 18.0131
v -6.3616 40.6419 18.0131
v -6.3616 49.569 18.0131
v -21.4458 32.8861 18.0131
v -15.5135 38.1432 18.0131
v 49.2278 22.1488 18.0131
v 49.2278 49.569 18.0131
v 52.4529 32.9257 18.0131
v 58.3797 38.2468 18.0131
v 67.5316 49.569 18.0131
v 67.5316 40.6419 18.0131
v 86.9351 22.1488 18.0131
v 82.6157 32.8861 18.0131
v 86.9351 49.569 18.0131
v 76.6834 38.1432 18.0131
v 15.8453 32.9257 18.0131
v 21.7721 38.2468 18.0131
v 30.924 49.569 18.0131
v 30.924 40.6419 18.0131
v 46.0082 32.8861 18.0131
v 40.0759 38.1432 18.0131
v -65.6898 32.9257 18.0131
v -71.2544 37.7936 18.0131
v -80.5114 40.6419 18.0131
v -80.5114 49.569 18.0131
v -99.8518 22.1488 18.0131
v -99.8518 49.569 18.0131
v -95.5956 32.8861 18.0131
v -89.6633 38.1432 18.0131
v -24.6654 22.1488 -25.0818
v -24.6654 49.569 -25.0818
v -27.8904 32.9258 -25.0818
v -33.8173 38.2468 -25.0818
v -43.4789 49.569 -25.0818
v -43.4789 40.642 -25.0818
v -61.7827 22.1488 -25.0818
v -59.255 32.8861 -25.0818
v -61.7827 49.569 -25.0818
v -52.6308 38.1432 -25.0818
v 11.9422 22.1488 -25.0818
v 11.9422 49.569 -25.0818
v 8.71708 32.9258 -25.0818
v 2.79028 38.2468 -25.0818
v -6.3616 49.569 -25.0818
v -6.3616 40.642 -25.0818
v -21.4458 32.8861 -25.0818
v -15.5135 38.1432 -25.0818
v 49.2278 22.1488 -25.0818
v 52.4529 32.9258 -25.0818
v 49.2278 49.569 -25.0818
v 58.3797 38.2468 -25.0818
v 67.5316 40.642 -25.0818
v 67.5316 49.569 -25.0818
v 86.9351 22.1488 -25.0818
v 86.9351 49.569 -25.0818
v 82.6157 32.8861 -25.0818
v 76.6834 38.1432 -25.0818
v 15.8453 32.9258 -25.0818
v 21.7721 38.2468 -25.0818
v 30.924 40.642 -25.0818
v 30.924 49.569 -25.0818
v 46.0082 32.8861 -25.0818
v 40.0759 38.1432 -25.0818
v -65.6898 32.9258 -25.0818
v -71.2544 37.7937 -25.0818
v -80.5114 49.569 -25.0818
v -80.5114 40.642 -25.0818
v -99.8518 22.1488 -25.0818
v -95.5956 32.8861 -25.0818
v -99.8518 49.569 -25.0818
v -89.6633 38.1432 -25.0818
vt 8.8594 -0.5571
vt 9.1283 -0.1002
vt 8.8564 0.7965
vt 9.418 0.1008
vt 9.7077 0.2315
vt 9.8931 0.2345
vt 9.8931 0.7972
vt 8.8288 -0.5572
vt 8.8288 0.7972
vt 9.1283 -0.1002
vt 9.418 0.1008
vt 9.7077 0.2315
vt 9.8931 0.7972
vt 9.8931 0.2345
vt 8.8594 -0.5571
vt 8.8554 0.7966
vt 9.1283 -0.1002
vt 9.418 0.1008
vt 9.7077 0.2315
vt 8.8288 -0.5572
vt 9.1283 -0.1002
vt 8.8288 0.7972
vt 9.418 0.1008
vt 9.7077 0.2315
vt 5.1804 -0.5572
vt 5.3397 -0.0248
vt 5.1804 0.7972
vt 5.6324 0.238
vt 6.1097 0.3563
vt 6.1097 0.7972
vt 7.0137 -0.5572
vt 7.0137 0.7972
vt 6.8889 -0.0268
vt 6.5617 0.2329
vt 3.3722 -0.5572
vt 3.5315 -0.0248
vt 3.3722 0.7972
vt 3.8243 0.238
vt 4.2763 0.3563
vt 4.2763 0.7972
vt 5.0214 -0.0268
vt 4.7284 0.2329
vt 1.5306 -0.5572
vt 1.5306 0.7972
vt 1.3713 -0.0248
vt 1.0785 0.238
vt 0.6265 0.7972
vt 0.6265 0.3563
vt -0.2776 -0.5572
vt -0.1186 -0.0268
vt -0.2721 0.7954
vt 0.1745 0.2329
vt 3.1794 -0.0248
vt 2.8867 0.238
vt 2.4347 0.7972
vt 2.4347 0.3563
vt 1.6896 -0.0268
vt 1.9826 0.2329
vt 7.2067 -0.0248
vt 7.4816 0.2156
vt 7.9388 0.3563
vt 7.9386 0.7972
vt 8.8594 -0.5571
vt 8.8564 0.7965
vt 8.6832 -0.027
vt 8.3907 0.2328
vt 5.1804 -0.5572
vt 5.1804 0.7972
vt 5.3397 -0.0248
vt 5.6324 0.238
vt 6.1097 0.7972
vt 6.1097 0.3563
vt 7.0137 -0.5572
vt 6.8889 -0.0268
vt 7.0137 0.7972
vt 6.5617 0.2329
vt 3.3722 -0.5572
vt 3.3722 0.7972
vt 3.5315 -0.0248
vt 3.8243 0.238
vt 4.2763 0.7972
vt 4.2763 0.3563
vt 5.0214 -0.0268
vt 4.7284 0.2329
vt 1.5306 -0.5572
vt 1.3713 -0.0248
vt 1.5306 0.7972
vt 1.0785 0.238
vt 0.6265 0.3563
vt 0.6265 0.7972
vt -0.2776 -0.5572
vt -0.2741 0.795
vt -0.1186 -0.0268
vt 0.1745 0.2329
vt 3.1794 -0.0248
vt 2.8867 0.238
vt 2.4347 0.3563
vt 2.4347 0.7972
vt 1.6896 -0.0268
vt 1.9826 0.2329
vt 7.2067 -0.0248
vt 7.4816 0.2156
vt 7.9386 0.7972
vt 7.9388 0.3563
vt 8.8594 -0.5571
vt 8.6832 -0.027
vt 8.8554 0.7966
vt 8.3907 0.2328
vn 1 0 0
vn 1 0 0
vn 1 0 0
vn 1 0 0
vn 1 0 0
vn 1 0 0
vn 1 0 0
vn -1 0 0
vn -1 0 0
vn -1 0 0
vn -1 0 0
vn -1 0 0
vn -1 0 0
vn -1 0 0
vn 1 0 0
vn 1 0 0
vn 1 0 0
vn 1 0 0
vn 1 0 0
vn -1 0 0
vn -1 0 0
vn -1 0 0
vn -1 0 0
vn -1 0 0
vn 0 0 -1
vn 0 0 -1
vn 0 0 -1
vn 0 0 -1
vn 0 0 -1
vn 0 0 -1
vn 0 0 -1
vn 0 0 -1
vn 0 0 -1
vn 0 0 -1
vn 0 0 -1
vn 0 0 -1
vn 0 0 -1
vn 0 0 -1
vn 0 0 -1
vn 0 0 -1
vn 0 0 -1
vn 0 0 -1
vn 0 0 -1
vn 0 0 -1
vn 0 0 -1
vn 0 0 -1
vn 0 0 -1
vn 0 0 -1
vn -0.835 -0 -0.5503
vn 0 0 -1
vn -0.7071 0 -0.7071
vn 0 0 -1
vn 0 0 -1
vn 0 0 -1
vn 0 0 -1
vn 0 0 -1
vn 0 0 -1
vn 0 0 -1
vn 0 0 -1
vn 0 0 -1
vn 0 0 -1
vn 0 0 -1
vn 0.8383 0.0001 -0.5452
vn 0.7071 0 -0.7071
vn 0 0 -1
vn 0 0 -1
vn 0 -0 1
vn 0 -0 1
vn 0 -0 1
vn 0 -0 1
vn 0 -0 1
vn 0 -0 1
vn 0 -0 1
vn 0 -0 1
vn 0 -0 1
vn 0 -0 1
vn 0 -0 1
vn 0 -0 1
vn 0 -0 1
vn 0 -0 1
vn 0 -0 1
vn 0 -0 1
vn 0 -0 1
vn 0 -0 1
vn 0 -0 1
vn 0 -0 1
vn 0 -0 1
vn 0 -0 1
vn 0 -0 1
vn 0 -0 1
vn -0.835 -0 0.5503
vn -0.7071 -0 0.7071
vn 0 -0 1
vn 0 -0 1
vn 0 -0 1
vn 0 -0 1
vn 0 -0 1
vn 0 -0 1
vn 0 -0 1
vn 0 -0 1
vn 0 -0 1
vn 0 -0 1
vn 0 -0 1
vn 0 -0 1
vn 0.8383 0 0.5452
vn 0 -0 1
vn 0.7071 -0 0.7071
vn 0 -0 1
f 1/1/1 2/2/2 3/3/3
f 4/4/4 5/5/5 3/3/3
f 2/2/2 4/4/4 3/3/3
f 5/5/5 6/6/6 7/7/7
f 5/5/5 7/7/7 3/3/3
f 8/8/8 9/9/9 10/10/10
f 11/11/11 9/9/9 12/12/12
f 10/10/10 9/9/9 11/11/11
f 12/12/12 9/9/9 13/13/13
f 12/12/12 13/13/13 14/14/14
f 15/15/15 16/16/16 17/17/17
f 18/18/18 16/16/16 19/19/19
f 17/17/17 16/16/16 18/18/18
f 19/19/19 16/16/16 7/7/7
f 19/19/19 7/7/7 6/6/6
f 20/20/20 21/21/21 22/22/22
f 23/23/23 24/24/24 22/22/22
f 21/21/21 23/23/23 22/22/22
f 24/24/24 14/14/14 13/13/13
f 24/24/24 13/13/13 22/22/22
f 25/25/25 26/26/26 27/27/27
f 28/28/28 29/29/29 30/30/30
f 28/28/28 30/30/30 27/27/27
f 26/26/26 28/28/28 27/27/27
f 31/31/31 32/32/32 33/33/33
f 34/34/34 32/32/32 30/30/30
f 34/34/34 30/30/30 29/29/29
f 33/33/33 32/32/32 34/34/34
f 35/35/35 36/36/36 37/37/37
f 38/38/38 39/39/39 40/40/40
f 38/38/38 40/40/40 37/37/37
f 36/36/36 38/38/38 37/37/37
f 25/25/25 27/27/27 41/41/41
f 42/42/42 27/27/27 40/40/40
f 42/42/42 40/40/40 39/39/39
f 41/41/41 27/27/27 42/42/42
f 43/43/43 44/44/44 45/45/45
f 46/46/46 44/44/44 47/47/47
f 46/46/46 47/47/47 48/48/48
f 45/45/45 44/44/44 46/46/46
f 49/49/49 50/50/50 51/51/51
f 52/52/52 48/48/48 47/47/47
f 52/52/52 47/47/47 51/51/51
f 50/50/50 52/52/52 51/51/51
f 35/35/35 37/37/37 53/53/53
f 54/54/54 37/37/37 55/55/55
f 54/54/54 55/55/55 56/56/56
f 53/53/53 37/37/37 54/54/54
f 43/43/43 57/57/57 44/44/44
f 58/58/58 56/56/56 55/55/55
f 58/58/58 55/55/55 44/44/44
f 57/57/57 58/58/58 44/44/44
f 31/31/31 59/59/59 32/32/32
f 60/60/60 61/61/61 62/62/62
f 60/60/60 62/62/62 32/32/32
f 59/59/59 60/60/60 32/32/32
f 63/63/63 64/64/64 65/65/65
f 66/66/66 64/64/64 62/62/62
f 66/66/66 62/62/62 61/61/61
f 65/65/65 64/64/64 66/66/66
f 67/67/67 68/68/68 69/69/69
f 70/70/70 68/68/68 71/71/71
f 70/70/70 71/71/71 72/72/72
f 69/69/69 68/68/68 70/70/70
f 73/73/73 74/74/74 75/75/75
f 76/76/76 72/72/72 71/71/71
f 76/76/76 71/71/71 75/75/75
f 74/74/74 76/76/76 75/75/75
f 77/77/77 78/78/78 79/79/79
f 80/80/80 78/78/78 81/81/81
f 80/80/80 81/81/81 82/82/82
f 79/79/79 78/78/78 80/80/80
f 67/67/67 83/83/83 68/68/68
f 84/84/84 82/82/82 81/81/81
f 84/84/84 81/81/81 68/68/68
f 83/83/83 84/84/84 68/68/68
f 85/85/85 86/86/86 87/87/87
f 88/88/88 89/89/89 90/90/90
f 88/88/88 90/90/90 87/87/87
f 86/86/86 88/88/88 87/87/87
f 91/91/91 92/92/92 93/93/93
f 94/94/94 92/92/92 90/90/90
f 94/94/94 90/90/90 89/89/89
f 93/93/93 92/92/92 94/94/94
f 77/77/77 95/95/95 78/78/78
f 96/96/96 97/97/97 98/98/98
f 96/96/96 98/98/98 78/78/78
f 95/95/95 96/96/96 78/78/78
f 85/85/85 87/87/87 99/99/99
f 100/100/100 87/87/87 98/98/98
f 100/100/100 98/98/98 97/97/97
f 99/99/99 87/87/87 100/100/100
f 73/73/73 75/75/75 101/101/101
f 102/102/102 75/75/75 103/103/103
f 102/102/102 103/103/103 104/104/104
f 101/101/101 75/75/75 102/102/102
f 105/105/105 106/106/106 107/107/107
f 108/108/108 104/104/104 103/103/103
f 108/108/108 103/103/103 107/107/107
f 106/106/106 108/108/108 107/107/107
