o sponza_197
v 68.0993 66.5982 18.2354
v 68.0993 66.6759 18.042
v 68.0993 66.6759 18.5405
v 68.0993 66.5982 18.3677
v 68.0993 67.2375 18.7781
v 68.0993 67.0594 18.8821
v 68.0993 67.0594 17.8858
v 68.0993 67.2375 17.9285
v 68.0993 67.4156 18.5839
v 68.0993 67.4156 18.0815
v 68.0993 66.8285 18.6376
v 68.0993 66.8583 17.9142
v 68.0993 66.2721 19.3002
v 68.0993 66.1125 19.0139
v 67.4116 67.0594 17.8858
v 67.4116 67.2375 17.9285
v 67.4116 67.4156 18.0815
v 67.4116 66.8285 18.6376
v 67.4116 66.6759 18.5405
v 67.4116 66.6759 18.042
v 67.4116 66.8583 17.9142
v 67.4116 66.1125 19.0139
v 67.4116 66.2721 19.3002
v 67.4116 66.5982 18.2354
v 67.4116 66.5982 18.3677
v 67.4116 67.0594 18.8821
v 67.4116 67.2375 18.7781
v 67.4116 67.4156 18.5839
v 68.0993 66.5982 18.2354
v 68.0993 66.6759 18.042
v 68.0993 66.5982 18.3677
v 68.0993 66.6759 18.5405
v 68.0993 67.0594 17.8858
v 68.0993 67.2375 17.9285
v 68.0993 67.4156 18.0815
v 68.0993 66.8583 17.9142
v 68.0993 66.8285 18.6376
v 68.0993 66.8285 18.6376
v 68.0993 66.2721 19.3002
v 68.0993 66.1125 19.0139
v 68.0993 66.1125 19.0139
v 67.4116 67.0594 17.8858
v 67.4116 67.2375 17.9285
v 67.4116 67.4156 18.0815
v 67.4116 66.8285 18.6376
v 67.4116 66.8285 18.6376
v 67.4116 66.6759 18.5405
v 67.4116 66.6759 18.042
v 67.4116 66.8583 17.9142
v 67.4116 66.1125 19.0139
v 67.4116 66.1125 19.0139
v 67.4116 66.2721 19.3002
v 67.4116 66.5982 18.2354
v 67.4116 66.5982 18.3677
vt 0.1992 0.5029
vt 0.2019 0.5199
vt 0.1809 0.4846
vt 0.1937 0.4935
vt 0.1311 0.4913
vt 0.1394 0.4765
vt 0.1813 0.5471
vt 0.1669 0.5515
vt 0.1267 0.5126
vt 0.1478 0.5482
vt 0.166 0.4841
vt 0.1943 0.5366
vt 0.1776 0.4138
vt 0.2009 0.4273
vt 0.0645 0.2791
vt 0.0646 0.2653
vt 0.1179 0.2654
vt 0.1179 0.2792
vt 0.0646 0.2515
vt 0.118 0.2515
vt 0.1178 0.3595
vt 0.0645 0.3594
vt 0.0645 0.3476
vt 0.1178 0.3476
vt 0.0645 0.3089
vt 0.0645 0.2947
vt 0.1179 0.2948
vt 0.1179 0.3089
vt 0.0644 0.415
vt 0.0645 0.3594
vt 0.1178 0.3595
vt 0.1178 0.415
vt 0.0644 0.4372
vt 0.0644 0.415
vt 0.1178 0.415
vt 0.1177 0.4373
vt 0.1564 0.5656
vt 0.1671 0.564
vt 0.1821 0.5684
vt 0.1415 0.5741
vt 0.1331 0.6072
vt 0.2144 0.5958
vt 0.2079 0.6115
vt 0.1386 0.6212
vt 0.1941 0.6282
vt 0.1531 0.634
vt 0.1918 0.5797
vt 0.1331 0.5904
vt 0.2143 0.517
vt 0.2395 0.5268
vt 0.0645 0.3239
vt 0.1179 0.324
vt 0.1179 0.3342
vt 0.0645 0.3342
vn 1 -0 0
vn 1 -0.0002 0
vn 0 0.0473 -0.9989
vn 0 0.4552 -0.8904
vn 0 0.0474 -0.9989
vn 0 0.6519 -0.7583
vn 0 -0.5369 0.8436
vn 0 -0.5369 0.8437
vn 0 -0.7561 0.6545
vn 0 -0.7561 0.6544
vn 0 -0.7832 -0.6217
vn 0 -0.367 -0.9302
vn 0 -0.4652 -0.8852
vn 0 -0.8733 0.4871
vn 0 -0.8734 0.4871
vn -1 0 0
vn 0 -0.9818 -0.1899
vn 0 -0.9818 -0.19
vn 0 -0.9777 0.2099
f 29/1/1 30/2/1 32/3/1
f 29/1/1 32/3/1 31/4/2
f 5/5/1 6/6/1 33/7/1
f 5/5/1 33/7/1 34/8/1
f 9/9/1 5/5/1 34/8/1
f 9/9/1 34/8/1 35/10/1
f 33/7/1 6/6/1 37/11/1
f 33/7/1 37/11/1 36/12/1
f 30/2/1 36/12/1 37/11/1
f 30/2/1 37/11/1 32/3/1
f 37/11/1 6/6/1 39/13/1
f 37/11/1 39/13/1 40/14/1
f 42/15/3 43/16/4 8/17/4
f 42/15/3 8/17/4 7/18/5
f 8/17/4 43/16/4 44/19/6
f 8/17/4 44/19/6 10/20/6
f 38/21/7 45/22/8 47/23/9
f 38/21/7 47/23/9 3/24/10
f 48/25/11 49/26/12 12/27/12
f 48/25/11 12/27/12 2/28/11
f 50/29/13 46/30/13 11/31/13
f 50/29/13 11/31/13 41/32/13
f 52/33/14 51/34/14 14/35/15
f 52/33/14 14/35/15 13/36/15
f 53/37/16 54/38/16 19/39/16
f 53/37/16 19/39/16 20/40/16
f 15/41/16 26/42/16 27/43/16
f 15/41/16 27/43/16 16/44/16
f 16/44/16 27/43/16 28/45/16
f 16/44/16 28/45/16 17/46/16
f 18/47/16 26/42/16 15/41/16
f 18/47/16 15/41/16 21/48/16
f 20/40/16 19/39/16 18/47/16
f 20/40/16 18/47/16 21/48/16
f 18/47/16 22/49/16 23/50/16
f 18/47/16 23/50/16 26/42/16
f 24/51/17 1/52/18 4/53/19
f 24/51/17 4/53/19 25/54/19
f 1/52/18 24/51/17 48/25/11
f 1/52/18 48/25/11 2/28/11
f 12/27/12 49/26/12 42/15/3
f 12/27/12 42/15/3 7/18/5
f 3/24/10 47/23/9 25/54/19
f 3/24/10 25/54/19 4/53/19
