o sponza_164
v -6.68334 66.5982 -25.7286
v -6.68334 66.676 -25.5351
v -6.68334 66.676 -26.0337
v -6.68334 66.5982 -25.8609
v -6.68334 67.2375 -26.2713
v -6.68334 67.0595 -26.3752
v -6.68334 67.0595 -25.3789
v -6.68334 67.2375 -25.4216
v -6.68334 67.4156 -26.0771
v -6.68334 67.4156 -25.5747
v -6.68334 66.8285 -26.1307
v -6.68334 66.8583 -25.4074
v -6.68334 66.2722 -26.7934
v -6.68334 66.1125 -26.507
v -5.9957 67.0595 -25.3789
v -5.9957 67.2375 -25.4216
v -5.9957 67.4156 -25.5747
v -5.9957 66.8285 -26.1307
v -5.9957 66.676 -26.0337
v -5.9957 66.676 -25.5351
v -5.9957 66.8583 -25.4074
v -5.9957 66.1125 -26.507
v -5.9957 66.2722 -26.7934
v -5.9957 66.5982 -25.7286
v -5.9957 66.5982 -25.8609
v -5.9957 67.0595 -26.3752
v -5.9957 67.2375 -26.2713
v -5.9957 67.4156 -26.0771
v -6.68334 66.5982 -25.7286
v -6.68334 66.676 -25.5351
v -6.68334 66.5982 -25.8609
v -6.68334 66.676 -26.0337
v -6.68334 67.0595 -25.3789
v -6.68334 67.2375 -25.4216
v -6.68334 67.4156 -25.5747
v -6.68334 66.8583 -25.4074
v -6.68334 66.8285 -26.1307
v -6.68334 66.8285 -26.1307
v -6.68334 66.2722 -26.7934
v -6.68334 66.1125 -26.507
v -6.68334 66.1125 -26.507
v -5.9957 67.0595 -25.3789
v -5.9957 67.2375 -25.4216
v -5.9957 67.4156 -25.5747
v -5.9957 66.8285 -26.1307
v -5.9957 66.8285 -26.1307
v -5.9957 66.676 -26.0337
v -5.9957 66.676 -25.5351
v -5.9957 66.8583 -25.4074
v -5.9957 66.1125 -26.507
v -5.9957 66.1125 -26.507
v -5.9957 66.2722 -26.7934
v -5.9957 66.5982 -25.7286
v -5.9957 66.5982 -25.8609
vt 0.1992 0.5029
vt 0.2019 0.5199
vt 0.1809 0.4846
vt 0.1937 0.4935
vt 0.1311 0.4913
vt 0.1394 0.4765
vt 0.1813 0.5471
vt 0.1669 0.5515
vt 0.1267 0.5126
vt 0.1478 0.5482
vt 0.166 0.4841
vt 0.1943 0.5366
vt 0.1776 0.4138
vt 0.2009 0.4273
vt 0.0645 0.2791
vt 0.0646 0.2653
vt 0.1179 0.2654
vt 0.1179 0.2792
vt 0.0646 0.2515
vt 0.118 0.2515
vt 0.1178 0.3595
vt 0.0645 0.3594
vt 0.0645 0.3476
vt 0.1178 0.3476
vt 0.0645 0.3089
vt 0.0645 0.2947
vt 0.1179 0.2948
vt 0.1179 0.3089
vt 0.0644 0.415
vt 0.0645 0.3594
vt 0.1178 0.3595
vt 0.1178 0.415
vt 0.0644 0.4372
vt 0.0644 0.415
vt 0.1178 0.415
vt 0.1177 0.4373
vt 0.1564 0.5656
vt 0.1671 0.564
vt 0.1821 0.5684
vt 0.1415 0.5741
vt 0.1331 0.6072
vt 0.2144 0.5958
vt 0.2079 0.6115
vt 0.1386 0.6212
vt 0.1941 0.6282
vt 0.1531 0.634
vt 0.1918 0.5797
vt 0.1331 0.5904
vt 0.2143 0.517
vt 0.2395 0.5268
vt 0.0645 0.3239
vt 0.1179 0.324
vt 0.1179 0.3342
vt 0.0645 0.3342
vn -1 0 0
vn 0 0.0474 0.9989
vn 0 0.4552 0.8904
vn 0 0.6519 0.7583
vn 0 -0.5369 -0.8437
vn 0 -0.7561 -0.6544
vn 0 -0.7561 -0.6545
vn 0 -0.7832 0.6217
vn 0 -0.367 0.9302
vn 0 -0.4652 0.8852
vn 0 -0.8734 -0.4871
vn 0 -0.8733 -0.4871
vn 1 0 0
vn 0 -0.9818 0.19
vn 0 -0.9818 0.1899
vn 0 -0.9777 -0.2099
f 29/1/1 30/2/1 32/3/1
f 29/1/1 32/3/1 31/4/1
f 5/5/1 6/6/1 33/7/1
f 5/5/1 33/7/1 34/8/1
f 9/9/1 5/5/1 34/8/1
f 9/9/1 34/8/1 35/10/1
f 33/7/1 6/6/1 37/11/1
f 33/7/1 37/11/1 36/12/1
f 30/2/1 36/12/1 37/11/1
f 30/2/1 37/11/1 32/3/1
f 37/11/1 6/6/1 39/13/1
f 37/11/1 39/13/1 40/14/1
f 42/15/2 43/16/3 8/17/3
f 42/15/2 8/17/3 7/18/2
f 8/17/3 43/16/3 44/19/4
f 8/17/3 44/19/4 10/20/4
f 38/21/5 45/22/5 47/23/6
f 38/21/5 47/23/6 3/24/7
f 48/25/8 49/26/9 12/27/9
f 48/25/8 12/27/9 2/28/8
f 50/29/10 46/30/10 11/31/10
f 50/29/10 11/31/10 41/32/10
f 52/33/11 51/34/11 14/35/11
f 52/33/11 14/35/11 13/36/12
f 53/37/13 54/38/13 19/39/13
f 53/37/13 19/39/13 20/40/13
f 15/41/13 26/42/13 27/43/13
f 15/41/13 27/43/13 16/44/13
f 16/44/13 27/43/13 28/45/13
f 16/44/13 28/45/13 17/46/13
f 18/47/13 26/42/13 15/41/13
f 18/47/13 15/41/13 21/48/13
f 20/40/13 19/39/13 18/47/13
f 20/40/13 18/47/13 21/48/13
f 18/47/13 22/49/13 23/50/13
f 18/47/13 23/50/13 26/42/13
f 24/51/14 1/52/15 4/53/16
f 24/51/14 4/53/16 25/54/16
f 1/52/15 24/51/14 48/25/8
f 1/52/15 48/25/8 2/28/8
f 12/27/9 49/26/9 42/15/2
f 12/27/9 42/15/2 7/18/2
f 3/24/7 47/23/6 25/54/16
f 3/24/7 25/54/16 4/53/16
