o sponza_274
v -61.9228 83.1946 19.8303
v -61.9228 84.2342 15.9507
v -61.8102 84.205 15.9429
v -61.8102 83.1655 19.8225
v -62.0053 83.2743 19.8517
v -62.0053 84.3138 15.9721
v -62.0354 83.383 19.8808
v -62.0354 84.4226 16.0012
v -62.0053 83.4918 19.91
v -62.0053 84.5313 16.0304
v -61.9228 83.5714 19.9313
v -61.9228 84.611 16.0517
v -61.8102 83.6006 19.9391
v -61.8102 84.6401 16.0595
v -61.6976 83.5714 19.9313
v -61.6976 84.611 16.0517
v -61.6152 83.4918 19.91
v -61.6152 84.5313 16.0304
v -61.585 83.383 19.8808
v -61.585 84.4226 16.0012
v -61.6152 83.2743 19.8517
v -61.6152 84.3138 15.9721
v -61.6976 83.1946 19.8303
v -61.6976 84.2342 15.9507
v -61.9228 85.2737 12.0711
v -61.8102 85.2446 12.0633
v -62.0053 85.3533 12.0925
v -62.0354 85.4621 12.1216
v -62.0053 85.5709 12.1508
v -61.9228 85.6505 12.1721
v -61.8102 85.6797 12.1799
v -61.6976 85.6505 12.1721
v -61.6152 85.5709 12.1508
v -61.585 85.4621 12.1216
v -61.6152 85.3533 12.0925
v -61.6976 85.2737 12.0711
v -61.9228 86.3132 8.19153
v -61.8102 86.2841 8.18372
v -62.0053 86.3929 8.21287
v -62.0354 86.5016 8.24201
v -62.0053 86.6104 8.27116
v -61.9228 86.6901 8.29251
v -61.8102 86.7192 8.30031
v -61.6976 86.6901 8.29251
v -61.6152 86.6104 8.27116
v -61.585 86.5016 8.24201
v -61.6152 86.3929 8.21287
v -61.6976 86.3132 8.19153
v -61.863 88.4356 0.787683
v -61.8102 88.4062 0.779803
v -61.8407 88.4141 0.781913
v -61.863 88.4944 0.803453
v -61.8407 88.516 0.809233
v -61.8102 88.5239 0.811343
v -61.7797 88.516 0.809233
v -61.7574 88.4944 0.803453
v -61.7574 88.4356 0.787683
v -61.7493 88.465 0.795573
v -61.8711 88.465 0.795573
v -61.7797 88.4141 0.781913
v -61.9228 87.5882 3.43328
v -61.9648 87.6052 3.08869
v -61.8102 87.5652 3.07797
v -61.8102 87.5591 3.42547
v -62.0053 87.6678 3.45462
v -62.078 87.7146 3.11798
v -62.0354 87.7766 3.48376
v -62.1194 87.8639 3.158
v -62.0053 87.8854 3.51291
v -62.078 88.0132 3.19801
v -61.9228 87.965 3.53425
v -61.9648 88.1226 3.22731
v -61.8102 87.9942 3.54206
v -61.8102 88.1626 3.23803
v -61.6976 87.965 3.53425
v -61.6556 88.1226 3.22731
v -61.6152 87.8854 3.51291
v -61.5424 88.0132 3.19801
v -61.585 87.7766 3.48376
v -61.501 87.8639 3.158
v -61.6152 87.6678 3.45462
v -61.5424 87.7146 3.11798
v -61.6976 87.5882 3.43328
v -61.6556 87.6052 3.08869
v -62.0034 87.8025 2.09407
v -61.9751 88.0196 1.41422
v -61.8102 87.9769 1.40279
v -61.8102 87.7525 2.08067
v -62.1449 87.9391 2.13068
v -62.0958 88.1361 1.44546
v -62.1967 88.1258 2.1807
v -62.14 88.2954 1.48814
v -62.1449 88.3124 2.23071
v -62.0958 88.4547 1.53081
v -62.0034 88.4491 2.26732
v -61.9751 88.5712 1.56205
v -61.8102 88.4991 2.28073
v -61.8102 88.6139 1.57348
v -61.617 88.4491 2.26732
v -61.6453 88.5712 1.56205
v -61.4755 88.3124 2.23071
v -61.5246 88.4547 1.53081
v -61.4237 88.1258 2.1807
v -61.4804 88.2954 1.48814
v -61.4755 87.9391 2.13068
v -61.5246 88.1361 1.44546
v -61.617 87.8025 2.09407
v -61.6453 88.0196 1.41422
v -61.9631 87.6953 2.76368
v -61.8102 87.6558 2.75307
v -62.0751 87.8035 2.79265
v -62.116 87.9512 2.83223
v -62.0751 88.0989 2.87181
v -61.9631 88.207 2.90079
v -61.8102 88.2466 2.91139
v -61.6573 88.207 2.90079
v -61.5453 88.0989 2.87181
v -61.5043 87.9512 2.83223
v -61.5453 87.8035 2.79265
v -61.6573 87.6953 2.76368
vt 0.9633 0.0053
vt 0.9633 0.5241
vt 0.9876 0.5241
vt 0.9876 0.0053
vt 0.9391 0.0053
vt 0.9391 0.5241
vt 0.9148 0.0053
vt 0.9148 0.5241
vt 0.8906 0.0053
vt 0.8906 0.5241
vt 0.8663 0.0053
vt 0.8663 0.5241
vt 0.8421 0.0053
vt 0.8421 0.5241
vt 0.8178 0.0053
vt 0.8178 0.5241
vt 0.7936 0.0053
vt 0.7936 0.5241
vt 0.7694 0.0053
vt 0.7694 0.5241
vt 0.7451 0.0053
vt 0.7451 0.5241
vt 0.7209 0.0053
vt 0.7209 0.5241
vt 0.6966 0.0053
vt 0.6966 0.5241
vt 0.9633 0.0053
vt 0.9633 0.5241
vt 0.9876 0.5241
vt 0.9876 0.0053
vt 0.9391 0.0053
vt 0.9391 0.5241
vt 0.9148 0.0053
vt 0.9148 0.5241
vt 0.8906 0.0053
vt 0.8906 0.5241
vt 0.8663 0.0053
vt 0.8663 0.5241
vt 0.8421 0.0053
vt 0.8421 0.5241
vt 0.8178 0.0053
vt 0.8178 0.5241
vt 0.7936 0.0053
vt 0.7936 0.5241
vt 0.7694 0.0053
vt 0.7694 0.5241
vt 0.7451 0.0053
vt 0.7451 0.5241
vt 0.7209 0.0053
vt 0.7209 0.5241
vt 0.6966 0.0053
vt 0.6966 0.5241
vt 0.9633 0.0053
vt 0.9633 0.5241
vt 0.9876 0.5241
vt 0.9876 0.0053
vt 0.9391 0.0053
vt 0.9391 0.5241
vt 0.9148 0.0053
vt 0.9148 0.5241
vt 0.8906 0.0053
vt 0.8906 0.5241
vt 0.8663 0.0053
vt 0.8663 0.5241
vt 0.8421 0.0053
vt 0.8421 0.5241
vt 0.8178 0.0053
vt 0.8178 0.5241
vt 0.7936 0.0053
vt 0.7936 0.5241
vt 0.7694 0.0053
vt 0.7694 0.5241
vt 0.7451 0.0053
vt 0.7451 0.5241
vt 0.7209 0.0053
vt 0.7209 0.5241
vt 0.6966 0.0053
vt 0.6966 0.5241
vt 0.9918 0.0129
vt 0.9918 0.0129
vt 0.9918 0.0129
vt 0.9918 0.0129
vt 0.9918 0.0129
vt 0.9918 0.0129
vt 0.9918 0.0129
vt 0.9918 0.0129
vt 0.9918 0.0129
vt 0.9918 0.0129
vt 0.9918 0.0129
vt 0.9918 0.0129
vt 0.9633 0.6416
vt 0.9633 0.6851
vt 0.9876 0.6851
vt 0.9876 0.6416
vt 0.9391 0.6416
vt 0.9391 0.6851
vt 0.9148 0.6416
vt 0.9148 0.6851
vt 0.8906 0.6416
vt 0.8906 0.6851
vt 0.8663 0.6416
vt 0.8663 0.6851
vt 0.8421 0.6416
vt 0.8421 0.6851
vt 0.8178 0.6416
vt 0.8178 0.6851
vt 0.7936 0.6416
vt 0.7936 0.6851
vt 0.7694 0.6416
vt 0.7694 0.6851
vt 0.7451 0.6416
vt 0.7451 0.6851
vt 0.7209 0.6416
vt 0.7209 0.6851
vt 0.6966 0.6416
vt 0.6966 0.6851
vt 0.9633 0.8158
vt 0.9633 0.9029
vt 0.9876 0.9029
vt 0.9876 0.8158
vt 0.9391 0.8158
vt 0.9391 0.9029
vt 0.9148 0.8158
vt 0.9148 0.9029
vt 0.8906 0.8158
vt 0.8906 0.9029
vt 0.8663 0.8158
vt 0.8663 0.9029
vt 0.8421 0.8158
vt 0.8421 0.9029
vt 0.8178 0.8158
vt 0.8178 0.9029
vt 0.7936 0.8158
vt 0.7936 0.9029
vt 0.7694 0.8158
vt 0.7694 0.9029
vt 0.7451 0.8158
vt 0.7451 0.9029
vt 0.7209 0.8158
vt 0.7209 0.9029
vt 0.6966 0.8158
vt 0.6966 0.9029
vt 0.9633 0.99
vt 0.9876 0.99
vt 0.9391 0.99
vt 0.9148 0.99
vt 0.8906 0.99
vt 0.8663 0.99
vt 0.8421 0.99
vt 0.8178 0.99
vt 0.7936 0.99
vt 0.7694 0.99
vt 0.7451 0.99
vt 0.7209 0.99
vt 0.6966 0.99
vt 0.9633 0.7287
vt 0.9876 0.7287
vt 0.9391 0.7287
vt 0.9148 0.7287
vt 0.8906 0.7287
vt 0.8663 0.7287
vt 0.8421 0.7287
vt 0.8178 0.7287
vt 0.7936 0.7287
vt 0.7694 0.7287
vt 0.7451 0.7287
vt 0.7209 0.7287
vt 0.6966 0.7287
vt 0.9633 0.0053
vt 0.9876 0.0053
vt 0.9391 0.0053
vt 0.9148 0.0053
vt 0.8906 0.0053
vt 0.8663 0.0053
vt 0.8421 0.0053
vt 0.8178 0.0053
vt 0.7936 0.0053
vt 0.7694 0.0053
vt 0.7451 0.0053
vt 0.7209 0.0053
vt 0.6966 0.0053
vn -0.4999 -0.8366 -0.2242
vn -0.5 -0.8365 -0.2241
vn 0 -0.9659 -0.2588
vn -0.866 -0.483 -0.1294
vn -1 0 0
vn -0.866 0.483 0.1294
vn -0.5 0.8365 0.2242
vn -0.5 0.8365 0.2241
vn -0 0.9659 0.2588
vn 0.5 0.8365 0.2241
vn 0.866 0.483 0.1294
vn 0.866 0.4829 0.1294
vn 1 0 0
vn 0.866 -0.4829 -0.1294
vn 0.866 -0.483 -0.1294
vn 0.5 -0.8365 -0.2241
vn 0.5001 -0.8365 -0.2241
vn -0.5 -0.8365 -0.2242
vn -0.4999 -0.8365 -0.2241
vn -0.866 0.4829 0.1294
vn -0.5447 -0.105 -0.832
vn -0 -0.4122 -0.9111
vn -0.3154 -0.3298 -0.8898
vn -0.5399 0.5018 -0.6758
vn -0.3109 0.7212 -0.6191
vn 0 0.801 -0.5987
vn 0.3109 0.7211 -0.6191
vn 0.5401 0.5015 -0.6759
vn 0.5448 -0.1049 -0.832
vn 0.6264 0.1989 -0.7537
vn -0.6265 0.1997 -0.7534
vn 0.3154 -0.3296 -0.8899
vn -0.4961 -0.8622 -0.1024
vn -0.4967 -0.8607 -0.1121
vn 0 -0.9892 -0.1466
vn 0 -0.9906 -0.1368
vn -0.8593 -0.5114 -0.0084
vn -0.8603 -0.5094 -0.018
vn -0.9923 -0.0321 0.12
vn -0.9934 -0.0296 0.1105
vn -0.8593 0.4471 0.2484
vn -0.8603 0.4502 0.2391
vn -0.4961 0.7979 0.3424
vn -0.4967 0.8014 0.3332
vn 0 0.9263 0.3768
vn -0 0.93 0.3676
vn 0.4962 0.7979 0.3424
vn 0.4967 0.8014 0.3332
vn 0.8593 0.4471 0.2484
vn 0.8603 0.4502 0.2391
vn 0.9923 -0.0322 0.12
vn 0.9934 -0.0296 0.1106
vn 0.8593 -0.5114 -0.0084
vn 0.8603 -0.5094 -0.018
vn 0.4961 -0.8622 -0.1024
vn 0.4967 -0.8606 -0.1122
vn -0.5005 -0.8432 -0.1963
vn -0.49 -0.7694 -0.4097
vn -0 -0.8974 -0.4413
vn -0 -0.9733 -0.2296
vn -0.8665 -0.488 -0.1051
vn -0.8476 -0.4204 -0.3236
vn -0.9998 -0.0034 0.0192
vn -0.977 0.0548 -0.2063
vn -0.8652 0.4805 0.1434
vn -0.8444 0.5282 -0.0895
vn -0.4992 0.8342 0.2342
vn -0.4868 0.8735 -0.0042
vn -0 0.9636 0.2674
vn 0 0.9996 0.0269
vn 0.4992 0.8342 0.2342
vn 0.4868 0.8735 -0.0042
vn 0.8652 0.4805 0.1434
vn 0.8444 0.5281 -0.0895
vn 0.9998 -0.0033 0.0192
vn 0.977 0.0548 -0.2063
vn 0.8665 -0.4879 -0.1051
vn 0.8477 -0.4204 -0.3236
vn 0.5006 -0.8432 -0.1963
vn 0.49 -0.7694 -0.4097
vn -0.4992 -0.8495 -0.1706
vn -0 -0.9787 -0.2052
vn -0.8647 -0.4965 -0.076
vn -0.9985 -0.0143 0.0532
vn -0.8647 0.468 0.1824
vn -0.4992 0.821 0.277
vn -0 0.9502 0.3116
vn 0.4993 0.821 0.277
vn 0.8647 0.468 0.1824
vn 0.9985 -0.0142 0.0532
vn 0.8647 -0.4965 -0.076
vn 0.4993 -0.8495 -0.1706
f 1/1/1 2/2/2 3/3/3
f 1/1/1 3/3/3 4/4/3
f 2/2/2 1/1/1 5/5/4
f 2/2/2 5/5/4 6/6/4
f 7/7/5 8/8/5 6/6/4
f 7/7/5 6/6/4 5/5/4
f 9/9/6 10/10/6 8/8/5
f 9/9/6 8/8/5 7/7/5
f 11/11/7 12/12/8 10/10/6
f 11/11/7 10/10/6 9/9/6
f 13/13/9 14/14/9 12/12/8
f 13/13/9 12/12/8 11/11/7
f 15/15/10 16/16/10 14/14/9
f 15/15/10 14/14/9 13/13/9
f 17/17/11 18/18/12 16/16/10
f 17/17/11 16/16/10 15/15/10
f 19/19/13 20/20/13 18/18/12
f 19/19/13 18/18/12 17/17/11
f 21/21/14 22/22/15 20/20/13
f 21/21/14 20/20/13 19/19/13
f 23/23/16 24/24/17 22/22/15
f 23/23/16 22/22/15 21/21/14
f 4/25/3 3/26/3 24/24/17
f 4/25/3 24/24/17 23/23/16
f 2/27/2 25/28/18 26/29/3
f 2/27/2 26/29/3 3/30/3
f 6/31/4 27/32/4 25/28/18
f 6/31/4 25/28/18 2/27/2
f 8/33/5 28/34/5 27/32/4
f 8/33/5 27/32/4 6/31/4
f 10/35/6 29/36/6 28/34/5
f 10/35/6 28/34/5 8/33/5
f 12/37/8 30/38/8 29/36/6
f 12/37/8 29/36/6 10/35/6
f 14/39/9 31/40/9 30/38/8
f 14/39/9 30/38/8 12/37/8
f 16/41/10 32/42/10 31/40/9
f 16/41/10 31/40/9 14/39/9
f 18/43/12 33/44/11 32/42/10
f 18/43/12 32/42/10 16/41/10
f 20/45/13 34/46/13 33/44/11
f 20/45/13 33/44/11 18/43/12
f 22/47/15 35/48/15 34/46/13
f 22/47/15 34/46/13 20/45/13
f 24/49/17 36/50/16 35/48/15
f 24/49/17 35/48/15 22/47/15
f 3/51/3 26/52/3 36/50/16
f 3/51/3 36/50/16 24/49/17
f 25/53/18 37/54/19 38/55/3
f 25/53/18 38/55/3 26/56/3
f 27/57/4 39/58/4 37/54/19
f 27/57/4 37/54/19 25/53/18
f 28/59/5 40/60/5 39/58/4
f 28/59/5 39/58/4 27/57/4
f 29/61/6 41/62/20 40/60/5
f 29/61/6 40/60/5 28/59/5
f 30/63/8 42/64/8 41/62/20
f 30/63/8 41/62/20 29/61/6
f 31/65/9 43/66/9 42/64/8
f 31/65/9 42/64/8 30/63/8
f 32/67/10 44/68/10 43/66/9
f 32/67/10 43/66/9 31/65/9
f 33/69/11 45/70/12 44/68/10
f 33/69/11 44/68/10 32/67/10
f 34/71/13 46/72/13 45/70/12
f 34/71/13 45/70/12 33/69/11
f 35/73/15 47/74/15 46/72/13
f 35/73/15 46/72/13 34/71/13
f 36/75/16 48/76/16 47/74/15
f 36/75/16 47/74/15 35/73/15
f 26/77/3 38/78/3 48/76/16
f 26/77/3 48/76/16 36/75/16
f 49/79/21 50/80/22 51/81/23
f 52/82/24 53/83/25 54/84/26
f 52/82/24 54/84/26 49/79/21
f 54/84/26 55/85/27 56/86/28
f 54/84/26 56/86/28 57/87/29
f 56/86/28 58/88/30 57/87/29
f 57/87/29 50/80/22 49/79/21
f 57/87/29 49/79/21 54/84/26
f 59/89/31 52/82/24 49/79/21
f 60/90/32 50/80/22 57/87/29
f 61/91/33 62/92/34 63/93/35
f 61/91/33 63/93/35 64/94/36
f 65/95/37 66/96/38 62/92/34
f 65/95/37 62/92/34 61/91/33
f 67/97/39 68/98/40 66/96/38
f 67/97/39 66/96/38 65/95/37
f 69/99/41 70/100/42 68/98/40
f 69/99/41 68/98/40 67/97/39
f 71/101/43 72/102/44 70/100/42
f 71/101/43 70/100/42 69/99/41
f 73/103/45 74/104/46 72/102/44
f 73/103/45 72/102/44 71/101/43
f 75/105/47 76/106/48 74/104/46
f 75/105/47 74/104/46 73/103/45
f 77/107/49 78/108/50 76/106/48
f 77/107/49 76/106/48 75/105/47
f 79/109/51 80/110/52 78/108/50
f 79/109/51 78/108/50 77/107/49
f 81/111/53 82/112/54 80/110/52
f 81/111/53 80/110/52 79/109/51
f 83/113/55 84/114/56 82/112/54
f 83/113/55 82/112/54 81/111/53
f 64/115/36 63/116/35 84/114/56
f 64/115/36 84/114/56 83/113/55
f 85/117/57 86/118/58 87/119/59
f 85/117/57 87/119/59 88/120/60
f 85/117/57 89/121/61 90/122/62
f 85/117/57 90/122/62 86/118/58
f 89/121/61 91/123/63 92/124/64
f 89/121/61 92/124/64 90/122/62
f 91/123/63 93/125/65 94/126/66
f 91/123/63 94/126/66 92/124/64
f 93/125/65 95/127/67 96/128/68
f 93/125/65 96/128/68 94/126/66
f 97/129/69 98/130/70 96/128/68
f 97/129/69 96/128/68 95/127/67
f 99/131/71 100/132/72 98/130/70
f 99/131/71 98/130/70 97/129/69
f 101/133/73 102/134/74 100/132/72
f 101/133/73 100/132/72 99/131/71
f 103/135/75 104/136/76 102/134/74
f 103/135/75 102/134/74 101/133/73
f 105/137/77 106/138/78 104/136/76
f 105/137/77 104/136/76 103/135/75
f 107/139/79 108/140/80 106/138/78
f 107/139/79 106/138/78 105/137/77
f 88/141/60 87/142/59 108/140/80
f 88/141/60 108/140/80 107/139/79
f 86/118/58 51/143/23 50/144/22
f 86/118/58 50/144/22 87/119/59
f 90/122/62 49/145/21 51/143/23
f 90/122/62 51/143/23 86/118/58
f 90/122/62 92/124/64 59/146/31
f 90/122/62 59/146/31 49/145/21
f 92/124/64 94/126/66 52/147/24
f 92/124/64 52/147/24 59/146/31
f 96/128/68 53/148/25 52/147/24
f 96/128/68 52/147/24 94/126/66
f 98/130/70 54/149/26 53/148/25
f 98/130/70 53/148/25 96/128/68
f 100/132/72 55/150/27 54/149/26
f 100/132/72 54/149/26 98/130/70
f 102/134/74 56/151/28 55/150/27
f 102/134/74 55/150/27 100/132/72
f 104/136/76 58/152/30 56/151/28
f 104/136/76 56/151/28 102/134/74
f 106/138/78 57/153/29 58/152/30
f 106/138/78 58/152/30 104/136/76
f 108/140/80 60/154/32 57/153/29
f 108/140/80 57/153/29 106/138/78
f 87/142/59 50/155/22 60/154/32
f 87/142/59 60/154/32 108/140/80
f 109/156/81 85/117/57 88/120/60
f 109/156/81 88/120/60 110/157/82
f 111/158/83 89/121/61 85/117/57
f 111/158/83 85/117/57 109/156/81
f 112/159/84 91/123/63 89/121/61
f 112/159/84 89/121/61 111/158/83
f 113/160/85 93/125/65 91/123/63
f 113/160/85 91/123/63 112/159/84
f 114/161/86 95/127/67 93/125/65
f 114/161/86 93/125/65 113/160/85
f 115/162/87 97/129/69 95/127/67
f 115/162/87 95/127/67 114/161/86
f 116/163/88 99/131/71 97/129/69
f 116/163/88 97/129/69 115/162/87
f 117/164/89 101/133/73 99/131/71
f 117/164/89 99/131/71 116/163/88
f 118/165/90 103/135/75 101/133/73
f 118/165/90 101/133/73 117/164/89
f 119/166/91 105/137/77 103/135/75
f 119/166/91 103/135/75 118/165/90
f 120/167/92 107/139/79 105/137/77
f 120/167/92 105/137/77 119/166/91
f 110/168/82 88/141/60 107/139/79
f 110/168/82 107/139/79 120/167/92
f 62/92/34 109/156/81 110/157/82
f 62/92/34 110/157/82 63/93/35
f 66/96/38 111/158/83 109/156/81
f 66/96/38 109/156/81 62/92/34
f 68/98/40 112/159/84 111/158/83
f 68/98/40 111/158/83 66/96/38
f 70/100/42 113/160/85 112/159/84
f 70/100/42 112/159/84 68/98/40
f 72/102/44 114/161/86 113/160/85
f 72/102/44 113/160/85 70/100/42
f 74/104/46 115/162/87 114/161/86
f 74/104/46 114/161/86 72/102/44
f 76/106/48 116/163/88 115/162/87
f 76/106/48 115/162/87 74/104/46
f 78/108/50 117/164/89 116/163/88
f 78/108/50 116/163/88 76/106/48
f 80/110/52 118/165/90 117/164/89
f 80/110/52 117/164/89 78/108/50
f 82/112/54 119/166/91 118/165/90
f 82/112/54 118/165/90 80/110/52
f 84/114/56 120/167/92 119/166/91
f 84/114/56 119/166/91 82/112/54
f 63/116/35 110/168/82 120/167/92
f 63/116/35 120/167/92 84/114/56
f 37/169/19 61/91/33 64/94/36
f 37/169/19 64/94/36 38/170/3
f 39/171/4 65/95/37 61/91/33
f 39/171/4 61/91/33 37/169/19
f 40/172/5 67/97/39 65/95/37
f 40/172/5 65/95/37 39/171/4
f 41/173/20 69/99/41 67/97/39
f 41/173/20 67/97/39 40/172/5
f 42/174/8 71/101/43 69/99/41
f 42/174/8 69/99/41 41/173/20
f 43/175/9 73/103/45 71/101/43
f 43/175/9 71/101/43 42/174/8
f 44/176/10 75/105/47 73/103/45
f 44/176/10 73/103/45 43/175/9
f 45/177/12 77/107/49 75/105/47
f 45/177/12 75/105/47 44/176/10
f 46/178/13 79/109/51 77/107/49
f 46/178/13 77/107/49 45/177/12
f 47/179/15 81/111/53 79/109/51
f 47/179/15 79/109/51 46/178/13
f 48/180/16 83/113/55 81/111/53
f 48/180/16 81/111/53 47/179/15
f 38/181/3 64/115/36 83/113/55
f 38/181/3 83/113/55 48/180/16
