o sponza_184
v -41.0822 66.5982 -27.6673
v -40.8888 66.676 -27.6673
v -41.3873 66.676 -27.6673
v -41.2145 66.5982 -27.6673
v -41.6249 67.2375 -27.6673
v -41.7288 67.0595 -27.6673
v -40.7326 67.0595 -27.6673
v -40.7752 67.2375 -27.6673
v -41.4307 67.4156 -27.6673
v -40.9283 67.4156 -27.6673
v -41.4844 66.8285 -27.6673
v -40.761 66.8583 -27.6673
v -42.147 66.2722 -27.6673
v -41.8607 66.1125 -27.6673
v -40.7326 67.0595 -28.3549
v -40.7752 67.2375 -28.3549
v -40.7752 67.2375 -27.6673
v -40.7326 67.0595 -27.6673
v -40.9283 67.4156 -28.3549
v -40.9283 67.4156 -27.6673
v -41.4844 66.8285 -27.6673
v -41.4844 66.8285 -28.3549
v -41.3873 66.676 -28.3549
v -41.3873 66.676 -27.6673
v -40.8888 66.676 -28.3549
v -40.761 66.8583 -28.3549
v -40.761 66.8583 -27.6673
v -40.8888 66.676 -27.6673
v -41.8607 66.1125 -28.3549
v -41.4844 66.8285 -28.3549
v -41.4844 66.8285 -27.6673
v -41.8607 66.1125 -27.6673
v -42.147 66.2722 -28.3549
v -41.8607 66.1125 -28.3549
v -41.8607 66.1125 -27.6673
v -42.147 66.2722 -27.6673
v -41.0822 66.5982 -28.3549
v -41.2145 66.5982 -28.3549
v -41.3873 66.676 -28.3549
v -40.8888 66.676 -28.3549
v -40.7326 67.0595 -28.3549
v -41.7288 67.0595 -28.3549
v -41.6249 67.2375 -28.3549
v -40.7752 67.2375 -28.3549
v -41.4307 67.4156 -28.3549
v -40.9283 67.4156 -28.3549
v -41.4844 66.8285 -28.3549
v -40.761 66.8583 -28.3549
v -41.8607 66.1125 -28.3549
v -42.147 66.2722 -28.3549
v -41.0822 66.5982 -28.3549
v -41.0822 66.5982 -27.6673
v -41.2145 66.5982 -27.6673
v -41.2145 66.5982 -28.3549
v -40.8888 66.676 -28.3549
v -40.8888 66.676 -27.6673
v -41.3873 66.676 -27.6673
v -41.3873 66.676 -28.3549
vt 0.2029 0.2838
vt 0.2022 0.301
vt 0.1884 0.2623
vt 0.1992 0.2736
vt 0.1382 0.2595
vt 0.1492 0.2465
vt 0.1768 0.3237
vt 0.1618 0.3254
vt 0.1298 0.2795
vt 0.1437 0.3184
vt 0.1739 0.259
vt 0.1916 0.316
vt 0.1986 0.1922
vt 0.219 0.21
vt 0.1204 0.6012
vt 0.1206 0.615
vt 0.0673 0.6159
vt 0.067 0.602
vt 0.1208 0.6289
vt 0.0675 0.6297
vt 0.0658 0.5218
vt 0.1192 0.5209
vt 0.1194 0.5328
vt 0.066 0.5336
vt 0.12 0.5715
vt 0.1202 0.5856
vt 0.0668 0.5864
vt 0.0666 0.5723
vt 0.1183 0.4654
vt 0.1192 0.5209
vt 0.0658 0.5218
vt 0.0649 0.4662
vt 0.118 0.4431
vt 0.1183 0.4654
vt 0.0649 0.4662
vt 0.0646 0.444
vt 0.1533 0.3311
vt 0.164 0.3294
vt 0.1791 0.3335
vt 0.1385 0.3399
vt 0.1307 0.3731
vt 0.2118 0.3603
vt 0.2056 0.3762
vt 0.1365 0.387
vt 0.1921 0.3931
vt 0.1512 0.3996
vt 0.1889 0.3447
vt 0.1305 0.3564
vt 0.2104 0.2816
vt 0.2357 0.2909
vt 0.1197 0.5564
vt 0.0664 0.5573
vt 0.0662 0.547
vt 0.1196 0.5462
vt 0.12 0.5715
vt 0.0666 0.5723
vt 0.066 0.5336
vt 0.1194 0.5328
vn 0 0 1
vn 0 0 1
vn 0 0 1
vn 0 0 1
vn 0 0 1
vn 0 0 1
vn 0 0 1
vn 0 0 1
vn 0 0 1
vn 0 0 1
vn 0 0 1
vn 0 0 1
vn 0 0 1
vn 0 0 1
vn 0.9989 0.0473 0
vn 0.8904 0.4552 0
vn 0.8904 0.4552 0
vn 0.9989 0.0474 0
vn 0.7583 0.6519 0
vn 0.7583 0.6519 0
vn -0.8437 -0.5369 0
vn -0.8436 -0.5369 0
vn -0.8436 -0.5369 0
vn -0.8437 -0.5369 0
vn 0.819 -0.5738 0
vn 0.9302 -0.367 0
vn 0.9302 -0.367 0
vn 0.819 -0.5738 0
vn 0.8852 -0.4652 0
vn 0.8852 -0.4652 0
vn 0.8852 -0.4652 0
vn 0.8852 -0.4652 0
vn -0.4871 -0.8734 0
vn -0.4871 -0.8733 0
vn -0.4871 -0.8734 0
vn -0.4871 -0.8734 0
vn 0 0 -1
vn 0 0 -1
vn 0 0 -1
vn 0 0 -1
vn 0 0 -1
vn 0 0 -1
vn 0 0 -1
vn 0 0 -1
vn 0 0 -1
vn 0 0 -1
vn 0 0 -1
vn 0 0 -1
vn 0 0 -1
vn 0 0 -1
vn 0.1899 -0.9818 0
vn 0.19 -0.9818 0
vn -0.2099 -0.9777 0
vn -0.2099 -0.9777 0
vn 0.373 -0.9278 0
vn 0.373 -0.9278 0
vn -0.4104 -0.9119 0
vn -0.4104 -0.9119 0
f 1/1/1 2/2/2 3/3/3
f 1/1/1 3/3/3 4/4/4
f 5/5/5 6/6/6 7/7/7
f 5/5/5 7/7/7 8/8/8
f 9/9/9 5/5/5 8/8/8
f 9/9/9 8/8/8 10/10/10
f 7/7/7 6/6/6 11/11/11
f 7/7/7 11/11/11 12/12/12
f 2/2/2 12/12/12 11/11/11
f 2/2/2 11/11/11 3/3/3
f 11/11/11 6/6/6 13/13/13
f 11/11/11 13/13/13 14/14/14
f 15/15/15 16/16/16 17/17/17
f 15/15/15 17/17/17 18/18/18
f 17/17/17 16/16/16 19/19/19
f 17/17/17 19/19/19 20/20/20
f 21/21/21 22/22/22 23/23/23
f 21/21/21 23/23/23 24/24/24
f 25/25/25 26/26/26 27/27/27
f 25/25/25 27/27/27 28/28/28
f 29/29/29 30/30/30 31/31/31
f 29/29/29 31/31/31 32/32/32
f 33/33/33 34/34/34 35/35/35
f 33/33/33 35/35/35 36/36/36
f 37/37/37 38/38/38 39/39/39
f 37/37/37 39/39/39 40/40/40
f 41/41/41 42/42/42 43/43/43
f 41/41/41 43/43/43 44/44/44
f 44/44/44 43/43/43 45/45/45
f 44/44/44 45/45/45 46/46/46
f 47/47/47 42/42/42 41/41/41
f 47/47/47 41/41/41 48/48/48
f 40/40/40 39/39/39 47/47/47
f 40/40/40 47/47/47 48/48/48
f 47/47/47 49/49/49 50/50/50
f 47/47/47 50/50/50 42/42/42
f 51/51/51 52/52/52 53/53/53
f 51/51/51 53/53/53 54/54/54
f 52/52/52 51/51/51 55/55/55
f 52/52/52 55/55/55 56/56/56
f 27/27/27 26/26/26 15/15/15
f 27/27/27 15/15/15 18/18/18
f 57/57/57 58/58/58 54/54/54
f 57/57/57 54/54/54 53/53/53
