o sponza_233
v -83.3309 68.7191 23.4427
v -83.3731 68.7191 23.4252
v -83.4193 68.7191 23.379
v -83.4368 68.7191 17.6493
v -83.4368 68.7191 23.2611
v -83.4368 68.7191 17.7664
v -83.4368 68.7191 23.3367
v -83.4193 68.7191 17.6071
v -83.3731 68.7191 17.5608
v -77.6328 68.7191 17.5433
v -83.1991 68.7191 17.5433
v -77.7301 68.7191 17.5433
v -83.3309 68.7191 17.5433
v -77.5906 68.7191 17.5608
v -77.5444 68.7191 17.607
v -77.5269 68.7191 23.3367
v -77.5269 68.7191 17.7644
v -77.5269 68.7191 23.1995
v -77.5269 68.7191 17.6493
v -77.5906 68.7191 23.4252
v -77.5444 68.7191 23.379
v -83.2859 68.7191 23.4427
v -77.761 68.7191 23.4427
v -77.6328 68.7191 23.4427
v -77.5269 69.5666 17.6493
v -77.5444 69.5666 17.607
v -77.5906 69.5666 17.5608
v -83.3309 69.5666 17.5433
v -77.7301 69.5666 17.5433
v -83.1991 69.5666 17.5433
v -77.6328 69.5666 17.5433
v -83.3731 69.5666 17.5608
v -83.4193 69.5666 17.6071
v -83.4368 69.5666 23.3367
v -83.4368 69.5666 17.7664
v -83.4368 69.5666 23.2611
v -83.4368 69.5666 17.6493
v -83.4193 69.5666 23.379
v -83.3731 69.5666 23.4252
v -77.6328 69.5666 23.4427
v -83.2859 69.5666 23.4427
v -77.761 69.5666 23.4427
v -83.3309 69.5666 23.4427
v -77.5906 69.5666 23.4252
v -77.5444 69.5666 23.379
v -77.5269 69.5666 23.1995
v -77.5269 69.5666 17.7644
v -77.5269 69.5666 23.3367
v -77.6259 68.7538 23.4774
v -77.6259 69.3395 23.4774
v -77.7544 69.1431 23.4774
v -77.7544 68.9467 23.4774
v -83.4715 68.7538 23.3436
v -83.4715 69.3395 23.3436
v -83.4715 69.1431 23.2678
v -83.4715 68.9467 23.2678
v -83.3927 68.7538 23.4546
v -83.3927 69.5319 23.4546
v -83.4487 69.532 23.3986
v -83.4487 68.7538 23.3986
v -77.571 68.7538 23.4546
v -77.515 68.7538 23.3986
v -77.515 69.532 23.3986
v -77.571 69.5319 23.4546
v -83.4487 68.7538 17.5874
v -83.4487 69.532 17.5874
v -83.3927 69.532 17.5314
v -83.3927 68.7538 17.5314
v -83.3378 69.3395 23.4774
v -83.3378 69.5319 23.4774
v -83.3378 68.7538 23.4774
v -77.6259 69.5319 23.4774
v -83.4715 68.7538 17.6424
v -83.4715 69.3395 17.6424
v -83.4715 69.532 23.3436
v -77.4922 68.7538 23.3436
v -77.4922 69.3395 23.3436
v -77.4922 69.532 23.3436
v -83.3378 69.3395 17.5086
v -83.3378 68.7538 17.5086
v -83.4715 68.7538 17.7598
v -83.2927 68.7538 23.4774
v -77.7544 69.5319 23.4774
v -83.4715 69.532 23.2678
v -83.3378 69.532 17.5086
v -83.4715 69.532 17.6424
v -83.2057 69.1431 17.5086
v -83.2057 68.9467 17.5086
v -77.4922 68.7538 17.6424
v -77.4922 69.3395 17.6424
v -77.4922 69.1431 17.7578
v -77.4922 68.9467 17.7578
v -77.571 68.7538 17.5314
v -77.571 69.532 17.5314
v -77.515 69.532 17.5874
v -77.515 68.7538 17.5874
v -77.6259 69.3395 17.5086
v -77.6259 69.532 17.5086
v -77.6259 68.7538 17.5086
v -77.4922 69.532 17.6424
v -77.4922 68.7538 23.2061
v -77.7235 68.7538 17.5086
v -83.2057 69.532 17.5086
v -77.4922 69.532 17.7578
v -83.2927 69.3395 23.4774
v -83.4715 69.3395 17.7598
v -83.4715 69.532 17.7598
v -77.7235 69.3395 17.5086
v -77.4922 69.3395 23.2061
v -77.7544 68.7538 23.4774
v -77.8026 68.9467 23.4774
v -83.2927 69.5319 23.4774
v -77.7544 69.3395 23.4774
v -83.2253 69.3395 23.4774
v -83.2927 69.1431 23.4774
v -83.2253 69.1431 23.2062
v -83.2927 68.9467 23.4774
v -83.4715 68.9467 17.7598
v -83.4715 68.7538 23.2678
v -83.4715 69.3395 17.8122
v -83.4715 69.1431 17.7598
v -83.2766 69.1431 17.8122
v -83.4715 68.9467 23.1953
v -83.4715 69.3395 23.2678
v -77.7235 68.9467 17.5086
v -83.2057 68.7538 17.5086
v -77.7235 69.532 17.5086
v -77.7804 69.3395 17.5086
v -77.7235 69.1431 17.5086
v -77.7804 69.1431 17.7069
v -83.1428 68.9467 17.5086
v -83.2057 69.3395 17.5086
v -77.4922 68.9467 23.2061
v -77.4922 68.7538 17.7578
v -77.4922 69.532 23.2061
v -77.4922 69.3395 23.1406
v -77.4922 69.1431 23.2061
v -77.7374 69.1431 23.1406
v -77.4922 68.9467 17.8082
v -77.4922 69.3395 17.7578
v -77.8026 69.1431 23.2062
v -83.2766 69.1431 23.1953
v -83.1428 69.1431 17.7069
v -77.7374 69.1431 17.8082
v -77.4922 69.3395 17.8082
v -77.4922 68.9467 23.1406
v -83.1428 69.3395 17.5086
v -77.7804 68.9467 17.5086
v -83.4715 69.3395 23.1953
v -83.4715 68.9467 17.8122
v -77.8026 69.3395 23.4774
v -83.2253 68.9467 23.4774
v -77.7544 69.1431 23.4774
vt 0.6734 0.6622
vt 0.6713 0.6631
vt 0.6687 0.6656
vt 0.6678 0.9769
vt 0.6678 0.672
vt 0.6678 0.9705
vt 0.6678 0.6679
vt 0.6687 0.9792
vt 0.6713 0.9817
vt 0.9831 0.9826
vt 0.6807 0.9826
vt 0.9778 0.9826
vt 0.6736 0.9826
vt 0.9853 0.9817
vt 0.9879 0.9792
vt 0.9888 0.6679
vt 0.9888 0.9706
vt 0.9888 0.6754
vt 0.9888 0.9769
vt 0.9853 0.6631
vt 0.9879 0.6656
vt 0.6758 0.6622
vt 0.9761 0.6621
vt 0.9831 0.6621
vt 0.5631 0.6536
vt 0.5626 0.6526
vt 0.5616 0.6515
vt 0.4276 0.6511
vt 0.5583 0.6511
vt 0.4307 0.6511
vt 0.5606 0.6511
vt 0.4266 0.6515
vt 0.4256 0.6526
vt 0.4252 0.7863
vt 0.4252 0.6563
vt 0.4252 0.7845
vt 0.4252 0.6536
vt 0.4256 0.7873
vt 0.4266 0.7884
vt 0.5606 0.7888
vt 0.4286 0.7888
vt 0.5577 0.7888
vt 0.4276 0.7888
vt 0.5616 0.7884
vt 0.5626 0.7873
vt 0.5631 0.7831
vt 0.5631 0.6563
vt 0.5631 0.7863
vt 0.0143 0.6233
vt 0.045 0.6233
vt 0.0347 0.6166
vt 0.0244 0.6166
vt 0.0143 0.3152
vt 0.045 0.3152
vt 0.0347 0.3112
vt 0.0244 0.3112
vt 0.0143 0.321
vt 0.0551 0.321
vt 0.0551 0.3181
vt 0.0143 0.3181
vt 0.0143 0.6262
vt 0.0143 0.6291
vt 0.0551 0.6291
vt 0.0551 0.6262
vt 0.0143 0.0134
vt 0.0551 0.0134
vt 0.0551 0.0105
vt 0.0143 0.0105
vt 0.045 0.3239
vt 0.0551 0.3239
vt 0.0143 0.3239
vt 0.0551 0.6233
vt 0.0143 0.0163
vt 0.045 0.0163
vt 0.0551 0.3152
vt 0.0143 0.632
vt 0.045 0.632
vt 0.0551 0.632
vt 0.045 0.0076
vt 0.0143 0.0076
vt 0.0124 0.0165
vt 0.0124 0.0226
vt 0.0143 0.0224
vt 0.0125 0.3241
vt 0.0125 0.3264
vt 0.0143 0.3262
vt 0.0569 0.6231
vt 0.0569 0.6164
vt 0.0551 0.6166
vt 0.057 0.3151
vt 0.057 0.3112
vt 0.0551 0.3112
vt 0.0125 0.6262
vt 0.0125 0.6292
vt 0.0126 0.318
vt 0.0126 0.321
vt 0.0125 0.0104
vt 0.0122 0.0134
vt 0.0572 0.6292
vt 0.0569 0.6262
vt 0.0568 0.321
vt 0.057 0.318
vt 0.0572 0.0134
vt 0.0572 0.0104
vt 0.0126 0.623
vt 0.0576 0.0079
vt 0.0551 0.0076
vt 0.0126 0.6317
vt 0.0125 0.3152
vt 0.0126 0.0079
vt 0.0571 0.6317
vt 0.0569 0.3241
vt 0.0551 0.0163
vt 0.0572 0.0163
vt 0.0143 0.6233
vt 0.045 0.6233
vt 0.0347 0.6164
vt 0.0244 0.6164
vt 0.0143 0.3152
vt 0.045 0.3152
vt 0.0347 0.3091
vt 0.0244 0.3091
vt 0.0143 0.321
vt 0.0551 0.321
vt 0.0551 0.3181
vt 0.0143 0.3181
vt 0.045 0.3239
vt 0.0551 0.3239
vt 0.0143 0.3239
vt 0.0551 0.3152
vt 0.0124 0.0165
vt 0.0124 0.0237
vt 0.0143 0.0235
vt 0.0143 0.0163
vt 0.0125 0.3241
vt 0.0125 0.3292
vt 0.0143 0.329
vt 0.0569 0.6231
vt 0.0569 0.6162
vt 0.0551 0.6164
vt 0.0551 0.6233
vt 0.057 0.3151
vt 0.057 0.3091
vt 0.0551 0.3091
vt 0.0126 0.318
vt 0.0126 0.321
vt 0.0568 0.321
vt 0.057 0.318
vt 0.0125 0.3152
vt 0.0569 0.3241
vt 0.045 0.3262
vt 0.045 0.0224
vt 0.0551 0.0224
vt 0.045 0.329
vt 0.045 0.0163
vt 0.045 0.0235
vt 0.0551 0.0163
vt 0.0143 0.6166
vt 0.0244 0.6141
vt 0.0126 0.6163
vt 0.0569 0.3265
vt 0.0551 0.3262
vt 0.045 0.6166
vt 0.045 0.3298
vt 0.0347 0.3262
vt 0.0347 0.3298
vt 0.0244 0.3262
vt 0.0244 0.0224
vt 0.0125 0.3112
vt 0.0143 0.3112
vt 0.0572 0.0225
vt 0.045 0.0252
vt 0.0347 0.0224
vt 0.0347 0.0252
vt 0.0244 0.3074
vt 0.045 0.3112
vt 0.0244 0.329
vt 0.0126 0.6161
vt 0.0143 0.6164
vt 0.0551 0.329
vt 0.0569 0.3292
vt 0.045 0.332
vt 0.0347 0.329
vt 0.0347 0.332
vt 0.0244 0.6131
vt 0.0126 0.623
vt 0.045 0.6164
vt 0.0244 0.0235
vt 0.0125 0.3091
vt 0.0143 0.3091
vt 0.0551 0.0235
vt 0.0572 0.0235
vt 0.0572 0.0163
vt 0.045 0.0269
vt 0.0347 0.0235
vt 0.0347 0.0269
vt 0.0244 0.3065
vt 0.045 0.3091
vt 0.0347 0.6166
vt 0.0347 0.6141
vt 0.0347 0.3074
vt 0.0347 0.6131
vt 0.0347 0.3065
vt 0.045 0.3065
vt 0.0244 0.0269
vt 0.045 0.6131
vt 0.0244 0.332
vt 0.045 0.3074
vt 0.0244 0.0252
vt 0.045 0.6141
vt 0.0244 0.3298
vn -0.0815 -0.9088 0.4092
vn -0.2318 -0.909 0.3465
vn -0.347 -0.9088 0.2317
vn -0.4092 -0.9088 -0.0814
vn -0.3827 -0.9239 -0
vn -0.3829 -0.9238 -0
vn -0.4093 -0.9088 0.0814
vn -0.3469 -0.9089 -0.2316
vn -0.2318 -0.9089 -0.3468
vn 0.0814 -0.9088 -0.4092
vn 0 -0.924 -0.3824
vn 0 -0.9194 -0.3934
vn -0.0814 -0.9089 -0.4089
vn 0.2318 -0.9089 -0.3468
vn 0.3469 -0.9088 -0.2318
vn 0.4092 -0.9088 0.0814
vn 0.3826 -0.9239 0
vn 0.3824 -0.924 0
vn 0.4091 -0.9089 -0.0813
vn 0.2319 -0.9088 0.3469
vn 0.3473 -0.9086 0.2321
vn 0 -0.9418 0.3362
vn 0 -0.9239 0.3827
vn 0.0815 -0.9087 0.4094
vn 0.4091 0.9088 -0.0814
vn 0.3469 0.9088 -0.232
vn 0.2318 0.9089 -0.3468
vn -0.0814 0.9088 -0.4092
vn 0 0.9239 -0.3826
vn -0 0.9253 -0.3792
vn 0.0814 0.9089 -0.409
vn -0.2318 0.9088 -0.3469
vn -0.3468 0.9089 -0.2317
vn -0.4092 0.9088 0.0814
vn -0.3826 0.9239 0
vn -0.3829 0.9238 0
vn -0.4092 0.9088 -0.0814
vn -0.3465 0.9089 0.232
vn -0.2317 0.9088 0.3469
vn 0.0814 0.9088 0.4092
vn 0 0.9239 0.3827
vn -0 0.9266 0.3762
vn -0.0814 0.9088 0.4092
vn 0.2319 0.9087 0.3471
vn 0.3468 0.9089 0.2318
vn 0.3826 0.9239 0
vn 0.3824 0.924 0
vn 0.4091 0.9088 0.0814
vn 0.1812 -0.3709 0.9108
vn 0.1951 0 0.9808
vn 0.0043 -0.0076 1
vn -0.2654 0.0651 0.9619
vn -0.9108 -0.3709 0.1811
vn -0.9808 0 0.195
vn -0.8983 0 -0.4393
vn -0.9747 0.0775 -0.2098
vn -0.516 -0.3709 0.7721
vn -0.5159 0.371 0.7721
vn -0.7721 0.371 0.516
vn -0.7722 -0.3709 0.5159
vn 0.5159 -0.371 0.7721
vn 0.7721 -0.3709 0.516
vn 0.7721 0.371 0.516
vn 0.5159 0.3709 0.7722
vn -0.7722 -0.3709 -0.5159
vn -0.7722 0.371 -0.5159
vn -0.5159 0.371 -0.7721
vn -0.5159 -0.371 -0.7721
vn -0.1952 0 0.9808
vn -0.1813 0.371 0.9108
vn -0.1813 -0.3709 0.9108
vn 0.1812 0.371 0.9108
vn -0.9108 -0.3709 -0.1812
vn -0.9808 0 -0.1951
vn -0.9108 0.3709 0.1811
vn 0.9108 -0.371 0.1812
vn 0.9808 0 0.1952
vn 0.9108 0.371 0.1812
vn -0.1951 0 -0.9808
vn -0.1812 -0.371 -0.9108
vn -0.9239 -0.3827 0
vn 0 -0.3827 0.9239
vn 0 0.3827 0.9239
vn -0.9239 0.3826 0
vn -0.1812 0.3709 -0.9108
vn -0.9108 0.3709 -0.1812
vn 0.4733 -0 -0.8809
vn 0.2252 0.0721 -0.9716
vn 0.9108 -0.371 -0.1812
vn 0.9808 0 -0.1952
vn 0.8358 -0 0.549
vn 0.964 0.066 0.2574
vn 0.5159 -0.371 -0.7721
vn 0.5159 0.371 -0.7721
vn 0.7721 0.371 -0.516
vn 0.7721 -0.371 -0.516
vn 0.195 0 -0.9808
vn 0.1811 0.371 -0.9108
vn 0.1811 -0.3709 -0.9108
vn 0.9108 0.371 -0.1812
vn 0.9239 -0.3827 0
vn 0 -0.3827 -0.9239
vn 0 0.3827 -0.9239
vn 0.9238 0.3828 0
vn 0.2417 -0.0829 0.9668
vn -0.9687 -0.064 0.24
vn -0.9239 0.3827 0
vn -0.2341 -0.0679 -0.9698
vn 0.9682 -0.0791 -0.2374
vn 0 -0.3826 0.9239
vn -0.0812 0.1379 0.9871
vn -0.2654 -0.0652 0.9619
vn 0.2579 -0.3324 0.9072
vn 0.515 0 0.8572
vn 0.428 -0 0.9038
vn 0.2417 0.0828 0.9668
vn -0.9687 0.064 0.24
vn -0.9286 -0.2732 0.2511
vn -0.8624 -0 0.5062
vn -0.9043 -0 0.427
vn -0.9343 0.2813 -0.2189
vn -0.9747 -0.0775 -0.2098
vn -0.2341 0.0679 -0.9698
vn 0 0.3828 -0.9238
vn -0.245 -0.2781 -0.9288
vn -0.4931 0 -0.87
vn -0.417 -0 -0.9089
vn 0.2355 0.2807 -0.9305
vn 0.2252 -0.0721 -0.9716
vn 0.9682 0.0791 -0.2374
vn 0.9238 -0.3828 0
vn 0.9239 0.3827 0
vn 0.9148 -0.3159 -0.2516
vn 0.864 0 -0.5035
vn 0.907 0 -0.4212
vn 0.9113 0.3077 0.2738
vn 0.964 -0.0661 0.2574
vn -0.9854 0.0061 0.1702
vn -0.4649 -0 0.8854
vn -0.9259 0 -0.3778
vn 0.4025 -0 -0.9154
vn 0.8916 -0 0.4528
vn 0.9113 -0.3077 0.2737
vn 0.9148 0.3159 -0.2516
vn 0.2355 -0.2806 -0.9305
vn -0.245 0.2781 -0.9288
vn -0.9343 -0.2813 -0.2189
vn -0.9286 0.2732 0.2511
vn -0.0527 -0.3559 0.933
vn 0.2579 0.3324 0.9072
f 1/1/1 2/2/2 3/3/3
f 1/1/1 3/3/3 4/4/4
f 5/5/5 6/6/6 3/3/3
f 5/5/5 3/3/3 7/7/7
f 3/3/3 6/6/6 4/4/4
f 4/4/4 8/8/8 9/9/9
f 4/4/4 9/9/9 10/10/10
f 11/11/11 12/12/12 9/9/9
f 11/11/11 9/9/9 13/13/13
f 9/9/9 12/12/12 10/10/10
f 10/10/10 14/14/14 15/15/15
f 10/10/10 15/15/15 16/16/16
f 17/17/17 18/18/18 15/15/15
f 17/17/17 15/15/15 19/19/19
f 15/15/15 18/18/18 16/16/16
f 1/1/1 4/4/4 10/10/10
f 1/1/1 10/10/10 16/16/16
f 20/20/20 1/1/1 16/16/16
f 20/20/20 16/16/16 21/21/21
f 22/22/22 1/1/1 20/20/20
f 22/22/22 20/20/20 23/23/23
f 24/24/24 23/23/23 20/20/20
f 25/25/25 26/26/26 27/27/27
f 25/25/25 27/27/27 28/28/28
f 29/29/29 30/30/30 27/27/27
f 29/29/29 27/27/27 31/31/31
f 27/27/27 30/30/30 28/28/28
f 28/28/28 32/32/32 33/33/33
f 28/28/28 33/33/33 34/34/34
f 35/35/35 36/36/36 33/33/33
f 35/35/35 33/33/33 37/37/37
f 33/33/33 36/36/36 34/34/34
f 34/34/34 38/38/38 39/39/39
f 34/34/34 39/39/39 40/40/40
f 41/41/41 42/42/42 39/39/39
f 41/41/41 39/39/39 43/43/43
f 39/39/39 42/42/42 40/40/40
f 34/34/34 40/40/40 25/25/25
f 34/34/34 25/25/25 28/28/28
f 40/40/40 44/44/44 45/45/45
f 40/40/40 45/45/45 25/25/25
f 45/45/45 46/46/46 47/47/47
f 45/45/45 47/47/47 25/25/25
f 48/48/48 46/46/46 45/45/45
f 49/49/49 50/50/50 153/51/51
f 49/49/49 153/51/51 52/52/52
f 53/53/53 54/54/54 55/55/55
f 53/53/53 55/55/55 56/56/56
f 57/57/57 58/58/58 59/59/59
f 57/57/57 59/59/59 60/60/60
f 61/61/61 62/62/62 63/63/63
f 61/61/61 63/63/63 64/64/64
f 65/65/65 66/66/66 67/67/67
f 65/65/65 67/67/67 68/68/68
f 69/69/69 70/70/70 58/58/58
f 69/69/69 58/58/58 57/57/57
f 71/71/71 69/69/69 57/57/57
f 50/50/50 49/49/49 61/61/61
f 50/50/50 61/61/61 64/64/64
f 72/72/72 50/50/50 64/64/64
f 65/65/65 73/73/73 74/74/74
f 65/65/65 74/74/74 66/66/66
f 54/54/54 53/53/53 59/59/59
f 54/54/54 59/59/59 75/75/75
f 60/60/60 59/59/59 53/53/53
f 62/62/62 76/76/76 77/77/77
f 62/62/62 77/77/77 63/63/63
f 63/63/63 77/77/77 78/78/78
f 68/68/68 67/67/67 79/79/79
f 68/68/68 79/79/79 80/80/80
f 4/81/4 6/82/6 81/83/81
f 4/81/4 81/83/81 73/73/73
f 1/84/1 22/85/22 82/86/82
f 1/84/1 82/86/82 71/71/71
f 40/87/40 42/88/42 83/89/83
f 40/87/40 83/89/83 72/72/72
f 34/90/34 36/91/36 84/92/84
f 34/90/34 84/92/84 75/75/75
f 61/61/61 20/93/20 21/94/21
f 61/61/61 21/94/21 62/62/62
f 60/60/60 3/95/3 2/96/2
f 60/60/60 2/96/2 57/57/57
f 68/68/68 9/97/9 8/98/8
f 68/68/68 8/98/8 65/65/65
f 63/63/63 45/99/45 44/100/44
f 63/63/63 44/100/44 64/64/64
f 58/58/58 39/101/39 38/102/38
f 58/58/58 38/102/38 59/59/59
f 66/66/66 33/103/33 32/104/32
f 66/66/66 32/104/32 67/67/67
f 49/49/49 24/105/24 20/93/20
f 49/49/49 20/93/20 61/61/61
f 1/84/1 71/71/71 57/57/57
f 1/84/1 57/57/57 2/96/2
f 65/65/65 8/98/8 4/81/4
f 65/65/65 4/81/4 73/73/73
f 64/64/64 44/100/44 40/87/40
f 64/64/64 40/87/40 72/72/72
f 59/59/59 38/102/38 34/90/34
f 59/59/59 34/90/34 75/75/75
f 67/67/67 32/104/32 28/106/28
f 67/67/67 28/106/28 85/107/85
f 62/62/62 21/94/21 16/108/16
f 62/62/62 16/108/16 76/76/76
f 53/53/53 7/109/7 3/95/3
f 53/53/53 3/95/3 60/60/60
f 80/80/80 13/110/13 9/97/9
f 80/80/80 9/97/9 68/68/68
f 78/78/78 48/111/48 45/99/45
f 78/78/78 45/99/45 63/63/63
f 70/70/70 43/112/43 39/101/39
f 70/70/70 39/101/39 58/58/58
f 86/113/86 37/114/37 33/103/33
f 86/113/86 33/103/33 66/66/66
f 80/115/80 79/116/79 87/117/87
f 80/115/80 87/117/87 88/118/88
f 89/119/89 90/120/90 91/121/91
f 89/119/89 91/121/91 92/122/92
f 93/123/93 94/124/94 95/125/95
f 93/123/93 95/125/95 96/126/96
f 97/127/97 98/128/98 94/124/94
f 97/127/97 94/124/94 93/123/93
f 99/129/99 97/127/97 93/123/93
f 90/120/90 89/119/89 95/125/95
f 90/120/90 95/125/95 100/130/100
f 96/126/96 95/125/95 89/119/89
f 16/131/16 18/132/18 101/133/101
f 16/131/16 101/133/101 76/134/76
f 10/135/10 12/136/12 102/137/102
f 10/135/10 102/137/102 99/129/99
f 28/138/28 30/139/30 103/140/103
f 28/138/28 103/140/103 85/141/85
f 25/142/25 47/143/47 104/144/104
f 25/142/25 104/144/104 100/130/100
f 96/126/96 15/145/15 14/146/14
f 96/126/96 14/146/14 93/123/93
f 94/124/94 27/147/27 26/148/26
f 94/124/94 26/148/26 95/125/95
f 93/123/93 14/146/14 10/135/10
f 93/123/93 10/135/10 99/129/99
f 95/125/95 26/148/26 25/142/25
f 95/125/95 25/142/25 100/130/100
f 89/119/89 19/149/19 15/145/15
f 89/119/89 15/145/15 96/126/96
f 98/128/98 31/150/31 27/147/27
f 98/128/98 27/147/27 94/124/94
f 69/69/69 105/151/105 70/70/70
f 74/74/74 106/152/106 107/153/107
f 74/74/74 107/153/107 86/113/86
f 97/127/97 108/154/108 98/128/98
f 77/155/77 109/156/109 78/157/78
f 110/158/110 52/52/52 111/159/111
f 110/158/110 23/160/23 24/105/24
f 110/158/110 24/105/24 49/49/49
f 42/88/42 41/161/41 112/162/83
f 42/88/42 112/162/83 83/89/83
f 83/89/83 113/163/112 72/72/72
f 113/163/112 153/51/51 50/50/50
f 22/85/22 23/160/23 110/158/110
f 22/85/22 110/158/110 82/86/82
f 112/162/83 105/151/105 114/164/113
f 114/164/113 105/151/105 115/165/114
f 114/164/113 115/165/114 116/166/115
f 82/86/82 117/167/116 71/71/71
f 112/162/83 41/161/41 43/112/43
f 112/162/83 43/112/43 70/70/70
f 81/83/81 118/168/117 73/73/73
f 6/82/6 5/169/5 119/170/81
f 6/82/6 119/170/81 81/83/81
f 107/153/107 35/171/35 37/114/37
f 107/153/107 37/114/37 86/113/86
f 107/153/107 106/152/106 120/172/118
f 120/172/118 106/152/106 121/173/119
f 120/172/118 121/173/119 122/174/120
f 119/170/81 56/56/56 123/175/121
f 36/91/36 35/171/35 107/153/107
f 36/91/36 107/153/107 84/92/84
f 119/170/81 5/169/5 7/109/7
f 119/170/81 7/109/7 53/53/53
f 84/92/84 124/176/122 75/75/75
f 124/176/122 55/55/55 54/54/54
f 102/137/102 125/177/123 99/129/99
f 12/136/12 11/178/11 126/179/102
f 12/136/12 126/179/102 102/137/102
f 127/180/124 29/181/29 31/150/31
f 127/180/124 31/150/31 98/128/98
f 127/180/124 108/154/108 128/182/125
f 128/182/125 108/154/108 129/183/126
f 128/182/125 129/183/126 130/184/127
f 126/179/102 88/118/88 131/185/128
f 30/139/30 29/181/29 127/180/124
f 30/139/30 127/180/124 103/140/103
f 126/179/102 11/178/11 13/186/13
f 126/179/102 13/186/13 80/115/80
f 103/140/103 132/187/129 79/116/79
f 103/140/103 79/116/79 85/141/85
f 132/187/129 87/117/87 79/116/79
f 101/133/101 133/188/130 76/134/76
f 18/132/18 17/189/17 134/190/131
f 18/132/18 134/190/131 101/133/101
f 135/191/132 46/192/46 48/193/48
f 135/191/132 48/193/48 78/157/78
f 135/191/132 109/156/109 136/194/133
f 136/194/133 109/156/109 137/195/134
f 136/194/133 137/195/134 138/196/135
f 134/190/131 92/122/92 139/197/136
f 47/143/47 46/192/46 135/191/132
f 47/143/47 135/191/132 104/144/104
f 134/190/131 17/189/17 19/149/19
f 134/190/131 19/149/19 89/119/89
f 104/144/104 140/198/137 100/130/100
f 140/198/137 91/121/91 90/120/90
f 51/199/138 141/200/139 111/159/111
f 153/51/51 111/159/111 52/52/52
f 55/55/55 142/201/140 123/175/121
f 55/55/55 123/175/121 56/56/56
f 87/117/87 143/202/141 131/185/128
f 87/117/87 131/185/128 88/118/88
f 91/121/91 144/203/142 139/197/136
f 91/121/91 139/197/136 92/122/92
f 136/194/133 138/196/135 144/203/142
f 136/194/133 144/203/142 145/204/143
f 146/205/144 138/196/135 137/195/134
f 146/205/144 137/195/134 133/188/130
f 139/197/136 144/203/142 138/196/135
f 139/197/136 138/196/135 146/205/144
f 145/204/143 144/203/142 91/121/91
f 145/204/143 91/121/91 140/198/137
f 128/182/125 130/184/127 143/202/141
f 128/182/125 143/202/141 147/206/145
f 148/207/146 130/184/127 129/183/126
f 148/207/146 129/183/126 125/177/123
f 131/185/128 143/202/141 130/184/127
f 131/185/128 130/184/127 148/207/146
f 147/206/145 143/202/141 87/117/87
f 147/206/145 87/117/87 132/187/129
f 120/172/118 122/174/120 142/201/140
f 120/172/118 142/201/140 149/208/147
f 150/209/148 122/174/120 121/173/119
f 150/209/148 121/173/119 118/168/117
f 123/175/121 142/201/140 122/174/120
f 123/175/121 122/174/120 150/209/148
f 149/208/147 142/201/140 55/55/55
f 149/208/147 55/55/55 124/176/122
f 114/164/113 116/166/115 141/200/139
f 114/164/113 141/200/139 151/210/149
f 152/211/150 116/166/115 115/165/114
f 152/211/150 115/165/114 117/167/116
f 111/159/111 141/200/139 116/166/115
f 111/159/111 116/166/115 152/211/150
f 151/210/149 141/200/139 51/199/138
f 151/210/149 153/51/51 113/163/112
f 69/69/69 115/165/114 105/151/105
f 84/92/84 149/208/147 124/176/122
f 119/170/81 123/175/121 150/209/148
f 119/170/81 150/209/148 81/83/81
f 112/162/83 114/164/113 151/210/149
f 112/162/83 151/210/149 83/89/83
f 82/86/82 152/211/150 117/167/116
f 107/153/107 120/172/118 149/208/147
f 107/153/107 149/208/147 84/92/84
f 81/83/81 150/209/148 118/168/117
f 74/74/74 121/173/119 106/152/106
f 126/179/102 131/185/128 148/207/146
f 126/179/102 148/207/146 102/137/102
f 103/140/103 147/206/145 132/187/129
f 127/180/124 128/182/125 147/206/145
f 127/180/124 147/206/145 103/140/103
f 97/127/97 129/183/126 108/154/108
f 134/190/131 139/197/136 146/205/144
f 134/190/131 146/205/144 101/133/101
f 104/144/104 145/204/143 140/198/137
f 102/137/102 148/207/146 125/177/123
f 77/155/77 137/195/134 109/156/109
f 83/89/83 151/210/149 113/163/112
f 110/158/110 111/159/111 152/211/150
f 110/158/110 152/211/150 82/86/82
f 101/133/101 146/205/144 133/188/130
f 135/191/132 136/194/133 145/204/143
f 135/191/132 145/204/143 104/144/104
f 53/53/53 56/56/56 119/170/81
f 75/75/75 124/176/122 54/54/54
f 70/70/70 105/151/105 112/162/83
f 71/71/71 117/167/116 115/165/114
f 71/71/71 115/165/114 69/69/69
f 66/66/66 74/74/74 86/113/86
f 79/79/79 67/67/67 85/107/85
f 80/115/80 88/118/88 126/179/102
f 73/73/73 118/168/117 121/173/119
f 73/73/73 121/173/119 74/74/74
f 100/130/100 140/198/137 90/120/90
f 99/129/99 125/177/123 129/183/126
f 99/129/99 129/183/126 97/127/97
f 89/119/89 92/122/92 134/190/131
f 98/128/98 108/154/108 127/180/124
f 78/157/78 109/156/109 135/191/132
f 72/72/72 113/163/112 50/50/50
f 49/49/49 52/52/52 110/158/110
f 76/134/76 133/188/130 137/195/134
f 76/134/76 137/195/134 77/155/77
