o sponza_52
v -26.4612 126.149 18.2272
v -26.4613 126.149 19.7769
v -26.8378 126.048 19.7769
v -26.8378 126.048 18.2272
v -27.1134 125.772 19.7769
v -27.1134 125.772 18.2272
v -27.2142 125.396 19.7769
v -27.2142 125.396 18.2272
v -27.1481 125.149 19.7769
v -27.1481 125.149 18.2272
v -27.7714 125.114 18.2272
v -27.7714 125.114 19.7769
v -28.047 124.839 19.7769
v -28.047 124.839 18.2272
v -27.395 125.215 18.2272
v -27.395 125.215 19.7769
v -26.0847 126.048 18.2272
v -26.0847 126.048 19.7769
v -25.8092 125.772 18.2272
v -25.8092 125.772 19.7769
v -25.7083 125.396 18.2272
v -25.7083 125.396 19.7769
v -25.7745 125.149 18.2272
v -25.7745 125.149 19.7769
v -24.7784 124.476 18.2272
v -24.7784 124.476 19.7769
v -24.8755 124.839 19.7769
v -24.8755 124.839 18.2272
v -25.1511 125.114 19.7769
v -25.1511 125.114 18.2272
v -25.5275 125.215 19.7769
v -25.5275 125.215 18.2272
v -28.1441 124.476 19.7769
v -28.1441 124.476 18.2272
v -26.8378 122.905 18.2272
v -26.8378 122.905 19.7769
v -26.4613 122.804 19.7769
v -26.4613 122.804 18.2272
v -27.1134 123.18 18.2272
v -27.1134 123.18 19.7769
v -27.2142 123.557 18.2272
v -27.2142 123.557 19.7769
v -27.1481 123.804 18.2272
v -27.1481 123.804 19.7769
v -28.047 124.114 18.2272
v -28.047 124.114 19.7769
v -27.7714 123.839 19.7769
v -27.7714 123.839 18.2272
v -27.395 123.738 19.7769
v -27.395 123.738 18.2272
v -26.0847 122.905 19.7769
v -26.0847 122.905 18.2272
v -25.8092 123.18 19.7769
v -25.8092 123.18 18.2272
v -25.7083 123.557 19.7769
v -25.7083 123.557 18.2272
v -25.7745 123.804 19.7769
v -25.7745 123.804 18.2272
v -25.1511 123.839 18.2272
v -25.1511 123.839 19.7769
v -24.8755 124.114 19.7769
v -24.8755 124.114 18.2272
v -25.5275 123.738 18.2272
v -25.5275 123.738 19.7769
v -24.793 123.871 18.2272
v -25.168 123.258 18.2272
v -25.756 122.844 18.2272
v -24.6926 124.583 18.2272
v -24.8583 125.225 18.2272
v -25.2485 125.761 18.2272
v -25.8085 126.116 18.2272
v -26.4599 126.24 18.2272
v -27.1112 126.116 18.2272
v -27.6713 125.761 18.2272
v -28.0615 125.225 18.2272
v -28.2272 124.583 18.2272
v -28.1268 123.871 18.2272
v -27.7517 123.258 18.2272
v -27.1638 122.844 18.2272
v -26.4599 122.698 18.2272
v -26.4612 126.149 18.2272
v -26.8378 126.048 18.2272
v -27.1134 125.772 18.2272
v -27.2142 125.396 18.2272
v -27.1481 125.149 19.7769
v -27.1481 125.149 18.2272
v -27.1481 125.149 18.2272
v -27.7714 125.114 18.2272
v -28.047 124.839 18.2272
v -27.395 125.215 18.2272
v -26.0847 126.048 18.2272
v -25.8092 125.772 18.2272
v -25.7083 125.396 18.2272
v -25.7745 125.149 18.2272
v -25.7745 125.149 18.2272
v -25.7745 125.149 19.7769
v -24.7784 124.476 18.2272
v -24.8755 124.839 18.2272
v -25.1511 125.114 18.2272
v -25.5275 125.215 18.2272
v -28.1441 124.476 18.2272
v -26.8378 122.905 18.2272
v -26.4613 122.804 18.2272
v -27.1134 123.18 18.2272
v -27.2142 123.557 18.2272
v -27.1481 123.804 18.2272
v -27.1481 123.804 18.2272
v -27.1481 123.804 19.7769
v -28.047 124.114 18.2272
v -27.7714 123.839 18.2272
v -27.395 123.738 18.2272
v -26.0847 122.905 18.2272
v -25.8092 123.18 18.2272
v -25.7083 123.557 18.2272
v -25.7745 123.804 19.7769
v -25.7745 123.804 18.2272
v -25.7745 123.804 18.2272
v -25.1511 123.839 18.2272
v -24.8755 124.114 18.2272
v -25.5275 123.738 18.2272
vt 0.9551 0.5948
vt 0.8159 0.5948
vt 0.8159 0.6286
vt 0.9551 0.6286
vt 0.8159 0.6533
vt 0.9551 0.6533
vt 0.8159 0.6871
vt 0.9551 0.6871
vt 0.8159 0.7093
vt 0.9551 0.7093
vt 0.9551 0.7626
vt 0.8159 0.7626
vt 0.8159 0.7976
vt 0.9551 0.7976
vt 0.9551 0.7323
vt 0.8159 0.7323
vt 0.9551 0.7093
vt 0.8159 0.7093
vt 0.9551 0.5609
vt 0.8159 0.5609
vt 0.9551 0.5362
vt 0.8159 0.5362
vt 0.9551 0.5024
vt 0.8159 0.5024
vt 0.9551 0.4802
vt 0.8159 0.4802
vt 0.9551 0.3613
vt 0.8159 0.3613
vt 0.8159 0.395
vt 0.9551 0.395
vt 0.8159 0.4253
vt 0.9551 0.4253
vt 0.8159 0.4603
vt 0.9551 0.4603
vt 0.8159 0.4802
vt 0.9551 0.4802
vt 0.8159 0.8268
vt 0.9551 0.8268
vt 0.9551 0.0879
vt 0.8159 0.0879
vt 0.8159 0.1217
vt 0.9551 0.1217
vt 0.9551 0.0529
vt 0.8159 0.0529
vt 0.9551 0.0226
vt 0.8159 0.0226
vt 0.9551 0.9442
vt 0.8159 0.9442
vt 0.8159 0.9672
vt 0.9551 0.9672
vt 0.9551 0.856
vt 0.8159 0.856
vt 0.8159 0.891
vt 0.9551 0.891
vt 0.8159 0.9213
vt 0.9551 0.9213
vt 0.8159 0.9442
vt 0.9551 0.9442
vt 0.8159 0.1556
vt 0.9551 0.1556
vt 0.8159 0.1906
vt 0.9551 0.1906
vt 0.8159 0.2209
vt 0.9551 0.2209
vt 0.8159 0.2438
vt 0.9551 0.2438
vt 0.9551 0.2971
vt 0.8159 0.2971
vt 0.8159 0.3321
vt 0.9551 0.3321
vt 0.9551 0.2668
vt 0.8159 0.2668
vt 0.9551 0.2438
vt 0.8159 0.2438
vt 0.5804 0.6036
vt 0.546 0.5976
vt 0.5524 0.6197
vt 0.6117 0.6454
vt 0.6133 0.5916
vt 0.6762 0.6454
vt 0.5201 0.576
vt 0.5083 0.5726
vt 0.5085 0.5443
vt 0.4873 0.5168
vt 0.5146 0.5098
vt 0.4883 0.4573
vt 0.537 0.483
vt 0.5111 0.4022
vt 0.541 0.4604
vt 0.5289 0.4275
vt 0.5349 0.393
vt 0.5526 0.3595
vt 0.5574 0.3662
vt 0.5903 0.3541
vt 0.6068 0.335
vt 0.6248 0.3601
vt 0.6663 0.3321
vt 0.6516 0.3826
vt 0.7227 0.3514
vt 0.6742 0.3865
vt 0.7071 0.3745
vt 0.7416 0.3805
vt 0.7674 0.4021
vt 0.768 0.39
vt 0.779 0.4338
vt 0.7974 0.4475
vt 0.773 0.4682
vt 0.8015 0.5119
vt 0.7506 0.4951
vt 0.7797 0.5727
vt 0.7466 0.5177
vt 0.7586 0.5506
vt 0.7526 0.5851
vt 0.7355 0.6198
vt 0.7302 0.6119
vt 0.6973 0.624
vt 0.6628 0.618
vt 0.6359 0.5955
vt 0.6595 0.4042
vt 0.5586 0.4751
vt 0.729 0.503
vt 0.628 0.5739
vn -0 -1 0
vn 0.5 -0.866 0
vn 0.866 -0.5 0
vn 1 -0 0
vn 0.9659 0.2588 0
vn -0.2588 -0.9659 0
vn -0.559 -0.8291 0.012
vn -0.5 -0.866 0
vn -0.866 -0.5 0
vn -1 -0 0
vn -0.9659 0.2588 0
vn 0.2588 -0.9659 0
vn 0.4433 0.8964 0
vn 0.5 0.866 0
vn -0 1 0
vn 0.866 0.5 0
vn 0.9659 -0.2588 0
vn -0.2588 0.9659 0
vn -0.5 0.866 0
vn -0.866 0.5 0
vn -0.9659 -0.2588 0
vn 0.2589 0.9659 0
vn 0.2588 0.9659 0
vn -0 0 -1
vn 0.0648 -0.0431 -0.997
vn 0.0685 -0.0183 -0.9975
f 81/1/1 2/2/1 3/3/2
f 81/1/1 3/3/2 82/4/2
f 82/4/2 3/3/2 5/5/3
f 82/4/2 5/5/3 83/6/3
f 83/6/3 5/5/3 7/7/4
f 83/6/3 7/7/4 84/8/4
f 84/8/4 7/7/4 85/9/5
f 84/8/4 85/9/5 86/10/5
f 88/11/2 12/12/2 13/13/3
f 88/11/2 13/13/3 89/14/3
f 90/15/1 16/16/1 12/12/2
f 90/15/1 12/12/2 88/11/2
f 87/17/6 9/18/6 16/16/1
f 87/17/6 16/16/1 90/15/1
f 2/2/1 81/1/1 91/19/7
f 2/2/1 91/19/7 18/20/8
f 92/21/9 20/22/9 18/20/8
f 92/21/9 18/20/8 91/19/7
f 93/23/10 22/24/10 20/22/9
f 93/23/10 20/22/9 92/21/9
f 94/25/11 96/26/11 22/24/10
f 94/25/11 22/24/10 93/23/10
f 97/27/10 26/28/10 27/29/9
f 97/27/10 27/29/9 98/30/9
f 98/30/9 27/29/9 29/31/8
f 98/30/9 29/31/8 99/32/8
f 99/32/8 29/31/8 31/33/1
f 99/32/8 31/33/1 100/34/1
f 100/34/1 31/33/1 24/35/12
f 100/34/1 24/35/12 95/36/12
f 89/14/3 13/13/3 33/37/4
f 89/14/3 33/37/4 101/38/4
f 102/39/13 36/40/14 37/41/15
f 102/39/13 37/41/15 103/42/15
f 104/43/16 40/44/16 36/40/14
f 104/43/16 36/40/14 102/39/13
f 105/45/4 42/46/4 40/44/16
f 105/45/4 40/44/16 104/43/16
f 106/47/17 108/48/17 42/49/4
f 106/47/17 42/49/4 105/50/4
f 109/51/16 46/52/16 47/53/14
f 109/51/16 47/53/14 110/54/14
f 110/54/14 47/53/14 49/55/15
f 110/54/14 49/55/15 111/56/15
f 111/56/15 49/55/15 44/57/18
f 111/56/15 44/57/18 107/58/18
f 103/42/15 37/41/15 51/59/19
f 103/42/15 51/59/19 112/60/19
f 112/60/19 51/59/19 53/61/20
f 112/60/19 53/61/20 113/62/20
f 113/62/20 53/61/20 55/63/10
f 113/62/20 55/63/10 114/64/10
f 114/64/10 55/63/10 115/65/21
f 114/64/10 115/65/21 116/66/21
f 118/67/19 60/68/19 61/69/20
f 118/67/19 61/69/20 119/70/20
f 120/71/15 64/72/15 60/68/19
f 120/71/15 60/68/19 118/67/19
f 117/73/22 57/74/23 64/72/15
f 117/73/22 64/72/15 120/71/15
f 101/38/4 33/37/4 46/52/16
f 101/38/4 46/52/16 109/51/16
f 119/70/20 61/69/20 26/28/10
f 119/70/20 26/28/10 97/27/10
f 59/75/24 62/76/24 65/77/24
f 59/75/24 65/77/24 66/78/24
f 63/79/24 59/75/24 66/78/24
f 63/79/24 66/78/24 67/80/24
f 62/76/24 25/81/24 68/82/24
f 62/76/24 68/82/24 65/77/24
f 68/82/24 25/81/24 28/83/24
f 68/82/24 28/83/24 69/84/24
f 69/84/24 28/83/24 30/85/24
f 69/84/24 30/85/24 70/86/24
f 70/86/24 30/85/24 32/87/24
f 70/86/24 32/87/24 71/88/24
f 32/87/24 21/89/24 19/90/24
f 32/87/24 19/90/24 71/88/24
f 71/88/24 19/90/24 17/91/25
f 71/88/24 17/91/25 72/92/24
f 72/92/24 1/93/24 4/94/24
f 72/92/24 4/94/24 73/95/24
f 73/95/24 4/94/24 6/96/24
f 73/95/24 6/96/24 74/97/24
f 74/97/24 6/96/24 8/98/24
f 74/97/24 8/98/24 75/99/24
f 8/98/24 15/100/24 11/101/24
f 8/98/24 11/101/24 75/99/24
f 14/102/24 34/103/24 76/104/24
f 14/102/24 76/104/24 75/99/24
f 76/104/24 34/103/24 45/105/24
f 76/104/24 45/105/24 77/106/24
f 77/106/24 45/105/24 48/107/24
f 77/106/24 48/107/24 78/108/24
f 78/108/24 48/107/24 50/109/24
f 78/108/24 50/109/24 79/110/24
f 50/109/24 41/111/24 39/112/24
f 50/109/24 39/112/24 79/110/24
f 35/113/26 80/114/24 79/110/24
f 35/113/26 79/110/24 39/112/24
f 80/114/24 38/115/24 52/116/24
f 80/114/24 52/116/24 67/80/24
f 54/117/24 56/118/24 63/79/24
f 54/117/24 63/79/24 67/80/24
f 8/98/24 10/119/24 15/100/24
f 11/101/24 14/102/24 75/99/24
f 17/91/25 1/93/24 72/92/24
f 23/120/24 21/89/24 32/87/24
f 35/113/26 38/115/24 80/114/24
f 43/121/24 41/111/24 50/109/24
f 52/116/24 54/117/24 67/80/24
f 56/118/24 58/122/24 63/79/24
