o sponza_89
v 14.53 66.0364 -64.1441
v 9.98107 66.0364 -64.1441
v 9.98105 66.0364 -64.6968
v 14.53 66.0364 -64.6968
v 14.4693 66.0364 -64.0695
v 10.0418 66.0364 -64.0695
v 14.5764 66.4232 -64.0858
v 14.5764 66.4232 -64.6968
v 14.6396 67.0697 -64.6968
v 14.6396 67.0697 -64.0036
v 14.5168 66.4232 -64.0126
v 14.5837 67.0697 -63.935
v 9.92739 67.0697 -63.935
v 9.99431 66.4232 -64.0126
v 15.0643 69.096 -63.3397
v 9.44677 69.096 -63.3397
v 9.44391 68.6597 -63.3397
v 15.0672 68.6597 -63.3397
v 9.38691 69.096 -63.4133
v 9.38691 69.096 -64.6968
v 9.38691 68.6597 -64.6968
v 9.38691 68.6597 -63.4098
v 14.7088 66.2298 -64.6968
v 14.7088 66.2298 -63.9317
v 14.6422 66.2298 -63.8499
v 9.86889 66.2298 -63.8499
v 15.1242 69.096 -63.4133
v 15.1242 69.096 -64.6968
v 15.2907 69.3142 -64.6968
v 15.2907 69.3142 -63.2165
v 15.2245 69.3142 -63.1352
v 9.28659 69.3142 -63.1352
v 15.1242 69.5323 -64.6968
v 15.1242 69.5323 -63.4211
v 15.058 69.5323 -63.3397
v 9.45312 69.5323 -63.3397
v 14.8536 67.9696 -63.7435
v 14.8536 67.9696 -64.6968
v 15.1242 68.6597 -64.6968
v 15.1242 68.6597 -63.4098
v 14.7954 67.9696 -63.6721
v 9.71564 67.9696 -63.6721
v 9.8715 67.0697 -64.0036
v 9.93471 66.4232 -64.0858
v 9.80229 66.2298 -63.9317
v 9.2204 69.3142 -63.2165
v 9.38691 69.5323 -63.4211
v 9.65751 67.9696 -63.7435
v 9.38691 69.5323 -64.6968
v 9.8715 67.0697 -64.6968
v 9.93471 66.4232 -64.6968
v 9.80226 66.2298 -64.6968
v 9.2204 69.3142 -64.6968
v 9.65754 67.9696 -64.6968
v 9.98107 66.0364 -64.1441
v 9.98105 66.0364 -64.6968
v 14.53 66.0364 -64.1441
v 14.53 66.0364 -64.6968
v 14.4693 66.0364 -64.0695
v 10.0418 66.0364 -64.0695
v 14.6422 66.2298 -63.8499
v 9.86889 66.2298 -63.8499
v 15.2245 69.3142 -63.1352
v 9.28659 69.3142 -63.1352
vt 0.4476 0.6911
vt 0.2773 0.6911
vt 0.2773 0.6742
vt 0.4476 0.6742
vt 0.4453 0.6933
vt 0.2795 0.6933
vt 0.5504 0.8881
vt 0.5337 0.8881
vt 0.5337 0.9084
vt 0.5526 0.9084
vt 0.6076 0.8897
vt 0.6053 0.91
vt 0.7614 0.91
vt 0.7592 0.8897
vt 0.5892 0.9737
vt 0.7775 0.9737
vt 0.7776 0.96
vt 0.5891 0.96
vt 0.7937 0.9733
vt 0.8287 0.9733
vt 0.8287 0.9596
vt 0.7936 0.9596
vt 0.9865 0.7672
vt 0.9619 0.7672
vt 0.9632 0.7791
vt 0.9959 0.7791
vt 0.0112 0.7672
vt 0.0111 0.779
vt 0.2524 0.779
vt 0.2525 0.7672
vt 0.5546 0.882
vt 0.5337 0.882
vt 0.6034 0.8836
vt 0.7634 0.8836
vt 0.5687 0.9721
vt 0.5337 0.9721
vt 0.5337 0.979
vt 0.5741 0.979
vt 0.5839 0.9806
vt 0.7829 0.9806
vt 0.5337 0.9859
vt 0.5685 0.9859
vt 0.5839 0.9806
vt 0.5894 0.9875
vt 0.7773 0.9875
vt 0.7829 0.9806
vt 0.5597 0.9367
vt 0.5337 0.9367
vt 0.5337 0.9584
vt 0.5688 0.9584
vt 0.5982 0.9383
vt 0.7685 0.9383
vt 0.605 0.8907
vt 0.6028 0.9094
vt 0.8095 0.8902
vt 0.8073 0.909
vt 0.8098 0.9096
vt 0.8121 0.8892
vt 0.5867 0.9726
vt 0.5865 0.9593
vt 0.7912 0.9721
vt 0.791 0.9589
vt 0.6007 0.8862
vt 0.8079 0.8832
vt 0.8052 0.8857
vt 0.0079 0.7672
vt 0.0078 0.7789
vt 0.2559 0.779
vt 0.2558 0.7672
vt 0.5815 0.9806
vt 0.786 0.9801
vt 0.7884 0.9801
vt 0.5871 0.99
vt 0.7916 0.9896
vt 0.7939 0.987
vt 0.786 0.9801
vt 0.5957 0.9372
vt 0.8002 0.9367
vt 0.8027 0.9379
vt 0.1674 0.876
vt 0.1655 0.8746
vt 0.0109 0.8746
vt 0.0091 0.8976
vt 0.0091 0.876
vt 0.1674 0.8976
vt 0.8287 0.9096
vt 0.8287 0.8892
vt 0.2874 0.779
vt 0.2803 0.7672
vt 0.8287 0.8832
vt 0.8287 0.9801
vt 0.8287 0.987
vt 0.8287 0.9379
vn 0 -1 0
vn 0.9118 0.3115 0.2677
vn 0.9686 0.2488 0
vn 0.9863 -0.1647 0
vn 0.9232 -0.2213 0.3143
vn 0.3713 0.3626 0.8548
vn 0.4079 -0.2541 0.8769
vn -0.4078 -0.254 0.877
vn -0.3713 0.3625 0.8548
vn 0.3556 -0.4619 0.8125
vn -0.3557 -0.4619 0.8125
vn -0.4271 -0.251 0.8686
vn 0.4272 -0.251 0.8686
vn -0.8773 -0.4014 0.263
vn -0.9473 -0.3202 0
vn -0.9826 -0.1858 -0
vn -0.9078 -0.2349 0.3475
vn 0.4048 -0.9098 0.0915
vn 0.4007 -0.9162 0
vn 0.9973 -0.0728 0
vn 0.9149 -0.0672 0.3981
vn 0.138 -0.924 0.3566
vn 0.2666 -0.8176 0.5103
vn -0.2666 -0.8176 0.5103
vn -0.138 -0.924 0.3565
vn 0.3173 0.7224 0.6144
vn -0.3173 0.7224 0.6144
vn 0.8773 -0.4014 0.263
vn 0.9473 -0.3203 0
vn 1 0 0
vn 0.9163 0.0033 0.4005
vn 0.2994 -0.7603 0.5765
vn -0.2995 -0.7603 0.5764
vn 0.4434 0.8963 0
vn 0.4484 0.8877 0.1047
vn 0.2991 0.7641 0.5715
vn 0.1562 0.9026 0.4011
vn -0.1562 0.9026 0.4012
vn -0.2992 0.7642 0.5714
vn 0.8738 -0.3895 0.2913
vn 0.9543 -0.2989 0
vn 0.9826 -0.1858 0
vn 0.9078 -0.2349 0.3474
vn 0.3736 -0.4407 0.8162
vn -0.3736 -0.4407 0.8162
vn -0.9231 -0.2213 0.3144
vn -0.9118 0.3115 0.2677
vn -0.9149 -0.0672 0.3981
vn -0.4048 -0.9098 0.0916
vn -0.9163 0.0033 0.4004
vn -0.4484 0.8877 0.1048
vn -0.8737 -0.3895 0.2913
vn -0.4434 0.8963 0
vn -0.9863 -0.1647 0
vn -0.9686 0.2488 0
vn -0.9973 -0.0728 0
vn -0.4008 -0.9162 0
vn -1 0 0
vn -0.9543 -0.2989 -0
f 57/1/1 55/2/1 56/3/1
f 57/1/1 56/3/1 58/4/1
f 55/2/1 57/1/1 59/5/1
f 55/2/1 59/5/1 60/6/1
f 7/7/2 8/8/3 9/9/4
f 7/7/2 9/9/4 10/10/5
f 11/11/6 12/12/7 13/13/8
f 11/11/6 13/13/8 14/14/9
f 15/15/10 16/16/11 17/17/12
f 15/15/10 17/17/12 18/18/13
f 19/19/14 20/20/15 21/21/16
f 19/19/14 21/21/16 22/22/17
f 1/23/18 4/24/19 23/25/20
f 1/23/18 23/25/20 24/26/21
f 5/27/22 61/28/23 62/29/24
f 5/27/22 62/29/24 6/30/25
f 7/7/2 24/31/21 23/32/20
f 7/7/2 23/32/20 8/8/3
f 25/33/26 11/11/6 14/14/9
f 25/33/26 14/14/9 26/34/27
f 27/35/28 28/36/29 29/37/30
f 27/35/28 29/37/30 30/38/31
f 15/15/10 63/39/32 64/40/33
f 15/15/10 64/40/33 16/16/11
f 29/37/30 33/41/34 34/42/35
f 29/37/30 34/42/35 30/38/31
f 31/43/36 35/44/37 36/45/38
f 31/43/36 36/45/38 32/46/39
f 37/47/40 38/48/41 39/49/42
f 37/47/40 39/49/42 40/50/43
f 41/51/44 18/18/13 17/17/12
f 41/51/44 17/17/12 42/52/45
f 10/10/5 9/9/4 38/48/41
f 10/10/5 38/48/41 37/47/40
f 12/12/7 41/51/44 42/52/45
f 12/12/7 42/52/45 13/13/8
f 11/11/6 7/53/2 10/54/5
f 11/11/6 10/54/5 12/12/7
f 14/55/9 13/56/8 43/57/46
f 14/55/9 43/57/46 44/58/47
f 27/59/28 15/15/10 18/18/13
f 27/59/28 18/18/13 40/60/43
f 16/61/11 19/19/14 22/22/17
f 16/61/11 22/22/17 17/62/12
f 24/63/21 7/53/2 11/11/6
f 24/63/21 11/11/6 25/33/26
f 45/64/48 26/65/27 14/55/9
f 45/64/48 14/55/9 44/58/47
f 5/27/22 1/66/18 24/67/21
f 5/27/22 24/67/21 61/28/23
f 45/68/48 2/69/49 6/30/25
f 45/68/48 6/30/25 62/29/24
f 30/70/31 63/39/32 15/15/10
f 30/70/31 15/15/10 27/59/28
f 16/61/11 64/71/33 46/72/50
f 16/61/11 46/72/50 19/19/14
f 30/70/31 34/73/35 35/44/37
f 30/70/31 35/44/37 31/43/36
f 36/74/38 47/75/51 46/72/50
f 36/74/38 46/72/50 32/76/39
f 40/60/43 18/18/13 41/51/44
f 40/60/43 41/51/44 37/77/40
f 42/78/45 17/62/12 22/22/17
f 42/78/45 22/22/17 48/79/52
f 37/77/40 41/51/44 12/12/7
f 37/77/40 12/12/7 10/54/5
f 13/56/8 42/78/45 48/79/52
f 13/56/8 48/79/52 43/57/46
f 47/80/51 36/81/38 35/82/37
f 47/80/51 35/82/37 33/83/34
f 35/82/37 34/84/35 33/83/34
f 49/85/53 47/80/51 33/83/34
f 44/58/47 43/57/46 50/86/54
f 44/58/47 50/86/54 51/87/55
f 27/35/28 40/50/43 39/49/42
f 27/35/28 39/49/42 28/36/29
f 2/69/49 45/68/48 52/88/56
f 2/69/49 52/88/56 3/89/57
f 52/90/56 45/64/48 44/58/47
f 52/90/56 44/58/47 51/87/55
f 19/19/14 46/72/50 53/91/58
f 19/19/14 53/91/58 20/20/15
f 53/91/58 46/72/50 47/75/51
f 53/91/58 47/75/51 49/92/53
f 48/79/52 22/22/17 21/21/16
f 48/79/52 21/21/16 54/93/59
f 43/57/46 48/79/52 54/93/59
f 43/57/46 54/93/59 50/86/54
