o sponza_155
v 32.7887 66.5982 -28.3529
v 32.6564 66.5982 -28.3529
v 32.4836 66.676 -28.3529
v 32.9821 66.676 -28.3529
v 33.1383 67.0595 -28.3529
v 32.142 67.0595 -28.3529
v 32.246 67.2375 -28.3529
v 33.0956 67.2375 -28.3529
v 32.4402 67.4156 -28.3529
v 32.9426 67.4156 -28.3529
v 32.3865 66.8285 -28.3529
v 33.1099 66.8583 -28.3529
v 32.0102 66.1125 -28.3529
v 31.7239 66.2722 -28.3529
v 33.0956 67.2375 -27.6653
v 33.1383 67.0595 -27.6653
v 32.9426 67.4156 -27.6653
v 32.4836 66.676 -27.6653
v 32.3865 66.8285 -27.6653
v 33.1099 66.8583 -27.6653
v 32.9821 66.676 -27.6653
v 32.0102 66.1125 -27.6653
v 31.7239 66.2722 -27.6653
v 32.7887 66.5982 -27.6653
v 32.6564 66.5982 -27.6653
v 32.246 67.2375 -27.6653
v 32.142 67.0595 -27.6653
v 32.4402 67.4156 -27.6653
v 32.7887 66.5982 -28.3529
v 32.6564 66.5982 -28.3529
v 32.4836 66.676 -28.3529
v 32.9821 66.676 -28.3529
v 33.1383 67.0595 -28.3529
v 33.0956 67.2375 -28.3529
v 32.9426 67.4156 -28.3529
v 33.1099 66.8583 -28.3529
v 32.3865 66.8285 -28.3529
v 32.3865 66.8285 -28.3529
v 32.0102 66.1125 -28.3529
v 32.0102 66.1125 -28.3529
v 31.7239 66.2722 -28.3529
v 33.0956 67.2375 -27.6653
v 33.1383 67.0595 -27.6653
v 32.9426 67.4156 -27.6653
v 32.4836 66.676 -27.6653
v 32.3865 66.8285 -27.6653
v 32.3865 66.8285 -27.6653
v 33.1099 66.8583 -27.6653
v 32.9821 66.676 -27.6653
v 32.0102 66.1125 -27.6653
v 32.0102 66.1125 -27.6653
v 31.7239 66.2722 -27.6653
v 32.7887 66.5982 -27.6653
v 32.6564 66.5982 -27.6653
vt 0.2029 0.2838
vt 0.1992 0.2736
vt 0.1884 0.2623
vt 0.2022 0.301
vt 0.1768 0.3237
vt 0.1492 0.2465
vt 0.1382 0.2595
vt 0.1618 0.3254
vt 0.1298 0.2795
vt 0.1437 0.3184
vt 0.1739 0.259
vt 0.1916 0.316
vt 0.219 0.21
vt 0.1986 0.1922
vt 0.0673 0.6159
vt 0.1206 0.615
vt 0.1204 0.6012
vt 0.067 0.602
vt 0.1208 0.6289
vt 0.0675 0.6297
vt 0.1194 0.5328
vt 0.1192 0.5209
vt 0.0658 0.5218
vt 0.066 0.5336
vt 0.0668 0.5864
vt 0.1202 0.5856
vt 0.12 0.5715
vt 0.0666 0.5723
vt 0.0658 0.5218
vt 0.1192 0.5209
vt 0.1183 0.4654
vt 0.0649 0.4662
vt 0.0649 0.4662
vt 0.1183 0.4654
vt 0.118 0.4431
vt 0.0646 0.444
vt 0.1533 0.3311
vt 0.1385 0.3399
vt 0.1791 0.3335
vt 0.164 0.3294
vt 0.2056 0.3762
vt 0.2118 0.3603
vt 0.1307 0.3731
vt 0.1365 0.387
vt 0.1921 0.3931
vt 0.1512 0.3996
vt 0.1889 0.3447
vt 0.1305 0.3564
vt 0.2357 0.2909
vt 0.2104 0.2816
vt 0.0662 0.547
vt 0.0664 0.5573
vt 0.1197 0.5564
vt 0.1196 0.5462
vn 0 0 -1
vn 0.8904 0.4552 0
vn 0.9989 0.0474 0
vn 0.7583 0.6519 0
vn -0.6545 -0.7561 0
vn -0.8437 -0.5368 0
vn 0.9302 -0.367 0
vn 0.6217 -0.7832 0
vn 0.8852 -0.4652 0
vn 0.8852 -0.4653 0
vn -0.4871 -0.8733 0
vn 0 0 1
vn -0.2099 -0.9777 0
vn 0.19 -0.9818 0
f 29/1/1 30/2/1 31/3/1
f 29/1/1 31/3/1 32/4/1
f 33/5/1 6/6/1 7/7/1
f 33/5/1 7/7/1 34/8/1
f 34/8/1 7/7/1 9/9/1
f 34/8/1 9/9/1 35/10/1
f 37/11/1 6/6/1 33/5/1
f 37/11/1 33/5/1 36/12/1
f 32/4/1 31/3/1 37/11/1
f 32/4/1 37/11/1 36/12/1
f 37/11/1 39/13/1 41/14/1
f 37/11/1 41/14/1 6/6/1
f 8/15/2 42/16/2 43/17/3
f 8/15/2 43/17/3 5/18/3
f 44/19/4 42/16/2 8/15/2
f 44/19/4 8/15/2 10/20/4
f 45/21/5 46/22/6 38/23/6
f 45/21/5 38/23/6 3/24/5
f 12/25/7 48/26/7 49/27/8
f 12/25/7 49/27/8 4/28/8
f 11/29/9 47/30/10 50/31/9
f 11/29/9 50/31/9 40/32/9
f 13/33/11 51/34/11 52/35/11
f 13/33/11 52/35/11 14/36/11
f 53/37/12 21/38/12 18/39/12
f 53/37/12 18/39/12 54/40/12
f 26/41/12 27/42/12 16/43/12
f 26/41/12 16/43/12 15/44/12
f 28/45/12 26/41/12 15/44/12
f 28/45/12 15/44/12 17/46/12
f 16/43/12 27/42/12 19/47/12
f 16/43/12 19/47/12 20/48/12
f 21/38/12 20/48/12 19/47/12
f 21/38/12 19/47/12 18/39/12
f 19/47/12 27/42/12 23/49/12
f 19/47/12 23/49/12 22/50/12
f 2/51/13 1/52/14 24/53/14
f 2/51/13 24/53/14 25/54/13
f 1/52/14 4/28/8 49/27/8
f 1/52/14 49/27/8 24/53/14
f 43/17/3 48/26/7 12/25/7
f 43/17/3 12/25/7 5/18/3
f 25/54/13 45/21/5 3/24/5
f 25/54/13 3/24/5 2/51/13
