o sponza_64
v 32.2887 92.7364 -24.71
v 32.2887 99.0796 -24.71
v 32.2887 99.0796 -27.4777
v 32.2887 92.7364 -27.4777
v 35.0943 92.7364 -24.131
v 35.0943 101.447 -24.131
v 34.7832 101.136 -24.131
v 34.7832 92.7364 -24.131
v 35.0943 101.447 -27.4777
v 35.0943 92.7364 -27.4777
v 34.3082 92.7364 -24.71
v 34.3083 100.661 -24.71
v 30.4365 100.661 -24.71
v 30.4365 99.0796 -24.71
v 30.4365 101.136 -24.131
v 30.4365 99.0796 -27.4777
v 30.4365 101.447 -24.131
v 30.4365 101.447 -27.4777
v 28.5844 99.0796 -27.4777
v 28.5844 99.0796 -24.71
v 28.5843 92.7364 -24.71
v 28.5843 92.7364 -27.4777
v 26.3725 101.136 -24.131
v 26.0614 101.447 -24.131
v 26.0614 92.7364 -24.131
v 26.3725 92.7364 -24.131
v 26.0614 101.447 -27.4777
v 26.0614 92.7364 -27.4777
v 26.8474 100.661 -24.71
v 26.8474 92.7364 -24.71
v 32.2887 92.7364 -24.71
v 32.2887 99.0796 -24.71
v 32.2887 99.0796 -24.71
v 32.2887 99.0796 -27.4777
v 35.0943 92.7364 -24.131
v 35.0943 101.447 -24.131
v 35.0943 101.447 -24.131
v 35.0943 101.447 -27.4777
v 30.4365 99.0796 -24.71
v 30.4365 101.447 -24.131
v 28.5844 99.0796 -27.4777
v 28.5844 99.0796 -24.71
v 28.5844 99.0796 -24.71
v 28.5843 92.7364 -24.71
v 26.0614 101.447 -24.131
v 26.0614 101.447 -24.131
v 26.0614 92.7364 -24.131
v 26.0614 101.447 -27.4777
vt 0.9965 0.1543
vt 0.7878 0.1543
vt 0.7878 0.0638
vt 0.9965 0.0638
vt 0.9965 0.2169
vt 0.7282 0.2169
vt 0.7384 0.2067
vt 0.9965 0.2067
vt 0.7282 0.3263
vt 0.7282 0.2169
vt 0.9965 0.2169
vt 0.9965 0.3263
vt 0.7878 0.1543
vt 0.9965 0.1543
vt 0.9965 0.1878
vt 0.7541 0.1878
vt 0.8487 0.1878
vt 0.8487 0.1543
vt 0.8487 0.2067
vt 0.7878 0.0638
vt 0.7878 0.1543
vt 0.8487 0.1543
vt 0.8487 0.0638
vt 0.8487 0.2169
vt 0.7282 0.2169
vt 0.7282 0.3263
vt 0.8487 0.3263
vt 0.8487 0.2169
vt 0.7878 0.0638
vt 0.7878 0.1543
vt 0.9965 0.1543
vt 0.9965 0.0638
vt 0.7384 0.2067
vt 0.7282 0.2169
vt 0.9965 0.2169
vt 0.9965 0.2067
vt 0.9965 0.2169
vt 0.7282 0.2169
vt 0.7282 0.3263
vt 0.9965 0.3263
vt 0.7878 0.1543
vt 0.7541 0.1878
vt 0.9965 0.1878
vt 0.9965 0.1543
vt 0.7878 0.1543
vt 0.7878 0.0638
vt 0.7282 0.3263
vt 0.7282 0.2169
vn -1 -0 0
vn 0 -0 1
vn -0.1277 -0.1277 0.9836
vn -0.4277 0 0.9039
vn 1 0 0
vn -0.4276 0 0.9039
vn -0.3387 -0.3387 0.8778
vn 0 -0.4277 0.9039
vn 0 -1 0
vn 0 1 0
vn 0.1277 -0.1277 0.9836
vn 0.4277 -0 0.9039
vn 0.3387 -0.3387 0.8778
f 31/1/1 32/2/1 34/3/1
f 31/1/1 34/3/1 4/4/1
f 35/5/2 36/6/2 7/7/3
f 35/5/2 7/7/3 8/8/4
f 38/9/5 37/10/5 5/11/5
f 38/9/5 5/11/5 10/12/5
f 33/13/2 1/14/2 11/15/6
f 33/13/2 11/15/6 12/16/7
f 12/16/7 11/15/6 8/8/4
f 12/16/7 8/8/4 7/7/3
f 33/13/2 12/16/7 13/17/8
f 33/13/2 13/17/8 39/18/2
f 12/16/7 7/7/3 15/19/8
f 12/16/7 15/19/8 13/17/8
f 3/20/9 2/21/9 14/22/9
f 3/20/9 14/22/9 16/23/9
f 7/7/3 36/6/2 40/24/2
f 7/7/3 40/24/2 15/19/8
f 6/25/10 9/26/10 18/27/10
f 6/25/10 18/27/10 17/28/10
f 41/29/5 42/30/5 44/31/5
f 41/29/5 44/31/5 22/32/5
f 23/33/11 45/34/2 47/35/2
f 23/33/11 47/35/2 26/36/12
f 25/37/1 46/38/1 48/39/1
f 25/37/1 48/39/1 28/40/1
f 43/41/2 29/42/13 30/43/12
f 43/41/2 30/43/12 21/44/2
f 29/42/13 23/33/11 26/36/12
f 29/42/13 26/36/12 30/43/12
f 43/41/2 39/18/2 13/17/8
f 43/41/2 13/17/8 29/42/13
f 29/42/13 13/17/8 15/19/8
f 29/42/13 15/19/8 23/33/11
f 14/22/9 20/45/9 19/46/9
f 14/22/9 19/46/9 16/23/9
f 40/24/2 45/34/2 23/33/11
f 40/24/2 23/33/11 15/19/8
f 18/27/10 27/47/10 24/48/10
f 18/27/10 24/48/10 17/28/10
