o sponza_200
v 70.6491 68.7191 17.5608
v 70.6954 68.7191 17.607
v 70.7129 68.7191 17.6493
v 64.9089 68.7191 17.5433
v 70.6954 68.7191 23.379
v 70.7129 68.7191 17.7865
v 70.7129 68.7191 23.2216
v 70.7129 68.7191 23.3367
v 70.6069 68.7191 23.4427
v 70.6491 68.7191 23.4252
v 64.8667 68.7191 23.4252
v 70.5097 68.7191 23.4427
v 65.0407 68.7191 23.4427
v 64.9089 68.7191 23.4427
v 64.8029 68.7191 23.3367
v 64.8204 68.7191 23.379
v 64.8204 68.7191 17.607
v 64.8029 68.7191 23.2196
v 64.8029 68.7191 17.7249
v 64.8029 68.7191 17.6493
v 64.8667 68.7191 17.5608
v 64.9539 68.7191 17.5433
v 70.4788 68.7191 17.5433
v 70.6069 68.7191 17.5433
v 70.6954 69.5666 17.607
v 70.6491 69.5666 17.5608
v 70.6069 69.5666 17.5433
v 70.7129 69.5666 23.3367
v 64.8667 69.5666 17.5608
v 70.4788 69.5666 17.5433
v 64.9539 69.5666 17.5433
v 64.9089 69.5666 17.5433
v 64.8029 69.5666 17.6493
v 64.8204 69.5666 17.607
v 64.8204 69.5666 23.379
v 64.8029 69.5666 17.7249
v 64.8029 69.5666 23.2196
v 64.8029 69.5666 23.3367
v 64.9089 69.5666 23.4427
v 64.8667 69.5666 23.4252
v 70.6491 69.5666 23.4252
v 65.0407 69.5666 23.4427
v 70.5097 69.5666 23.4427
v 70.6069 69.5666 23.4427
v 70.6954 69.5666 23.379
v 70.7129 69.5666 23.2216
v 70.7129 69.5666 17.7865
v 70.7129 69.5666 17.6493
v 70.4854 69.1431 17.5086
v 70.6138 69.3395 17.5086
v 70.6138 68.7538 17.5086
v 70.4854 68.9467 17.5086
v 64.7683 69.1431 17.7182
v 64.7683 69.3395 17.6424
v 64.7683 68.7538 17.6424
v 64.7683 68.9467 17.7182
v 64.791 69.532 17.5874
v 64.847 69.532 17.5314
v 64.847 68.7538 17.5314
v 64.791 68.7538 17.5874
v 70.7248 69.532 17.5874
v 70.7248 68.7538 17.5874
v 70.6688 68.7538 17.5314
v 70.6688 69.532 17.5314
v 64.847 69.5319 23.4546
v 64.791 69.532 23.3986
v 64.791 68.7538 23.3986
v 64.847 68.7538 23.4546
v 64.902 69.532 17.5086
v 64.902 69.3395 17.5086
v 64.902 68.7538 17.5086
v 70.6138 69.532 17.5086
v 64.7683 69.3395 23.3436
v 64.7683 68.7538 23.3436
v 64.7683 69.532 17.6424
v 70.7475 69.3395 17.6424
v 70.7475 68.7538 17.6424
v 70.7475 69.532 17.6424
v 64.902 69.3395 23.4774
v 64.902 68.7538 23.4774
v 64.7683 68.7538 23.2262
v 64.9471 68.7538 17.5086
v 70.4854 69.532 17.5086
v 64.7683 69.532 17.7182
v 64.902 69.5319 23.4774
v 64.7683 69.532 23.3436
v 65.0341 69.1431 23.4774
v 65.0341 68.9467 23.4774
v 70.7475 69.1431 23.2282
v 70.7475 69.3395 23.3436
v 70.7475 68.7538 23.3436
v 70.7475 68.9467 23.2282
v 70.7248 69.532 23.3986
v 70.6688 69.5319 23.4546
v 70.6688 68.7538 23.4546
v 70.7248 68.7538 23.3986
v 70.6138 69.5319 23.4774
v 70.6138 69.3395 23.4774
v 70.6138 68.7538 23.4774
v 70.7475 69.532 23.3436
v 70.7475 68.7538 17.7799
v 70.5163 68.7538 23.4774
v 65.0341 69.5319 23.4774
v 70.7475 69.532 23.2282
v 64.9471 69.3395 17.5086
v 64.7683 69.532 23.2262
v 64.7683 69.3395 23.2262
v 70.5163 69.3395 23.4774
v 70.7475 69.3395 17.7799
v 70.4854 68.7538 17.5086
v 70.4372 68.9467 17.5086
v 64.9471 69.532 17.5086
v 70.4854 69.3395 17.5086
v 65.0144 69.3395 17.5086
v 65.0144 69.1431 17.7799
v 64.9471 69.1431 17.5086
v 64.9471 68.9467 17.5086
v 64.7683 68.9467 23.2262
v 64.7683 68.7538 17.7182
v 64.7683 69.3395 23.1738
v 64.9632 69.1431 23.1738
v 64.7683 69.1431 23.2262
v 64.7683 68.9467 17.7907
v 64.7683 69.3395 17.7182
v 70.5163 68.9467 23.4774
v 65.0341 68.7538 23.4774
v 70.5163 69.5319 23.4774
v 70.4593 69.3395 23.4774
v 70.4593 69.1431 23.2791
v 70.5163 69.1431 23.4774
v 65.097 68.9467 23.4774
v 65.0341 69.3395 23.4774
v 70.7475 68.9467 17.7799
v 70.7475 68.7538 23.2282
v 70.7475 69.532 17.7799
v 70.7475 69.3395 17.8454
v 70.5024 69.1431 17.8454
v 70.7475 69.1431 17.7799
v 70.7475 68.9467 23.1778
v 70.7475 69.3395 23.2282
v 70.4372 69.1431 17.7798
v 64.9632 69.1431 17.7907
v 65.097 69.1431 23.2791
v 70.5024 69.1431 23.1778
v 70.7475 69.3395 23.1778
v 70.7475 68.9467 17.8454
v 65.097 69.3395 23.4774
v 70.4593 68.9467 23.4774
v 64.7683 69.3395 17.7907
v 64.7683 68.9467 23.1738
v 70.4372 69.3395 17.5086
v 65.0144 68.9467 17.5086
v 70.4854 69.1431 17.5086
vt 0.9853 0.6631
vt 0.9879 0.6656
vt 0.9888 0.6679
vt 0.6734 0.6622
vt 0.9879 0.9792
vt 0.9888 0.6754
vt 0.9888 0.9706
vt 0.9888 0.9769
vt 0.9831 0.9826
vt 0.9853 0.9817
vt 0.6713 0.9817
vt 0.9778 0.9826
vt 0.6807 0.9826
vt 0.6736 0.9826
vt 0.6678 0.9769
vt 0.6687 0.9792
vt 0.6687 0.6656
vt 0.6678 0.9705
vt 0.6678 0.672
vt 0.6678 0.6679
vt 0.6713 0.6631
vt 0.6758 0.6622
vt 0.9761 0.6621
vt 0.9831 0.6621
vt 0.5626 0.7873
vt 0.5616 0.7884
vt 0.5606 0.7888
vt 0.5631 0.6536
vt 0.4266 0.7884
vt 0.5577 0.7888
vt 0.4286 0.7888
vt 0.4276 0.7888
vt 0.4252 0.7863
vt 0.4256 0.7873
vt 0.4256 0.6526
vt 0.4252 0.7845
vt 0.4252 0.6563
vt 0.4252 0.6536
vt 0.4276 0.6511
vt 0.4266 0.6515
vt 0.5616 0.6515
vt 0.4307 0.6511
vt 0.5583 0.6511
vt 0.5606 0.6511
vt 0.5626 0.6526
vt 0.5631 0.6563
vt 0.5631 0.7831
vt 0.5631 0.7863
vt 0.0347 0.6166
vt 0.045 0.6233
vt 0.0143 0.6233
vt 0.0244 0.6166
vt 0.0347 0.3112
vt 0.045 0.3152
vt 0.0143 0.3152
vt 0.0244 0.3112
vt 0.0551 0.3181
vt 0.0551 0.321
vt 0.0143 0.321
vt 0.0143 0.3181
vt 0.0551 0.6291
vt 0.0143 0.6291
vt 0.0143 0.6262
vt 0.0551 0.6262
vt 0.0551 0.0105
vt 0.0551 0.0134
vt 0.0143 0.0134
vt 0.0143 0.0105
vt 0.0551 0.3239
vt 0.045 0.3239
vt 0.0143 0.3239
vt 0.0551 0.6233
vt 0.045 0.0163
vt 0.0143 0.0163
vt 0.0551 0.3152
vt 0.045 0.632
vt 0.0143 0.632
vt 0.0551 0.632
vt 0.045 0.0076
vt 0.0143 0.0076
vt 0.0124 0.0165
vt 0.0143 0.0224
vt 0.0124 0.0226
vt 0.0125 0.3241
vt 0.0143 0.3262
vt 0.0125 0.3264
vt 0.0569 0.6231
vt 0.0551 0.6166
vt 0.0569 0.6164
vt 0.057 0.3151
vt 0.0551 0.3112
vt 0.057 0.3112
vt 0.0125 0.6292
vt 0.0125 0.6262
vt 0.0126 0.321
vt 0.0126 0.318
vt 0.0122 0.0134
vt 0.0125 0.0104
vt 0.0569 0.6262
vt 0.0572 0.6292
vt 0.057 0.318
vt 0.0568 0.321
vt 0.0572 0.0104
vt 0.0572 0.0134
vt 0.0126 0.623
vt 0.0576 0.0079
vt 0.0551 0.0076
vt 0.0126 0.6317
vt 0.0125 0.3152
vt 0.0126 0.0079
vt 0.0571 0.6317
vt 0.0569 0.3241
vt 0.0572 0.0163
vt 0.0551 0.0163
vt 0.0347 0.6164
vt 0.045 0.6233
vt 0.0143 0.6233
vt 0.0244 0.6164
vt 0.0347 0.3091
vt 0.045 0.3152
vt 0.0143 0.3152
vt 0.0244 0.3091
vt 0.0551 0.3181
vt 0.0551 0.321
vt 0.0143 0.321
vt 0.0143 0.3181
vt 0.0551 0.3239
vt 0.045 0.3239
vt 0.0143 0.3239
vt 0.0551 0.3152
vt 0.0124 0.0165
vt 0.0143 0.0163
vt 0.0143 0.0235
vt 0.0124 0.0237
vt 0.0125 0.3241
vt 0.0143 0.329
vt 0.0125 0.3292
vt 0.0569 0.6231
vt 0.0551 0.6233
vt 0.0551 0.6164
vt 0.0569 0.6162
vt 0.057 0.3151
vt 0.0551 0.3091
vt 0.057 0.3091
vt 0.0126 0.321
vt 0.0126 0.318
vt 0.057 0.318
vt 0.0568 0.321
vt 0.0125 0.3152
vt 0.0569 0.3241
vt 0.045 0.3262
vt 0.0551 0.0224
vt 0.045 0.0224
vt 0.045 0.329
vt 0.045 0.0163
vt 0.0551 0.0163
vt 0.045 0.0235
vt 0.0143 0.6166
vt 0.0244 0.6141
vt 0.0126 0.6163
vt 0.0551 0.3262
vt 0.0569 0.3265
vt 0.045 0.6166
vt 0.045 0.3298
vt 0.0347 0.3298
vt 0.0347 0.3262
vt 0.0244 0.3262
vt 0.0244 0.0224
vt 0.0143 0.3112
vt 0.0125 0.3112
vt 0.0572 0.0225
vt 0.045 0.0252
vt 0.0347 0.0252
vt 0.0347 0.0224
vt 0.0244 0.3074
vt 0.045 0.3112
vt 0.0244 0.329
vt 0.0143 0.6164
vt 0.0126 0.6161
vt 0.0551 0.329
vt 0.0569 0.3292
vt 0.045 0.332
vt 0.0347 0.332
vt 0.0347 0.329
vt 0.0244 0.6131
vt 0.0126 0.623
vt 0.045 0.6164
vt 0.0244 0.0235
vt 0.0143 0.3091
vt 0.0125 0.3091
vt 0.0551 0.0235
vt 0.0572 0.0163
vt 0.0572 0.0235
vt 0.045 0.0269
vt 0.0347 0.0269
vt 0.0347 0.0235
vt 0.0244 0.3065
vt 0.045 0.3091
vt 0.0347 0.6141
vt 0.0347 0.6166
vt 0.0347 0.3074
vt 0.0347 0.6131
vt 0.0347 0.3065
vt 0.045 0.3065
vt 0.0244 0.0269
vt 0.045 0.6131
vt 0.0244 0.332
vt 0.045 0.3074
vt 0.0244 0.0252
vt 0.045 0.6141
vt 0.0244 0.3298
vn 0.2318 -0.9088 -0.3468
vn 0.3468 -0.9089 -0.2316
vn 0.4092 -0.9088 -0.0814
vn -0.0814 -0.9088 -0.4092
vn 0.347 -0.9088 0.2317
vn 0.3828 -0.9238 -0
vn 0.3827 -0.9239 -0
vn 0.4093 -0.9088 0.0814
vn 0.0814 -0.9088 0.4093
vn 0.2318 -0.9089 0.3466
vn -0.2319 -0.9088 0.3468
vn 0 -0.9239 0.3827
vn 0 -0.9238 0.3828
vn -0.0814 -0.9088 0.4093
vn -0.4092 -0.9088 0.0814
vn -0.3472 -0.9087 0.2319
vn -0.3469 -0.9088 -0.2318
vn -0.3826 -0.9239 0
vn -0.4091 -0.9088 -0.0814
vn -0.2318 -0.9088 -0.3469
vn 0 -0.9229 -0.3849
vn 0 -0.9239 -0.3826
vn 0.0814 -0.9088 -0.4092
vn 0.3469 0.9088 -0.2317
vn 0.2318 0.9088 -0.3469
vn 0.0814 0.9088 -0.4092
vn 0.4092 0.9088 0.0814
vn -0.2318 0.9088 -0.3469
vn 0 0.9239 -0.3827
vn 0 0.9239 -0.3826
vn -0.0814 0.9091 -0.4086
vn -0.4091 0.9088 -0.0814
vn -0.3469 0.9088 -0.2319
vn -0.3468 0.9089 0.2318
vn -0.3826 0.9239 0
vn -0.4092 0.9088 0.0814
vn -0.0814 0.9088 0.4092
vn -0.2319 0.9087 0.3471
vn 0.2317 0.9088 0.347
vn 0 0.9239 0.3828
vn 0 0.9238 0.3828
vn 0.0814 0.9088 0.4093
vn 0.3465 0.9089 0.2319
vn 0.3829 0.9238 0
vn 0.3826 0.9239 0
vn 0.4092 0.9088 -0.0814
vn 0.0033 0.0081 -1
vn 0.1951 0 -0.9808
vn 0.1812 -0.3709 -0.9108
vn -0.2654 0.0652 -0.9619
vn -0.8983 0 0.4393
vn -0.9808 0 -0.1952
vn -0.9108 -0.371 -0.1812
vn -0.9747 0.0775 0.2098
vn -0.7721 0.371 -0.5159
vn -0.5159 0.371 -0.7721
vn -0.5159 -0.371 -0.7721
vn -0.7721 -0.371 -0.516
vn 0.7722 0.371 -0.5159
vn 0.7722 -0.3709 -0.5159
vn 0.5159 -0.371 -0.7721
vn 0.5159 0.371 -0.7721
vn -0.5159 0.3709 0.7722
vn -0.7721 0.3711 0.516
vn -0.7721 -0.371 0.516
vn -0.5159 -0.371 0.7721
vn -0.1811 0.3709 -0.9108
vn -0.195 0 -0.9808
vn -0.1811 -0.3709 -0.9108
vn 0.1812 0.371 -0.9108
vn -0.9808 0 0.1952
vn -0.9108 -0.371 0.1812
vn -0.9107 0.3711 -0.1812
vn 0.9808 0 -0.1951
vn 0.9108 -0.3709 -0.1812
vn 0.9108 0.371 -0.1812
vn -0.1951 0 0.9808
vn -0.1812 -0.3709 0.9108
vn -0.9239 -0.3827 0
vn 0 -0.3827 -0.9239
vn 0 0.3827 -0.9239
vn -0.9239 0.3827 0
vn -0.1812 0.371 0.9108
vn -0.9108 0.371 0.1812
vn 0.4733 0 0.8809
vn 0.2252 0.0721 0.9716
vn 0.8358 0 -0.549
vn 0.9808 0 0.195
vn 0.9108 -0.3709 0.1812
vn 0.964 0.066 -0.2574
vn 0.7721 0.371 0.516
vn 0.5159 0.371 0.7722
vn 0.516 -0.3709 0.7721
vn 0.7722 -0.3709 0.5159
vn 0.1812 0.3709 0.9108
vn 0.1951 0 0.9808
vn 0.1812 -0.3709 0.9108
vn 0.9108 0.3709 0.1811
vn 0.9239 -0.3827 0
vn 0 -0.3826 0.9239
vn 0 0.3826 0.9239
vn 0.9239 0.3826 0
vn 0.2417 -0.0829 -0.9668
vn -0.9687 -0.064 -0.24
vn -0.2341 -0.0679 0.9698
vn 0.9682 -0.0791 0.2374
vn 0 -0.3828 -0.9238
vn -0.2607 0.1531 -0.9532
vn -0.2654 -0.0652 -0.9619
vn 0.2578 -0.3324 -0.9072
vn 0.428 -0 -0.9038
vn 0.5149 -0 -0.8572
vn 0.2417 0.0828 -0.9668
vn -0.9687 0.064 -0.24
vn -0.9286 -0.2733 -0.2512
vn -0.9043 -0 -0.427
vn -0.8624 0 -0.5062
vn -0.9343 0.2814 0.2189
vn -0.9747 -0.0775 0.2098
vn -0.2341 0.0679 0.9698
vn -0.245 -0.2781 0.9288
vn -0.417 -0 0.9089
vn -0.4932 0 0.8699
vn 0.2355 0.2807 0.9305
vn 0.2252 -0.0721 0.9716
vn 0.9682 0.0791 0.2374
vn 0.9239 0.3827 0
vn 0.9148 -0.3159 0.2516
vn 0.907 -0 0.4212
vn 0.864 -0 0.5036
vn 0.9113 0.3077 -0.2738
vn 0.964 -0.0661 -0.2574
vn -0.4648 -0 -0.8854
vn -0.9853 -0.0067 -0.1709
vn -0.9259 0 0.3779
vn 0.4025 -0 0.9154
vn 0.8916 0 -0.4528
vn 0.9112 -0.3077 -0.2738
vn 0.9148 0.3159 0.2516
vn 0.2355 -0.2806 0.9305
vn -0.245 0.2781 0.9288
vn -0.9343 -0.2813 0.2189
vn -0.9286 0.2732 -0.2511
vn -0.2419 -0.3641 -0.8994
vn 0.2579 0.3324 -0.9072
f 1/1/1 2/2/2 3/3/3
f 1/1/1 3/3/3 4/4/4
f 5/5/5 6/6/6 7/7/7
f 5/5/5 7/7/7 8/8/8
f 6/6/6 5/5/5 9/9/9
f 6/6/6 9/9/9 3/3/3
f 5/5/5 10/10/10 9/9/9
f 11/11/11 12/12/12 13/13/13
f 11/11/11 13/13/13 14/14/14
f 12/12/12 11/11/11 15/15/15
f 12/12/12 15/15/15 9/9/9
f 11/11/11 16/16/16 15/15/15
f 9/9/9 15/15/15 4/4/4
f 9/9/9 4/4/4 3/3/3
f 17/17/17 18/18/18 19/19/18
f 17/17/17 19/19/18 20/20/19
f 18/18/18 17/17/17 4/4/4
f 18/18/18 4/4/4 15/15/15
f 17/17/17 21/21/20 4/4/4
f 1/1/1 4/4/4 22/22/21
f 1/1/1 22/22/21 23/23/22
f 24/24/23 1/1/1 23/23/22
f 25/25/24 26/26/25 27/27/26
f 25/25/24 27/27/26 28/28/27
f 29/29/28 30/30/29 31/31/30
f 29/29/28 31/31/30 32/32/31
f 30/30/29 29/29/28 33/33/32
f 30/30/29 33/33/32 27/27/26
f 29/29/28 34/34/33 33/33/32
f 35/35/34 36/36/35 37/37/35
f 35/35/34 37/37/35 38/38/36
f 36/36/35 35/35/34 39/39/37
f 36/36/35 39/39/37 33/33/32
f 35/35/34 40/40/38 39/39/37
f 33/33/32 39/39/37 28/28/27
f 33/33/32 28/28/27 27/27/26
f 41/41/39 42/42/40 43/43/41
f 41/41/39 43/43/41 44/44/42
f 42/42/40 41/41/39 28/28/27
f 42/42/40 28/28/27 39/39/37
f 41/41/39 45/45/43 28/28/27
f 46/46/44 47/47/45 25/25/24
f 46/46/44 25/25/24 28/28/27
f 48/48/46 25/25/24 47/47/45
f 153/49/47 50/50/48 51/51/49
f 153/49/47 51/51/49 52/52/50
f 53/53/51 54/54/52 55/55/53
f 53/53/51 55/55/53 56/56/54
f 57/57/55 58/58/56 59/59/57
f 57/57/55 59/59/57 60/60/58
f 61/61/59 62/62/60 63/63/61
f 61/61/59 63/63/61 64/64/62
f 65/65/63 66/66/64 67/67/65
f 65/65/63 67/67/65 68/68/66
f 58/58/56 69/69/67 70/70/68
f 58/58/56 70/70/68 59/59/57
f 71/71/69 59/59/57 70/70/68
f 63/63/61 51/51/49 50/50/48
f 63/63/61 50/50/48 64/64/62
f 72/72/70 64/64/62 50/50/48
f 67/67/65 66/66/64 73/73/71
f 67/67/65 73/73/71 74/74/72
f 57/57/55 55/55/53 54/54/52
f 57/57/55 54/54/52 75/75/73
f 60/60/58 55/55/53 57/57/55
f 76/76/74 77/77/75 61/61/59
f 76/76/74 61/61/59 78/78/76
f 61/61/59 77/77/75 62/62/60
f 79/79/77 65/65/63 68/68/66
f 79/79/77 68/68/66 80/80/78
f 15/81/15 74/74/72 81/82/79
f 15/81/15 81/82/79 18/83/18
f 4/84/4 71/71/69 82/85/80
f 4/84/4 82/85/80 22/86/21
f 27/87/26 72/72/70 83/88/81
f 27/87/26 83/88/81 30/89/29
f 33/90/32 75/75/73 84/91/82
f 33/90/32 84/91/82 36/92/35
f 2/93/2 1/94/1 63/63/61
f 2/93/2 63/63/61 62/62/60
f 21/95/20 17/96/17 60/60/58
f 21/95/20 60/60/58 59/59/57
f 16/97/16 11/98/11 68/68/66
f 16/97/16 68/68/66 67/67/65
f 26/99/25 25/100/24 61/61/59
f 26/99/25 61/61/59 64/64/62
f 34/101/33 29/102/28 58/58/56
f 34/101/33 58/58/56 57/57/55
f 40/103/38 35/104/34 66/66/64
f 40/103/38 66/66/64 65/65/63
f 1/94/1 24/105/23 51/51/49
f 1/94/1 51/51/49 63/63/61
f 4/84/4 21/95/20 59/59/57
f 4/84/4 59/59/57 71/71/69
f 15/81/15 16/97/16 67/67/65
f 15/81/15 67/67/65 74/74/72
f 27/87/26 26/99/25 64/64/62
f 27/87/26 64/64/62 72/72/70
f 33/90/32 34/101/33 57/57/55
f 33/90/32 57/57/55 75/75/73
f 39/106/37 40/103/38 65/65/63
f 39/106/37 65/65/63 85/107/83
f 3/108/3 2/93/2 62/62/60
f 3/108/3 62/62/60 77/77/75
f 17/96/17 20/109/19 55/55/53
f 17/96/17 55/55/53 60/60/58
f 11/98/11 14/110/14 80/80/78
f 11/98/11 80/80/78 68/68/66
f 25/100/24 48/111/46 78/78/76
f 25/100/24 78/78/76 61/61/59
f 29/102/28 32/112/31 69/69/67
f 29/102/28 69/69/67 58/58/56
f 35/104/34 38/113/36 86/114/84
f 35/104/34 86/114/84 66/66/64
f 87/115/85 79/116/77 80/117/78
f 87/115/85 80/117/78 88/118/86
f 89/119/87 90/120/88 91/121/89
f 89/119/87 91/121/89 92/122/90
f 93/123/91 94/124/92 95/125/93
f 93/123/91 95/125/93 96/126/94
f 94/124/92 97/127/95 98/128/96
f 94/124/92 98/128/96 95/125/93
f 99/129/97 95/125/93 98/128/96
f 93/123/91 91/121/89 90/120/88
f 93/123/91 90/120/88 100/130/98
f 96/126/94 91/121/89 93/123/91
f 3/131/3 77/132/75 101/133/99
f 3/131/3 101/133/99 6/134/6
f 9/135/9 99/129/97 102/136/100
f 9/135/9 102/136/100 12/137/12
f 39/138/37 85/139/83 103/140/101
f 39/138/37 103/140/101 42/141/40
f 28/142/27 100/130/98 104/143/102
f 28/142/27 104/143/102 46/144/44
f 10/145/10 5/146/5 96/126/94
f 10/145/10 96/126/94 95/125/93
f 45/147/43 41/148/39 94/124/92
f 45/147/43 94/124/92 93/123/91
f 9/135/9 10/145/10 95/125/93
f 9/135/9 95/125/93 99/129/97
f 28/142/27 45/147/43 93/123/91
f 28/142/27 93/123/91 100/130/98
f 5/146/5 8/149/8 91/121/89
f 5/146/5 91/121/89 96/126/94
f 41/148/39 44/150/42 97/127/95
f 41/148/39 97/127/95 94/124/92
f 70/70/68 69/69/67 105/151/103
f 106/152/82 107/153/104 73/73/71
f 106/152/82 73/73/71 86/114/84
f 98/128/96 97/127/95 108/154/105
f 76/155/74 78/156/76 109/157/106
f 110/158/107 111/159/108 52/52/50
f 110/158/107 51/51/49 24/105/23
f 110/158/107 24/105/23 23/160/22
f 112/161/81 31/162/30 30/89/29
f 112/161/81 30/89/29 83/88/81
f 83/88/81 72/72/70 113/163/109
f 113/163/109 50/50/48 153/49/47
f 110/158/107 23/160/22 22/86/21
f 110/158/107 22/86/21 82/85/80
f 112/161/81 114/164/110 105/151/103
f 114/164/110 115/165/111 116/166/112
f 114/164/110 116/166/112 105/151/103
f 82/85/80 71/71/69 117/167/113
f 112/161/81 69/69/67 32/112/31
f 112/161/81 32/112/31 31/162/30
f 81/82/79 74/74/72 118/168/114
f 119/169/79 19/170/18 18/83/18
f 119/169/79 18/83/18 81/82/79
f 106/152/82 86/114/84 38/113/36
f 106/152/82 38/113/36 37/171/35
f 106/152/82 120/172/115 107/153/104
f 120/172/115 121/173/116 122/174/117
f 120/172/115 122/174/117 107/153/104
f 119/169/79 123/175/118 56/56/54
f 106/152/82 37/171/35 36/92/35
f 106/152/82 36/92/35 84/91/82
f 119/169/79 55/55/53 20/109/19
f 119/169/79 20/109/19 19/170/18
f 84/91/82 75/75/73 124/176/119
f 124/176/119 54/54/52 53/53/51
f 102/136/100 99/129/97 125/177/120
f 126/178/100 13/179/13 12/137/12
f 126/178/100 12/137/12 102/136/100
f 127/180/101 97/127/95 44/150/42
f 127/180/101 44/150/42 43/181/41
f 127/180/101 128/182/121 108/154/105
f 128/182/121 129/183/122 130/184/123
f 128/182/121 130/184/123 108/154/105
f 126/178/100 131/185/124 88/118/86
f 127/180/101 43/181/41 42/141/40
f 127/180/101 42/141/40 103/140/101
f 126/178/100 80/117/78 14/186/14
f 126/178/100 14/186/14 13/179/13
f 79/116/77 132/187/125 103/140/101
f 79/116/77 103/140/101 85/139/83
f 132/187/125 79/116/77 87/115/85
f 101/133/99 77/132/75 133/188/126
f 134/189/99 7/190/7 6/134/6
f 134/189/99 6/134/6 101/133/99
f 135/191/127 78/156/76 48/192/46
f 135/191/127 48/192/46 47/193/45
f 135/191/127 136/194/128 109/157/106
f 136/194/128 137/195/129 138/196/130
f 136/194/128 138/196/130 109/157/106
f 134/189/99 139/197/131 92/122/90
f 135/191/127 47/193/45 46/144/44
f 135/191/127 46/144/44 104/143/102
f 134/189/99 91/121/89 8/149/8
f 134/189/99 8/149/8 7/190/7
f 104/143/102 100/130/98 140/198/132
f 140/198/132 90/120/88 89/119/87
f 111/159/108 141/199/133 49/200/134
f 111/159/108 153/49/47 52/52/50
f 123/175/118 142/201/135 53/53/51
f 123/175/118 53/53/51 56/56/54
f 131/185/124 143/202/136 87/115/85
f 131/185/124 87/115/85 88/118/86
f 139/197/131 144/203/137 89/119/87
f 139/197/131 89/119/87 92/122/90
f 144/203/137 137/195/129 136/194/128
f 144/203/137 136/194/128 145/204/138
f 138/196/130 137/195/129 146/205/139
f 138/196/130 146/205/139 133/188/126
f 137/195/129 144/203/137 139/197/131
f 137/195/129 139/197/131 146/205/139
f 89/119/87 144/203/137 145/204/138
f 89/119/87 145/204/138 140/198/132
f 143/202/136 129/183/122 128/182/121
f 143/202/136 128/182/121 147/206/140
f 130/184/123 129/183/122 148/207/141
f 130/184/123 148/207/141 125/177/120
f 129/183/122 143/202/136 131/185/124
f 129/183/122 131/185/124 148/207/141
f 87/115/85 143/202/136 147/206/140
f 87/115/85 147/206/140 132/187/125
f 142/201/135 121/173/116 120/172/115
f 142/201/135 120/172/115 149/208/142
f 122/174/117 121/173/116 150/209/143
f 122/174/117 150/209/143 118/168/114
f 121/173/116 142/201/135 123/175/118
f 121/173/116 123/175/118 150/209/143
f 53/53/51 142/201/135 149/208/142
f 53/53/51 149/208/142 124/176/119
f 141/199/133 115/165/111 114/164/110
f 141/199/133 114/164/110 151/210/144
f 116/166/112 115/165/111 152/211/145
f 116/166/112 152/211/145 117/167/113
f 115/165/111 141/199/133 111/159/108
f 115/165/111 111/159/108 152/211/145
f 49/200/134 141/199/133 151/210/144
f 153/49/47 151/210/144 113/163/109
f 70/70/68 105/151/103 116/166/112
f 84/91/82 124/176/119 149/208/142
f 150/209/143 123/175/118 119/169/79
f 150/209/143 119/169/79 81/82/79
f 151/210/144 114/164/110 112/161/81
f 151/210/144 112/161/81 83/88/81
f 82/85/80 117/167/113 152/211/145
f 149/208/142 120/172/115 106/152/82
f 149/208/142 106/152/82 84/91/82
f 81/82/79 118/168/114 150/209/143
f 73/73/71 107/153/104 122/174/117
f 148/207/141 131/185/124 126/178/100
f 148/207/141 126/178/100 102/136/100
f 103/140/101 132/187/125 147/206/140
f 147/206/140 128/182/121 127/180/101
f 147/206/140 127/180/101 103/140/101
f 98/128/96 108/154/105 130/184/123
f 146/205/139 139/197/131 134/189/99
f 146/205/139 134/189/99 101/133/99
f 104/143/102 140/198/132 145/204/138
f 102/136/100 125/177/120 148/207/141
f 76/155/74 109/157/106 138/196/130
f 83/88/81 113/163/109 151/210/144
f 152/211/145 111/159/108 110/158/107
f 152/211/145 110/158/107 82/85/80
f 101/133/99 133/188/126 146/205/139
f 145/204/138 136/194/128 135/191/127
f 145/204/138 135/191/127 104/143/102
f 55/55/53 119/169/79 56/56/54
f 75/75/73 54/54/52 124/176/119
f 69/69/67 112/161/81 105/151/103
f 116/166/112 117/167/113 71/71/69
f 116/166/112 71/71/69 70/70/68
f 66/66/64 86/114/84 73/73/71
f 79/79/77 85/107/83 65/65/63
f 80/117/78 126/178/100 88/118/86
f 122/174/117 118/168/114 74/74/72
f 122/174/117 74/74/72 73/73/71
f 100/130/98 90/120/88 140/198/132
f 130/184/123 125/177/120 99/129/97
f 130/184/123 99/129/97 98/128/96
f 91/121/89 134/189/99 92/122/90
f 97/127/95 127/180/101 108/154/105
f 78/156/76 135/191/127 109/157/106
f 72/72/70 50/50/48 113/163/109
f 51/51/49 110/158/107 52/52/50
f 138/196/130 133/188/126 77/132/75
f 138/196/130 77/132/75 76/155/74
