o sponza_45
v -99.732 122.705 -3.49706
v -99.5661 122.224 -3.49706
v -99.5661 122.421 -4.45021
v -99.732 122.863 -4.25893
v -99.9335 124.736 -5.2644
v -101.261 124.736 -5.2644
v -101.261 124.024 -5.16398
v -99.9335 124.024 -5.16398
v -99.7321 124.745 -5.40966
v -99.5661 124.776 -5.89013
v -99.5661 125.645 -5.66574
v -99.7321 125.44 -5.23015
v -99.5661 123.812 -5.75417
v -99.2116 123.649 -6.20717
v -99.2116 124.807 -6.3704
v -99.2116 124.807 -6.3704
v -99.2116 123.649 -6.20717
v -101.261 123.649 -6.20717
v -101.261 124.807 -6.3704
v -99.9335 126.393 -3.49706
v -101.261 126.393 -3.49706
v -101.261 126.269 -4.14841
v -99.9335 126.269 -4.14841
v -99.5661 127.02 -3.49706
v -99.5661 126.852 -4.37904
v -99.2116 127.299 -4.55605
v -99.2116 127.501 -3.49706
v -99.2116 127.501 -3.49706
v -99.2116 127.299 -4.55605
v -101.261 127.299 -4.55605
v -101.261 127.501 -3.49706
v -99.732 122.863 -2.7352
v -99.5661 122.421 -2.54392
v -99.9335 124.024 -1.83015
v -101.261 124.024 -1.83015
v -101.261 124.736 -1.72973
v -99.9335 124.736 -1.72973
v -99.7321 125.44 -1.76398
v -99.5661 125.645 -1.32838
v -99.5661 124.776 -1.104
v -99.7321 124.745 -1.58447
v -99.2116 123.649 -0.78695
v -99.5661 123.812 -1.23996
v -99.2116 124.807 -0.62371
v -101.261 123.649 -0.78695
v -99.2116 123.649 -0.78695
v -99.2116 124.807 -0.62371
v -101.261 124.807 -0.62371
v -99.9335 126.269 -2.84571
v -101.261 126.269 -2.84571
v -99.2116 127.299 -2.43808
v -99.5661 126.852 -2.61508
v -101.261 127.299 -2.43808
v -99.2116 127.299 -2.43808
v -99.732 123.311 -4.89526
v -99.5661 122.982 -5.24631
v -99.732 123.975 -5.30119
v -99.9335 123.41 -4.78892
v -101.261 123.41 -4.78892
v -101.261 122.997 -4.201
v -99.9335 122.997 -4.201
v -99.7321 126.02 -4.80788
v -99.5661 126.371 -5.13736
v -99.7321 126.404 -4.20187
v -99.2116 121.98 -4.64151
v -99.2116 122.652 -5.59738
v -99.2116 122.652 -5.59738
v -99.2116 121.98 -4.64151
v -101.261 121.98 -4.64151
v -101.261 122.652 -5.59738
v -99.9335 125.914 -4.70847
v -101.261 125.914 -4.70847
v -101.261 125.378 -5.09869
v -99.9335 125.378 -5.09869
v -99.2116 125.851 -6.10101
v -99.2116 126.722 -5.46657
v -99.2116 126.722 -5.46657
v -99.2116 125.851 -6.10101
v -101.261 125.851 -6.10101
v -101.261 126.722 -5.46657
v -99.732 123.311 -2.09887
v -99.732 123.975 -1.69294
v -99.5661 122.982 -1.74782
v -99.9335 123.41 -2.20519
v -99.9335 122.997 -2.79313
v -101.261 122.997 -2.79313
v -101.261 123.41 -2.20519
v -99.7321 126.02 -2.18624
v -99.7321 126.404 -2.79226
v -99.5661 126.371 -1.85676
v -99.2116 122.652 -1.39674
v -99.2116 121.98 -2.35261
v -101.261 122.652 -1.39674
v -101.261 121.98 -2.35261
v -99.2116 121.98 -2.35261
v -99.2116 122.652 -1.39674
v -99.9335 125.914 -2.28566
v -99.9335 125.378 -1.89543
v -101.261 125.378 -1.89543
v -101.261 125.914 -2.28566
v -99.2116 126.722 -1.52756
v -99.2116 125.851 -0.893107
v -101.261 126.722 -1.52756
v -101.261 125.851 -0.893107
v -99.2116 125.851 -0.893107
v -99.2116 126.722 -1.52756
v -101.261 122.851 -3.49706
v -99.9335 122.851 -3.49706
v -99.7321 126.538 -3.49706
v -99.2116 121.743 -3.49706
v -99.2116 121.743 -3.49706
v -101.261 121.743 -3.49706
v -99.9335 124.024 -5.16398
v -99.732 123.975 -5.30119
v -99.7321 124.745 -5.40966
v -99.9335 124.736 -5.2644
v -99.9335 126.269 -4.14841
v -99.7321 126.404 -4.20187
v -99.7321 126.538 -3.49706
v -99.9335 126.393 -3.49706
v -99.9335 124.736 -1.72973
v -99.7321 124.745 -1.58447
v -99.732 123.975 -1.69294
v -99.9335 124.024 -1.83015
v -99.7321 126.404 -2.79226
v -99.9335 126.269 -2.84571
v -99.9335 122.997 -4.201
v -99.732 122.863 -4.25893
v -99.732 123.311 -4.89526
v -99.9335 123.41 -4.78892
v -99.9335 125.378 -5.09869
v -99.7321 125.44 -5.23015
v -99.7321 126.02 -4.80788
v -99.9335 125.914 -4.70847
v -99.9335 123.41 -2.20519
v -99.732 123.311 -2.09887
v -99.732 122.863 -2.7352
v -99.9335 122.997 -2.79313
v -99.9335 125.914 -2.28566
v -99.7321 126.02 -2.18624
v -99.7321 125.44 -1.76398
v -99.9335 125.378 -1.89543
v -99.9335 122.851 -3.49706
v -99.732 122.705 -3.49706
vt 0.0033 0.1621
vt 0.0033 0.1878
vt 0.1275 0.1878
vt 0.1275 0.1621
vt 0.4999 0.1451
vt 0.4999 0.0638
vt 0.3758 0.0638
vt 0.3758 0.1451
vt 0.4999 0.1621
vt 0.4999 0.1878
vt 0.6143 0.1878
vt 0.6143 0.1621
vt 0.3758 0.1878
vt 0.3758 0.2169
vt 0.4999 0.2169
vt 0.4999 0.2169
vt 0.3758 0.2169
vt 0.3758 0.3263
vt 0.4999 0.3263
vt 0.9575 0.1451
vt 0.9575 0.0638
vt 0.8431 0.0638
vt 0.8431 0.1451
vt 0.9575 0.1878
vt 0.8431 0.1878
vt 0.8431 0.2169
vt 0.9575 0.2169
vt 0.9575 0.2169
vt 0.8431 0.2169
vt 0.8431 0.3263
vt 0.9575 0.3263
vt 0.1275 0.1621
vt 0.1275 0.1878
vt 0.3758 0.1451
vt 0.3758 0.0638
vt 0.4999 0.0638
vt 0.4999 0.1451
vt 0.6143 0.1621
vt 0.6143 0.1878
vt 0.4999 0.1878
vt 0.4999 0.1621
vt 0.3758 0.2169
vt 0.3758 0.1878
vt 0.4999 0.2169
vt 0.3758 0.3263
vt 0.3758 0.2169
vt 0.4999 0.2169
vt 0.4999 0.3263
vt 0.8431 0.1451
vt 0.8431 0.0638
vt 0.8431 0.2169
vt 0.8431 0.1878
vt 0.8431 0.3263
vt 0.8431 0.2169
vt 0.2516 0.1621
vt 0.2516 0.1878
vt 0.3758 0.1621
vt 0.2516 0.1451
vt 0.2516 0.0638
vt 0.1275 0.0638
vt 0.1275 0.1451
vt 0.7287 0.1621
vt 0.7287 0.1878
vt 0.8431 0.1621
vt 0.1275 0.2169
vt 0.2516 0.2169
vt 0.2516 0.2169
vt 0.1275 0.2169
vt 0.1275 0.3263
vt 0.2516 0.3263
vt 0.7287 0.1451
vt 0.7287 0.0638
vt 0.6143 0.0638
vt 0.6143 0.1451
vt 0.6143 0.2169
vt 0.7287 0.2169
vt 0.7287 0.2169
vt 0.6143 0.2169
vt 0.6143 0.3263
vt 0.7287 0.3263
vt 0.2516 0.1621
vt 0.3758 0.1621
vt 0.2516 0.1878
vt 0.2516 0.1451
vt 0.1275 0.1451
vt 0.1275 0.0638
vt 0.2516 0.0638
vt 0.7287 0.1621
vt 0.8431 0.1621
vt 0.7287 0.1878
vt 0.2516 0.2169
vt 0.1275 0.2169
vt 0.2516 0.3263
vt 0.1275 0.3263
vt 0.1275 0.2169
vt 0.2516 0.2169
vt 0.7287 0.1451
vt 0.6143 0.1451
vt 0.6143 0.0638
vt 0.7287 0.0638
vt 0.7287 0.2169
vt 0.6143 0.2169
vt 0.7287 0.3263
vt 0.6143 0.3263
vt 0.6143 0.2169
vt 0.7287 0.2169
vt 0.0033 0.0638
vt 0.0033 0.1451
vt 0.9575 0.1621
vt 0.0033 0.2169
vt 0.0033 0.2169
vt 0.0033 0.3263
vt 0.3758 0.1451
vt 0.3758 0.1621
vt 0.4999 0.1621
vt 0.4999 0.1451
vt 0.8431 0.1451
vt 0.8431 0.1621
vt 0.9575 0.1621
vt 0.9575 0.1451
vt 0.4999 0.1451
vt 0.4999 0.1621
vt 0.3758 0.1621
vt 0.3758 0.1451
vt 0.8431 0.1621
vt 0.8431 0.1451
vt 0.1275 0.1451
vt 0.1275 0.1621
vt 0.2516 0.1621
vt 0.2516 0.1451
vt 0.6143 0.1451
vt 0.6143 0.1621
vt 0.7287 0.1621
vt 0.7287 0.1451
vt 0.2516 0.1451
vt 0.2516 0.1621
vt 0.1275 0.1621
vt 0.1275 0.1451
vt 0.7287 0.1451
vt 0.7287 0.1621
vt 0.6143 0.1621
vt 0.6143 0.1451
vt 0.0033 0.1451
vt 0.0033 0.1621
vn 0.9454 0.3258 0
vn 0.8773 0.4799 0
vn 0.8773 0.4404 0.1907
vn 0.9454 0.299 0.1295
vn 0 -0.0562 0.9984
vn 0 -0.0562 0.9984
vn 0 0.3377 0.9412
vn 0 0.3377 0.9412
vn 0.9454 -0.018 0.3254
vn 0.8776 -0.0267 0.4786
vn 0.878 -0.2043 0.4329
vn 0.9454 -0.1391 0.2946
vn 0.8773 0.1621 0.4517
vn 0.8051 0.2003 0.5583
vn 0.8051 -0.0338 0.5922
vn 0 0.0562 -0.9984
vn 0 -0.3377 -0.9412
vn 0 -0.3377 -0.9412
vn 0 0.0562 -0.9984
vn 0 -1 0
vn 0 -1 0
vn 0 -0.9299 0.3678
vn 0 -0.9299 0.3678
vn 0.878 -0.4787 0
vn 0.878 -0.4452 0.1761
vn 0.8051 -0.5515 0.2181
vn 0.8051 -0.5931 0
vn 0 1 0
vn 0 0.9299 -0.3678
vn 0 0.9299 -0.3678
vn 0 1 0
vn 0.9454 0.299 -0.1295
vn 0.8773 0.4403 -0.1907
vn 0 0.3377 -0.9412
vn 0 0.3377 -0.9412
vn 0 -0.0562 -0.9984
vn 0 -0.0562 -0.9984
vn 0.9454 -0.1391 -0.2947
vn 0.878 -0.2043 -0.4329
vn 0.8776 -0.0267 -0.4786
vn 0.9454 -0.018 -0.3254
vn 0.8051 0.2003 -0.5582
vn 0.8773 0.1621 -0.4517
vn 0.8051 -0.0337 -0.5921
vn 0 -0.3377 0.9412
vn 0 -0.3377 0.9412
vn 0 0.0562 0.9984
vn 0 0.0562 0.9984
vn 0 -0.9299 -0.3678
vn 0 -0.9299 -0.3678
vn 0.8051 -0.5515 -0.2181
vn 0.878 -0.4452 -0.1761
vn 0 0.9299 0.3678
vn 0 0.9299 0.3678
vn 0.9454 0.2229 0.2377
vn 0.8773 0.3283 0.3501
vn 0.9454 0.1101 0.3067
vn 0 0.684 0.7295
vn 0 0.684 0.7295
vn 0 0.9176 0.3975
vn 0 0.9176 0.3975
vn 0.9454 -0.2377 0.2228
vn 0.878 -0.3492 0.3275
vn 0.9454 -0.303 0.1198
vn 0.8051 0.5442 0.2357
vn 0.8051 0.4057 0.4327
vn 0 -0.684 -0.7295
vn 0 -0.9176 -0.3975
vn 0 -0.9176 -0.3975
vn 0 -0.684 -0.7295
vn 0 -0.7295 0.684
vn 0 -0.7295 0.684
vn 0 -0.4267 0.9044
vn 0 -0.4268 0.9044
vn 0.8051 -0.2531 0.5364
vn 0.8051 -0.4326 0.4057
vn 0 0.7295 -0.684
vn 0 0.4267 -0.9044
vn 0 0.4267 -0.9044
vn 0 0.7295 -0.684
vn 0.9454 0.2229 -0.2377
vn 0.9454 0.11 -0.3067
vn 0.8773 0.3283 -0.3501
vn 0 0.684 -0.7295
vn 0 0.9176 -0.3975
vn 0 0.9176 -0.3975
vn 0 0.684 -0.7295
vn 0.9454 -0.2377 -0.2229
vn 0.9454 -0.303 -0.1198
vn 0.878 -0.3492 -0.3275
vn 0.8051 0.4057 -0.4326
vn 0.8051 0.5442 -0.2357
vn 0 -0.684 0.7295
vn 0 -0.9176 0.3975
vn 0 -0.9176 0.3975
vn 0 -0.684 0.7295
vn 0 -0.7295 -0.684
vn 0 -0.4267 -0.9044
vn 0 -0.4267 -0.9044
vn 0 -0.7295 -0.684
vn 0.8051 -0.4326 -0.4057
vn 0.8051 -0.2531 -0.5364
vn 0 0.7295 0.684
vn 0 0.4268 0.9044
vn 0 0.4268 0.9044
vn 0 0.7295 0.684
vn 0 1 0
vn 0 1 0
vn 0.9454 -0.3258 0
vn 0.8051 0.5931 0
vn 0 -1 0
vn 0 -1 0
vn 0.586 0.2736 0.7627
vn 0.586 0.2736 0.7627
vn 0.5856 -0.0461 0.8093
vn 0.5855 -0.0451 0.8094
vn 0.5852 -0.7541 0.2982
vn 0.5852 -0.7541 0.2982
vn 0.5852 -0.8109 0
vn 0.5852 -0.8109 0
vn 0.5856 -0.0451 -0.8093
vn 0.5856 -0.0461 -0.8093
vn 0.586 0.2737 -0.7627
vn 0.586 0.2737 -0.7627
vn 0.5852 -0.7541 -0.2982
vn 0.5852 -0.7541 -0.2983
vn 0.586 0.7436 0.3221
vn 0.586 0.7436 0.3221
vn 0.586 0.5543 0.5911
vn 0.586 0.5543 0.5911
vn 0.5851 -0.3461 0.7334
vn 0.5852 -0.3461 0.7333
vn 0.5851 -0.5915 0.5547
vn 0.5851 -0.5915 0.5547
vn 0.586 0.5542 -0.5911
vn 0.586 0.5543 -0.5911
vn 0.586 0.7435 -0.3221
vn 0.586 0.7435 -0.3221
vn 0.5852 -0.5915 -0.5547
vn 0.5852 -0.5915 -0.5547
vn 0.5852 -0.3461 -0.7333
vn 0.5852 -0.3461 -0.7333
vn 0.586 0.8103 -0
vn 0.586 0.8103 -0
f 1/1/1 2/2/2 3/3/3
f 1/1/1 3/3/3 4/4/4
f 5/5/5 6/6/6 7/7/7
f 5/5/5 7/7/7 8/8/8
f 9/9/9 10/10/10 11/11/11
f 9/9/9 11/11/11 12/12/12
f 10/10/10 13/13/13 14/14/14
f 10/10/10 14/14/14 15/15/15
f 16/16/16 17/17/17 18/18/18
f 16/16/16 18/18/18 19/19/19
f 20/20/20 21/21/21 22/22/22
f 20/20/20 22/22/22 23/23/23
f 24/24/24 25/25/25 26/26/26
f 24/24/24 26/26/26 27/27/27
f 28/28/28 29/29/29 30/30/30
f 28/28/28 30/30/30 31/31/31
f 2/2/2 1/1/1 32/32/32
f 2/2/2 32/32/32 33/33/33
f 34/34/34 35/35/35 36/36/36
f 34/34/34 36/36/36 37/37/37
f 38/38/38 39/39/39 40/40/40
f 38/38/38 40/40/40 41/41/41
f 42/42/42 43/43/43 40/40/40
f 42/42/42 40/40/40 44/44/44
f 45/45/45 46/46/46 47/47/47
f 45/45/45 47/47/47 48/48/48
f 49/49/49 50/50/50 21/21/21
f 49/49/49 21/21/21 20/20/20
f 51/51/51 52/52/52 24/24/24
f 51/51/51 24/24/24 27/27/27
f 53/53/53 54/54/54 28/28/28
f 53/53/53 28/28/28 31/31/31
f 55/55/55 56/56/56 13/13/13
f 55/55/55 13/13/13 57/57/57
f 58/58/58 59/59/59 60/60/60
f 58/58/58 60/60/60 61/61/61
f 62/62/62 63/63/63 25/25/25
f 62/62/62 25/25/25 64/64/64
f 56/56/56 3/3/3 65/65/65
f 56/56/56 65/65/65 66/66/66
f 67/67/67 68/68/68 69/69/69
f 67/67/67 69/69/69 70/70/70
f 71/71/71 72/72/72 73/73/73
f 71/71/71 73/73/73 74/74/74
f 63/63/63 11/11/11 75/75/75
f 63/63/63 75/75/75 76/76/76
f 77/77/77 78/78/78 79/79/79
f 77/77/77 79/79/79 80/80/80
f 81/81/81 82/82/82 43/43/43
f 81/81/81 43/43/43 83/83/83
f 84/84/84 85/85/85 86/86/86
f 84/84/84 86/86/86 87/87/87
f 88/88/88 89/89/89 52/52/52
f 88/88/88 52/52/52 90/90/90
f 91/91/91 92/92/92 33/33/33
f 91/91/91 33/33/33 83/83/83
f 93/93/93 94/94/94 95/95/95
f 93/93/93 95/95/95 96/96/96
f 97/97/97 98/98/98 99/99/99
f 97/97/97 99/99/99 100/100/100
f 101/101/101 102/102/102 39/39/39
f 101/101/101 39/39/39 90/90/90
f 103/103/103 104/104/104 105/105/105
f 103/103/103 105/105/105 106/106/106
f 4/4/4 3/3/3 56/56/56
f 4/4/4 56/56/56 55/55/55
f 8/8/8 7/7/7 59/59/59
f 8/8/8 59/59/59 58/58/58
f 12/12/12 11/11/11 63/63/63
f 12/12/12 63/63/63 62/62/62
f 13/13/13 56/56/56 66/66/66
f 13/13/13 66/66/66 14/14/14
f 17/17/17 67/67/67 70/70/70
f 17/17/17 70/70/70 18/18/18
f 23/23/23 22/22/22 72/72/72
f 23/23/23 72/72/72 71/71/71
f 25/25/25 63/63/63 76/76/76
f 25/25/25 76/76/76 26/26/26
f 29/29/29 77/77/77 80/80/80
f 29/29/29 80/80/80 30/30/30
f 32/32/32 81/81/81 83/83/83
f 32/32/32 83/83/83 33/33/33
f 34/34/34 84/84/84 87/87/87
f 34/34/34 87/87/87 35/35/35
f 38/38/38 88/88/88 90/90/90
f 38/38/38 90/90/90 39/39/39
f 42/42/42 91/91/91 83/83/83
f 42/42/42 83/83/83 43/43/43
f 45/45/45 93/93/93 96/96/96
f 45/45/45 96/96/96 46/46/46
f 49/49/49 97/97/97 100/100/100
f 49/49/49 100/100/100 50/50/50
f 51/51/51 101/101/101 90/90/90
f 51/51/51 90/90/90 52/52/52
f 53/53/53 103/103/103 106/106/106
f 53/53/53 106/106/106 54/54/54
f 57/57/57 13/13/13 10/10/10
f 57/57/57 10/10/10 9/9/9
f 61/61/61 60/60/60 107/107/107
f 61/61/61 107/107/107 108/108/108
f 64/64/64 25/25/25 24/24/24
f 64/64/64 24/24/24 109/109/109
f 3/3/3 2/2/2 110/110/110
f 3/3/3 110/110/110 65/65/65
f 68/68/68 111/111/111 112/112/112
f 68/68/68 112/112/112 69/69/69
f 74/74/74 73/73/73 6/6/6
f 74/74/74 6/6/6 5/5/5
f 11/11/11 10/10/10 15/15/15
f 11/11/11 15/15/15 75/75/75
f 78/78/78 16/16/16 19/19/19
f 78/78/78 19/19/19 79/79/79
f 82/82/82 41/41/41 40/40/40
f 82/82/82 40/40/40 43/43/43
f 85/85/85 108/108/108 107/107/107
f 85/85/85 107/107/107 86/86/86
f 89/89/89 109/109/109 24/24/24
f 89/89/89 24/24/24 52/52/52
f 92/92/92 110/110/110 2/2/2
f 92/92/92 2/2/2 33/33/33
f 94/94/94 112/112/112 111/111/111
f 94/94/94 111/111/111 95/95/95
f 98/98/98 37/37/37 36/36/36
f 98/98/98 36/36/36 99/99/99
f 102/102/102 44/44/44 40/40/40
f 102/102/102 40/40/40 39/39/39
f 104/104/104 48/48/48 47/47/47
f 104/104/104 47/47/47 105/105/105
f 113/113/113 114/114/114 115/115/115
f 113/113/113 115/115/115 116/116/116
f 117/117/117 118/118/118 119/119/119
f 117/117/117 119/119/119 120/120/120
f 121/121/121 122/122/122 123/123/123
f 121/121/121 123/123/123 124/124/124
f 120/120/120 119/119/119 125/125/125
f 120/120/120 125/125/125 126/126/126
f 127/127/127 128/128/128 129/129/129
f 127/127/127 129/129/129 130/130/130
f 131/131/131 132/132/132 133/133/133
f 131/131/131 133/133/133 134/134/134
f 135/135/135 136/136/136 137/137/137
f 135/135/135 137/137/137 138/138/138
f 139/139/139 140/140/140 141/141/141
f 139/139/139 141/141/141 142/142/142
f 130/130/130 129/129/129 114/114/114
f 130/130/130 114/114/114 113/113/113
f 134/134/134 133/133/133 118/118/118
f 134/134/134 118/118/118 117/117/117
f 124/124/124 123/123/123 136/136/136
f 124/124/124 136/136/136 135/135/135
f 126/126/126 125/125/125 140/140/140
f 126/126/126 140/140/140 139/139/139
f 143/143/143 144/144/144 128/128/128
f 143/143/143 128/128/128 127/127/127
f 116/116/116 115/115/115 132/132/132
f 116/116/116 132/132/132 131/131/131
f 144/144/144 143/143/143 138/138/138
f 144/144/144 138/138/138 137/137/137
f 142/142/142 141/141/141 122/122/122
f 142/142/142 122/122/122 121/121/121
