o sponza_18
v 130.222 41.5531 -64.5431
v 90.0172 41.5531 -64.5431
v 90.0172 41.5531 -30.1763
v 130.222 41.5531 -30.1763
v -103.018 41.5531 -30.1763
v -103.018 41.5531 -64.5431
v -143.222 41.5531 -64.5431
v -143.222 41.5531 -30.1763
v -103.018 41.553 23.0518
v -143.222 41.553 23.0518
v 90.0172 41.553 23.0518
v 90.0172 41.553 57.4186
v 130.222 41.553 57.4186
v 130.222 41.553 23.0518
v -143.222 41.553 57.4186
v -103.018 41.553 57.4186
vt 6.7189 3.1852
vt 5.731 3.1852
vt 5.731 2.3274
vt 6.7189 2.3274
vt 0.9879 2.3274
vt 0.9879 3.1852
vt 0 3.1852
vt 0 2.3274
vt 0.9879 1.0173
vt 0 1.0173
vt 5.731 1.0173
vt 5.731 0.1409
vt 6.7189 0.1409
vt 6.7189 1.0173
vt 0 0.1409
vt 0.9879 0.1409
vn 0 1 0
vn 0 1 0
vn 0 1 0
vn 0 1 0
vn 0 1 0
vn 0 1 0
vn 0 1 0
vn 0 1 0
vn 0 1 0
vn 0 1 0
vn 0 1 0
vn 0 1 0
vn 0 1 0
vn 0 1 0
vn 0 1 0
vn 0 1 0
f 1/1/1 2/2/2 3/3/3
f 1/1/1 3/3/3 4/4/4
f 5/5/5 6/6/6 7/7/7
f 5/5/5 7/7/7 8/8/8
f 9/9/9 5/5/5 8/8/8
f 9/9/9 8/8/8 10/10/10
f 2/2/2 6/6/6 5/5/5
f 2/2/2 5/5/5 3/3/3
f 11/11/11 12/12/12 13/13/13
f 11/11/11 13/13/13 14/14/14
f 3/3/3 11/11/11 14/14/14
f 3/3/3 14/14/14 4/4/4
f 15/15/15 16/16/16 9/9/9
f 15/15/15 9/9/9 10/10/10
f 16/16/16 12/12/12 11/11/11
f 16/16/16 11/11/11 9/9/9
