o sponza_227
v -77.9306 67.4124 20.0621
v -77.9306 67.4124 20.9846
v -79.0894 67.4124 20.9846
v -79.0894 67.4124 20.0621
v -79.0894 68.7219 20.9846
v -77.5894 68.7219 20.9846
v -77.5894 68.7219 20.0621
v -79.0894 68.7219 20.0621
v -77.8139 67.6029 20.0621
v -77.8139 67.6029 20.9846
v -77.5894 67.7063 20.9846
v -77.5894 67.7063 20.0621
v -77.9306 67.4124 20.9846
v -79.0894 67.4124 20.9846
v -77.9306 67.4124 20.0621
v -79.0894 67.4124 20.0621
v -79.0894 68.7219 20.9846
v -77.5894 68.7219 20.9846
v -77.5894 68.7219 20.9846
v -77.5894 68.7219 20.0621
v -77.5894 68.7219 20.0621
v -79.0894 68.7219 20.0621
v -77.8139 67.6029 20.0621
v -77.8139 67.6029 20.9846
v -77.5894 67.7063 20.0621
v -77.5894 67.7063 20.9846
vt 0.6529 0.9132
vt 0.5979 0.9132
vt 0.5979 0.9823
vt 0.6529 0.9823
vt 0.5979 0.7366
vt 0.5979 0.826
vt 0.6529 0.826
vt 0.6529 0.7366
vt 0.5153 0.8138
vt 0.5153 0.8829
vt 0.5266 0.8068
vt 0.6529 0.8999
vt 0.5979 0.8999
vt 0.5979 0.9132
vt 0.5866 0.9063
vt 0.5979 0.9823
vt 0.5933 0.8829
vt 0.5933 0.7934
vt 0.5979 0.8865
vt 0.6529 0.8865
vt 0.6529 0.826
vt 0.5979 0.826
vt 0.5198 0.9823
vt 0.5199 0.8929
vt 0.5328 0.7934
vt 0.5804 0.8929
vn 0.4887 -0.8724 0
vn 0 -1 0
vn 0 1 0
vn 0 0 -1
vn 0.6642 -0.7475 0
vn 0 0 1
vn 0.8422 -0.5392 0
vn 0.8421 -0.5393 0
vn 1 0 0
f 15/1/1 13/2/1 14/3/2
f 15/1/1 14/3/2 16/4/2
f 17/5/3 18/6/3 20/7/3
f 17/5/3 20/7/3 22/8/3
f 1/9/4 4/10/4 23/11/4
f 15/1/1 9/12/5 24/13/5
f 15/1/1 24/13/5 13/2/1
f 2/14/6 10/15/6 3/16/6
f 23/11/4 4/10/4 8/17/4
f 23/11/4 8/17/4 21/18/4
f 26/19/7 25/20/8 7/21/9
f 26/19/7 7/21/9 19/22/9
f 5/23/6 3/16/6 10/15/6
f 5/23/6 10/15/6 6/24/6
f 21/18/4 12/25/4 23/11/4
f 25/20/8 26/19/7 24/13/5
f 25/20/8 24/13/5 9/12/5
f 10/15/6 11/26/6 6/24/6
