o sponza_220
v -4.94366 67.4124 20.0493
v -3.78483 67.4124 20.0493
v -3.78484 67.4124 20.9718
v -4.94366 67.4124 20.9718
v -3.4436 68.7219 20.9718
v -3.4436 68.7219 20.0493
v -4.94366 68.7219 20.0493
v -4.94366 68.7219 20.9718
v -3.66815 67.6029 20.9718
v -3.66815 67.6029 20.0493
v -3.4436 67.7063 20.9718
v -3.4436 67.7063 20.0493
v -4.94366 67.4124 20.0493
v -3.78483 67.4124 20.0493
v -4.94366 67.4124 20.9718
v -3.78484 67.4124 20.9718
v -3.4436 68.7219 20.9718
v -3.4436 68.7219 20.9718
v -3.4436 68.7219 20.0493
v -3.4436 68.7219 20.0493
v -4.94366 68.7219 20.0493
v -4.94366 68.7219 20.9718
v -3.66815 67.6029 20.9718
v -3.66815 67.6029 20.0493
v -3.4436 67.7063 20.9718
v -3.4436 67.7063 20.0493
vt 0.5979 0.9823
vt 0.5979 0.9132
vt 0.6529 0.9132
vt 0.6529 0.9823
vt 0.6529 0.826
vt 0.5979 0.826
vt 0.5979 0.7366
vt 0.6529 0.7366
vt 0.5153 0.8138
vt 0.5266 0.8068
vt 0.5153 0.8829
vt 0.5979 0.8999
vt 0.6529 0.8999
vt 0.5979 0.9132
vt 0.5979 0.9823
vt 0.5866 0.9063
vt 0.5933 0.8829
vt 0.5933 0.7934
vt 0.6529 0.826
vt 0.6529 0.8865
vt 0.5979 0.8865
vt 0.5979 0.826
vt 0.5198 0.9823
vt 0.5199 0.8929
vt 0.5328 0.7934
vt 0.5804 0.8929
vn 0 -1 0
vn 0.4887 -0.8725 0
vn 0 1 0
vn 0 0 1
vn 0.6642 -0.7475 0
vn 0 0 -1
vn 1 0 0
vn 0.8422 -0.5392 0
f 13/1/1 14/2/2 16/3/2
f 13/1/1 16/3/2 15/4/1
f 17/5/3 19/6/3 21/7/3
f 17/5/3 21/7/3 22/8/3
f 3/9/4 23/10/4 4/11/4
f 24/12/5 9/13/5 16/3/2
f 24/12/5 16/3/2 14/2/2
f 2/14/6 1/15/6 10/16/6
f 8/17/4 4/11/4 23/10/4
f 8/17/4 23/10/4 18/18/4
f 5/19/7 25/20/8 26/21/8
f 5/19/7 26/21/8 20/22/7
f 10/16/6 1/15/6 7/23/6
f 10/16/6 7/23/6 6/24/6
f 18/18/4 23/10/4 11/25/4
f 24/12/5 26/21/8 25/20/8
f 24/12/5 25/20/8 9/13/5
f 10/16/6 6/24/6 12/26/6
