o sponza_207
v 30.0873 67.4124 17.9262
v 31.0098 67.4124 17.9262
v 31.0098 67.4124 19.085
v 30.0873 67.4124 19.085
v 31.0098 68.7219 19.085
v 31.0098 68.7219 17.585
v 30.0873 68.7219 17.585
v 30.0873 68.7219 19.085
v 30.0873 67.6029 17.8095
v 31.0098 67.6029 17.8095
v 31.0098 67.7063 17.585
v 30.0873 67.7063 17.585
v 31.0098 67.4124 17.9262
v 31.0098 67.4124 19.085
v 30.0873 67.4124 17.9262
v 30.0873 67.4124 19.085
v 31.0098 68.7219 19.085
v 31.0098 68.7219 17.585
v 31.0098 68.7219 17.585
v 30.0873 68.7219 17.585
v 30.0873 68.7219 17.585
v 30.0873 68.7219 19.085
v 30.0873 67.6029 17.8095
v 31.0098 67.6029 17.8095
v 30.0873 67.7063 17.585
v 31.0098 67.7063 17.585
vt 0.3593 0.8072
vt 0.4143 0.8072
vt 0.4143 0.7381
vt 0.3593 0.7381
vt 0.4143 0.9839
vt 0.4143 0.8945
vt 0.3593 0.8945
vt 0.3593 0.9839
vt 0.4915 0.9031
vt 0.4224 0.9031
vt 0.4984 0.9145
vt 0.3593 0.8205
vt 0.4143 0.8205
vt 0.4346 0.8164
vt 0.4277 0.8278
vt 0.5037 0.8164
vt 0.4224 0.9812
vt 0.5118 0.9812
vt 0.4143 0.8339
vt 0.3593 0.8339
vt 0.3593 0.8945
vt 0.4143 0.8945
vt 0.5037 0.8945
vt 0.4143 0.8945
vt 0.5118 0.9206
vt 0.4143 0.8339
vn 0 -0.8725 -0.4887
vn 0 -1 -0
vn 0 1 0
vn -1 0 0
vn 0 -0.7475 -0.6643
vn 0 -0.7475 -0.6642
vn 1 0 0
vn 0 -0.5392 -0.8422
vn 0 0 -1
f 15/1/1 13/2/1 14/3/2
f 15/1/1 14/3/2 16/4/2
f 17/5/3 18/6/3 20/7/3
f 17/5/3 20/7/3 22/8/3
f 1/9/4 4/10/4 23/11/4
f 15/1/1 9/12/5 24/13/6
f 15/1/1 24/13/6 13/2/1
f 2/14/7 10/15/7 3/16/7
f 23/11/4 4/10/4 8/17/4
f 23/11/4 8/17/4 21/18/4
f 26/19/8 25/20/8 7/21/9
f 26/19/8 7/21/9 19/22/9
f 5/23/7 3/16/7 10/15/7
f 5/23/7 10/15/7 6/24/7
f 21/18/4 12/25/4 23/11/4
f 25/20/8 26/19/8 24/13/6
f 25/20/8 24/13/6 9/12/5
f 10/15/7 11/26/7 6/24/7
