o sponza_221
v -4.09406 66.5982 20.8598
v -3.90062 66.6759 20.8598
v -4.39916 66.6759 20.8598
v -4.22638 66.5982 20.8598
v -4.63675 67.2375 20.8598
v -4.74069 67.0594 20.8598
v -3.74444 67.0594 20.8598
v -3.78712 67.2375 20.8598
v -4.44258 67.4156 20.8598
v -3.94017 67.4156 20.8598
v -4.49622 66.8285 20.8598
v -3.77288 66.8583 20.8598
v -5.15886 66.2721 20.8598
v -4.87254 66.1125 20.8598
v -3.74444 67.0594 20.1721
v -3.78712 67.2375 20.1721
v -3.94017 67.4156 20.1721
v -4.49622 66.8285 20.1721
v -4.39916 66.6759 20.1721
v -3.90062 66.6759 20.1721
v -3.77288 66.8583 20.1721
v -4.87254 66.1125 20.1721
v -5.15886 66.2721 20.1721
v -4.09406 66.5982 20.1721
v -4.22638 66.5982 20.1721
v -4.74069 67.0594 20.1721
v -4.63675 67.2375 20.1721
v -4.44258 67.4156 20.1721
v -4.09406 66.5982 20.8598
v -3.90062 66.6759 20.8598
v -4.22638 66.5982 20.8598
v -4.39916 66.6759 20.8598
v -3.74444 67.0594 20.8598
v -3.78712 67.2375 20.8598
v -3.94017 67.4156 20.8598
v -3.77288 66.8583 20.8598
v -4.49622 66.8285 20.8598
v -4.49622 66.8285 20.8598
v -5.15886 66.2721 20.8598
v -4.87254 66.1125 20.8598
v -4.87254 66.1125 20.8598
v -3.74444 67.0594 20.1721
v -3.78712 67.2375 20.1721
v -3.94017 67.4156 20.1721
v -4.49622 66.8285 20.1721
v -4.49622 66.8285 20.1721
v -4.39916 66.6759 20.1721
v -3.90062 66.6759 20.1721
v -3.77288 66.8583 20.1721
v -4.87254 66.1125 20.1721
v -4.87254 66.1125 20.1721
v -5.15886 66.2721 20.1721
v -4.09406 66.5982 20.1721
v -4.22638 66.5982 20.1721
vt 0.2029 0.2838
vt 0.2022 0.301
vt 0.1884 0.2623
vt 0.1992 0.2736
vt 0.1382 0.2595
vt 0.1492 0.2465
vt 0.1768 0.3237
vt 0.1618 0.3254
vt 0.1298 0.2795
vt 0.1437 0.3184
vt 0.1739 0.259
vt 0.1916 0.316
vt 0.1986 0.1922
vt 0.219 0.21
vt 0.1204 0.6012
vt 0.1206 0.615
vt 0.0673 0.6159
vt 0.067 0.602
vt 0.1208 0.6289
vt 0.0675 0.6297
vt 0.0658 0.5218
vt 0.1192 0.5209
vt 0.1194 0.5328
vt 0.066 0.5336
vt 0.12 0.5715
vt 0.1202 0.5856
vt 0.0668 0.5864
vt 0.0666 0.5723
vt 0.1183 0.4654
vt 0.1192 0.5209
vt 0.0658 0.5218
vt 0.0649 0.4662
vt 0.118 0.4431
vt 0.1183 0.4654
vt 0.0649 0.4662
vt 0.0646 0.444
vt 0.1533 0.3311
vt 0.164 0.3294
vt 0.1791 0.3335
vt 0.1385 0.3399
vt 0.1307 0.3731
vt 0.2118 0.3603
vt 0.2056 0.3762
vt 0.1365 0.387
vt 0.1921 0.3931
vt 0.1512 0.3996
vt 0.1889 0.3447
vt 0.1305 0.3564
vt 0.2104 0.2816
vt 0.2357 0.2909
vt 0.1197 0.5564
vt 0.0664 0.5573
vt 0.0662 0.547
vt 0.1196 0.5462
vn 0 0 1
vn 0.9989 0.0474 0
vn 0.8904 0.4552 0
vn 0.7584 0.6518 0
vn -0.8437 -0.5369 0
vn -0.6545 -0.7561 0
vn 0.6217 -0.7832 0
vn 0.9302 -0.367 0
vn 0.8852 -0.4652 0
vn -0.4871 -0.8733 0
vn 0 0 -1
vn 0.1899 -0.9818 0
vn -0.2099 -0.9777 0
f 29/1/1 30/2/1 32/3/1
f 29/1/1 32/3/1 31/4/1
f 5/5/1 6/6/1 33/7/1
f 5/5/1 33/7/1 34/8/1
f 9/9/1 5/5/1 34/8/1
f 9/9/1 34/8/1 35/10/1
f 33/7/1 6/6/1 37/11/1
f 33/7/1 37/11/1 36/12/1
f 30/2/1 36/12/1 37/11/1
f 30/2/1 37/11/1 32/3/1
f 37/11/1 6/6/1 39/13/1
f 37/11/1 39/13/1 40/14/1
f 42/15/2 43/16/3 8/17/3
f 42/15/2 8/17/3 7/18/2
f 8/17/3 43/16/3 44/19/4
f 8/17/3 44/19/4 10/20/4
f 38/21/5 45/22/5 47/23/6
f 38/21/5 47/23/6 3/24/6
f 48/25/7 49/26/8 12/27/8
f 48/25/7 12/27/8 2/28/7
f 50/29/9 46/30/9 11/31/9
f 50/29/9 11/31/9 41/32/9
f 52/33/10 51/34/10 14/35/10
f 52/33/10 14/35/10 13/36/10
f 53/37/11 54/38/11 19/39/11
f 53/37/11 19/39/11 20/40/11
f 15/41/11 26/42/11 27/43/11
f 15/41/11 27/43/11 16/44/11
f 16/44/11 27/43/11 28/45/11
f 16/44/11 28/45/11 17/46/11
f 18/47/11 26/42/11 15/41/11
f 18/47/11 15/41/11 21/48/11
f 20/40/11 19/39/11 18/47/11
f 20/40/11 18/47/11 21/48/11
f 18/47/11 22/49/11 23/50/11
f 18/47/11 23/50/11 26/42/11
f 24/51/12 1/52/12 4/53/13
f 24/51/12 4/53/13 25/54/13
f 1/52/12 24/51/12 48/25/7
f 1/52/12 48/25/7 2/28/7
f 12/27/8 49/26/8 42/15/2
f 12/27/8 42/15/2 7/18/2
f 3/24/6 47/23/6 25/54/13
f 3/24/6 25/54/13 4/53/13
