o sponza_122
v -105.288 41.3911 -31.7269
v -105.288 41.3911 24.5815
v -105.288 41.8506 24.5815
v -105.288 41.8506 -31.7269
v -105.288 41.3911 24.5815
v 92.1936 41.3911 24.5814
v 92.1936 41.8506 24.5814
v -105.288 41.8506 24.5815
v 92.1935 41.3911 -31.7269
v 92.1935 41.8506 -31.7269
v 92.1936 41.8506 24.5814
v 92.1936 41.3911 24.5814
v 92.1935 41.8506 -31.7269
v 92.1935 41.3911 -31.7269
v -105.288 41.3911 -31.7269
v -105.288 41.8506 -31.7269
v 92.1935 41.8506 -31.7269
v 91.4801 42.2242 -31.0134
v 91.4801 42.2242 23.868
v 92.1936 41.8506 24.5814
v -105.288 41.8506 -31.7269
v -104.574 42.2242 -31.0134
v 91.4801 42.2242 -31.0134
v 92.1935 41.8506 -31.7269
v -105.288 41.8506 24.5815
v -104.574 42.2242 23.868
v -104.574 42.2242 -31.0134
v -105.288 41.8506 -31.7269
v 92.1936 41.8506 24.5814
v 91.4801 42.2242 23.868
v -104.574 42.2242 23.868
v -105.288 41.8506 24.5815
vt 8.7004 0.2886
vt 11.258 0.2886
vt 11.258 0.3294
vt 8.7004 0.3295
vt 11.258 0.2886
vt 20.2278 0.2885
vt 20.2278 0.3294
vt 11.258 0.3294
vt 22.7854 0.2885
vt 22.7854 0.3294
vt 20.2278 0.3294
vt 20.2278 0.2885
vt -0.2694 0.3295
vt -0.2694 0.2886
vt 8.7004 0.2886
vt 8.7004 0.3295
vt 22.7854 0.3294
vt 22.753 0.3929
vt 20.2602 0.3929
vt 20.2278 0.3294
vt 8.7004 0.3295
vt 8.668 0.393
vt -0.237 0.393
vt -0.2694 0.3295
vt 11.258 0.3294
vt 11.2256 0.393
vt 8.7328 0.393
vt 8.7004 0.3295
vt 20.2278 0.3294
vt 20.1954 0.393
vt 11.2904 0.393
vt 11.258 0.3294
vn -1 -0 -0
vn -1 -0 -0
vn -1 -0 -0
vn -1 -0 -0
vn 0 0 1
vn 0 0 1
vn 0 0 1
vn 0 0 1
vn 1 0 -0
vn 1 0 -0
vn 0.9272 0.2826 0.2457
vn 0.7071 0.0002 0.7071
vn 0 -0 -1
vn 0 -0 -1
vn -0.7071 0 -0.7071
vn -0.2542 0.2925 -0.9219
vn 0.4639 0.8859 0
vn 0.4639 0.8859 0
vn 0.4639 0.8859 0
vn 0.5415 0.7631 0.3528
vn -0.365 0.7563 -0.5429
vn 0 0.8859 -0.4639
vn 0 0.8859 -0.4639
vn 0 0.8859 -0.4639
vn -0.5893 0.5933 0.5483
vn -0.4639 0.8859 0
vn -0.4639 0.8859 0
vn -0.5933 0.7299 -0.3394
vn 0.328 0.7376 0.5902
vn 0 0.8859 0.4639
vn 0 0.8859 0.4639
vn -0.5484 0.5934 0.5892
f 1/1/1 2/2/2 3/3/3
f 1/1/1 3/3/3 4/4/4
f 5/5/5 6/6/6 7/7/7
f 5/5/5 7/7/7 8/8/8
f 9/9/9 10/10/10 11/11/11
f 9/9/9 11/11/11 12/12/12
f 13/13/13 14/14/14 15/15/15
f 13/13/13 15/15/15 16/16/16
f 17/17/17 18/18/18 19/19/19
f 17/17/17 19/19/19 20/20/20
f 21/21/21 22/22/22 23/23/23
f 21/21/21 23/23/23 24/24/24
f 25/25/25 26/26/26 27/27/27
f 25/25/25 27/27/27 28/28/28
f 29/29/29 30/30/30 31/31/31
f 29/29/29 31/31/31 32/32/32
