o sponza_76
v 129.761 66.0364 -64.5288
v 130.31 66.0364 -64.5288
v 129.861 66.0364 -63.9762
v 129.761 66.0364 -63.9761
v 129.811 66.0364 -63.915
v 130.31 66.0364 -63.8539
v 129.86 66.0364 -63.8539
v 129.715 66.4232 -63.9178
v 129.651 67.0697 -63.8356
v 129.651 67.0697 -64.5288
v 129.715 66.4232 -64.5288
v 129.582 66.2298 -63.7637
v 129.582 66.2298 -64.5288
v 129.167 69.096 -63.2453
v 129 69.3142 -63.0485
v 129 69.3142 -64.5288
v 129.167 69.096 -64.5288
v 129.167 69.5323 -63.253
v 129.167 69.5323 -64.5288
v 129.437 67.9696 -63.5755
v 129.167 68.6597 -63.2417
v 129.167 68.6597 -64.5288
v 129.437 67.9696 -64.5288
v 129.764 66.4232 -63.8574
v 129.699 67.0697 -63.7775
v 129.215 68.6597 -63.1828
v 129.216 69.096 -63.1846
v 129.053 69.3142 -62.984
v 129.219 69.5323 -63.1885
v 129.486 67.9696 -63.516
v 129.635 66.2298 -63.699
v 130.31 69.5323 -64.5288
v 129.813 66.4232 -63.7969
v 130.31 66.4232 -63.7969
v 130.31 67.0697 -63.7193
v 129.746 67.0697 -63.7193
v 130.31 66.2298 -63.6342
v 129.688 66.2298 -63.6342
v 129.266 69.096 -63.124
v 130.31 69.096 -63.124
v 130.31 69.3142 -62.9194
v 129.105 69.3142 -62.9194
v 130.31 69.5323 -63.124
v 129.272 69.5323 -63.124
v 129.534 67.9696 -63.4564
v 130.31 67.9696 -63.4564
v 130.31 68.6597 -63.124
v 129.263 68.6597 -63.124
v 129.761 66.0364 -64.5288
v 129.761 66.0364 -63.9761
v 129.811 66.0364 -63.915
v 130.31 66.0364 -63.8539
v 129.86 66.0364 -63.8539
v 129.053 69.3142 -62.984
v 129.635 66.2298 -63.699
v 130.31 66.2298 -63.6342
v 129.688 66.2298 -63.6342
v 130.31 69.3142 -62.9194
v 129.105 69.3142 -62.9194
vt 0.4476 0.6742
vt 0.427 0.6742
vt 0.4439 0.6911
vt 0.4476 0.6911
vt 0.4457 0.6929
vt 0.4476 0.6742
vt 0.4476 0.6911
vt 0.5504 0.8881
vt 0.5526 0.9084
vt 0.5337 0.9084
vt 0.5337 0.8881
vt 0.9865 0.7672
vt 0.9959 0.7791
vt 0.9632 0.7791
vt 0.9619 0.7672
vt 0.5337 0.882
vt 0.5546 0.882
vt 0.5687 0.9721
vt 0.5741 0.979
vt 0.5337 0.979
vt 0.5337 0.9721
vt 0.5685 0.9859
vt 0.5337 0.9859
vt 0.5597 0.9367
vt 0.5688 0.9584
vt 0.5337 0.9584
vt 0.5337 0.9367
vt 0.6028 0.9094
vt 0.605 0.8907
vt 0.6071 0.8899
vt 0.605 0.9099
vt 0.5887 0.9599
vt 0.5888 0.9735
vt 0.5867 0.9726
vt 0.5865 0.9593
vt 0.5834 0.9806
vt 0.5815 0.9806
vt 0.5834 0.9806
vt 0.589 0.988
vt 0.5871 0.99
vt 0.5978 0.9381
vt 0.5957 0.9372
vt 0.6007 0.8862
vt 0.6028 0.8842
vt 0.0078 0.7789
vt 0.0079 0.7672
vt 0.0107 0.7672
vt 0.0104 0.779
vt 0.0091 0.8976
vt 0.0091 0.876
vt 0.0105 0.8749
vt 0.0406 0.8976
vt 0.5504 0.8881
vt 0.5337 0.8881
vt 0.5337 0.9084
vt 0.5526 0.9084
vt 0.9865 0.7672
vt 0.9619 0.7672
vt 0.9632 0.7791
vt 0.9959 0.7791
vt 0.5337 0.882
vt 0.5546 0.882
vt 0.5687 0.9721
vt 0.5337 0.9721
vt 0.5337 0.979
vt 0.5741 0.979
vt 0.5337 0.979
vt 0.5337 0.9859
vt 0.5685 0.9859
vt 0.5741 0.979
vt 0.5597 0.9367
vt 0.5337 0.9367
vt 0.5337 0.9584
vt 0.5688 0.9584
vt 0.605 0.8907
vt 0.6028 0.9094
vt 0.5867 0.9726
vt 0.5865 0.9593
vt 0.5815 0.9806
vt 0.5871 0.99
vt 0.5815 0.9806
vt 0.5957 0.9372
vt 0.6007 0.8862
vt 0.0079 0.7672
vt 0.0078 0.7789
vt 0.0091 0.876
vt 0.0091 0.8976
vn 0 -1 0
vn 0 -1 -0.0003
vn -0.9118 0.3115 0.2676
vn -0.9232 -0.2213 0.3143
vn -0.9863 -0.1647 0
vn -0.9686 0.2488 0
vn -0.4048 -0.9098 0.0915
vn -0.9149 -0.0672 0.3981
vn -0.9973 -0.0728 0
vn -0.4007 -0.9162 0
vn -0.8773 -0.4014 0.263
vn -0.9163 0.0032 0.4005
vn -1 0 0
vn -0.9473 -0.3203 0
vn -0.4484 0.8877 0.1047
vn -0.4434 0.8963 0
vn -0.8738 -0.3894 0.2912
vn -0.9079 -0.2348 0.3473
vn -0.9826 -0.1858 0
vn -0.9543 -0.2989 0
vn -0.7353 0.318 0.5985
vn -0.7508 -0.2505 0.6112
vn -0.7473 -0.2677 0.6081
vn -0.7058 -0.4145 0.5745
vn -0.506 -0.7578 0.4119
vn -0.5004 0.764 0.4074
vn -0.2665 0.9391 0.2169
vn -0.6984 -0.4345 0.5687
vn -0.5392 0.7187 0.439
vn -0.2353 -0.9529 0.1916
vn -0.4487 -0.8156 0.3653
vn 0 1 0
vn -0.3714 0.3626 0.8547
vn 0 0.2858 0.9583
vn 0 -0.2005 0.9797
vn -0.4078 -0.254 0.877
vn -0.138 -0.9241 0.3565
vn -0 -0.9355 0.3532
vn 0 -0.7505 0.6609
vn -0.2666 -0.8177 0.5102
vn 0 0.6437 0.7653
vn -0.3173 0.7224 0.6144
vn -0.3557 -0.4619 0.8125
vn 0 -0.3678 0.9299
vn 0 -0.6841 0.7294
vn -0.2995 -0.7604 0.5763
vn 0 0.6841 0.7294
vn 0 0.9176 0.3975
vn -0.1562 0.9026 0.4011
vn -0.2992 0.7642 0.5713
vn -0.3735 -0.4407 0.8163
vn -0 -0.3584 0.9336
vn -0 -0.2226 0.9749
vn -0.4272 -0.251 0.8686
f 49/1/1 2/2/1 3/3/1
f 49/1/1 3/3/1 50/4/1
f 51/5/2 50/4/2 3/3/2
f 52/6/1 53/7/1 3/3/1
f 52/6/1 3/3/1 2/2/1
f 51/5/1 3/3/1 53/7/1
f 8/8/3 9/9/4 10/10/5
f 8/8/3 10/10/5 11/11/6
f 4/12/7 12/13/8 13/14/9
f 4/12/7 13/14/9 1/15/10
f 8/8/3 11/11/6 13/16/9
f 8/8/3 13/16/9 12/17/8
f 14/18/11 15/19/12 16/20/13
f 14/18/11 16/20/13 17/21/14
f 18/22/15 19/23/16 16/20/13
f 18/22/15 16/20/13 15/19/12
f 20/24/17 21/25/18 22/26/19
f 20/24/17 22/26/19 23/27/20
f 9/9/4 20/24/17 23/27/20
f 9/9/4 23/27/20 10/10/5
f 9/28/4 8/29/3 24/30/21
f 9/28/4 24/30/21 25/31/22
f 26/32/23 27/33/24 14/34/11
f 26/32/23 14/34/11 21/35/18
f 27/33/24 54/36/25 15/37/12
f 27/33/24 15/37/12 14/34/11
f 15/37/12 28/38/26 29/39/27
f 15/37/12 29/39/27 18/40/15
f 30/41/28 26/32/23 21/35/18
f 30/41/28 21/35/18 20/42/17
f 25/31/22 30/41/28 20/42/17
f 25/31/22 20/42/17 9/28/4
f 22/26/19 21/25/18 14/18/11
f 22/26/19 14/18/11 17/21/14
f 24/30/21 8/29/3 12/43/8
f 24/30/21 12/43/8 55/44/29
f 12/45/8 4/46/7 5/47/30
f 12/45/8 5/47/30 31/48/31
f 19/49/16 18/50/15 29/51/27
f 19/49/16 29/51/27 32/52/32
f 33/53/33 34/54/34 35/55/35
f 33/53/33 35/55/35 36/56/36
f 7/57/37 6/58/38 56/59/39
f 7/57/37 56/59/39 57/60/40
f 37/61/41 34/54/34 33/53/33
f 37/61/41 33/53/33 38/62/42
f 39/63/43 40/64/44 58/65/45
f 39/63/43 58/65/45 59/66/46
f 41/67/47 43/68/48 44/69/49
f 41/67/47 44/69/49 42/70/50
f 45/71/51 46/72/52 47/73/53
f 45/71/51 47/73/53 48/74/54
f 36/56/36 35/55/35 46/72/52
f 36/56/36 46/72/52 45/71/51
f 33/75/33 36/76/36 25/31/22
f 33/75/33 25/31/22 24/30/21
f 39/77/43 27/33/24 26/32/23
f 39/77/43 26/32/23 48/78/54
f 39/77/43 59/79/46 54/36/25
f 39/77/43 54/36/25 27/33/24
f 44/80/49 29/39/27 28/38/26
f 44/80/49 28/38/26 42/81/50
f 45/82/51 48/78/54 26/32/23
f 45/82/51 26/32/23 30/41/28
f 36/76/36 45/82/51 30/41/28
f 36/76/36 30/41/28 25/31/22
f 39/63/43 48/74/54 47/73/53
f 39/63/43 47/73/53 40/64/44
f 55/44/29 38/83/42 33/75/33
f 55/44/29 33/75/33 24/30/21
f 31/48/31 5/47/30 7/84/37
f 31/48/31 7/84/37 57/85/40
f 29/51/27 44/86/49 43/87/48
f 29/51/27 43/87/48 32/52/32
