o sponza_16
v 52.8941 22.0997 -31.6517
v 45.2187 22.0997 -31.6517
v 45.2187 22.0997 -23.9639
v 52.8941 22.0997 -23.9639
v 52.8941 21.2978 -23.9639
v 45.2187 21.2978 -23.9639
v 45.2187 20.7888 -23.9639
v 52.8941 20.7888 -23.9639
v 45.2187 21.2978 -31.6517
v 45.2187 20.7888 -31.6517
v 52.8941 21.2978 -31.6517
v 52.8941 20.7888 -31.6517
v 52.6754 20.4087 -24.1829
v 52.6754 20.4087 -31.4326
v 45.4374 20.4087 -31.4326
v 45.4374 20.4087 -24.1829
v 52.1228 20.1172 -24.7364
v 52.1228 20.1172 -30.8791
v 45.9901 20.1172 -30.8791
v 45.9901 20.1172 -24.7364
v 46.4567 18.6651 -28.903
v 47.9674 18.6652 -30.4137
v 47.9674 -0.246055 -30.4137
v 46.4567 -0.246056 -28.903
v 50.1038 18.6652 -30.4137
v 50.1038 -0.246055 -30.4137
v 51.6145 18.6651 -28.903
v 51.6145 -0.246056 -28.903
v 51.6145 18.6651 -26.7666
v 51.6145 -0.246057 -26.7666
v 50.1038 18.6651 -25.2559
v 50.1038 -0.246058 -25.2559
v 47.9674 18.6651 -25.2559
v 47.9674 -0.246058 -25.2559
v 46.4567 18.6651 -26.7666
v 46.4567 -0.246057 -26.7666
v 46.2992 19.25 -28.9682
v 47.9021 19.25 -30.5712
v 47.9674 19.1226 -30.4137
v 46.4567 19.1226 -28.903
v 50.169 19.25 -30.5712
v 50.1038 19.1226 -30.4137
v 51.772 19.25 -28.9682
v 51.6145 19.1226 -28.903
v 51.772 19.25 -26.7014
v 51.6145 19.1226 -26.7666
v 50.169 19.25 -25.0984
v 50.1038 19.1226 -25.2559
v 47.9021 19.25 -25.0984
v 47.9674 19.1226 -25.2559
v 46.2992 19.25 -26.7014
v 46.4567 19.1226 -26.7666
v 46.2321 19.9261 -28.996
v 47.8743 19.9261 -30.6383
v 47.9473 19.6323 -30.4622
v 46.4082 19.6323 -28.9231
v 50.1968 19.9261 -30.6383
v 50.1239 19.6323 -30.4622
v 51.8391 19.9261 -28.996
v 51.663 19.6323 -28.9231
v 51.8391 19.9261 -26.6736
v 51.663 19.6323 -26.7465
v 50.1968 19.9261 -25.0313
v 50.1239 19.6323 -25.2074
v 47.8743 19.9261 -25.0313
v 47.9473 19.6323 -25.2074
v 46.2321 19.9261 -26.6736
v 46.4082 19.6323 -26.7465
v 46.2072 18.8939 -29.0064
v 47.864 18.8939 -30.6632
v 50.2072 18.8939 -30.6632
v 51.864 18.8939 -29.0064
v 51.864 18.8939 -26.6632
v 50.2072 18.8939 -25.0064
v 47.864 18.8939 -25.0064
v 46.2072 18.8939 -26.6632
v 46.3943 19.3774 -28.9289
v 47.9415 19.3774 -30.4761
v 50.1296 19.3774 -30.4761
v 51.6769 19.3774 -28.9289
v 51.6769 19.3774 -26.7407
v 50.1296 19.3774 -25.1935
v 47.9415 19.3774 -25.1935
v 46.3943 19.3774 -26.7407
v 52.8013 21.5209 -24.0567
v 45.3116 21.5209 -24.0567
v 45.3116 21.2978 -24.0567
v 52.8013 21.2978 -24.0567
v 45.3116 21.521 -31.5588
v 45.3116 21.2978 -31.5588
v 52.8013 21.521 -31.5588
v 52.8013 21.2978 -31.5588
v 52.8941 21.5209 -23.9639
v 45.2187 21.5209 -23.9639
v 45.2187 21.521 -31.6517
v 52.8941 21.521 -31.6517
v 52.8941 22.0997 -31.6517
v 52.8941 22.0997 -31.6517
v 45.2187 22.0997 -31.6517
v 45.2187 22.0997 -31.6517
v 45.2187 22.0997 -23.9639
v 45.2187 22.0997 -23.9639
v 52.8941 22.0997 -23.9639
v 52.8941 22.0997 -23.9639
v 52.8941 21.2978 -23.9639
v 52.8941 21.2978 -23.9639
v 45.2187 21.2978 -23.9639
v 45.2187 21.2978 -23.9639
v 45.2187 21.2978 -31.6517
v 45.2187 21.2978 -31.6517
v 52.8941 21.2978 -31.6517
v 52.8941 21.2978 -31.6517
v 46.2992 19.25 -28.9682
v 47.9021 19.25 -30.5712
v 47.9674 19.1226 -30.4137
v 46.4567 19.1226 -28.903
v 50.169 19.25 -30.5712
v 50.1038 19.1226 -30.4137
v 51.772 19.25 -28.9682
v 51.6145 19.1226 -28.903
v 51.772 19.25 -26.7014
v 51.6145 19.1226 -26.7666
v 50.169 19.25 -25.0984
v 50.1038 19.1226 -25.2559
v 47.9021 19.25 -25.0984
v 47.9674 19.1226 -25.2559
v 46.2992 19.25 -26.7014
v 46.4567 19.1226 -26.7666
v 46.2072 18.8939 -29.0064
v 47.864 18.8939 -30.6632
v 50.2072 18.8939 -30.6632
v 51.864 18.8939 -29.0064
v 51.864 18.8939 -26.6632
v 50.2072 18.8939 -25.0064
v 47.864 18.8939 -25.0064
v 46.2072 18.8939 -26.6632
v 52.8013 21.5209 -24.0567
v 52.8013 21.5209 -24.0567
v 45.3116 21.5209 -24.0567
v 45.3116 21.5209 -24.0567
v 45.3116 21.2978 -24.0567
v 45.3116 21.2978 -24.0567
v 52.8013 21.2978 -24.0567
v 52.8013 21.2978 -24.0567
v 45.3116 21.521 -31.5588
v 45.3116 21.521 -31.5588
v 45.3116 21.2978 -31.5588
v 45.3116 21.2978 -31.5588
v 52.8013 21.521 -31.5588
v 52.8013 21.521 -31.5588
v 52.8013 21.2978 -31.5588
v 52.8013 21.2978 -31.5588
v 52.8941 21.5209 -23.9639
v 52.8941 21.5209 -23.9639
v 45.2187 21.5209 -23.9639
v 45.2187 21.5209 -23.9639
v 45.2187 21.521 -31.6517
v 45.2187 21.521 -31.6517
v 52.8941 21.521 -31.6517
v 52.8941 21.521 -31.6517
vt 0.2969 0.905
vt 0.2969 0.7136
vt 0.1052 0.7136
vt 0.1052 0.905
vt 0.0419 0.0149
vt 0.0419 0.2559
vt 0.0579 0.2559
vt 0.0579 0.0149
vt 0.0419 0.2559
vt 0.0419 0.4944
vt 0.0577 0.4944
vt 0.0419 0.4944
vt 0.0419 0.7325
vt 0.0577 0.7325
vt 0.0419 0.7325
vt 0.0419 0.974
vt 0.0579 0.974
vt 0.0698 0.9671
vt 0.0698 0.7394
vt 0.0694 0.7257
vt 0.0694 0.5012
vt 0.0694 0.4876
vt 0.0694 0.2627
vt 0.0698 0.2491
vt 0.0698 0.0217
vt 0.0871 0.9497
vt 0.0871 0.7568
vt 0.0866 0.7086
vt 0.0866 0.5183
vt 0.0866 0.4704
vt 0.0866 0.2799
vt 0.0872 0.2317
vt 0.0872 0.0391
vt 0.8215 0.9003
vt 0.8927 0.9003
vt 0.8927 0.0086
vt 0.8215 0.0086
vt 0.9935 0.9003
vt 0.9935 0.0086
vt 0.3056 0.9003
vt 0.3768 0.9003
vt 0.3768 0.0086
vt 0.3056 0.0086
vt 0.4775 0.9003
vt 0.4775 0.0086
vt 0.5488 0.9003
vt 0.5488 0.0086
vt 0.6495 0.9003
vt 0.6495 0.0086
vt 0.7207 0.9003
vt 0.7207 0.0086
vt 0.1356 0.9493
vt 0.2428 0.9493
vt 0.2428 0.9414
vt 0.1356 0.9414
vt 0.35 0.9493
vt 0.35 0.9414
vt 0.4571 0.9493
vt 0.4571 0.9414
vt 0.5643 0.9493
vt 0.5643 0.9414
vt 0.6715 0.9493
vt 0.6715 0.9414
vt 0.7787 0.9493
vt 0.7787 0.9414
vt 0.8859 0.9493
vt 0.8859 0.9414
vt 0.9931 0.9493
vt 0.9931 0.9414
vt 0.1356 0.9908
vt 0.2428 0.9908
vt 0.2428 0.9727
vt 0.1356 0.9727
vt 0.35 0.9908
vt 0.35 0.9727
vt 0.4571 0.9908
vt 0.4571 0.9727
vt 0.5643 0.9908
vt 0.5643 0.9727
vt 0.6715 0.9908
vt 0.6715 0.9727
vt 0.7787 0.9908
vt 0.7787 0.9727
vt 0.8859 0.9908
vt 0.8859 0.9727
vt 0.9931 0.9908
vt 0.9931 0.9727
vt 0.0941 0.6488
vt 0.0941 0.5768
vt 0.145 0.5258
vt 0.0941 0.412
vt 0.0941 0.34
vt 0.148 0.2241
vt 0.0964 0.1725
vt 0.0964 0.0996
vt 0.148 0.048
vt 0.0961 0.8889
vt 0.0961 0.8159
vt 0.145 0.6998
vt 0.1356 0.9133
vt 0.1356 0.9274
vt 0.2428 0.9274
vt 0.2428 0.9133
vt 0.35 0.9274
vt 0.35 0.9133
vt 0.4571 0.9274
vt 0.4571 0.9133
vt 0.5643 0.9274
vt 0.5643 0.9133
vt 0.6715 0.9274
vt 0.6715 0.9133
vt 0.7787 0.9274
vt 0.7787 0.9133
vt 0.8859 0.9274
vt 0.8859 0.9133
vt 0.9931 0.9274
vt 0.9931 0.9133
vt 0.1356 0.9274
vt 0.1356 0.9414
vt 0.2428 0.9414
vt 0.2428 0.9274
vt 0.35 0.9414
vt 0.35 0.9274
vt 0.4571 0.9414
vt 0.4571 0.9274
vt 0.5643 0.9414
vt 0.5643 0.9274
vt 0.6715 0.9414
vt 0.6715 0.9274
vt 0.7787 0.9414
vt 0.7787 0.9274
vt 0.8859 0.9414
vt 0.8859 0.9274
vt 0.9931 0.9414
vt 0.9931 0.9274
vt 0.1356 0.9571
vt 0.2428 0.9571
vt 0.35 0.9571
vt 0.4571 0.9571
vt 0.5643 0.9571
vt 0.6715 0.9571
vt 0.7787 0.9571
vt 0.8859 0.9571
vt 0.9931 0.9571
vt 0.1356 0.9493
vt 0.2428 0.9493
vt 0.35 0.9493
vt 0.4571 0.9493
vt 0.5643 0.9493
vt 0.6715 0.9493
vt 0.7787 0.9493
vt 0.8859 0.9493
vt 0.9931 0.9493
vt 0.0318 0.0178
vt 0.0318 0.2559
vt 0.0389 0.2559
vt 0.0389 0.0178
vt 0.0318 0.2559
vt 0.0318 0.4944
vt 0.0389 0.4944
vt 0.0389 0.2559
vt 0.0318 0.4944
vt 0.0318 0.7325
vt 0.0389 0.7325
vt 0.0389 0.4944
vt 0.0318 0.7325
vt 0.0318 0.971
vt 0.0389 0.971
vt 0.0389 0.7325
vt 0.0243 0.4945
vt 0.0059 0.4945
vt 0.0059 0.7385
vt 0.0243 0.7385
vt 0.0243 0.7385
vt 0.0059 0.7385
vt 0.0059 0.9829
vt 0.0243 0.9829
vt 0.0059 0.2501
vt 0.0243 0.2501
vt 0.0243 0.0061
vt 0.0059 0.0061
vt 0.0243 0.2501
vt 0.0059 0.2501
vt 0.0059 0.4945
vt 0.0243 0.4945
vt 0.0389 0.0178
vt 0.0389 0.2559
vt 0.0419 0.2559
vt 0.0419 0.0149
vt 0.0389 0.4944
vt 0.0419 0.4944
vt 0.0389 0.7325
vt 0.0419 0.7325
vt 0.0389 0.971
vt 0.0419 0.974
vt 0.0272 0.7355
vt 0.0272 0.4974
vt 0.0243 0.4945
vt 0.0243 0.7385
vt 0.0272 0.4915
vt 0.0272 0.253
vt 0.0243 0.2501
vt 0.0272 0.2471
vt 0.0272 0.009
vt 0.0243 0.0061
vt 0.0272 0.9799
vt 0.0272 0.7414
vt 0.0243 0.9829
vn 0 1 0
vn 0 0 1
vn -0.6756 -0.2951 0.6757
vn 0.6756 -0.2951 0.6757
vn -1 0 0
vn -0.6756 -0.2951 -0.6757
vn 0 0 -1
vn 0.6756 -0.2951 -0.6757
vn 1 0 0
vn 0.4627 -0.7564 0.4624
vn 0.4627 -0.7564 -0.4624
vn -0.4627 -0.7564 -0.4624
vn -0.4627 -0.7564 0.4624
vn 0.2165 -0.952 0.2162
vn 0.2177 -0.9516 -0.217
vn -0.2183 -0.9512 -0.218
vn -0.2171 -0.9517 0.2172
vn -0.8177 -0.4655 -0.3387
vn -0.3387 -0.4655 -0.8177
vn -0.3827 0 -0.9239
vn -0.9239 0 -0.3827
vn 0.3387 -0.4655 -0.8177
vn 0.3827 0 -0.9239
vn 0.8177 -0.4655 -0.3387
vn 0.9239 0 -0.3827
vn 0.8177 -0.4655 0.3387
vn 0.9239 -0 0.3827
vn 0.3387 -0.4655 0.8177
vn 0.3827 -0 0.9239
vn -0.3387 -0.4655 0.8177
vn -0.3827 -0 0.9239
vn -0.8177 -0.4655 0.3387
vn -0.9239 -0 0.3827
vn -0.5532 -0.8009 -0.2291
vn -0.2291 -0.8009 -0.5532
vn 0.2291 -0.8009 -0.5532
vn 0.5532 -0.801 -0.2291
vn 0.5531 -0.801 -0.2291
vn 0.5532 -0.8009 0.2291
vn 0.2291 -0.8009 0.5532
vn -0.2291 -0.8009 0.5532
vn -0.5532 -0.8009 0.2291
vn -0.6379 -0.7559 -0.1476
vn -0.1476 -0.7551 -0.6388
vn -0.3678 -0.2764 -0.8879
vn -0.8879 -0.2764 -0.3678
vn 0.1473 -0.7551 -0.6389
vn 0.3678 -0.2764 -0.8879
vn 0.6079 -0.7801 -0.1479
vn 0.8879 -0.2764 -0.3678
vn 0.608 -0.7801 0.1475
vn 0.8879 -0.2764 0.3678
vn 0.1477 -0.7857 0.6008
vn 0.3678 -0.2764 0.8879
vn -0.148 -0.7856 0.6007
vn -0.3678 -0.2764 0.8879
vn -0.6379 -0.7559 0.1472
vn -0.8879 -0.2764 0.3678
vn -0.5971 -0.7631 -0.2473
vn -0.2473 -0.7631 -0.5971
vn 0.2473 -0.7631 -0.5971
vn 0.5971 -0.7631 -0.2473
vn 0.5971 -0.7631 0.2473
vn 0.2473 -0.7631 0.5971
vn -0.2473 -0.7631 0.5971
vn -0.5971 -0.7631 0.2473
vn -0.5971 0.7631 -0.2473
vn -0.2473 0.7631 -0.5971
vn 0.2473 0.7631 -0.5971
vn 0.5971 0.7631 -0.2473
vn 0.597 0.7631 0.2473
vn 0.5971 0.7631 0.2473
vn 0.2473 0.7631 0.5971
vn -0.2473 0.7631 0.5971
vn -0.5971 0.7631 0.2473
vn -0.8512 0.3886 -0.3526
vn -0.3526 0.3886 -0.8512
vn 0.3526 0.3886 -0.8512
vn 0.8512 0.3887 -0.3526
vn 0.8513 0.3886 0.3526
vn 0.3526 0.3886 0.8512
vn -0.3526 0.3886 0.8512
vn -0.8512 0.3886 0.3526
vn -0.7187 0.6284 -0.2977
vn -0.2977 0.6283 -0.7187
vn 0.2977 0.6284 -0.7187
vn 0.7187 0.6284 -0.2977
vn 0.7187 0.6283 0.2977
vn 0.2977 0.6284 0.7187
vn -0.2977 0.6283 0.7187
vn -0.7187 0.6284 0.2977
vn -0 -1 -0
f 97/1/1 99/2/1 101/3/1
f 97/1/1 101/3/1 103/4/1
f 105/5/2 107/6/2 7/7/3
f 105/5/2 7/7/3 8/8/4
f 108/9/5 109/10/5 10/11/6
f 108/9/5 10/11/6 7/7/3
f 110/12/7 111/13/7 12/14/8
f 110/12/7 12/14/8 10/11/6
f 112/15/9 106/16/9 8/17/4
f 112/15/9 8/17/4 12/14/8
f 13/18/10 14/19/11 12/14/8
f 13/18/10 12/14/8 8/17/4
f 14/20/11 15/21/12 10/11/6
f 14/20/11 10/11/6 12/14/8
f 15/22/12 16/23/13 7/7/3
f 15/22/12 7/7/3 10/11/6
f 16/24/13 13/25/10 8/8/4
f 16/24/13 8/8/4 7/7/3
f 13/18/10 17/26/14 18/27/15
f 13/18/10 18/27/15 14/19/11
f 14/20/11 18/28/15 19/29/16
f 14/20/11 19/29/16 15/21/12
f 15/22/12 19/30/16 20/31/17
f 15/22/12 20/31/17 16/23/13
f 16/24/13 20/32/17 17/33/14
f 16/24/13 17/33/14 13/25/10
f 21/34/18 22/35/19 23/36/20
f 21/34/18 23/36/20 24/37/21
f 22/35/19 25/38/22 26/39/23
f 22/35/19 26/39/23 23/36/20
f 25/40/22 27/41/24 28/42/25
f 25/40/22 28/42/25 26/43/23
f 27/41/24 29/44/26 30/45/27
f 27/41/24 30/45/27 28/42/25
f 29/44/26 31/46/28 32/47/29
f 29/44/26 32/47/29 30/45/27
f 31/46/28 33/48/30 34/49/31
f 31/46/28 34/49/31 32/47/29
f 33/48/30 35/50/32 36/51/33
f 33/48/30 36/51/33 34/49/31
f 35/50/32 21/34/18 24/37/21
f 35/50/32 24/37/21 36/51/33
f 113/52/34 114/53/35 115/54/35
f 113/52/34 115/54/35 116/55/34
f 114/53/35 117/56/36 118/57/36
f 114/53/35 118/57/36 115/54/35
f 117/56/36 119/58/37 120/59/38
f 117/56/36 120/59/38 118/57/36
f 119/58/37 121/60/39 122/61/39
f 119/58/37 122/61/39 120/59/38
f 121/60/39 123/62/40 124/63/40
f 121/60/39 124/63/40 122/61/39
f 123/62/40 125/64/41 126/65/41
f 123/62/40 126/65/41 124/63/40
f 125/64/41 127/66/42 128/67/42
f 125/64/41 128/67/42 126/65/41
f 127/66/42 113/68/34 116/69/34
f 127/66/42 116/69/34 128/67/42
f 53/70/43 54/71/44 55/72/45
f 53/70/43 55/72/45 56/73/46
f 54/71/44 57/74/47 58/75/48
f 54/71/44 58/75/48 55/72/45
f 57/74/47 59/76/49 60/77/50
f 57/74/47 60/77/50 58/75/48
f 59/76/49 61/78/51 62/79/52
f 59/76/49 62/79/52 60/77/50
f 61/78/51 63/80/53 64/81/54
f 61/78/51 64/81/54 62/79/52
f 63/80/53 65/82/55 66/83/56
f 63/80/53 66/83/56 64/81/54
f 65/82/55 67/84/57 68/85/58
f 65/82/55 68/85/58 66/83/56
f 67/84/57 53/86/43 56/87/46
f 67/84/57 56/87/46 68/85/58
f 57/88/47 54/89/44 19/29/16
f 57/88/47 19/29/16 18/28/15
f 19/29/16 54/89/44 53/90/43
f 19/30/16 53/91/43 67/92/57
f 19/30/16 67/92/57 20/31/17
f 20/32/17 67/93/57 65/94/55
f 20/32/17 65/94/55 63/95/53
f 20/32/17 63/95/53 17/33/14
f 17/33/14 63/95/53 61/96/51
f 61/97/51 59/98/49 18/27/15
f 61/97/51 18/27/15 17/26/14
f 18/28/15 59/99/49 57/88/47
f 21/100/18 129/101/59 130/102/60
f 21/100/18 130/102/60 22/103/19
f 22/103/19 130/102/60 131/104/61
f 22/103/19 131/104/61 25/105/22
f 25/105/22 131/104/61 132/106/62
f 25/105/22 132/106/62 27/107/24
f 27/107/24 132/106/62 133/108/63
f 27/107/24 133/108/63 29/109/26
f 29/109/26 133/108/63 134/110/64
f 29/109/26 134/110/64 31/111/28
f 31/111/28 134/110/64 135/112/65
f 31/111/28 135/112/65 33/113/30
f 33/113/30 135/112/65 136/114/66
f 33/113/30 136/114/66 35/115/32
f 35/115/32 136/114/66 129/116/59
f 35/115/32 129/116/59 21/117/18
f 69/118/67 40/119/67 39/120/68
f 69/118/67 39/120/68 70/121/68
f 70/121/68 39/120/68 42/122/69
f 70/121/68 42/122/69 71/123/69
f 71/123/69 42/122/69 44/124/70
f 71/123/69 44/124/70 72/125/70
f 72/125/70 44/124/70 46/126/71
f 72/125/70 46/126/71 73/127/72
f 73/127/72 46/126/71 48/128/73
f 73/127/72 48/128/73 74/129/73
f 74/129/73 48/128/73 50/130/74
f 74/129/73 50/130/74 75/131/74
f 75/131/74 50/130/74 52/132/75
f 75/131/74 52/132/75 76/133/75
f 76/133/75 52/132/75 40/134/67
f 76/133/75 40/134/67 69/135/67
f 77/136/76 56/73/46 55/72/45
f 77/136/76 55/72/45 78/137/77
f 78/137/77 55/72/45 58/75/48
f 78/137/77 58/75/48 79/138/78
f 79/138/78 58/75/48 60/77/50
f 79/138/78 60/77/50 80/139/79
f 80/139/79 60/77/50 62/79/52
f 80/139/79 62/79/52 81/140/80
f 81/140/80 62/79/52 64/81/54
f 81/140/80 64/81/54 82/141/81
f 82/141/81 64/81/54 66/83/56
f 82/141/81 66/83/56 83/142/82
f 83/142/82 66/83/56 68/85/58
f 83/142/82 68/85/58 84/143/83
f 84/143/83 68/85/58 56/87/46
f 84/143/83 56/87/46 77/144/76
f 37/145/84 77/136/76 78/137/77
f 37/145/84 78/137/77 38/146/85
f 38/146/85 78/137/77 79/138/78
f 38/146/85 79/138/78 41/147/86
f 41/147/86 79/138/78 80/139/79
f 41/147/86 80/139/79 43/148/87
f 43/148/87 80/139/79 81/140/80
f 43/148/87 81/140/80 45/149/88
f 45/149/88 81/140/80 82/141/81
f 45/149/88 82/141/81 47/150/89
f 47/150/89 82/141/81 83/142/82
f 47/150/89 83/142/82 49/151/90
f 49/151/90 83/142/82 84/143/83
f 49/151/90 84/143/83 51/152/91
f 51/152/91 84/143/83 77/144/76
f 51/152/91 77/144/76 37/153/84
f 137/154/2 139/155/2 141/156/2
f 137/154/2 141/156/2 143/157/2
f 140/158/5 145/159/5 147/160/5
f 140/158/5 147/160/5 142/161/5
f 146/162/7 149/163/7 151/164/7
f 146/162/7 151/164/7 148/165/7
f 150/166/9 138/167/9 144/168/9
f 150/166/9 144/168/9 152/169/9
f 153/170/2 104/171/2 102/172/2
f 153/170/2 102/172/2 155/173/2
f 156/174/5 3/175/5 100/176/5
f 156/174/5 100/176/5 157/177/5
f 98/178/7 159/179/7 158/180/7
f 98/178/7 158/180/7 2/181/7
f 160/182/9 1/183/9 4/184/9
f 160/182/9 4/184/9 154/185/9
f 88/186/1 87/187/1 6/188/1
f 88/186/1 6/188/1 5/189/1
f 87/187/1 90/190/1 9/191/1
f 87/187/1 9/191/1 6/188/1
f 90/190/1 92/192/1 11/193/1
f 90/190/1 11/193/1 9/191/1
f 92/192/1 88/194/1 5/195/1
f 92/192/1 5/195/1 11/193/1
f 86/196/92 85/197/92 93/198/92
f 86/196/92 93/198/92 94/199/92
f 85/200/92 91/201/92 96/202/92
f 85/200/92 96/202/92 93/198/92
f 91/203/92 89/204/92 95/205/92
f 91/203/92 95/205/92 96/202/92
f 89/206/92 86/207/92 94/199/92
f 89/206/92 94/199/92 95/208/92
