o sponza_255
v 85.6847 69.2273 -0.955107
v 85.6482 69.2273 -0.970247
v 85.6081 69.2273 -1.0103
v 85.593 69.2273 -5.97194
v 85.593 69.2273 -1.11236
v 85.593 69.2273 -5.87048
v 85.593 69.2273 -1.04685
v 85.6081 69.2273 -6.00849
v 85.6482 69.2273 -6.04854
v 90.6189 69.2273 -6.06368
v 85.6847 69.2273 -6.06368
v 85.7988 69.2273 -6.06368
v 90.5347 69.2273 -6.06368
v 90.6555 69.2273 -6.04854
v 90.6955 69.2273 -6.00849
v 90.7107 69.2273 -1.04685
v 90.7107 69.2273 -5.87221
v 90.7107 69.2273 -1.16568
v 90.7107 69.2273 -5.97194
v 90.6555 69.2273 -0.970247
v 90.6955 69.2273 -1.0103
v 85.7237 69.2273 -0.955107
v 90.508 69.2273 -0.955107
v 90.6189 69.2273 -0.955107
v 90.7107 69.9612 -5.97194
v 90.6955 69.9612 -6.00849
v 90.6555 69.9612 -6.04854
v 85.6847 69.9612 -6.06368
v 90.5347 69.9612 -6.06368
v 85.7988 69.9612 -6.06368
v 90.6189 69.9612 -6.06368
v 85.6482 69.9612 -6.04854
v 85.6081 69.9612 -6.00849
v 85.593 69.9612 -1.04685
v 85.593 69.9612 -5.87048
v 85.593 69.9612 -1.11236
v 85.593 69.9612 -5.97194
v 85.6081 69.9612 -1.0103
v 85.6482 69.9612 -0.970246
v 90.6189 69.9612 -0.955106
v 85.7237 69.9612 -0.955106
v 90.508 69.9612 -0.955106
v 85.6847 69.9612 -0.955106
v 90.6555 69.9612 -0.970246
v 90.6955 69.9612 -1.0103
v 90.7107 69.9612 -1.16568
v 90.7107 69.9612 -5.87221
v 90.7107 69.9612 -1.04685
v 90.6249 69.2573 -0.925077
v 90.6249 69.7645 -0.925076
v 90.5137 69.5944 -0.925077
v 90.5137 69.4244 -0.925077
v 85.5629 69.2573 -1.04088
v 85.5629 69.7645 -1.04088
v 85.5629 69.5944 -1.10655
v 85.5629 69.4244 -1.10655
v 85.6311 69.2573 -0.944787
v 85.6311 69.9312 -0.944787
v 85.5826 69.9312 -0.993287
v 85.5826 69.2573 -0.993287
v 90.6725 69.2573 -0.944787
v 90.721 69.2573 -0.993287
v 90.721 69.9312 -0.993287
v 90.6725 69.9312 -0.944787
v 85.5826 69.2573 -6.0255
v 85.5826 69.9312 -6.0255
v 85.6311 69.9312 -6.074
v 85.6311 69.2573 -6.074
v 85.6787 69.7645 -0.925076
v 85.6787 69.9312 -0.925076
v 85.6787 69.2573 -0.925077
v 90.6249 69.9312 -0.925076
v 85.5629 69.2573 -5.97791
v 85.5629 69.7645 -5.97791
v 85.5629 69.9312 -1.04088
v 90.7407 69.2573 -1.04088
v 90.7407 69.7645 -1.04088
v 90.7407 69.9312 -1.04088
v 85.6787 69.7645 -6.09371
v 85.6787 69.2573 -6.09371
v 85.5629 69.2573 -5.87621
v 85.7178 69.2573 -0.925077
v 90.5137 69.9312 -0.925076
v 85.5629 69.9312 -1.10655
v 85.6787 69.9312 -6.09371
v 85.5629 69.9312 -5.97791
v 85.7931 69.5944 -6.09371
v 85.7931 69.4244 -6.09371
v 90.7407 69.2573 -5.97791
v 90.7407 69.7645 -5.97791
v 90.7407 69.5944 -5.87794
v 90.7407 69.4244 -5.87794
v 90.6725 69.2573 -6.074
v 90.6725 69.9312 -6.074
v 90.721 69.9312 -6.0255
v 90.721 69.2573 -6.0255
v 90.6249 69.7645 -6.09371
v 90.6249 69.9312 -6.09371
v 90.6249 69.2573 -6.09371
v 90.7407 69.9312 -5.97791
v 90.7407 69.2573 -1.16
v 90.5405 69.2573 -6.09371
v 85.7931 69.9312 -6.09371
v 90.7407 69.9312 -5.87794
v 85.7178 69.7645 -0.925076
v 85.5629 69.7645 -5.87621
v 85.5629 69.9312 -5.87621
v 90.5405 69.7645 -6.09371
v 90.7407 69.7645 -1.16
v 90.5137 69.2573 -0.925077
v 90.4719 69.4244 -0.925077
v 85.7178 69.9312 -0.925076
v 90.5137 69.7645 -0.925076
v 85.7761 69.7645 -0.925076
v 85.7178 69.5944 -0.925077
v 85.7761 69.5944 -1.15994
v 85.7178 69.4244 -0.925077
v 85.5629 69.4244 -5.87621
v 85.5629 69.2573 -1.10655
v 85.5629 69.7645 -5.83086
v 85.5629 69.5944 -5.87621
v 85.7317 69.5944 -5.83086
v 85.5629 69.4244 -1.16937
v 85.5629 69.7645 -1.10655
v 90.5405 69.4244 -6.09371
v 85.7931 69.2573 -6.09371
v 90.5405 69.9312 -6.09371
v 90.4911 69.7645 -6.09371
v 90.5405 69.5944 -6.09371
v 90.4911 69.5944 -5.922
v 85.8476 69.4244 -6.09371
v 85.7931 69.7645 -6.09371
v 90.7407 69.4244 -1.16
v 90.7407 69.2573 -5.87794
v 90.7407 69.9312 -1.16
v 90.7407 69.7645 -1.21669
v 90.7407 69.5944 -1.16
v 90.5284 69.5944 -1.21669
v 90.7407 69.4244 -5.83429
v 90.7407 69.7645 -5.87794
v 90.4719 69.5944 -1.15994
v 85.7317 69.5944 -1.16937
v 85.8476 69.5944 -5.922
v 90.5284 69.5944 -5.83429
v 90.7407 69.7645 -5.83429
v 90.7407 69.4244 -1.21669
v 85.8476 69.7645 -6.09371
v 90.4911 69.4244 -6.09371
v 85.5629 69.7645 -1.16937
v 85.5629 69.4244 -5.83086
v 90.4719 69.7645 -0.925076
v 85.7761 69.4244 -0.925077
v 90.5137 69.5944 -0.925077
vt 0.6734 0.6622
vt 0.6713 0.6631
vt 0.6687 0.6656
vt 0.6678 0.9769
vt 0.6678 0.672
vt 0.6678 0.9705
vt 0.6678 0.6679
vt 0.6687 0.9792
vt 0.6713 0.9817
vt 0.9831 0.9826
vt 0.6736 0.9826
vt 0.6807 0.9826
vt 0.9778 0.9826
vt 0.9853 0.9817
vt 0.9879 0.9792
vt 0.9888 0.6679
vt 0.9888 0.9706
vt 0.9888 0.6754
vt 0.9888 0.9769
vt 0.9853 0.6631
vt 0.9879 0.6656
vt 0.6758 0.6622
vt 0.9761 0.6621
vt 0.9831 0.6621
vt 0.5631 0.6536
vt 0.5626 0.6526
vt 0.5616 0.6515
vt 0.4276 0.6511
vt 0.5583 0.6511
vt 0.4307 0.6511
vt 0.5606 0.6511
vt 0.4266 0.6515
vt 0.4256 0.6526
vt 0.4252 0.7863
vt 0.4252 0.6563
vt 0.4252 0.7845
vt 0.4252 0.6536
vt 0.4256 0.7873
vt 0.4266 0.7884
vt 0.5606 0.7888
vt 0.4286 0.7888
vt 0.5577 0.7888
vt 0.4276 0.7888
vt 0.5616 0.7884
vt 0.5626 0.7873
vt 0.5631 0.7831
vt 0.5631 0.6563
vt 0.5631 0.7863
vt 0.0143 0.6233
vt 0.045 0.6233
vt 0.0347 0.6166
vt 0.0244 0.6166
vt 0.0143 0.3152
vt 0.045 0.3152
vt 0.0347 0.3112
vt 0.0244 0.3112
vt 0.0143 0.321
vt 0.0551 0.321
vt 0.0551 0.3181
vt 0.0143 0.3181
vt 0.0143 0.6262
vt 0.0143 0.6291
vt 0.0551 0.6291
vt 0.0551 0.6262
vt 0.0143 0.0134
vt 0.0551 0.0134
vt 0.0551 0.0105
vt 0.0143 0.0105
vt 0.045 0.3239
vt 0.0551 0.3239
vt 0.0143 0.3239
vt 0.0551 0.6233
vt 0.0143 0.0163
vt 0.045 0.0163
vt 0.0551 0.3152
vt 0.0143 0.632
vt 0.045 0.632
vt 0.0551 0.632
vt 0.045 0.0076
vt 0.0143 0.0076
vt 0.0124 0.0165
vt 0.0124 0.0226
vt 0.0143 0.0224
vt 0.0125 0.3241
vt 0.0125 0.3264
vt 0.0143 0.3262
vt 0.0569 0.6231
vt 0.0569 0.6164
vt 0.0551 0.6166
vt 0.057 0.3151
vt 0.057 0.3112
vt 0.0551 0.3112
vt 0.0125 0.6262
vt 0.0125 0.6292
vt 0.0126 0.318
vt 0.0126 0.321
vt 0.0125 0.0104
vt 0.0122 0.0134
vt 0.0572 0.6292
vt 0.0569 0.6262
vt 0.0568 0.321
vt 0.057 0.318
vt 0.0572 0.0134
vt 0.0572 0.0104
vt 0.0126 0.623
vt 0.0576 0.0079
vt 0.0551 0.0076
vt 0.0126 0.6317
vt 0.0125 0.3152
vt 0.0126 0.0079
vt 0.0571 0.6317
vt 0.0569 0.3241
vt 0.0551 0.0163
vt 0.0572 0.0163
vt 0.0143 0.6233
vt 0.045 0.6233
vt 0.0347 0.6164
vt 0.0244 0.6164
vt 0.0143 0.3152
vt 0.045 0.3152
vt 0.0347 0.3091
vt 0.0244 0.3091
vt 0.0143 0.321
vt 0.0551 0.321
vt 0.0551 0.3181
vt 0.0143 0.3181
vt 0.045 0.3239
vt 0.0551 0.3239
vt 0.0143 0.3239
vt 0.0551 0.3152
vt 0.0124 0.0165
vt 0.0124 0.0237
vt 0.0143 0.0235
vt 0.0143 0.0163
vt 0.0125 0.3241
vt 0.0125 0.3292
vt 0.0143 0.329
vt 0.0569 0.6231
vt 0.0569 0.6162
vt 0.0551 0.6164
vt 0.0551 0.6233
vt 0.057 0.3151
vt 0.057 0.3091
vt 0.0551 0.3091
vt 0.0126 0.318
vt 0.0126 0.321
vt 0.0568 0.321
vt 0.057 0.318
vt 0.0125 0.3152
vt 0.0569 0.3241
vt 0.045 0.3262
vt 0.045 0.0224
vt 0.0551 0.0224
vt 0.045 0.329
vt 0.045 0.0163
vt 0.045 0.0235
vt 0.0551 0.0163
vt 0.0143 0.6166
vt 0.0244 0.6141
vt 0.0126 0.6163
vt 0.0569 0.3265
vt 0.0551 0.3262
vt 0.045 0.6166
vt 0.045 0.3298
vt 0.0347 0.3262
vt 0.0347 0.3298
vt 0.0244 0.3262
vt 0.0244 0.0224
vt 0.0125 0.3112
vt 0.0143 0.3112
vt 0.0572 0.0225
vt 0.045 0.0252
vt 0.0347 0.0224
vt 0.0347 0.0252
vt 0.0244 0.3074
vt 0.045 0.3112
vt 0.0244 0.329
vt 0.0126 0.6161
vt 0.0143 0.6164
vt 0.0551 0.329
vt 0.0569 0.3292
vt 0.045 0.332
vt 0.0347 0.329
vt 0.0347 0.332
vt 0.0244 0.6131
vt 0.0126 0.623
vt 0.045 0.6164
vt 0.0244 0.0235
vt 0.0125 0.3091
vt 0.0143 0.3091
vt 0.0551 0.0235
vt 0.0572 0.0235
vt 0.0572 0.0163
vt 0.045 0.0269
vt 0.0347 0.0235
vt 0.0347 0.0269
vt 0.0244 0.3065
vt 0.045 0.3091
vt 0.0347 0.6166
vt 0.0347 0.6141
vt 0.0347 0.3074
vt 0.0347 0.6131
vt 0.0347 0.3065
vt 0.045 0.3065
vt 0.0244 0.0269
vt 0.045 0.6131
vt 0.0244 0.332
vt 0.045 0.3074
vt 0.0244 0.0252
vt 0.045 0.6141
vt 0.0244 0.3298
vn -0.0814 -0.9087 0.4094
vn -0.2319 -0.9087 0.3471
vn -0.3471 -0.9087 0.232
vn -0.4095 -0.9087 -0.0815
vn -0.3829 -0.9238 0
vn -0.4095 -0.9087 0.0814
vn -0.347 -0.9087 -0.2321
vn -0.2319 -0.9087 -0.347
vn 0.0814 -0.9088 -0.4093
vn -0.0814 -0.9087 -0.4094
vn 0 -0.9238 -0.3828
vn 0 -0.9377 -0.3475
vn 0.2319 -0.9087 -0.3471
vn 0.347 -0.9087 -0.232
vn 0.4093 -0.9087 0.0815
vn 0.3829 -0.9238 0
vn 0.3828 -0.9238 0
vn 0.4093 -0.9087 -0.0815
vn 0.2319 -0.9087 0.3471
vn 0.3471 -0.9087 0.2321
vn 0 -0.9238 0.3828
vn 0 -0.9238 0.383
vn 0.0813 -0.9086 0.4097
vn 0.4092 0.9088 -0.0814
vn 0.347 0.9088 -0.2318
vn 0.2318 0.9088 -0.347
vn -0.0814 0.9088 -0.4092
vn 0 0.9239 -0.3827
vn -0 0.9274 -0.3741
vn 0.0814 0.9088 -0.4091
vn -0.2318 0.9089 -0.3467
vn -0.347 0.9088 -0.2318
vn -0.4093 0.9088 0.0814
vn -0.3828 0.9238 0
vn -0.3827 0.9239 0
vn -0.4094 0.9087 -0.0815
vn -0.347 0.9088 0.2318
vn -0.2319 0.9088 0.347
vn 0.0814 0.9088 0.4092
vn 0 0.9239 0.3827
vn 0 0.9258 0.3781
vn -0.0814 0.9088 0.4092
vn 0.2318 0.9088 0.3468
vn 0.3469 0.9088 0.2318
vn 0.3827 0.9239 0
vn 0.4092 0.9088 0.0814
vn 0.1812 -0.3709 0.9108
vn 0.1951 -0 0.9808
vn 0.0043 -0.0077 1
vn -0.2654 0.0652 0.9619
vn -0.9109 -0.3707 0.1812
vn -0.9808 -0 0.195
vn -0.8983 -0 -0.4393
vn -0.9747 0.0775 -0.2098
vn -0.516 -0.3708 0.7722
vn -0.5159 0.3709 0.7722
vn -0.7722 0.3709 0.5159
vn -0.7722 -0.3708 0.516
vn 0.5159 -0.3708 0.7722
vn 0.7721 -0.3708 0.516
vn 0.7721 0.3709 0.516
vn 0.5159 0.3709 0.7722
vn -0.7722 -0.3708 -0.5159
vn -0.7722 0.3709 -0.5159
vn -0.5159 0.371 -0.7721
vn -0.516 -0.3709 -0.7721
vn -0.1951 0 0.9808
vn -0.1812 0.371 0.9108
vn -0.1812 -0.3708 0.9109
vn 0.1812 0.371 0.9108
vn -0.9109 -0.3707 -0.1812
vn -0.9808 0 -0.195
vn -0.9109 0.3709 0.1811
vn 0.9108 -0.3709 0.1813
vn 0.9808 0 0.1952
vn 0.9108 0.371 0.1813
vn -0.1951 0 -0.9808
vn -0.1812 -0.3709 -0.9108
vn -0.924 -0.3824 0
vn 0 -0.3825 0.9239
vn 0 0.3827 0.9239
vn -0.9239 0.3826 0
vn -0.1812 0.371 -0.9108
vn -0.9109 0.3708 -0.1811
vn 0.4734 -0 -0.8809
vn 0.2252 0.0721 -0.9716
vn 0.9108 -0.3709 -0.1813
vn 0.9808 0 -0.1952
vn 0.8358 0 0.549
vn 0.964 0.0661 0.2574
vn 0.5159 -0.3709 -0.7722
vn 0.5159 0.3709 -0.7722
vn 0.7721 0.371 -0.516
vn 0.7721 -0.3708 -0.5161
vn 0.1951 0 -0.9808
vn 0.1812 0.371 -0.9108
vn 0.1812 -0.3709 -0.9108
vn 0.9108 0.371 -0.1813
vn 0.9239 -0.3826 0
vn 0 -0.3825 -0.924
vn 0 0.3827 -0.9239
vn 0.9239 0.3827 0
vn 0.2417 -0.0829 0.9668
vn -0.9687 -0.064 0.24
vn -0.9239 0.3825 0
vn -0.2341 -0.0679 -0.9698
vn 0.9682 -0.0791 -0.2374
vn 0 -0.3826 0.9239
vn -0.0812 0.1378 0.9871
vn -0.2654 -0.0652 0.9619
vn 0.2578 -0.3324 0.9072
vn 0.5149 -0 0.8572
vn 0.428 -0 0.9038
vn 0.2417 0.0829 0.9668
vn -0.9687 0.064 0.24
vn -0.924 -0.3825 0
vn -0.9286 -0.2732 0.2511
vn -0.8624 -0 0.5062
vn -0.9043 0 0.427
vn -0.9343 0.2813 -0.2189
vn -0.9747 -0.0775 -0.2098
vn -0.2341 0.0679 -0.9698
vn 0 -0.3826 -0.9239
vn -0.2451 -0.2781 -0.9288
vn -0.4931 0 -0.8699
vn -0.417 0 -0.9089
vn 0.2355 0.2806 -0.9305
vn 0.2252 -0.0721 -0.9716
vn 0.9682 0.0791 -0.2373
vn 0.924 -0.3825 0
vn 0.9239 0.3826 0
vn 0.9148 -0.3159 -0.2516
vn 0.864 -0 -0.5035
vn 0.907 0 -0.4212
vn 0.9112 0.3077 0.2738
vn 0.964 -0.066 0.2574
vn -0.9854 0.0062 0.1702
vn -0.4648 0 0.8854
vn -0.9259 -0 -0.3778
vn 0.4025 0 -0.9154
vn 0.8916 -0 0.4528
vn 0.9112 -0.3077 0.2738
vn 0.9148 0.316 -0.2516
vn 0.2355 -0.2807 -0.9305
vn -0.2451 0.2781 -0.9288
vn -0.9343 -0.2813 -0.2189
vn -0.9286 0.2733 0.2511
vn -0.0527 -0.3559 0.933
vn 0.2578 0.3324 0.9072
f 1/1/1 2/2/2 3/3/3
f 1/1/1 3/3/3 4/4/4
f 5/5/5 6/6/5 3/3/3
f 5/5/5 3/3/3 7/7/6
f 3/3/3 6/6/5 4/4/4
f 4/4/4 8/8/7 9/9/8
f 4/4/4 9/9/8 10/10/9
f 9/9/8 11/11/10 12/12/11
f 9/9/8 12/12/11 13/13/12
f 9/9/8 13/13/12 10/10/9
f 10/10/9 14/14/13 15/15/14
f 10/10/9 15/15/14 16/16/15
f 17/17/16 18/18/17 15/15/14
f 17/17/16 15/15/14 19/19/18
f 15/15/14 18/18/17 16/16/15
f 1/1/1 4/4/4 10/10/9
f 1/1/1 10/10/9 16/16/15
f 20/20/19 1/1/1 16/16/15
f 20/20/19 16/16/15 21/21/20
f 22/22/21 1/1/1 20/20/19
f 22/22/21 20/20/19 23/23/22
f 24/24/23 23/23/22 20/20/19
f 25/25/24 26/26/25 27/27/26
f 25/25/24 27/27/26 28/28/27
f 29/29/28 30/30/29 27/27/26
f 29/29/28 27/27/26 31/31/30
f 27/27/26 30/30/29 28/28/27
f 28/28/27 32/32/31 33/33/32
f 28/28/27 33/33/32 34/34/33
f 35/35/34 36/36/35 33/33/32
f 35/35/34 33/33/32 37/37/36
f 33/33/32 36/36/35 34/34/33
f 34/34/33 38/38/37 39/39/38
f 34/34/33 39/39/38 40/40/39
f 41/41/40 42/42/41 39/39/38
f 41/41/40 39/39/38 43/43/42
f 39/39/38 42/42/41 40/40/39
f 34/34/33 40/40/39 25/25/24
f 34/34/33 25/25/24 28/28/27
f 40/40/39 44/44/43 45/45/44
f 40/40/39 45/45/44 25/25/24
f 45/45/44 46/46/45 47/47/45
f 45/45/44 47/47/45 25/25/24
f 48/48/46 46/46/45 45/45/44
f 49/49/47 50/50/48 153/51/49
f 49/49/47 153/51/49 52/52/50
f 53/53/51 54/54/52 55/55/53
f 53/53/51 55/55/53 56/56/54
f 57/57/55 58/58/56 59/59/57
f 57/57/55 59/59/57 60/60/58
f 61/61/59 62/62/60 63/63/61
f 61/61/59 63/63/61 64/64/62
f 65/65/63 66/66/64 67/67/65
f 65/65/63 67/67/65 68/68/66
f 69/69/67 70/70/68 58/58/56
f 69/69/67 58/58/56 57/57/55
f 71/71/69 69/69/67 57/57/55
f 50/50/48 49/49/47 61/61/59
f 50/50/48 61/61/59 64/64/62
f 72/72/70 50/50/48 64/64/62
f 65/65/63 73/73/71 74/74/72
f 65/65/63 74/74/72 66/66/64
f 54/54/52 53/53/51 59/59/57
f 54/54/52 59/59/57 75/75/73
f 60/60/58 59/59/57 53/53/51
f 62/62/60 76/76/74 77/77/75
f 62/62/60 77/77/75 63/63/61
f 63/63/61 77/77/75 78/78/76
f 68/68/66 67/67/65 79/79/77
f 68/68/66 79/79/77 80/80/78
f 4/81/4 6/82/5 81/83/79
f 4/81/4 81/83/79 73/73/71
f 1/84/1 22/85/21 82/86/80
f 1/84/1 82/86/80 71/71/69
f 40/87/39 42/88/41 83/89/81
f 40/87/39 83/89/81 72/72/70
f 34/90/33 36/91/35 84/92/82
f 34/90/33 84/92/82 75/75/73
f 61/61/59 20/93/19 21/94/20
f 61/61/59 21/94/20 62/62/60
f 60/60/58 3/95/3 2/96/2
f 60/60/58 2/96/2 57/57/55
f 68/68/66 9/97/8 8/98/7
f 68/68/66 8/98/7 65/65/63
f 63/63/61 45/99/44 44/100/43
f 63/63/61 44/100/43 64/64/62
f 58/58/56 39/101/38 38/102/37
f 58/58/56 38/102/37 59/59/57
f 66/66/64 33/103/32 32/104/31
f 66/66/64 32/104/31 67/67/65
f 49/49/47 24/105/23 20/93/19
f 49/49/47 20/93/19 61/61/59
f 1/84/1 71/71/69 57/57/55
f 1/84/1 57/57/55 2/96/2
f 65/65/63 8/98/7 4/81/4
f 65/65/63 4/81/4 73/73/71
f 64/64/62 44/100/43 40/87/39
f 64/64/62 40/87/39 72/72/70
f 59/59/57 38/102/37 34/90/33
f 59/59/57 34/90/33 75/75/73
f 67/67/65 32/104/31 28/106/27
f 67/67/65 28/106/27 85/107/83
f 62/62/60 21/94/20 16/108/15
f 62/62/60 16/108/15 76/76/74
f 53/53/51 7/109/6 3/95/3
f 53/53/51 3/95/3 60/60/58
f 80/80/78 11/110/10 9/97/8
f 80/80/78 9/97/8 68/68/66
f 78/78/76 48/111/46 45/99/44
f 78/78/76 45/99/44 63/63/61
f 70/70/68 43/112/42 39/101/38
f 70/70/68 39/101/38 58/58/56
f 86/113/84 37/114/36 33/103/32
f 86/113/84 33/103/32 66/66/64
f 80/115/78 79/116/77 87/117/85
f 80/115/78 87/117/85 88/118/86
f 89/119/87 90/120/88 91/121/89
f 89/119/87 91/121/89 92/122/90
f 93/123/91 94/124/92 95/125/93
f 93/123/91 95/125/93 96/126/94
f 97/127/95 98/128/96 94/124/92
f 97/127/95 94/124/92 93/123/91
f 99/129/97 97/127/95 93/123/91
f 90/120/88 89/119/87 95/125/93
f 90/120/88 95/125/93 100/130/98
f 96/126/94 95/125/93 89/119/87
f 16/131/15 18/132/17 101/133/99
f 16/131/15 101/133/99 76/134/74
f 10/135/9 13/136/12 102/137/100
f 10/135/9 102/137/100 99/129/97
f 28/138/27 30/139/29 103/140/101
f 28/138/27 103/140/101 85/141/83
f 25/142/24 47/143/45 104/144/102
f 25/142/24 104/144/102 100/130/98
f 96/126/94 15/145/14 14/146/13
f 96/126/94 14/146/13 93/123/91
f 94/124/92 27/147/26 26/148/25
f 94/124/92 26/148/25 95/125/93
f 93/123/91 14/146/13 10/135/9
f 93/123/91 10/135/9 99/129/97
f 95/125/93 26/148/25 25/142/24
f 95/125/93 25/142/24 100/130/98
f 89/119/87 19/149/18 15/145/14
f 89/119/87 15/145/14 96/126/94
f 98/128/96 31/150/30 27/147/26
f 98/128/96 27/147/26 94/124/92
f 69/69/67 105/151/103 70/70/68
f 74/74/72 106/152/104 107/153/105
f 74/74/72 107/153/105 86/113/84
f 97/127/95 108/154/106 98/128/96
f 77/155/75 109/156/107 78/157/76
f 110/158/108 52/52/50 111/159/109
f 110/158/108 23/160/22 24/105/23
f 110/158/108 24/105/23 49/49/47
f 42/88/41 41/161/40 112/162/81
f 42/88/41 112/162/81 83/89/81
f 83/89/81 113/163/110 72/72/70
f 113/163/110 153/51/49 50/50/48
f 22/85/21 23/160/22 110/158/108
f 22/85/21 110/158/108 82/86/80
f 112/162/81 105/151/103 114/164/111
f 114/164/111 105/151/103 115/165/112
f 114/164/111 115/165/112 116/166/113
f 82/86/80 117/167/114 71/71/69
f 112/162/81 41/161/40 43/112/42
f 112/162/81 43/112/42 70/70/68
f 81/83/79 118/168/115 73/73/71
f 6/82/5 5/169/5 119/170/116
f 6/82/5 119/170/116 81/83/79
f 107/153/105 35/171/34 37/114/36
f 107/153/105 37/114/36 86/113/84
f 107/153/105 106/152/104 120/172/117
f 120/172/117 106/152/104 121/173/118
f 120/172/117 121/173/118 122/174/119
f 119/170/116 56/56/54 123/175/120
f 36/91/35 35/171/34 107/153/105
f 36/91/35 107/153/105 84/92/82
f 119/170/116 5/169/5 7/109/6
f 119/170/116 7/109/6 53/53/51
f 84/92/82 124/176/121 75/75/73
f 124/176/121 55/55/53 54/54/52
f 102/137/100 125/177/122 99/129/97
f 13/136/12 12/178/11 126/179/123
f 13/136/12 126/179/123 102/137/100
f 127/180/101 29/181/28 31/150/30
f 127/180/101 31/150/30 98/128/96
f 127/180/101 108/154/106 128/182/124
f 128/182/124 108/154/106 129/183/125
f 128/182/124 129/183/125 130/184/126
f 126/179/123 88/118/86 131/185/127
f 30/139/29 29/181/28 127/180/101
f 30/139/29 127/180/101 103/140/101
f 126/179/123 12/178/11 11/186/10
f 126/179/123 11/186/10 80/115/78
f 103/140/101 132/187/128 79/116/77
f 103/140/101 79/116/77 85/141/83
f 132/187/128 87/117/85 79/116/77
f 101/133/99 133/188/129 76/134/74
f 18/132/17 17/189/16 134/190/130
f 18/132/17 134/190/130 101/133/99
f 135/191/131 46/192/45 48/193/46
f 135/191/131 48/193/46 78/157/76
f 135/191/131 109/156/107 136/194/132
f 136/194/132 109/156/107 137/195/133
f 136/194/132 137/195/133 138/196/134
f 134/190/130 92/122/90 139/197/135
f 47/143/45 46/192/45 135/191/131
f 47/143/45 135/191/131 104/144/102
f 134/190/130 17/189/16 19/149/18
f 134/190/130 19/149/18 89/119/87
f 104/144/102 140/198/136 100/130/98
f 140/198/136 91/121/89 90/120/88
f 51/199/137 141/200/138 111/159/109
f 153/51/49 111/159/109 52/52/50
f 55/55/53 142/201/139 123/175/120
f 55/55/53 123/175/120 56/56/54
f 87/117/85 143/202/140 131/185/127
f 87/117/85 131/185/127 88/118/86
f 91/121/89 144/203/141 139/197/135
f 91/121/89 139/197/135 92/122/90
f 136/194/132 138/196/134 144/203/141
f 136/194/132 144/203/141 145/204/142
f 146/205/143 138/196/134 137/195/133
f 146/205/143 137/195/133 133/188/129
f 139/197/135 144/203/141 138/196/134
f 139/197/135 138/196/134 146/205/143
f 145/204/142 144/203/141 91/121/89
f 145/204/142 91/121/89 140/198/136
f 128/182/124 130/184/126 143/202/140
f 128/182/124 143/202/140 147/206/144
f 148/207/145 130/184/126 129/183/125
f 148/207/145 129/183/125 125/177/122
f 131/185/127 143/202/140 130/184/126
f 131/185/127 130/184/126 148/207/145
f 147/206/144 143/202/140 87/117/85
f 147/206/144 87/117/85 132/187/128
f 120/172/117 122/174/119 142/201/139
f 120/172/117 142/201/139 149/208/146
f 150/209/147 122/174/119 121/173/118
f 150/209/147 121/173/118 118/168/115
f 123/175/120 142/201/139 122/174/119
f 123/175/120 122/174/119 150/209/147
f 149/208/146 142/201/139 55/55/53
f 149/208/146 55/55/53 124/176/121
f 114/164/111 116/166/113 141/200/138
f 114/164/111 141/200/138 151/210/148
f 152/211/149 116/166/113 115/165/112
f 152/211/149 115/165/112 117/167/114
f 111/159/109 141/200/138 116/166/113
f 111/159/109 116/166/113 152/211/149
f 151/210/148 141/200/138 51/199/137
f 151/210/148 153/51/49 113/163/110
f 69/69/67 115/165/112 105/151/103
f 84/92/82 149/208/146 124/176/121
f 119/170/116 123/175/120 150/209/147
f 119/170/116 150/209/147 81/83/79
f 112/162/81 114/164/111 151/210/148
f 112/162/81 151/210/148 83/89/81
f 82/86/80 152/211/149 117/167/114
f 107/153/105 120/172/117 149/208/146
f 107/153/105 149/208/146 84/92/82
f 81/83/79 150/209/147 118/168/115
f 74/74/72 121/173/118 106/152/104
f 126/179/123 131/185/127 148/207/145
f 126/179/123 148/207/145 102/137/100
f 103/140/101 147/206/144 132/187/128
f 127/180/101 128/182/124 147/206/144
f 127/180/101 147/206/144 103/140/101
f 97/127/95 129/183/125 108/154/106
f 134/190/130 139/197/135 146/205/143
f 134/190/130 146/205/143 101/133/99
f 104/144/102 145/204/142 140/198/136
f 102/137/100 148/207/145 125/177/122
f 77/155/75 137/195/133 109/156/107
f 83/89/81 151/210/148 113/163/110
f 110/158/108 111/159/109 152/211/149
f 110/158/108 152/211/149 82/86/80
f 101/133/99 146/205/143 133/188/129
f 135/191/131 136/194/132 145/204/142
f 135/191/131 145/204/142 104/144/102
f 53/53/51 56/56/54 119/170/116
f 75/75/73 124/176/121 54/54/52
f 70/70/68 105/151/103 112/162/81
f 71/71/69 117/167/114 115/165/112
f 71/71/69 115/165/112 69/69/67
f 66/66/64 74/74/72 86/113/84
f 79/79/77 67/67/65 85/107/83
f 80/115/78 88/118/86 126/179/123
f 73/73/71 118/168/115 121/173/118
f 73/73/71 121/173/118 74/74/72
f 100/130/98 140/198/136 90/120/88
f 99/129/97 125/177/122 129/183/125
f 99/129/97 129/183/125 97/127/95
f 89/119/87 92/122/90 134/190/130
f 98/128/96 108/154/106 127/180/101
f 78/157/76 109/156/107 135/191/131
f 72/72/70 113/163/110 50/50/48
f 49/49/47 52/52/50 110/158/108
f 76/134/74 133/188/129 137/195/133
f 76/134/74 137/195/133 77/155/75
