o sponza_47
v 50.7228 122.553 17.4642
v 50.7228 122.071 17.2983
v 49.7697 122.269 17.2983
v 49.9609 122.711 17.4642
v 48.9555 124.583 17.6658
v 48.9555 124.583 18.993
v 49.0559 123.871 18.993
v 49.0559 123.871 17.6658
v 48.8102 124.593 17.4643
v 48.3297 124.623 17.2983
v 48.5541 125.493 17.2983
v 48.9897 125.287 17.4643
v 48.4657 123.66 17.2983
v 48.0127 123.497 16.9438
v 47.8494 124.654 16.9438
v 47.8494 124.654 16.9438
v 48.0127 123.497 16.9438
v 48.0127 123.497 18.993
v 47.8494 124.654 18.993
v 50.7228 126.24 17.6658
v 50.7228 126.24 18.993
v 50.0714 126.116 18.993
v 50.0714 126.116 17.6658
v 50.7228 126.868 17.2983
v 49.8408 126.699 17.2983
v 49.6638 127.147 16.9438
v 50.7228 127.349 16.9438
v 50.7228 127.349 16.9438
v 49.6638 127.147 16.9438
v 49.6638 127.147 18.993
v 50.7228 127.349 18.993
v 51.4847 122.711 17.4642
v 51.676 122.269 17.2983
v 52.3897 123.871 17.6658
v 52.3897 123.871 18.993
v 52.4901 124.583 18.993
v 52.4901 124.583 17.6658
v 52.4559 125.287 17.4643
v 52.8915 125.493 17.2983
v 53.1159 124.623 17.2983
v 52.6354 124.593 17.4643
v 53.4329 123.497 16.9438
v 52.9799 123.66 17.2983
v 53.5962 124.654 16.9438
v 53.4329 123.497 18.993
v 53.4329 123.497 16.9438
v 53.5962 124.654 16.9438
v 53.5962 124.654 18.993
v 51.3742 126.116 17.6658
v 51.3742 126.116 18.993
v 51.7818 127.147 16.9438
v 51.6048 126.699 17.2983
v 51.7818 127.147 18.993
v 51.7818 127.147 16.9438
v 49.3246 123.158 17.4642
v 48.9736 122.829 17.2983
v 48.9187 123.822 17.4642
v 49.4309 123.258 17.6658
v 49.4309 123.258 18.993
v 50.0189 122.844 18.993
v 50.0189 122.844 17.6658
v 49.412 125.867 17.4643
v 49.0825 126.219 17.2983
v 50.018 126.252 17.4643
v 49.5784 121.827 16.9438
v 48.6225 122.5 16.9438
v 48.6225 122.5 16.9438
v 49.5784 121.827 16.9438
v 49.5784 121.827 18.993
v 48.6225 122.5 18.993
v 49.5114 125.761 17.6658
v 49.5114 125.761 18.993
v 49.1212 125.225 18.993
v 49.1212 125.225 17.6658
v 48.1189 125.698 16.9438
v 48.7533 126.57 16.9438
v 48.7533 126.57 16.9438
v 48.1189 125.698 16.9438
v 48.1189 125.698 18.993
v 48.7533 126.57 18.993
v 52.121 123.158 17.4642
v 52.5269 123.822 17.4642
v 52.472 122.829 17.2983
v 52.0147 123.258 17.6658
v 51.4267 122.844 17.6658
v 51.4267 122.844 18.993
v 52.0147 123.258 18.993
v 52.0336 125.867 17.4643
v 51.4276 126.252 17.4643
v 52.3631 126.219 17.2983
v 52.8231 122.5 16.9438
v 51.8673 121.827 16.9438
v 52.8231 122.5 18.993
v 51.8673 121.827 18.993
v 51.8673 121.827 16.9438
v 52.8231 122.5 16.9438
v 51.9342 125.761 17.6658
v 52.3244 125.225 17.6658
v 52.3244 125.225 18.993
v 51.9342 125.761 18.993
v 52.6923 126.57 16.9438
v 53.3267 125.698 16.9438
v 52.6923 126.57 18.993
v 53.3267 125.698 18.993
v 53.3267 125.698 16.9438
v 52.6923 126.57 16.9438
v 50.7228 122.698 18.993
v 50.7228 122.698 17.6658
v 50.7228 126.386 17.4643
v 50.7228 121.59 16.9438
v 50.7228 121.59 16.9438
v 50.7228 121.59 18.993
v 49.0559 123.871 17.6658
v 48.9187 123.822 17.4642
v 48.8102 124.593 17.4643
v 48.9555 124.583 17.6658
v 50.0714 126.116 17.6658
v 50.018 126.252 17.4643
v 50.7228 126.386 17.4643
v 50.7228 126.24 17.6658
v 52.4901 124.583 17.6658
v 52.6354 124.593 17.4643
v 52.5269 123.822 17.4642
v 52.3897 123.871 17.6658
v 51.4276 126.252 17.4643
v 51.3742 126.116 17.6658
v 50.0189 122.844 17.6658
v 49.9609 122.711 17.4642
v 49.3246 123.158 17.4642
v 49.4309 123.258 17.6658
v 49.1212 125.225 17.6658
v 48.9897 125.287 17.4643
v 49.412 125.867 17.4643
v 49.5114 125.761 17.6658
v 52.0147 123.258 17.6658
v 52.121 123.158 17.4642
v 51.4847 122.711 17.4642
v 51.4267 122.844 17.6658
v 51.9342 125.761 17.6658
v 52.0336 125.867 17.4643
v 52.4559 125.287 17.4643
v 52.3244 125.225 17.6658
v 50.7228 122.698 17.6658
v 50.7228 122.553 17.4642
vt 0.0033 0.1621
vt 0.0033 0.1878
vt 0.1275 0.1878
vt 0.1275 0.1621
vt 0.4999 0.1451
vt 0.4999 0.0638
vt 0.3758 0.0638
vt 0.3758 0.1451
vt 0.4999 0.1621
vt 0.4999 0.1878
vt 0.6143 0.1878
vt 0.6143 0.1621
vt 0.3758 0.1878
vt 0.3758 0.2169
vt 0.4999 0.2169
vt 0.4999 0.2169
vt 0.3758 0.2169
vt 0.3758 0.3263
vt 0.4999 0.3263
vt 0.9575 0.1451
vt 0.9575 0.0638
vt 0.8431 0.0638
vt 0.8431 0.1451
vt 0.9575 0.1878
vt 0.8431 0.1878
vt 0.8431 0.2169
vt 0.9575 0.2169
vt 0.9575 0.2169
vt 0.8431 0.2169
vt 0.8431 0.3263
vt 0.9575 0.3263
vt 0.1275 0.1621
vt 0.1275 0.1878
vt 0.3758 0.1451
vt 0.3758 0.0638
vt 0.4999 0.0638
vt 0.4999 0.1451
vt 0.6143 0.1621
vt 0.6143 0.1878
vt 0.4999 0.1878
vt 0.4999 0.1621
vt 0.3758 0.2169
vt 0.3758 0.1878
vt 0.4999 0.2169
vt 0.3758 0.3263
vt 0.3758 0.2169
vt 0.4999 0.2169
vt 0.4999 0.3263
vt 0.8431 0.1451
vt 0.8431 0.0638
vt 0.8431 0.2169
vt 0.8431 0.1878
vt 0.8431 0.3263
vt 0.8431 0.2169
vt 0.2516 0.1621
vt 0.2516 0.1878
vt 0.3758 0.1621
vt 0.2516 0.1451
vt 0.2516 0.0638
vt 0.1275 0.0638
vt 0.1275 0.1451
vt 0.7287 0.1621
vt 0.7287 0.1878
vt 0.8431 0.1621
vt 0.1275 0.2169
vt 0.2516 0.2169
vt 0.2516 0.2169
vt 0.1275 0.2169
vt 0.1275 0.3263
vt 0.2516 0.3263
vt 0.7287 0.1451
vt 0.7287 0.0638
vt 0.6143 0.0638
vt 0.6143 0.1451
vt 0.6143 0.2169
vt 0.7287 0.2169
vt 0.7287 0.2169
vt 0.6143 0.2169
vt 0.6143 0.3263
vt 0.7287 0.3263
vt 0.2516 0.1621
vt 0.3758 0.1621
vt 0.2516 0.1878
vt 0.2516 0.1451
vt 0.1275 0.1451
vt 0.1275 0.0638
vt 0.2516 0.0638
vt 0.7287 0.1621
vt 0.8431 0.1621
vt 0.7287 0.1878
vt 0.2516 0.2169
vt 0.1275 0.2169
vt 0.2516 0.3263
vt 0.1275 0.3263
vt 0.1275 0.2169
vt 0.2516 0.2169
vt 0.7287 0.1451
vt 0.6143 0.1451
vt 0.6143 0.0638
vt 0.7287 0.0638
vt 0.7287 0.2169
vt 0.6143 0.2169
vt 0.7287 0.3263
vt 0.6143 0.3263
vt 0.6143 0.2169
vt 0.7287 0.2169
vt 0.0033 0.0638
vt 0.0033 0.1451
vt 0.9575 0.1621
vt 0.0033 0.2169
vt 0.0033 0.2169
vt 0.0033 0.3263
vt 0.3758 0.1451
vt 0.3758 0.1621
vt 0.4999 0.1621
vt 0.4999 0.1451
vt 0.8431 0.1451
vt 0.8431 0.1621
vt 0.9575 0.1621
vt 0.9575 0.1451
vt 0.4999 0.1451
vt 0.4999 0.1621
vt 0.3758 0.1621
vt 0.3758 0.1451
vt 0.8431 0.1621
vt 0.8431 0.1451
vt 0.1275 0.1451
vt 0.1275 0.1621
vt 0.2516 0.1621
vt 0.2516 0.1451
vt 0.6143 0.1451
vt 0.6143 0.1621
vt 0.7287 0.1621
vt 0.7287 0.1451
vt 0.2516 0.1451
vt 0.2516 0.1621
vt 0.1275 0.1621
vt 0.1275 0.1451
vt 0.7287 0.1451
vt 0.7287 0.1621
vt 0.6143 0.1621
vt 0.6143 0.1451
vt 0.0033 0.1451
vt 0.0033 0.1621
vn -0 0.3259 -0.9454
vn -0 0.4799 -0.8773
vn 0.1907 0.4403 -0.8773
vn 0.1295 0.299 -0.9454
vn 0.9984 -0.0562 0
vn 0.9984 -0.0562 0
vn 0.9412 0.3377 0
vn 0.9412 0.3377 0
vn 0.3254 -0.018 -0.9454
vn 0.4786 -0.0267 -0.8776
vn 0.4329 -0.2043 -0.878
vn 0.2947 -0.1391 -0.9454
vn 0.4517 0.1621 -0.8773
vn 0.5582 0.2003 -0.8052
vn 0.5921 -0.0337 -0.8051
vn -0.9984 0.0562 0
vn -0.9412 -0.3377 0
vn -0.9412 -0.3377 0
vn -0.9984 0.0562 0
vn 0 -1 0
vn 0 -1 0
vn 0.3678 -0.9299 0
vn 0.3678 -0.9299 0
vn -0 -0.4787 -0.878
vn 0.1761 -0.4452 -0.878
vn 0.2181 -0.5515 -0.8052
vn -0 -0.5931 -0.8052
vn 0 1 0
vn -0.3678 0.9299 0
vn -0.3678 0.9299 0
vn 0 1 0
vn -0.1295 0.299 -0.9454
vn -0.1907 0.4403 -0.8773
vn -0.9412 0.3377 0
vn -0.9412 0.3377 0
vn -0.9984 -0.0562 0
vn -0.9984 -0.0562 0
vn -0.2947 -0.1391 -0.9454
vn -0.4329 -0.2043 -0.878
vn -0.4786 -0.0267 -0.8776
vn -0.3254 -0.018 -0.9454
vn -0.5582 0.2003 -0.8051
vn -0.4517 0.1621 -0.8773
vn -0.5921 -0.0337 -0.8051
vn 0.9412 -0.3377 0
vn 0.9412 -0.3377 0
vn 0.9984 0.0562 0
vn 0.9984 0.0562 0
vn -0.3678 -0.9299 0
vn -0.3678 -0.9299 0
vn -0.2181 -0.5515 -0.8052
vn -0.1761 -0.4452 -0.878
vn 0.3678 0.9299 0
vn 0.3678 0.9299 0
vn 0.2377 0.2229 -0.9454
vn 0.3501 0.3283 -0.8773
vn 0.3067 0.1101 -0.9454
vn 0.7295 0.684 0
vn 0.7295 0.684 0
vn 0.3975 0.9176 0
vn 0.3975 0.9176 0
vn 0.2229 -0.2377 -0.9454
vn 0.3275 -0.3492 -0.878
vn 0.1199 -0.303 -0.9454
vn 0.2357 0.5442 -0.8052
vn 0.4326 0.4057 -0.8051
vn -0.7295 -0.684 0
vn -0.3975 -0.9176 0
vn -0.3975 -0.9176 0
vn -0.7295 -0.684 0
vn 0.684 -0.7295 0
vn 0.684 -0.7295 0
vn 0.9044 -0.4268 0
vn 0.9044 -0.4267 0
vn 0.5364 -0.2531 -0.8052
vn 0.4057 -0.4326 -0.8052
vn -0.684 0.7295 0
vn -0.9044 0.4268 0
vn -0.9044 0.4268 0
vn -0.684 0.7295 0
vn -0.2377 0.2229 -0.9454
vn -0.3067 0.11 -0.9454
vn -0.3501 0.3283 -0.8773
vn -0.7295 0.684 0
vn -0.3975 0.9176 0
vn -0.3975 0.9176 0
vn -0.7295 0.684 0
vn -0.2229 -0.2377 -0.9454
vn -0.1199 -0.303 -0.9454
vn -0.3275 -0.3492 -0.878
vn -0.4326 0.4057 -0.8051
vn -0.2357 0.5442 -0.8052
vn 0.7295 -0.684 0
vn 0.3975 -0.9176 0
vn 0.3975 -0.9176 0
vn 0.7295 -0.684 0
vn -0.684 -0.7295 0
vn -0.9044 -0.4268 0
vn -0.9044 -0.4267 0
vn -0.684 -0.7295 0
vn -0.4057 -0.4326 -0.8051
vn -0.5364 -0.2531 -0.8051
vn 0.684 0.7295 0
vn 0.9044 0.4268 0
vn 0.9044 0.4268 0
vn 0.684 0.7295 0
vn 0 1 0
vn 0 1 0
vn 0 -0.3258 -0.9454
vn 0 0.5931 -0.8052
vn 0 -1 0
vn 0 -1 0
vn 0.7627 0.2736 -0.586
vn 0.7627 0.2736 -0.586
vn 0.8093 -0.0461 -0.5857
vn 0.8094 -0.0451 -0.5856
vn 0.2982 -0.7541 -0.5852
vn 0.2982 -0.7541 -0.5852
vn 0 -0.8109 -0.5852
vn 0 -0.8109 -0.5852
vn -0.8093 -0.0451 -0.5856
vn -0.8093 -0.0461 -0.5856
vn -0.7627 0.2737 -0.586
vn -0.7627 0.2737 -0.586
vn -0.2982 -0.754 -0.5852
vn -0.2982 -0.754 -0.5852
vn 0.3221 0.7436 -0.586
vn 0.3221 0.7436 -0.586
vn 0.5911 0.5543 -0.586
vn 0.5911 0.5543 -0.586
vn 0.7333 -0.346 -0.5852
vn 0.7333 -0.346 -0.5853
vn 0.5547 -0.5915 -0.5852
vn 0.5547 -0.5915 -0.5852
vn -0.5911 0.5543 -0.586
vn -0.5911 0.5543 -0.586
vn -0.3221 0.7435 -0.586
vn -0.3221 0.7435 -0.586
vn -0.5547 -0.5915 -0.5852
vn -0.5547 -0.5915 -0.5852
vn -0.7333 -0.3461 -0.5852
vn -0.7333 -0.3461 -0.5853
vn -0 0.8103 -0.586
vn -0 0.8103 -0.586
f 1/1/1 2/2/2 3/3/3
f 1/1/1 3/3/3 4/4/4
f 5/5/5 6/6/6 7/7/7
f 5/5/5 7/7/7 8/8/8
f 9/9/9 10/10/10 11/11/11
f 9/9/9 11/11/11 12/12/12
f 10/10/10 13/13/13 14/14/14
f 10/10/10 14/14/14 15/15/15
f 16/16/16 17/17/17 18/18/18
f 16/16/16 18/18/18 19/19/19
f 20/20/20 21/21/21 22/22/22
f 20/20/20 22/22/22 23/23/23
f 24/24/24 25/25/25 26/26/26
f 24/24/24 26/26/26 27/27/27
f 28/28/28 29/29/29 30/30/30
f 28/28/28 30/30/30 31/31/31
f 2/2/2 1/1/1 32/32/32
f 2/2/2 32/32/32 33/33/33
f 34/34/34 35/35/35 36/36/36
f 34/34/34 36/36/36 37/37/37
f 38/38/38 39/39/39 40/40/40
f 38/38/38 40/40/40 41/41/41
f 42/42/42 43/43/43 40/40/40
f 42/42/42 40/40/40 44/44/44
f 45/45/45 46/46/46 47/47/47
f 45/45/45 47/47/47 48/48/48
f 49/49/49 50/50/50 21/21/21
f 49/49/49 21/21/21 20/20/20
f 51/51/51 52/52/52 24/24/24
f 51/51/51 24/24/24 27/27/27
f 53/53/53 54/54/54 28/28/28
f 53/53/53 28/28/28 31/31/31
f 55/55/55 56/56/56 13/13/13
f 55/55/55 13/13/13 57/57/57
f 58/58/58 59/59/59 60/60/60
f 58/58/58 60/60/60 61/61/61
f 62/62/62 63/63/63 25/25/25
f 62/62/62 25/25/25 64/64/64
f 56/56/56 3/3/3 65/65/65
f 56/56/56 65/65/65 66/66/66
f 67/67/67 68/68/68 69/69/69
f 67/67/67 69/69/69 70/70/70
f 71/71/71 72/72/72 73/73/73
f 71/71/71 73/73/73 74/74/74
f 63/63/63 11/11/11 75/75/75
f 63/63/63 75/75/75 76/76/76
f 77/77/77 78/78/78 79/79/79
f 77/77/77 79/79/79 80/80/80
f 81/81/81 82/82/82 43/43/43
f 81/81/81 43/43/43 83/83/83
f 84/84/84 85/85/85 86/86/86
f 84/84/84 86/86/86 87/87/87
f 88/88/88 89/89/89 52/52/52
f 88/88/88 52/52/52 90/90/90
f 91/91/91 92/92/92 33/33/33
f 91/91/91 33/33/33 83/83/83
f 93/93/93 94/94/94 95/95/95
f 93/93/93 95/95/95 96/96/96
f 97/97/97 98/98/98 99/99/99
f 97/97/97 99/99/99 100/100/100
f 101/101/101 102/102/102 39/39/39
f 101/101/101 39/39/39 90/90/90
f 103/103/103 104/104/104 105/105/105
f 103/103/103 105/105/105 106/106/106
f 4/4/4 3/3/3 56/56/56
f 4/4/4 56/56/56 55/55/55
f 8/8/8 7/7/7 59/59/59
f 8/8/8 59/59/59 58/58/58
f 12/12/12 11/11/11 63/63/63
f 12/12/12 63/63/63 62/62/62
f 13/13/13 56/56/56 66/66/66
f 13/13/13 66/66/66 14/14/14
f 17/17/17 67/67/67 70/70/70
f 17/17/17 70/70/70 18/18/18
f 23/23/23 22/22/22 72/72/72
f 23/23/23 72/72/72 71/71/71
f 25/25/25 63/63/63 76/76/76
f 25/25/25 76/76/76 26/26/26
f 29/29/29 77/77/77 80/80/80
f 29/29/29 80/80/80 30/30/30
f 32/32/32 81/81/81 83/83/83
f 32/32/32 83/83/83 33/33/33
f 34/34/34 84/84/84 87/87/87
f 34/34/34 87/87/87 35/35/35
f 38/38/38 88/88/88 90/90/90
f 38/38/38 90/90/90 39/39/39
f 42/42/42 91/91/91 83/83/83
f 42/42/42 83/83/83 43/43/43
f 45/45/45 93/93/93 96/96/96
f 45/45/45 96/96/96 46/46/46
f 49/49/49 97/97/97 100/100/100
f 49/49/49 100/100/100 50/50/50
f 51/51/51 101/101/101 90/90/90
f 51/51/51 90/90/90 52/52/52
f 53/53/53 103/103/103 106/106/106
f 53/53/53 106/106/106 54/54/54
f 57/57/57 13/13/13 10/10/10
f 57/57/57 10/10/10 9/9/9
f 61/61/61 60/60/60 107/107/107
f 61/61/61 107/107/107 108/108/108
f 64/64/64 25/25/25 24/24/24
f 64/64/64 24/24/24 109/109/109
f 3/3/3 2/2/2 110/110/110
f 3/3/3 110/110/110 65/65/65
f 68/68/68 111/111/111 112/112/112
f 68/68/68 112/112/112 69/69/69
f 74/74/74 73/73/73 6/6/6
f 74/74/74 6/6/6 5/5/5
f 11/11/11 10/10/10 15/15/15
f 11/11/11 15/15/15 75/75/75
f 78/78/78 16/16/16 19/19/19
f 78/78/78 19/19/19 79/79/79
f 82/82/82 41/41/41 40/40/40
f 82/82/82 40/40/40 43/43/43
f 85/85/85 108/108/108 107/107/107
f 85/85/85 107/107/107 86/86/86
f 89/89/89 109/109/109 24/24/24
f 89/89/89 24/24/24 52/52/52
f 92/92/92 110/110/110 2/2/2
f 92/92/92 2/2/2 33/33/33
f 94/94/94 112/112/112 111/111/111
f 94/94/94 111/111/111 95/95/95
f 98/98/98 37/37/37 36/36/36
f 98/98/98 36/36/36 99/99/99
f 102/102/102 44/44/44 40/40/40
f 102/102/102 40/40/40 39/39/39
f 104/104/104 48/48/48 47/47/47
f 104/104/104 47/47/47 105/105/105
f 113/113/113 114/114/114 115/115/115
f 113/113/113 115/115/115 116/116/116
f 117/117/117 118/118/118 119/119/119
f 117/117/117 119/119/119 120/120/120
f 121/121/121 122/122/122 123/123/123
f 121/121/121 123/123/123 124/124/124
f 120/120/120 119/119/119 125/125/125
f 120/120/120 125/125/125 126/126/126
f 127/127/127 128/128/128 129/129/129
f 127/127/127 129/129/129 130/130/130
f 131/131/131 132/132/132 133/133/133
f 131/131/131 133/133/133 134/134/134
f 135/135/135 136/136/136 137/137/137
f 135/135/135 137/137/137 138/138/138
f 139/139/139 140/140/140 141/141/141
f 139/139/139 141/141/141 142/142/142
f 130/130/130 129/129/129 114/114/114
f 130/130/130 114/114/114 113/113/113
f 134/134/134 133/133/133 118/118/118
f 134/134/134 118/118/118 117/117/117
f 124/124/124 123/123/123 136/136/136
f 124/124/124 136/136/136 135/135/135
f 126/126/126 125/125/125 140/140/140
f 126/126/126 140/140/140 139/139/139
f 143/143/143 144/144/144 128/128/128
f 143/143/143 128/128/128 127/127/127
f 116/116/116 115/115/115 132/132/132
f 116/116/116 132/132/132 131/131/131
f 144/144/144 143/143/143 138/138/138
f 144/144/144 138/138/138 137/137/137
f 142/142/142 141/141/141 122/122/122
f 142/142/142 122/122/122 121/121/121
