o sponza_167
v -9.2332 68.7192 -25.0539
v -9.27945 68.7192 -25.1002
v -9.29693 68.7192 -25.1424
v -3.49295 68.7192 -25.0365
v -9.27945 68.7192 -30.8721
v -9.29693 68.7192 -25.2796
v -9.29693 68.7192 -30.7147
v -9.29693 68.7192 -30.8299
v -9.19099 68.7192 -30.9358
v -9.2332 68.7192 -30.9184
v -3.45074 68.7192 -30.9184
v -9.0937 68.7192 -30.9358
v -3.62474 68.7192 -30.9358
v -3.49295 68.7192 -30.9358
v -3.38701 68.7192 -30.8299
v -3.40449 68.7192 -30.8721
v -3.40449 68.7192 -25.1002
v -3.38701 68.7192 -30.7127
v -3.38701 68.7192 -25.2181
v -3.38701 68.7192 -25.1424
v -3.45074 68.7192 -25.0539
v -9.06288 68.7192 -25.0365
v -3.53794 68.7192 -25.0365
v -9.19099 68.7192 -25.0365
v -9.27945 69.5667 -25.1002
v -9.2332 69.5667 -25.0539
v -9.19099 69.5667 -25.0365
v -9.29693 69.5667 -30.8299
v -3.45074 69.5667 -25.0539
v -9.06288 69.5667 -25.0365
v -3.53794 69.5667 -25.0365
v -3.49295 69.5667 -25.0365
v -3.38701 69.5667 -25.1424
v -3.40449 69.5667 -25.1002
v -3.40449 69.5667 -30.8721
v -3.38701 69.5667 -25.2181
v -3.38701 69.5667 -30.7127
v -3.38701 69.5667 -30.8299
v -3.49295 69.5667 -30.9358
v -3.45074 69.5667 -30.9184
v -9.2332 69.5667 -30.9184
v -3.62474 69.5667 -30.9358
v -9.0937 69.5667 -30.9358
v -9.19099 69.5667 -30.9358
v -9.27945 69.5667 -30.8721
v -9.29693 69.5667 -30.7147
v -9.29693 69.5667 -25.2796
v -9.29693 69.5667 -25.1424
v -9.06946 69.1431 -25.0018
v -9.19789 69.3395 -25.0018
v -9.19789 68.7538 -25.0018
v -9.06946 68.9467 -25.0018
v -3.35233 69.1431 -25.2113
v -3.35233 69.3395 -25.1355
v -3.35233 68.7538 -25.1355
v -3.35233 68.9467 -25.2113
v -3.37509 69.532 -25.0806
v -3.4311 69.532 -25.0245
v -3.4311 68.7538 -25.0245
v -3.37509 68.7538 -25.0806
v -9.30885 69.532 -25.0806
v -9.30885 68.7538 -25.0806
v -9.25284 68.7538 -25.0245
v -9.25284 69.532 -25.0245
v -3.4311 69.532 -30.9478
v -3.37509 69.532 -30.8918
v -3.37509 68.7538 -30.8918
v -3.4311 68.7538 -30.9478
v -3.48605 69.532 -25.0018
v -3.48605 69.3395 -25.0018
v -3.48605 68.7538 -25.0018
v -9.19789 69.532 -25.0018
v -3.35233 69.3395 -30.8368
v -3.35233 68.7538 -30.8368
v -3.35233 69.532 -25.1355
v -9.33161 69.3395 -25.1355
v -9.33161 68.7538 -25.1355
v -9.33161 69.532 -25.1355
v -3.48605 69.3395 -30.9705
v -3.48605 68.7538 -30.9705
v -3.35233 68.7538 -30.7194
v -3.53115 68.7538 -25.0018
v -9.06946 69.532 -25.0018
v -3.35233 69.532 -25.2113
v -3.48605 69.532 -30.9705
v -3.35233 69.532 -30.8368
v -3.61816 69.1431 -30.9705
v -3.61816 68.9467 -30.9705
v -9.33161 69.1431 -30.7213
v -9.33161 69.3395 -30.8368
v -9.33161 68.7538 -30.8368
v -9.33161 68.9467 -30.7213
v -9.30885 69.532 -30.8918
v -9.25284 69.532 -30.9478
v -9.25284 68.7538 -30.9478
v -9.30885 68.7538 -30.8918
v -9.19788 69.532 -30.9705
v -9.19788 69.3395 -30.9705
v -9.19788 68.7538 -30.9705
v -9.33161 69.532 -30.8368
v -9.33161 68.7538 -25.2731
v -9.10037 68.7538 -30.9705
v -3.61816 69.532 -30.9705
v -9.33161 69.532 -30.7213
v -3.53115 69.3395 -25.0018
v -3.35233 69.532 -30.7194
v -3.35233 69.3395 -30.7194
v -9.10037 69.3395 -30.9705
v -9.33161 69.3395 -25.2731
v -9.06946 68.7538 -25.0018
v -9.02124 68.9467 -25.0018
v -3.53115 69.532 -25.0018
v -9.06946 69.3395 -25.0018
v -3.5985 69.3395 -25.0018
v -3.5985 69.1431 -25.273
v -3.53115 69.1431 -25.0018
v -3.53115 68.9467 -25.0018
v -3.35233 68.9467 -30.7194
v -3.35233 68.7538 -25.2113
v -3.35233 69.3395 -30.667
v -3.54722 69.1431 -30.667
v -3.35233 69.1431 -30.7194
v -3.35233 68.9467 -25.2839
v -3.35233 69.3395 -25.2113
v -9.10037 68.9467 -30.9705
v -3.61816 68.7538 -30.9705
v -9.10037 69.532 -30.9705
v -9.04338 69.3395 -30.9705
v -9.04338 69.1431 -30.7722
v -9.10037 69.1431 -30.9705
v -3.68105 68.9467 -30.9705
v -3.61816 69.3395 -30.9705
v -9.33161 68.9467 -25.2731
v -9.33161 68.7538 -30.7213
v -9.33161 69.532 -25.2731
v -9.33161 69.3395 -25.3385
v -9.08644 69.1431 -25.3385
v -9.33161 69.1431 -25.2731
v -9.33161 68.9467 -30.6709
v -9.33161 69.3395 -30.7213
v -9.02124 69.1431 -25.273
v -3.54722 69.1431 -25.2839
v -3.68105 69.1431 -30.7722
v -9.08644 69.1431 -30.6709
v -9.33161 69.3395 -30.6709
v -9.33161 68.9467 -25.3385
v -3.68105 69.3395 -30.9705
v -9.04338 68.9467 -30.9705
v -3.35233 69.3395 -25.2839
v -3.35233 68.9467 -30.667
v -9.02124 69.3395 -25.0018
v -3.5985 68.9467 -25.0018
v -3.49295 68.7192 -25.0365
v -9.06288 68.7192 -25.0365
v -3.53794 68.7192 -25.0365
v -9.06946 69.1431 -25.0018
vt 0.9853 0.6631
vt 0.9879 0.6656
vt 0.9888 0.6679
vt 0.6734 0.6622
vt 0.9879 0.9792
vt 0.9888 0.6754
vt 0.9888 0.9706
vt 0.9888 0.9769
vt 0.9831 0.9826
vt 0.9853 0.9817
vt 0.6713 0.9817
vt 0.9778 0.9826
vt 0.6807 0.9826
vt 0.6736 0.9826
vt 0.6678 0.9769
vt 0.6687 0.9792
vt 0.6687 0.6656
vt 0.6678 0.9705
vt 0.6678 0.672
vt 0.6678 0.6679
vt 0.6713 0.6631
vt 0.9761 0.6621
vt 0.9761 0.6621
vt 0.6734 0.6622
vt 0.6758 0.6622
vt 0.9831 0.6621
vt 0.5626 0.7873
vt 0.5616 0.7884
vt 0.5606 0.7888
vt 0.5631 0.6536
vt 0.4266 0.7884
vt 0.5577 0.7888
vt 0.4286 0.7888
vt 0.4276 0.7888
vt 0.4252 0.7863
vt 0.4256 0.7873
vt 0.4256 0.6526
vt 0.4252 0.7845
vt 0.4252 0.6563
vt 0.4252 0.6536
vt 0.4276 0.6511
vt 0.4266 0.6515
vt 0.5616 0.6515
vt 0.4307 0.6511
vt 0.5583 0.6511
vt 0.5606 0.6511
vt 0.5626 0.6526
vt 0.5631 0.6563
vt 0.5631 0.7831
vt 0.5631 0.7863
vt 0.0347 0.6166
vt 0.045 0.6233
vt 0.0143 0.6233
vt 0.0244 0.6166
vt 0.0347 0.3112
vt 0.045 0.3152
vt 0.0143 0.3152
vt 0.0244 0.3112
vt 0.0551 0.3181
vt 0.0551 0.321
vt 0.0143 0.321
vt 0.0143 0.3181
vt 0.0551 0.6291
vt 0.0143 0.6291
vt 0.0143 0.6262
vt 0.0551 0.6262
vt 0.0551 0.0105
vt 0.0551 0.0134
vt 0.0143 0.0134
vt 0.0143 0.0105
vt 0.0551 0.3239
vt 0.045 0.3239
vt 0.0143 0.3239
vt 0.0551 0.6233
vt 0.045 0.0163
vt 0.0143 0.0163
vt 0.0551 0.3152
vt 0.045 0.632
vt 0.0143 0.632
vt 0.0551 0.632
vt 0.045 0.0076
vt 0.0143 0.0076
vt 0.0124 0.0165
vt 0.0143 0.0224
vt 0.0124 0.0226
vt 0.0125 0.3241
vt 0.0143 0.3262
vt 0.0125 0.3264
vt 0.0569 0.6231
vt 0.0551 0.6166
vt 0.0569 0.6164
vt 0.057 0.3151
vt 0.0551 0.3112
vt 0.057 0.3112
vt 0.0125 0.6292
vt 0.0125 0.6262
vt 0.0126 0.321
vt 0.0126 0.318
vt 0.0122 0.0134
vt 0.0125 0.0104
vt 0.0569 0.6262
vt 0.0572 0.6292
vt 0.057 0.318
vt 0.0568 0.321
vt 0.0572 0.0104
vt 0.0572 0.0134
vt 0.0126 0.623
vt 0.0576 0.0079
vt 0.0551 0.0076
vt 0.0126 0.6317
vt 0.0125 0.3152
vt 0.0126 0.0079
vt 0.0571 0.6317
vt 0.0569 0.3241
vt 0.0572 0.0163
vt 0.0551 0.0163
vt 0.0347 0.6164
vt 0.045 0.6233
vt 0.0143 0.6233
vt 0.0244 0.6164
vt 0.0347 0.3091
vt 0.045 0.3152
vt 0.0143 0.3152
vt 0.0244 0.3091
vt 0.0551 0.3181
vt 0.0551 0.321
vt 0.0143 0.321
vt 0.0143 0.3181
vt 0.0551 0.3239
vt 0.045 0.3239
vt 0.0143 0.3239
vt 0.0551 0.3152
vt 0.0124 0.0165
vt 0.0143 0.0163
vt 0.0143 0.0235
vt 0.0124 0.0237
vt 0.0125 0.3241
vt 0.0143 0.329
vt 0.0125 0.3292
vt 0.0569 0.6231
vt 0.0551 0.6233
vt 0.0551 0.6164
vt 0.0569 0.6162
vt 0.057 0.3151
vt 0.0551 0.3091
vt 0.057 0.3091
vt 0.0126 0.321
vt 0.0126 0.318
vt 0.057 0.318
vt 0.0568 0.321
vt 0.0125 0.3152
vt 0.0569 0.3241
vt 0.045 0.3262
vt 0.0551 0.0224
vt 0.045 0.0224
vt 0.045 0.329
vt 0.045 0.0163
vt 0.0551 0.0163
vt 0.045 0.0235
vt 0.0143 0.6166
vt 0.0244 0.6141
vt 0.0126 0.6163
vt 0.0551 0.3262
vt 0.0569 0.3265
vt 0.045 0.6166
vt 0.045 0.3298
vt 0.0347 0.3298
vt 0.0347 0.3262
vt 0.0244 0.3262
vt 0.0244 0.0224
vt 0.0143 0.3112
vt 0.0125 0.3112
vt 0.0572 0.0225
vt 0.045 0.0252
vt 0.0347 0.0252
vt 0.0347 0.0224
vt 0.0244 0.3074
vt 0.045 0.3112
vt 0.0244 0.329
vt 0.0143 0.6164
vt 0.0126 0.6161
vt 0.0551 0.329
vt 0.0569 0.3292
vt 0.045 0.332
vt 0.0347 0.332
vt 0.0347 0.329
vt 0.0244 0.6131
vt 0.0126 0.623
vt 0.045 0.6164
vt 0.0244 0.0235
vt 0.0143 0.3091
vt 0.0125 0.3091
vt 0.0551 0.0235
vt 0.0572 0.0163
vt 0.0572 0.0235
vt 0.045 0.0269
vt 0.0347 0.0269
vt 0.0347 0.0235
vt 0.0244 0.3065
vt 0.045 0.3091
vt 0.0347 0.6141
vt 0.0347 0.6166
vt 0.0347 0.3074
vt 0.0347 0.6131
vt 0.0347 0.3065
vt 0.045 0.3065
vt 0.0244 0.0269
vt 0.045 0.6131
vt 0.0244 0.332
vt 0.045 0.3074
vt 0.0244 0.0252
vt 0.045 0.6141
vt 0.0244 0.3298
vn -0.2318 -0.9088 0.3469
vn -0.3469 -0.9088 0.2319
vn -0.4092 -0.9088 0.0814
vn 0.0814 -0.9088 0.4092
vn -0.3469 -0.9088 -0.2318
vn -0.3827 -0.9239 0
vn -0.4092 -0.9088 -0.0814
vn -0.0814 -0.9088 -0.4092
vn -0.2318 -0.9087 -0.3471
vn 0.2318 -0.9088 -0.3469
vn 0 -0.9228 -0.3853
vn 0 -0.924 -0.3824
vn 0.0814 -0.9088 -0.4092
vn 0.4092 -0.9088 -0.0814
vn 0.3469 -0.9088 -0.2319
vn 0.3469 -0.9088 0.2318
vn 0.3827 -0.9239 0
vn 0.4092 -0.9088 0.0814
vn 0.2318 -0.9086 0.3474
vn 0 -0.9239 0.3827
vn 0 0 1
vn -0.3405 -0.3405 -0.8764
vn -0.0814 -0.909 0.4088
vn -0.3469 0.9088 0.2318
vn -0.2318 0.9088 0.3469
vn -0.0814 0.9088 0.4092
vn -0.4093 0.9088 -0.0814
vn 0.2318 0.9088 0.3469
vn -0 0.9231 0.3847
vn 0 0.9238 0.383
vn 0.0814 0.9089 0.409
vn 0.4092 0.9088 0.0814
vn 0.3469 0.9088 0.2317
vn 0.3469 0.9088 -0.2318
vn 0.3827 0.9239 -0
vn 0.4092 0.9088 -0.0814
vn 0.0814 0.9088 -0.4093
vn 0.2318 0.9088 -0.347
vn -0.2319 0.9088 -0.3469
vn 0 0.9238 -0.3828
vn 0 0.9238 -0.383
vn -0.0814 0.9088 -0.4092
vn -0.3469 0.9088 -0.2318
vn -0.3827 0.9239 0
vn -0.4092 0.9088 0.0814
vn -0.0032 0.0081 1
vn -0.1951 0 0.9808
vn -0.1812 -0.371 0.9108
vn 0.2655 0.0652 0.9619
vn 0.8983 0 -0.4394
vn 0.9808 0 0.195
vn 0.9108 -0.371 0.1812
vn 0.9747 0.0775 -0.2098
vn 0.7722 0.371 0.5159
vn 0.5159 0.371 0.7721
vn 0.5159 -0.371 0.7721
vn 0.7721 -0.371 0.5159
vn -0.7722 0.371 0.5159
vn -0.7721 -0.371 0.5159
vn -0.5159 -0.371 0.7721
vn -0.5159 0.3709 0.7722
vn 0.516 0.3709 -0.7721
vn 0.7722 0.3709 -0.5159
vn 0.7721 -0.371 -0.5159
vn 0.516 -0.371 -0.7721
vn 0.1811 0.371 0.9108
vn 0.1951 0 0.9808
vn 0.1812 -0.3711 0.9108
vn -0.1811 0.3709 0.9108
vn 0.9808 0 -0.1951
vn 0.9108 -0.371 -0.1811
vn 0.9108 0.371 0.1811
vn -0.9808 0 0.195
vn -0.9108 -0.371 0.1811
vn -0.9108 0.371 0.1812
vn 0.1951 0 -0.9808
vn 0.1812 -0.371 -0.9108
vn 0.9239 -0.3827 0
vn 0 -0.3827 0.9239
vn 0.3405 0.8605 -0.3789
vn 0 0.3827 0.9239
vn 0.9239 0.3827 0
vn 0.1812 0.3709 -0.9108
vn 0.9108 0.3709 -0.1811
vn -0.4733 0 -0.8809
vn -0.2252 0.0721 -0.9716
vn -0.8358 -0 0.549
vn -0.9808 0 -0.195
vn -0.9108 -0.371 -0.1811
vn -0.964 0.066 0.2574
vn -0.7721 0.371 -0.5159
vn -0.516 0.3709 -0.7721
vn -0.516 -0.371 -0.7721
vn -0.7721 -0.371 -0.5159
vn -0.1812 0.371 -0.9108
vn -0.1951 0 -0.9808
vn -0.1812 -0.3711 -0.9108
vn -0.9108 0.371 -0.1812
vn -0.9239 -0.3827 0
vn 0 -0.3827 -0.9239
vn 0 0.3826 -0.9239
vn -0.9239 0.3827 0
vn -0.2417 -0.0829 0.9668
vn 0.9687 -0.064 0.24
vn 0.2341 -0.0679 -0.9698
vn -0.9682 -0.0791 -0.2374
vn 0.2607 0.1529 0.9532
vn 0.2654 -0.0652 0.9619
vn -0.2579 -0.3324 0.9072
vn -0.428 -0 0.9038
vn -0.515 -0 0.8572
vn -0.2417 0.0829 0.9668
vn 0.9687 0.064 0.24
vn 0.9286 -0.2732 0.2512
vn 0.9043 -0 0.427
vn 0.8624 0 0.5062
vn 0.9343 0.2813 -0.2189
vn 0.9747 -0.0775 -0.2098
vn 0.2341 0.0679 -0.9698
vn 0 0.3827 -0.9239
vn 0.245 -0.2781 -0.9288
vn 0.417 0 -0.9089
vn 0.4931 -0 -0.8699
vn -0.2355 0.2807 -0.9305
vn -0.2252 -0.0721 -0.9716
vn -0.9682 0.0791 -0.2374
vn -0.9148 -0.3159 -0.2516
vn -0.907 -0 -0.4212
vn -0.864 -0 -0.5035
vn -0.9113 0.3077 0.2738
vn -0.964 -0.0661 0.2574
vn 0.4648 -0 0.8854
vn 0.9853 -0.0066 0.1709
vn 0.9259 -0 -0.3778
vn -0.4025 -0 -0.9154
vn -0.8916 -0 0.4528
vn -0.9112 -0.3077 0.2738
vn -0.9148 0.3159 -0.2516
vn -0.2355 -0.2807 -0.9305
vn 0.245 0.2781 -0.9288
vn 0.9343 -0.2814 -0.2189
vn 0.9286 0.2732 0.2511
vn 0.2421 -0.3641 0.8994
vn -0.2579 0.3324 0.9072
f 1/1/1 2/2/2 3/3/3
f 1/1/1 3/3/3 153/4/4
f 5/5/5 6/6/6 7/7/6
f 5/5/5 7/7/6 8/8/7
f 6/6/6 5/5/5 9/9/8
f 6/6/6 9/9/8 3/3/3
f 5/5/5 10/10/9 9/9/8
f 11/11/10 12/12/11 13/13/12
f 11/11/10 13/13/12 14/14/13
f 12/12/11 11/11/10 15/15/14
f 12/12/11 15/15/14 9/9/8
f 11/11/10 16/16/15 15/15/14
f 9/9/8 15/15/14 153/4/4
f 9/9/8 153/4/4 3/3/3
f 17/17/16 18/18/17 19/19/17
f 17/17/16 19/19/17 20/20/18
f 18/18/17 17/17/16 153/4/4
f 18/18/17 153/4/4 15/15/14
f 17/17/16 21/21/19 153/4/4
f 154/22/20 1/1/1 153/4/4
f 22/23/21 4/24/21 155/25/22
f 24/26/23 1/1/1 154/22/20
f 25/27/24 26/28/25 27/29/26
f 25/27/24 27/29/26 28/30/27
f 29/31/28 30/32/29 31/33/30
f 29/31/28 31/33/30 32/34/31
f 30/32/29 29/31/28 33/35/32
f 30/32/29 33/35/32 27/29/26
f 29/31/28 34/36/33 33/35/32
f 35/37/34 36/38/35 37/39/35
f 35/37/34 37/39/35 38/40/36
f 36/38/35 35/37/34 39/41/37
f 36/38/35 39/41/37 33/35/32
f 35/37/34 40/42/38 39/41/37
f 33/35/32 39/41/37 28/30/27
f 33/35/32 28/30/27 27/29/26
f 41/43/39 42/44/40 43/45/41
f 41/43/39 43/45/41 44/46/42
f 42/44/40 41/43/39 28/30/27
f 42/44/40 28/30/27 39/41/37
f 41/43/39 45/47/43 28/30/27
f 46/48/44 47/49/44 25/27/24
f 46/48/44 25/27/24 28/30/27
f 48/50/45 25/27/24 47/49/44
f 156/51/46 50/52/47 51/53/48
f 156/51/46 51/53/48 52/54/49
f 53/55/50 54/56/51 55/57/52
f 53/55/50 55/57/52 56/58/53
f 57/59/54 58/60/55 59/61/56
f 57/59/54 59/61/56 60/62/57
f 61/63/58 62/64/59 63/65/60
f 61/63/58 63/65/60 64/66/61
f 65/67/62 66/68/63 67/69/64
f 65/67/62 67/69/64 68/70/65
f 58/60/55 69/71/66 70/72/67
f 58/60/55 70/72/67 59/61/56
f 71/73/68 59/61/56 70/72/67
f 63/65/60 51/53/48 50/52/47
f 63/65/60 50/52/47 64/66/61
f 72/74/69 64/66/61 50/52/47
f 67/69/64 66/68/63 73/75/70
f 67/69/64 73/75/70 74/76/71
f 57/59/54 55/57/52 54/56/51
f 57/59/54 54/56/51 75/77/72
f 60/62/57 55/57/52 57/59/54
f 76/78/73 77/79/74 61/63/58
f 76/78/73 61/63/58 78/80/75
f 61/63/58 77/79/74 62/64/59
f 79/81/76 65/67/62 68/70/65
f 79/81/76 68/70/65 80/82/77
f 15/83/14 74/76/71 81/84/78
f 15/83/14 81/84/78 18/85/17
f 153/86/4 71/73/68 82/87/79
f 153/86/4 82/87/79 23/88/80
f 27/89/26 72/74/69 83/90/81
f 27/89/26 83/90/81 30/91/29
f 33/92/32 75/77/72 84/93/82
f 33/92/32 84/93/82 36/94/35
f 2/95/2 1/96/1 63/65/60
f 2/95/2 63/65/60 62/64/59
f 21/97/19 17/98/16 60/62/57
f 21/97/19 60/62/57 59/61/56
f 16/99/15 11/100/10 68/70/65
f 16/99/15 68/70/65 67/69/64
f 26/101/25 25/102/24 61/63/58
f 26/101/25 61/63/58 64/66/61
f 34/103/33 29/104/28 58/60/55
f 34/103/33 58/60/55 57/59/54
f 40/105/38 35/106/34 66/68/63
f 40/105/38 66/68/63 65/67/62
f 1/96/1 24/107/23 51/53/48
f 1/96/1 51/53/48 63/65/60
f 153/86/4 21/97/19 59/61/56
f 153/86/4 59/61/56 71/73/68
f 15/83/14 16/99/15 67/69/64
f 15/83/14 67/69/64 74/76/71
f 27/89/26 26/101/25 64/66/61
f 27/89/26 64/66/61 72/74/69
f 33/92/32 34/103/33 57/59/54
f 33/92/32 57/59/54 75/77/72
f 39/108/37 40/105/38 65/67/62
f 39/108/37 65/67/62 85/109/83
f 3/110/3 2/95/2 62/64/59
f 3/110/3 62/64/59 77/79/74
f 17/98/16 20/111/18 55/57/52
f 17/98/16 55/57/52 60/62/57
f 11/100/10 14/112/13 80/82/77
f 11/100/10 80/82/77 68/70/65
f 25/102/24 48/113/45 78/80/75
f 25/102/24 78/80/75 61/63/58
f 29/104/28 32/114/31 69/71/66
f 29/104/28 69/71/66 58/60/55
f 35/106/34 38/115/36 86/116/84
f 35/106/34 86/116/84 66/68/63
f 87/117/85 79/118/76 80/119/77
f 87/117/85 80/119/77 88/120/86
f 89/121/87 90/122/88 91/123/89
f 89/121/87 91/123/89 92/124/90
f 93/125/91 94/126/92 95/127/93
f 93/125/91 95/127/93 96/128/94
f 94/126/92 97/129/95 98/130/96
f 94/126/92 98/130/96 95/127/93
f 99/131/97 95/127/93 98/130/96
f 93/125/91 91/123/89 90/122/88
f 93/125/91 90/122/88 100/132/98
f 96/128/94 91/123/89 93/125/91
f 3/133/3 77/134/74 101/135/99
f 3/133/3 101/135/99 6/136/6
f 9/137/8 99/131/97 102/138/100
f 9/137/8 102/138/100 12/139/11
f 39/140/37 85/141/83 103/142/101
f 39/140/37 103/142/101 42/143/40
f 28/144/27 100/132/98 104/145/102
f 28/144/27 104/145/102 46/146/44
f 10/147/9 5/148/5 96/128/94
f 10/147/9 96/128/94 95/127/93
f 45/149/43 41/150/39 94/126/92
f 45/149/43 94/126/92 93/125/91
f 9/137/8 10/147/9 95/127/93
f 9/137/8 95/127/93 99/131/97
f 28/144/27 45/149/43 93/125/91
f 28/144/27 93/125/91 100/132/98
f 5/148/5 8/151/7 91/123/89
f 5/148/5 91/123/89 96/128/94
f 41/150/39 44/152/42 97/129/95
f 41/150/39 97/129/95 94/126/92
f 70/72/67 69/71/66 105/153/103
f 106/154/82 107/155/104 73/75/70
f 106/154/82 73/75/70 86/116/84
f 98/130/96 97/129/95 108/156/105
f 76/157/73 78/158/75 109/159/106
f 110/160/79 111/161/107 52/54/49
f 110/160/79 51/53/48 24/107/23
f 110/160/79 24/107/23 154/162/20
f 112/163/81 31/164/30 30/91/29
f 112/163/81 30/91/29 83/90/81
f 83/90/81 72/74/69 113/165/108
f 113/165/108 50/52/47 156/51/46
f 110/160/79 154/162/20 23/88/80
f 110/160/79 23/88/80 82/87/79
f 112/163/81 114/166/109 105/153/103
f 114/166/109 115/167/110 116/168/111
f 114/166/109 116/168/111 105/153/103
f 82/87/79 71/73/68 117/169/112
f 112/163/81 69/71/66 32/114/31
f 112/163/81 32/114/31 31/164/30
f 81/84/78 74/76/71 118/170/113
f 119/171/78 19/172/17 18/85/17
f 119/171/78 18/85/17 81/84/78
f 106/154/82 86/116/84 38/115/36
f 106/154/82 38/115/36 37/173/35
f 106/154/82 120/174/114 107/155/104
f 120/174/114 121/175/115 122/176/116
f 120/174/114 122/176/116 107/155/104
f 119/171/78 123/177/117 56/58/53
f 106/154/82 37/173/35 36/94/35
f 106/154/82 36/94/35 84/93/82
f 119/171/78 55/57/52 20/111/18
f 119/171/78 20/111/18 19/172/17
f 84/93/82 75/77/72 124/178/118
f 124/178/118 54/56/51 53/55/50
f 102/138/100 99/131/97 125/179/119
f 126/180/100 13/181/12 12/139/11
f 126/180/100 12/139/11 102/138/100
f 127/182/120 97/129/95 44/152/42
f 127/182/120 44/152/42 43/183/41
f 127/182/120 128/184/121 108/156/105
f 128/184/121 129/185/122 130/186/123
f 128/184/121 130/186/123 108/156/105
f 126/180/100 131/187/124 88/120/86
f 127/182/120 43/183/41 42/143/40
f 127/182/120 42/143/40 103/142/101
f 126/180/100 80/119/77 14/188/13
f 126/180/100 14/188/13 13/181/12
f 79/118/76 132/189/125 103/142/101
f 79/118/76 103/142/101 85/141/83
f 132/189/125 79/118/76 87/117/85
f 101/135/99 77/134/74 133/190/126
f 134/191/99 7/192/6 6/136/6
f 134/191/99 6/136/6 101/135/99
f 135/193/102 78/158/75 48/194/45
f 135/193/102 48/194/45 47/195/44
f 135/193/102 136/196/127 109/159/106
f 136/196/127 137/197/128 138/198/129
f 136/196/127 138/198/129 109/159/106
f 134/191/99 139/199/130 92/124/90
f 135/193/102 47/195/44 46/146/44
f 135/193/102 46/146/44 104/145/102
f 134/191/99 91/123/89 8/151/7
f 134/191/99 8/151/7 7/192/6
f 104/145/102 100/132/98 140/200/131
f 140/200/131 90/122/88 89/121/87
f 111/161/107 141/201/132 49/202/133
f 111/161/107 156/51/46 52/54/49
f 123/177/117 142/203/134 53/55/50
f 123/177/117 53/55/50 56/58/53
f 131/187/124 143/204/135 87/117/85
f 131/187/124 87/117/85 88/120/86
f 139/199/130 144/205/136 89/121/87
f 139/199/130 89/121/87 92/124/90
f 144/205/136 137/197/128 136/196/127
f 144/205/136 136/196/127 145/206/137
f 138/198/129 137/197/128 146/207/138
f 138/198/129 146/207/138 133/190/126
f 137/197/128 144/205/136 139/199/130
f 137/197/128 139/199/130 146/207/138
f 89/121/87 144/205/136 145/206/137
f 89/121/87 145/206/137 140/200/131
f 143/204/135 129/185/122 128/184/121
f 143/204/135 128/184/121 147/208/139
f 130/186/123 129/185/122 148/209/140
f 130/186/123 148/209/140 125/179/119
f 129/185/122 143/204/135 131/187/124
f 129/185/122 131/187/124 148/209/140
f 87/117/85 143/204/135 147/208/139
f 87/117/85 147/208/139 132/189/125
f 142/203/134 121/175/115 120/174/114
f 142/203/134 120/174/114 149/210/141
f 122/176/116 121/175/115 150/211/142
f 122/176/116 150/211/142 118/170/113
f 121/175/115 142/203/134 123/177/117
f 121/175/115 123/177/117 150/211/142
f 53/55/50 142/203/134 149/210/141
f 53/55/50 149/210/141 124/178/118
f 141/201/132 115/167/110 114/166/109
f 141/201/132 114/166/109 151/212/143
f 116/168/111 115/167/110 152/213/144
f 116/168/111 152/213/144 117/169/112
f 115/167/110 141/201/132 111/161/107
f 115/167/110 111/161/107 152/213/144
f 49/202/133 141/201/132 151/212/143
f 156/51/46 151/212/143 113/165/108
f 70/72/67 105/153/103 116/168/111
f 84/93/82 124/178/118 149/210/141
f 150/211/142 123/177/117 119/171/78
f 150/211/142 119/171/78 81/84/78
f 151/212/143 114/166/109 112/163/81
f 151/212/143 112/163/81 83/90/81
f 82/87/79 117/169/112 152/213/144
f 149/210/141 120/174/114 106/154/82
f 149/210/141 106/154/82 84/93/82
f 81/84/78 118/170/113 150/211/142
f 73/75/70 107/155/104 122/176/116
f 148/209/140 131/187/124 126/180/100
f 148/209/140 126/180/100 102/138/100
f 103/142/101 132/189/125 147/208/139
f 147/208/139 128/184/121 127/182/120
f 147/208/139 127/182/120 103/142/101
f 98/130/96 108/156/105 130/186/123
f 146/207/138 139/199/130 134/191/99
f 146/207/138 134/191/99 101/135/99
f 104/145/102 140/200/131 145/206/137
f 102/138/100 125/179/119 148/209/140
f 76/157/73 109/159/106 138/198/129
f 83/90/81 113/165/108 151/212/143
f 152/213/144 111/161/107 110/160/79
f 152/213/144 110/160/79 82/87/79
f 101/135/99 133/190/126 146/207/138
f 145/206/137 136/196/127 135/193/102
f 145/206/137 135/193/102 104/145/102
f 55/57/52 119/171/78 56/58/53
f 75/77/72 54/56/51 124/178/118
f 69/71/66 112/163/81 105/153/103
f 116/168/111 117/169/112 71/73/68
f 116/168/111 71/73/68 70/72/67
f 66/68/63 86/116/84 73/75/70
f 79/81/76 85/109/83 65/67/62
f 80/119/77 126/180/100 88/120/86
f 122/176/116 118/170/113 74/76/71
f 122/176/116 74/76/71 73/75/70
f 100/132/98 90/122/88 140/200/131
f 130/186/123 125/179/119 99/131/97
f 130/186/123 99/131/97 98/130/96
f 91/123/89 134/191/99 92/124/90
f 97/129/95 127/182/120 108/156/105
f 78/158/75 135/193/102 109/159/106
f 72/74/69 50/52/47 113/165/108
f 51/53/48 110/160/79 52/54/49
f 138/198/129 133/190/126 77/134/74
f 138/198/129 77/134/74 76/157/73
