o sponza_193
v 67.4107 66.5982 22.7027
v 67.4107 66.6759 22.8961
v 67.4107 66.6759 22.3976
v 67.4107 66.5982 22.5704
v 67.4107 67.2375 22.16
v 67.4107 67.0594 22.056
v 67.4107 67.0594 23.0523
v 67.4107 67.2375 23.0096
v 67.4107 67.4156 22.3542
v 67.4107 67.4156 22.8566
v 67.4107 66.8285 22.3005
v 67.4107 66.8583 23.0239
v 67.4107 66.2721 21.6379
v 67.4107 66.1125 21.9242
v 68.0983 67.0594 23.0523
v 68.0983 67.2375 23.0096
v 68.0983 67.4156 22.8566
v 68.0983 66.8285 22.3005
v 68.0983 66.6759 22.3976
v 68.0983 66.6759 22.8961
v 68.0983 66.8583 23.0239
v 68.0983 66.1125 21.9242
v 68.0983 66.2721 21.6379
v 68.0983 66.5982 22.7027
v 68.0983 66.5982 22.5704
v 68.0983 67.0594 22.056
v 68.0983 67.2375 22.16
v 68.0983 67.4156 22.3542
v 67.4107 66.5982 22.7027
v 67.4107 66.6759 22.8961
v 67.4107 66.5982 22.5704
v 67.4107 66.6759 22.3976
v 67.4107 67.0594 23.0523
v 67.4107 67.2375 23.0096
v 67.4107 67.4156 22.8566
v 67.4107 66.8583 23.0239
v 67.4107 66.8285 22.3005
v 67.4107 66.8285 22.3005
v 67.4107 66.2721 21.6379
v 67.4107 66.1125 21.9242
v 67.4107 66.1125 21.9242
v 68.0983 67.0594 23.0523
v 68.0983 67.2375 23.0096
v 68.0983 67.4156 22.8566
v 68.0983 66.8285 22.3005
v 68.0983 66.8285 22.3005
v 68.0983 66.6759 22.3976
v 68.0983 66.6759 22.8961
v 68.0983 66.8583 23.0239
v 68.0983 66.1125 21.9242
v 68.0983 66.1125 21.9242
v 68.0983 66.2721 21.6379
v 68.0983 66.5982 22.7027
v 68.0983 66.5982 22.5704
vt 0.1992 0.5029
vt 0.2019 0.5199
vt 0.1809 0.4846
vt 0.1937 0.4935
vt 0.1311 0.4913
vt 0.1394 0.4765
vt 0.1813 0.5471
vt 0.1669 0.5515
vt 0.1267 0.5126
vt 0.1478 0.5482
vt 0.166 0.4841
vt 0.1943 0.5366
vt 0.1776 0.4138
vt 0.2009 0.4273
vt 0.0645 0.2791
vt 0.0646 0.2653
vt 0.1179 0.2654
vt 0.1179 0.2792
vt 0.0646 0.2515
vt 0.118 0.2515
vt 0.1178 0.3595
vt 0.0645 0.3594
vt 0.0645 0.3476
vt 0.1178 0.3476
vt 0.0645 0.3089
vt 0.0645 0.2947
vt 0.1179 0.2948
vt 0.1179 0.3089
vt 0.0644 0.415
vt 0.0645 0.3594
vt 0.1178 0.3595
vt 0.1178 0.415
vt 0.0644 0.4372
vt 0.0644 0.415
vt 0.1178 0.415
vt 0.1177 0.4373
vt 0.1564 0.5656
vt 0.1671 0.564
vt 0.1821 0.5684
vt 0.1415 0.5741
vt 0.1331 0.6072
vt 0.2144 0.5958
vt 0.2079 0.6115
vt 0.1386 0.6212
vt 0.1941 0.6282
vt 0.1531 0.634
vt 0.1918 0.5797
vt 0.1331 0.5904
vt 0.2143 0.517
vt 0.2395 0.5268
vt 0.0645 0.3239
vt 0.1179 0.324
vt 0.1179 0.3342
vt 0.0645 0.3342
vn -1 0.0002 0
vn -1 0 0
vn 0 0.0474 0.9989
vn 0 0.4552 0.8904
vn 0 0.6518 0.7584
vn 0 0.6519 0.7583
vn 0 -0.5368 -0.8437
vn 0 -0.7561 -0.6545
vn 0 -0.7832 0.6217
vn 0 -0.367 0.9302
vn 0 -0.4652 0.8852
vn 0 -0.8733 -0.4871
vn 0 -0.8734 -0.4871
vn 1 -0 0
vn 1 -0.0002 0
vn 1 -0.0001 0
vn 0 -0.9818 0.1899
vn 0 -0.9777 -0.2099
f 29/1/1 30/2/2 32/3/2
f 29/1/1 32/3/2 31/4/2
f 5/5/2 6/6/2 33/7/2
f 5/5/2 33/7/2 34/8/2
f 9/9/2 5/5/2 34/8/2
f 9/9/2 34/8/2 35/10/2
f 33/7/2 6/6/2 37/11/2
f 33/7/2 37/11/2 36/12/2
f 30/2/2 36/12/2 37/11/2
f 30/2/2 37/11/2 32/3/2
f 37/11/2 6/6/2 39/13/2
f 37/11/2 39/13/2 40/14/2
f 42/15/3 43/16/4 8/17/4
f 42/15/3 8/17/4 7/18/3
f 8/17/4 43/16/4 44/19/5
f 8/17/4 44/19/5 10/20/6
f 38/21/7 45/22/7 47/23/8
f 38/21/7 47/23/8 3/24/8
f 48/25/9 49/26/10 12/27/10
f 48/25/9 12/27/10 2/28/9
f 50/29/11 46/30/11 11/31/11
f 50/29/11 11/31/11 41/32/11
f 52/33/12 51/34/12 14/35/13
f 52/33/12 14/35/13 13/36/13
f 53/37/14 54/38/15 19/39/16
f 53/37/14 19/39/16 20/40/14
f 15/41/14 26/42/14 27/43/14
f 15/41/14 27/43/14 16/44/14
f 16/44/14 27/43/14 28/45/14
f 16/44/14 28/45/14 17/46/16
f 18/47/14 26/42/14 15/41/14
f 18/47/14 15/41/14 21/48/14
f 20/40/14 19/39/16 18/47/14
f 20/40/14 18/47/14 21/48/14
f 18/47/14 22/49/14 23/50/14
f 18/47/14 23/50/14 26/42/14
f 24/51/17 1/52/17 4/53/18
f 24/51/17 4/53/18 25/54/18
f 1/52/17 24/51/17 48/25/9
f 1/52/17 48/25/9 2/28/9
f 12/27/10 49/26/10 42/15/3
f 12/27/10 42/15/3 7/18/3
f 3/24/8 47/23/8 25/54/18
f 3/24/8 25/54/18 4/53/18
