o sponza_254
v 86.2052 67.3907 -3.19179
v 86.3198 67.3907 -3.19179
v 86.4695 67.458 -3.19179
v 86.0377 67.458 -3.19179
v 85.9025 67.7901 -3.19179
v 86.7652 67.7901 -3.19179
v 86.6752 67.9443 -3.19179
v 85.9394 67.9443 -3.19179
v 86.507 68.0985 -3.19179
v 86.072 68.0985 -3.19179
v 86.5535 67.5901 -3.19179
v 85.9271 67.6159 -3.19179
v 86.8794 66.9701 -3.19179
v 87.1273 67.1083 -3.19179
v 85.9394 67.9443 -3.78726
v 85.9025 67.7901 -3.78726
v 86.072 68.0985 -3.78726
v 86.4695 67.458 -3.78726
v 86.5535 67.5901 -3.78726
v 85.9271 67.6159 -3.78726
v 86.0377 67.458 -3.78726
v 86.8794 66.9701 -3.78726
v 87.1273 67.1083 -3.78726
v 86.2052 67.3907 -3.78726
v 86.3198 67.3907 -3.78726
v 86.6752 67.9443 -3.78726
v 86.7652 67.7901 -3.78726
v 86.507 68.0985 -3.78726
v 86.2052 67.3907 -3.19179
v 86.3198 67.3907 -3.19179
v 86.4695 67.458 -3.19179
v 86.0377 67.458 -3.19179
v 85.9025 67.7901 -3.19179
v 85.9394 67.9443 -3.19179
v 86.072 68.0985 -3.19179
v 85.9271 67.6159 -3.19179
v 86.5535 67.5901 -3.19179
v 86.5535 67.5901 -3.19179
v 86.8794 66.9701 -3.19179
v 86.8794 66.9701 -3.19179
v 87.1273 67.1083 -3.19179
v 85.9394 67.9443 -3.78726
v 85.9025 67.7901 -3.78726
v 86.072 68.0985 -3.78726
v 86.4695 67.458 -3.78726
v 86.5535 67.5901 -3.78726
v 86.5535 67.5901 -3.78726
v 85.9271 67.6159 -3.78726
v 86.0377 67.458 -3.78726
v 86.8794 66.9701 -3.78726
v 86.8794 66.9701 -3.78726
v 87.1273 67.1083 -3.78726
v 86.2052 67.3907 -3.78726
v 86.3198 67.3907 -3.78726
vt 0.2029 0.2838
vt 0.1992 0.2736
vt 0.1884 0.2623
vt 0.2022 0.301
vt 0.1768 0.3237
vt 0.1492 0.2465
vt 0.1382 0.2595
vt 0.1618 0.3254
vt 0.1298 0.2795
vt 0.1437 0.3184
vt 0.1739 0.259
vt 0.1916 0.316
vt 0.219 0.21
vt 0.1986 0.1922
vt 0.0673 0.6159
vt 0.1206 0.615
vt 0.1204 0.6012
vt 0.067 0.602
vt 0.1208 0.6289
vt 0.0675 0.6297
vt 0.1194 0.5328
vt 0.1192 0.5209
vt 0.0658 0.5218
vt 0.066 0.5336
vt 0.0668 0.5864
vt 0.1202 0.5856
vt 0.12 0.5715
vt 0.0666 0.5723
vt 0.0658 0.5218
vt 0.1192 0.5209
vt 0.1183 0.4654
vt 0.0649 0.4662
vt 0.0649 0.4662
vt 0.1183 0.4654
vt 0.118 0.4431
vt 0.0646 0.444
vt 0.1533 0.3311
vt 0.1385 0.3399
vt 0.1791 0.3335
vt 0.164 0.3294
vt 0.2056 0.3762
vt 0.2118 0.3603
vt 0.1307 0.3731
vt 0.1365 0.387
vt 0.1921 0.3931
vt 0.1512 0.3996
vt 0.1889 0.3447
vt 0.1305 0.3564
vt 0.2357 0.2909
vt 0.2104 0.2816
vt 0.0662 0.547
vt 0.0664 0.5573
vt 0.1197 0.5564
vt 0.1196 0.5462
vn 0 0 1
vn -0.8904 0.4552 0
vn -0.9989 0.0473 0
vn -0.9989 0.0474 0
vn -0.7583 0.6519 0
vn -0.7584 0.6518 0
vn 0.6544 -0.7561 0
vn 0.8437 -0.5369 0
vn 0.8437 -0.5368 0
vn 0.6545 -0.7561 0
vn -0.9302 -0.367 0
vn -0.6217 -0.7832 0
vn -0.6218 -0.7832 0
vn -0.8852 -0.4652 0
vn -0.8852 -0.4653 0
vn 0.4871 -0.8733 0
vn 0 0 -1
vn 0.2098 -0.9777 0
vn -0.1899 -0.9818 0
f 29/1/1 30/2/1 31/3/1
f 29/1/1 31/3/1 32/4/1
f 33/5/1 6/6/1 7/7/1
f 33/5/1 7/7/1 34/8/1
f 34/8/1 7/7/1 9/9/1
f 34/8/1 9/9/1 35/10/1
f 37/11/1 6/6/1 33/5/1
f 37/11/1 33/5/1 36/12/1
f 32/4/1 31/3/1 37/11/1
f 32/4/1 37/11/1 36/12/1
f 37/11/1 39/13/1 41/14/1
f 37/11/1 41/14/1 6/6/1
f 8/15/2 42/16/2 43/17/3
f 8/15/2 43/17/3 5/18/4
f 44/19/5 42/16/2 8/15/2
f 44/19/5 8/15/2 10/20/6
f 45/21/7 46/22/8 38/23/9
f 45/21/7 38/23/9 3/24/10
f 12/25/11 48/26/11 49/27/12
f 12/25/11 49/27/12 4/28/13
f 11/29/14 47/30/14 50/31/14
f 11/29/14 50/31/14 40/32/15
f 13/33/16 51/34/16 52/35/16
f 13/33/16 52/35/16 14/36/16
f 53/37/17 21/38/17 18/39/17
f 53/37/17 18/39/17 54/40/17
f 26/41/17 27/42/17 16/43/17
f 26/41/17 16/43/17 15/44/17
f 28/45/17 26/41/17 15/44/17
f 28/45/17 15/44/17 17/46/17
f 16/43/17 27/42/17 19/47/17
f 16/43/17 19/47/17 20/48/17
f 21/38/17 20/48/17 19/47/17
f 21/38/17 19/47/17 18/39/17
f 19/47/17 27/42/17 23/49/17
f 19/47/17 23/49/17 22/50/17
f 2/51/18 1/52/19 24/53/19
f 2/51/18 24/53/19 25/54/18
f 1/52/19 4/28/13 49/27/12
f 1/52/19 49/27/12 24/53/19
f 43/17/3 48/26/11 12/25/11
f 43/17/3 12/25/11 5/18/4
f 25/54/18 45/21/7 3/24/10
f 25/54/18 3/24/10 2/51/18
