o sponza_34
v 86.8647 69.3952 18.5968
v 86.2329 69.3767 18.5968
v 86.8647 92.1729 18.5968
v 84.3425 76.3708 18.5968
v 80.6408 79.6745 18.5968
v 76.4219 81.8829 18.5968
v 76.4219 92.1729 18.5968
v 68.5014 76.3708 18.5968
v 67.7271 92.1729 18.5968
v 72.2031 79.6745 18.5968
v 67.7271 73.5062 18.5968
v 51.1117 76.4793 18.5968
v 49.3674 92.1729 18.5968
v 54.8134 80.0442 18.5968
v 49.1686 71.7519 18.5968
v 59.0322 92.1729 18.5968
v 59.0322 81.8829 18.5968
v 66.9528 76.3708 18.5968
v 63.2511 79.6745 18.5968
v 47.9934 74.4661 18.5968
v 45.2757 78.4949 18.5968
v 41.5674 81.0103 18.5968
v 39.2267 82.071 18.5968
v 39.2267 92.1729 18.5968
v 37.3386 81.4666 18.5968
v 30.6219 92.1729 18.5968
v 33.2943 78.6531 18.5968
v 30.6219 75.2452 18.5968
v 28.1446 77.6566 18.5968
v 25.043 80.284 18.5968
v 21.9414 81.5793 18.5968
v 21.9414 92.1729 18.5968
v 18.3683 79.9522 18.5968
v 12.1118 92.1729 18.5968
v 14.7952 76.6313 18.5968
v 12.1118 71.1557 18.5968
v 9.12819 77.6273 18.5968
v 5.23929 80.3386 18.5968
v 2.25573 81.8286 18.5968
v 2.25573 92.1729 18.5968
v -0.36602 80.5037 18.5968
v -6.68607 92.1729 18.5968
v -3.68143 78.122 18.5968
v -6.68582 75.1743 18.5968
v 86.8647 69.402 17.1319
v 86.8647 92.1729 -3.60748
v 86.8647 78.5997 0.275409
v 86.8647 81.3922 6.1088
v 86.8647 92.1729 6.10881
v 86.8647 78.5997 11.9422
v 86.8647 74.8168 -2.64128
v 86.8647 74.8168 14.8589
v 86.8647 73.3584 -3.60749
v 86.8647 69.3952 -25.9326
v 86.8647 92.1729 -25.9325
v 86.2329 69.3767 -25.9326
v 84.3425 76.3708 -25.9325
v 80.6408 79.6745 -25.9325
v 76.4219 92.1729 -25.9325
v 76.4219 81.8829 -25.9325
v 68.5014 76.3708 -25.9325
v 72.2031 79.6745 -25.9325
v 67.7271 92.1729 -25.9325
v 67.7271 73.5062 -25.9326
v 51.1117 76.4793 -25.9325
v 54.8134 80.0442 -25.9325
v 49.3674 92.1729 -25.9325
v 49.1686 71.7519 -25.9326
v 59.0322 81.8829 -25.9325
v 59.0322 92.1729 -25.9325
v 66.9528 76.3708 -25.9325
v 63.2511 79.6745 -25.9325
v 47.9934 74.4661 -25.9326
v 45.2757 78.4949 -25.9325
v 41.5674 81.0103 -25.9325
v 39.2267 92.1729 -25.9325
v 39.2267 82.071 -25.9325
v 30.6219 92.1729 -25.9325
v 37.3386 81.4667 -25.9325
v 33.2943 78.6532 -25.9325
v 30.6219 75.2453 -25.9326
v 28.1446 77.6566 -25.9325
v 25.043 80.284 -25.9325
v 21.9414 92.1729 -25.9325
v 21.9414 81.5794 -25.9325
v 12.1118 92.1729 -25.9325
v 18.3683 79.9523 -25.9325
v 14.7952 76.6313 -25.9325
v 12.1118 71.1557 -25.9326
v 9.12819 77.6274 -25.9325
v 5.23929 80.3386 -25.9325
v 2.25573 92.1729 -25.9325
v 2.25573 81.8287 -25.9325
v -6.68582 92.1729 -25.9325
v -0.36602 80.5037 -25.9325
v -3.68143 78.1221 -25.9325
v -6.30859 75.1743 -25.9325
v 86.8647 69.402 -24.0783
v 86.8647 81.3922 -13.3238
v 86.8647 78.5997 -7.49038
v 86.8647 92.1729 -13.3238
v 86.8647 78.5997 -19.1572
v 86.8647 74.8168 -4.5737
v 86.8647 74.8168 -22.0739
v -100.236 69.3952 18.5968
v -100.236 92.1729 18.5968
v -99.6046 69.3767 18.5968
v -97.1484 76.3708 18.5968
v -94.0124 79.6745 18.5968
v -89.7936 92.1729 18.5968
v -89.7936 81.8829 18.5968
v -81.873 76.3708 18.5968
v -85.5747 79.6745 18.5968
v -81.0987 92.1729 18.5968
v -81.0987 73.5062 18.5968
v -64.4834 76.4793 18.5968
v -68.185 80.0442 18.5968
v -62.7391 92.1729 18.5968
v -61.8237 71.7519 18.5968
v -72.4039 81.8829 18.5968
v -72.4039 92.1729 18.5968
v -79.7017 76.3708 18.5968
v -76.6227 79.6745 18.5968
v -61.0197 74.4661 18.5968
v -58.4158 78.4949 18.5968
v -54.9391 81.0103 18.5968
v -52.5984 92.1729 18.5968
v -52.5984 82.071 18.5968
v -43.9936 92.1729 18.5968
v -50.7102 81.4666 18.5968
v -46.6659 78.6531 18.5968
v -43.292 75.2452 18.5968
v -41.5163 77.6566 18.5968
v -38.4146 80.284 18.5968
v -35.313 92.1729 18.5968
v -35.313 81.5793 18.5968
v -25.4834 92.1729 18.5968
v -31.7399 79.9522 18.5968
v -28.1669 76.6313 18.5968
v -24.9226 71.1557 18.5968
v -22.0173 77.6273 18.5968
v -18.6109 80.3386 18.5968
v -15.6274 92.1729 18.5968
v -15.6274 81.8286 18.5968
v -13.0056 80.5037 18.5968
v -9.69022 78.122 18.5968
v -100.236 69.402 17.1319
v -100.236 81.3922 6.1088
v -100.236 78.5997 0.275409
v -100.236 92.1729 -3.60748
v -100.236 92.1729 6.10881
v -100.236 78.5997 11.9422
v -100.236 74.8168 -2.64128
v -100.236 74.8168 14.8589
v -100.236 73.3584 -3.60749
v -100.236 69.3952 -25.9326
v -99.6046 69.3767 -25.9326
v -100.236 92.1729 -25.9325
v -97.2494 76.3708 -25.9325
v -94.0124 79.6745 -25.9325
v -89.7936 81.8829 -25.9325
v -89.7936 92.1729 -25.9325
v -81.873 76.3708 -25.9325
v -81.0987 92.1729 -25.9325
v -85.5747 79.6745 -25.9325
v -81.0987 73.5062 -25.9326
v -64.4834 76.4793 -25.9325
v -62.7391 92.1729 -25.9325
v -68.185 80.0442 -25.9325
v -61.9114 71.7519 -25.9326
v -72.4039 92.1729 -25.9325
v -72.4039 81.8829 -25.9325
v -79.5854 76.3708 -25.9325
v -76.6227 79.6745 -25.9325
v -61.0581 74.4661 -25.9326
v -58.4382 78.4949 -25.9325
v -54.9391 81.0103 -25.9325
v -52.5984 82.071 -25.9325
v -52.5984 92.1729 -25.9325
v -50.7102 81.4667 -25.9325
v -43.9936 92.1729 -25.9325
v -46.6659 78.6532 -25.9325
v -43.2755 75.2453 -25.9326
v -41.5163 77.6566 -25.9325
v -38.4146 80.284 -25.9325
v -35.313 81.5794 -25.9325
v -35.313 92.1729 -25.9325
v -31.7399 79.9523 -25.9325
v -25.4834 92.1729 -25.9325
v -28.1669 76.6313 -25.9325
v -25.0599 71.1557 -25.9326
v -22.0383 77.6274 -25.9325
v -18.6109 80.3386 -25.9325
v -15.6274 81.8287 -25.9325
v -15.6274 92.1729 -25.9325
v -13.0056 80.5037 -25.9325
v -9.69022 78.1221 -25.9325
v -100.236 69.402 -24.0783
v -100.236 78.5997 -7.49038
v -100.236 81.3922 -13.3238
v -100.236 92.1729 -13.3238
v -100.236 78.5997 -19.1572
v -100.236 74.8168 -4.5737
v -100.236 74.8168 -22.0739
v 86.8647 69.3952 18.5968
v 86.8647 92.1729 18.5968
v 86.8647 69.3952 -25.9326
v 86.8647 92.1729 -25.9325
v -100.236 69.3952 18.5968
v -100.236 92.1729 18.5968
v -100.236 69.3952 -25.9326
v -100.236 92.1729 -25.9325
vt -0.0883 -0.4452
vt -0.057 -0.4461
vt -0.0883 0.6814
vt 0.0365 -0.1002
vt 0.2196 0.0632
vt 0.4282 0.1725
vt 0.4282 0.6814
vt 0.82 -0.1002
vt 0.8583 0.6814
vt 0.6369 0.0632
vt 0.8583 -0.2419
vt 1.6801 -0.0948
vt 1.7664 0.6814
vt 1.497 0.0815
vt 1.7762 -0.3286
vt 1.2883 0.6814
vt 1.2883 0.1725
vt 0.8966 -0.1002
vt 1.0797 0.0632
vt 1.8343 -0.1944
vt 1.9688 0.0049
vt 2.1522 0.1293
vt 2.268 0.1818
vt 2.268 0.6814
vt 2.3613 0.1519
vt 2.6936 0.6814
vt 2.5614 0.0127
vt 2.6936 -0.1558
vt 2.8161 -0.0366
vt 2.9695 0.0934
vt 3.1229 0.1575
vt 3.1229 0.6814
vt 3.2996 0.077
vt 3.6091 0.6814
vt 3.4764 -0.0873
vt 3.6091 -0.3581
vt 3.7567 -0.038
vt 3.949 0.0961
vt 4.0966 0.1698
vt 4.0966 0.6814
vt 4.2263 0.1042
vt 4.5293 0.6814
vt 4.3903 -0.0136
vt 4.5293 -0.1556
vt 22.7233 -0.4452
vt 22.7233 0.6814
vt 22.6734 -0.4449
vt 21.6476 0.6814
vt 21.8396 0.0101
vt 22.1282 0.1482
vt 22.1282 0.6814
vt 22.4167 0.0101
vt 21.6954 -0.177
vt 22.5609 -0.177
vt 21.6476 -0.2492
vt 20.5718 -0.4452
vt 20.5718 0.6814
vt 20.5406 -0.4461
vt 20.4471 -0.1002
vt 20.264 0.0632
vt 20.0553 0.6814
vt 20.0553 0.1725
vt 19.6635 -0.1002
vt 19.8466 0.0632
vt 19.6252 0.6814
vt 19.6252 -0.2419
vt 18.8034 -0.0948
vt 18.9865 0.0815
vt 18.7172 0.6814
vt 18.7073 -0.3286
vt 19.1952 0.1725
vt 19.1952 0.6814
vt 19.587 -0.1002
vt 19.4039 0.0632
vt 18.6492 -0.1944
vt 18.5148 0.0049
vt 18.3314 0.1293
vt 18.2156 0.6814
vt 18.2156 0.1818
vt 17.79 0.6814
vt 18.1222 0.1519
vt 17.9221 0.0127
vt 17.79 -0.1558
vt 17.6674 -0.0366
vt 17.514 0.0934
vt 17.3606 0.6814
vt 17.3606 0.1575
vt 16.8744 0.6814
vt 17.1839 0.077
vt 17.0072 -0.0873
vt 16.8744 -0.3581
vt 16.7269 -0.038
vt 16.5345 0.0961
vt 16.3869 0.6814
vt 16.3869 0.1698
vt 15.9542 0.6814
vt 16.2573 0.1042
vt 16.0933 -0.0136
vt 15.9722 -0.1554
vt 20.5718 -0.4452
vt 20.6351 -0.4449
vt 20.5718 0.6814
vt 21.167 0.1482
vt 21.4555 0.0101
vt 21.167 0.6814
vt 20.8785 0.0101
vt 21.5998 -0.177
vt 20.7342 -0.177
vt -0.0883 -0.4452
vt -0.0883 0.6814
vt -0.057 -0.4461
vt 0.0644 -0.1002
vt 0.2196 0.0632
vt 0.4282 0.6814
vt 0.4282 0.1725
vt 0.82 -0.1002
vt 0.6369 0.0632
vt 0.8583 0.6814
vt 0.8583 -0.2419
vt 1.6801 -0.0948
vt 1.497 0.0815
vt 1.7664 0.6814
vt 1.8117 -0.3286
vt 1.2883 0.1725
vt 1.2883 0.6814
vt 0.9274 -0.1002
vt 1.0797 0.0632
vt 1.8514 -0.1944
vt 1.9802 0.0049
vt 2.1522 0.1293
vt 2.268 0.6814
vt 2.268 0.1818
vt 2.6936 0.6814
vt 2.3613 0.1519
vt 2.5614 0.0127
vt 2.7283 -0.1558
vt 2.8161 -0.0366
vt 2.9695 0.0934
vt 3.1229 0.6814
vt 3.1229 0.1575
vt 3.6091 0.6814
vt 3.2996 0.077
vt 3.4764 -0.0873
vt 3.6368 -0.3581
vt 3.7805 -0.038
vt 3.949 0.0961
vt 4.0966 0.6814
vt 4.0966 0.1698
vt 4.2263 0.1042
vt 4.3903 -0.0136
vt 22.7233 -0.4452
vt 22.6734 -0.4449
vt 22.7233 0.6814
vt 22.1282 0.1482
vt 21.8396 0.0101
vt 21.6476 0.6814
vt 22.1282 0.6814
vt 22.4167 0.0101
vt 21.6954 -0.177
vt 22.5609 -0.177
vt 21.6476 -0.2492
vt 20.5718 -0.4452
vt 20.5406 -0.4461
vt 20.5718 0.6814
vt 20.4241 -0.1002
vt 20.264 0.0632
vt 20.0553 0.1725
vt 20.0553 0.6814
vt 19.6635 -0.1002
vt 19.6252 0.6814
vt 19.8466 0.0632
vt 19.6252 -0.2419
vt 18.8034 -0.0948
vt 18.7172 0.6814
vt 18.9865 0.0815
vt 18.6762 -0.3286
vt 19.1952 0.6814
vt 19.1952 0.1725
vt 19.5504 -0.1002
vt 19.4039 0.0632
vt 18.634 -0.1944
vt 18.5044 0.0049
vt 18.3314 0.1293
vt 18.2156 0.1818
vt 18.2156 0.6814
vt 18.1222 0.1519
vt 17.79 0.6814
vt 17.9221 0.0127
vt 17.7545 -0.1558
vt 17.6674 -0.0366
vt 17.514 0.0934
vt 17.3606 0.1575
vt 17.3606 0.6814
vt 17.1839 0.077
vt 16.8744 0.6814
vt 17.0072 -0.0873
vt 16.8535 -0.3581
vt 16.704 -0.038
vt 16.5345 0.0961
vt 16.3869 0.1698
vt 16.3869 0.6814
vt 16.2573 0.1042
vt 16.0933 -0.0136
vt 15.9367 -0.1556
vt 20.5718 -0.4452
vt 20.5718 0.6814
vt 20.6351 -0.4449
vt 21.4555 0.0101
vt 21.167 0.1482
vt 21.167 0.6814
vt 20.8785 0.0101
vt 21.5998 -0.177
vt 20.7342 -0.177
vn 0 0 -1
vn -1 0 0
vn 0 -0 1
vn 1 -0 0
f 205/1/1 2/2/1 206/3/1
f 4/4/1 5/5/1 206/3/1
f 2/2/1 4/4/1 206/3/1
f 5/5/1 6/6/1 7/7/1
f 5/5/1 7/7/1 206/3/1
f 8/8/1 9/9/1 10/10/1
f 7/7/1 6/6/1 10/10/1
f 7/7/1 10/10/1 9/9/1
f 9/9/1 8/8/1 11/11/1
f 12/12/1 13/13/1 14/14/1
f 15/15/1 13/13/1 12/12/1
f 16/16/1 17/17/1 14/14/1
f 16/16/1 14/14/1 13/13/1
f 18/18/1 19/19/1 9/9/1
f 19/19/1 17/17/1 16/16/1
f 19/19/1 16/16/1 9/9/1
f 11/11/1 18/18/1 9/9/1
f 15/15/1 20/20/1 13/13/1
f 21/21/1 22/22/1 13/13/1
f 20/20/1 21/21/1 13/13/1
f 22/22/1 23/23/1 24/24/1
f 22/22/1 24/24/1 13/13/1
f 24/24/1 23/23/1 25/25/1
f 24/24/1 25/25/1 26/26/1
f 25/25/1 27/27/1 26/26/1
f 27/27/1 28/28/1 26/26/1
f 28/28/1 29/29/1 26/26/1
f 29/29/1 30/30/1 26/26/1
f 30/30/1 31/31/1 32/32/1
f 30/30/1 32/32/1 26/26/1
f 32/32/1 31/31/1 33/33/1
f 32/32/1 33/33/1 34/34/1
f 35/35/1 36/36/1 34/34/1
f 33/33/1 35/35/1 34/34/1
f 36/36/1 37/37/1 34/34/1
f 38/38/1 39/39/1 40/40/1
f 38/38/1 40/40/1 34/34/1
f 37/37/1 38/38/1 34/34/1
f 40/40/1 39/39/1 41/41/1
f 40/40/1 41/41/1 42/42/1
f 43/43/1 44/44/1 42/42/1
f 41/41/1 43/43/1 42/42/1
f 1/45/2 3/46/2 45/47/2
f 46/48/2 47/49/2 48/50/2
f 46/48/2 48/50/2 49/51/2
f 49/51/2 48/50/2 50/52/2
f 49/51/2 50/52/2 3/46/2
f 46/48/2 51/53/2 47/49/2
f 3/46/2 50/52/2 52/54/2
f 46/48/2 53/55/2 51/53/2
f 3/46/2 52/54/2 45/47/2
f 207/56/3 208/57/3 56/58/3
f 57/59/3 208/57/3 58/60/3
f 56/58/3 208/57/3 57/59/3
f 59/61/3 60/62/3 58/60/3
f 59/61/3 58/60/3 208/57/3
f 61/63/3 62/64/3 63/65/3
f 62/64/3 60/62/3 59/61/3
f 62/64/3 59/61/3 63/65/3
f 63/65/3 64/66/3 61/63/3
f 65/67/3 66/68/3 67/69/3
f 68/70/3 65/67/3 67/69/3
f 66/68/3 69/71/3 70/72/3
f 66/68/3 70/72/3 67/69/3
f 71/73/3 63/65/3 72/74/3
f 70/72/3 69/71/3 72/74/3
f 70/72/3 72/74/3 63/65/3
f 64/66/3 63/65/3 71/73/3
f 68/70/3 67/69/3 73/75/3
f 74/76/3 67/69/3 75/77/3
f 73/75/3 67/69/3 74/76/3
f 75/77/3 67/69/3 76/78/3
f 75/77/3 76/78/3 77/79/3
f 76/78/3 78/80/3 79/81/3
f 76/78/3 79/81/3 77/79/3
f 79/81/3 78/80/3 80/82/3
f 80/82/3 78/80/3 81/83/3
f 81/83/3 78/80/3 82/84/3
f 82/84/3 78/80/3 83/85/3
f 83/85/3 78/80/3 84/86/3
f 83/85/3 84/86/3 85/87/3
f 84/86/3 86/88/3 87/89/3
f 84/86/3 87/89/3 85/87/3
f 88/90/3 86/88/3 89/91/3
f 87/89/3 86/88/3 88/90/3
f 89/91/3 86/88/3 90/92/3
f 91/93/3 86/88/3 92/94/3
f 91/93/3 92/94/3 93/95/3
f 90/92/3 86/88/3 91/93/3
f 92/94/3 94/96/3 95/97/3
f 92/94/3 95/97/3 93/95/3
f 96/98/3 94/96/3 97/99/3
f 95/97/3 94/96/3 96/98/3
f 54/100/2 98/101/2 55/102/2
f 99/103/2 100/104/2 46/48/2
f 99/103/2 46/48/2 101/105/2
f 102/106/2 99/103/2 101/105/2
f 102/106/2 101/105/2 55/102/2
f 100/104/2 103/107/2 46/48/2
f 55/102/2 104/108/2 102/106/2
f 103/107/2 53/55/2 46/48/2
f 55/102/2 98/101/2 104/108/2
f 209/109/1 210/110/1 107/111/1
f 108/112/1 210/110/1 109/113/1
f 107/111/1 210/110/1 108/112/1
f 110/114/1 111/115/1 109/113/1
f 110/114/1 109/113/1 210/110/1
f 112/116/1 113/117/1 114/118/1
f 113/117/1 111/115/1 110/114/1
f 113/117/1 110/114/1 114/118/1
f 114/118/1 115/119/1 112/116/1
f 116/120/1 117/121/1 118/122/1
f 119/123/1 116/120/1 118/122/1
f 117/121/1 120/124/1 121/125/1
f 117/121/1 121/125/1 118/122/1
f 122/126/1 114/118/1 123/127/1
f 121/125/1 120/124/1 123/127/1
f 121/125/1 123/127/1 114/118/1
f 115/119/1 114/118/1 122/126/1
f 119/123/1 118/122/1 124/128/1
f 125/129/1 118/122/1 126/130/1
f 124/128/1 118/122/1 125/129/1
f 126/130/1 118/122/1 127/131/1
f 126/130/1 127/131/1 128/132/1
f 127/131/1 129/133/1 130/134/1
f 127/131/1 130/134/1 128/132/1
f 130/134/1 129/133/1 131/135/1
f 131/135/1 129/133/1 132/136/1
f 132/136/1 129/133/1 133/137/1
f 133/137/1 129/133/1 134/138/1
f 134/138/1 129/133/1 135/139/1
f 134/138/1 135/139/1 136/140/1
f 135/139/1 137/141/1 138/142/1
f 135/139/1 138/142/1 136/140/1
f 139/143/1 137/141/1 140/144/1
f 138/142/1 137/141/1 139/143/1
f 140/144/1 137/141/1 141/145/1
f 142/146/1 137/141/1 143/147/1
f 142/146/1 143/147/1 144/148/1
f 141/145/1 137/141/1 142/146/1
f 143/147/1 42/42/1 145/149/1
f 143/147/1 145/149/1 144/148/1
f 146/150/1 42/42/1 44/44/1
f 145/149/1 42/42/1 146/150/1
f 105/151/4 147/152/4 106/153/4
f 148/154/4 149/155/4 150/156/4
f 148/154/4 150/156/4 151/157/4
f 152/158/4 148/154/4 151/157/4
f 152/158/4 151/157/4 106/153/4
f 150/156/4 149/155/4 153/159/4
f 106/153/4 154/160/4 152/158/4
f 150/156/4 153/159/4 155/161/4
f 106/153/4 147/152/4 154/160/4
f 211/162/3 157/163/3 212/164/3
f 159/165/3 160/166/3 212/164/3
f 157/163/3 159/165/3 212/164/3
f 160/166/3 161/167/3 162/168/3
f 160/166/3 162/168/3 212/164/3
f 163/169/3 164/170/3 165/171/3
f 162/168/3 161/167/3 165/171/3
f 162/168/3 165/171/3 164/170/3
f 164/170/3 163/169/3 166/172/3
f 167/173/3 168/174/3 169/175/3
f 170/176/3 168/174/3 167/173/3
f 171/177/3 172/178/3 169/175/3
f 171/177/3 169/175/3 168/174/3
f 173/179/3 174/180/3 164/170/3
f 174/180/3 172/178/3 171/177/3
f 174/180/3 171/177/3 164/170/3
f 166/172/3 173/179/3 164/170/3
f 170/176/3 175/181/3 168/174/3
f 176/182/3 177/183/3 168/174/3
f 175/181/3 176/182/3 168/174/3
f 177/183/3 178/184/3 179/185/3
f 177/183/3 179/185/3 168/174/3
f 179/185/3 178/184/3 180/186/3
f 179/185/3 180/186/3 181/187/3
f 180/186/3 182/188/3 181/187/3
f 182/188/3 183/189/3 181/187/3
f 183/189/3 184/190/3 181/187/3
f 184/190/3 185/191/3 181/187/3
f 185/191/3 186/192/3 187/193/3
f 185/191/3 187/193/3 181/187/3
f 187/193/3 186/192/3 188/194/3
f 187/193/3 188/194/3 189/195/3
f 190/196/3 191/197/3 189/195/3
f 188/194/3 190/196/3 189/195/3
f 191/197/3 192/198/3 189/195/3
f 193/199/3 194/200/3 195/201/3
f 193/199/3 195/201/3 189/195/3
f 192/198/3 193/199/3 189/195/3
f 195/201/3 194/200/3 196/202/3
f 195/201/3 196/202/3 94/96/3
f 197/203/3 97/204/3 94/96/3
f 196/202/3 197/203/3 94/96/3
f 156/205/4 158/206/4 198/207/4
f 150/156/4 199/208/4 200/209/4
f 150/156/4 200/209/4 201/210/4
f 201/210/4 200/209/4 202/211/4
f 201/210/4 202/211/4 158/206/4
f 199/208/4 150/156/4 203/212/4
f 158/206/4 202/211/4 204/213/4
f 203/212/4 150/156/4 155/161/4
f 158/206/4 204/213/4 198/207/4
