o sponza_266
v -61.8102 84.205 -23.0868
v -61.9228 84.2342 -23.0946
v -61.9228 83.1947 -26.9742
v -61.8102 83.1655 -26.9664
v -62.0053 84.3138 -23.116
v -62.0053 83.2743 -26.9956
v -62.0354 84.4226 -23.1451
v -62.0354 83.3831 -27.0247
v -62.0053 84.5314 -23.1743
v -62.0053 83.4918 -27.0539
v -61.9228 84.611 -23.1956
v -61.9228 83.5715 -27.0752
v -61.8102 84.6401 -23.2034
v -61.8102 83.6006 -27.083
v -61.6976 84.611 -23.1956
v -61.6976 83.5715 -27.0752
v -61.6152 84.5314 -23.1743
v -61.6152 83.4918 -27.0539
v -61.585 84.4226 -23.1451
v -61.585 83.3831 -27.0247
v -61.6152 84.3138 -23.116
v -61.6152 83.2743 -26.9956
v -61.6976 84.2342 -23.0946
v -61.6976 83.1947 -26.9742
v -61.8102 85.2446 -19.2072
v -61.9228 85.2737 -19.215
v -62.0053 85.3533 -19.2364
v -62.0354 85.4621 -19.2655
v -62.0053 85.5709 -19.2947
v -61.9228 85.6505 -19.316
v -61.8102 85.6797 -19.3238
v -61.6976 85.6505 -19.316
v -61.6152 85.5709 -19.2947
v -61.585 85.4621 -19.2655
v -61.6152 85.3533 -19.2364
v -61.6976 85.2737 -19.215
v -61.8102 86.2841 -15.3276
v -61.9228 86.3132 -15.3354
v -62.0053 86.3929 -15.3568
v -62.0354 86.5016 -15.3859
v -62.0053 86.6104 -15.415
v -61.9228 86.6901 -15.4364
v -61.8102 86.7192 -15.4442
v -61.6976 86.6901 -15.4364
v -61.6152 86.6104 -15.415
v -61.585 86.5016 -15.3859
v -61.6152 86.3929 -15.3568
v -61.6976 86.3132 -15.3354
v -61.863 88.4356 -7.93157
v -61.8407 88.4141 -7.92579
v -61.8102 88.4062 -7.92368
v -61.7574 88.4356 -7.93157
v -61.863 88.4944 -7.94734
v -61.7493 88.465 -7.93945
v -61.7574 88.4944 -7.94734
v -61.7797 88.516 -7.95311
v -61.8102 88.5239 -7.95522
v -61.8407 88.516 -7.95311
v -61.8711 88.465 -7.93945
v -61.7797 88.4141 -7.92579
v -61.8102 87.5652 -10.2218
v -61.9648 87.6052 -10.2326
v -61.9228 87.5882 -10.5772
v -61.8102 87.5591 -10.5693
v -62.078 87.7146 -10.2619
v -62.0053 87.6678 -10.5985
v -62.1194 87.8639 -10.3019
v -62.0354 87.7766 -10.6276
v -62.078 88.0132 -10.3419
v -62.0053 87.8854 -10.6568
v -61.9648 88.1226 -10.3712
v -61.9228 87.965 -10.6781
v -61.8102 88.1626 -10.3819
v -61.8102 87.9942 -10.6859
v -61.6556 88.1226 -10.3712
v -61.6976 87.965 -10.6781
v -61.5424 88.0132 -10.3419
v -61.6152 87.8854 -10.6568
v -61.501 87.8639 -10.3019
v -61.585 87.7766 -10.6276
v -61.5424 87.7146 -10.2619
v -61.6152 87.6678 -10.5985
v -61.6556 87.6052 -10.2326
v -61.6976 87.5882 -10.5772
v -61.8102 87.9769 -8.54667
v -61.9751 88.0196 -8.55811
v -62.0034 87.8025 -9.23795
v -61.8102 87.7525 -9.22455
v -62.0958 88.1361 -8.58935
v -62.1449 87.9391 -9.27457
v -62.14 88.2954 -8.63202
v -62.1967 88.1258 -9.32458
v -62.0958 88.4547 -8.67469
v -62.1449 88.3124 -9.37459
v -61.9751 88.5712 -8.70593
v -62.0034 88.4491 -9.41121
v -61.8102 88.6139 -8.71737
v -61.8102 88.4991 -9.42461
v -61.6453 88.5712 -8.70593
v -61.617 88.4491 -9.4112
v -61.5246 88.4547 -8.67469
v -61.4755 88.3124 -9.37459
v -61.4804 88.2954 -8.63202
v -61.4237 88.1258 -9.32458
v -61.5246 88.1361 -8.58935
v -61.4755 87.9391 -9.27457
v -61.6453 88.0196 -8.55811
v -61.617 87.8025 -9.23795
v -61.9631 87.6953 -9.90756
v -61.8102 87.6558 -9.89695
v -62.0751 87.8035 -9.93654
v -62.116 87.9512 -9.97611
v -62.0751 88.0989 -10.0157
v -61.9631 88.207 -10.0447
v -61.8102 88.2466 -10.0553
v -61.6573 88.207 -10.0447
v -61.5453 88.0989 -10.0157
v -61.5043 87.9512 -9.97611
v -61.5453 87.8035 -9.93653
v -61.6573 87.6953 -9.90756
vt 0.9876 0.5241
vt 0.9633 0.5241
vt 0.9633 0.0053
vt 0.9876 0.0053
vt 0.9391 0.5241
vt 0.9391 0.0053
vt 0.9148 0.5241
vt 0.9148 0.0053
vt 0.8906 0.5241
vt 0.8906 0.0053
vt 0.8663 0.5241
vt 0.8663 0.0053
vt 0.8421 0.5241
vt 0.8421 0.0053
vt 0.8178 0.5241
vt 0.8178 0.0053
vt 0.7936 0.5241
vt 0.7936 0.0053
vt 0.7694 0.5241
vt 0.7694 0.0053
vt 0.7451 0.5241
vt 0.7451 0.0053
vt 0.7209 0.5241
vt 0.7209 0.0053
vt 0.6966 0.5241
vt 0.6966 0.0053
vt 0.9633 0.0053
vt 0.9876 0.0053
vt 0.9876 0.5241
vt 0.9633 0.5241
vt 0.9391 0.5241
vt 0.9391 0.0053
vt 0.9148 0.5241
vt 0.9148 0.0053
vt 0.8906 0.5241
vt 0.8906 0.0053
vt 0.8663 0.5241
vt 0.8663 0.0053
vt 0.8421 0.5241
vt 0.8421 0.0053
vt 0.8178 0.5241
vt 0.8178 0.0053
vt 0.7936 0.5241
vt 0.7936 0.0053
vt 0.7694 0.5241
vt 0.7694 0.0053
vt 0.7451 0.5241
vt 0.7451 0.0053
vt 0.7209 0.5241
vt 0.7209 0.0053
vt 0.6966 0.0053
vt 0.6966 0.5241
vt 0.9876 0.5241
vt 0.9633 0.5241
vt 0.9633 0.0053
vt 0.9876 0.0053
vt 0.9391 0.5241
vt 0.9391 0.0053
vt 0.9148 0.5241
vt 0.9148 0.0053
vt 0.8906 0.5241
vt 0.8906 0.0053
vt 0.8663 0.5241
vt 0.8663 0.0053
vt 0.8421 0.5241
vt 0.8421 0.0053
vt 0.8178 0.5241
vt 0.8178 0.0053
vt 0.7936 0.5241
vt 0.7936 0.0053
vt 0.7694 0.5241
vt 0.7694 0.0053
vt 0.7451 0.5241
vt 0.7451 0.0053
vt 0.7209 0.5241
vt 0.7209 0.0053
vt 0.6966 0.5241
vt 0.6966 0.0053
vt 0.9918 0.0129
vt 0.9918 0.0129
vt 0.9918 0.0129
vt 0.9918 0.0129
vt 0.9918 0.0129
vt 0.9918 0.0129
vt 0.9918 0.0129
vt 0.9918 0.0129
vt 0.9918 0.0129
vt 0.9918 0.0129
vt 0.9918 0.0129
vt 0.9918 0.0129
vt 0.9876 0.6851
vt 0.9633 0.6851
vt 0.9633 0.6416
vt 0.9876 0.6416
vt 0.9391 0.6851
vt 0.9391 0.6416
vt 0.9148 0.6851
vt 0.9148 0.6416
vt 0.8906 0.6851
vt 0.8906 0.6416
vt 0.8663 0.6851
vt 0.8663 0.6416
vt 0.8421 0.6851
vt 0.8421 0.6416
vt 0.8178 0.6851
vt 0.8178 0.6416
vt 0.7936 0.6851
vt 0.7936 0.6416
vt 0.7694 0.6851
vt 0.7694 0.6416
vt 0.7451 0.6851
vt 0.7451 0.6416
vt 0.7209 0.6851
vt 0.7209 0.6416
vt 0.6966 0.6851
vt 0.6966 0.6416
vt 0.9876 0.9029
vt 0.9633 0.9029
vt 0.9633 0.8158
vt 0.9876 0.8158
vt 0.9391 0.9029
vt 0.9391 0.8158
vt 0.9148 0.9029
vt 0.9148 0.8158
vt 0.8906 0.9029
vt 0.8906 0.8158
vt 0.8663 0.9029
vt 0.8663 0.8158
vt 0.8421 0.9029
vt 0.8421 0.8158
vt 0.8178 0.9029
vt 0.8178 0.8158
vt 0.7936 0.9029
vt 0.7936 0.8158
vt 0.7694 0.9029
vt 0.7694 0.8158
vt 0.7451 0.9029
vt 0.7451 0.8158
vt 0.7209 0.9029
vt 0.7209 0.8158
vt 0.6966 0.9029
vt 0.6966 0.8158
vt 0.9876 0.99
vt 0.9633 0.99
vt 0.9391 0.99
vt 0.9148 0.99
vt 0.8906 0.99
vt 0.8663 0.99
vt 0.8421 0.99
vt 0.8178 0.99
vt 0.7936 0.99
vt 0.7694 0.99
vt 0.7451 0.99
vt 0.7209 0.99
vt 0.6966 0.99
vt 0.9633 0.7287
vt 0.9876 0.7287
vt 0.9391 0.7287
vt 0.9148 0.7287
vt 0.8906 0.7287
vt 0.8663 0.7287
vt 0.8421 0.7287
vt 0.8178 0.7287
vt 0.7936 0.7287
vt 0.7694 0.7287
vt 0.7451 0.7287
vt 0.7209 0.7287
vt 0.6966 0.7287
vt 0.9633 0.0053
vt 0.9876 0.0053
vt 0.9391 0.0053
vt 0.9148 0.0053
vt 0.8906 0.0053
vt 0.8663 0.0053
vt 0.8421 0.0053
vt 0.8178 0.0053
vt 0.7936 0.0053
vt 0.7694 0.0053
vt 0.7451 0.0053
vt 0.7209 0.0053
vt 0.6966 0.0053
vn -0 -0.9659 0.2588
vn -0.5 -0.8365 0.2241
vn -0.4999 -0.8365 0.2241
vn -0.866 -0.483 0.1294
vn -1 -0 0
vn -0.866 0.483 -0.1294
vn -0.5 0.8365 -0.2241
vn -0.4999 0.8366 -0.2241
vn -0 0.9659 -0.2588
vn 0.5 0.8365 -0.2241
vn 0.866 0.483 -0.1294
vn 1 -0 0
vn 0.866 -0.483 0.1294
vn 0.5001 -0.8365 0.2241
vn 0.5 -0.8365 0.2241
vn -0.5 -0.8365 0.2242
vn 0.5001 0.8365 -0.2241
vn 0.866 0.4829 -0.1294
vn -0.5447 -0.105 0.832
vn -0.3153 -0.33 0.8898
vn -0 -0.4121 0.9111
vn 0.5447 -0.1044 0.8321
vn -0.54 0.5017 0.6758
vn 0.626 0.1996 0.7539
vn 0.5401 0.5015 0.6758
vn 0.3109 0.7209 0.6194
vn 0 0.8009 0.5989
vn -0.3109 0.721 0.6193
vn -0.6261 0.1997 0.7537
vn 0.3154 -0.3294 0.89
vn 0 -0.9892 0.1466
vn -0.4967 -0.8607 0.1121
vn -0.4961 -0.8622 0.1024
vn 0 -0.9906 0.1368
vn -0.8603 -0.5094 0.018
vn -0.8593 -0.5114 0.0084
vn -0.9934 -0.0296 -0.1105
vn -0.9923 -0.0322 -0.12
vn -0.8603 0.4502 -0.2391
vn -0.8593 0.4471 -0.2484
vn -0.4967 0.8014 -0.3332
vn -0.4961 0.7979 -0.3424
vn -0 0.93 -0.3676
vn 0 0.9263 -0.3768
vn 0.4967 0.8014 -0.3332
vn 0.4962 0.7979 -0.3424
vn 0.8603 0.4502 -0.2391
vn 0.8593 0.4471 -0.2484
vn 0.9934 -0.0296 -0.1106
vn 0.9923 -0.0321 -0.12
vn 0.8603 -0.5094 0.018
vn 0.8593 -0.5113 0.0084
vn 0.4967 -0.8606 0.1121
vn 0.4961 -0.8622 0.1024
vn -0 -0.8974 0.4413
vn -0.49 -0.7694 0.4097
vn -0.5005 -0.8432 0.1963
vn -0 -0.9733 0.2296
vn -0.8476 -0.4205 0.3236
vn -0.8665 -0.488 0.1051
vn -0.977 0.0548 0.2063
vn -0.9998 -0.0034 -0.0192
vn -0.8444 0.5282 0.0895
vn -0.8652 0.4805 -0.1434
vn -0.4868 0.8735 0.0042
vn -0.4992 0.8342 -0.2342
vn -0 0.9996 -0.027
vn -0 0.9636 -0.2674
vn 0.4868 0.8735 0.0042
vn 0.4992 0.8342 -0.2342
vn 0.8444 0.5281 0.0895
vn 0.8652 0.4805 -0.1434
vn 0.977 0.0547 0.2063
vn 0.9998 -0.0033 -0.0192
vn 0.8477 -0.4204 0.3236
vn 0.8665 -0.4879 0.1051
vn 0.49 -0.7694 0.4097
vn 0.5006 -0.8432 0.1963
vn -0.4992 -0.8495 0.1706
vn -0 -0.9787 0.2052
vn -0.8647 -0.4964 0.076
vn -0.9985 -0.0142 -0.0532
vn -0.8647 0.468 -0.1824
vn -0.4992 0.821 -0.277
vn -0 0.9502 -0.3116
vn 0.4993 0.821 -0.277
vn 0.8647 0.468 -0.1824
vn 0.9985 -0.0143 -0.0532
vn 0.8647 -0.4965 0.076
vn 0.4993 -0.8495 0.1706
f 1/1/1 2/2/2 3/3/3
f 1/1/1 3/3/3 4/4/1
f 2/2/2 5/5/4 6/6/4
f 2/2/2 6/6/4 3/3/3
f 5/5/4 7/7/5 8/8/5
f 5/5/4 8/8/5 6/6/4
f 7/7/5 9/9/6 10/10/6
f 7/7/5 10/10/6 8/8/5
f 9/9/6 11/11/7 12/12/8
f 9/9/6 12/12/8 10/10/6
f 11/11/7 13/13/9 14/14/9
f 11/11/7 14/14/9 12/12/8
f 13/13/9 15/15/10 16/16/10
f 13/13/9 16/16/10 14/14/9
f 15/15/10 17/17/11 18/18/11
f 15/15/10 18/18/11 16/16/10
f 17/17/11 19/19/12 20/20/12
f 17/17/11 20/20/12 18/18/11
f 19/19/12 21/21/13 22/22/13
f 19/19/12 22/22/13 20/20/12
f 21/21/13 23/23/14 24/24/15
f 21/21/13 24/24/15 22/22/13
f 23/23/14 1/25/1 4/26/1
f 23/23/14 4/26/1 24/24/15
f 2/27/2 1/28/1 25/29/1
f 2/27/2 25/29/1 26/30/16
f 26/30/16 27/31/4 5/32/4
f 26/30/16 5/32/4 2/27/2
f 27/31/4 28/33/5 7/34/5
f 27/31/4 7/34/5 5/32/4
f 28/33/5 29/35/6 9/36/6
f 28/33/5 9/36/6 7/34/5
f 29/35/6 30/37/7 11/38/7
f 29/35/6 11/38/7 9/36/6
f 30/37/7 31/39/9 13/40/9
f 30/37/7 13/40/9 11/38/7
f 31/39/9 32/41/10 15/42/10
f 31/39/9 15/42/10 13/40/9
f 32/41/10 33/43/11 17/44/11
f 32/41/10 17/44/11 15/42/10
f 33/43/11 34/45/12 19/46/12
f 33/43/11 19/46/12 17/44/11
f 34/45/12 35/47/13 21/48/13
f 34/45/12 21/48/13 19/46/12
f 35/47/13 36/49/15 23/50/14
f 35/47/13 23/50/14 21/48/13
f 1/51/1 23/50/14 36/49/15
f 1/51/1 36/49/15 25/52/1
f 37/53/1 38/54/2 26/55/16
f 37/53/1 26/55/16 25/56/1
f 38/54/2 39/57/4 27/58/4
f 38/54/2 27/58/4 26/55/16
f 39/57/4 40/59/5 28/60/5
f 39/57/4 28/60/5 27/58/4
f 40/59/5 41/61/6 29/62/6
f 40/59/5 29/62/6 28/60/5
f 41/61/6 42/63/7 30/64/7
f 41/61/6 30/64/7 29/62/6
f 42/63/7 43/65/9 31/66/9
f 42/63/7 31/66/9 30/64/7
f 43/65/9 44/67/17 32/68/10
f 43/65/9 32/68/10 31/66/9
f 44/67/17 45/69/18 33/70/11
f 44/67/17 33/70/11 32/68/10
f 45/69/18 46/71/12 34/72/12
f 45/69/18 34/72/12 33/70/11
f 46/71/12 47/73/13 35/74/13
f 46/71/12 35/74/13 34/72/12
f 47/73/13 48/75/15 36/76/15
f 47/73/13 36/76/15 35/74/13
f 48/75/15 37/77/1 25/78/1
f 48/75/15 25/78/1 36/76/15
f 49/79/19 50/80/20 51/81/21
f 49/79/19 51/81/21 52/82/22
f 49/79/19 52/82/22 53/83/23
f 52/82/22 54/84/24 55/85/25
f 52/82/22 55/85/25 53/83/23
f 55/85/25 56/86/26 57/87/27
f 55/85/25 57/87/27 53/83/23
f 57/87/27 58/88/28 53/83/23
f 59/89/29 49/79/19 53/83/23
f 60/90/30 52/82/22 51/81/21
f 61/91/31 62/92/32 63/93/33
f 61/91/31 63/93/33 64/94/34
f 62/92/32 65/95/35 66/96/36
f 62/92/32 66/96/36 63/93/33
f 65/95/35 67/97/37 68/98/38
f 65/95/35 68/98/38 66/96/36
f 67/97/37 69/99/39 70/100/40
f 67/97/37 70/100/40 68/98/38
f 69/99/39 71/101/41 72/102/42
f 69/99/39 72/102/42 70/100/40
f 71/101/41 73/103/43 74/104/44
f 71/101/41 74/104/44 72/102/42
f 73/103/43 75/105/45 76/106/46
f 73/103/43 76/106/46 74/104/44
f 75/105/45 77/107/47 78/108/48
f 75/105/45 78/108/48 76/106/46
f 77/107/47 79/109/49 80/110/50
f 77/107/47 80/110/50 78/108/48
f 79/109/49 81/111/51 82/112/52
f 79/109/49 82/112/52 80/110/50
f 81/111/51 83/113/53 84/114/54
f 81/111/51 84/114/54 82/112/52
f 83/113/53 61/115/31 64/116/34
f 83/113/53 64/116/34 84/114/54
f 85/117/55 86/118/56 87/119/57
f 85/117/55 87/119/57 88/120/58
f 87/119/57 86/118/56 89/121/59
f 87/119/57 89/121/59 90/122/60
f 90/122/60 89/121/59 91/123/61
f 90/122/60 91/123/61 92/124/62
f 92/124/62 91/123/61 93/125/63
f 92/124/62 93/125/63 94/126/64
f 94/126/64 93/125/63 95/127/65
f 94/126/64 95/127/65 96/128/66
f 95/127/65 97/129/67 98/130/68
f 95/127/65 98/130/68 96/128/66
f 97/129/67 99/131/69 100/132/70
f 97/129/67 100/132/70 98/130/68
f 99/131/69 101/133/71 102/134/72
f 99/131/69 102/134/72 100/132/70
f 101/133/71 103/135/73 104/136/74
f 101/133/71 104/136/74 102/134/72
f 103/135/73 105/137/75 106/138/76
f 103/135/73 106/138/76 104/136/74
f 105/137/75 107/139/77 108/140/78
f 105/137/75 108/140/78 106/138/76
f 107/139/77 85/141/55 88/142/58
f 107/139/77 88/142/58 108/140/78
f 51/143/21 50/144/20 86/118/56
f 51/143/21 86/118/56 85/117/55
f 50/144/20 49/145/19 89/121/59
f 50/144/20 89/121/59 86/118/56
f 89/121/59 49/145/19 59/146/29
f 89/121/59 59/146/29 91/123/61
f 91/123/61 59/146/29 53/147/23
f 91/123/61 53/147/23 93/125/63
f 53/147/23 58/148/28 95/127/65
f 53/147/23 95/127/65 93/125/63
f 58/148/28 57/149/27 97/129/67
f 58/148/28 97/129/67 95/127/65
f 57/149/27 56/150/26 99/131/69
f 57/149/27 99/131/69 97/129/67
f 56/150/26 55/151/25 101/133/71
f 56/150/26 101/133/71 99/131/69
f 55/151/25 54/152/24 103/135/73
f 55/151/25 103/135/73 101/133/71
f 54/152/24 52/153/22 105/137/75
f 54/152/24 105/137/75 103/135/73
f 52/153/22 60/154/30 107/139/77
f 52/153/22 107/139/77 105/137/75
f 60/154/30 51/155/21 85/141/55
f 60/154/30 85/141/55 107/139/77
f 88/120/58 87/119/57 109/156/79
f 88/120/58 109/156/79 110/157/80
f 87/119/57 90/122/60 111/158/81
f 87/119/57 111/158/81 109/156/79
f 90/122/60 92/124/62 112/159/82
f 90/122/60 112/159/82 111/158/81
f 92/124/62 94/126/64 113/160/83
f 92/124/62 113/160/83 112/159/82
f 94/126/64 96/128/66 114/161/84
f 94/126/64 114/161/84 113/160/83
f 96/128/66 98/130/68 115/162/85
f 96/128/66 115/162/85 114/161/84
f 98/130/68 100/132/70 116/163/86
f 98/130/68 116/163/86 115/162/85
f 100/132/70 102/134/72 117/164/87
f 100/132/70 117/164/87 116/163/86
f 102/134/72 104/136/74 118/165/88
f 102/134/72 118/165/88 117/164/87
f 104/136/74 106/138/76 119/166/89
f 104/136/74 119/166/89 118/165/88
f 106/138/76 108/140/78 120/167/90
f 106/138/76 120/167/90 119/166/89
f 108/140/78 88/142/58 110/168/80
f 108/140/78 110/168/80 120/167/90
f 110/157/80 109/156/79 62/92/32
f 110/157/80 62/92/32 61/91/31
f 109/156/79 111/158/81 65/95/35
f 109/156/79 65/95/35 62/92/32
f 111/158/81 112/159/82 67/97/37
f 111/158/81 67/97/37 65/95/35
f 112/159/82 113/160/83 69/99/39
f 112/159/82 69/99/39 67/97/37
f 113/160/83 114/161/84 71/101/41
f 113/160/83 71/101/41 69/99/39
f 114/161/84 115/162/85 73/103/43
f 114/161/84 73/103/43 71/101/41
f 115/162/85 116/163/86 75/105/45
f 115/162/85 75/105/45 73/103/43
f 116/163/86 117/164/87 77/107/47
f 116/163/86 77/107/47 75/105/45
f 117/164/87 118/165/88 79/109/49
f 117/164/87 79/109/49 77/107/47
f 118/165/88 119/166/89 81/111/51
f 118/165/88 81/111/51 79/109/49
f 119/166/89 120/167/90 83/113/53
f 119/166/89 83/113/53 81/111/51
f 120/167/90 110/168/80 61/115/31
f 120/167/90 61/115/31 83/113/53
f 64/94/34 63/93/33 38/169/2
f 64/94/34 38/169/2 37/170/1
f 63/93/33 66/96/36 39/171/4
f 63/93/33 39/171/4 38/169/2
f 66/96/36 68/98/38 40/172/5
f 66/96/36 40/172/5 39/171/4
f 68/98/38 70/100/40 41/173/6
f 68/98/38 41/173/6 40/172/5
f 70/100/40 72/102/42 42/174/7
f 70/100/40 42/174/7 41/173/6
f 72/102/42 74/104/44 43/175/9
f 72/102/42 43/175/9 42/174/7
f 74/104/44 76/106/46 44/176/17
f 74/104/44 44/176/17 43/175/9
f 76/106/46 78/108/48 45/177/18
f 76/106/46 45/177/18 44/176/17
f 78/108/48 80/110/50 46/178/12
f 78/108/48 46/178/12 45/177/18
f 80/110/50 82/112/52 47/179/13
f 80/110/50 47/179/13 46/178/12
f 82/112/52 84/114/54 48/180/15
f 82/112/52 48/180/15 47/179/13
f 84/114/54 64/116/34 37/181/1
f 84/114/54 37/181/1 48/180/15
