o sponza_234
v -82.5286 51.6433 18.5165
v -82.5286 51.6433 22.4995
v -82.5031 51.7401 22.4739
v -82.5031 51.7402 18.5421
v -82.4892 51.6433 18.4771
v -82.4636 51.7402 18.5026
v -83.0068 51.0635 17.9593
v -83.0462 51.0635 17.9988
v -82.8785 51.1885 18.1666
v -82.839 51.1885 18.1271
v -82.5593 51.5708 18.4859
v -82.5198 51.5708 18.4464
v -82.5738 51.484 18.3924
v -82.6133 51.484 18.4318
v -82.739 51.2804 18.2271
v -82.7785 51.2804 18.2666
v -82.6999 51.368 18.3452
v -82.6604 51.368 18.3058
v -82.7785 51.2804 22.7494
v -82.6999 51.368 22.6707
v -82.5593 51.5708 22.5301
v -82.4892 51.6433 22.5389
v -82.4636 51.7401 22.5134
v -82.8785 51.1885 22.8494
v -83.0462 51.0635 23.0172
v -83.0068 51.0635 23.0566
v -82.839 51.1885 22.8888
v -82.5738 51.484 22.6236
v -82.5198 51.5708 22.5696
v -82.6133 51.484 22.5841
v -82.739 51.2804 22.7888
v -82.6604 51.368 22.7102
v -77.9895 51.0635 23.0566
v -78.1572 51.1885 22.8888
v -78.4224 51.484 22.6236
v -78.4764 51.5708 22.5696
v -78.3358 51.368 22.7102
v -78.2572 51.2804 22.7888
v -78.507 51.6433 22.5389
v -78.4676 51.6433 22.4995
v -78.4931 51.7401 22.4739
v -78.5326 51.7401 22.5134
v -77.95 51.0635 23.0172
v -78.1177 51.1885 22.8494
v -78.437 51.5708 22.5301
v -78.3829 51.484 22.5841
v -78.2177 51.2804 22.7494
v -78.2964 51.368 22.6707
v -83.0068 50.9806 17.9593
v -83.0462 50.9806 17.9988
v -83.0462 50.9806 23.0172
v -83.0068 50.9806 23.0566
v -77.9895 50.9806 23.0566
v -77.95 50.9806 23.0172
v -83.2026 50.9806 17.7604
v -83.2451 50.9806 17.8029
v -83.2451 50.9806 23.213
v -83.2026 50.9806 23.2555
v -77.7936 50.9806 23.2555
v -77.7511 50.9806 23.213
v -83.2026 50.6633 17.7604
v -83.2451 50.6633 17.8029
v -83.2451 50.6633 23.213
v -83.2026 50.6633 23.2555
v -77.7936 50.6633 23.2555
v -77.7511 50.6633 23.213
v -78.4676 51.6433 18.5165
v -78.4931 51.7402 18.5421
v -78.2177 51.2804 18.2666
v -78.2964 51.368 18.3452
v -78.437 51.5708 18.4858
v -78.507 51.6433 18.4771
v -78.5326 51.7402 18.5026
v -78.1177 51.1885 18.1666
v -77.95 51.0635 17.9988
v -77.9895 51.0635 17.9593
v -78.1572 51.1885 18.1271
v -78.4224 51.484 18.3924
v -78.4764 51.5708 18.4464
v -78.3829 51.484 18.4318
v -78.2572 51.2804 18.2271
v -78.3358 51.368 18.3058
v -77.95 50.9806 17.9988
v -77.9895 50.9806 17.9593
v -77.7511 50.9806 17.8029
v -77.7936 50.9806 17.7604
v -77.7511 50.6633 17.8029
v -77.7936 50.6633 17.7604
v -83.0068 50.9806 17.9593
v -83.0462 50.9806 17.9988
v -83.0462 50.9806 23.0172
v -83.0068 50.9806 23.0566
v -77.9895 50.9806 23.0566
v -77.95 50.9806 23.0172
v -83.2026 50.9806 17.7604
v -83.2451 50.9806 17.8029
v -83.2451 50.9806 23.213
v -83.2026 50.9806 23.2555
v -77.7936 50.9806 23.2555
v -77.7511 50.9806 23.213
v -77.95 50.9806 17.9988
v -77.9895 50.9806 17.9593
v -77.7511 50.9806 17.8029
v -77.7936 50.9806 17.7604
vt 0.2788 0.949
vt 0.2788 0.7224
vt 0.2734 0.7237
vt 0.2733 0.9476
vt 0.2778 0.9519
vt 0.2712 0.9499
vt 0.3144 0.9807
vt 0.3147 0.9785
vt 0.3052 0.9689
vt 0.3029 0.9712
vt 0.2829 0.9508
vt 0.2816 0.9534
vt 0.286 0.9566
vt 0.2879 0.9539
vt 0.2972 0.9656
vt 0.2995 0.9633
vt 0.2945 0.9588
vt 0.2922 0.9615
vt 0.2995 0.7081
vt 0.2945 0.7126
vt 0.2829 0.7206
vt 0.2755 0.7168
vt 0.2725 0.7161
vt 0.2711 0.7216
vt 0.2947 0.692
vt 0.3045 0.6818
vt 0.302 0.6802
vt 0.2924 0.6897
vt 0.2773 0.707
vt 0.2743 0.7119
vt 0.2768 0.7135
vt 0.2801 0.7089
vt 0.285 0.7026
vt 0.2891 0.6976
vt 0.2867 0.6954
vt 0.2823 0.7004
vt 0.0164 0.6802
vt 0.026 0.6897
vt 0.0411 0.707
vt 0.0441 0.7119
vt 0.0361 0.7004
vt 0.0317 0.6953
vt 0.0459 0.7161
vt 0.044 0.7173
vt 0.0451 0.7238
vt 0.0473 0.7216
vt 0.014 0.6812
vt 0.0237 0.692
vt 0.0416 0.7135
vt 0.0383 0.7089
vt 0.0293 0.6976
vt 0.0334 0.7026
vt 0.3147 0.6929
vt 0.3052 0.7024
vt 0.2879 0.7175
vt 0.3184 0.9812
vt 0.3194 0.9785
vt 0.3194 0.6929
vt 0.302 0.6754
vt 0.0164 0.6754
vt 0.3048 0.6767
vt 0.0138 0.6766
vt 0.3283 0.9921
vt 0.3307 0.9896
vt 0.3194 0.9785
vt 0.3184 0.9812
vt 0.3307 0.6817
vt 0.3194 0.6929
vt 0.3131 0.6641
vt 0.0053 0.6641
vt 0.0164 0.6754
vt 0.302 0.6754
vt 0.316 0.6653
vt 0.3048 0.6767
vt 0.0029 0.6653
vt 0.0138 0.6766
vt 0.3307 0.9921
vt 0.3488 0.9921
vt 0.3488 0.9896
vt 0.3307 0.9896
vt 0.3488 0.6817
vt 0.3307 0.6817
vt 0.3131 0.6641
vt 0.3131 0.6461
vt 0.0053 0.6461
vt 0.0053 0.6641
vt 0.316 0.6653
vt 0.3155 0.6461
vt 0.0029 0.6461
vt 0.0029 0.6653
vt 0.2788 0.949
vt 0.2788 0.7224
vt 0.2734 0.7237
vt 0.2733 0.9476
vt 0.2995 0.9633
vt 0.2995 0.7081
vt 0.2945 0.7126
vt 0.2945 0.9588
vt 0.2829 0.9508
vt 0.2829 0.7206
vt 0.2755 0.7168
vt 0.2725 0.7161
vt 0.2711 0.7216
vt 0.2947 0.692
vt 0.3045 0.6818
vt 0.302 0.6802
vt 0.2924 0.6897
vt 0.2773 0.707
vt 0.2743 0.7119
vt 0.2768 0.7135
vt 0.2801 0.7089
vt 0.285 0.7026
vt 0.2891 0.6976
vt 0.2867 0.6954
vt 0.2823 0.7004
vt 0.0164 0.6802
vt 0.026 0.6897
vt 0.0411 0.707
vt 0.0441 0.7119
vt 0.0361 0.7004
vt 0.0317 0.6953
vt 0.0459 0.7161
vt 0.0473 0.7216
vt 0.3147 0.9785
vt 0.3147 0.6929
vt 0.3052 0.7024
vt 0.3052 0.9689
vt 0.2879 0.9539
vt 0.2879 0.7175
vt 0.3194 0.9785
vt 0.3194 0.6929
vt 0.302 0.6754
vt 0.0164 0.6754
vt 0.3048 0.6767
vt 0.3307 0.9896
vt 0.3307 0.6817
vt 0.3194 0.6929
vt 0.3194 0.9785
vt 0.3131 0.6641
vt 0.0053 0.6641
vt 0.0164 0.6754
vt 0.302 0.6754
vt 0.316 0.6653
vt 0.3048 0.6767
vt 0.3307 0.9896
vt 0.3488 0.9896
vt 0.3488 0.6817
vt 0.3307 0.6817
vt 0.3131 0.6641
vt 0.3131 0.6461
vt 0.0053 0.6461
vt 0.0053 0.6641
vt 0.316 0.6653
vt 0.3155 0.6461
vt 0.0451 0.9476
vt 0.0473 0.9498
vn -0.8483 0.4106 -0.3343
vn -0.8483 0.4106 0.3343
vn -0.622 0.7482 0.2311
vn -0.6219 0.7482 -0.2311
vn -0.3343 0.4106 -0.8483
vn -0.231 0.7482 -0.6219
vn -0.3551 0.4595 -0.8141
vn -0.8142 0.4594 -0.355
vn -0.5035 0.8445 -0.1825
vn -0.1824 0.8445 -0.5035
vn -0.7704 0.5643 -0.2968
vn -0.2969 0.5643 -0.7703
vn -0.265 0.6653 -0.698
vn -0.6981 0.6652 -0.2649
vn -0.2114 0.7904 -0.575
vn -0.575 0.7904 -0.2114
vn -0.6399 0.7304 -0.239
vn -0.239 0.7304 -0.6399
vn -0.575 0.7904 0.2115
vn -0.6399 0.7303 0.239
vn -0.7704 0.5643 0.2969
vn -0.3343 0.4106 0.8483
vn -0.231 0.7482 0.6219
vn -0.5035 0.8445 0.1825
vn -0.8141 0.4594 0.3551
vn -0.355 0.4595 0.8142
vn -0.1824 0.8445 0.5035
vn -0.265 0.6653 0.698
vn -0.2968 0.5643 0.7704
vn -0.698 0.6653 0.2649
vn -0.2114 0.7904 0.575
vn -0.239 0.7304 0.6399
vn 0.3551 0.4594 0.8141
vn 0.1824 0.8445 0.5035
vn 0.265 0.6653 0.6979
vn 0.2969 0.5643 0.7704
vn 0.239 0.7304 0.6399
vn 0.2114 0.7904 0.575
vn 0.3343 0.4107 0.8483
vn 0.8483 0.4106 0.3343
vn 0.6219 0.7482 0.2311
vn 0.2311 0.7482 0.622
vn 0.8142 0.4594 0.3551
vn 0.5035 0.8445 0.1825
vn 0.7704 0.5642 0.2968
vn 0.698 0.6653 0.2648
vn 0.575 0.7904 0.2114
vn 0.6399 0.7304 0.239
vn -0.3827 0 -0.9239
vn -0.9239 0 -0.3826
vn -0.9239 0 0.3827
vn -0.3827 0 0.9239
vn 0.3827 0 0.9239
vn 0.9239 0 0.3826
vn 0 1 0
vn 0 1 0.0001
vn -0.3826 0 -0.9239
vn -0.9239 0 -0.3827
vn -0.3826 0 0.9239
vn 0.9239 0 0.3827
vn 0.8483 0.4106 -0.3343
vn 0.6219 0.7482 -0.2311
vn 0.575 0.7904 -0.2114
vn 0.6399 0.7304 -0.239
vn 0.7704 0.5643 -0.2969
vn 0.3343 0.4107 -0.8483
vn 0.2311 0.7482 -0.6219
vn 0.5035 0.8445 -0.1825
vn 0.8142 0.4594 -0.3551
vn 0.3551 0.4594 -0.8142
vn 0.1824 0.8445 -0.5035
vn 0.265 0.6653 -0.698
vn 0.2968 0.5643 -0.7704
vn 0.6981 0.6652 -0.2649
vn 0.2114 0.7904 -0.575
vn 0.239 0.7304 -0.6398
vn 0.9239 0 -0.3827
vn 0.3827 0 -0.9239
f 1/1/1 2/2/2 3/3/3
f 1/1/1 3/3/3 4/4/4
f 5/5/5 1/1/1 4/4/4
f 5/5/5 4/4/4 6/6/6
f 7/7/7 8/8/8 9/9/9
f 7/7/7 9/9/9 10/10/10
f 11/11/11 12/12/12 13/13/13
f 11/11/11 13/13/13 14/14/14
f 15/15/15 16/16/16 17/17/17
f 15/15/15 17/17/17 18/18/18
f 10/10/10 9/9/9 16/16/16
f 10/10/10 16/16/16 15/15/15
f 14/14/14 13/13/13 18/18/18
f 14/14/14 18/18/18 17/17/17
f 1/1/1 5/5/5 12/12/12
f 1/1/1 12/12/12 11/11/11
f 16/16/16 19/19/19 20/20/20
f 16/16/16 20/20/20 17/17/17
f 2/2/2 1/1/1 11/11/11
f 2/2/2 11/11/11 21/21/21
f 3/3/3 2/22/2 22/23/22
f 3/3/3 22/23/22 23/24/23
f 24/25/24 25/26/25 26/27/26
f 24/25/24 26/27/26 27/28/27
f 28/29/28 29/30/29 21/31/21
f 28/29/28 21/31/21 30/32/30
f 20/33/20 19/34/19 31/35/31
f 20/33/20 31/35/31 32/36/32
f 19/34/19 24/25/24 27/28/27
f 19/34/19 27/28/27 31/35/31
f 32/36/32 28/29/28 30/32/30
f 32/36/32 30/32/30 20/33/20
f 29/30/29 22/23/22 2/22/2
f 29/30/29 2/22/2 21/31/21
f 27/28/27 26/27/26 33/37/33
f 27/28/27 33/37/33 34/38/34
f 29/30/29 28/29/28 35/39/35
f 29/30/29 35/39/35 36/40/36
f 37/41/37 32/36/32 31/35/31
f 37/41/37 31/35/31 38/42/38
f 28/29/28 32/36/32 37/41/37
f 28/29/28 37/41/37 35/39/35
f 31/35/31 27/28/27 34/38/34
f 31/35/31 34/38/34 38/42/38
f 22/23/22 29/30/29 36/40/36
f 22/23/22 36/40/36 39/43/39
f 39/43/39 40/44/40 41/45/41
f 39/43/39 41/45/41 42/46/42
f 33/37/33 43/47/43 44/48/44
f 33/37/33 44/48/44 34/38/34
f 45/49/45 36/40/36 35/39/35
f 45/49/45 35/39/35 46/50/46
f 38/42/38 47/51/47 48/52/48
f 38/42/38 48/52/48 37/41/37
f 34/38/34 44/48/44 47/51/47
f 34/38/34 47/51/47 38/42/38
f 46/50/46 35/39/35 37/41/37
f 46/50/46 37/41/37 48/52/48
f 40/44/40 39/43/39 36/40/36
f 40/44/40 36/40/36 45/49/45
f 42/46/42 23/24/23 22/23/22
f 42/46/42 22/23/22 39/43/39
f 8/8/8 25/53/25 24/54/24
f 8/8/8 24/54/24 9/9/9
f 14/14/14 30/55/30 21/21/21
f 14/14/14 21/21/21 11/11/11
f 17/17/17 20/20/20 30/55/30
f 17/17/17 30/55/30 14/14/14
f 9/9/9 24/54/24 19/19/19
f 9/9/9 19/19/19 16/16/16
f 89/56/49 90/57/50 8/8/8
f 89/56/49 8/8/8 7/7/7
f 8/8/8 90/57/50 91/58/51
f 8/8/8 91/58/51 25/53/25
f 92/59/52 93/60/53 33/37/33
f 92/59/52 33/37/33 26/27/26
f 91/61/51 92/59/52 26/27/26
f 91/61/51 26/27/26 25/26/25
f 93/60/53 94/62/54 43/47/43
f 93/60/53 43/47/43 33/37/33
f 95/63/55 96/64/55 50/65/55
f 95/63/55 50/65/55 49/66/55
f 96/64/55 97/67/56 51/68/55
f 96/64/55 51/68/55 50/65/55
f 98/69/56 99/70/55 53/71/55
f 98/69/56 53/71/55 52/72/55
f 97/73/56 98/69/56 52/72/55
f 97/73/56 52/72/55 51/74/55
f 99/70/55 100/75/55 54/76/55
f 99/70/55 54/76/55 53/71/55
f 55/77/57 61/78/57 62/79/58
f 55/77/57 62/79/58 56/80/58
f 56/80/58 62/79/58 63/81/51
f 56/80/58 63/81/51 57/82/51
f 58/83/59 64/84/59 65/85/53
f 58/83/59 65/85/53 59/86/53
f 57/87/51 63/88/51 64/84/59
f 57/87/51 64/84/59 58/83/59
f 59/86/53 65/85/53 66/89/60
f 59/86/53 66/89/60 60/90/60
f 40/91/40 67/92/61 68/93/62
f 40/91/40 68/93/62 41/94/41
f 47/95/47 69/96/63 70/97/64
f 47/95/47 70/97/64 48/98/48
f 45/99/45 71/100/65 67/92/61
f 45/99/45 67/92/61 40/91/40
f 68/93/62 67/101/61 72/102/66
f 68/93/62 72/102/66 73/103/67
f 74/104/68 75/105/69 76/106/70
f 74/104/68 76/106/70 77/107/71
f 78/108/72 79/109/73 71/110/65
f 78/108/72 71/110/65 80/111/74
f 70/112/64 69/113/63 81/114/75
f 70/112/64 81/114/75 82/115/76
f 69/113/63 74/104/68 77/107/71
f 69/113/63 77/107/71 81/114/75
f 82/115/76 78/108/72 80/111/74
f 82/115/76 80/111/74 70/112/64
f 79/109/73 72/102/66 67/101/61
f 79/109/73 67/101/61 71/110/65
f 77/107/71 76/106/70 7/116/7
f 77/107/71 7/116/7 10/117/10
f 79/109/73 78/108/72 13/118/13
f 79/109/73 13/118/13 12/119/12
f 18/120/18 82/115/76 81/114/75
f 18/120/18 81/114/75 15/121/15
f 78/108/72 82/115/76 18/120/18
f 78/108/72 18/120/18 13/118/13
f 81/114/75 77/107/71 10/117/10
f 81/114/75 10/117/10 15/121/15
f 72/102/66 79/109/73 12/119/12
f 72/102/66 12/119/12 5/122/5
f 6/123/6 73/103/67 72/102/66
f 6/123/6 72/102/66 5/122/5
f 43/124/43 75/125/69 74/126/68
f 43/124/43 74/126/68 44/127/44
f 46/128/46 80/129/74 71/100/65
f 46/128/46 71/100/65 45/99/45
f 48/98/48 70/97/64 80/129/74
f 48/98/48 80/129/74 46/128/46
f 44/127/44 74/126/68 69/96/63
f 44/127/44 69/96/63 47/95/47
f 43/124/43 94/130/54 101/131/77
f 43/124/43 101/131/77 75/125/69
f 102/132/78 89/133/49 7/116/7
f 102/132/78 7/116/7 76/106/70
f 101/134/77 102/132/78 76/106/70
f 101/134/77 76/106/70 75/105/69
f 100/135/55 103/136/55 83/137/55
f 100/135/55 83/137/55 54/138/55
f 104/139/55 95/140/55 49/141/55
f 104/139/55 49/141/55 84/142/55
f 103/143/55 104/139/55 84/142/55
f 103/143/55 84/142/55 83/144/55
f 60/145/60 66/146/60 87/147/77
f 60/145/60 87/147/77 85/148/77
f 86/149/78 88/150/78 61/151/57
f 86/149/78 61/151/57 55/152/57
f 85/153/77 87/154/77 88/150/78
f 85/153/77 88/150/78 86/149/78
f 41/45/41 68/155/62 73/156/67
f 41/45/41 73/156/67 42/46/42
f 73/156/67 6/6/6 4/4/4
f 73/156/67 4/4/4 42/46/42
f 4/4/4 3/3/3 23/24/23
f 4/4/4 23/24/23 42/46/42
