o sponza_232
v -82.7298 66.5982 20.8598
v -82.5975 66.5982 20.8598
v -82.4247 66.6759 20.8598
v -82.9232 66.6759 20.8598
v -83.0794 67.0594 20.8598
v -82.0831 67.0594 20.8598
v -82.1871 67.2375 20.8598
v -83.0367 67.2375 20.8598
v -82.3812 67.4156 20.8598
v -82.8837 67.4156 20.8598
v -82.3276 66.8285 20.8598
v -83.0509 66.8583 20.8598
v -81.9513 66.1125 20.8598
v -81.665 66.2721 20.8598
v -83.0367 67.2375 20.1721
v -83.0794 67.0594 20.1721
v -82.8837 67.4156 20.1721
v -82.4247 66.6759 20.1721
v -82.3276 66.8285 20.1721
v -83.0509 66.8583 20.1721
v -82.9232 66.6759 20.1721
v -81.9513 66.1125 20.1721
v -81.665 66.2721 20.1721
v -82.7298 66.5982 20.1721
v -82.5975 66.5982 20.1721
v -82.1871 67.2375 20.1721
v -82.0831 67.0594 20.1721
v -82.3812 67.4156 20.1721
v -82.7298 66.5982 20.8598
v -82.5975 66.5982 20.8598
v -82.4247 66.6759 20.8598
v -82.9232 66.6759 20.8598
v -83.0794 67.0594 20.8598
v -83.0367 67.2375 20.8598
v -82.8837 67.4156 20.8598
v -83.0509 66.8583 20.8598
v -82.3276 66.8285 20.8598
v -82.3276 66.8285 20.8598
v -81.9513 66.1125 20.8598
v -81.9513 66.1125 20.8598
v -81.665 66.2721 20.8598
v -83.0367 67.2375 20.1721
v -83.0794 67.0594 20.1721
v -82.8837 67.4156 20.1721
v -82.4247 66.6759 20.1721
v -82.3276 66.8285 20.1721
v -82.3276 66.8285 20.1721
v -83.0509 66.8583 20.1721
v -82.9232 66.6759 20.1721
v -81.9513 66.1125 20.1721
v -81.9513 66.1125 20.1721
v -81.665 66.2721 20.1721
v -82.7298 66.5982 20.1721
v -82.5975 66.5982 20.1721
vt 0.2029 0.2838
vt 0.1992 0.2736
vt 0.1884 0.2623
vt 0.2022 0.301
vt 0.1768 0.3237
vt 0.1492 0.2465
vt 0.1382 0.2595
vt 0.1618 0.3254
vt 0.1298 0.2795
vt 0.1437 0.3184
vt 0.1739 0.259
vt 0.1916 0.316
vt 0.219 0.21
vt 0.1986 0.1922
vt 0.0673 0.6159
vt 0.1206 0.615
vt 0.1204 0.6012
vt 0.067 0.602
vt 0.1208 0.6289
vt 0.0675 0.6297
vt 0.1194 0.5328
vt 0.1192 0.5209
vt 0.0658 0.5218
vt 0.066 0.5336
vt 0.0668 0.5864
vt 0.1202 0.5856
vt 0.12 0.5715
vt 0.0666 0.5723
vt 0.0658 0.5218
vt 0.1192 0.5209
vt 0.1183 0.4654
vt 0.0649 0.4662
vt 0.0649 0.4662
vt 0.1183 0.4654
vt 0.118 0.4431
vt 0.0646 0.444
vt 0.1533 0.3311
vt 0.1385 0.3399
vt 0.1791 0.3335
vt 0.164 0.3294
vt 0.2056 0.3762
vt 0.2118 0.3603
vt 0.1307 0.3731
vt 0.1365 0.387
vt 0.1921 0.3931
vt 0.1512 0.3996
vt 0.1889 0.3447
vt 0.1305 0.3564
vt 0.2357 0.2909
vt 0.2104 0.2816
vt 0.0662 0.547
vt 0.0664 0.5573
vt 0.1197 0.5564
vt 0.1196 0.5462
vn 0 0 1
vn -0.8904 0.4552 0
vn -0.9989 0.0474 0
vn -0.7584 0.6518 0
vn 0.6544 -0.7561 0
vn 0.8436 -0.5369 0
vn 0.8437 -0.5369 0
vn 0.6545 -0.7561 0
vn -0.9302 -0.367 0
vn -0.6217 -0.7832 0
vn -0.6218 -0.7832 0
vn -0.8852 -0.4652 0
vn 0.4871 -0.8733 0
vn 0 0 -1
vn 0.2099 -0.9777 0
vn -0.1899 -0.9818 0
vn -0.19 -0.9818 0
f 29/1/1 30/2/1 31/3/1
f 29/1/1 31/3/1 32/4/1
f 33/5/1 6/6/1 7/7/1
f 33/5/1 7/7/1 34/8/1
f 34/8/1 7/7/1 9/9/1
f 34/8/1 9/9/1 35/10/1
f 37/11/1 6/6/1 33/5/1
f 37/11/1 33/5/1 36/12/1
f 32/4/1 31/3/1 37/11/1
f 32/4/1 37/11/1 36/12/1
f 37/11/1 39/13/1 41/14/1
f 37/11/1 41/14/1 6/6/1
f 8/15/2 42/16/2 43/17/3
f 8/15/2 43/17/3 5/18/3
f 44/19/4 42/16/2 8/15/2
f 44/19/4 8/15/2 10/20/4
f 45/21/5 46/22/6 38/23/7
f 45/21/5 38/23/7 3/24/8
f 12/25/9 48/26/9 49/27/10
f 12/25/9 49/27/10 4/28/11
f 11/29/12 47/30/12 50/31/12
f 11/29/12 50/31/12 40/32/12
f 13/33/13 51/34/13 52/35/13
f 13/33/13 52/35/13 14/36/13
f 53/37/14 21/38/14 18/39/14
f 53/37/14 18/39/14 54/40/14
f 26/41/14 27/42/14 16/43/14
f 26/41/14 16/43/14 15/44/14
f 28/45/14 26/41/14 15/44/14
f 28/45/14 15/44/14 17/46/14
f 16/43/14 27/42/14 19/47/14
f 16/43/14 19/47/14 20/48/14
f 21/38/14 20/48/14 19/47/14
f 21/38/14 19/47/14 18/39/14
f 19/47/14 27/42/14 23/49/14
f 19/47/14 23/49/14 22/50/14
f 2/51/15 1/52/16 24/53/17
f 2/51/15 24/53/17 25/54/15
f 1/52/16 4/28/11 49/27/10
f 1/52/16 49/27/10 24/53/17
f 43/17/3 48/26/9 12/25/9
f 43/17/3 12/25/9 5/18/3
f 25/54/15 45/21/5 3/24/8
f 25/54/15 3/24/8 2/51/15
