o sponza_61
v -78.7785 92.7364 -24.71
v -78.7785 99.0796 -24.71
v -78.7785 99.0796 -27.4777
v -78.7785 92.7364 -27.4777
v -75.9728 92.7364 -24.131
v -75.9728 101.447 -24.131
v -76.2839 101.136 -24.131
v -76.2839 92.7364 -24.131
v -75.9728 101.447 -27.4777
v -75.9728 92.7364 -27.4777
v -76.7589 92.7364 -24.71
v -76.7589 100.661 -24.71
v -80.6306 100.661 -24.71
v -80.6306 99.0796 -24.71
v -80.6306 101.136 -24.131
v -80.6306 99.0796 -27.4777
v -80.6306 101.447 -24.131
v -80.6306 101.447 -27.4777
v -82.4828 99.0796 -27.4777
v -82.4828 99.0796 -24.71
v -82.4828 92.7364 -24.71
v -82.4828 92.7364 -27.4777
v -84.6947 101.136 -24.131
v -85.0058 101.447 -24.131
v -85.0058 92.7364 -24.131
v -84.6947 92.7364 -24.131
v -85.0058 101.447 -27.4777
v -85.0058 92.7364 -27.4777
v -84.2197 100.661 -24.71
v -84.2197 92.7364 -24.71
v -78.7785 92.7364 -24.71
v -78.7785 99.0796 -24.71
v -78.7785 99.0796 -24.71
v -78.7785 99.0796 -27.4777
v -75.9728 92.7364 -24.131
v -75.9728 101.447 -24.131
v -75.9728 101.447 -24.131
v -75.9728 101.447 -27.4777
v -80.6306 99.0796 -24.71
v -80.6306 101.447 -24.131
v -82.4828 99.0796 -27.4777
v -82.4828 99.0796 -24.71
v -82.4828 99.0796 -24.71
v -82.4828 92.7364 -24.71
v -85.0058 101.447 -24.131
v -85.0058 101.447 -24.131
v -85.0058 92.7364 -24.131
v -85.0058 101.447 -27.4777
vt 0.9965 0.1543
vt 0.7878 0.1543
vt 0.7878 0.0638
vt 0.9965 0.0638
vt 0.9965 0.2169
vt 0.7282 0.2169
vt 0.7384 0.2067
vt 0.9965 0.2067
vt 0.7282 0.3263
vt 0.7282 0.2169
vt 0.9965 0.2169
vt 0.9965 0.3263
vt 0.7878 0.1543
vt 0.9965 0.1543
vt 0.9965 0.1878
vt 0.7541 0.1878
vt 0.8487 0.1878
vt 0.8487 0.1543
vt 0.8487 0.2067
vt 0.7878 0.0638
vt 0.7878 0.1543
vt 0.8487 0.1543
vt 0.8487 0.0638
vt 0.8487 0.2169
vt 0.7282 0.2169
vt 0.7282 0.3263
vt 0.8487 0.3263
vt 0.8487 0.2169
vt 0.7878 0.0638
vt 0.7878 0.1543
vt 0.9965 0.1543
vt 0.9965 0.0638
vt 0.7384 0.2067
vt 0.7282 0.2169
vt 0.9965 0.2169
vt 0.9965 0.2067
vt 0.9965 0.2169
vt 0.7282 0.2169
vt 0.7282 0.3263
vt 0.9965 0.3263
vt 0.7878 0.1543
vt 0.7541 0.1878
vt 0.9965 0.1878
vt 0.9965 0.1543
vt 0.7878 0.1543
vt 0.7878 0.0638
vt 0.7282 0.3263
vt 0.7282 0.2169
vn -1 -0 0
vn 0 -0 1
vn -0.1277 -0.1277 0.9836
vn -0.4277 -0 0.9039
vn 1 0 0
vn -0.3387 -0.3387 0.8778
vn 0 -0.4277 0.9039
vn -0 -1 0
vn -0 1 0
vn 0.1277 -0.1277 0.9836
vn 0.4277 -0 0.9039
vn 0.3387 -0.3387 0.8778
f 31/1/1 32/2/1 34/3/1
f 31/1/1 34/3/1 4/4/1
f 35/5/2 36/6/2 7/7/3
f 35/5/2 7/7/3 8/8/4
f 38/9/5 37/10/5 5/11/5
f 38/9/5 5/11/5 10/12/5
f 33/13/2 1/14/2 11/15/4
f 33/13/2 11/15/4 12/16/6
f 12/16/6 11/15/4 8/8/4
f 12/16/6 8/8/4 7/7/3
f 33/13/2 12/16/6 13/17/7
f 33/13/2 13/17/7 39/18/2
f 12/16/6 7/7/3 15/19/7
f 12/16/6 15/19/7 13/17/7
f 3/20/8 2/21/8 14/22/8
f 3/20/8 14/22/8 16/23/8
f 7/7/3 36/6/2 40/24/2
f 7/7/3 40/24/2 15/19/7
f 6/25/9 9/26/9 18/27/9
f 6/25/9 18/27/9 17/28/9
f 41/29/5 42/30/5 44/31/5
f 41/29/5 44/31/5 22/32/5
f 23/33/10 45/34/2 47/35/2
f 23/33/10 47/35/2 26/36/11
f 25/37/1 46/38/1 48/39/1
f 25/37/1 48/39/1 28/40/1
f 43/41/2 29/42/12 30/43/11
f 43/41/2 30/43/11 21/44/2
f 29/42/12 23/33/10 26/36/11
f 29/42/12 26/36/11 30/43/11
f 43/41/2 39/18/2 13/17/7
f 43/41/2 13/17/7 29/42/12
f 29/42/12 13/17/7 15/19/7
f 29/42/12 15/19/7 23/33/10
f 14/22/8 20/45/8 19/46/8
f 14/22/8 19/46/8 16/23/8
f 40/24/2 45/34/2 23/33/10
f 40/24/2 23/33/10 15/19/7
f 18/27/9 27/47/9 24/48/9
f 18/27/9 24/48/9 17/28/9
