o sponza_66
v -108.642 130.623 31.8902
v -104.549 131.449 25.1037
v 93.5004 131.449 25.1037
v 99.7596 130.623 31.8902
v 93.5004 131.449 -33.2052
v 99.7596 130.623 -40.8146
v -104.549 131.449 -33.2052
v -108.642 130.623 -40.8146
v -108.642 90.7744 31.8901
v 99.7596 90.7744 31.8901
v 87.2412 90.7744 18.3172
v -100.456 90.7744 18.3172
v 99.7596 90.7745 -40.8146
v 87.2412 90.7745 -25.5959
v -108.642 90.7745 -40.8146
v -100.456 90.7745 -25.5959
v -100.456 130.32 18.3172
v 87.2412 130.32 18.3172
v 87.2412 130.32 -25.5959
v -100.456 130.32 -25.5959
v -108.642 130.623 31.8902
v -108.642 130.623 31.8902
v 99.7596 130.623 31.8902
v 99.7596 130.623 31.8902
v 99.7596 130.623 -40.8146
v 99.7596 130.623 -40.8146
v -108.642 130.623 -40.8146
v -108.642 130.623 -40.8146
v -108.642 90.7744 31.8901
v -108.642 90.7744 31.8901
v 99.7596 90.7744 31.8901
v 99.7596 90.7744 31.8901
v 99.7596 90.7745 -40.8146
v 99.7596 90.7745 -40.8146
v -108.642 90.7745 -40.8146
v -108.642 90.7745 -40.8146
vt 0.8033 2.3417
vt 0.8899 2.4853
vt 5.0805 2.4853
vt 5.213 2.3417
vt 5.0805 3.7191
vt 5.213 3.8801
vt 0.8899 3.7191
vt 0.8033 3.8801
vt 0.8033 1.5384
vt 5.213 1.5384
vt 4.9481 1.2512
vt 0.9765 1.2512
vt 5.213 0
vt 4.9481 0.322
vt 0.8033 0
vt 0.9765 0.322
vt 0.9765 2.6289
vt 4.9481 2.6289
vt 4.9481 3.5581
vt 0.9765 3.5581
vt 0.8033 3.8801
vt 0.8033 2.3417
vt 0 2.3417
vt 0 3.8801
vt 0.8033 2.3417
vt 5.213 2.3417
vt 5.213 1.5384
vt 0.8033 1.5384
vt 6.0163 3.8801
vt 6.0163 2.3417
vt 5.213 2.3417
vt 5.213 3.8801
vt 0.8033 4.6834
vt 5.213 4.6834
vt 5.213 3.8801
vt 0.8033 3.8801
vn -0 -0.9927 -0.1208
vn -0.1308 -0.9914 0
vn 0 -0.9942 0.1079
vn 0.1978 -0.9802 -0
vn 0 1 0
vn 0 -0.9864 0.1641
vn 0.1776 -0.9841 0
vn 0 -0.9892 -0.1468
vn -0.266 -0.964 0
vn 0.617 -0.5543 0.5586
vn 0.6024 -0.5624 -0.5664
vn 0.5766 0.5777 -0.5778
vn 0.5566 0.5874 0.5875
vn 0.5624 -0.5664 -0.6024
vn -0.558 -0.5585 -0.6138
vn -0.5874 0.5875 -0.5567
vn 0.5777 0.5778 -0.5766
vn -0.5766 0.5777 0.5778
vn -0.5567 0.5874 -0.5875
vn -0.6138 -0.558 -0.5585
vn -0.5933 -0.5685 0.5699
vn 0.5874 0.5875 0.5566
vn -0.5777 0.5778 0.5766
vn -0.5685 -0.5699 0.5933
vn 0.5543 -0.5586 0.617
f 21/1/1 2/2/1 3/3/1
f 21/1/1 3/3/1 23/4/1
f 23/4/2 3/3/2 5/5/2
f 23/4/2 5/5/2 25/6/2
f 5/5/3 7/7/3 27/8/3
f 5/5/3 27/8/3 25/6/3
f 21/1/4 27/8/4 7/7/4
f 21/1/4 7/7/4 2/2/4
f 29/9/5 31/10/5 11/11/5
f 29/9/5 11/11/5 12/12/5
f 31/10/5 33/13/5 14/14/5
f 31/10/5 14/14/5 11/11/5
f 35/15/5 16/16/5 14/14/5
f 35/15/5 14/14/5 33/13/5
f 29/9/5 12/12/5 16/16/5
f 29/9/5 16/16/5 35/15/5
f 2/2/6 17/17/6 18/18/6
f 2/2/6 18/18/6 3/3/6
f 3/3/7 18/18/7 19/19/7
f 3/3/7 19/19/7 5/5/7
f 19/19/8 20/20/8 7/7/8
f 19/19/8 7/7/8 5/5/8
f 20/20/9 17/17/9 2/2/9
f 20/20/9 2/2/9 7/7/9
f 28/21/10 22/22/11 30/23/12
f 28/21/10 30/23/12 36/24/13
f 1/25/14 24/26/15 32/27/16
f 1/25/14 32/27/16 9/28/17
f 34/29/18 10/30/19 4/31/20
f 34/29/18 4/31/20 26/32/21
f 15/33/22 13/34/23 6/35/24
f 15/33/22 6/35/24 8/36/25
