o sponza_15
v 8.32853 22.0997 -31.6869
v 8.32853 22.0997 -23.9991
v 16.0039 22.0997 -23.9991
v 16.0039 22.0997 -31.6869
v 8.32853 20.7888 -31.6869
v 8.32853 21.2978 -31.6869
v 16.0039 21.2978 -31.6869
v 16.0039 20.7888 -31.6869
v 8.32853 20.7888 -23.9991
v 8.32853 21.2978 -23.9991
v 16.0039 20.7888 -23.9991
v 16.0039 21.2978 -23.9991
v 15.7853 20.4087 -24.2181
v 15.7853 20.4087 -31.4679
v 8.54721 20.4087 -24.2181
v 8.54721 20.4087 -31.4679
v 15.2326 20.1172 -24.7717
v 15.2326 20.1172 -30.9143
v 9.09987 20.1172 -24.7717
v 9.09987 20.1172 -30.9143
v 11.0772 -0.246058 -25.2371
v 11.0772 18.6651 -25.2371
v 9.56647 18.6651 -26.7478
v 9.56647 -0.246057 -26.7478
v 13.2136 -0.246058 -25.2371
v 13.2136 18.6651 -25.2371
v 14.7243 -0.246057 -26.7478
v 14.7243 18.6651 -26.7478
v 14.7243 -0.246056 -28.8842
v 14.7243 18.6651 -28.8842
v 13.2136 -0.246055 -30.3949
v 13.2136 18.6652 -30.3949
v 11.0772 -0.246055 -30.3949
v 11.0772 18.6652 -30.3949
v 9.56647 -0.246056 -28.8842
v 9.56647 18.6651 -28.8842
v 11.0772 19.1226 -25.2371
v 11.0119 19.25 -25.0796
v 9.40903 19.25 -26.6825
v 9.56647 19.1226 -26.7478
v 13.2136 19.1226 -25.2371
v 13.2788 19.25 -25.0796
v 14.7243 19.1226 -26.7478
v 14.8818 19.25 -26.6825
v 14.7243 19.1226 -28.8842
v 14.8818 19.25 -28.9494
v 13.2136 19.1226 -30.3949
v 13.2788 19.25 -30.5523
v 11.0772 19.1226 -30.3949
v 11.0119 19.25 -30.5523
v 9.56647 19.1226 -28.8842
v 9.40903 19.25 -28.9494
v 11.0571 19.6323 -25.1886
v 10.9842 19.9261 -25.0125
v 9.34191 19.9261 -26.6547
v 9.51797 19.6323 -26.7277
v 13.2337 19.6323 -25.1886
v 13.3066 19.9261 -25.0125
v 14.7728 19.6323 -26.7277
v 14.9489 19.9261 -26.6547
v 14.7728 19.6323 -28.9043
v 14.9489 19.9261 -28.9772
v 13.2337 19.6323 -30.4434
v 13.3066 19.9261 -30.6195
v 11.0571 19.6323 -30.4434
v 10.9842 19.9261 -30.6195
v 9.51797 19.6323 -28.9043
v 9.34191 19.9261 -28.9772
v 10.9738 18.8939 -24.9875
v 9.31696 18.8939 -26.6444
v 13.317 18.8939 -24.9875
v 14.9738 18.8939 -26.6444
v 14.9738 18.8939 -28.9876
v 13.317 18.8939 -30.6444
v 10.9738 18.8939 -30.6444
v 9.31696 18.8939 -28.9876
v 9.5041 19.3774 -26.7219
v 11.0513 19.3774 -25.1747
v 13.2395 19.3774 -25.1747
v 14.7867 19.3774 -26.7219
v 14.7867 19.3774 -28.91
v 13.2395 19.3774 -30.4573
v 11.0513 19.3774 -30.4573
v 9.5041 19.3774 -28.91
v 8.42138 21.2978 -31.5941
v 8.42138 21.521 -31.5941
v 15.9111 21.521 -31.5941
v 15.9111 21.2978 -31.5941
v 8.42138 21.2978 -24.092
v 8.42138 21.5209 -24.092
v 15.9111 21.2978 -24.092
v 15.9111 21.5209 -24.092
v 16.0039 21.521 -31.6869
v 8.32853 21.521 -31.6869
v 8.32853 21.5209 -23.9991
v 16.0039 21.5209 -23.9991
v 8.32853 22.0997 -31.6869
v 8.32853 22.0997 -31.6869
v 8.32853 22.0997 -23.9991
v 8.32853 22.0997 -23.9991
v 16.0039 22.0997 -23.9991
v 16.0039 22.0997 -23.9991
v 16.0039 22.0997 -31.6869
v 16.0039 22.0997 -31.6869
v 8.32853 21.2978 -31.6869
v 8.32853 21.2978 -31.6869
v 16.0039 21.2978 -31.6869
v 16.0039 21.2978 -31.6869
v 8.32853 21.2978 -23.9991
v 8.32853 21.2978 -23.9991
v 16.0039 21.2978 -23.9991
v 16.0039 21.2978 -23.9991
v 11.0119 19.25 -25.0796
v 9.40903 19.25 -26.6825
v 11.0772 19.1226 -25.2371
v 9.56647 19.1226 -26.7478
v 13.2788 19.25 -25.0796
v 13.2136 19.1226 -25.2371
v 14.8818 19.25 -26.6825
v 14.7243 19.1226 -26.7478
v 14.8818 19.25 -28.9494
v 14.7243 19.1226 -28.8842
v 13.2788 19.25 -30.5523
v 13.2136 19.1226 -30.3949
v 11.0119 19.25 -30.5523
v 11.0772 19.1226 -30.3949
v 9.40903 19.25 -28.9494
v 9.56647 19.1226 -28.8842
v 10.9738 18.8939 -24.9875
v 9.31696 18.8939 -26.6444
v 13.317 18.8939 -24.9875
v 14.9738 18.8939 -26.6444
v 14.9738 18.8939 -28.9876
v 13.317 18.8939 -30.6444
v 10.9738 18.8939 -30.6444
v 9.31696 18.8939 -28.9876
v 8.42138 21.2978 -31.5941
v 8.42138 21.2978 -31.5941
v 8.42138 21.521 -31.5941
v 8.42138 21.521 -31.5941
v 15.9111 21.521 -31.5941
v 15.9111 21.521 -31.5941
v 15.9111 21.2978 -31.5941
v 15.9111 21.2978 -31.5941
v 8.42138 21.2978 -24.092
v 8.42138 21.2978 -24.092
v 8.42138 21.5209 -24.092
v 8.42138 21.5209 -24.092
v 15.9111 21.2978 -24.092
v 15.9111 21.2978 -24.092
v 15.9111 21.5209 -24.092
v 15.9111 21.5209 -24.092
v 16.0039 21.521 -31.6869
v 16.0039 21.521 -31.6869
v 8.32853 21.521 -31.6869
v 8.32853 21.521 -31.6869
v 8.32853 21.5209 -23.9991
v 8.32853 21.5209 -23.9991
v 16.0039 21.5209 -23.9991
v 16.0039 21.5209 -23.9991
vt 0.1052 0.7136
vt 0.2969 0.7136
vt 0.2969 0.905
vt 0.1052 0.905
vt 0.0579 0.2559
vt 0.0419 0.2559
vt 0.0419 0.0149
vt 0.0579 0.0149
vt 0.0577 0.4944
vt 0.0419 0.4944
vt 0.0419 0.2559
vt 0.0577 0.7325
vt 0.0419 0.7325
vt 0.0419 0.4944
vt 0.0579 0.974
vt 0.0419 0.974
vt 0.0419 0.7325
vt 0.0698 0.7394
vt 0.0698 0.9671
vt 0.0694 0.5012
vt 0.0694 0.7257
vt 0.0694 0.2627
vt 0.0694 0.4876
vt 0.0698 0.0217
vt 0.0698 0.2491
vt 0.0871 0.7568
vt 0.0871 0.9497
vt 0.0866 0.5183
vt 0.0866 0.7086
vt 0.0866 0.2799
vt 0.0866 0.4704
vt 0.0872 0.0391
vt 0.0872 0.2317
vt 0.8927 0.0086
vt 0.8927 0.9003
vt 0.8215 0.9003
vt 0.8215 0.0086
vt 0.9935 0.0086
vt 0.9935 0.9003
vt 0.3768 0.0086
vt 0.3768 0.9003
vt 0.3056 0.9003
vt 0.3056 0.0086
vt 0.4775 0.0086
vt 0.4775 0.9003
vt 0.5488 0.0086
vt 0.5488 0.9003
vt 0.6495 0.0086
vt 0.6495 0.9003
vt 0.7207 0.0086
vt 0.7207 0.9003
vt 0.2428 0.9414
vt 0.2428 0.9493
vt 0.1356 0.9493
vt 0.1356 0.9414
vt 0.35 0.9414
vt 0.35 0.9493
vt 0.4571 0.9414
vt 0.4571 0.9493
vt 0.5643 0.9414
vt 0.5643 0.9493
vt 0.6715 0.9414
vt 0.6715 0.9493
vt 0.7787 0.9414
vt 0.7787 0.9493
vt 0.8859 0.9414
vt 0.8859 0.9493
vt 0.9931 0.9414
vt 0.9931 0.9493
vt 0.2428 0.9727
vt 0.2428 0.9908
vt 0.1356 0.9908
vt 0.1356 0.9727
vt 0.35 0.9727
vt 0.35 0.9908
vt 0.4571 0.9727
vt 0.4571 0.9908
vt 0.5643 0.9727
vt 0.5643 0.9908
vt 0.6715 0.9727
vt 0.6715 0.9908
vt 0.7787 0.9727
vt 0.7787 0.9908
vt 0.8859 0.9727
vt 0.8859 0.9908
vt 0.9931 0.9727
vt 0.9931 0.9908
vt 0.0941 0.5768
vt 0.0941 0.6488
vt 0.145 0.5258
vt 0.0941 0.34
vt 0.0941 0.412
vt 0.0964 0.1725
vt 0.148 0.2241
vt 0.0964 0.0996
vt 0.148 0.048
vt 0.0961 0.8159
vt 0.0961 0.8889
vt 0.145 0.6998
vt 0.2428 0.9274
vt 0.1356 0.9274
vt 0.1356 0.9133
vt 0.2428 0.9133
vt 0.35 0.9274
vt 0.35 0.9133
vt 0.4571 0.9274
vt 0.4571 0.9133
vt 0.5643 0.9274
vt 0.5643 0.9133
vt 0.6715 0.9274
vt 0.6715 0.9133
vt 0.7787 0.9274
vt 0.7787 0.9133
vt 0.8859 0.9274
vt 0.8859 0.9133
vt 0.9931 0.9274
vt 0.9931 0.9133
vt 0.2428 0.9414
vt 0.1356 0.9414
vt 0.1356 0.9274
vt 0.2428 0.9274
vt 0.35 0.9414
vt 0.35 0.9274
vt 0.4571 0.9414
vt 0.4571 0.9274
vt 0.5643 0.9414
vt 0.5643 0.9274
vt 0.6715 0.9414
vt 0.6715 0.9274
vt 0.7787 0.9414
vt 0.7787 0.9274
vt 0.8859 0.9414
vt 0.8859 0.9274
vt 0.9931 0.9414
vt 0.9931 0.9274
vt 0.1356 0.9571
vt 0.2428 0.9571
vt 0.35 0.9571
vt 0.4571 0.9571
vt 0.5643 0.9571
vt 0.6715 0.9571
vt 0.7787 0.9571
vt 0.8859 0.9571
vt 0.9931 0.9571
vt 0.1356 0.9493
vt 0.2428 0.9493
vt 0.35 0.9493
vt 0.4571 0.9493
vt 0.5643 0.9493
vt 0.6715 0.9493
vt 0.7787 0.9493
vt 0.8859 0.9493
vt 0.9931 0.9493
vt 0.0389 0.2559
vt 0.0318 0.2559
vt 0.0318 0.0178
vt 0.0389 0.0178
vt 0.0389 0.4944
vt 0.0318 0.4944
vt 0.0318 0.2559
vt 0.0389 0.2559
vt 0.0389 0.7325
vt 0.0318 0.7325
vt 0.0318 0.4944
vt 0.0389 0.4944
vt 0.0389 0.971
vt 0.0318 0.971
vt 0.0318 0.7325
vt 0.0389 0.7325
vt 0.0059 0.7385
vt 0.0059 0.4945
vt 0.0243 0.4945
vt 0.0243 0.7385
vt 0.0059 0.9829
vt 0.0059 0.7385
vt 0.0243 0.7385
vt 0.0243 0.9829
vt 0.0059 0.2501
vt 0.0059 0.0061
vt 0.0243 0.0061
vt 0.0243 0.2501
vt 0.0059 0.4945
vt 0.0059 0.2501
vt 0.0243 0.2501
vt 0.0243 0.4945
vt 0.0419 0.2559
vt 0.0389 0.2559
vt 0.0389 0.0178
vt 0.0419 0.0149
vt 0.0419 0.4944
vt 0.0389 0.4944
vt 0.0419 0.7325
vt 0.0389 0.7325
vt 0.0419 0.974
vt 0.0389 0.971
vt 0.0243 0.4945
vt 0.0272 0.4974
vt 0.0272 0.7355
vt 0.0243 0.7385
vt 0.0243 0.2501
vt 0.0272 0.253
vt 0.0272 0.4915
vt 0.0243 0.0061
vt 0.0272 0.009
vt 0.0272 0.2471
vt 0.0272 0.7414
vt 0.0272 0.9799
vt 0.0243 0.9829
vn 0 1 0
vn -0.6756 -0.2951 -0.6757
vn 0 0 -1
vn 0.6756 -0.2951 -0.6757
vn -0.6756 -0.2951 0.6757
vn -1 0 0
vn 0.6756 -0.2951 0.6757
vn 0 0 1
vn 1 0 0
vn 0.4627 -0.7564 0.4624
vn 0.4627 -0.7564 -0.4624
vn -0.4627 -0.7564 0.4624
vn -0.4627 -0.7564 -0.4624
vn 0.2177 -0.9516 0.217
vn 0.2165 -0.952 -0.2162
vn -0.2183 -0.9512 0.218
vn -0.2171 -0.9517 -0.2172
vn -0.3827 -0 0.9239
vn -0.3387 -0.4655 0.8177
vn -0.8177 -0.4655 0.3387
vn -0.9239 -0 0.3827
vn 0.3827 -0 0.9239
vn 0.3387 -0.4655 0.8177
vn 0.9239 -0 0.3827
vn 0.8177 -0.4655 0.3387
vn 0.9239 0 -0.3827
vn 0.8177 -0.4655 -0.3387
vn 0.3827 0 -0.9239
vn 0.3387 -0.4655 -0.8177
vn -0.3827 0 -0.9239
vn -0.3387 -0.4655 -0.8177
vn -0.9239 0 -0.3827
vn -0.8177 -0.4655 -0.3387
vn -0.2291 -0.8009 0.5532
vn -0.5532 -0.8009 0.2292
vn -0.5532 -0.8009 0.2291
vn 0.2292 -0.8009 0.5532
vn 0.2291 -0.8009 0.5532
vn 0.5532 -0.8009 0.2291
vn 0.5532 -0.8009 -0.2292
vn 0.5532 -0.8009 -0.2291
vn 0.2292 -0.8009 -0.5532
vn 0.2291 -0.8009 -0.5532
vn -0.2291 -0.8009 -0.5532
vn -0.5532 -0.8009 -0.2292
vn -0.5532 -0.8009 -0.2291
vn -0.3678 -0.2764 0.8879
vn -0.1476 -0.7551 0.6388
vn -0.6379 -0.7559 0.1476
vn -0.8879 -0.2764 0.3678
vn 0.3678 -0.2764 0.8879
vn 0.1473 -0.7551 0.6389
vn 0.8879 -0.2764 0.3678
vn 0.6079 -0.7801 0.1479
vn 0.8879 -0.2764 -0.3678
vn 0.608 -0.7801 -0.1475
vn 0.3678 -0.2764 -0.8879
vn 0.1477 -0.7857 -0.6008
vn -0.3678 -0.2764 -0.8879
vn -0.148 -0.7856 -0.6007
vn -0.8879 -0.2764 -0.3678
vn -0.6379 -0.7559 -0.1472
vn -0.2473 -0.7631 0.5971
vn -0.5971 -0.7631 0.2473
vn 0.2473 -0.7631 0.5971
vn 0.5971 -0.7631 0.2473
vn 0.5971 -0.7631 -0.2473
vn 0.2473 -0.7631 -0.5971
vn -0.2473 -0.7631 -0.5971
vn -0.5971 -0.7631 -0.2473
vn -0.2473 0.7631 0.5971
vn -0.5971 0.7631 0.2473
vn 0.2473 0.7631 0.5971
vn 0.5971 0.7631 0.2473
vn 0.5971 0.7631 -0.2473
vn 0.2473 0.7631 -0.5971
vn -0.2473 0.7631 -0.5971
vn -0.5971 0.7631 -0.2473
vn -0.8513 0.3886 0.3526
vn -0.3526 0.3886 0.8513
vn 0.3526 0.3886 0.8513
vn 0.8513 0.3886 0.3526
vn 0.8513 0.3886 -0.3526
vn 0.3526 0.3886 -0.8513
vn -0.3526 0.3886 -0.8513
vn -0.8513 0.3886 -0.3526
vn -0.7187 0.6283 0.2977
vn -0.2977 0.6284 0.7187
vn 0.2977 0.6284 0.7187
vn 0.7187 0.6283 0.2977
vn 0.7187 0.6283 -0.2977
vn 0.2977 0.6283 -0.7187
vn -0.2977 0.6283 -0.7187
vn -0.7187 0.6283 -0.2977
vn -0 -1 -0
f 97/1/1 99/2/1 101/3/1
f 97/1/1 101/3/1 103/4/1
f 5/5/2 105/6/3 107/7/3
f 5/5/2 107/7/3 8/8/4
f 9/9/5 109/10/6 106/11/6
f 9/9/5 106/11/6 5/5/2
f 11/12/7 111/13/8 110/14/8
f 11/12/7 110/14/8 9/9/5
f 8/15/4 108/16/9 112/17/9
f 8/15/4 112/17/9 11/12/7
f 11/12/7 13/18/10 14/19/11
f 11/12/7 14/19/11 8/15/4
f 9/9/5 15/20/12 13/21/10
f 9/9/5 13/21/10 11/12/7
f 5/5/2 16/22/13 15/23/12
f 5/5/2 15/23/12 9/9/5
f 8/8/4 14/24/11 16/25/13
f 8/8/4 16/25/13 5/5/2
f 17/26/14 18/27/15 14/19/11
f 17/26/14 14/19/11 13/18/10
f 19/28/16 17/29/14 13/21/10
f 19/28/16 13/21/10 15/20/12
f 20/30/17 19/31/16 15/23/12
f 20/30/17 15/23/12 16/22/13
f 18/32/15 20/33/17 16/25/13
f 18/32/15 16/25/13 14/24/11
f 21/34/18 22/35/19 23/36/20
f 21/34/18 23/36/20 24/37/21
f 25/38/22 26/39/23 22/35/19
f 25/38/22 22/35/19 21/34/18
f 27/40/24 28/41/25 26/42/23
f 27/40/24 26/42/23 25/43/22
f 29/44/26 30/45/27 28/41/25
f 29/44/26 28/41/25 27/40/24
f 31/46/28 32/47/29 30/45/27
f 31/46/28 30/45/27 29/44/26
f 33/48/30 34/49/31 32/47/29
f 33/48/30 32/47/29 31/46/28
f 35/50/32 36/51/33 34/49/31
f 35/50/32 34/49/31 33/48/30
f 24/37/21 23/36/20 36/51/33
f 24/37/21 36/51/33 35/50/32
f 115/52/34 113/53/34 114/54/35
f 115/52/34 114/54/35 116/55/36
f 118/56/37 117/57/38 113/53/34
f 118/56/37 113/53/34 115/52/34
f 120/58/39 119/59/39 117/57/38
f 120/58/39 117/57/38 118/56/37
f 122/60/40 121/61/41 119/59/39
f 122/60/40 119/59/39 120/58/39
f 124/62/42 123/63/43 121/61/41
f 124/62/42 121/61/41 122/60/40
f 126/64/44 125/65/44 123/63/43
f 126/64/44 123/63/43 124/62/42
f 128/66/45 127/67/46 125/65/44
f 128/66/45 125/65/44 126/64/44
f 116/68/36 114/69/35 127/67/46
f 116/68/36 127/67/46 128/66/45
f 53/70/47 54/71/48 55/72/49
f 53/70/47 55/72/49 56/73/50
f 57/74/51 58/75/52 54/71/48
f 57/74/51 54/71/48 53/70/47
f 59/76/53 60/77/54 58/75/52
f 59/76/53 58/75/52 57/74/51
f 61/78/55 62/79/56 60/77/54
f 61/78/55 60/77/54 59/76/53
f 63/80/57 64/81/58 62/79/56
f 63/80/57 62/79/56 61/78/55
f 65/82/59 66/83/60 64/81/58
f 65/82/59 64/81/58 63/80/57
f 67/84/61 68/85/62 66/83/60
f 67/84/61 66/83/60 65/82/59
f 56/86/50 55/87/49 68/85/62
f 56/86/50 68/85/62 67/84/61
f 19/28/16 54/88/48 58/89/52
f 19/28/16 58/89/52 17/29/14
f 19/28/16 55/90/49 54/88/48
f 19/31/16 20/30/17 68/91/62
f 19/31/16 68/91/62 55/92/49
f 20/33/17 66/93/60 68/94/62
f 20/33/17 18/32/15 64/95/58
f 20/33/17 64/95/58 66/93/60
f 18/32/15 62/96/56 64/95/58
f 17/26/14 60/97/54 62/98/56
f 17/26/14 62/98/56 18/27/15
f 17/29/14 58/89/52 60/99/54
f 129/100/63 130/101/64 23/102/20
f 129/100/63 23/102/20 22/103/19
f 131/104/65 129/100/63 22/103/19
f 131/104/65 22/103/19 26/105/23
f 132/106/66 131/104/65 26/105/23
f 132/106/66 26/105/23 28/107/25
f 133/108/67 132/106/66 28/107/25
f 133/108/67 28/107/25 30/109/27
f 134/110/68 133/108/67 30/109/27
f 134/110/68 30/109/27 32/111/29
f 135/112/69 134/110/68 32/111/29
f 135/112/69 32/111/29 34/113/31
f 136/114/70 135/112/69 34/113/31
f 136/114/70 34/113/31 36/115/33
f 130/116/64 136/114/70 36/115/33
f 130/116/64 36/115/33 23/117/20
f 37/118/71 40/119/72 70/120/72
f 37/118/71 70/120/72 69/121/71
f 41/122/73 37/118/71 69/121/71
f 41/122/73 69/121/71 71/123/73
f 43/124/74 41/122/73 71/123/73
f 43/124/74 71/123/73 72/125/74
f 45/126/75 43/124/74 72/125/74
f 45/126/75 72/125/74 73/127/75
f 47/128/76 45/126/75 73/127/75
f 47/128/76 73/127/75 74/129/76
f 49/130/77 47/128/76 74/129/76
f 49/130/77 74/129/76 75/131/77
f 51/132/78 49/130/77 75/131/77
f 51/132/78 75/131/77 76/133/78
f 40/134/72 51/132/78 76/133/78
f 40/134/72 76/133/78 70/135/72
f 53/70/47 56/73/50 77/136/79
f 53/70/47 77/136/79 78/137/80
f 57/74/51 53/70/47 78/137/80
f 57/74/51 78/137/80 79/138/81
f 59/76/53 57/74/51 79/138/81
f 59/76/53 79/138/81 80/139/82
f 61/78/55 59/76/53 80/139/82
f 61/78/55 80/139/82 81/140/83
f 63/80/57 61/78/55 81/140/83
f 63/80/57 81/140/83 82/141/84
f 65/82/59 63/80/57 82/141/84
f 65/82/59 82/141/84 83/142/85
f 67/84/61 65/82/59 83/142/85
f 67/84/61 83/142/85 84/143/86
f 56/86/50 67/84/61 84/143/86
f 56/86/50 84/143/86 77/144/79
f 78/137/80 77/136/79 39/145/87
f 78/137/80 39/145/87 38/146/88
f 79/138/81 78/137/80 38/146/88
f 79/138/81 38/146/88 42/147/89
f 80/139/82 79/138/81 42/147/89
f 80/139/82 42/147/89 44/148/90
f 81/140/83 80/139/82 44/148/90
f 81/140/83 44/148/90 46/149/91
f 82/141/84 81/140/83 46/149/91
f 82/141/84 46/149/91 48/150/92
f 83/142/85 82/141/84 48/150/92
f 83/142/85 48/150/92 50/151/93
f 84/143/86 83/142/85 50/151/93
f 84/143/86 50/151/93 52/152/94
f 77/144/79 84/143/86 52/152/94
f 77/144/79 52/152/94 39/153/87
f 137/154/3 139/155/3 141/156/3
f 137/154/3 141/156/3 143/157/3
f 145/158/6 147/159/6 140/160/6
f 145/158/6 140/160/6 138/161/6
f 149/162/8 151/163/8 148/164/8
f 149/162/8 148/164/8 146/165/8
f 144/166/9 142/167/9 152/168/9
f 144/166/9 152/168/9 150/169/9
f 98/170/3 104/171/3 153/172/3
f 98/170/3 153/172/3 155/173/3
f 100/174/6 1/175/6 156/176/6
f 100/174/6 156/176/6 157/177/6
f 102/178/8 2/179/8 158/180/8
f 102/178/8 158/180/8 159/181/8
f 4/182/9 3/183/9 160/184/9
f 4/182/9 160/184/9 154/185/9
f 6/186/1 85/187/1 88/188/1
f 6/186/1 88/188/1 7/189/1
f 10/190/1 89/191/1 85/187/1
f 10/190/1 85/187/1 6/186/1
f 12/192/1 91/193/1 89/191/1
f 12/192/1 89/191/1 10/190/1
f 7/194/1 88/195/1 91/193/1
f 7/194/1 91/193/1 12/192/1
f 93/196/95 87/197/95 86/198/95
f 93/196/95 86/198/95 94/199/95
f 96/200/95 92/201/95 87/202/95
f 96/200/95 87/202/95 93/196/95
f 95/203/95 90/204/95 92/205/95
f 95/203/95 92/205/95 96/200/95
f 94/199/95 86/206/95 90/207/95
f 94/199/95 90/207/95 95/208/95
