o sponza_201
v 65.7367 51.7402 18.5121
v 65.7112 51.6433 18.4865
v 65.7112 51.6433 22.4695
v 65.7367 51.7401 22.4439
v 65.7506 51.6433 22.5089
v 65.7762 51.7401 22.4834
v 65.3613 51.1885 22.8194
v 65.1936 51.0635 22.9872
v 65.233 51.0635 23.0266
v 65.4007 51.1885 22.8589
v 65.6659 51.484 22.5936
v 65.72 51.5708 22.5396
v 65.6805 51.5708 22.5001
v 65.6265 51.484 22.5542
v 65.5399 51.368 22.6408
v 65.4613 51.2804 22.7194
v 65.5007 51.2804 22.7589
v 65.5794 51.368 22.6802
v 65.5399 51.368 18.3153
v 65.4613 51.2804 18.2366
v 65.6805 51.5708 18.4559
v 65.7762 51.7402 18.4726
v 65.7506 51.6433 18.4471
v 65.233 51.0635 17.9294
v 65.1936 51.0635 17.9688
v 65.3613 51.1885 18.1366
v 65.4007 51.1885 18.0971
v 65.72 51.5708 18.4164
v 65.6659 51.484 18.3624
v 65.6265 51.484 18.4018
v 65.5007 51.2804 18.1972
v 65.5794 51.368 18.2758
v 70.2503 51.0635 17.9294
v 70.0826 51.1885 18.0971
v 69.8174 51.484 18.3624
v 69.7634 51.5708 18.4164
v 69.9039 51.368 18.2758
v 69.9826 51.2804 18.1972
v 69.7327 51.6433 18.4471
v 69.7466 51.7402 18.5121
v 69.7722 51.6433 18.4865
v 69.7072 51.7402 18.4726
v 70.122 51.1885 18.1366
v 70.2898 51.0635 17.9688
v 69.8028 51.5708 18.4559
v 69.8568 51.484 18.4018
v 69.9434 51.368 18.3153
v 70.022 51.2804 18.2366
v 65.1936 50.9806 22.9872
v 65.233 50.9806 23.0266
v 65.1936 50.9806 17.9688
v 70.2503 50.9806 17.9294
v 65.233 50.9806 17.9294
v 70.2898 50.9806 17.9688
v 64.9947 50.9806 23.183
v 65.0372 50.9806 23.2256
v 64.9947 50.9806 17.773
v 70.4461 50.9806 17.7304
v 65.0372 50.9806 17.7304
v 70.4887 50.9806 17.773
v 64.9947 50.6633 23.183
v 65.0372 50.6633 23.2256
v 64.9947 50.6633 17.773
v 70.4461 50.6633 17.7304
v 65.0372 50.6633 17.7304
v 70.4887 50.6633 17.773
v 69.7466 51.7401 22.4439
v 69.7722 51.6433 22.4695
v 69.9434 51.368 22.6408
v 70.022 51.2804 22.7194
v 69.8028 51.5708 22.5001
v 69.7327 51.6433 22.5089
v 69.7072 51.7401 22.4834
v 70.2503 51.0635 23.0266
v 70.2898 51.0635 22.9872
v 70.122 51.1885 22.8194
v 70.0826 51.1885 22.8589
v 69.7634 51.5708 22.5396
v 69.8174 51.484 22.5936
v 69.8568 51.484 22.5542
v 69.9826 51.2804 22.7589
v 69.904 51.368 22.6802
v 70.2898 50.9806 22.9872
v 70.2503 50.9806 23.0266
v 70.4887 50.9806 23.183
v 70.4461 50.9806 23.2256
v 70.4887 50.6633 23.183
v 70.4461 50.6633 23.2256
v 65.1936 50.9806 22.9872
v 65.233 50.9806 23.0266
v 65.1936 50.9806 17.9688
v 70.2503 50.9806 17.9294
v 65.233 50.9806 17.9294
v 70.2898 50.9806 17.9688
v 64.9947 50.9806 23.183
v 65.0372 50.9806 23.2256
v 64.9947 50.9806 17.773
v 70.4461 50.9806 17.7304
v 65.0372 50.9806 17.7304
v 70.4887 50.9806 17.773
v 70.2898 50.9806 22.9872
v 70.2503 50.9806 23.0266
v 70.4887 50.9806 23.183
v 70.4461 50.9806 23.2256
vt 0.2734 0.7237
vt 0.2788 0.7224
vt 0.2788 0.949
vt 0.2733 0.9476
vt 0.2778 0.9519
vt 0.2712 0.9499
vt 0.3052 0.9689
vt 0.3147 0.9785
vt 0.3144 0.9807
vt 0.3029 0.9712
vt 0.286 0.9566
vt 0.2816 0.9534
vt 0.2829 0.9508
vt 0.2879 0.9539
vt 0.2945 0.9588
vt 0.2995 0.9633
vt 0.2972 0.9656
vt 0.2922 0.9615
vt 0.2945 0.7126
vt 0.2995 0.7081
vt 0.2829 0.7206
vt 0.2711 0.7216
vt 0.2725 0.7161
vt 0.2755 0.7168
vt 0.302 0.6802
vt 0.3045 0.6818
vt 0.2947 0.692
vt 0.2924 0.6897
vt 0.2768 0.7135
vt 0.2743 0.7119
vt 0.2773 0.707
vt 0.2801 0.7089
vt 0.2867 0.6954
vt 0.2891 0.6976
vt 0.285 0.7026
vt 0.2823 0.7004
vt 0.0164 0.6802
vt 0.026 0.6897
vt 0.0411 0.707
vt 0.0441 0.7119
vt 0.0361 0.7004
vt 0.0317 0.6953
vt 0.0459 0.7161
vt 0.0451 0.7238
vt 0.044 0.7173
vt 0.0473 0.7216
vt 0.0237 0.692
vt 0.014 0.6812
vt 0.0416 0.7135
vt 0.0383 0.7089
vt 0.0334 0.7026
vt 0.0293 0.6976
vt 0.3052 0.7024
vt 0.3147 0.6929
vt 0.2879 0.7175
vt 0.3194 0.9785
vt 0.3184 0.9812
vt 0.3194 0.6929
vt 0.0164 0.6754
vt 0.302 0.6754
vt 0.3048 0.6767
vt 0.0138 0.6766
vt 0.3194 0.9785
vt 0.3307 0.9896
vt 0.3283 0.9921
vt 0.3184 0.9812
vt 0.3194 0.6929
vt 0.3307 0.6817
vt 0.0164 0.6754
vt 0.0053 0.6641
vt 0.3131 0.6641
vt 0.302 0.6754
vt 0.316 0.6653
vt 0.3048 0.6767
vt 0.0138 0.6766
vt 0.0029 0.6653
vt 0.3488 0.9896
vt 0.3488 0.9921
vt 0.3307 0.9921
vt 0.3307 0.9896
vt 0.3488 0.6817
vt 0.3307 0.6817
vt 0.0053 0.6461
vt 0.3131 0.6461
vt 0.3131 0.6641
vt 0.0053 0.6641
vt 0.3155 0.6461
vt 0.316 0.6653
vt 0.0029 0.6461
vt 0.0029 0.6653
vt 0.2734 0.7237
vt 0.2788 0.7224
vt 0.2788 0.949
vt 0.2733 0.9476
vt 0.2945 0.7126
vt 0.2995 0.7081
vt 0.2995 0.9633
vt 0.2945 0.9588
vt 0.2829 0.7206
vt 0.2829 0.9508
vt 0.2725 0.7161
vt 0.2755 0.7168
vt 0.2711 0.7216
vt 0.302 0.6802
vt 0.3045 0.6818
vt 0.2947 0.692
vt 0.2924 0.6897
vt 0.2768 0.7135
vt 0.2743 0.7119
vt 0.2773 0.707
vt 0.2801 0.7089
vt 0.2867 0.6954
vt 0.2891 0.6976
vt 0.285 0.7026
vt 0.2823 0.7004
vt 0.0164 0.6802
vt 0.026 0.6897
vt 0.0411 0.707
vt 0.0441 0.7119
vt 0.0361 0.7004
vt 0.0317 0.6953
vt 0.0459 0.7161
vt 0.0473 0.7216
vt 0.3052 0.7024
vt 0.3147 0.6929
vt 0.3147 0.9785
vt 0.3052 0.9689
vt 0.2879 0.7175
vt 0.2879 0.9539
vt 0.3194 0.6929
vt 0.3194 0.9785
vt 0.0164 0.6754
vt 0.302 0.6754
vt 0.3048 0.6767
vt 0.3194 0.6929
vt 0.3307 0.6817
vt 0.3307 0.9896
vt 0.3194 0.9785
vt 0.0164 0.6754
vt 0.0053 0.6641
vt 0.3131 0.6641
vt 0.302 0.6754
vt 0.316 0.6653
vt 0.3048 0.6767
vt 0.3488 0.6817
vt 0.3488 0.9896
vt 0.3307 0.9896
vt 0.3307 0.6817
vt 0.0053 0.6461
vt 0.3131 0.6461
vt 0.3131 0.6641
vt 0.0053 0.6641
vt 0.3155 0.6461
vt 0.316 0.6653
vt 0.0473 0.9498
vt 0.0451 0.9476
vn -0.622 0.7481 -0.2311
vn -0.8483 0.4106 -0.3343
vn -0.8484 0.4106 0.3343
vn -0.622 0.7482 0.2311
vn -0.3343 0.4106 0.8483
vn -0.2311 0.7482 0.622
vn -0.5035 0.8445 0.1824
vn -0.8142 0.4594 0.355
vn -0.3551 0.4594 0.8141
vn -0.1825 0.8445 0.5035
vn -0.2649 0.6653 0.698
vn -0.2969 0.5643 0.7704
vn -0.7704 0.5643 0.2969
vn -0.698 0.6653 0.2649
vn -0.6399 0.7304 0.239
vn -0.575 0.7904 0.2114
vn -0.2114 0.7904 0.575
vn -0.239 0.7304 0.6399
vn -0.6399 0.7303 -0.239
vn -0.575 0.7904 -0.2114
vn -0.7703 0.5643 -0.2969
vn -0.2311 0.7482 -0.6219
vn -0.3343 0.4106 -0.8483
vn -0.3551 0.4594 -0.8141
vn -0.8142 0.4594 -0.355
vn -0.5036 0.8445 -0.1825
vn -0.1825 0.8445 -0.5035
vn -0.2968 0.5643 -0.7704
vn -0.2649 0.6654 -0.6979
vn -0.698 0.6653 -0.2649
vn -0.2114 0.7904 -0.575
vn -0.239 0.7304 -0.6399
vn 0.355 0.4594 -0.8142
vn 0.1825 0.8445 -0.5035
vn 0.2649 0.6653 -0.698
vn 0.2968 0.5643 -0.7703
vn 0.239 0.7304 -0.6399
vn 0.2114 0.7904 -0.575
vn 0.3344 0.4106 -0.8483
vn 0.622 0.7482 -0.2311
vn 0.8484 0.4106 -0.3342
vn 0.231 0.7482 -0.622
vn 0.5035 0.8445 -0.1825
vn 0.8141 0.4594 -0.3551
vn 0.7703 0.5643 -0.2969
vn 0.698 0.6653 -0.265
vn 0.6399 0.7304 -0.239
vn 0.575 0.7904 -0.2114
vn -0.9239 0 0.3826
vn -0.3827 0 0.9239
vn -0.9239 0 -0.3826
vn 0.3826 0 -0.9239
vn -0.3828 0 -0.9239
vn 0.9239 0 -0.3827
vn 0 1 0
vn -0.9239 0 0.3827
vn -0.9239 0 -0.3827
vn 0.3828 0 -0.9238
vn -0.3827 0 -0.9239
vn 0.9239 0 -0.3826
vn 0.622 0.7481 0.2311
vn 0.8484 0.4106 0.3342
vn 0.6399 0.7303 0.239
vn 0.575 0.7904 0.2114
vn 0.7703 0.5643 0.2968
vn 0.3344 0.4106 0.8483
vn 0.231 0.7482 0.622
vn 0.355 0.4594 0.8142
vn 0.8141 0.4594 0.3551
vn 0.5035 0.8445 0.1824
vn 0.1825 0.8445 0.5035
vn 0.2969 0.5643 0.7704
vn 0.2649 0.6653 0.698
vn 0.698 0.6653 0.2649
vn 0.2114 0.7904 0.575
vn 0.239 0.7304 0.6398
vn 0.9239 0 0.3827
vn 0.3826 0 0.9239
vn 0.9239 0 0.3826
vn 0.3827 0 0.9239
f 1/1/1 2/2/2 3/3/3
f 1/1/1 3/3/3 4/4/4
f 4/4/4 3/3/3 5/5/5
f 4/4/4 5/5/5 6/6/6
f 7/7/7 8/8/8 9/9/9
f 7/7/7 9/9/9 10/10/10
f 11/11/11 12/12/12 13/13/13
f 11/11/11 13/13/13 14/14/14
f 15/15/15 16/16/16 17/17/17
f 15/15/15 17/17/17 18/18/18
f 16/16/16 7/7/7 10/10/10
f 16/16/16 10/10/10 17/17/17
f 18/18/18 11/11/11 14/14/14
f 18/18/18 14/14/14 15/15/15
f 12/12/12 5/5/5 3/3/3
f 12/12/12 3/3/3 13/13/13
f 19/19/19 20/20/20 16/16/16
f 19/19/19 16/16/16 15/15/15
f 2/2/2 21/21/21 13/13/13
f 2/2/2 13/13/13 3/3/3
f 1/1/1 22/22/22 23/23/23
f 1/1/1 23/23/23 2/24/2
f 24/25/24 25/26/25 26/27/26
f 24/25/24 26/27/26 27/28/27
f 21/29/21 28/30/28 29/31/29
f 21/29/21 29/31/29 30/32/30
f 31/33/31 20/34/20 19/35/19
f 31/33/31 19/35/19 32/36/32
f 27/28/27 26/27/26 20/34/20
f 27/28/27 20/34/20 31/33/31
f 30/32/30 29/31/29 32/36/32
f 30/32/30 32/36/32 19/35/19
f 2/24/2 23/23/23 28/30/28
f 2/24/2 28/30/28 21/29/21
f 33/37/33 24/25/24 27/28/27
f 33/37/33 27/28/27 34/38/34
f 35/39/35 29/31/29 28/30/28
f 35/39/35 28/30/28 36/40/36
f 31/33/31 32/36/32 37/41/37
f 31/33/31 37/41/37 38/42/38
f 37/41/37 32/36/32 29/31/29
f 37/41/37 29/31/29 35/39/35
f 34/38/34 27/28/27 31/33/31
f 34/38/34 31/33/31 38/42/38
f 36/40/36 28/30/28 23/23/23
f 36/40/36 23/23/23 39/43/39
f 40/44/40 41/45/41 39/43/39
f 40/44/40 39/43/39 42/46/42
f 43/47/43 44/48/44 33/37/33
f 43/47/43 33/37/33 34/38/34
f 35/39/35 36/40/36 45/49/45
f 35/39/35 45/49/45 46/50/46
f 47/51/47 48/52/48 38/42/38
f 47/51/47 38/42/38 37/41/37
f 48/52/48 43/47/43 34/38/34
f 48/52/48 34/38/34 38/42/38
f 37/41/37 35/39/35 46/50/46
f 37/41/37 46/50/46 47/51/47
f 36/40/36 39/43/39 41/45/41
f 36/40/36 41/45/41 45/49/45
f 23/23/23 22/22/22 42/46/42
f 23/23/23 42/46/42 39/43/39
f 26/53/26 25/54/25 8/8/8
f 26/53/26 8/8/8 7/7/7
f 21/21/21 30/55/30 14/14/14
f 21/21/21 14/14/14 13/13/13
f 30/55/30 19/19/19 15/15/15
f 30/55/30 15/15/15 14/14/14
f 20/20/20 26/53/26 7/7/7
f 20/20/20 7/7/7 16/16/16
f 8/8/8 89/56/49 90/57/50
f 8/8/8 90/57/50 9/9/9
f 91/58/51 89/56/49 8/8/8
f 91/58/51 8/8/8 25/54/25
f 33/37/33 92/59/52 93/60/53
f 33/37/33 93/60/53 24/25/24
f 24/25/24 93/60/53 91/61/51
f 24/25/24 91/61/51 25/26/25
f 44/48/44 94/62/54 92/59/52
f 44/48/44 92/59/52 33/37/33
f 49/63/55 95/64/55 96/65/55
f 49/63/55 96/65/55 50/66/55
f 51/67/55 97/68/55 95/64/55
f 51/67/55 95/64/55 49/63/55
f 52/69/55 98/70/55 99/71/55
f 52/69/55 99/71/55 53/72/55
f 53/72/55 99/71/55 97/73/55
f 53/72/55 97/73/55 51/74/55
f 54/75/55 100/76/55 98/70/55
f 54/75/55 98/70/55 52/69/55
f 61/77/56 62/78/50 56/79/50
f 61/77/56 56/79/50 55/80/56
f 63/81/57 61/77/56 55/80/56
f 63/81/57 55/80/56 57/82/57
f 64/83/58 65/84/59 59/85/59
f 64/83/58 59/85/59 58/86/58
f 65/84/59 63/87/57 57/88/57
f 65/84/59 57/88/57 59/85/59
f 66/89/60 64/83/58 58/86/58
f 66/89/60 58/86/58 60/90/60
f 67/91/61 68/92/62 41/93/41
f 67/91/61 41/93/41 40/94/40
f 69/95/63 70/96/64 48/97/48
f 69/95/63 48/97/48 47/98/47
f 68/92/62 71/99/65 45/100/45
f 68/92/62 45/100/45 41/93/41
f 72/101/66 68/102/62 67/91/61
f 72/101/66 67/91/61 73/103/67
f 74/104/68 75/105/69 76/106/70
f 74/104/68 76/106/70 77/107/71
f 71/108/65 78/109/72 79/110/73
f 71/108/65 79/110/73 80/111/74
f 81/112/75 70/113/64 69/114/63
f 81/112/75 69/114/63 82/115/76
f 77/107/71 76/106/70 70/113/64
f 77/107/71 70/113/64 81/112/75
f 80/111/74 79/110/73 82/115/76
f 80/111/74 82/115/76 69/114/63
f 68/102/62 72/101/66 78/109/72
f 68/102/62 78/109/72 71/108/65
f 9/116/9 74/104/68 77/107/71
f 9/116/9 77/107/71 10/117/10
f 11/118/11 79/110/73 78/109/72
f 11/118/11 78/109/72 12/119/12
f 81/112/75 82/115/76 18/120/18
f 81/112/75 18/120/18 17/121/17
f 18/120/18 82/115/76 79/110/73
f 18/120/18 79/110/73 11/118/11
f 10/117/10 77/107/71 81/112/75
f 10/117/10 81/112/75 17/121/17
f 12/119/12 78/109/72 72/101/66
f 12/119/12 72/101/66 5/122/5
f 72/101/66 73/103/67 6/123/6
f 72/101/66 6/123/6 5/122/5
f 76/124/70 75/125/69 44/126/44
f 76/124/70 44/126/44 43/127/43
f 71/99/65 80/128/74 46/129/46
f 71/99/65 46/129/46 45/100/45
f 80/128/74 69/95/63 47/98/47
f 80/128/74 47/98/47 46/129/46
f 70/96/64 76/124/70 43/127/43
f 70/96/64 43/127/43 48/97/48
f 101/130/77 94/131/54 44/126/44
f 101/130/77 44/126/44 75/125/69
f 9/116/9 90/132/50 102/133/78
f 9/116/9 102/133/78 74/104/68
f 74/104/68 102/133/78 101/134/77
f 74/104/68 101/134/77 75/105/69
f 83/135/55 103/136/55 100/137/55
f 83/135/55 100/137/55 54/138/55
f 50/139/55 96/140/55 104/141/55
f 50/139/55 104/141/55 84/142/55
f 84/142/55 104/141/55 103/143/55
f 84/142/55 103/143/55 83/144/55
f 87/145/79 66/146/60 60/147/60
f 87/145/79 60/147/60 85/148/79
f 62/149/50 88/150/80 86/151/80
f 62/149/50 86/151/80 56/152/50
f 88/150/80 87/153/79 85/154/79
f 88/150/80 85/154/79 86/151/80
f 40/44/40 42/46/42 73/155/67
f 40/44/40 73/155/67 67/156/61
f 73/155/67 42/46/42 4/4/4
f 73/155/67 4/4/4 6/6/6
f 22/22/22 1/1/1 4/4/4
f 22/22/22 4/4/4 42/46/42
