o sponza_168
v -4.32076 51.7402 -26.0053
v -4.29521 51.6433 -25.9797
v -4.29521 51.6433 -29.9626
v -4.32076 51.7402 -29.9371
v -4.33467 51.6433 -30.0021
v -4.36021 51.7402 -29.9766
v -3.94534 51.1885 -30.3126
v -3.77761 51.0635 -30.4804
v -3.81707 51.0635 -30.5198
v -3.9848 51.1885 -30.352
v -4.25 51.484 -30.0868
v -4.30402 51.5709 -30.0328
v -4.26456 51.5709 -29.9933
v -4.21054 51.484 -30.0473
v -4.12397 51.368 -30.1339
v -4.04534 51.2804 -30.2126
v -4.08479 51.2804 -30.252
v -4.16343 51.368 -30.1734
v -4.12397 51.368 -25.8084
v -4.04534 51.2804 -25.7298
v -4.26456 51.5709 -25.949
v -4.36021 51.7402 -25.9658
v -4.33467 51.6433 -25.9402
v -3.81707 51.0635 -25.4225
v -3.77761 51.0635 -25.462
v -3.94534 51.1885 -25.6298
v -3.9848 51.1885 -25.5903
v -4.30402 51.5709 -25.9096
v -4.25 51.484 -25.8556
v -4.21055 51.484 -25.895
v -4.08479 51.2804 -25.6903
v -4.16343 51.368 -25.769
v -8.83438 51.0635 -25.4225
v -8.66664 51.1885 -25.5903
v -8.40144 51.484 -25.8556
v -8.34742 51.5709 -25.9096
v -8.48801 51.368 -25.769
v -8.56665 51.2804 -25.6903
v -8.31677 51.6433 -25.9402
v -8.33068 51.7402 -26.0053
v -8.35623 51.6433 -25.9797
v -8.29123 51.7402 -25.9658
v -8.7061 51.1885 -25.6298
v -8.87383 51.0635 -25.462
v -8.38688 51.5709 -25.949
v -8.44089 51.484 -25.895
v -8.52747 51.368 -25.8084
v -8.6061 51.2804 -25.7298
v -3.77761 50.9806 -30.4804
v -3.81707 50.9806 -30.5198
v -3.77761 50.9806 -25.462
v -8.83438 50.9806 -25.4225
v -3.81707 50.9806 -25.4225
v -8.87383 50.9806 -25.462
v -3.57872 50.9806 -30.6762
v -3.62125 50.9806 -30.7187
v -3.57872 50.9806 -25.2661
v -9.03019 50.9806 -25.2236
v -3.62125 50.9806 -25.2236
v -9.07272 50.9806 -25.2661
v -3.57872 50.6633 -30.6762
v -3.62125 50.6633 -30.7187
v -3.57872 50.6633 -25.2661
v -9.03019 50.6633 -25.2236
v -3.62125 50.6633 -25.2236
v -9.07272 50.6633 -25.2661
v -8.33068 51.7402 -29.9371
v -8.35623 51.6433 -29.9626
v -8.52747 51.368 -30.1339
v -8.6061 51.2804 -30.2126
v -8.38688 51.5709 -29.9933
v -8.31677 51.6433 -30.0021
v -8.29123 51.7402 -29.9766
v -8.83438 51.0635 -30.5198
v -8.87383 51.0635 -30.4804
v -8.70609 51.1885 -30.3126
v -8.66664 51.1885 -30.352
v -8.34742 51.5709 -30.0328
v -8.40144 51.484 -30.0868
v -8.44089 51.484 -30.0473
v -8.56665 51.2804 -30.252
v -8.48801 51.368 -30.1734
v -8.87383 50.9806 -30.4804
v -8.83438 50.9806 -30.5198
v -9.07272 50.9806 -30.6762
v -9.03019 50.9806 -30.7187
v -9.07272 50.6633 -30.6762
v -9.03019 50.6633 -30.7187
v -3.77761 50.9806 -30.4804
v -3.81707 50.9806 -30.5198
v -3.77761 50.9806 -25.462
v -8.83438 50.9806 -25.4225
v -3.81707 50.9806 -25.4225
v -8.87383 50.9806 -25.462
v -3.57872 50.9806 -30.6762
v -3.62125 50.9806 -30.7187
v -3.57872 50.9806 -25.2661
v -9.03019 50.9806 -25.2236
v -3.62125 50.9806 -25.2236
v -9.07272 50.9806 -25.2661
v -8.87383 50.9806 -30.4804
v -8.83438 50.9806 -30.5198
v -9.07272 50.9806 -30.6762
v -9.03019 50.9806 -30.7187
vt 0.2734 0.7237
vt 0.2788 0.7224
vt 0.2788 0.949
vt 0.2733 0.9476
vt 0.2778 0.9519
vt 0.2712 0.9499
vt 0.3052 0.9689
vt 0.3147 0.9785
vt 0.3144 0.9807
vt 0.3029 0.9712
vt 0.286 0.9566
vt 0.2816 0.9534
vt 0.2829 0.9508
vt 0.2879 0.9539
vt 0.2945 0.9588
vt 0.2995 0.9633
vt 0.2972 0.9656
vt 0.2922 0.9615
vt 0.2945 0.7126
vt 0.2995 0.7081
vt 0.2829 0.7206
vt 0.2711 0.7216
vt 0.2725 0.7161
vt 0.2755 0.7168
vt 0.302 0.6802
vt 0.3045 0.6818
vt 0.2947 0.692
vt 0.2924 0.6897
vt 0.2768 0.7135
vt 0.2743 0.7119
vt 0.2773 0.707
vt 0.2801 0.7089
vt 0.2867 0.6954
vt 0.2891 0.6976
vt 0.285 0.7026
vt 0.2823 0.7004
vt 0.0164 0.6802
vt 0.026 0.6897
vt 0.0411 0.707
vt 0.0441 0.7119
vt 0.0361 0.7004
vt 0.0317 0.6953
vt 0.0459 0.7161
vt 0.0451 0.7238
vt 0.044 0.7173
vt 0.0473 0.7216
vt 0.0237 0.692
vt 0.014 0.6812
vt 0.0416 0.7135
vt 0.0383 0.7089
vt 0.0334 0.7026
vt 0.0293 0.6976
vt 0.3052 0.7024
vt 0.3147 0.6929
vt 0.2879 0.7175
vt 0.3194 0.9785
vt 0.3184 0.9812
vt 0.3194 0.6929
vt 0.0164 0.6754
vt 0.302 0.6754
vt 0.3048 0.6767
vt 0.0138 0.6766
vt 0.3194 0.9785
vt 0.3307 0.9896
vt 0.3283 0.9921
vt 0.3184 0.9812
vt 0.3194 0.6929
vt 0.3307 0.6817
vt 0.0164 0.6754
vt 0.0053 0.6641
vt 0.3131 0.6641
vt 0.302 0.6754
vt 0.316 0.6653
vt 0.3048 0.6767
vt 0.0138 0.6766
vt 0.0029 0.6653
vt 0.3488 0.9896
vt 0.3488 0.9921
vt 0.3307 0.9921
vt 0.3307 0.9896
vt 0.3488 0.6817
vt 0.3307 0.6817
vt 0.0053 0.6461
vt 0.3131 0.6461
vt 0.3131 0.6641
vt 0.0053 0.6641
vt 0.3155 0.6461
vt 0.316 0.6653
vt 0.0029 0.6461
vt 0.0029 0.6653
vt 0.2734 0.7237
vt 0.2788 0.7224
vt 0.2788 0.949
vt 0.2733 0.9476
vt 0.2945 0.7126
vt 0.2995 0.7081
vt 0.2995 0.9633
vt 0.2945 0.9588
vt 0.2829 0.7206
vt 0.2829 0.9508
vt 0.2725 0.7161
vt 0.2755 0.7168
vt 0.2711 0.7216
vt 0.302 0.6802
vt 0.3045 0.6818
vt 0.2947 0.692
vt 0.2924 0.6897
vt 0.2768 0.7135
vt 0.2743 0.7119
vt 0.2773 0.707
vt 0.2801 0.7089
vt 0.2867 0.6954
vt 0.2891 0.6976
vt 0.285 0.7026
vt 0.2823 0.7004
vt 0.0164 0.6802
vt 0.026 0.6897
vt 0.0411 0.707
vt 0.0441 0.7119
vt 0.0361 0.7004
vt 0.0317 0.6953
vt 0.0459 0.7161
vt 0.0473 0.7216
vt 0.3052 0.7024
vt 0.3147 0.6929
vt 0.3147 0.9785
vt 0.3052 0.9689
vt 0.2879 0.7175
vt 0.2879 0.9539
vt 0.3194 0.6929
vt 0.3194 0.9785
vt 0.0164 0.6754
vt 0.302 0.6754
vt 0.3048 0.6767
vt 0.3194 0.6929
vt 0.3307 0.6817
vt 0.3307 0.9896
vt 0.3194 0.9785
vt 0.0164 0.6754
vt 0.0053 0.6641
vt 0.3131 0.6641
vt 0.302 0.6754
vt 0.316 0.6653
vt 0.3048 0.6767
vt 0.3488 0.6817
vt 0.3488 0.9896
vt 0.3307 0.9896
vt 0.3307 0.6817
vt 0.0053 0.6461
vt 0.3131 0.6461
vt 0.3131 0.6641
vt 0.0053 0.6641
vt 0.3155 0.6461
vt 0.316 0.6653
vt 0.0473 0.9498
vt 0.0451 0.9476
vn 0.6219 0.7482 0.2311
vn 0.8483 0.4106 0.3343
vn 0.8483 0.4106 -0.3342
vn 0.6219 0.7482 -0.2311
vn 0.3343 0.4106 -0.8483
vn 0.2311 0.7482 -0.6219
vn 0.5035 0.8445 -0.1825
vn 0.8142 0.4594 -0.3551
vn 0.3551 0.4594 -0.8142
vn 0.1824 0.8445 -0.5035
vn 0.2649 0.6653 -0.698
vn 0.2968 0.5643 -0.7704
vn 0.7704 0.5643 -0.2969
vn 0.698 0.6653 -0.2649
vn 0.6399 0.7304 -0.239
vn 0.5751 0.7903 -0.2114
vn 0.2114 0.7904 -0.575
vn 0.239 0.7304 -0.6399
vn 0.6399 0.7303 0.239
vn 0.575 0.7904 0.2114
vn 0.7704 0.5643 0.2969
vn 0.2311 0.7482 0.6219
vn 0.3343 0.4106 0.8483
vn 0.355 0.4594 0.8142
vn 0.8141 0.4594 0.3551
vn 0.5035 0.8445 0.1825
vn 0.1824 0.8445 0.5035
vn 0.2968 0.5643 0.7704
vn 0.2649 0.6653 0.698
vn 0.698 0.6653 0.2649
vn 0.2114 0.7904 0.575
vn 0.239 0.7304 0.6399
vn -0.3551 0.4594 0.8142
vn -0.1824 0.8445 0.5035
vn -0.2649 0.6653 0.698
vn -0.2968 0.5643 0.7704
vn -0.239 0.7304 0.6399
vn -0.2114 0.7904 0.575
vn -0.3343 0.4106 0.8483
vn -0.6219 0.7482 0.2311
vn -0.8483 0.4106 0.3343
vn -0.2311 0.7482 0.6219
vn -0.5035 0.8445 0.1825
vn -0.8142 0.4594 0.3551
vn -0.7704 0.5643 0.2969
vn -0.698 0.6653 0.2649
vn -0.6399 0.7303 0.239
vn -0.575 0.7904 0.2114
vn 0.9239 0 -0.3827
vn 0.3827 0 -0.9239
vn 0.9239 0 0.3827
vn -0.3827 0 0.9239
vn 0.3826 0 0.9239
vn -0.9239 0 0.3826
vn 0 1 -0
vn 0 1 -0.0001
vn 0.3827 0 0.9239
vn -0.9239 0 0.3827
vn -0.6219 0.7482 -0.2311
vn -0.8483 0.4106 -0.3342
vn -0.6399 0.7304 -0.239
vn -0.575 0.7903 -0.2114
vn -0.7704 0.5642 -0.2969
vn -0.3343 0.4107 -0.8483
vn -0.2311 0.7482 -0.6219
vn -0.3551 0.4594 -0.8141
vn -0.8142 0.4594 -0.3551
vn -0.5035 0.8445 -0.1824
vn -0.1825 0.8445 -0.5034
vn -0.2968 0.5643 -0.7704
vn -0.2649 0.6653 -0.698
vn -0.698 0.6653 -0.2649
vn -0.2114 0.7904 -0.575
vn -0.239 0.7304 -0.6399
vn -0.9239 0 -0.3826
vn -0.3828 0 -0.9238
vn 0 1 0.0001
vn -0.9239 0 -0.3827
vn -0.3827 0 -0.9239
f 1/1/1 2/2/2 3/3/3
f 1/1/1 3/3/3 4/4/4
f 4/4/4 3/3/3 5/5/5
f 4/4/4 5/5/5 6/6/6
f 7/7/7 8/8/8 9/9/9
f 7/7/7 9/9/9 10/10/10
f 11/11/11 12/12/12 13/13/13
f 11/11/11 13/13/13 14/14/14
f 15/15/15 16/16/16 17/17/17
f 15/15/15 17/17/17 18/18/18
f 16/16/16 7/7/7 10/10/10
f 16/16/16 10/10/10 17/17/17
f 18/18/18 11/11/11 14/14/14
f 18/18/18 14/14/14 15/15/15
f 12/12/12 5/5/5 3/3/3
f 12/12/12 3/3/3 13/13/13
f 19/19/19 20/20/20 16/16/16
f 19/19/19 16/16/16 15/15/15
f 2/2/2 21/21/21 13/13/13
f 2/2/2 13/13/13 3/3/3
f 1/1/1 22/22/22 23/23/23
f 1/1/1 23/23/23 2/24/2
f 24/25/24 25/26/25 26/27/26
f 24/25/24 26/27/26 27/28/27
f 21/29/21 28/30/28 29/31/29
f 21/29/21 29/31/29 30/32/30
f 31/33/31 20/34/20 19/35/19
f 31/33/31 19/35/19 32/36/32
f 27/28/27 26/27/26 20/34/20
f 27/28/27 20/34/20 31/33/31
f 30/32/30 29/31/29 32/36/32
f 30/32/30 32/36/32 19/35/19
f 2/24/2 23/23/23 28/30/28
f 2/24/2 28/30/28 21/29/21
f 33/37/33 24/25/24 27/28/27
f 33/37/33 27/28/27 34/38/34
f 35/39/35 29/31/29 28/30/28
f 35/39/35 28/30/28 36/40/36
f 31/33/31 32/36/32 37/41/37
f 31/33/31 37/41/37 38/42/38
f 37/41/37 32/36/32 29/31/29
f 37/41/37 29/31/29 35/39/35
f 34/38/34 27/28/27 31/33/31
f 34/38/34 31/33/31 38/42/38
f 36/40/36 28/30/28 23/23/23
f 36/40/36 23/23/23 39/43/39
f 40/44/40 41/45/41 39/43/39
f 40/44/40 39/43/39 42/46/42
f 43/47/43 44/48/44 33/37/33
f 43/47/43 33/37/33 34/38/34
f 35/39/35 36/40/36 45/49/45
f 35/39/35 45/49/45 46/50/46
f 47/51/47 48/52/48 38/42/38
f 47/51/47 38/42/38 37/41/37
f 48/52/48 43/47/43 34/38/34
f 48/52/48 34/38/34 38/42/38
f 37/41/37 35/39/35 46/50/46
f 37/41/37 46/50/46 47/51/47
f 36/40/36 39/43/39 41/45/41
f 36/40/36 41/45/41 45/49/45
f 23/23/23 22/22/22 42/46/42
f 23/23/23 42/46/42 39/43/39
f 26/53/26 25/54/25 8/8/8
f 26/53/26 8/8/8 7/7/7
f 21/21/21 30/55/30 14/14/14
f 21/21/21 14/14/14 13/13/13
f 30/55/30 19/19/19 15/15/15
f 30/55/30 15/15/15 14/14/14
f 20/20/20 26/53/26 7/7/7
f 20/20/20 7/7/7 16/16/16
f 8/8/8 89/56/49 90/57/50
f 8/8/8 90/57/50 9/9/9
f 91/58/51 89/56/49 8/8/8
f 91/58/51 8/8/8 25/54/25
f 33/37/33 92/59/52 93/60/53
f 33/37/33 93/60/53 24/25/24
f 24/25/24 93/60/53 91/61/51
f 24/25/24 91/61/51 25/26/25
f 44/48/44 94/62/54 92/59/52
f 44/48/44 92/59/52 33/37/33
f 49/63/55 95/64/55 96/65/55
f 49/63/55 96/65/55 50/66/55
f 51/67/55 97/68/55 95/64/55
f 51/67/55 95/64/55 49/63/55
f 52/69/55 98/70/55 99/71/56
f 52/69/55 99/71/56 53/72/55
f 53/72/55 99/71/56 97/73/55
f 53/72/55 97/73/55 51/74/55
f 54/75/55 100/76/55 98/70/55
f 54/75/55 98/70/55 52/69/55
f 61/77/49 62/78/50 56/79/50
f 61/77/49 56/79/50 55/80/49
f 63/81/51 61/77/49 55/80/49
f 63/81/51 55/80/49 57/82/51
f 64/83/52 65/84/57 59/85/57
f 64/83/52 59/85/57 58/86/52
f 65/84/57 63/87/51 57/88/51
f 65/84/57 57/88/51 59/85/57
f 66/89/58 64/83/52 58/86/52
f 66/89/58 58/86/52 60/90/58
f 67/91/59 68/92/60 41/93/41
f 67/91/59 41/93/41 40/94/40
f 69/95/61 70/96/62 48/97/48
f 69/95/61 48/97/48 47/98/47
f 68/92/60 71/99/63 45/100/45
f 68/92/60 45/100/45 41/93/41
f 72/101/64 68/102/60 67/91/59
f 72/101/64 67/91/59 73/103/65
f 74/104/66 75/105/67 76/106/68
f 74/104/66 76/106/68 77/107/69
f 71/108/63 78/109/70 79/110/71
f 71/108/63 79/110/71 80/111/72
f 81/112/73 70/113/62 69/114/61
f 81/112/73 69/114/61 82/115/74
f 77/107/69 76/106/68 70/113/62
f 77/107/69 70/113/62 81/112/73
f 80/111/72 79/110/71 82/115/74
f 80/111/72 82/115/74 69/114/61
f 68/102/60 72/101/64 78/109/70
f 68/102/60 78/109/70 71/108/63
f 9/116/9 74/104/66 77/107/69
f 9/116/9 77/107/69 10/117/10
f 11/118/11 79/110/71 78/109/70
f 11/118/11 78/109/70 12/119/12
f 81/112/73 82/115/74 18/120/18
f 81/112/73 18/120/18 17/121/17
f 18/120/18 82/115/74 79/110/71
f 18/120/18 79/110/71 11/118/11
f 10/117/10 77/107/69 81/112/73
f 10/117/10 81/112/73 17/121/17
f 12/119/12 78/109/70 72/101/64
f 12/119/12 72/101/64 5/122/5
f 72/101/64 73/103/65 6/123/6
f 72/101/64 6/123/6 5/122/5
f 76/124/68 75/125/67 44/126/44
f 76/124/68 44/126/44 43/127/43
f 71/99/63 80/128/72 46/129/46
f 71/99/63 46/129/46 45/100/45
f 80/128/72 69/95/61 47/98/47
f 80/128/72 47/98/47 46/129/46
f 70/96/62 76/124/68 43/127/43
f 70/96/62 43/127/43 48/97/48
f 101/130/75 94/131/54 44/126/44
f 101/130/75 44/126/44 75/125/67
f 9/116/9 90/132/50 102/133/76
f 9/116/9 102/133/76 74/104/66
f 74/104/66 102/133/76 101/134/75
f 74/104/66 101/134/75 75/105/67
f 83/135/55 103/136/55 100/137/55
f 83/135/55 100/137/55 54/138/55
f 50/139/55 96/140/55 104/141/77
f 50/139/55 104/141/77 84/142/55
f 84/142/55 104/141/77 103/143/55
f 84/142/55 103/143/55 83/144/55
f 87/145/78 66/146/58 60/147/58
f 87/145/78 60/147/58 85/148/78
f 62/149/50 88/150/79 86/151/79
f 62/149/50 86/151/79 56/152/50
f 88/150/79 87/153/78 85/154/78
f 88/150/79 85/154/78 86/151/79
f 40/44/40 42/46/42 73/155/65
f 40/44/40 73/155/65 67/156/59
f 73/155/65 42/46/42 4/4/4
f 73/155/65 4/4/4 6/6/6
f 22/22/22 1/1/1 4/4/4
f 22/22/22 4/4/4 42/46/42
