o sponza_75
v -142.735 41.9964 -63.6975
v -142.716 41.9963 57.0747
v -142.716 41.5461 57.0747
v -142.735 41.5462 -63.6975
v 129.764 41.9963 57.0747
v 129.764 41.9964 4.22647
v 129.764 41.5462 4.24484
v 129.764 41.5461 57.0747
v -142.716 41.9963 57.0747
v 129.764 41.9963 57.0747
v 129.764 41.5461 57.0747
v -142.716 41.5461 57.0747
v -143.19 41.9964 -64.153
v -143.19 41.5462 -64.153
v -143.172 41.5461 57.53
v -143.172 41.9963 57.53
v 130.219 41.9964 -11.0069
v 130.219 41.5462 -11.0069
v 130.219 41.5462 -64.1602
v 130.219 41.9964 -64.1602
v 130.219 41.9964 -64.1602
v 130.219 41.5462 -64.1602
v -143.19 41.5462 -64.153
v -143.19 41.9964 -64.153
v -143.172 41.9963 57.53
v -143.172 41.5461 57.53
v 130.219 41.5461 57.5301
v 130.219 41.9963 57.5301
v -143.172 42.4466 57.53
v -143.19 42.4467 -64.153
v 130.219 42.4467 -64.1602
v 130.219 42.4466 -11.0069
v -143.19 42.4467 -64.153
v 130.219 42.4467 -64.1602
v 130.219 42.4466 57.5301
v -143.172 42.4466 57.53
v 129.764 41.9964 -63.7049
v -142.735 41.9964 -63.6975
v -142.735 41.5462 -63.6975
v 129.764 41.5462 -63.7049
v 129.764 41.9964 -63.7049
v 129.764 41.5462 -63.7049
v 129.764 41.5462 -11.0148
v 129.764 41.9964 -11.0148
v 130.219 41.9963 57.5301
v 130.219 41.5461 57.5301
v 130.219 41.5462 4.24161
v 130.219 41.9964 4.22325
v 130.219 42.4466 57.5301
v 130.219 42.4466 4.20488
v -142.735 41.9964 -63.6975
v -143.19 42.4467 -64.153
v -143.172 42.4466 57.53
v -142.716 41.9963 57.0747
v 130.219 42.4466 4.20488
v 129.764 41.9964 4.22647
v 129.764 41.9963 57.0747
v 130.219 42.4466 57.5301
v 130.219 42.4466 57.5301
v 129.764 41.9963 57.0747
v -142.716 41.9963 57.0747
v -143.172 42.4466 57.53
v -142.716 41.5461 57.0747
v -143.172 41.5461 57.53
v -143.19 41.5462 -64.153
v -142.735 41.5462 -63.6975
v 129.764 41.5461 57.0747
v 129.764 41.5462 4.24484
v 130.219 41.5462 4.24161
v 130.219 41.5461 57.5301
v 130.219 41.5461 57.5301
v -143.172 41.5461 57.53
v -142.716 41.5461 57.0747
v -142.735 41.9964 -63.6975
v 129.764 41.9964 -63.7049
v 130.219 42.4467 -64.1602
v -143.19 42.4467 -64.153
v -143.19 41.5462 -64.153
v 130.219 41.5462 -64.1602
v 129.764 41.5462 -63.7049
v 130.219 42.4466 -11.0069
v 130.219 42.4467 -64.1602
v 129.764 41.9964 -63.7049
v 129.764 41.9964 -11.0148
v 129.764 41.5462 -63.7049
v 130.219 41.5462 -64.1602
v 130.219 41.5462 -11.0069
v 129.764 41.5462 -11.0148
vt 18.4629 1.0961
vt 22.1504 1.0961
vt 22.1504 1.1206
vt 18.4629 1.1206
vt 6.479 1.0961
vt 8.0867 1.0961
vt 8.0861 1.1206
vt 6.479 1.1206
vt -1.8204 1.0961
vt 6.479 1.0961
vt 6.479 1.1206
vt -1.8204 1.1206
vt 18.4491 1.0471
vt 18.4491 1.0226
vt 22.1643 1.0226
vt 22.1643 1.0471
vt 8.5512 1.0471
vt 8.5512 1.0226
vt 10.1775 1.0226
vt 10.1775 1.0471
vt 11.0295 1.0471
vt 11.0295 1.0226
vt 18.4768 1.0226
vt 18.4768 1.0471
vt -1.8343 1.0471
vt -1.8343 1.0226
vt 6.4929 1.0226
vt 6.4929 1.0471
vt 22.1643 1.0716
vt 18.4491 1.0716
vt 10.1775 1.0716
vt 8.5512 1.0716
vt 18.4768 1.0716
vt 11.0295 1.0716
vt 6.4929 1.0716
vt -1.8343 1.0716
vt 11.0432 1.0961
vt 18.4629 1.0961
vt 18.4629 1.1206
vt 11.0432 1.1206
vt 10.1636 1.0961
vt 10.1636 1.1206
vt 8.5515 1.1206
vt 8.5515 1.0961
vt 6.4651 1.0471
vt 6.4651 1.0226
vt 8.0862 1.0226
vt 8.0868 1.0471
vt 6.4651 1.0716
vt 8.0873 1.0716
vt 18.4629 1.0961
vt 18.4491 1.0716
vt 22.1643 1.0716
vt 22.1504 1.0961
vt 8.0873 1.0716
vt 8.0867 1.0961
vt 6.479 1.0961
vt 6.4651 1.0716
vt 6.4929 1.0716
vt 6.479 1.0961
vt -1.8204 1.0961
vt -1.8343 1.0716
vt 22.1504 1.1206
vt 22.1643 1.1257
vt 18.4491 1.1257
vt 18.4629 1.1206
vt 6.479 1.1206
vt 8.0861 1.1206
vt 8.0862 1.1257
vt 6.4651 1.1257
vt 6.4929 1.1257
vt -1.8343 1.1257
vt -1.8204 1.1206
vt 18.4629 1.0961
vt 11.0419 1.1029
vt 11.0295 1.0784
vt 18.4768 1.0716
vt 18.4768 1.1262
vt 11.0308 1.1229
vt 11.0432 1.1178
vt 8.5512 1.0716
vt 10.1775 1.0716
vt 10.1636 1.0961
vt 8.5515 1.0961
vt 10.1636 1.1206
vt 10.1775 1.1257
vt 8.5512 1.1257
vt 8.5515 1.1206
vn 1 0 -0.0002
vn 1 0 -0.0002
vn 1 0 -0.0002
vn 1 0 -0.0002
vn -1 -0 0
vn -1 -0 0
vn -1 -0 0
vn -1 -0 0
vn 0 0 -1
vn 0 0 -1
vn 0 0 -1
vn 0 0 -1
vn -1 0 0.0001
vn -1 0 0.0001
vn -1 0 0.0001
vn -1 0 0.0001
vn 1 0 0
vn 1 0 0
vn 1 0 0
vn 1 0 0
vn 0 0 -1
vn 0 0 -1
vn 0 0 -1
vn 0 0 -1
vn -0 0 1
vn -0 0 1
vn -0 0 1
vn -0 0 1
vn -1 0 0.0001
vn -1 0 0.0001
vn 1 0 0
vn 1 0 0
vn 0 0 -1
vn 0 0 -1
vn -0 0 1
vn -0 0 1
vn -0 0 1
vn -0 0 1
vn -0 0 1
vn -0 0 1
vn -1 -0 0
vn -1 -0 0
vn -1 -0 0
vn -1 -0 0
vn 1 0 0
vn 1 0 0
vn 1 0 0
vn 1 0 0
vn 1 0 0
vn 1 0 0
vn 0.9049 0.3788 -0.1941
vn -0.3732 0.2732 -0.8866
vn -0.3944 0.2498 0.8843
vn 0.9026 0.3856 0.1913
vn 0.3802 0.9249 -0
vn -0.9189 0.3944 0
vn -0.9027 0.3853 0.1914
vn 0.3947 0.2497 0.8842
vn 0.8843 0.2496 0.3946
vn 0.1914 0.3853 -0.9027
vn -0.1913 0.3854 -0.9027
vn -0.8842 0.25 0.3945
vn 0.3015 -0.9045 -0.3016
vn -0.5772 -0.5774 0.5774
vn -0.5773 -0.5774 -0.5773
vn 0.3015 -0.9046 0.3015
vn -0.3015 -0.9045 -0.3015
vn -0.7145 -0.6996 -0
vn 0.7177 -0.6964 -0
vn 0.5773 -0.5773 0.5774
vn 0.5773 -0.5773 0.5774
vn -0.5772 -0.5774 0.5774
vn 0.3015 -0.9045 -0.3016
vn -0.1947 0.3794 0.9045
vn 0.1914 0.3852 0.9028
vn 0.8842 0.2497 -0.3947
vn -0.8866 0.2732 -0.3732
vn -0.5773 -0.5774 -0.5773
vn 0.5773 -0.5773 -0.5774
vn -0.3015 -0.9045 0.3015
vn 0.394 0.9191 0
vn 0.3947 0.2496 -0.8842
vn -0.9026 0.3854 -0.1915
vn -0.9222 0.3868 -0
vn -0.3015 -0.9045 0.3015
vn 0.5773 -0.5773 -0.5774
vn 0.711 -0.7031 -0
vn -0.7032 -0.711 0
f 1/1/1 2/2/2 3/3/3
f 1/1/1 3/3/3 4/4/4
f 5/5/5 6/6/6 7/7/7
f 5/5/5 7/7/7 8/8/8
f 9/9/9 10/10/10 11/11/11
f 9/9/9 11/11/11 12/12/12
f 13/13/13 14/14/14 15/15/15
f 13/13/13 15/15/15 16/16/16
f 17/17/17 18/18/18 19/19/19
f 17/17/17 19/19/19 20/20/20
f 21/21/21 22/22/22 23/23/23
f 21/21/21 23/23/23 24/24/24
f 25/25/25 26/26/26 27/27/27
f 25/25/25 27/27/27 28/28/28
f 29/29/29 30/30/30 13/13/13
f 29/29/29 13/13/13 16/16/16
f 31/31/31 32/32/32 17/17/17
f 31/31/31 17/17/17 20/20/20
f 33/33/33 34/34/34 21/21/21
f 33/33/33 21/21/21 24/24/24
f 35/35/35 36/36/36 25/25/25
f 35/35/35 25/25/25 28/28/28
f 37/37/37 38/38/38 39/39/39
f 37/37/37 39/39/39 40/40/40
f 41/41/41 42/42/42 43/43/43
f 41/41/41 43/43/43 44/44/44
f 45/45/45 46/46/46 47/47/47
f 45/45/45 47/47/47 48/48/48
f 49/49/49 45/45/45 48/48/48
f 49/49/49 48/48/48 50/50/50
f 51/51/51 52/52/52 53/53/53
f 51/51/51 53/53/53 54/54/54
f 55/55/55 56/56/56 57/57/57
f 55/55/55 57/57/57 58/58/58
f 59/59/59 60/60/60 61/61/61
f 59/59/59 61/61/61 62/62/62
f 63/63/63 64/64/64 65/65/65
f 63/63/63 65/65/65 66/66/66
f 67/67/67 68/68/68 69/69/69
f 67/67/67 69/69/69 70/70/70
f 67/67/67 71/71/71 72/72/72
f 67/67/67 72/72/72 73/73/73
f 74/74/74 75/75/75 76/76/76
f 74/74/74 76/76/76 77/77/77
f 78/78/78 79/79/79 80/80/80
f 78/78/78 80/80/80 66/66/66
f 81/81/81 82/82/82 83/83/83
f 81/81/81 83/83/83 84/84/84
f 85/85/85 86/86/86 87/87/87
f 85/85/85 87/87/87 88/88/88
