o sponza_222
v -9.2332 68.7191 23.4252
v -9.27945 68.7191 23.379
v -9.29693 68.7191 23.3367
v -3.49295 68.7191 23.4427
v -9.27945 68.7191 17.607
v -9.29693 68.7191 23.1995
v -9.29693 68.7191 17.7644
v -9.29693 68.7191 17.6493
v -9.19099 68.7191 17.5433
v -9.2332 68.7191 17.5608
v -3.45074 68.7191 17.5608
v -9.0937 68.7191 17.5433
v -3.62474 68.7191 17.5433
v -3.49295 68.7191 17.5433
v -3.38701 68.7191 17.6493
v -3.40449 68.7191 17.607
v -3.40449 68.7191 23.379
v -3.38701 68.7191 17.7664
v -3.38701 68.7191 23.2611
v -3.38701 68.7191 23.3367
v -3.45074 68.7191 23.4252
v -3.53794 68.7191 23.4427
v -9.06288 68.7191 23.4427
v -9.19099 68.7191 23.4427
v -9.27945 69.5666 23.379
v -9.2332 69.5666 23.4252
v -9.19099 69.5666 23.4427
v -9.29693 69.5666 17.6493
v -3.45074 69.5666 23.4252
v -9.06288 69.5666 23.4427
v -3.53794 69.5666 23.4427
v -3.49295 69.5666 23.4427
v -3.38701 69.5666 23.3367
v -3.40449 69.5666 23.379
v -3.40449 69.5666 17.607
v -3.38701 69.5666 23.2611
v -3.38701 69.5666 17.7664
v -3.38701 69.5666 17.6493
v -3.49295 69.5666 17.5433
v -3.45074 69.5666 17.5608
v -9.2332 69.5666 17.5608
v -3.62474 69.5666 17.5433
v -9.0937 69.5666 17.5433
v -9.19099 69.5666 17.5433
v -9.27945 69.5666 17.607
v -9.29693 69.5666 17.7644
v -9.29693 69.5666 23.1995
v -9.29693 69.5666 23.3367
v -9.06946 69.1431 23.4774
v -9.19789 69.3395 23.4774
v -9.19789 68.7538 23.4774
v -9.06946 68.9467 23.4774
v -3.35233 69.1431 23.2678
v -3.35233 69.3395 23.3436
v -3.35233 68.7538 23.3436
v -3.35233 68.9467 23.2678
v -3.37509 69.532 23.3986
v -3.4311 69.5319 23.4546
v -3.4311 68.7538 23.4546
v -3.37509 68.7538 23.3986
v -9.30885 69.532 23.3986
v -9.30885 68.7538 23.3986
v -9.25284 68.7538 23.4546
v -9.25284 69.5319 23.4546
v -3.4311 69.532 17.5314
v -3.37509 69.532 17.5874
v -3.37509 68.7538 17.5874
v -3.4311 68.7538 17.5314
v -3.48605 69.5319 23.4774
v -3.48605 69.3395 23.4774
v -3.48605 68.7538 23.4774
v -9.19789 69.5319 23.4774
v -3.35233 69.3395 17.6424
v -3.35233 68.7538 17.6424
v -3.35233 69.532 23.3436
v -9.33161 69.3395 23.3436
v -9.33161 68.7538 23.3436
v -9.33161 69.532 23.3436
v -3.48605 69.3395 17.5086
v -3.48605 68.7538 17.5086
v -3.35233 68.7538 17.7598
v -3.53115 68.7538 23.4774
v -9.06946 69.5319 23.4774
v -3.35233 69.532 23.2678
v -3.48605 69.532 17.5086
v -3.35233 69.532 17.6424
v -3.61816 69.1431 17.5086
v -3.61816 68.9467 17.5086
v -9.33161 69.1431 17.7578
v -9.33161 69.3395 17.6424
v -9.33161 68.7538 17.6424
v -9.33161 68.9467 17.7578
v -9.30885 69.532 17.5874
v -9.25284 69.532 17.5314
v -9.25284 68.7538 17.5314
v -9.30885 68.7538 17.5874
v -9.19788 69.532 17.5086
v -9.19788 69.3395 17.5086
v -9.19788 68.7538 17.5086
v -9.33161 69.532 17.6424
v -9.33161 68.7538 23.2061
v -9.10037 68.7538 17.5086
v -3.61816 69.532 17.5086
v -9.33161 69.532 17.7578
v -3.53115 69.3395 23.4774
v -3.35233 69.532 17.7598
v -3.35233 69.3395 17.7598
v -9.10037 69.3395 17.5086
v -9.33161 69.3395 23.2061
v -9.06946 68.7538 23.4774
v -9.02124 68.9467 23.4774
v -3.53115 69.5319 23.4774
v -9.06946 69.3395 23.4774
v -3.5985 69.3395 23.4774
v -3.5985 69.1431 23.2062
v -3.53115 69.1431 23.4774
v -3.53115 68.9467 23.4774
v -3.35233 68.9467 17.7598
v -3.35233 68.7538 23.2678
v -3.35233 69.3395 17.8122
v -3.54722 69.1431 17.8122
v -3.35233 69.1431 17.7598
v -3.35233 68.9467 23.1953
v -3.35233 69.3395 23.2678
v -9.10037 68.9467 17.5086
v -3.61816 68.7538 17.5086
v -9.10037 69.532 17.5086
v -9.04338 69.3395 17.5086
v -9.04338 69.1431 17.7069
v -9.10037 69.1431 17.5086
v -3.68105 68.9467 17.5086
v -3.61816 69.3395 17.5086
v -9.33161 68.9467 23.2061
v -9.33161 68.7538 17.7578
v -9.33161 69.532 23.2061
v -9.33161 69.3395 23.1406
v -9.08644 69.1431 23.1406
v -9.33161 69.1431 23.2061
v -9.33161 68.9467 17.8082
v -9.33161 69.3395 17.7578
v -9.02124 69.1431 23.2062
v -3.54722 69.1431 23.1953
v -3.68105 69.1431 17.7069
v -9.08644 69.1431 17.8082
v -9.33161 69.3395 17.8082
v -9.33161 68.9467 23.1406
v -3.68105 69.3395 17.5086
v -9.04338 68.9467 17.5086
v -3.35233 69.3395 23.1953
v -3.35233 68.9467 17.8122
v -9.02124 69.3395 23.4774
v -3.5985 68.9467 23.4774
v -9.06946 69.1431 23.4774
vt 0.9853 0.6631
vt 0.9879 0.6656
vt 0.9888 0.6679
vt 0.6734 0.6622
vt 0.9879 0.9792
vt 0.9888 0.6754
vt 0.9888 0.9706
vt 0.9888 0.9769
vt 0.9831 0.9826
vt 0.9853 0.9817
vt 0.6713 0.9817
vt 0.9778 0.9826
vt 0.6807 0.9826
vt 0.6736 0.9826
vt 0.6678 0.9769
vt 0.6687 0.9792
vt 0.6687 0.6656
vt 0.6678 0.9705
vt 0.6678 0.672
vt 0.6678 0.6679
vt 0.6713 0.6631
vt 0.6758 0.6622
vt 0.9761 0.6621
vt 0.9831 0.6621
vt 0.5626 0.7873
vt 0.5616 0.7884
vt 0.5606 0.7888
vt 0.5631 0.6536
vt 0.4266 0.7884
vt 0.5577 0.7888
vt 0.4286 0.7888
vt 0.4276 0.7888
vt 0.4252 0.7863
vt 0.4256 0.7873
vt 0.4256 0.6526
vt 0.4252 0.7845
vt 0.4252 0.6563
vt 0.4252 0.6536
vt 0.4276 0.6511
vt 0.4266 0.6515
vt 0.5616 0.6515
vt 0.4307 0.6511
vt 0.5583 0.6511
vt 0.5606 0.6511
vt 0.5626 0.6526
vt 0.5631 0.6563
vt 0.5631 0.7831
vt 0.5631 0.7863
vt 0.0347 0.6166
vt 0.045 0.6233
vt 0.0143 0.6233
vt 0.0244 0.6166
vt 0.0347 0.3112
vt 0.045 0.3152
vt 0.0143 0.3152
vt 0.0244 0.3112
vt 0.0551 0.3181
vt 0.0551 0.321
vt 0.0143 0.321
vt 0.0143 0.3181
vt 0.0551 0.6291
vt 0.0143 0.6291
vt 0.0143 0.6262
vt 0.0551 0.6262
vt 0.0551 0.0105
vt 0.0551 0.0134
vt 0.0143 0.0134
vt 0.0143 0.0105
vt 0.0551 0.3239
vt 0.045 0.3239
vt 0.0143 0.3239
vt 0.0551 0.6233
vt 0.045 0.0163
vt 0.0143 0.0163
vt 0.0551 0.3152
vt 0.045 0.632
vt 0.0143 0.632
vt 0.0551 0.632
vt 0.045 0.0076
vt 0.0143 0.0076
vt 0.0124 0.0165
vt 0.0143 0.0224
vt 0.0124 0.0226
vt 0.0125 0.3241
vt 0.0143 0.3262
vt 0.0125 0.3264
vt 0.0569 0.6231
vt 0.0551 0.6166
vt 0.0569 0.6164
vt 0.057 0.3151
vt 0.0551 0.3112
vt 0.057 0.3112
vt 0.0125 0.6292
vt 0.0125 0.6262
vt 0.0126 0.321
vt 0.0126 0.318
vt 0.0122 0.0134
vt 0.0125 0.0104
vt 0.0569 0.6262
vt 0.0572 0.6292
vt 0.057 0.318
vt 0.0568 0.321
vt 0.0572 0.0104
vt 0.0572 0.0134
vt 0.0126 0.623
vt 0.0576 0.0079
vt 0.0551 0.0076
vt 0.0126 0.6317
vt 0.0125 0.3152
vt 0.0126 0.0079
vt 0.0571 0.6317
vt 0.0569 0.3241
vt 0.0572 0.0163
vt 0.0551 0.0163
vt 0.0347 0.6164
vt 0.045 0.6233
vt 0.0143 0.6233
vt 0.0244 0.6164
vt 0.0347 0.3091
vt 0.045 0.3152
vt 0.0143 0.3152
vt 0.0244 0.3091
vt 0.0551 0.3181
vt 0.0551 0.321
vt 0.0143 0.321
vt 0.0143 0.3181
vt 0.0551 0.3239
vt 0.045 0.3239
vt 0.0143 0.3239
vt 0.0551 0.3152
vt 0.0124 0.0165
vt 0.0143 0.0163
vt 0.0143 0.0235
vt 0.0124 0.0237
vt 0.0125 0.3241
vt 0.0143 0.329
vt 0.0125 0.3292
vt 0.0569 0.6231
vt 0.0551 0.6233
vt 0.0551 0.6164
vt 0.0569 0.6162
vt 0.057 0.3151
vt 0.0551 0.3091
vt 0.057 0.3091
vt 0.0126 0.321
vt 0.0126 0.318
vt 0.057 0.318
vt 0.0568 0.321
vt 0.0125 0.3152
vt 0.0569 0.3241
vt 0.045 0.3262
vt 0.0551 0.0224
vt 0.045 0.0224
vt 0.045 0.329
vt 0.045 0.0163
vt 0.0551 0.0163
vt 0.045 0.0235
vt 0.0143 0.6166
vt 0.0244 0.6141
vt 0.0126 0.6163
vt 0.0551 0.3262
vt 0.0569 0.3265
vt 0.045 0.6166
vt 0.045 0.3298
vt 0.0347 0.3298
vt 0.0347 0.3262
vt 0.0244 0.3262
vt 0.0244 0.0224
vt 0.0143 0.3112
vt 0.0125 0.3112
vt 0.0572 0.0225
vt 0.045 0.0252
vt 0.0347 0.0252
vt 0.0347 0.0224
vt 0.0244 0.3074
vt 0.045 0.3112
vt 0.0244 0.329
vt 0.0143 0.6164
vt 0.0126 0.6161
vt 0.0551 0.329
vt 0.0569 0.3292
vt 0.045 0.332
vt 0.0347 0.332
vt 0.0347 0.329
vt 0.0244 0.6131
vt 0.0126 0.623
vt 0.045 0.6164
vt 0.0244 0.0235
vt 0.0143 0.3091
vt 0.0125 0.3091
vt 0.0551 0.0235
vt 0.0572 0.0163
vt 0.0572 0.0235
vt 0.045 0.0269
vt 0.0347 0.0269
vt 0.0347 0.0235
vt 0.0244 0.3065
vt 0.045 0.3091
vt 0.0347 0.6141
vt 0.0347 0.6166
vt 0.0347 0.3074
vt 0.0347 0.6131
vt 0.0347 0.3065
vt 0.045 0.3065
vt 0.0244 0.0269
vt 0.045 0.6131
vt 0.0244 0.332
vt 0.045 0.3074
vt 0.0244 0.0252
vt 0.045 0.6141
vt 0.0244 0.3298
vn -0.2319 -0.9088 0.3468
vn -0.3472 -0.9086 0.232
vn -0.4092 -0.9088 0.0814
vn 0.0814 -0.9088 0.4093
vn -0.3469 -0.9088 -0.2318
vn -0.3827 -0.9239 0
vn -0.4092 -0.9088 -0.0814
vn -0.0814 -0.9088 -0.4092
vn -0.2318 -0.9088 -0.347
vn 0.2318 -0.9088 -0.3469
vn -0 -0.9228 -0.3854
vn 0 -0.9237 -0.3831
vn 0.0814 -0.9088 -0.4092
vn 0.4092 -0.9088 -0.0814
vn 0.3469 -0.9088 -0.2318
vn 0.347 -0.9088 0.2317
vn 0.3828 -0.9239 0
vn 0.3827 -0.9239 -0
vn 0.4092 -0.9088 0.0814
vn 0.2318 -0.9089 0.3466
vn 0 -0.9199 0.3921
vn 0 -0.9238 0.3828
vn -0.0814 -0.9087 0.4093
vn -0.3468 0.9088 0.2318
vn -0.2318 0.9087 0.3473
vn -0.0814 0.9088 0.4093
vn -0.4092 0.9088 -0.0814
vn 0.2317 0.9088 0.347
vn -0 0.925 0.3801
vn 0 0.9237 0.383
vn 0.0814 0.9088 0.4093
vn 0.4091 0.9088 0.0814
vn 0.3466 0.909 0.2316
vn 0.3469 0.9088 -0.2318
vn 0.3827 0.9239 0
vn 0.3826 0.9239 0
vn 0.4092 0.9088 -0.0814
vn 0.0814 0.9088 -0.4092
vn 0.2318 0.9087 -0.3471
vn -0.2318 0.9088 -0.3469
vn 0 0.923 -0.3847
vn 0 0.9241 -0.3821
vn -0.0814 0.9088 -0.4092
vn -0.3469 0.9088 -0.2319
vn -0.3825 0.924 0
vn -0.3827 0.9239 0
vn -0.4092 0.9088 0.0814
vn -0.0033 0.0081 1
vn -0.1951 0 0.9808
vn -0.1812 -0.3709 0.9108
vn 0.2654 0.0651 0.9619
vn 0.8983 0 -0.4393
vn 0.9808 0 0.1951
vn 0.9108 -0.371 0.1811
vn 0.9747 0.0775 -0.2098
vn 0.7721 0.371 0.516
vn 0.5159 0.371 0.7722
vn 0.5159 -0.371 0.7721
vn 0.7722 -0.3709 0.5159
vn -0.7721 0.371 0.5159
vn -0.7722 -0.3709 0.5159
vn -0.5159 -0.371 0.7721
vn -0.5158 0.3709 0.7722
vn 0.5159 0.371 -0.7722
vn 0.7721 0.371 -0.5159
vn 0.7721 -0.371 -0.5159
vn 0.5159 -0.371 -0.7722
vn 0.1812 0.371 0.9108
vn 0.1951 0 0.9808
vn 0.1812 -0.3709 0.9108
vn -0.1812 0.371 0.9108
vn 0.9808 0 -0.1951
vn 0.9108 -0.371 -0.1812
vn 0.9108 0.371 0.1812
vn -0.9808 0 0.1951
vn -0.9108 -0.371 0.1812
vn -0.9108 0.371 0.1811
vn 0.1951 0 -0.9808
vn 0.1811 -0.3709 -0.9108
vn 0.9239 -0.3827 0
vn 0 -0.3826 0.9239
vn 0 0.3827 0.9239
vn 0.9239 0.3827 0
vn 0.1811 0.3709 -0.9108
vn 0.9108 0.371 -0.1812
vn -0.4733 -0 -0.8809
vn -0.2252 0.0721 -0.9716
vn -0.8358 0 0.549
vn -0.9808 0 -0.1951
vn -0.9108 -0.371 -0.1812
vn -0.964 0.066 0.2574
vn -0.7721 0.371 -0.5159
vn -0.5159 0.371 -0.7722
vn -0.5159 -0.371 -0.7721
vn -0.7721 -0.371 -0.5159
vn -0.1811 0.371 -0.9108
vn -0.195 0 -0.9808
vn -0.1811 -0.3709 -0.9108
vn -0.9108 0.371 -0.1812
vn -0.9239 -0.3827 0
vn 0 -0.3827 -0.9239
vn 0 0.3827 -0.9239
vn -0.9239 0.3827 0
vn -0.2417 -0.0829 0.9668
vn 0.9687 -0.064 0.24
vn 0.2341 -0.0679 -0.9698
vn -0.9682 -0.0791 -0.2374
vn 0.2607 0.1529 0.9532
vn 0.2654 -0.0652 0.9619
vn -0.2579 -0.3324 0.9072
vn -0.428 -0 0.9038
vn -0.5149 0 0.8573
vn -0.2416 0.0828 0.9668
vn 0.9687 0.064 0.24
vn 0.9286 -0.2732 0.2511
vn 0.9043 -0 0.427
vn 0.8624 0 0.5062
vn 0.9343 0.2813 -0.2189
vn 0.9747 -0.0775 -0.2098
vn 0.2341 0.0679 -0.9698
vn 0 -0.3828 -0.9238
vn 0.245 -0.2781 -0.9288
vn 0.4169 -0 -0.9089
vn 0.4932 -0 -0.8699
vn -0.2355 0.2807 -0.9305
vn -0.2252 -0.0721 -0.9716
vn -0.9682 0.0791 -0.2374
vn -0.9148 -0.3159 -0.2516
vn -0.907 -0 -0.4212
vn -0.8639 0 -0.5036
vn -0.9113 0.3077 0.2738
vn -0.964 -0.0661 0.2574
vn 0.4648 -0 0.8854
vn 0.9853 -0.0066 0.1709
vn 0.9259 0 -0.3778
vn -0.4025 -0 -0.9154
vn -0.8916 -0 0.4528
vn -0.9112 -0.3077 0.2738
vn -0.9148 0.3159 -0.2516
vn -0.2355 -0.2807 -0.9305
vn 0.245 0.2781 -0.9288
vn 0.9343 -0.2814 -0.2189
vn 0.9286 0.2733 0.2511
vn 0.2421 -0.3641 0.8994
vn -0.2579 0.3324 0.9072
f 1/1/1 2/2/2 3/3/3
f 1/1/1 3/3/3 4/4/4
f 5/5/5 6/6/6 7/7/6
f 5/5/5 7/7/6 8/8/7
f 6/6/6 5/5/5 9/9/8
f 6/6/6 9/9/8 3/3/3
f 5/5/5 10/10/9 9/9/8
f 11/11/10 12/12/11 13/13/12
f 11/11/10 13/13/12 14/14/13
f 12/12/11 11/11/10 15/15/14
f 12/12/11 15/15/14 9/9/8
f 11/11/10 16/16/15 15/15/14
f 9/9/8 15/15/14 4/4/4
f 9/9/8 4/4/4 3/3/3
f 17/17/16 18/18/17 19/19/18
f 17/17/16 19/19/18 20/20/19
f 18/18/17 17/17/16 4/4/4
f 18/18/17 4/4/4 15/15/14
f 17/17/16 21/21/20 4/4/4
f 1/1/1 4/4/4 22/22/21
f 1/1/1 22/22/21 23/23/22
f 24/24/23 1/1/1 23/23/22
f 25/25/24 26/26/25 27/27/26
f 25/25/24 27/27/26 28/28/27
f 29/29/28 30/30/29 31/31/30
f 29/29/28 31/31/30 32/32/31
f 30/30/29 29/29/28 33/33/32
f 30/30/29 33/33/32 27/27/26
f 29/29/28 34/34/33 33/33/32
f 35/35/34 36/36/35 37/37/36
f 35/35/34 37/37/36 38/38/37
f 36/36/35 35/35/34 39/39/38
f 36/36/35 39/39/38 33/33/32
f 35/35/34 40/40/39 39/39/38
f 33/33/32 39/39/38 28/28/27
f 33/33/32 28/28/27 27/27/26
f 41/41/40 42/42/41 43/43/42
f 41/41/40 43/43/42 44/44/43
f 42/42/41 41/41/40 28/28/27
f 42/42/41 28/28/27 39/39/38
f 41/41/40 45/45/44 28/28/27
f 46/46/45 47/47/46 25/25/24
f 46/46/45 25/25/24 28/28/27
f 48/48/47 25/25/24 47/47/46
f 153/49/48 50/50/49 51/51/50
f 153/49/48 51/51/50 52/52/51
f 53/53/52 54/54/53 55/55/54
f 53/53/52 55/55/54 56/56/55
f 57/57/56 58/58/57 59/59/58
f 57/57/56 59/59/58 60/60/59
f 61/61/60 62/62/61 63/63/62
f 61/61/60 63/63/62 64/64/63
f 65/65/64 66/66/65 67/67/66
f 65/65/64 67/67/66 68/68/67
f 58/58/57 69/69/68 70/70/69
f 58/58/57 70/70/69 59/59/58
f 71/71/70 59/59/58 70/70/69
f 63/63/62 51/51/50 50/50/49
f 63/63/62 50/50/49 64/64/63
f 72/72/71 64/64/63 50/50/49
f 67/67/66 66/66/65 73/73/72
f 67/67/66 73/73/72 74/74/73
f 57/57/56 55/55/54 54/54/53
f 57/57/56 54/54/53 75/75/74
f 60/60/59 55/55/54 57/57/56
f 76/76/75 77/77/76 61/61/60
f 76/76/75 61/61/60 78/78/77
f 61/61/60 77/77/76 62/62/61
f 79/79/78 65/65/64 68/68/67
f 79/79/78 68/68/67 80/80/79
f 15/81/14 74/74/73 81/82/80
f 15/81/14 81/82/80 18/83/17
f 4/84/4 71/71/70 82/85/81
f 4/84/4 82/85/81 22/86/21
f 27/87/26 72/72/71 83/88/82
f 27/87/26 83/88/82 30/89/29
f 33/90/32 75/75/74 84/91/83
f 33/90/32 84/91/83 36/92/35
f 2/93/2 1/94/1 63/63/62
f 2/93/2 63/63/62 62/62/61
f 21/95/20 17/96/16 60/60/59
f 21/95/20 60/60/59 59/59/58
f 16/97/15 11/98/10 68/68/67
f 16/97/15 68/68/67 67/67/66
f 26/99/25 25/100/24 61/61/60
f 26/99/25 61/61/60 64/64/63
f 34/101/33 29/102/28 58/58/57
f 34/101/33 58/58/57 57/57/56
f 40/103/39 35/104/34 66/66/65
f 40/103/39 66/66/65 65/65/64
f 1/94/1 24/105/23 51/51/50
f 1/94/1 51/51/50 63/63/62
f 4/84/4 21/95/20 59/59/58
f 4/84/4 59/59/58 71/71/70
f 15/81/14 16/97/15 67/67/66
f 15/81/14 67/67/66 74/74/73
f 27/87/26 26/99/25 64/64/63
f 27/87/26 64/64/63 72/72/71
f 33/90/32 34/101/33 57/57/56
f 33/90/32 57/57/56 75/75/74
f 39/106/38 40/103/39 65/65/64
f 39/106/38 65/65/64 85/107/84
f 3/108/3 2/93/2 62/62/61
f 3/108/3 62/62/61 77/77/76
f 17/96/16 20/109/19 55/55/54
f 17/96/16 55/55/54 60/60/59
f 11/98/10 14/110/13 80/80/79
f 11/98/10 80/80/79 68/68/67
f 25/100/24 48/111/47 78/78/77
f 25/100/24 78/78/77 61/61/60
f 29/102/28 32/112/31 69/69/68
f 29/102/28 69/69/68 58/58/57
f 35/104/34 38/113/37 86/114/85
f 35/104/34 86/114/85 66/66/65
f 87/115/86 79/116/78 80/117/79
f 87/115/86 80/117/79 88/118/87
f 89/119/88 90/120/89 91/121/90
f 89/119/88 91/121/90 92/122/91
f 93/123/92 94/124/93 95/125/94
f 93/123/92 95/125/94 96/126/95
f 94/124/93 97/127/96 98/128/97
f 94/124/93 98/128/97 95/125/94
f 99/129/98 95/125/94 98/128/97
f 93/123/92 91/121/90 90/120/89
f 93/123/92 90/120/89 100/130/99
f 96/126/95 91/121/90 93/123/92
f 3/131/3 77/132/76 101/133/100
f 3/131/3 101/133/100 6/134/6
f 9/135/8 99/129/98 102/136/101
f 9/135/8 102/136/101 12/137/11
f 39/138/38 85/139/84 103/140/102
f 39/138/38 103/140/102 42/141/41
f 28/142/27 100/130/99 104/143/103
f 28/142/27 104/143/103 46/144/45
f 10/145/9 5/146/5 96/126/95
f 10/145/9 96/126/95 95/125/94
f 45/147/44 41/148/40 94/124/93
f 45/147/44 94/124/93 93/123/92
f 9/135/8 10/145/9 95/125/94
f 9/135/8 95/125/94 99/129/98
f 28/142/27 45/147/44 93/123/92
f 28/142/27 93/123/92 100/130/99
f 5/146/5 8/149/7 91/121/90
f 5/146/5 91/121/90 96/126/95
f 41/148/40 44/150/43 97/127/96
f 41/148/40 97/127/96 94/124/93
f 70/70/69 69/69/68 105/151/104
f 106/152/83 107/153/105 73/73/72
f 106/152/83 73/73/72 86/114/85
f 98/128/97 97/127/96 108/154/106
f 76/155/75 78/156/77 109/157/107
f 110/158/81 111/159/108 52/52/51
f 110/158/81 51/51/50 24/105/23
f 110/158/81 24/105/23 23/160/22
f 112/161/82 31/162/30 30/89/29
f 112/161/82 30/89/29 83/88/82
f 83/88/82 72/72/71 113/163/109
f 113/163/109 50/50/49 153/49/48
f 110/158/81 23/160/22 22/86/21
f 110/158/81 22/86/21 82/85/81
f 112/161/82 114/164/110 105/151/104
f 114/164/110 115/165/111 116/166/112
f 114/164/110 116/166/112 105/151/104
f 82/85/81 71/71/70 117/167/113
f 112/161/82 69/69/68 32/112/31
f 112/161/82 32/112/31 31/162/30
f 81/82/80 74/74/73 118/168/114
f 119/169/80 19/170/18 18/83/17
f 119/169/80 18/83/17 81/82/80
f 106/152/83 86/114/85 38/113/37
f 106/152/83 38/113/37 37/171/36
f 106/152/83 120/172/115 107/153/105
f 120/172/115 121/173/116 122/174/117
f 120/172/115 122/174/117 107/153/105
f 119/169/80 123/175/118 56/56/55
f 106/152/83 37/171/36 36/92/35
f 106/152/83 36/92/35 84/91/83
f 119/169/80 55/55/54 20/109/19
f 119/169/80 20/109/19 19/170/18
f 84/91/83 75/75/74 124/176/119
f 124/176/119 54/54/53 53/53/52
f 102/136/101 99/129/98 125/177/120
f 126/178/121 13/179/12 12/137/11
f 126/178/121 12/137/11 102/136/101
f 127/180/102 97/127/96 44/150/43
f 127/180/102 44/150/43 43/181/42
f 127/180/102 128/182/122 108/154/106
f 128/182/122 129/183/123 130/184/124
f 128/182/122 130/184/124 108/154/106
f 126/178/121 131/185/125 88/118/87
f 127/180/102 43/181/42 42/141/41
f 127/180/102 42/141/41 103/140/102
f 126/178/121 80/117/79 14/186/13
f 126/178/121 14/186/13 13/179/12
f 79/116/78 132/187/126 103/140/102
f 79/116/78 103/140/102 85/139/84
f 132/187/126 79/116/78 87/115/86
f 101/133/100 77/132/76 133/188/127
f 134/189/100 7/190/6 6/134/6
f 134/189/100 6/134/6 101/133/100
f 135/191/103 78/156/77 48/192/47
f 135/191/103 48/192/47 47/193/46
f 135/191/103 136/194/128 109/157/107
f 136/194/128 137/195/129 138/196/130
f 136/194/128 138/196/130 109/157/107
f 134/189/100 139/197/131 92/122/91
f 135/191/103 47/193/46 46/144/45
f 135/191/103 46/144/45 104/143/103
f 134/189/100 91/121/90 8/149/7
f 134/189/100 8/149/7 7/190/6
f 104/143/103 100/130/99 140/198/132
f 140/198/132 90/120/89 89/119/88
f 111/159/108 141/199/133 49/200/134
f 111/159/108 153/49/48 52/52/51
f 123/175/118 142/201/135 53/53/52
f 123/175/118 53/53/52 56/56/55
f 131/185/125 143/202/136 87/115/86
f 131/185/125 87/115/86 88/118/87
f 139/197/131 144/203/137 89/119/88
f 139/197/131 89/119/88 92/122/91
f 144/203/137 137/195/129 136/194/128
f 144/203/137 136/194/128 145/204/138
f 138/196/130 137/195/129 146/205/139
f 138/196/130 146/205/139 133/188/127
f 137/195/129 144/203/137 139/197/131
f 137/195/129 139/197/131 146/205/139
f 89/119/88 144/203/137 145/204/138
f 89/119/88 145/204/138 140/198/132
f 143/202/136 129/183/123 128/182/122
f 143/202/136 128/182/122 147/206/140
f 130/184/124 129/183/123 148/207/141
f 130/184/124 148/207/141 125/177/120
f 129/183/123 143/202/136 131/185/125
f 129/183/123 131/185/125 148/207/141
f 87/115/86 143/202/136 147/206/140
f 87/115/86 147/206/140 132/187/126
f 142/201/135 121/173/116 120/172/115
f 142/201/135 120/172/115 149/208/142
f 122/174/117 121/173/116 150/209/143
f 122/174/117 150/209/143 118/168/114
f 121/173/116 142/201/135 123/175/118
f 121/173/116 123/175/118 150/209/143
f 53/53/52 142/201/135 149/208/142
f 53/53/52 149/208/142 124/176/119
f 141/199/133 115/165/111 114/164/110
f 141/199/133 114/164/110 151/210/144
f 116/166/112 115/165/111 152/211/145
f 116/166/112 152/211/145 117/167/113
f 115/165/111 141/199/133 111/159/108
f 115/165/111 111/159/108 152/211/145
f 49/200/134 141/199/133 151/210/144
f 153/49/48 151/210/144 113/163/109
f 70/70/69 105/151/104 116/166/112
f 84/91/83 124/176/119 149/208/142
f 150/209/143 123/175/118 119/169/80
f 150/209/143 119/169/80 81/82/80
f 151/210/144 114/164/110 112/161/82
f 151/210/144 112/161/82 83/88/82
f 82/85/81 117/167/113 152/211/145
f 149/208/142 120/172/115 106/152/83
f 149/208/142 106/152/83 84/91/83
f 81/82/80 118/168/114 150/209/143
f 73/73/72 107/153/105 122/174/117
f 148/207/141 131/185/125 126/178/121
f 148/207/141 126/178/121 102/136/101
f 103/140/102 132/187/126 147/206/140
f 147/206/140 128/182/122 127/180/102
f 147/206/140 127/180/102 103/140/102
f 98/128/97 108/154/106 130/184/124
f 146/205/139 139/197/131 134/189/100
f 146/205/139 134/189/100 101/133/100
f 104/143/103 140/198/132 145/204/138
f 102/136/101 125/177/120 148/207/141
f 76/155/75 109/157/107 138/196/130
f 83/88/82 113/163/109 151/210/144
f 152/211/145 111/159/108 110/158/81
f 152/211/145 110/158/81 82/85/81
f 101/133/100 133/188/127 146/205/139
f 145/204/138 136/194/128 135/191/103
f 145/204/138 135/191/103 104/143/103
f 55/55/54 119/169/80 56/56/55
f 75/75/74 54/54/53 124/176/119
f 69/69/68 112/161/82 105/151/104
f 116/166/112 117/167/113 71/71/70
f 116/166/112 71/71/70 70/70/69
f 66/66/65 86/114/85 73/73/72
f 79/79/78 85/107/84 65/65/64
f 80/117/79 126/178/121 88/118/87
f 122/174/117 118/168/114 74/74/73
f 122/174/117 74/74/73 73/73/72
f 100/130/99 90/120/89 140/198/132
f 130/184/124 125/177/120 99/129/98
f 130/184/124 99/129/98 98/128/97
f 91/121/90 134/189/100 92/122/91
f 97/127/96 127/180/102 108/154/106
f 78/156/77 135/191/103 109/157/107
f 72/72/71 50/50/49 113/163/109
f 51/51/50 110/158/81 52/52/51
f 138/196/130 133/188/127 77/132/76
f 138/196/130 77/132/76 76/155/75
