o sponza_41
v -27.413 122.269 -24.6678
v -26.4599 122.071 -24.6678
v -26.4599 122.553 -24.8337
v -27.2217 122.711 -24.8337
v -28.1268 123.871 -26.3624
v -28.2272 124.583 -26.3624
v -28.2272 124.583 -25.0352
v -28.1268 123.871 -25.0352
v -28.6286 125.493 -24.6678
v -28.8529 124.623 -24.6678
v -28.3725 124.593 -24.8337
v -28.193 125.287 -24.8338
v -29.17 123.497 -24.3133
v -28.717 123.66 -24.6678
v -29.3332 124.654 -24.3133
v -29.17 123.497 -26.3624
v -29.3332 124.654 -26.3624
v -27.1112 126.116 -26.3624
v -26.4599 126.24 -26.3624
v -26.4599 126.24 -25.0352
v -27.1112 126.116 -25.0352
v -27.5189 127.147 -24.3133
v -27.3419 126.699 -24.6678
v -26.4599 126.868 -24.6678
v -26.4599 127.349 -24.3133
v -27.5189 127.147 -26.3624
v -26.4599 127.349 -26.3624
v -25.5067 122.269 -24.6678
v -25.698 122.711 -24.8337
v -24.6926 124.583 -26.3624
v -24.793 123.871 -26.3624
v -24.793 123.871 -25.0352
v -24.6926 124.583 -25.0352
v -24.0668 124.623 -24.6678
v -24.2912 125.493 -24.6678
v -24.7268 125.287 -24.8338
v -24.5473 124.593 -24.8337
v -24.2028 123.66 -24.6678
v -23.7498 123.497 -24.3133
v -23.5865 124.654 -24.3133
v -23.7498 123.497 -26.3624
v -23.5865 124.654 -26.3624
v -25.8085 126.116 -26.3624
v -25.8085 126.116 -25.0352
v -25.5779 126.699 -24.6678
v -25.4009 127.147 -24.3133
v -25.4009 127.147 -26.3624
v -28.2091 122.829 -24.6678
v -27.8581 123.158 -24.8337
v -28.264 123.822 -24.8337
v -27.1638 122.844 -26.3624
v -27.7517 123.258 -26.3624
v -27.7517 123.258 -25.0352
v -27.1638 122.844 -25.0352
v -28.1002 126.219 -24.6678
v -27.7707 125.867 -24.8338
v -27.1647 126.252 -24.8338
v -27.6043 121.827 -24.3133
v -28.5602 122.5 -24.3133
v -27.6043 121.827 -26.3624
v -28.5602 122.5 -26.3624
v -28.0615 125.225 -26.3624
v -27.6713 125.761 -26.3624
v -27.6713 125.761 -25.0352
v -28.0615 125.225 -25.0352
v -29.0638 125.698 -24.3133
v -28.4294 126.57 -24.3133
v -29.0638 125.698 -26.3624
v -28.4294 126.57 -26.3624
v -24.6558 123.822 -24.8337
v -25.0617 123.158 -24.8337
v -24.7106 122.829 -24.6678
v -25.756 122.844 -26.3624
v -25.756 122.844 -25.0352
v -25.168 123.258 -25.0352
v -25.168 123.258 -26.3624
v -25.7551 126.252 -24.8338
v -25.1491 125.867 -24.8338
v -24.8196 126.219 -24.6678
v -25.3154 121.827 -24.3133
v -24.3596 122.5 -24.3133
v -25.3154 121.827 -26.3624
v -24.3596 122.5 -26.3624
v -24.8583 125.225 -26.3624
v -24.8583 125.225 -25.0352
v -25.2485 125.761 -25.0352
v -25.2485 125.761 -26.3624
v -23.8559 125.698 -24.3133
v -24.4904 126.57 -24.3133
v -23.8559 125.698 -26.3624
v -24.4904 126.57 -26.3624
v -26.4599 122.699 -26.3624
v -26.4599 122.699 -25.0352
v -26.4599 126.386 -24.8338
v -26.4599 121.59 -24.3133
v -26.4599 121.59 -26.3624
v -29.17 123.497 -24.3133
v -29.3332 124.654 -24.3133
v -27.5189 127.147 -24.3133
v -26.4599 127.349 -24.3133
v -23.7498 123.497 -24.3133
v -23.5865 124.654 -24.3133
v -25.4009 127.147 -24.3133
v -27.6043 121.827 -24.3133
v -28.5602 122.5 -24.3133
v -29.0638 125.698 -24.3133
v -28.4294 126.57 -24.3133
v -25.3154 121.827 -24.3133
v -24.3596 122.5 -24.3133
v -23.8559 125.698 -24.3133
v -24.4904 126.57 -24.3133
v -26.4599 121.59 -24.3133
vt 0.1275 0.1878
vt 0.0033 0.1878
vt 0.0033 0.1621
vt 0.1275 0.1621
vt 0.3758 0.0638
vt 0.4999 0.0638
vt 0.4999 0.1451
vt 0.3758 0.1451
vt 0.6143 0.1878
vt 0.4999 0.1878
vt 0.4999 0.1621
vt 0.6143 0.1621
vt 0.3758 0.2169
vt 0.3758 0.1878
vt 0.4999 0.2169
vt 0.3758 0.3263
vt 0.3758 0.2169
vt 0.4999 0.2169
vt 0.4999 0.3263
vt 0.8431 0.0638
vt 0.9575 0.0638
vt 0.9575 0.1451
vt 0.8431 0.1451
vt 0.8431 0.2169
vt 0.8431 0.1878
vt 0.9575 0.1878
vt 0.9575 0.2169
vt 0.8431 0.3263
vt 0.8431 0.2169
vt 0.9575 0.2169
vt 0.9575 0.3263
vt 0.1275 0.1878
vt 0.1275 0.1621
vt 0.4999 0.0638
vt 0.3758 0.0638
vt 0.3758 0.1451
vt 0.4999 0.1451
vt 0.4999 0.1878
vt 0.6143 0.1878
vt 0.6143 0.1621
vt 0.4999 0.1621
vt 0.3758 0.1878
vt 0.3758 0.2169
vt 0.4999 0.2169
vt 0.4999 0.2169
vt 0.3758 0.2169
vt 0.3758 0.3263
vt 0.4999 0.3263
vt 0.8431 0.0638
vt 0.8431 0.1451
vt 0.8431 0.1878
vt 0.8431 0.2169
vt 0.8431 0.2169
vt 0.8431 0.3263
vt 0.2516 0.1878
vt 0.2516 0.1621
vt 0.3758 0.1621
vt 0.1275 0.0638
vt 0.2516 0.0638
vt 0.2516 0.1451
vt 0.1275 0.1451
vt 0.7287 0.1878
vt 0.7287 0.1621
vt 0.8431 0.1621
vt 0.1275 0.2169
vt 0.2516 0.2169
vt 0.1275 0.3263
vt 0.1275 0.2169
vt 0.2516 0.2169
vt 0.2516 0.3263
vt 0.6143 0.0638
vt 0.7287 0.0638
vt 0.7287 0.1451
vt 0.6143 0.1451
vt 0.6143 0.2169
vt 0.7287 0.2169
vt 0.6143 0.3263
vt 0.6143 0.2169
vt 0.7287 0.2169
vt 0.7287 0.3263
vt 0.3758 0.1621
vt 0.2516 0.1621
vt 0.2516 0.1878
vt 0.1275 0.0638
vt 0.1275 0.1451
vt 0.2516 0.1451
vt 0.2516 0.0638
vt 0.8431 0.1621
vt 0.7287 0.1621
vt 0.7287 0.1878
vt 0.1275 0.2169
vt 0.2516 0.2169
vt 0.1275 0.2169
vt 0.1275 0.3263
vt 0.2516 0.3263
vt 0.2516 0.2169
vt 0.6143 0.0638
vt 0.6143 0.1451
vt 0.7287 0.1451
vt 0.7287 0.0638
vt 0.6143 0.2169
vt 0.7287 0.2169
vt 0.6143 0.2169
vt 0.6143 0.3263
vt 0.7287 0.3263
vt 0.7287 0.2169
vt 0.0033 0.0638
vt 0.0033 0.1451
vt 0.9575 0.1621
vt 0.0033 0.2169
vt 0.0033 0.3263
vt 0.0033 0.2169
vn 0.1907 0.4403 0.8773
vn 0 0.4799 0.8773
vn -0 0.5694 0.8221
vn 0.2263 0.5225 0.8221
vn 0.9412 0.3377 0
vn 0.9984 -0.0562 0
vn 0.9461 -0.053 0.3195
vn 0.8917 0.3199 0.3203
vn 0.4329 -0.2043 0.878
vn 0.4786 -0.0267 0.8776
vn 0.5698 -0.0321 0.8212
vn 0.5172 -0.2441 0.8203
vn 0.5582 0.2003 0.8051
vn 0.4517 0.1621 0.8773
vn 0.5921 -0.0337 0.8051
vn -0.9412 -0.3377 0
vn -0.9984 0.0562 0
vn 0.3678 -0.9299 0
vn 0 -1 0
vn 0 -0.9478 0.3188
vn 0.3486 -0.8814 0.3188
vn 0.2181 -0.5515 0.8051
vn 0.1761 -0.4452 0.878
vn 0 -0.4787 0.878
vn 0 -0.5931 0.8051
vn -0.3678 0.9299 0
vn -0 1 0
vn -0.1907 0.4404 0.8773
vn -0.2263 0.5225 0.8221
vn -0.9984 -0.0562 0
vn -0.9412 0.3377 0
vn -0.8917 0.3199 0.3203
vn -0.9461 -0.053 0.3195
vn -0.4786 -0.0267 0.8776
vn -0.4329 -0.2043 0.878
vn -0.5172 -0.2441 0.8203
vn -0.5698 -0.0321 0.8212
vn -0.4517 0.1621 0.8773
vn -0.5582 0.2003 0.8051
vn -0.5921 -0.0337 0.8051
vn 0.9984 0.0562 0
vn 0.9412 -0.3377 0
vn -0.3678 -0.9299 0
vn -0.3486 -0.8814 0.3188
vn -0.1761 -0.4452 0.878
vn -0.2181 -0.5515 0.8051
vn 0.3678 0.9299 0
vn 0.3501 0.3282 0.8773
vn 0.4153 0.3895 0.8221
vn 0.5359 0.1923 0.8221
vn 0.3975 0.9176 0
vn 0.7295 0.684 0
vn 0.691 0.648 0.3203
vn 0.3765 0.8693 0.3203
vn 0.3275 -0.3492 0.878
vn 0.3912 -0.4172 0.8203
vn 0.2104 -0.5318 0.8203
vn 0.2357 0.5442 0.8051
vn 0.4326 0.4057 0.8051
vn -0.3975 -0.9176 0
vn -0.7295 -0.684 0
vn 0.9044 -0.4267 0
vn 0.684 -0.7295 0
vn 0.6483 -0.6914 0.3188
vn 0.8572 -0.4045 0.3188
vn 0.5364 -0.2531 0.8051
vn 0.4057 -0.4326 0.8051
vn -0.9044 0.4268 0
vn -0.684 0.7295 0
vn -0.5359 0.1923 0.8221
vn -0.4153 0.3895 0.8221
vn -0.35 0.3283 0.8773
vn -0.3975 0.9176 0
vn -0.3765 0.8693 0.3203
vn -0.691 0.648 0.3203
vn -0.7295 0.684 0
vn -0.2103 -0.5318 0.8203
vn -0.3912 -0.4172 0.8203
vn -0.3275 -0.3492 0.878
vn -0.2357 0.5442 0.8051
vn -0.4326 0.4057 0.8051
vn 0.3975 -0.9176 0
vn 0.7295 -0.684 0
vn -0.9044 -0.4267 0
vn -0.8572 -0.4045 0.3188
vn -0.6483 -0.6914 0.3188
vn -0.684 -0.7295 0
vn -0.5364 -0.2531 0.8051
vn -0.4057 -0.4326 0.8051
vn 0.9044 0.4268 0
vn 0.684 0.7295 0
vn -0 0.9473 0.3203
vn 0 -0.5719 0.8203
vn 0 0.5931 0.8052
f 1/1/1 2/2/2 3/3/3
f 1/1/1 3/3/3 4/4/4
f 5/5/5 6/6/6 7/7/7
f 5/5/5 7/7/7 8/8/8
f 9/9/9 10/10/10 11/11/11
f 9/9/9 11/11/11 12/12/12
f 97/13/13 14/14/14 10/10/10
f 97/13/13 10/10/10 98/15/15
f 16/16/16 13/17/16 15/18/17
f 16/16/16 15/18/17 17/19/17
f 18/20/18 19/21/19 20/22/20
f 18/20/18 20/22/20 21/23/21
f 99/24/22 23/25/23 24/26/24
f 99/24/22 24/26/24 100/27/25
f 26/28/26 22/29/26 25/30/27
f 26/28/26 25/30/27 27/31/27
f 2/2/2 28/32/28 29/33/29
f 2/2/2 29/33/29 3/3/3
f 30/34/30 31/35/31 32/36/32
f 30/34/30 32/36/32 33/37/33
f 34/38/34 35/39/35 36/40/36
f 34/38/34 36/40/36 37/41/37
f 34/38/34 38/42/38 101/43/39
f 34/38/34 101/43/39 102/44/40
f 40/45/41 39/46/42 41/47/42
f 40/45/41 41/47/42 42/48/41
f 19/21/19 43/49/43 44/50/44
f 19/21/19 44/50/44 20/22/20
f 24/26/24 45/51/45 103/52/46
f 24/26/24 103/52/46 100/27/25
f 25/30/27 46/53/47 47/54/47
f 25/30/27 47/54/47 27/31/27
f 14/14/14 48/55/48 49/56/49
f 14/14/14 49/56/49 50/57/50
f 51/58/51 52/59/52 53/60/53
f 51/58/51 53/60/53 54/61/54
f 23/25/23 55/62/55 56/63/56
f 23/25/23 56/63/56 57/64/57
f 104/65/58 1/1/1 48/55/48
f 104/65/58 48/55/48 105/66/59
f 60/67/60 58/68/60 59/69/61
f 60/67/60 59/69/61 61/70/61
f 62/71/62 63/72/63 64/73/64
f 62/71/62 64/73/64 65/74/65
f 106/75/66 9/9/9 55/62/55
f 106/75/66 55/62/55 107/76/67
f 68/77/68 66/78/68 67/79/69
f 68/77/68 67/79/69 69/80/69
f 38/42/38 70/81/70 71/82/71
f 38/42/38 71/82/71 72/83/72
f 73/84/73 74/85/74 75/86/75
f 73/84/73 75/86/75 76/87/76
f 45/51/45 77/88/77 78/89/78
f 45/51/45 78/89/78 79/90/79
f 28/32/28 108/91/80 109/92/81
f 28/32/28 109/92/81 72/83/72
f 80/93/82 82/94/82 83/95/83
f 80/93/82 83/95/83 81/96/83
f 84/97/84 85/98/85 86/99/86
f 84/97/84 86/99/86 87/100/87
f 35/39/35 110/101/88 111/102/89
f 35/39/35 111/102/89 79/90/79
f 88/103/90 90/104/90 91/105/91
f 88/103/90 91/105/91 89/106/91
f 48/55/48 1/1/1 4/4/4
f 48/55/48 4/4/4 49/56/49
f 52/59/52 5/5/5 8/8/8
f 52/59/52 8/8/8 53/60/53
f 55/62/55 9/9/9 12/12/12
f 55/62/55 12/12/12 56/63/56
f 105/66/59 48/55/48 14/14/14
f 105/66/59 14/14/14 97/13/13
f 61/70/61 59/69/61 13/17/16
f 61/70/61 13/17/16 16/16/16
f 63/72/63 18/20/18 21/23/21
f 63/72/63 21/23/21 64/73/64
f 107/76/67 55/62/55 23/25/23
f 107/76/67 23/25/23 99/24/22
f 69/80/69 67/79/69 22/29/26
f 69/80/69 22/29/26 26/28/26
f 72/83/72 71/82/71 29/33/29
f 72/83/72 29/33/29 28/32/28
f 76/87/76 75/86/75 32/36/32
f 76/87/76 32/36/32 31/35/31
f 79/90/79 78/89/78 36/40/36
f 79/90/79 36/40/36 35/39/35
f 72/83/72 109/92/81 101/43/39
f 72/83/72 101/43/39 38/42/38
f 81/96/83 83/95/83 41/47/42
f 81/96/83 41/47/42 39/46/42
f 87/100/87 86/99/86 44/50/44
f 87/100/87 44/50/44 43/49/43
f 79/90/79 111/102/89 103/52/46
f 79/90/79 103/52/46 45/51/45
f 89/106/91 91/105/91 47/54/47
f 89/106/91 47/54/47 46/53/47
f 10/10/10 14/14/14 50/57/50
f 10/10/10 50/57/50 11/11/11
f 92/107/27 51/58/51 54/61/54
f 92/107/27 54/61/54 93/108/92
f 24/26/24 23/25/23 57/64/57
f 24/26/24 57/64/57 94/109/93
f 1/1/1 104/65/58 112/110/94
f 1/1/1 112/110/94 2/2/2
f 96/111/19 95/112/19 58/68/60
f 96/111/19 58/68/60 60/67/60
f 6/6/6 62/71/62 65/74/65
f 6/6/6 65/74/65 7/7/7
f 98/15/15 10/10/10 9/9/9
f 98/15/15 9/9/9 106/75/66
f 17/19/17 15/18/17 66/78/68
f 17/19/17 66/78/68 68/77/68
f 34/38/34 37/41/37 70/81/70
f 34/38/34 70/81/70 38/42/38
f 92/107/27 93/108/92 74/85/74
f 92/107/27 74/85/74 73/84/73
f 24/26/24 94/109/93 77/88/77
f 24/26/24 77/88/77 45/51/45
f 2/2/2 112/110/94 108/91/80
f 2/2/2 108/91/80 28/32/28
f 95/112/19 96/111/19 82/94/82
f 95/112/19 82/94/82 80/93/82
f 30/34/30 33/37/33 85/98/85
f 30/34/30 85/98/85 84/97/84
f 34/38/34 102/44/40 110/101/88
f 34/38/34 110/101/88 35/39/35
f 40/45/41 42/48/41 90/104/90
f 40/45/41 90/104/90 88/103/90
f 11/11/11 50/57/50 8/8/8
f 11/11/11 8/8/8 7/7/7
f 94/109/93 57/64/57 21/23/21
f 94/109/93 21/23/21 20/22/20
f 70/81/70 37/41/37 33/37/33
f 70/81/70 33/37/33 32/36/32
f 77/88/77 94/109/93 20/22/20
f 77/88/77 20/22/20 44/50/44
f 49/56/49 4/4/4 54/61/54
f 49/56/49 54/61/54 53/60/53
f 56/63/56 12/12/12 65/74/65
f 56/63/56 65/74/65 64/73/64
f 29/33/29 71/82/71 75/86/75
f 29/33/29 75/86/75 74/85/74
f 36/40/36 78/89/78 86/99/86
f 36/40/36 86/99/86 85/98/85
f 50/57/50 49/56/49 53/60/53
f 50/57/50 53/60/53 8/8/8
f 57/64/57 56/63/56 64/73/64
f 57/64/57 64/73/64 21/23/21
f 71/82/71 70/81/70 32/36/32
f 71/82/71 32/36/32 75/86/75
f 78/89/78 77/88/77 44/50/44
f 78/89/78 44/50/44 86/99/86
f 4/4/4 3/3/3 93/108/92
f 4/4/4 93/108/92 54/61/54
f 12/12/12 11/11/11 7/7/7
f 12/12/12 7/7/7 65/74/65
f 3/3/3 29/33/29 74/85/74
f 3/3/3 74/85/74 93/108/92
f 37/41/37 36/40/36 85/98/85
f 37/41/37 85/98/85 33/37/33
