o sponza_107
v -97.3561 18.2653 -64.1441
v -103.824 18.2653 -64.1441
v -103.824 18.2653 -64.6968
v -97.3561 18.2653 -64.6968
v -97.4424 18.2653 -64.0695
v -103.738 18.2653 -64.0695
v -97.2902 18.6521 -64.0858
v -97.2902 18.6521 -64.6968
v -97.2003 19.2986 -64.6968
v -97.2003 19.2986 -64.0036
v -97.3749 18.6521 -64.0126
v -97.2798 19.2986 -63.935
v -103.9 19.2986 -63.935
v -103.805 18.6521 -64.0126
v -96.5964 21.3249 -63.3398
v -104.584 21.3249 -63.3398
v -104.588 20.8886 -63.3398
v -96.5923 20.8886 -63.3398
v -104.669 21.3249 -63.4133
v -104.669 21.3249 -64.6968
v -104.669 20.8886 -64.6968
v -104.669 20.8886 -63.4098
v -97.1019 18.4587 -64.6968
v -97.1019 18.4587 -63.9318
v -97.1966 18.4587 -63.85
v -103.983 18.4587 -63.85
v -96.5113 21.3249 -63.4133
v -96.5113 21.3249 -64.6968
v -96.2745 21.5431 -64.6968
v -96.2745 21.5431 -63.2165
v -96.3687 21.5431 -63.1352
v -104.811 21.5431 -63.1352
v -96.5113 21.7612 -64.6968
v -96.5113 21.7612 -63.4211
v -96.6054 21.7612 -63.3398
v -104.575 21.7612 -63.3398
v -96.896 20.1985 -63.7435
v -96.896 20.1985 -64.6968
v -96.5113 20.8886 -64.6968
v -96.5113 20.8886 -63.4098
v -96.9787 20.1985 -63.6721
v -104.201 20.1985 -63.6721
v -103.98 19.2986 -64.0036
v -103.89 18.6521 -64.0858
v -104.078 18.4587 -63.9318
v -104.905 21.5431 -63.2165
v -104.669 21.7612 -63.4211
v -104.284 20.1985 -63.7435
v -104.669 21.7612 -64.6968
v -103.98 19.2986 -64.6968
v -103.89 18.6521 -64.6968
v -104.078 18.4587 -64.6968
v -104.905 21.5431 -64.6968
v -104.284 20.1985 -64.6968
v -103.824 18.2653 -64.1441
v -103.824 18.2653 -64.6968
v -97.3561 18.2653 -64.1441
v -97.3561 18.2653 -64.6968
v -97.4424 18.2653 -64.0695
v -103.738 18.2653 -64.0695
v -97.1019 18.4587 -64.6968
v -97.1019 18.4587 -63.9318
v -97.1966 18.4587 -63.85
v -103.983 18.4587 -63.85
v -96.2745 21.5431 -64.6968
v -96.2745 21.5431 -63.2165
v -96.3687 21.5431 -63.1352
v -104.811 21.5431 -63.1352
v -104.078 18.4587 -63.9318
v -104.905 21.5431 -63.2165
v -104.078 18.4587 -64.6968
v -104.905 21.5431 -64.6968
vt 0.4476 0.6911
vt 0.2773 0.6911
vt 0.2773 0.6742
vt 0.4476 0.6742
vt 0.4453 0.6933
vt 0.2795 0.6933
vt 0.5504 0.8881
vt 0.5337 0.8881
vt 0.5337 0.9084
vt 0.5526 0.9084
vt 0.6076 0.8897
vt 0.6053 0.91
vt 0.7614 0.91
vt 0.7592 0.8897
vt 0.5892 0.9737
vt 0.7775 0.9737
vt 0.7776 0.96
vt 0.5891 0.96
vt 0.7937 0.9733
vt 0.8287 0.9733
vt 0.8287 0.9596
vt 0.7936 0.9596
vt 0.9865 0.7672
vt 0.9619 0.7672
vt 0.9632 0.7791
vt 0.9959 0.7791
vt 0.0112 0.7672
vt 0.0111 0.779
vt 0.2524 0.779
vt 0.2525 0.7672
vt 0.5546 0.882
vt 0.5337 0.882
vt 0.6034 0.8836
vt 0.7634 0.8836
vt 0.5687 0.9721
vt 0.5337 0.9721
vt 0.5337 0.979
vt 0.5741 0.979
vt 0.5839 0.9806
vt 0.7829 0.9806
vt 0.5337 0.979
vt 0.5337 0.9859
vt 0.5685 0.9859
vt 0.5741 0.979
vt 0.5839 0.9806
vt 0.5894 0.9875
vt 0.7773 0.9875
vt 0.7829 0.9806
vt 0.5597 0.9367
vt 0.5337 0.9367
vt 0.5337 0.9584
vt 0.5688 0.9584
vt 0.5982 0.9383
vt 0.7685 0.9383
vt 0.605 0.8907
vt 0.6028 0.9094
vt 0.8073 0.909
vt 0.8098 0.9096
vt 0.8121 0.8892
vt 0.8095 0.8902
vt 0.5867 0.9726
vt 0.5865 0.9593
vt 0.7912 0.9721
vt 0.791 0.9589
vt 0.6007 0.8862
vt 0.8079 0.8832
vt 0.8052 0.8857
vt 0.0079 0.7672
vt 0.0078 0.7789
vt 0.2558 0.7672
vt 0.2559 0.779
vt 0.5815 0.9806
vt 0.786 0.9801
vt 0.7884 0.9801
vt 0.5871 0.99
vt 0.5815 0.9806
vt 0.786 0.9801
vt 0.7916 0.9896
vt 0.7939 0.987
vt 0.7884 0.9801
vt 0.5957 0.9372
vt 0.8027 0.9379
vt 0.8002 0.9367
vt 0.1674 0.876
vt 0.1655 0.8746
vt 0.0109 0.8746
vt 0.0091 0.8976
vt 0.0091 0.876
vt 0.1674 0.8976
vt 0.8287 0.9096
vt 0.8287 0.8892
vt 0.2874 0.779
vt 0.2803 0.7672
vt 0.8287 0.8832
vt 0.8287 0.9801
vt 0.8287 0.9801
vt 0.8287 0.987
vt 0.8287 0.9379
vn 0 -1 -0
vn 0.8519 0.3925 0.3468
vn 0.9502 0.3116 0
vn 0.9732 -0.23 -0
vn 0.8738 -0.2937 0.3876
vn 0.2733 0.3543 0.8943
vn 0.3221 -0.2664 0.9085
vn -0.322 -0.2664 0.9085
vn -0.2731 0.3543 0.8944
vn 0.2669 -0.4559 0.8491
vn -0.2669 -0.4559 0.8491
vn -0.3578 -0.2715 0.8934
vn 0.3578 -0.2715 0.8935
vn -0.8 -0.5006 0.3306
vn -0.9159 -0.4015 0
vn -0.9678 -0.2516 -0
vn -0.8657 -0.2827 0.4131
vn 0.3222 -0.9399 0.1132
vn 0.3195 -0.9476 0
vn 0.6056 -0.7958 -0
vn 0.4567 -0.8581 0.2349
vn 0.0839 -0.9306 0.3562
vn 0.2243 -0.842 0.4906
vn -0.2243 -0.842 0.4906
vn -0.0839 -0.9306 0.3563
vn 0.5628 0.7755 0.2859
vn 0.7166 0.6975 0
vn 0.2693 0.753 0.6003
vn -0.2693 0.753 0.6004
vn 0.8 -0.5007 0.3306
vn 0.9159 -0.4015 0
vn 0.6776 -0.7354 -0
vn 0.5232 -0.8091 0.2675
vn 0.2533 -0.7891 0.5595
vn -0.2534 -0.7891 0.5595
vn 0.6776 0.7355 0
vn 0.3637 0.9315 0
vn 0.3667 0.9213 0.1296
vn 0.518 0.8126 0.267
vn 0.2528 0.7935 0.5537
vn 0.0967 0.9109 0.4011
vn -0.0967 0.9109 0.4012
vn -0.2528 0.7935 0.5536
vn 0.7955 -0.4977 0.3457
vn 0.9142 -0.4053 -0
vn 0.9678 -0.2516 -0
vn 0.8657 -0.2827 0.4132
vn 0.2907 -0.4578 0.8402
vn -0.2907 -0.4578 0.8402
vn -0.8738 -0.2937 0.3876
vn -0.8518 0.3926 0.3469
vn -0.5629 0.7755 0.286
vn -0.3222 -0.9399 0.1132
vn -0.4567 -0.8581 0.2349
vn -0.5233 -0.8091 0.2674
vn -0.3667 0.9212 0.1296
vn -0.5181 0.8126 0.267
vn -0.7955 -0.4977 0.3457
vn -0.3637 0.9315 0
vn -0.9732 -0.23 -0
vn -0.9502 0.3116 0
vn -0.6056 -0.7958 0
vn -0.3195 -0.9476 -0
vn -0.7166 0.6975 0
vn -0.6776 -0.7354 -0
vn -0.6776 0.7354 0
vn -0.9142 -0.4053 -0
f 57/1/1 55/2/1 56/3/1
f 57/1/1 56/3/1 58/4/1
f 55/2/1 57/1/1 59/5/1
f 55/2/1 59/5/1 60/6/1
f 7/7/2 8/8/3 9/9/4
f 7/7/2 9/9/4 10/10/5
f 11/11/6 12/12/7 13/13/8
f 11/11/6 13/13/8 14/14/9
f 15/15/10 16/16/11 17/17/12
f 15/15/10 17/17/12 18/18/13
f 19/19/14 20/20/15 21/21/16
f 19/19/14 21/21/16 22/22/17
f 1/23/18 4/24/19 61/25/20
f 1/23/18 61/25/20 62/26/21
f 5/27/22 63/28/23 64/29/24
f 5/27/22 64/29/24 6/30/25
f 7/7/2 24/31/26 23/32/27
f 7/7/2 23/32/27 8/8/3
f 25/33/28 11/11/6 14/14/9
f 25/33/28 14/14/9 26/34/29
f 27/35/30 28/36/31 65/37/32
f 27/35/30 65/37/32 66/38/33
f 15/15/10 67/39/34 68/40/35
f 15/15/10 68/40/35 16/16/11
f 29/41/36 33/42/37 34/43/38
f 29/41/36 34/43/38 30/44/39
f 31/45/40 35/46/41 36/47/42
f 31/45/40 36/47/42 32/48/43
f 37/49/44 38/50/45 39/51/46
f 37/49/44 39/51/46 40/52/47
f 41/53/48 18/18/13 17/17/12
f 41/53/48 17/17/12 42/54/49
f 10/10/5 9/9/4 38/50/45
f 10/10/5 38/50/45 37/49/44
f 12/12/7 41/53/48 42/54/49
f 12/12/7 42/54/49 13/13/8
f 7/55/2 10/56/5 12/12/7
f 7/55/2 12/12/7 11/11/6
f 13/57/8 43/58/50 44/59/51
f 13/57/8 44/59/51 14/60/9
f 27/61/30 15/15/10 18/18/13
f 27/61/30 18/18/13 40/62/47
f 16/63/11 19/19/14 22/22/17
f 16/63/11 22/22/17 17/64/12
f 7/55/2 11/11/6 25/33/28
f 7/55/2 25/33/28 24/65/26
f 44/59/51 69/66/52 26/67/29
f 44/59/51 26/67/29 14/60/9
f 63/28/23 5/27/22 1/68/18
f 63/28/23 1/68/18 62/69/21
f 2/70/53 6/30/25 64/29/24
f 2/70/53 64/29/24 45/71/54
f 27/61/30 66/72/33 67/39/34
f 27/61/30 67/39/34 15/15/10
f 68/73/35 70/74/55 19/19/14
f 68/73/35 19/19/14 16/63/11
f 34/75/38 35/46/41 31/45/40
f 34/75/38 31/45/40 30/76/39
f 32/77/43 36/78/42 47/79/56
f 32/77/43 47/79/56 46/80/57
f 37/81/44 40/62/47 18/18/13
f 37/81/44 18/18/13 41/53/48
f 17/64/12 22/22/17 48/82/58
f 17/64/12 48/82/58 42/83/49
f 10/56/5 37/81/44 41/53/48
f 10/56/5 41/53/48 12/12/7
f 42/83/49 48/82/58 43/58/50
f 42/83/49 43/58/50 13/57/8
f 47/84/56 36/85/42 35/86/41
f 47/84/56 35/86/41 33/87/37
f 35/86/41 34/88/38 33/87/37
f 49/89/59 47/84/56 33/87/37
f 44/59/51 43/58/50 50/90/60
f 44/59/51 50/90/60 51/91/61
f 27/35/30 40/52/47 39/51/46
f 27/35/30 39/51/46 28/36/31
f 2/70/53 45/71/54 71/92/62
f 2/70/53 71/92/62 3/93/63
f 52/94/64 69/66/52 44/59/51
f 52/94/64 44/59/51 51/91/61
f 19/19/14 70/74/55 72/95/65
f 19/19/14 72/95/65 20/20/15
f 53/96/66 46/80/57 47/79/56
f 53/96/66 47/79/56 49/97/59
f 48/82/58 22/22/17 21/21/16
f 48/82/58 21/21/16 54/98/67
f 43/58/50 48/82/58 54/98/67
f 43/58/50 54/98/67 50/90/60
