o sponza_96
v 129.761 18.2653 -64.5288
v 130.31 18.2653 -64.5289
v 129.861 18.2653 -63.9762
v 129.761 18.2653 -63.9761
v 129.811 18.2653 -63.915
v 130.31 18.2653 -63.8539
v 129.86 18.2653 -63.8539
v 129.715 18.6522 -63.9178
v 129.651 19.2986 -63.8356
v 129.651 19.2986 -64.5288
v 129.715 18.6522 -64.5288
v 129.761 18.2653 -63.9761
v 129.582 18.4587 -63.7638
v 129.582 18.4587 -64.5288
v 129.761 18.2653 -64.5288
v 129.715 18.6522 -63.9178
v 129.715 18.6522 -64.5288
v 129.582 18.4587 -64.5288
v 129.582 18.4587 -63.7638
v 129.167 21.3249 -63.2453
v 129 21.5431 -63.0485
v 129 21.5431 -64.5288
v 129.167 21.3249 -64.5288
v 129.167 21.7612 -63.2531
v 129.167 21.7612 -64.5288
v 129 21.5431 -64.5288
v 129 21.5431 -63.0485
v 129.437 20.1985 -63.5755
v 129.167 20.8886 -63.2418
v 129.167 20.8886 -64.5288
v 129.437 20.1985 -64.5288
v 129.651 19.2986 -63.8356
v 129.715 18.6522 -63.9178
v 129.764 18.6522 -63.8574
v 129.699 19.2986 -63.7775
v 129.215 20.8886 -63.1829
v 129.216 21.3249 -63.1846
v 129.167 21.3249 -63.2453
v 129.167 20.8886 -63.2418
v 129.216 21.3249 -63.1846
v 129.053 21.5431 -62.984
v 129 21.5431 -63.0485
v 129.167 21.3249 -63.2453
v 129 21.5431 -63.0485
v 129.053 21.5431 -62.984
v 129.219 21.7612 -63.1885
v 129.167 21.7612 -63.2531
v 129.486 20.1985 -63.516
v 129.215 20.8886 -63.1829
v 129.167 20.8886 -63.2418
v 129.437 20.1985 -63.5755
v 129.167 21.3249 -63.2453
v 129.167 21.3249 -64.5288
v 129.764 18.6522 -63.8574
v 129.715 18.6522 -63.9178
v 129.582 18.4587 -63.7638
v 129.635 18.4587 -63.699
v 129.582 18.4587 -63.7638
v 129.761 18.2653 -63.9761
v 129.811 18.2653 -63.915
v 129.635 18.4587 -63.699
v 129.167 21.7612 -64.5288
v 129.167 21.7612 -63.2531
v 129.219 21.7612 -63.1885
v 130.31 21.7612 -64.5289
v 129.813 18.6522 -63.7969
v 130.31 18.6522 -63.7969
v 130.31 19.2986 -63.7193
v 129.746 19.2986 -63.7193
v 129.86 18.2653 -63.8539
v 130.31 18.2653 -63.8539
v 130.31 18.4587 -63.6343
v 129.688 18.4587 -63.6343
v 130.31 18.4587 -63.6343
v 130.31 18.6522 -63.7969
v 129.813 18.6522 -63.7969
v 129.688 18.4587 -63.6343
v 129.266 21.3249 -63.124
v 130.31 21.3249 -63.124
v 130.31 21.5431 -62.9194
v 129.105 21.5431 -62.9194
v 130.31 21.5431 -62.9194
v 130.31 21.7612 -63.124
v 129.272 21.7612 -63.124
v 129.105 21.5431 -62.9194
v 129.534 20.1985 -63.4564
v 130.31 20.1985 -63.4564
v 130.31 20.8886 -63.124
v 129.263 20.8886 -63.124
v 129.813 18.6522 -63.7969
v 129.746 19.2986 -63.7193
v 129.266 21.3249 -63.124
v 129.263 20.8886 -63.124
v 129.266 21.3249 -63.124
v 129.105 21.5431 -62.9194
v 129.272 21.7612 -63.124
v 129.105 21.5431 -62.9194
v 129.534 20.1985 -63.4564
v 129.263 20.8886 -63.124
v 129.266 21.3249 -63.124
v 130.31 21.3249 -63.124
v 129.688 18.4587 -63.6343
v 129.813 18.6522 -63.7969
v 129.86 18.2653 -63.8539
v 129.688 18.4587 -63.6343
v 129.272 21.7612 -63.124
v 130.31 21.7612 -63.124
vt 0.4476 0.6742
vt 0.427 0.6742
vt 0.4439 0.6911
vt 0.4476 0.6911
vt 0.4457 0.6929
vt 0.4476 0.6742
vt 0.4476 0.6911
vt 0.5504 0.8881
vt 0.5526 0.9084
vt 0.5337 0.9084
vt 0.5337 0.8881
vt 0.9865 0.7672
vt 0.9959 0.7791
vt 0.9632 0.7791
vt 0.9619 0.7672
vt 0.5504 0.8881
vt 0.5337 0.8881
vt 0.5337 0.882
vt 0.5546 0.882
vt 0.5687 0.9721
vt 0.5741 0.979
vt 0.5337 0.979
vt 0.5337 0.9721
vt 0.5685 0.9859
vt 0.5337 0.9859
vt 0.5337 0.979
vt 0.5741 0.979
vt 0.5597 0.9367
vt 0.5688 0.9584
vt 0.5337 0.9584
vt 0.5337 0.9367
vt 0.6028 0.9094
vt 0.605 0.8907
vt 0.6071 0.8899
vt 0.605 0.9099
vt 0.5887 0.9599
vt 0.5888 0.9735
vt 0.5867 0.9726
vt 0.5865 0.9593
vt 0.5888 0.9735
vt 0.5834 0.9806
vt 0.5815 0.9806
vt 0.5867 0.9726
vt 0.5815 0.9806
vt 0.5834 0.9806
vt 0.589 0.988
vt 0.5871 0.99
vt 0.5978 0.9381
vt 0.5887 0.9599
vt 0.5865 0.9593
vt 0.5957 0.9372
vt 0.5687 0.9721
vt 0.5337 0.9721
vt 0.6071 0.8899
vt 0.605 0.8907
vt 0.6007 0.8862
vt 0.6028 0.8842
vt 0.0078 0.7789
vt 0.0079 0.7672
vt 0.0107 0.7672
vt 0.0104 0.779
vt 0.0091 0.8976
vt 0.0091 0.876
vt 0.0105 0.8749
vt 0.0406 0.8976
vt 0.5504 0.8881
vt 0.5337 0.8881
vt 0.5337 0.9084
vt 0.5526 0.9084
vt 0.9865 0.7672
vt 0.9619 0.7672
vt 0.9632 0.7791
vt 0.9959 0.7791
vt 0.5337 0.882
vt 0.5337 0.8881
vt 0.5504 0.8881
vt 0.5546 0.882
vt 0.5687 0.9721
vt 0.5337 0.9721
vt 0.5337 0.979
vt 0.5741 0.979
vt 0.5337 0.979
vt 0.5337 0.9859
vt 0.5685 0.9859
vt 0.5741 0.979
vt 0.5597 0.9367
vt 0.5337 0.9367
vt 0.5337 0.9584
vt 0.5688 0.9584
vt 0.605 0.8907
vt 0.6028 0.9094
vt 0.5867 0.9726
vt 0.5865 0.9593
vt 0.5867 0.9726
vt 0.5815 0.9806
vt 0.5871 0.99
vt 0.5815 0.9806
vt 0.5957 0.9372
vt 0.5865 0.9593
vt 0.5687 0.9721
vt 0.5337 0.9721
vt 0.6007 0.8862
vt 0.605 0.8907
vt 0.0079 0.7672
vt 0.0078 0.7789
vt 0.0091 0.876
vt 0.0091 0.8976
vn -0 -1 -0
vn -0 -1 -0
vn -0 -1 -0
vn -0 -1 -0
vn -0 -1 -0
vn -0 -1 -0
vn -0 -1 -0
vn -0.9953 -0.0973 -0
vn -0.9849 -0.1729 -0
vn -0.9863 -0.1647 -0
vn -0.9953 -0.0973 -0
vn -0.4048 -0.9098 0.0916
vn -0.5611 -0.7899 0.2473
vn -0.7343 -0.6788 -0
vn -0.4006 -0.9162 0
vn -0.8251 0.565 0
vn -0.8252 0.5649 0
vn -0.8252 0.5649 0
vn -0.8251 0.565 0
vn -0.7948 -0.6068 -0
vn -0.7948 -0.6068 -0
vn -0.7948 -0.6068 -0
vn -0.7948 -0.6068 -0
vn -0.7948 0.6068 0
vn -0.7948 0.6068 0
vn -0.7948 0.6068 0
vn -0.7948 0.6068 0
vn -0.9497 -0.3131 -0
vn -0.9876 -0.1573 -0
vn -0.9826 -0.1858 -0
vn -0.9543 -0.2989 -0
vn -0.7515 -0.2473 0.6117
vn -0.7662 -0.1542 0.6238
vn -0.7662 -0.1542 0.6238
vn -0.7508 -0.2505 0.6112
vn -0.7756 0.0051 0.6312
vn -0.7756 0.0051 0.6312
vn -0.7756 0.0052 0.6312
vn -0.7757 0.0051 0.6311
vn -0.506 -0.7579 0.4119
vn -0.506 -0.7578 0.4119
vn -0.5059 -0.7578 0.412
vn -0.5059 -0.7579 0.4118
vn -0.5004 0.7639 0.4075
vn -0.5004 0.764 0.4073
vn -0.5005 0.7639 0.4074
vn -0.5005 0.7639 0.4073
vn -0.6985 -0.4345 0.5686
vn -0.6623 -0.5204 0.539
vn -0.6623 -0.5204 0.539
vn -0.7005 -0.4294 0.57
vn -1 -0 0
vn -1 -0 0
vn -0.5393 0.7187 0.4389
vn -0.5393 0.7187 0.4389
vn -0.5392 0.7187 0.439
vn -0.5392 0.7187 0.439
vn -0.5611 -0.7899 0.2473
vn -0.4048 -0.9098 0.0916
vn -0.2353 -0.9528 0.1916
vn -0.4487 -0.8156 0.3653
vn -0 1 0
vn -0 1 0
vn -0 1 0
vn -0 1 0
vn 0 -0.1192 0.9929
vn 0 -0.1192 0.9929
vn 0 -0.2005 0.9797
vn -0 -0.2085 0.978
vn -0.1239 -0.846 0.5185
vn -0 -0.9355 0.3532
vn 0 -0.7505 0.6609
vn 0 -0.7505 0.6609
vn 0 0.6437 0.7653
vn 0 0.6437 0.7653
vn 0 0.6437 0.7653
vn 0 0.6437 0.7653
vn 0 -0.6841 0.7294
vn 0 -0.6841 0.7294
vn 0 -0.6841 0.7294
vn 0 -0.6841 0.7294
vn 0 0.6841 0.7294
vn 0 0.6841 0.7294
vn 0 0.6841 0.7294
vn 0 0.6841 0.7294
vn -0 -0.3717 0.9284
vn -0 -0.3584 0.9336
vn 0 -0.2226 0.9749
vn 0 -0.1959 0.9806
vn -0.7662 -0.1542 0.6238
vn -0.7502 -0.2535 0.6107
vn -0.7755 0.0051 0.6313
vn -0.7755 0.0052 0.6313
vn -0.5061 -0.7578 0.4119
vn -0.5061 -0.7578 0.4118
vn -0.5005 0.7639 0.4074
vn -0.5004 0.764 0.4072
vn -0.6965 -0.4395 0.5673
vn -0.6622 -0.5204 0.5391
vn 0 -0 1
vn 0 -0 1
vn -0.5393 0.7186 0.439
vn -0.5393 0.7187 0.439
vn -0.2547 -0.8996 0.3546
vn -0.4486 -0.8157 0.3652
vn 0 1 0.0001
vn -0 1 0
f 1/1/1 2/2/2 3/3/3
f 1/1/1 3/3/3 4/4/4
f 5/5/5 4/4/4 3/3/3
f 6/6/6 7/7/7 3/3/3
f 6/6/6 3/3/3 2/2/2
f 5/5/5 3/3/3 7/7/7
f 8/8/8 9/9/9 10/10/10
f 8/8/8 10/10/10 11/11/11
f 12/12/12 13/13/13 14/14/14
f 12/12/12 14/14/14 15/15/15
f 16/16/16 17/17/17 18/18/18
f 16/16/16 18/18/18 19/19/19
f 20/20/20 21/21/21 22/22/22
f 20/20/20 22/22/22 23/23/23
f 24/24/24 25/25/25 26/26/26
f 24/24/24 26/26/26 27/27/27
f 28/28/28 29/29/29 30/30/30
f 28/28/28 30/30/30 31/31/31
f 9/9/9 28/28/28 31/31/31
f 9/9/9 31/31/31 10/10/10
f 32/32/32 33/33/33 34/34/34
f 32/32/32 34/34/34 35/35/35
f 36/36/36 37/37/37 38/38/38
f 36/36/36 38/38/38 39/39/39
f 40/40/40 41/41/41 42/42/42
f 40/40/40 42/42/42 43/43/43
f 44/44/44 45/45/45 46/46/46
f 44/44/44 46/46/46 47/47/47
f 48/48/48 49/49/49 50/50/50
f 48/48/48 50/50/50 51/51/51
f 35/35/35 48/48/48 51/51/51
f 35/35/35 51/51/51 32/32/32
f 30/30/30 29/29/29 52/52/52
f 30/30/30 52/52/52 53/53/53
f 54/54/54 55/55/55 56/56/56
f 54/54/54 56/56/56 57/57/57
f 58/58/58 59/59/59 60/60/60
f 58/58/58 60/60/60 61/61/61
f 62/62/62 63/63/63 64/64/64
f 62/62/62 64/64/64 65/65/65
f 66/66/66 67/67/67 68/68/68
f 66/66/66 68/68/68 69/69/69
f 70/70/70 71/71/71 72/72/72
f 70/70/70 72/72/72 73/73/73
f 74/74/74 75/75/75 76/76/76
f 74/74/74 76/76/76 77/77/77
f 78/78/78 79/79/79 80/80/80
f 78/78/78 80/80/80 81/81/81
f 82/82/82 83/83/83 84/84/84
f 82/82/82 84/84/84 85/85/85
f 86/86/86 87/87/87 88/88/88
f 86/86/86 88/88/88 89/89/89
f 69/69/69 68/68/68 87/87/87
f 69/69/69 87/87/87 86/86/86
f 90/90/90 91/91/91 35/35/35
f 90/90/90 35/35/35 34/34/34
f 92/92/92 37/37/37 36/36/36
f 92/92/92 36/36/36 93/93/93
f 94/94/94 95/95/95 41/41/41
f 94/94/94 41/41/41 40/40/40
f 96/96/96 46/46/46 45/45/45
f 96/96/96 45/45/45 97/97/97
f 98/98/98 99/99/99 49/49/49
f 98/98/98 49/49/49 48/48/48
f 91/91/91 98/98/98 48/48/48
f 91/91/91 48/48/48 35/35/35
f 100/100/100 89/89/89 88/88/88
f 100/100/100 88/88/88 101/101/101
f 57/57/57 102/102/102 103/103/103
f 57/57/57 103/103/103 54/54/54
f 61/61/61 60/60/60 104/104/104
f 61/61/61 104/104/104 105/105/105
f 64/64/64 106/106/106 107/107/107
f 64/64/64 107/107/107 65/65/65
