o sponza_113
v -142.478 18.2652 16.3254
v -142.478 18.2652 22.9585
v -143.031 18.2652 22.9586
v -143.031 18.2652 16.3254
v -142.403 18.2652 16.4139
v -142.403 18.2652 22.87
v -142.42 18.6521 16.2578
v -143.031 18.6521 16.2578
v -143.031 19.2985 16.1657
v -142.337 19.2985 16.1657
v -142.346 18.6521 16.3447
v -142.269 19.2985 16.2471
v -142.269 19.2985 23.0368
v -142.346 18.6521 22.9392
v -141.674 21.3249 15.5463
v -141.674 21.3248 23.7376
v -141.674 20.8885 23.7418
v -141.674 20.8886 15.5421
v -141.747 21.3248 23.8249
v -143.031 21.3248 23.8249
v -143.031 20.8885 23.8249
v -141.744 20.8885 23.8249
v -142.478 18.2652 16.3254
v -143.031 18.2652 16.3254
v -143.031 18.4587 16.0647
v -142.266 18.4587 16.0647
v -142.403 18.2652 16.4139
v -142.184 18.4587 16.1618
v -142.184 18.4586 23.1221
v -142.403 18.2652 22.87
v -142.42 18.6521 16.2578
v -142.266 18.4587 16.0647
v -143.031 18.4587 16.0647
v -143.031 18.6521 16.2578
v -142.184 18.4587 16.1618
v -142.346 18.6521 16.3447
v -142.346 18.6521 22.9392
v -142.184 18.4586 23.1221
v -141.747 21.3249 15.4591
v -143.031 21.3249 15.4591
v -143.031 21.543 15.2162
v -141.55 21.543 15.2162
v -141.674 21.3249 15.5463
v -141.469 21.543 15.3127
v -141.469 21.543 23.9712
v -141.674 21.3248 23.7376
v -143.031 21.543 15.2162
v -143.031 21.7612 15.4591
v -141.755 21.7612 15.4591
v -141.55 21.543 15.2162
v -141.469 21.543 15.3127
v -141.674 21.7612 15.5556
v -141.674 21.7612 23.7284
v -141.469 21.543 23.9712
v -142.077 20.1984 15.8536
v -143.031 20.1984 15.8536
v -143.031 20.8886 15.4591
v -141.744 20.8886 15.4591
v -142.006 20.1984 15.9384
v -142.006 20.1984 23.3456
v -142.42 18.6521 16.2578
v -142.337 19.2985 16.1657
v -142.269 19.2985 16.2471
v -142.346 18.6521 16.3447
v -142.269 19.2985 23.0368
v -142.337 19.2985 23.1183
v -142.42 18.6521 23.0261
v -142.346 18.6521 22.9392
v -141.747 21.3249 15.4591
v -141.674 21.3249 15.5463
v -141.674 20.8886 15.5421
v -141.744 20.8886 15.4591
v -141.674 21.3248 23.7376
v -141.747 21.3248 23.8249
v -141.744 20.8885 23.8249
v -141.674 20.8885 23.7418
v -142.42 18.6521 16.2578
v -142.266 18.4587 16.0647
v -142.42 18.6521 23.0261
v -142.266 18.4586 23.2192
v -142.184 18.4586 23.1221
v -142.346 18.6521 22.9392
v -142.478 18.2652 16.3254
v -142.266 18.4587 16.0647
v -142.478 18.2652 22.9585
v -142.266 18.4586 23.2192
v -141.747 21.3249 15.4591
v -141.55 21.543 15.2162
v -141.469 21.543 23.9712
v -141.55 21.543 24.0677
v -141.747 21.3248 23.8249
v -141.674 21.3248 23.7376
v -141.755 21.7612 15.4591
v -141.55 21.543 15.2162
v -141.469 21.543 23.9712
v -141.674 21.7612 23.7284
v -141.755 21.7612 23.8249
v -141.55 21.543 24.0677
v -142.077 20.1984 15.8536
v -141.744 20.8886 15.4591
v -141.674 20.8886 15.5421
v -142.006 20.1984 15.9384
v -141.674 20.8885 23.7418
v -141.744 20.8885 23.8249
v -142.077 20.1984 23.4303
v -142.006 20.1984 23.3456
v -141.755 21.7612 23.8249
v -141.674 21.7612 23.7284
v -141.674 21.7612 15.5556
v -143.031 21.7612 15.4591
v -141.755 21.7612 15.4591
v -143.031 21.7612 23.8249
v -142.42 18.6521 23.0261
v -142.337 19.2985 23.1183
v -143.031 19.2985 23.1183
v -143.031 18.6521 23.0261
v -141.747 21.3249 15.4591
v -143.031 21.3249 15.4591
v -143.031 18.4586 23.2192
v -143.031 18.2652 22.9586
v -143.031 18.4586 23.2192
v -142.266 18.4586 23.2192
v -142.42 18.6521 23.0261
v -143.031 18.6521 23.0261
v -141.747 21.3248 23.8249
v -141.55 21.543 24.0677
v -143.031 21.543 24.0677
v -143.031 21.3248 23.8249
v -143.031 21.543 24.0677
v -141.55 21.543 24.0677
v -141.755 21.7612 23.8249
v -143.031 21.7612 23.8249
v -142.077 20.1984 23.4303
v -143.031 20.1984 23.4303
vt 0.4476 0.6911
vt 0.2773 0.6911
vt 0.2773 0.6742
vt 0.4476 0.6742
vt 0.4453 0.6933
vt 0.2795 0.6933
vt 0.5504 0.8881
vt 0.5337 0.8881
vt 0.5337 0.9084
vt 0.5526 0.9084
vt 0.6076 0.8897
vt 0.6053 0.91
vt 0.7614 0.91
vt 0.7592 0.8897
vt 0.5892 0.9737
vt 0.7775 0.9737
vt 0.7776 0.96
vt 0.5891 0.96
vt 0.7937 0.9733
vt 0.8287 0.9733
vt 0.8287 0.9596
vt 0.7936 0.9596
vt 0.9865 0.7672
vt 0.9619 0.7672
vt 0.9632 0.7791
vt 0.9959 0.7791
vt 0.0112 0.7672
vt 0.0111 0.779
vt 0.2524 0.779
vt 0.2525 0.7672
vt 0.5504 0.8881
vt 0.5546 0.882
vt 0.5337 0.882
vt 0.5337 0.8881
vt 0.6034 0.8836
vt 0.6076 0.8897
vt 0.7592 0.8897
vt 0.7634 0.8836
vt 0.5687 0.9721
vt 0.5337 0.9721
vt 0.5337 0.979
vt 0.5741 0.979
vt 0.5892 0.9737
vt 0.5839 0.9806
vt 0.7829 0.9806
vt 0.7775 0.9737
vt 0.5337 0.979
vt 0.5337 0.9859
vt 0.5685 0.9859
vt 0.5741 0.979
vt 0.5839 0.9806
vt 0.5894 0.9875
vt 0.7773 0.9875
vt 0.7829 0.9806
vt 0.5597 0.9367
vt 0.5337 0.9367
vt 0.5337 0.9584
vt 0.5688 0.9584
vt 0.5982 0.9383
vt 0.7685 0.9383
vt 0.605 0.8907
vt 0.6028 0.9094
vt 0.6053 0.91
vt 0.6076 0.8897
vt 0.8073 0.909
vt 0.8098 0.9096
vt 0.8121 0.8892
vt 0.8095 0.8902
vt 0.5867 0.9726
vt 0.5892 0.9737
vt 0.5891 0.96
vt 0.5865 0.9593
vt 0.7912 0.9721
vt 0.7937 0.9733
vt 0.7936 0.9596
vt 0.791 0.9589
vt 0.605 0.8907
vt 0.6007 0.8862
vt 0.8121 0.8892
vt 0.8079 0.8832
vt 0.8052 0.8857
vt 0.8095 0.8902
vt 0.0079 0.7672
vt 0.0078 0.7789
vt 0.2558 0.7672
vt 0.2559 0.779
vt 0.5867 0.9726
vt 0.5815 0.9806
vt 0.786 0.9801
vt 0.7884 0.9801
vt 0.7937 0.9733
vt 0.7912 0.9721
vt 0.5871 0.99
vt 0.5815 0.9806
vt 0.786 0.9801
vt 0.7916 0.9896
vt 0.7939 0.987
vt 0.7884 0.9801
vt 0.5957 0.9372
vt 0.5865 0.9593
vt 0.5891 0.96
vt 0.5982 0.9383
vt 0.791 0.9589
vt 0.7936 0.9596
vt 0.8027 0.9379
vt 0.8002 0.9367
vt 0.1674 0.876
vt 0.1655 0.8746
vt 0.0109 0.8746
vt 0.0091 0.8976
vt 0.0091 0.876
vt 0.1674 0.8976
vt 0.8121 0.8892
vt 0.8098 0.9096
vt 0.8287 0.9096
vt 0.8287 0.8892
vt 0.5687 0.9721
vt 0.5337 0.9721
vt 0.2874 0.779
vt 0.2803 0.7672
vt 0.8287 0.8832
vt 0.8079 0.8832
vt 0.8121 0.8892
vt 0.8287 0.8892
vt 0.7937 0.9733
vt 0.7884 0.9801
vt 0.8287 0.9801
vt 0.8287 0.9733
vt 0.8287 0.9801
vt 0.7884 0.9801
vt 0.7939 0.987
vt 0.8287 0.987
vt 0.8027 0.9379
vt 0.8287 0.9379
vn 0 -1 -0
vn 0 -1 -0
vn 0 -1 -0
vn 0 -1 -0
vn 0 -1 -0
vn 0 -1 -0
vn 0 -0.1411 -0.99
vn 0 -0.1411 -0.99
vn 0 -0.2354 -0.9719
vn 0 -0.2466 -0.9691
vn 0.9929 -0.1192 -0
vn 0.9773 -0.2119 -0
vn 0.9773 -0.2119 -0
vn 0.9929 -0.1192 -0
vn 1 -0.0001 0
vn 1 0 0
vn 0.9831 -0.1832 -0
vn 0.9831 -0.1832 -0
vn 0 0 1
vn 0 0 1
vn 0 -0.2568 0.9665
vn 0 -0.2201 0.9755
vn 0.1148 -0.9417 -0.3163
vn 0 -0.9495 -0.3137
vn 0 -0.8031 -0.5958
vn 0.2333 -0.8622 -0.4497
vn 0.3561 -0.9309 -0.0807
vn 0.4891 -0.8437 -0.2212
vn 0.4892 -0.8437 0.2212
vn 0.3561 -0.9309 0.0807
vn 0 0.7065 -0.7077
vn 0 0.7065 -0.7077
vn 0 0.7065 -0.7077
vn 0 0.7065 -0.7077
vn 0.5993 0.7551 -0.2657
vn 0.672 0.7218 -0.1656
vn 0.672 0.7218 0.1656
vn 0.5992 0.7552 0.2658
vn 0 -0.7439 -0.6683
vn 0 -0.7439 -0.6683
vn 0 -0.7439 -0.6683
vn 0 -0.7439 -0.6683
vn 0.6353 -0.7573 -0.1511
vn 0.5584 -0.7911 -0.2499
vn 0.5584 -0.791 0.2499
vn 0.6353 -0.7573 0.1511
vn 0 0.7439 -0.6683
vn 0 0.7439 -0.6683
vn 0 0.7439 -0.6683
vn 0 0.7439 -0.6683
vn 0.5524 0.7954 -0.2493
vn 0.6344 0.7588 -0.1474
vn 0.6344 0.7588 0.1474
vn 0.5524 0.7954 0.2493
vn 0 -0.4309 -0.9024
vn 0 -0.4138 -0.9104
vn 0 -0.2568 -0.9665
vn 0 -0.2201 -0.9755
vn 0.9263 -0.3769 -0
vn 0.9263 -0.3769 -0
vn 0.7517 -0.1858 -0.6328
vn 0.7293 -0.3014 -0.6143
vn 0.731 -0.2942 -0.6157
vn 0.7517 -0.1858 -0.6328
vn 0.7312 -0.2942 0.6155
vn 0.7295 -0.3014 0.614
vn 0.7517 -0.1858 0.6328
vn 0.7517 -0.1858 0.6328
vn 0.7647 0.0062 -0.6443
vn 0.7648 0.0062 -0.6443
vn 0.7647 0.0062 -0.6444
vn 0.7647 0.0062 -0.6444
vn 0.7648 0.0062 0.6442
vn 0.7648 0.0062 0.6442
vn 0.7648 0.0062 0.6443
vn 0.7648 0.0062 0.6443
vn 0.4773 0.7814 -0.4019
vn 0.4773 0.7813 -0.4021
vn 0.4773 0.7814 0.4019
vn 0.4772 0.7814 0.4021
vn 0.5992 0.7552 0.2658
vn 0.672 0.7218 0.1656
vn 0.1148 -0.9417 -0.3163
vn 0.2333 -0.8622 -0.4497
vn 0.1148 -0.9417 0.3163
vn 0.2333 -0.8622 0.4497
vn 0.4431 -0.8151 -0.3733
vn 0.4432 -0.8151 -0.3732
vn 0.5584 -0.791 0.2499
vn 0.4432 -0.815 0.3732
vn 0.4431 -0.8151 0.3732
vn 0.6353 -0.7573 0.1511
vn 0.4374 0.8203 -0.3686
vn 0.4375 0.8203 -0.3684
vn 0.5524 0.7954 0.2493
vn 0.6344 0.7588 0.1474
vn 0.4374 0.8203 0.3685
vn 0.4375 0.8203 0.3684
vn 0.6586 -0.5082 -0.5549
vn 0.6152 -0.5939 -0.5185
vn 0.6152 -0.5939 -0.5185
vn 0.6632 -0.4979 -0.5588
vn 0.6153 -0.5939 0.5184
vn 0.6153 -0.5939 0.5184
vn 0.6586 -0.5082 0.5549
vn 0.6633 -0.4978 0.5588
vn 0 1 0
vn 0 1 0
vn 0 1 0
vn 0 1 0
vn 0 1 0
vn 0 1 0
vn 0 -0.1412 0.99
vn 0 -0.2466 0.9691
vn 0 -0.2355 0.9719
vn 0 -0.1411 0.99
vn 0 0 -1
vn 0 0 -1
vn 0 -0.8031 0.5959
vn -0 -0.9495 0.3138
vn 0 0.7065 0.7077
vn 0 0.7065 0.7077
vn 0 0.7065 0.7077
vn 0 0.7065 0.7077
vn 0 -0.7439 0.6683
vn 0 -0.7439 0.6683
vn 0 -0.7439 0.6683
vn 0 -0.7439 0.6683
vn 0 0.7439 0.6683
vn 0 0.7439 0.6683
vn 0 0.7439 0.6683
vn 0 0.7439 0.6683
vn 0 -0.4309 0.9024
vn 0 -0.4138 0.9104
f 1/1/1 2/2/2 3/3/3
f 1/1/1 3/3/3 4/4/4
f 2/2/2 1/1/1 5/5/5
f 2/2/2 5/5/5 6/6/6
f 7/7/7 8/8/8 9/9/9
f 7/7/7 9/9/9 10/10/10
f 11/11/11 12/12/12 13/13/13
f 11/11/11 13/13/13 14/14/14
f 15/15/15 16/16/16 17/17/17
f 15/15/15 17/17/17 18/18/18
f 19/19/19 20/20/20 21/21/21
f 19/19/19 21/21/21 22/22/22
f 23/23/23 24/24/24 25/25/25
f 23/23/23 25/25/25 26/26/26
f 27/27/27 28/28/28 29/29/29
f 27/27/27 29/29/29 30/30/30
f 31/31/31 32/32/32 33/33/33
f 31/31/31 33/33/33 34/34/34
f 35/35/35 36/36/36 37/37/37
f 35/35/35 37/37/37 38/38/38
f 39/39/39 40/40/40 41/41/41
f 39/39/39 41/41/41 42/42/42
f 43/43/43 44/44/44 45/45/45
f 43/43/43 45/45/45 46/46/46
f 47/47/47 48/48/48 49/49/49
f 47/47/47 49/49/49 50/50/50
f 51/51/51 52/52/52 53/53/53
f 51/51/51 53/53/53 54/54/54
f 55/55/55 56/56/56 57/57/57
f 55/55/55 57/57/57 58/58/58
f 59/59/59 18/18/18 17/17/17
f 59/59/59 17/17/17 60/60/60
f 10/10/10 9/9/9 56/56/56
f 10/10/10 56/56/56 55/55/55
f 12/12/12 59/59/59 60/60/60
f 12/12/12 60/60/60 13/13/13
f 61/61/61 62/62/62 63/63/63
f 61/61/61 63/63/63 64/64/64
f 65/65/65 66/66/66 67/67/67
f 65/65/65 67/67/67 68/68/68
f 69/69/69 70/70/70 71/71/71
f 69/69/69 71/71/71 72/72/72
f 73/73/73 74/74/74 75/75/75
f 73/73/73 75/75/75 76/76/76
f 77/77/77 36/36/36 35/35/35
f 77/77/77 35/35/35 78/78/78
f 79/79/79 80/80/80 81/81/81
f 79/79/79 81/81/81 82/82/82
f 28/28/28 27/27/27 83/83/83
f 28/28/28 83/83/83 84/84/84
f 85/85/85 30/30/30 29/29/29
f 85/85/85 29/29/29 86/86/86
f 87/87/87 88/88/88 44/44/44
f 87/87/87 44/44/44 43/43/43
f 89/89/89 90/90/90 91/91/91
f 89/89/89 91/91/91 92/92/92
f 93/93/93 52/52/52 51/51/51
f 93/93/93 51/51/51 94/94/94
f 95/95/95 96/96/96 97/97/97
f 95/95/95 97/97/97 98/98/98
f 99/99/99 100/100/100 101/101/101
f 99/99/99 101/101/101 102/102/102
f 103/103/103 104/104/104 105/105/105
f 103/103/103 105/105/105 106/106/106
f 62/62/62 99/99/99 102/102/102
f 62/62/62 102/102/102 63/63/63
f 106/106/106 105/105/105 66/66/66
f 106/106/106 66/66/66 65/65/65
f 107/107/107 108/108/108 109/109/109
f 107/107/107 109/109/109 110/110/110
f 109/109/109 111/111/111 110/110/110
f 112/112/112 107/107/107 110/110/110
f 113/113/113 114/114/114 115/115/115
f 113/113/113 115/115/115 116/116/116
f 117/117/117 58/58/58 57/57/57
f 117/117/117 57/57/57 118/118/118
f 85/85/85 86/86/86 119/119/119
f 85/85/85 119/119/119 120/120/120
f 121/121/121 122/122/122 123/123/123
f 121/121/121 123/123/123 124/124/124
f 125/125/125 126/126/126 127/127/127
f 125/125/125 127/127/127 128/128/128
f 129/129/129 130/130/130 131/131/131
f 129/129/129 131/131/131 132/132/132
f 133/133/133 22/22/22 21/21/21
f 133/133/133 21/21/21 134/134/134
f 114/114/114 133/133/133 134/134/134
f 114/114/114 134/134/134 115/115/115
