o sponza_06
v -99.8518 22.1488 18.0131
v -99.8518 31.4004 11.9479
v -99.8518 49.569 18.0131
v -99.8518 35.4699 6.08254
v -99.8518 38.1163 0.217208
v -99.8518 38.1765 -3.53435
v -99.8518 49.569 -3.53435
v 86.9351 22.1488 18.0131
v 86.9351 49.569 18.0131
v 86.9351 31.4004 11.9479
v 86.9351 35.4699 6.08254
v 86.9351 38.1163 0.217208
v 86.9351 49.569 -3.53435
v 86.9351 38.1765 -3.53435
v -99.8518 22.1488 -25.0818
v -99.8518 49.569 -25.0818
v -99.8518 31.4004 -19.0166
v -99.8518 35.4699 -13.1512
v -99.8518 38.1163 -7.28591
v 86.9351 22.1488 -25.0818
v 86.9351 31.4004 -19.0166
v 86.9351 49.569 -25.0818
v 86.9351 35.4699 -13.1512
v 86.9351 38.1163 -7.28591
v -24.6654 22.1488 18.0131
v -27.8904 32.9257 18.0131
v -24.6654 49.569 18.0131
v -33.8173 38.2468 18.0131
v -43.4789 40.6419 18.0131
v -43.4789 49.569 18.0131
v -61.7827 22.1488 18.0131
v -61.7827 49.569 18.0131
v -59.255 32.8861 18.0131
v -52.6308 38.1432 18.0131
v 11.9422 22.1488 18.0131
v 8.71708 32.9257 18.0131
v 11.9422 49.569 18.0131
v 2.79028 38.2468 18.0131
v -6.3616 40.6419 18.0131
v -6.3616 49.569 18.0131
v -21.4458 32.8861 18.0131
v -15.5135 38.1432 18.0131
v 49.2278 22.1488 18.0131
v 49.2278 49.569 18.0131
v 52.4529 32.9257 18.0131
v 58.3797 38.2468 18.0131
v 67.5316 49.569 18.0131
v 67.5316 40.6419 18.0131
v 82.6157 32.8861 18.0131
v 76.6834 38.1432 18.0131
v 15.8453 32.9257 18.0131
v 21.7721 38.2468 18.0131
v 30.924 49.569 18.0131
v 30.924 40.6419 18.0131
v 46.0082 32.8861 18.0131
v 40.0759 38.1432 18.0131
v -65.6898 32.9257 18.0131
v -71.2544 37.7936 18.0131
v -80.5114 40.6419 18.0131
v -80.5114 49.569 18.0131
v -95.5956 32.8861 18.0131
v -89.6633 38.1432 18.0131
v -24.6654 22.1488 -25.0818
v -24.6654 49.569 -25.0818
v -27.8904 32.9258 -25.0818
v -33.8173 38.2468 -25.0818
v -43.4789 49.569 -25.0818
v -43.4789 40.642 -25.0818
v -61.7827 22.1488 -25.0818
v -59.255 32.8861 -25.0818
v -61.7827 49.569 -25.0818
v -52.6308 38.1432 -25.0818
v 11.9422 22.1488 -25.0818
v 11.9422 49.569 -25.0818
v 8.71708 32.9258 -25.0818
v 2.79028 38.2468 -25.0818
v -6.3616 49.569 -25.0818
v -6.3616 40.642 -25.0818
v -21.4458 32.8861 -25.0818
v -15.5135 38.1432 -25.0818
v 49.2278 22.1488 -25.0818
v 52.4529 32.9258 -25.0818
v 49.2278 49.569 -25.0818
v 58.3797 38.2468 -25.0818
v 67.5316 40.642 -25.0818
v 67.5316 49.569 -25.0818
v 82.6157 32.8861 -25.0818
v 76.6834 38.1432 -25.0818
v 15.8453 32.9258 -25.0818
v 21.7721 38.2468 -25.0818
v 30.924 40.642 -25.0818
v 30.924 49.569 -25.0818
v 46.0082 32.8861 -25.0818
v 40.0759 38.1432 -25.0818
v -65.6898 32.9258 -25.0818
v -71.2544 37.7937 -25.0818
v -80.5114 49.569 -25.0818
v -80.5114 40.642 -25.0818
v -95.5956 32.8861 -25.0818
v -89.6633 38.1432 -25.0818
v -99.8518 22.1488 18.0131
v -99.8518 49.569 18.0131
v 86.9351 22.1488 18.0131
v 86.9351 49.569 18.0131
v -99.8518 22.1488 -25.0818
v -99.8518 49.569 -25.0818
v 86.9351 22.1488 -25.0818
v 86.9351 49.569 -25.0818
vt 8.8594 -0.5571
vt 9.1283 -0.1002
vt 8.8564 0.7965
vt 9.418 0.1008
vt 9.7077 0.2315
vt 9.8931 0.2345
vt 9.8931 0.7972
vt 8.8288 -0.5572
vt 8.8288 0.7972
vt 9.1283 -0.1002
vt 9.418 0.1008
vt 9.7077 0.2315
vt 9.8931 0.7972
vt 9.8931 0.2345
vt 8.8594 -0.5571
vt 8.8554 0.7966
vt 9.1283 -0.1002
vt 9.418 0.1008
vt 9.7077 0.2315
vt 8.8288 -0.5572
vt 9.1283 -0.1002
vt 8.8288 0.7972
vt 9.418 0.1008
vt 9.7077 0.2315
vt 5.1804 -0.5572
vt 5.3397 -0.0248
vt 5.1804 0.7972
vt 5.6324 0.238
vt 6.1097 0.3563
vt 6.1097 0.7972
vt 7.0137 -0.5572
vt 7.0137 0.7972
vt 6.8889 -0.0268
vt 6.5617 0.2329
vt 3.3722 -0.5572
vt 3.5315 -0.0248
vt 3.3722 0.7972
vt 3.8243 0.238
vt 4.2763 0.3563
vt 4.2763 0.7972
vt 5.0214 -0.0268
vt 4.7284 0.2329
vt 1.5306 -0.5572
vt 1.5306 0.7972
vt 1.3713 -0.0248
vt 1.0785 0.238
vt 0.6265 0.7972
vt 0.6265 0.3563
vt -0.2776 -0.5572
vt -0.1186 -0.0268
vt -0.2721 0.7954
vt 0.1745 0.2329
vt 3.1794 -0.0248
vt 2.8867 0.238
vt 2.4347 0.7972
vt 2.4347 0.3563
vt 1.6896 -0.0268
vt 1.9826 0.2329
vt 7.2067 -0.0248
vt 7.4816 0.2156
vt 7.9388 0.3563
vt 7.9386 0.7972
vt 8.8594 -0.5571
vt 8.8564 0.7965
vt 8.6832 -0.027
vt 8.3907 0.2328
vt 5.1804 -0.5572
vt 5.1804 0.7972
vt 5.3397 -0.0248
vt 5.6324 0.238
vt 6.1097 0.7972
vt 6.1097 0.3563
vt 7.0137 -0.5572
vt 6.8889 -0.0268
vt 7.0137 0.7972
vt 6.5617 0.2329
vt 3.3722 -0.5572
vt 3.3722 0.7972
vt 3.5315 -0.0248
vt 3.8243 0.238
vt 4.2763 0.7972
vt 4.2763 0.3563
vt 5.0214 -0.0268
vt 4.7284 0.2329
vt 1.5306 -0.5572
vt 1.3713 -0.0248
vt 1.5306 0.7972
vt 1.0785 0.238
vt 0.6265 0.3563
vt 0.6265 0.7972
vt -0.2776 -0.5572
vt -0.2741 0.795
vt -0.1186 -0.0268
vt 0.1745 0.2329
vt 3.1794 -0.0248
vt 2.8867 0.238
vt 2.4347 0.3563
vt 2.4347 0.7972
vt 1.6896 -0.0268
vt 1.9826 0.2329
vt 7.2067 -0.0248
vt 7.4816 0.2156
vt 7.9386 0.7972
vt 7.9388 0.3563
vt 8.8594 -0.5571
vt 8.6832 -0.027
vt 8.8554 0.7966
vt 8.3907 0.2328
vn 1 0 0
vn -1 0 0
vn 0 0 -1
vn -0.835 -0 -0.5503
vn -0.7071 0 -0.7071
vn 0.8383 0.0001 -0.5452
vn 0.7071 0 -0.7071
vn -0 -0 1
vn -0.835 -0 0.5503
vn -0.7071 -0 0.7071
vn 0.8383 0 0.5452
vn 0.7071 -0 0.7071
f 101/1/1 2/2/1 102/3/1
f 4/4/1 5/5/1 102/3/1
f 2/2/1 4/4/1 102/3/1
f 5/5/1 6/6/1 7/7/1
f 5/5/1 7/7/1 102/3/1
f 103/8/2 104/9/2 10/10/2
f 11/11/2 104/9/2 12/12/2
f 10/10/2 104/9/2 11/11/2
f 12/12/2 104/9/2 13/13/2
f 12/12/2 13/13/2 14/14/2
f 105/15/1 106/16/1 17/17/1
f 18/18/1 106/16/1 19/19/1
f 17/17/1 106/16/1 18/18/1
f 19/19/1 106/16/1 7/7/1
f 19/19/1 7/7/1 6/6/1
f 107/20/2 21/21/2 108/22/2
f 23/23/2 24/24/2 108/22/2
f 21/21/2 23/23/2 108/22/2
f 24/24/2 14/14/2 13/13/2
f 24/24/2 13/13/2 108/22/2
f 25/25/3 26/26/3 27/27/3
f 28/28/3 29/29/3 30/30/3
f 28/28/3 30/30/3 27/27/3
f 26/26/3 28/28/3 27/27/3
f 31/31/3 32/32/3 33/33/3
f 34/34/3 32/32/3 30/30/3
f 34/34/3 30/30/3 29/29/3
f 33/33/3 32/32/3 34/34/3
f 35/35/3 36/36/3 37/37/3
f 38/38/3 39/39/3 40/40/3
f 38/38/3 40/40/3 37/37/3
f 36/36/3 38/38/3 37/37/3
f 25/25/3 27/27/3 41/41/3
f 42/42/3 27/27/3 40/40/3
f 42/42/3 40/40/3 39/39/3
f 41/41/3 27/27/3 42/42/3
f 43/43/3 44/44/3 45/45/3
f 46/46/3 44/44/3 47/47/3
f 46/46/3 47/47/3 48/48/3
f 45/45/3 44/44/3 46/46/3
f 8/49/4 49/50/3 9/51/5
f 50/52/3 48/48/3 47/47/3
f 50/52/3 47/47/3 9/51/5
f 49/50/3 50/52/3 9/51/5
f 35/35/3 37/37/3 51/53/3
f 52/54/3 37/37/3 53/55/3
f 52/54/3 53/55/3 54/56/3
f 51/53/3 37/37/3 52/54/3
f 43/43/3 55/57/3 44/44/3
f 56/58/3 54/56/3 53/55/3
f 56/58/3 53/55/3 44/44/3
f 55/57/3 56/58/3 44/44/3
f 31/31/3 57/59/3 32/32/3
f 58/60/3 59/61/3 60/62/3
f 58/60/3 60/62/3 32/32/3
f 57/59/3 58/60/3 32/32/3
f 1/63/6 3/64/7 61/65/3
f 62/66/3 3/64/7 60/62/3
f 62/66/3 60/62/3 59/61/3
f 61/65/3 3/64/7 62/66/3
f 63/67/8 64/68/8 65/69/8
f 66/70/8 64/68/8 67/71/8
f 66/70/8 67/71/8 68/72/8
f 65/69/8 64/68/8 66/70/8
f 69/73/8 70/74/8 71/75/8
f 72/76/8 68/72/8 67/71/8
f 72/76/8 67/71/8 71/75/8
f 70/74/8 72/76/8 71/75/8
f 73/77/8 74/78/8 75/79/8
f 76/80/8 74/78/8 77/81/8
f 76/80/8 77/81/8 78/82/8
f 75/79/8 74/78/8 76/80/8
f 63/67/8 79/83/8 64/68/8
f 80/84/8 78/82/8 77/81/8
f 80/84/8 77/81/8 64/68/8
f 79/83/8 80/84/8 64/68/8
f 81/85/8 82/86/8 83/87/8
f 84/88/8 85/89/8 86/90/8
f 84/88/8 86/90/8 83/87/8
f 82/86/8 84/88/8 83/87/8
f 20/91/9 22/92/10 87/93/8
f 88/94/8 22/92/10 86/90/8
f 88/94/8 86/90/8 85/89/8
f 87/93/8 22/92/10 88/94/8
f 73/77/8 89/95/8 74/78/8
f 90/96/8 91/97/8 92/98/8
f 90/96/8 92/98/8 74/78/8
f 89/95/8 90/96/8 74/78/8
f 81/85/8 83/87/8 93/99/8
f 94/100/8 83/87/8 92/98/8
f 94/100/8 92/98/8 91/97/8
f 93/99/8 83/87/8 94/100/8
f 69/73/8 71/75/8 95/101/8
f 96/102/8 71/75/8 97/103/8
f 96/102/8 97/103/8 98/104/8
f 95/101/8 71/75/8 96/102/8
f 15/105/11 99/106/8 16/107/12
f 100/108/8 98/104/8 97/103/8
f 100/108/8 97/103/8 16/107/12
f 99/106/8 100/108/8 16/107/12
