o sponza_156
v 33.3898 68.7192 -30.9358
v 33.432 68.7192 -30.9184
v 33.4782 68.7192 -30.8721
v 33.4957 68.7192 -25.1424
v 33.4957 68.7192 -30.7543
v 33.4957 68.7192 -25.2596
v 33.4957 68.7192 -30.8299
v 33.4782 68.7192 -25.1002
v 33.432 68.7192 -25.0539
v 27.6917 68.7192 -25.0365
v 33.258 68.7192 -25.0365
v 27.789 68.7192 -25.0365
v 33.3898 68.7192 -25.0365
v 27.6495 68.7192 -25.0539
v 27.6033 68.7192 -25.1002
v 27.5858 68.7192 -30.8299
v 27.5858 68.7192 -25.2576
v 27.5858 68.7192 -30.6927
v 27.5858 68.7192 -25.1424
v 27.6495 68.7192 -30.9184
v 27.6033 68.7192 -30.8721
v 33.3448 68.7192 -30.9358
v 27.8199 68.7192 -30.9358
v 27.6917 68.7192 -30.9358
v 27.5858 69.5667 -25.1424
v 27.6033 69.5667 -25.1002
v 27.6495 69.5667 -25.0539
v 33.3898 69.5667 -25.0365
v 27.789 69.5667 -25.0365
v 33.258 69.5667 -25.0365
v 27.6917 69.5667 -25.0365
v 33.432 69.5667 -25.0539
v 33.4782 69.5667 -25.1002
v 33.4957 69.5667 -30.8299
v 33.4957 69.5667 -25.2596
v 33.4957 69.5667 -30.7543
v 33.4957 69.5667 -25.1424
v 33.4782 69.5667 -30.8721
v 33.432 69.5667 -30.9184
v 27.6917 69.5667 -30.9358
v 33.3448 69.5667 -30.9358
v 27.8199 69.5667 -30.9358
v 33.3898 69.5667 -30.9358
v 27.6495 69.5667 -30.9184
v 27.6033 69.5667 -30.8721
v 27.5858 69.5667 -30.6927
v 27.5858 69.5667 -25.2576
v 27.5858 69.5667 -30.8299
v 27.6848 68.7538 -30.9705
v 27.6848 69.3395 -30.9705
v 27.8133 69.1431 -30.9705
v 27.8133 68.9467 -30.9705
v 33.5304 68.7538 -30.8368
v 33.5304 69.3395 -30.8368
v 33.5304 69.1431 -30.761
v 33.5304 68.9467 -30.761
v 33.4516 68.7538 -30.9478
v 33.4516 69.532 -30.9478
v 33.5076 69.532 -30.8918
v 33.5076 68.7538 -30.8918
v 27.6299 68.7538 -30.9478
v 27.5739 68.7538 -30.8918
v 27.5739 69.532 -30.8918
v 27.6299 69.532 -30.9478
v 33.5076 68.7538 -25.0806
v 33.5076 69.532 -25.0806
v 33.4516 69.532 -25.0245
v 33.4516 68.7538 -25.0245
v 33.3967 69.3395 -30.9705
v 33.3967 69.532 -30.9705
v 33.3967 68.7538 -30.9705
v 27.6848 69.532 -30.9705
v 33.5304 68.7538 -25.1355
v 33.5304 69.3395 -25.1355
v 33.5304 69.532 -30.8368
v 27.5511 68.7538 -30.8368
v 27.5511 69.3395 -30.8368
v 27.5511 69.532 -30.8368
v 33.3967 69.3395 -25.0018
v 33.3967 68.7538 -25.0018
v 33.5304 68.7538 -25.253
v 33.3516 68.7538 -30.9705
v 27.8133 69.532 -30.9705
v 33.5304 69.532 -30.761
v 33.3967 69.532 -25.0018
v 33.5304 69.532 -25.1355
v 33.2646 69.1431 -25.0018
v 33.2646 68.9467 -25.0018
v 27.5511 68.7538 -25.1355
v 27.5511 69.3395 -25.1355
v 27.5511 69.1431 -25.251
v 27.5511 68.9467 -25.251
v 27.6299 68.7538 -25.0245
v 27.6299 69.532 -25.0245
v 27.5739 69.532 -25.0806
v 27.5739 68.7538 -25.0806
v 27.6848 69.3395 -25.0018
v 27.6848 69.532 -25.0018
v 27.6848 68.7538 -25.0018
v 27.5511 69.532 -25.1355
v 27.5511 68.7538 -30.6992
v 27.7824 68.7538 -25.0018
v 33.2646 69.532 -25.0018
v 27.5511 69.532 -25.251
v 33.3516 69.3395 -30.9705
v 33.5304 69.3395 -25.253
v 33.5304 69.532 -25.253
v 27.7824 69.3395 -25.0018
v 27.5511 69.3395 -30.6992
v 27.8133 68.7538 -30.9705
v 27.8615 68.9467 -30.9705
v 33.3516 69.532 -30.9705
v 27.8133 69.3395 -30.9705
v 33.2842 69.3395 -30.9705
v 33.3516 69.1431 -30.9705
v 33.2842 69.1431 -30.6993
v 33.3516 68.9467 -30.9705
v 33.5304 68.9467 -25.253
v 33.5304 68.7538 -30.761
v 33.5304 69.3395 -25.3053
v 33.5304 69.1431 -25.253
v 33.3355 69.1431 -25.3053
v 33.5304 68.9467 -30.6884
v 33.5304 69.3395 -30.761
v 27.7824 68.9467 -25.0018
v 33.2646 68.7538 -25.0018
v 27.7824 69.532 -25.0018
v 27.8394 69.3395 -25.0018
v 27.7824 69.1431 -25.0018
v 27.8394 69.1431 -25.2001
v 33.2017 68.9467 -25.0018
v 33.2646 69.3395 -25.0018
v 27.5511 68.9467 -30.6992
v 27.5511 68.7538 -25.251
v 27.5511 69.532 -30.6992
v 27.5511 69.3395 -30.6338
v 27.5511 69.1431 -30.6992
v 27.7963 69.1431 -30.6338
v 27.5511 68.9467 -25.3014
v 27.5511 69.3395 -25.251
v 27.8615 69.1431 -30.6993
v 33.3355 69.1431 -30.6884
v 33.2017 69.1431 -25.2001
v 27.7963 69.1431 -25.3014
v 27.5511 69.3395 -25.3014
v 27.5511 68.9467 -30.6338
v 33.2017 69.3395 -25.0018
v 27.8394 68.9467 -25.0018
v 33.5304 69.3395 -30.6884
v 33.5304 68.9467 -25.3053
v 27.8615 69.3395 -30.9705
v 33.2842 68.9467 -30.9705
v 27.8133 69.1431 -30.9705
vt 0.6734 0.6622
vt 0.6713 0.6631
vt 0.6687 0.6656
vt 0.6678 0.9769
vt 0.6678 0.672
vt 0.6678 0.9705
vt 0.6678 0.6679
vt 0.6687 0.9792
vt 0.6713 0.9817
vt 0.9831 0.9826
vt 0.6807 0.9826
vt 0.9778 0.9826
vt 0.6736 0.9826
vt 0.9853 0.9817
vt 0.9879 0.9792
vt 0.9888 0.6679
vt 0.9888 0.9706
vt 0.9888 0.6754
vt 0.9888 0.9769
vt 0.9853 0.6631
vt 0.9879 0.6656
vt 0.6758 0.6622
vt 0.9761 0.6621
vt 0.9831 0.6621
vt 0.5631 0.6536
vt 0.5626 0.6526
vt 0.5616 0.6515
vt 0.4276 0.6511
vt 0.5583 0.6511
vt 0.4307 0.6511
vt 0.5606 0.6511
vt 0.4266 0.6515
vt 0.4256 0.6526
vt 0.4252 0.7863
vt 0.4252 0.6563
vt 0.4252 0.7845
vt 0.4252 0.6536
vt 0.4256 0.7873
vt 0.4266 0.7884
vt 0.5606 0.7888
vt 0.4286 0.7888
vt 0.5577 0.7888
vt 0.4276 0.7888
vt 0.5616 0.7884
vt 0.5626 0.7873
vt 0.5631 0.7831
vt 0.5631 0.6563
vt 0.5631 0.7863
vt 0.0143 0.6233
vt 0.045 0.6233
vt 0.0347 0.6166
vt 0.0244 0.6166
vt 0.0143 0.3152
vt 0.045 0.3152
vt 0.0347 0.3112
vt 0.0244 0.3112
vt 0.0143 0.321
vt 0.0551 0.321
vt 0.0551 0.3181
vt 0.0143 0.3181
vt 0.0143 0.6262
vt 0.0143 0.6291
vt 0.0551 0.6291
vt 0.0551 0.6262
vt 0.0143 0.0134
vt 0.0551 0.0134
vt 0.0551 0.0105
vt 0.0143 0.0105
vt 0.045 0.3239
vt 0.0551 0.3239
vt 0.0143 0.3239
vt 0.0551 0.6233
vt 0.0143 0.0163
vt 0.045 0.0163
vt 0.0551 0.3152
vt 0.0143 0.632
vt 0.045 0.632
vt 0.0551 0.632
vt 0.045 0.0076
vt 0.0143 0.0076
vt 0.0124 0.0165
vt 0.0124 0.0226
vt 0.0143 0.0224
vt 0.0125 0.3241
vt 0.0125 0.3264
vt 0.0143 0.3262
vt 0.0569 0.6231
vt 0.0569 0.6164
vt 0.0551 0.6166
vt 0.057 0.3151
vt 0.057 0.3112
vt 0.0551 0.3112
vt 0.0125 0.6262
vt 0.0125 0.6292
vt 0.0126 0.318
vt 0.0126 0.321
vt 0.0125 0.0104
vt 0.0122 0.0134
vt 0.0572 0.6292
vt 0.0569 0.6262
vt 0.0568 0.321
vt 0.057 0.318
vt 0.0572 0.0134
vt 0.0572 0.0104
vt 0.0126 0.623
vt 0.0576 0.0079
vt 0.0551 0.0076
vt 0.0126 0.6317
vt 0.0125 0.3152
vt 0.0126 0.0079
vt 0.0571 0.6317
vt 0.0569 0.3241
vt 0.0551 0.0163
vt 0.0572 0.0163
vt 0.0143 0.6233
vt 0.045 0.6233
vt 0.0347 0.6164
vt 0.0244 0.6164
vt 0.0143 0.3152
vt 0.045 0.3152
vt 0.0347 0.3091
vt 0.0244 0.3091
vt 0.0143 0.321
vt 0.0551 0.321
vt 0.0551 0.3181
vt 0.0143 0.3181
vt 0.045 0.3239
vt 0.0551 0.3239
vt 0.0143 0.3239
vt 0.0551 0.3152
vt 0.0124 0.0165
vt 0.0124 0.0237
vt 0.0143 0.0235
vt 0.0143 0.0163
vt 0.0125 0.3241
vt 0.0125 0.3292
vt 0.0143 0.329
vt 0.0569 0.6231
vt 0.0569 0.6162
vt 0.0551 0.6164
vt 0.0551 0.6233
vt 0.057 0.3151
vt 0.057 0.3091
vt 0.0551 0.3091
vt 0.0126 0.318
vt 0.0126 0.321
vt 0.0568 0.321
vt 0.057 0.318
vt 0.0125 0.3152
vt 0.0569 0.3241
vt 0.045 0.3262
vt 0.045 0.0224
vt 0.0551 0.0224
vt 0.045 0.329
vt 0.045 0.0163
vt 0.045 0.0235
vt 0.0551 0.0163
vt 0.0143 0.6166
vt 0.0244 0.6141
vt 0.0126 0.6163
vt 0.0569 0.3265
vt 0.0551 0.3262
vt 0.045 0.6166
vt 0.045 0.3298
vt 0.0347 0.3262
vt 0.0347 0.3298
vt 0.0244 0.3262
vt 0.0244 0.0224
vt 0.0125 0.3112
vt 0.0143 0.3112
vt 0.0572 0.0225
vt 0.045 0.0252
vt 0.0347 0.0224
vt 0.0347 0.0252
vt 0.0244 0.3074
vt 0.045 0.3112
vt 0.0244 0.329
vt 0.0126 0.6161
vt 0.0143 0.6164
vt 0.0551 0.329
vt 0.0569 0.3292
vt 0.045 0.332
vt 0.0347 0.329
vt 0.0347 0.332
vt 0.0244 0.6131
vt 0.0126 0.623
vt 0.045 0.6164
vt 0.0244 0.0235
vt 0.0125 0.3091
vt 0.0143 0.3091
vt 0.0551 0.0235
vt 0.0572 0.0235
vt 0.0572 0.0163
vt 0.045 0.0269
vt 0.0347 0.0235
vt 0.0347 0.0269
vt 0.0244 0.3065
vt 0.045 0.3091
vt 0.0347 0.6166
vt 0.0347 0.6141
vt 0.0347 0.3074
vt 0.0347 0.6131
vt 0.0347 0.3065
vt 0.045 0.3065
vt 0.0244 0.0269
vt 0.045 0.6131
vt 0.0244 0.332
vt 0.045 0.3074
vt 0.0244 0.0252
vt 0.045 0.6141
vt 0.0244 0.3298
vn 0.0814 -0.9088 -0.4092
vn 0.2318 -0.9086 -0.3474
vn 0.3469 -0.9088 -0.2318
vn 0.4092 -0.9088 0.0814
vn 0.3826 -0.9239 0
vn 0.3827 -0.9239 0
vn 0.4092 -0.9088 -0.0814
vn 0.3469 -0.9088 0.2319
vn 0.2318 -0.9088 0.3468
vn -0.0814 -0.9088 0.4092
vn 0 -0.9239 0.3827
vn -0 -0.9152 0.403
vn 0.0814 -0.9089 0.409
vn -0.2318 -0.9089 0.3467
vn -0.3469 -0.9088 0.2319
vn -0.4092 -0.9088 -0.0814
vn -0.3827 -0.9239 0
vn -0.4092 -0.9088 0.0814
vn -0.2318 -0.9088 -0.3469
vn -0.3468 -0.9088 -0.2319
vn 0 -0.9084 -0.418
vn 0 -0.9239 -0.3827
vn -0.0814 -0.9088 -0.4092
vn -0.4092 0.9088 0.0814
vn -0.3469 0.9089 0.2313
vn -0.2317 0.9088 0.3469
vn 0.0814 0.9088 0.4092
vn 0 0.9238 0.383
vn 0 0.928 0.3726
vn -0.0814 0.9089 0.409
vn 0.2318 0.9089 0.3468
vn 0.3469 0.9088 0.2318
vn 0.4093 0.9088 -0.0814
vn 0.3827 0.9239 0
vn 0.4093 0.9088 0.0814
vn 0.347 0.9088 -0.2316
vn 0.2319 0.9088 -0.3469
vn -0.0814 0.9088 -0.4093
vn 0 0.9238 -0.3829
vn -0 0.9221 -0.3869
vn 0.0814 0.9089 -0.409
vn -0.2318 0.9088 -0.3468
vn -0.3469 0.9088 -0.2318
vn -0.3827 0.9239 0
vn -0.4092 0.9088 -0.0814
vn -0.1812 -0.3711 -0.9108
vn -0.1951 0 -0.9808
vn -0.0043 -0.0076 -1
vn 0.2655 0.0651 -0.9619
vn 0.9108 -0.371 -0.1811
vn 0.9808 0 -0.1951
vn 0.8983 0 0.4393
vn 0.9747 0.0775 0.2098
vn 0.516 -0.371 -0.7721
vn 0.516 0.3709 -0.7721
vn 0.7721 0.3709 -0.5159
vn 0.7721 -0.371 -0.5159
vn -0.516 -0.371 -0.7721
vn -0.7721 -0.371 -0.5159
vn -0.7722 0.3709 -0.5159
vn -0.516 0.371 -0.7721
vn 0.7722 -0.371 0.5159
vn 0.7722 0.371 0.5159
vn 0.5159 0.371 0.7721
vn 0.5159 -0.371 0.7721
vn 0.1951 0 -0.9808
vn 0.1812 0.3709 -0.9108
vn 0.1812 -0.371 -0.9108
vn -0.1812 0.3709 -0.9108
vn 0.9108 -0.371 0.1811
vn 0.9808 0 0.1951
vn 0.9108 0.3709 -0.1811
vn -0.9108 -0.371 -0.1811
vn -0.9808 0 -0.1951
vn -0.9108 0.371 -0.1811
vn 0.1951 0 0.9808
vn 0.1811 -0.371 0.9108
vn 0.9239 -0.3827 0
vn 0 -0.3828 -0.9238
vn 0 0.3827 -0.9239
vn 0.9239 0.3826 0
vn 0.1811 0.3709 0.9108
vn 0.9108 0.3709 0.1811
vn -0.4733 -0 0.8809
vn -0.2252 0.0721 0.9716
vn -0.9108 -0.371 0.1812
vn -0.9808 0 0.1951
vn -0.8358 -0 -0.549
vn -0.964 0.066 -0.2574
vn -0.5159 -0.3711 0.7721
vn -0.5159 0.3709 0.7722
vn -0.7722 0.3709 0.5159
vn -0.7721 -0.371 0.5159
vn -0.1951 0 0.9808
vn -0.1812 0.371 0.9108
vn -0.1812 -0.371 0.9108
vn -0.9108 0.3709 0.1812
vn -0.9239 -0.3827 0
vn 0 -0.3827 0.9239
vn 0 0.3827 0.9239
vn -0.9239 0.3827 0
vn -0.2417 -0.0829 -0.9668
vn 0.9687 -0.064 -0.24
vn 0.9239 0.3827 0
vn 0.2341 -0.0679 0.9698
vn -0.9682 -0.0791 0.2374
vn 0 -0.3826 -0.9239
vn 0.0812 0.1379 -0.9871
vn 0.2654 -0.0652 -0.9619
vn -0.2579 -0.3324 -0.9072
vn -0.5149 -0 -0.8572
vn -0.428 0 -0.9038
vn -0.2418 0.0829 -0.9668
vn 0.9687 0.064 -0.24
vn 0.9286 -0.2732 -0.2511
vn 0.8624 -0 -0.5062
vn 0.9043 0 -0.427
vn 0.9343 0.2814 0.2189
vn 0.9747 -0.0775 0.2098
vn 0.2342 0.0679 0.9698
vn 0.2451 -0.2782 0.9287
vn 0.4931 -0 0.8699
vn 0.417 0 0.9089
vn -0.2355 0.2807 0.9305
vn -0.2252 -0.0721 0.9716
vn -0.9682 0.0791 0.2374
vn -0.9148 -0.3159 0.2516
vn -0.864 -0 0.5035
vn -0.907 -0 0.4212
vn -0.9113 0.3077 -0.2738
vn -0.964 -0.0661 -0.2574
vn 0.9854 0.0061 -0.1702
vn 0.4648 -0 -0.8854
vn 0.9259 0 0.3778
vn -0.4025 -0 0.9154
vn -0.8916 -0 -0.4528
vn -0.9113 -0.3077 -0.2737
vn -0.9148 0.3159 0.2516
vn -0.2355 -0.2807 0.9305
vn 0.245 0.2781 0.9288
vn 0.9343 -0.2814 0.2189
vn 0.9286 0.2732 -0.2511
vn 0.0527 -0.3558 -0.9331
vn -0.2579 0.3324 -0.9072
f 1/1/1 2/2/2 3/3/3
f 1/1/1 3/3/3 4/4/4
f 5/5/5 6/6/6 3/3/3
f 5/5/5 3/3/3 7/7/7
f 3/3/3 6/6/6 4/4/4
f 4/4/4 8/8/8 9/9/9
f 4/4/4 9/9/9 10/10/10
f 11/11/11 12/12/12 9/9/9
f 11/11/11 9/9/9 13/13/13
f 9/9/9 12/12/12 10/10/10
f 10/10/10 14/14/14 15/15/15
f 10/10/10 15/15/15 16/16/16
f 17/17/17 18/18/17 15/15/15
f 17/17/17 15/15/15 19/19/18
f 15/15/15 18/18/17 16/16/16
f 1/1/1 4/4/4 10/10/10
f 1/1/1 10/10/10 16/16/16
f 20/20/19 1/1/1 16/16/16
f 20/20/19 16/16/16 21/21/20
f 22/22/21 1/1/1 20/20/19
f 22/22/21 20/20/19 23/23/22
f 24/24/23 23/23/22 20/20/19
f 25/25/24 26/26/25 27/27/26
f 25/25/24 27/27/26 28/28/27
f 29/29/28 30/30/29 27/27/26
f 29/29/28 27/27/26 31/31/30
f 27/27/26 30/30/29 28/28/27
f 28/28/27 32/32/31 33/33/32
f 28/28/27 33/33/32 34/34/33
f 35/35/34 36/36/34 33/33/32
f 35/35/34 33/33/32 37/37/35
f 33/33/32 36/36/34 34/34/33
f 34/34/33 38/38/36 39/39/37
f 34/34/33 39/39/37 40/40/38
f 41/41/39 42/42/40 39/39/37
f 41/41/39 39/39/37 43/43/41
f 39/39/37 42/42/40 40/40/38
f 34/34/33 40/40/38 25/25/24
f 34/34/33 25/25/24 28/28/27
f 40/40/38 44/44/42 45/45/43
f 40/40/38 45/45/43 25/25/24
f 45/45/43 46/46/44 47/47/44
f 45/45/43 47/47/44 25/25/24
f 48/48/45 46/46/44 45/45/43
f 49/49/46 50/50/47 153/51/48
f 49/49/46 153/51/48 52/52/49
f 53/53/50 54/54/51 55/55/52
f 53/53/50 55/55/52 56/56/53
f 57/57/54 58/58/55 59/59/56
f 57/57/54 59/59/56 60/60/57
f 61/61/58 62/62/59 63/63/60
f 61/61/58 63/63/60 64/64/61
f 65/65/62 66/66/63 67/67/64
f 65/65/62 67/67/64 68/68/65
f 69/69/66 70/70/67 58/58/55
f 69/69/66 58/58/55 57/57/54
f 71/71/68 69/69/66 57/57/54
f 50/50/47 49/49/46 61/61/58
f 50/50/47 61/61/58 64/64/61
f 72/72/69 50/50/47 64/64/61
f 65/65/62 73/73/70 74/74/71
f 65/65/62 74/74/71 66/66/63
f 54/54/51 53/53/50 59/59/56
f 54/54/51 59/59/56 75/75/72
f 60/60/57 59/59/56 53/53/50
f 62/62/59 76/76/73 77/77/74
f 62/62/59 77/77/74 63/63/60
f 63/63/60 77/77/74 78/78/75
f 68/68/65 67/67/64 79/79/76
f 68/68/65 79/79/76 80/80/77
f 4/81/4 6/82/6 81/83/78
f 4/81/4 81/83/78 73/73/70
f 1/84/1 22/85/21 82/86/79
f 1/84/1 82/86/79 71/71/68
f 40/87/38 42/88/40 83/89/80
f 40/87/38 83/89/80 72/72/69
f 34/90/33 36/91/34 84/92/81
f 34/90/33 84/92/81 75/75/72
f 61/61/58 20/93/19 21/94/20
f 61/61/58 21/94/20 62/62/59
f 60/60/57 3/95/3 2/96/2
f 60/60/57 2/96/2 57/57/54
f 68/68/65 9/97/9 8/98/8
f 68/68/65 8/98/8 65/65/62
f 63/63/60 45/99/43 44/100/42
f 63/63/60 44/100/42 64/64/61
f 58/58/55 39/101/37 38/102/36
f 58/58/55 38/102/36 59/59/56
f 66/66/63 33/103/32 32/104/31
f 66/66/63 32/104/31 67/67/64
f 49/49/46 24/105/23 20/93/19
f 49/49/46 20/93/19 61/61/58
f 1/84/1 71/71/68 57/57/54
f 1/84/1 57/57/54 2/96/2
f 65/65/62 8/98/8 4/81/4
f 65/65/62 4/81/4 73/73/70
f 64/64/61 44/100/42 40/87/38
f 64/64/61 40/87/38 72/72/69
f 59/59/56 38/102/36 34/90/33
f 59/59/56 34/90/33 75/75/72
f 67/67/64 32/104/31 28/106/27
f 67/67/64 28/106/27 85/107/82
f 62/62/59 21/94/20 16/108/16
f 62/62/59 16/108/16 76/76/73
f 53/53/50 7/109/7 3/95/3
f 53/53/50 3/95/3 60/60/57
f 80/80/77 13/110/13 9/97/9
f 80/80/77 9/97/9 68/68/65
f 78/78/75 48/111/45 45/99/43
f 78/78/75 45/99/43 63/63/60
f 70/70/67 43/112/41 39/101/37
f 70/70/67 39/101/37 58/58/55
f 86/113/83 37/114/35 33/103/32
f 86/113/83 33/103/32 66/66/63
f 80/115/77 79/116/76 87/117/84
f 80/115/77 87/117/84 88/118/85
f 89/119/86 90/120/87 91/121/88
f 89/119/86 91/121/88 92/122/89
f 93/123/90 94/124/91 95/125/92
f 93/123/90 95/125/92 96/126/93
f 97/127/94 98/128/95 94/124/91
f 97/127/94 94/124/91 93/123/90
f 99/129/96 97/127/94 93/123/90
f 90/120/87 89/119/86 95/125/92
f 90/120/87 95/125/92 100/130/97
f 96/126/93 95/125/92 89/119/86
f 16/131/16 18/132/17 101/133/98
f 16/131/16 101/133/98 76/134/73
f 10/135/10 12/136/12 102/137/99
f 10/135/10 102/137/99 99/129/96
f 28/138/27 30/139/29 103/140/100
f 28/138/27 103/140/100 85/141/82
f 25/142/24 47/143/44 104/144/101
f 25/142/24 104/144/101 100/130/97
f 96/126/93 15/145/15 14/146/14
f 96/126/93 14/146/14 93/123/90
f 94/124/91 27/147/26 26/148/25
f 94/124/91 26/148/25 95/125/92
f 93/123/90 14/146/14 10/135/10
f 93/123/90 10/135/10 99/129/96
f 95/125/92 26/148/25 25/142/24
f 95/125/92 25/142/24 100/130/97
f 89/119/86 19/149/18 15/145/15
f 89/119/86 15/145/15 96/126/93
f 98/128/95 31/150/30 27/147/26
f 98/128/95 27/147/26 94/124/91
f 69/69/66 105/151/102 70/70/67
f 74/74/71 106/152/103 107/153/104
f 74/74/71 107/153/104 86/113/83
f 97/127/94 108/154/105 98/128/95
f 77/155/74 109/156/106 78/157/75
f 110/158/107 52/52/49 111/159/108
f 110/158/107 23/160/22 24/105/23
f 110/158/107 24/105/23 49/49/46
f 42/88/40 41/161/39 112/162/80
f 42/88/40 112/162/80 83/89/80
f 83/89/80 113/163/109 72/72/69
f 113/163/109 153/51/48 50/50/47
f 22/85/21 23/160/22 110/158/107
f 22/85/21 110/158/107 82/86/79
f 112/162/80 105/151/102 114/164/110
f 114/164/110 105/151/102 115/165/111
f 114/164/110 115/165/111 116/166/112
f 82/86/79 117/167/113 71/71/68
f 112/162/80 41/161/39 43/112/41
f 112/162/80 43/112/41 70/70/67
f 81/83/78 118/168/114 73/73/70
f 6/82/6 5/169/5 119/170/78
f 6/82/6 119/170/78 81/83/78
f 107/153/104 35/171/34 37/114/35
f 107/153/104 37/114/35 86/113/83
f 107/153/104 106/152/103 120/172/115
f 120/172/115 106/152/103 121/173/116
f 120/172/115 121/173/116 122/174/117
f 119/170/78 56/56/53 123/175/118
f 36/91/34 35/171/34 107/153/104
f 36/91/34 107/153/104 84/92/81
f 119/170/78 5/169/5 7/109/7
f 119/170/78 7/109/7 53/53/50
f 84/92/81 124/176/119 75/75/72
f 124/176/119 55/55/52 54/54/51
f 102/137/99 125/177/120 99/129/96
f 12/136/12 11/178/11 126/179/99
f 12/136/12 126/179/99 102/137/99
f 127/180/100 29/181/28 31/150/30
f 127/180/100 31/150/30 98/128/95
f 127/180/100 108/154/105 128/182/121
f 128/182/121 108/154/105 129/183/122
f 128/182/121 129/183/122 130/184/123
f 126/179/99 88/118/85 131/185/124
f 30/139/29 29/181/28 127/180/100
f 30/139/29 127/180/100 103/140/100
f 126/179/99 11/178/11 13/186/13
f 126/179/99 13/186/13 80/115/77
f 103/140/100 132/187/125 79/116/76
f 103/140/100 79/116/76 85/141/82
f 132/187/125 87/117/84 79/116/76
f 101/133/98 133/188/126 76/134/73
f 18/132/17 17/189/17 134/190/98
f 18/132/17 134/190/98 101/133/98
f 135/191/101 46/192/44 48/193/45
f 135/191/101 48/193/45 78/157/75
f 135/191/101 109/156/106 136/194/127
f 136/194/127 109/156/106 137/195/128
f 136/194/127 137/195/128 138/196/129
f 134/190/98 92/122/89 139/197/130
f 47/143/44 46/192/44 135/191/101
f 47/143/44 135/191/101 104/144/101
f 134/190/98 17/189/17 19/149/18
f 134/190/98 19/149/18 89/119/86
f 104/144/101 140/198/131 100/130/97
f 140/198/131 91/121/88 90/120/87
f 51/199/132 141/200/133 111/159/108
f 153/51/48 111/159/108 52/52/49
f 55/55/52 142/201/134 123/175/118
f 55/55/52 123/175/118 56/56/53
f 87/117/84 143/202/135 131/185/124
f 87/117/84 131/185/124 88/118/85
f 91/121/88 144/203/136 139/197/130
f 91/121/88 139/197/130 92/122/89
f 136/194/127 138/196/129 144/203/136
f 136/194/127 144/203/136 145/204/137
f 146/205/138 138/196/129 137/195/128
f 146/205/138 137/195/128 133/188/126
f 139/197/130 144/203/136 138/196/129
f 139/197/130 138/196/129 146/205/138
f 145/204/137 144/203/136 91/121/88
f 145/204/137 91/121/88 140/198/131
f 128/182/121 130/184/123 143/202/135
f 128/182/121 143/202/135 147/206/139
f 148/207/140 130/184/123 129/183/122
f 148/207/140 129/183/122 125/177/120
f 131/185/124 143/202/135 130/184/123
f 131/185/124 130/184/123 148/207/140
f 147/206/139 143/202/135 87/117/84
f 147/206/139 87/117/84 132/187/125
f 120/172/115 122/174/117 142/201/134
f 120/172/115 142/201/134 149/208/141
f 150/209/142 122/174/117 121/173/116
f 150/209/142 121/173/116 118/168/114
f 123/175/118 142/201/134 122/174/117
f 123/175/118 122/174/117 150/209/142
f 149/208/141 142/201/134 55/55/52
f 149/208/141 55/55/52 124/176/119
f 114/164/110 116/166/112 141/200/133
f 114/164/110 141/200/133 151/210/143
f 152/211/144 116/166/112 115/165/111
f 152/211/144 115/165/111 117/167/113
f 111/159/108 141/200/133 116/166/112
f 111/159/108 116/166/112 152/211/144
f 151/210/143 141/200/133 51/199/132
f 151/210/143 153/51/48 113/163/109
f 69/69/66 115/165/111 105/151/102
f 84/92/81 149/208/141 124/176/119
f 119/170/78 123/175/118 150/209/142
f 119/170/78 150/209/142 81/83/78
f 112/162/80 114/164/110 151/210/143
f 112/162/80 151/210/143 83/89/80
f 82/86/79 152/211/144 117/167/113
f 107/153/104 120/172/115 149/208/141
f 107/153/104 149/208/141 84/92/81
f 81/83/78 150/209/142 118/168/114
f 74/74/71 121/173/116 106/152/103
f 126/179/99 131/185/124 148/207/140
f 126/179/99 148/207/140 102/137/99
f 103/140/100 147/206/139 132/187/125
f 127/180/100 128/182/121 147/206/139
f 127/180/100 147/206/139 103/140/100
f 97/127/94 129/183/122 108/154/105
f 134/190/98 139/197/130 146/205/138
f 134/190/98 146/205/138 101/133/98
f 104/144/101 145/204/137 140/198/131
f 102/137/99 148/207/140 125/177/120
f 77/155/74 137/195/128 109/156/106
f 83/89/80 151/210/143 113/163/109
f 110/158/107 111/159/108 152/211/144
f 110/158/107 152/211/144 82/86/79
f 101/133/98 146/205/138 133/188/126
f 135/191/101 136/194/127 145/204/137
f 135/191/101 145/204/137 104/144/101
f 53/53/50 56/56/53 119/170/78
f 75/75/72 124/176/119 54/54/51
f 70/70/67 105/151/102 112/162/80
f 71/71/68 117/167/113 115/165/111
f 71/71/68 115/165/111 69/69/66
f 66/66/63 74/74/71 86/113/83
f 79/79/76 67/67/64 85/107/82
f 80/115/77 88/118/85 126/179/99
f 73/73/70 118/168/114 121/173/116
f 73/73/70 121/173/116 74/74/71
f 100/130/97 140/198/131 90/120/87
f 99/129/96 125/177/120 129/183/122
f 99/129/96 129/183/122 97/127/94
f 89/119/86 92/122/89 134/190/98
f 98/128/95 108/154/105 127/180/100
f 78/157/75 109/156/106 135/191/101
f 72/72/69 113/163/109 50/50/47
f 49/49/46 52/52/49 110/158/107
f 76/134/73 133/188/126 137/195/128
f 76/134/73 137/195/128 77/155/74
