o sponza_39
v 12.757 122.269 -24.6678
v 13.7102 122.071 -24.6678
v 13.7102 122.553 -24.8337
v 12.9483 122.711 -24.8337
v 12.0432 123.871 -26.3624
v 11.9428 124.583 -26.3624
v 11.9428 124.583 -25.0352
v 12.0432 123.871 -25.0352
v 11.5415 125.493 -24.6678
v 11.3171 124.623 -24.6678
v 11.7976 124.593 -24.8337
v 11.9771 125.287 -24.8338
v 11 123.497 -24.3133
v 11.4531 123.66 -24.6678
v 10.8368 124.654 -24.3133
v 11 123.497 -26.3624
v 10.8368 124.654 -26.3624
v 13.0588 126.116 -26.3624
v 13.7102 126.24 -26.3624
v 13.7102 126.24 -25.0352
v 13.0588 126.116 -25.0352
v 12.6512 127.147 -24.3133
v 12.8282 126.699 -24.6678
v 13.7102 126.868 -24.6678
v 13.7102 127.349 -24.3133
v 12.6512 127.147 -26.3624
v 13.7102 127.349 -26.3624
v 14.6633 122.269 -24.6678
v 14.472 122.711 -24.8337
v 15.4775 124.583 -26.3624
v 15.3771 123.871 -26.3624
v 15.3771 123.871 -25.0352
v 15.4775 124.583 -25.0352
v 16.1032 124.623 -24.6678
v 15.8789 125.493 -24.6678
v 15.4432 125.287 -24.8338
v 15.6228 124.593 -24.8337
v 15.9673 123.66 -24.6678
v 16.4203 123.497 -24.3133
v 16.5835 124.654 -24.3133
v 16.4203 123.497 -26.3624
v 16.5835 124.654 -26.3624
v 14.3615 126.116 -26.3624
v 14.3615 126.116 -25.0352
v 14.5921 126.699 -24.6678
v 14.7691 127.147 -24.3133
v 14.7691 127.147 -26.3624
v 11.9609 122.829 -24.6678
v 12.312 123.158 -24.8337
v 11.906 123.822 -24.8337
v 13.0062 122.844 -26.3624
v 12.4183 123.258 -26.3624
v 12.4183 123.258 -25.0352
v 13.0062 122.844 -25.0352
v 12.0699 126.219 -24.6678
v 12.3993 125.867 -24.8338
v 13.0053 126.252 -24.8338
v 12.5657 121.827 -24.3133
v 11.6098 122.5 -24.3133
v 12.5657 121.827 -26.3624
v 11.6098 122.5 -26.3624
v 12.1085 125.225 -26.3624
v 12.4988 125.761 -26.3624
v 12.4988 125.761 -25.0352
v 12.1085 125.225 -25.0352
v 11.1062 125.698 -24.3133
v 11.7407 126.57 -24.3133
v 11.1062 125.698 -26.3624
v 11.7407 126.57 -26.3624
v 15.5143 123.822 -24.8337
v 15.1084 123.158 -24.8337
v 15.4594 122.829 -24.6678
v 14.4141 122.844 -26.3624
v 14.4141 122.844 -25.0352
v 15.002 123.258 -25.0352
v 15.002 123.258 -26.3624
v 14.415 126.252 -24.8338
v 15.021 125.867 -24.8338
v 15.3505 126.219 -24.6678
v 14.8546 121.827 -24.3133
v 15.8105 122.5 -24.3133
v 14.8546 121.827 -26.3624
v 15.8105 122.5 -26.3624
v 15.3118 125.225 -26.3624
v 15.3118 125.225 -25.0352
v 14.9216 125.761 -25.0352
v 14.9216 125.761 -26.3624
v 16.3141 125.698 -24.3133
v 15.6797 126.57 -24.3133
v 16.3141 125.698 -26.3624
v 15.6797 126.57 -26.3624
v 13.7102 122.699 -26.3624
v 13.7102 122.699 -25.0352
v 13.7102 126.386 -24.8338
v 13.7102 121.59 -24.3133
v 13.7102 121.59 -26.3624
v 11 123.497 -24.3133
v 10.8368 124.654 -24.3133
v 12.6512 127.147 -24.3133
v 13.7102 127.349 -24.3133
v 16.4203 123.497 -24.3133
v 16.5835 124.654 -24.3133
v 14.7691 127.147 -24.3133
v 12.5657 121.827 -24.3133
v 11.6098 122.5 -24.3133
v 11.1062 125.698 -24.3133
v 11.7407 126.57 -24.3133
v 14.8546 121.827 -24.3133
v 15.8105 122.5 -24.3133
v 16.3141 125.698 -24.3133
v 15.6797 126.57 -24.3133
v 13.7102 121.59 -24.3133
vt 0.1275 0.1878
vt 0.0033 0.1878
vt 0.0033 0.1621
vt 0.1275 0.1621
vt 0.3758 0.0638
vt 0.4999 0.0638
vt 0.4999 0.1451
vt 0.3758 0.1451
vt 0.6143 0.1878
vt 0.4999 0.1878
vt 0.4999 0.1621
vt 0.6143 0.1621
vt 0.3758 0.2169
vt 0.3758 0.1878
vt 0.4999 0.2169
vt 0.3758 0.3263
vt 0.3758 0.2169
vt 0.4999 0.2169
vt 0.4999 0.3263
vt 0.8431 0.0638
vt 0.9575 0.0638
vt 0.9575 0.1451
vt 0.8431 0.1451
vt 0.8431 0.2169
vt 0.8431 0.1878
vt 0.9575 0.1878
vt 0.9575 0.2169
vt 0.8431 0.3263
vt 0.8431 0.2169
vt 0.9575 0.2169
vt 0.9575 0.3263
vt 0.1275 0.1878
vt 0.1275 0.1621
vt 0.4999 0.0638
vt 0.3758 0.0638
vt 0.3758 0.1451
vt 0.4999 0.1451
vt 0.4999 0.1878
vt 0.6143 0.1878
vt 0.6143 0.1621
vt 0.4999 0.1621
vt 0.3758 0.1878
vt 0.3758 0.2169
vt 0.4999 0.2169
vt 0.4999 0.2169
vt 0.3758 0.2169
vt 0.3758 0.3263
vt 0.4999 0.3263
vt 0.8431 0.0638
vt 0.8431 0.1451
vt 0.8431 0.1878
vt 0.8431 0.2169
vt 0.8431 0.2169
vt 0.8431 0.3263
vt 0.2516 0.1878
vt 0.2516 0.1621
vt 0.3758 0.1621
vt 0.1275 0.0638
vt 0.2516 0.0638
vt 0.2516 0.1451
vt 0.1275 0.1451
vt 0.7287 0.1878
vt 0.7287 0.1621
vt 0.8431 0.1621
vt 0.1275 0.2169
vt 0.2516 0.2169
vt 0.1275 0.3263
vt 0.1275 0.2169
vt 0.2516 0.2169
vt 0.2516 0.3263
vt 0.6143 0.0638
vt 0.7287 0.0638
vt 0.7287 0.1451
vt 0.6143 0.1451
vt 0.6143 0.2169
vt 0.7287 0.2169
vt 0.6143 0.3263
vt 0.6143 0.2169
vt 0.7287 0.2169
vt 0.7287 0.3263
vt 0.3758 0.1621
vt 0.2516 0.1621
vt 0.2516 0.1878
vt 0.1275 0.0638
vt 0.1275 0.1451
vt 0.2516 0.1451
vt 0.2516 0.0638
vt 0.8431 0.1621
vt 0.7287 0.1621
vt 0.7287 0.1878
vt 0.1275 0.2169
vt 0.2516 0.2169
vt 0.1275 0.2169
vt 0.1275 0.3263
vt 0.2516 0.3263
vt 0.2516 0.2169
vt 0.6143 0.0638
vt 0.6143 0.1451
vt 0.7287 0.1451
vt 0.7287 0.0638
vt 0.6143 0.2169
vt 0.7287 0.2169
vt 0.6143 0.2169
vt 0.6143 0.3263
vt 0.7287 0.3263
vt 0.7287 0.2169
vt 0.0033 0.0638
vt 0.0033 0.1451
vt 0.9575 0.1621
vt 0.0033 0.2169
vt 0.0033 0.3263
vt 0.0033 0.2169
vn 0.1907 0.4403 0.8773
vn -0 0.4799 0.8773
vn -0 0.5694 0.8221
vn 0.2263 0.5225 0.8221
vn 0.9412 0.3377 0
vn 0.9984 -0.0562 0
vn 0.9461 -0.053 0.3195
vn 0.8917 0.3199 0.3203
vn 0.4329 -0.2043 0.878
vn 0.4786 -0.0267 0.8776
vn 0.5698 -0.0321 0.8212
vn 0.5172 -0.2441 0.8203
vn 0.5582 0.2003 0.8051
vn 0.4517 0.1621 0.8773
vn 0.5921 -0.0337 0.8051
vn -0.9412 -0.3377 0
vn -0.9984 0.0562 0
vn 0.3678 -0.9299 0
vn -0 -1 0
vn 0 -0.9478 0.3188
vn 0.3486 -0.8814 0.3188
vn 0.2181 -0.5515 0.8051
vn 0.1761 -0.4452 0.878
vn 0 -0.4787 0.878
vn 0 -0.5931 0.8051
vn -0.3678 0.9299 0
vn -0 1 0
vn -0.1907 0.4403 0.8773
vn -0.2263 0.5225 0.8221
vn -0.9984 -0.0562 0
vn -0.9412 0.3377 0
vn -0.8917 0.3199 0.3203
vn -0.9461 -0.053 0.3195
vn -0.4786 -0.0267 0.8776
vn -0.4329 -0.2043 0.878
vn -0.5172 -0.2441 0.8203
vn -0.5698 -0.0321 0.8212
vn -0.4517 0.1621 0.8773
vn -0.5582 0.2003 0.8051
vn -0.5921 -0.0337 0.8051
vn 0.9984 0.0562 0
vn 0.9412 -0.3377 0
vn -0.3678 -0.9299 0
vn -0.3486 -0.8814 0.3188
vn -0.1761 -0.4452 0.878
vn -0.2181 -0.5515 0.8051
vn 0.3678 0.9299 0
vn 0.3501 0.3283 0.8773
vn 0.4153 0.3895 0.8221
vn 0.5359 0.1923 0.8221
vn 0.3975 0.9176 -0
vn 0.7295 0.684 0
vn 0.691 0.648 0.3203
vn 0.3765 0.8693 0.3203
vn 0.3275 -0.3492 0.878
vn 0.3912 -0.4172 0.8203
vn 0.2103 -0.5319 0.8203
vn 0.2357 0.5442 0.8051
vn 0.4326 0.4057 0.8051
vn -0.3975 -0.9176 0
vn -0.7295 -0.684 0
vn 0.9044 -0.4267 0
vn 0.684 -0.7295 0
vn 0.6483 -0.6914 0.3188
vn 0.8572 -0.4045 0.3188
vn 0.5364 -0.2531 0.8051
vn 0.4057 -0.4326 0.8051
vn -0.9044 0.4267 0
vn -0.9044 0.4268 0
vn -0.684 0.7295 0
vn -0.5359 0.1923 0.8221
vn -0.4153 0.3895 0.8221
vn -0.3501 0.3283 0.8773
vn -0.3975 0.9176 0
vn -0.3765 0.8693 0.3203
vn -0.691 0.648 0.3203
vn -0.7294 0.684 0
vn -0.2104 -0.5318 0.8203
vn -0.3912 -0.4172 0.8203
vn -0.3275 -0.3492 0.878
vn -0.2357 0.5442 0.8051
vn -0.4326 0.4057 0.8051
vn 0.3975 -0.9176 0
vn 0.7295 -0.684 0
vn -0.9044 -0.4267 0
vn -0.8572 -0.4045 0.3188
vn -0.6483 -0.6914 0.3188
vn -0.684 -0.7295 0
vn -0.5364 -0.2531 0.8051
vn -0.4057 -0.4326 0.8051
vn 0.9044 0.4268 0
vn 0.9044 0.4267 0
vn 0.684 0.7295 0
vn -0 0.9473 0.3203
vn 0 -0.5719 0.8203
vn -0 0.5931 0.8051
f 1/1/1 2/2/2 3/3/3
f 1/1/1 3/3/3 4/4/4
f 5/5/5 6/6/6 7/7/7
f 5/5/5 7/7/7 8/8/8
f 9/9/9 10/10/10 11/11/11
f 9/9/9 11/11/11 12/12/12
f 97/13/13 14/14/14 10/10/10
f 97/13/13 10/10/10 98/15/15
f 16/16/16 13/17/16 15/18/17
f 16/16/16 15/18/17 17/19/17
f 18/20/18 19/21/19 20/22/20
f 18/20/18 20/22/20 21/23/21
f 99/24/22 23/25/23 24/26/24
f 99/24/22 24/26/24 100/27/25
f 26/28/26 22/29/26 25/30/27
f 26/28/26 25/30/27 27/31/27
f 2/2/2 28/32/28 29/33/29
f 2/2/2 29/33/29 3/3/3
f 30/34/30 31/35/31 32/36/32
f 30/34/30 32/36/32 33/37/33
f 34/38/34 35/39/35 36/40/36
f 34/38/34 36/40/36 37/41/37
f 34/38/34 38/42/38 101/43/39
f 34/38/34 101/43/39 102/44/40
f 40/45/41 39/46/42 41/47/42
f 40/45/41 41/47/42 42/48/41
f 19/21/19 43/49/43 44/50/44
f 19/21/19 44/50/44 20/22/20
f 24/26/24 45/51/45 103/52/46
f 24/26/24 103/52/46 100/27/25
f 25/30/27 46/53/47 47/54/47
f 25/30/27 47/54/47 27/31/27
f 14/14/14 48/55/48 49/56/49
f 14/14/14 49/56/49 50/57/50
f 51/58/51 52/59/52 53/60/53
f 51/58/51 53/60/53 54/61/54
f 23/25/23 55/62/55 56/63/56
f 23/25/23 56/63/56 57/64/57
f 104/65/58 1/1/1 48/55/48
f 104/65/58 48/55/48 105/66/59
f 60/67/60 58/68/60 59/69/61
f 60/67/60 59/69/61 61/70/61
f 62/71/62 63/72/63 64/73/64
f 62/71/62 64/73/64 65/74/65
f 106/75/66 9/9/9 55/62/55
f 106/75/66 55/62/55 107/76/67
f 68/77/68 66/78/69 67/79/70
f 68/77/68 67/79/70 69/80/70
f 38/42/38 70/81/71 71/82/72
f 38/42/38 71/82/72 72/83/73
f 73/84/74 74/85/75 75/86/76
f 73/84/74 75/86/76 76/87/77
f 45/51/45 77/88/78 78/89/79
f 45/51/45 78/89/79 79/90/80
f 28/32/28 108/91/81 109/92/82
f 28/32/28 109/92/82 72/83/73
f 80/93/83 82/94/83 83/95/84
f 80/93/83 83/95/84 81/96/84
f 84/97/85 85/98/86 86/99/87
f 84/97/85 86/99/87 87/100/88
f 35/39/35 110/101/89 111/102/90
f 35/39/35 111/102/90 79/90/80
f 88/103/91 90/104/92 91/105/93
f 88/103/91 91/105/93 89/106/93
f 48/55/48 1/1/1 4/4/4
f 48/55/48 4/4/4 49/56/49
f 52/59/52 5/5/5 8/8/8
f 52/59/52 8/8/8 53/60/53
f 55/62/55 9/9/9 12/12/12
f 55/62/55 12/12/12 56/63/56
f 105/66/59 48/55/48 14/14/14
f 105/66/59 14/14/14 97/13/13
f 61/70/61 59/69/61 13/17/16
f 61/70/61 13/17/16 16/16/16
f 63/72/63 18/20/18 21/23/21
f 63/72/63 21/23/21 64/73/64
f 107/76/67 55/62/55 23/25/23
f 107/76/67 23/25/23 99/24/22
f 69/80/70 67/79/70 22/29/26
f 69/80/70 22/29/26 26/28/26
f 72/83/73 71/82/72 29/33/29
f 72/83/73 29/33/29 28/32/28
f 76/87/77 75/86/76 32/36/32
f 76/87/77 32/36/32 31/35/31
f 79/90/80 78/89/79 36/40/36
f 79/90/80 36/40/36 35/39/35
f 72/83/73 109/92/82 101/43/39
f 72/83/73 101/43/39 38/42/38
f 81/96/84 83/95/84 41/47/42
f 81/96/84 41/47/42 39/46/42
f 87/100/88 86/99/87 44/50/44
f 87/100/88 44/50/44 43/49/43
f 79/90/80 111/102/90 103/52/46
f 79/90/80 103/52/46 45/51/45
f 89/106/93 91/105/93 47/54/47
f 89/106/93 47/54/47 46/53/47
f 10/10/10 14/14/14 50/57/50
f 10/10/10 50/57/50 11/11/11
f 92/107/27 51/58/51 54/61/54
f 92/107/27 54/61/54 93/108/94
f 24/26/24 23/25/23 57/64/57
f 24/26/24 57/64/57 94/109/95
f 1/1/1 104/65/58 112/110/96
f 1/1/1 112/110/96 2/2/2
f 96/111/19 95/112/19 58/68/60
f 96/111/19 58/68/60 60/67/60
f 6/6/6 62/71/62 65/74/65
f 6/6/6 65/74/65 7/7/7
f 98/15/15 10/10/10 9/9/9
f 98/15/15 9/9/9 106/75/66
f 17/19/17 15/18/17 66/78/69
f 17/19/17 66/78/69 68/77/68
f 34/38/34 37/41/37 70/81/71
f 34/38/34 70/81/71 38/42/38
f 92/107/27 93/108/94 74/85/75
f 92/107/27 74/85/75 73/84/74
f 24/26/24 94/109/95 77/88/78
f 24/26/24 77/88/78 45/51/45
f 2/2/2 112/110/96 108/91/81
f 2/2/2 108/91/81 28/32/28
f 95/112/19 96/111/19 82/94/83
f 95/112/19 82/94/83 80/93/83
f 30/34/30 33/37/33 85/98/86
f 30/34/30 85/98/86 84/97/85
f 34/38/34 102/44/40 110/101/89
f 34/38/34 110/101/89 35/39/35
f 40/45/41 42/48/41 90/104/92
f 40/45/41 90/104/92 88/103/91
f 11/11/11 50/57/50 8/8/8
f 11/11/11 8/8/8 7/7/7
f 94/109/95 57/64/57 21/23/21
f 94/109/95 21/23/21 20/22/20
f 70/81/71 37/41/37 33/37/33
f 70/81/71 33/37/33 32/36/32
f 77/88/78 94/109/95 20/22/20
f 77/88/78 20/22/20 44/50/44
f 49/56/49 4/4/4 54/61/54
f 49/56/49 54/61/54 53/60/53
f 56/63/56 12/12/12 65/74/65
f 56/63/56 65/74/65 64/73/64
f 29/33/29 71/82/72 75/86/76
f 29/33/29 75/86/76 74/85/75
f 36/40/36 78/89/79 86/99/87
f 36/40/36 86/99/87 85/98/86
f 50/57/50 49/56/49 53/60/53
f 50/57/50 53/60/53 8/8/8
f 57/64/57 56/63/56 64/73/64
f 57/64/57 64/73/64 21/23/21
f 71/82/72 70/81/71 32/36/32
f 71/82/72 32/36/32 75/86/76
f 78/89/79 77/88/78 44/50/44
f 78/89/79 44/50/44 86/99/87
f 4/4/4 3/3/3 93/108/94
f 4/4/4 93/108/94 54/61/54
f 12/12/12 11/11/11 7/7/7
f 12/12/12 7/7/7 65/74/65
f 3/3/3 29/33/29 74/85/75
f 3/3/3 74/85/75 93/108/94
f 37/41/37 36/40/36 85/98/86
f 37/41/37 85/98/86 33/37/33
