o sponza_103
v 9.98105 18.2652 57.5488
v 9.98107 18.2652 56.9962
v 14.53 18.2652 56.9962
v 14.53 18.2652 57.5488
v 14.4693 18.2652 56.9216
v 10.0418 18.2652 56.9216
v 14.5764 18.6521 56.9378
v 14.6396 19.2985 56.8557
v 14.6396 19.2985 57.5488
v 14.5764 18.6521 57.5488
v 9.92739 19.2985 56.787
v 14.5837 19.2985 56.787
v 14.5168 18.6521 56.8646
v 9.99431 18.6521 56.8646
v 9.44391 20.8885 56.1918
v 9.44677 21.3248 56.1918
v 15.0643 21.3248 56.1918
v 15.0672 20.8885 56.1918
v 9.38691 20.8885 57.5488
v 9.38691 21.3248 57.5488
v 9.38691 21.3248 56.2653
v 9.38691 20.8885 56.2618
v 14.7088 18.4586 56.7838
v 14.7088 18.4586 57.5488
v 9.86889 18.4586 56.702
v 14.6422 18.4586 56.702
v 15.1242 21.3248 56.2653
v 15.2907 21.543 56.0686
v 15.2907 21.543 57.5488
v 15.1242 21.3248 57.5488
v 9.28659 21.543 55.9872
v 15.2245 21.543 55.9872
v 15.1242 21.7611 56.2731
v 15.1242 21.7611 57.5488
v 9.45312 21.7611 56.1918
v 15.058 21.7611 56.1918
v 14.8536 20.1984 56.5956
v 15.1242 20.8885 56.2618
v 15.1242 20.8885 57.5488
v 14.8536 20.1984 57.5488
v 14.7954 20.1984 56.5242
v 9.71564 20.1984 56.5242
v 9.93471 18.6521 56.9378
v 9.8715 19.2985 56.8557
v 9.80229 18.4586 56.7838
v 9.2204 21.543 56.0686
v 9.38691 21.7611 56.2731
v 9.65751 20.1984 56.5956
v 9.38691 21.7611 57.5488
v 9.8715 19.2985 57.5488
v 9.93471 18.6521 57.5488
v 9.80226 18.4586 57.5488
v 9.2204 21.543 57.5488
v 9.65754 20.1984 57.5488
v 9.98105 18.2652 57.5488
v 9.98107 18.2652 56.9962
v 14.53 18.2652 56.9962
v 14.53 18.2652 57.5488
v 14.4693 18.2652 56.9216
v 10.0418 18.2652 56.9216
v 9.86889 18.4586 56.702
v 14.6422 18.4586 56.702
v 9.28659 21.543 55.9872
v 15.2245 21.543 55.9872
vt 0.2773 0.6742
vt 0.2773 0.6911
vt 0.4476 0.6911
vt 0.4476 0.6742
vt 0.4453 0.6933
vt 0.2795 0.6933
vt 0.5504 0.8881
vt 0.5526 0.9084
vt 0.5337 0.9084
vt 0.5337 0.8881
vt 0.7614 0.91
vt 0.6053 0.91
vt 0.6076 0.8897
vt 0.7592 0.8897
vt 0.7776 0.96
vt 0.7775 0.9737
vt 0.5892 0.9737
vt 0.5891 0.96
vt 0.8287 0.9596
vt 0.8287 0.9733
vt 0.7937 0.9733
vt 0.7936 0.9596
vt 0.9865 0.7672
vt 0.9959 0.7791
vt 0.9632 0.7791
vt 0.9619 0.7672
vt 0.2524 0.779
vt 0.0111 0.779
vt 0.0112 0.7672
vt 0.2525 0.7672
vt 0.5337 0.882
vt 0.5546 0.882
vt 0.6034 0.8836
vt 0.7634 0.8836
vt 0.5687 0.9721
vt 0.5741 0.979
vt 0.5337 0.979
vt 0.5337 0.9721
vt 0.7829 0.9806
vt 0.5839 0.9806
vt 0.5685 0.9859
vt 0.5337 0.9859
vt 0.7773 0.9875
vt 0.5894 0.9875
vt 0.5839 0.9806
vt 0.7829 0.9806
vt 0.5597 0.9367
vt 0.5688 0.9584
vt 0.5337 0.9584
vt 0.5337 0.9367
vt 0.5982 0.9383
vt 0.7685 0.9383
vt 0.6028 0.9094
vt 0.605 0.8907
vt 0.8095 0.8902
vt 0.8121 0.8892
vt 0.8098 0.9096
vt 0.8073 0.909
vt 0.5867 0.9726
vt 0.5865 0.9593
vt 0.7912 0.9721
vt 0.791 0.9589
vt 0.6007 0.8862
vt 0.8052 0.8857
vt 0.8079 0.8832
vt 0.0078 0.7789
vt 0.0079 0.7672
vt 0.2559 0.779
vt 0.2558 0.7672
vt 0.5815 0.9806
vt 0.7884 0.9801
vt 0.786 0.9801
vt 0.5871 0.99
vt 0.7939 0.987
vt 0.7916 0.9896
vt 0.786 0.9801
vt 0.5957 0.9372
vt 0.8002 0.9367
vt 0.8027 0.9379
vt 0.0091 0.8976
vt 0.0091 0.876
vt 0.0109 0.8746
vt 0.1674 0.876
vt 0.1655 0.8746
vt 0.1674 0.8976
vt 0.8287 0.9096
vt 0.8287 0.8892
vt 0.2874 0.779
vt 0.2803 0.7672
vt 0.8287 0.8832
vt 0.8287 0.9801
vt 0.8287 0.987
vt 0.8287 0.9379
vn 0 -1 0
vn 0.9118 0.3115 -0.2677
vn 0.9232 -0.2213 -0.3143
vn 0.9863 -0.1647 0
vn 0.9686 0.2488 0
vn -0.4078 -0.254 -0.877
vn 0.4079 -0.254 -0.877
vn 0.3713 0.3626 -0.8548
vn -0.3713 0.3626 -0.8548
vn -0.4271 -0.251 -0.8686
vn -0.3557 -0.4619 -0.8125
vn 0.3557 -0.4619 -0.8125
vn 0.4272 -0.251 -0.8686
vn -0.9826 -0.1858 0
vn -0.9473 -0.3202 0
vn -0.8773 -0.4014 -0.263
vn -0.9078 -0.2349 -0.3475
vn 0.4048 -0.9098 -0.0916
vn 0.9149 -0.0672 -0.3981
vn 0.9973 -0.0728 0
vn 0.4007 -0.9162 -0
vn -0.2667 -0.8176 -0.5103
vn 0.2666 -0.8176 -0.5102
vn 0.138 -0.924 -0.3566
vn -0.138 -0.924 -0.3566
vn 0.3172 0.7224 -0.6144
vn -0.3172 0.7224 -0.6144
vn 0.8773 -0.4014 -0.263
vn 0.9163 0.0032 -0.4005
vn 1 0 0
vn 0.9473 -0.3203 0
vn -0.2995 -0.7603 -0.5764
vn 0.2994 -0.7603 -0.5764
vn 0.4484 0.8877 -0.1047
vn 0.4434 0.8963 0
vn -0.1562 0.9026 -0.4011
vn 0.1562 0.9026 -0.4011
vn 0.2992 0.7641 -0.5715
vn -0.2993 0.7642 -0.5714
vn 0.8737 -0.3895 -0.2914
vn 0.9078 -0.2349 -0.3474
vn 0.9826 -0.1858 0
vn 0.9543 -0.2989 0
vn 0.3735 -0.4407 -0.8163
vn -0.3735 -0.4407 -0.8162
vn -0.9118 0.3115 -0.2677
vn -0.9231 -0.2213 -0.3144
vn -0.9149 -0.0672 -0.3981
vn -0.4048 -0.9098 -0.0916
vn -0.9163 0.0033 -0.4004
vn -0.4484 0.8877 -0.1048
vn -0.8737 -0.3895 -0.2914
vn -0.4434 0.8963 0
vn -0.9863 -0.1647 0
vn -0.9686 0.2488 0
vn -0.9973 -0.0728 -0
vn -0.4008 -0.9162 0.0002
vn -1 0 0
vn -0.9543 -0.2989 0
f 55/1/1 56/2/1 57/3/1
f 55/1/1 57/3/1 58/4/1
f 59/5/1 57/3/1 56/2/1
f 59/5/1 56/2/1 60/6/1
f 7/7/2 8/8/3 9/9/4
f 7/7/2 9/9/4 10/10/5
f 11/11/6 12/12/7 13/13/8
f 11/11/6 13/13/8 14/14/9
f 15/15/10 16/16/11 17/17/12
f 15/15/10 17/17/12 18/18/13
f 19/19/14 20/20/15 21/21/16
f 19/19/14 21/21/16 22/22/17
f 3/23/18 23/24/19 24/25/20
f 3/23/18 24/25/20 4/26/21
f 61/27/22 62/28/23 5/29/24
f 61/27/22 5/29/24 6/30/25
f 7/7/2 10/10/5 24/31/20
f 7/7/2 24/31/20 23/32/19
f 14/14/9 13/13/8 26/33/26
f 14/14/9 26/33/26 25/34/27
f 27/35/28 28/36/29 29/37/30
f 27/35/28 29/37/30 30/38/31
f 63/39/32 64/40/33 17/17/12
f 63/39/32 17/17/12 16/16/11
f 33/41/34 34/42/35 29/37/30
f 33/41/34 29/37/30 28/36/29
f 35/43/36 36/44/37 32/45/38
f 35/43/36 32/45/38 31/46/39
f 37/47/40 38/48/41 39/49/42
f 37/47/40 39/49/42 40/50/43
f 15/15/10 18/18/13 41/51/44
f 15/15/10 41/51/44 42/52/45
f 8/8/3 37/47/40 40/50/43
f 8/8/3 40/50/43 9/9/4
f 42/52/45 41/51/44 12/12/7
f 42/52/45 12/12/7 11/11/6
f 8/53/3 7/54/2 13/13/8
f 8/53/3 13/13/8 12/12/7
f 14/55/9 43/56/46 44/57/47
f 14/55/9 44/57/47 11/58/6
f 18/18/13 17/17/12 27/59/28
f 18/18/13 27/59/28 38/60/41
f 22/22/17 21/21/16 16/61/11
f 22/22/17 16/61/11 15/62/10
f 13/13/8 7/54/2 23/63/19
f 13/13/8 23/63/19 26/33/26
f 14/55/9 25/64/27 45/65/48
f 14/55/9 45/65/48 43/56/46
f 23/66/19 3/67/18 5/29/24
f 23/66/19 5/29/24 62/28/23
f 45/68/48 61/27/22 6/30/25
f 45/68/48 6/30/25 2/69/49
f 17/17/12 64/40/33 28/70/29
f 17/17/12 28/70/29 27/59/28
f 16/61/11 21/21/16 46/71/50
f 16/61/11 46/71/50 63/72/32
f 28/70/29 32/45/38 36/44/37
f 28/70/29 36/44/37 33/73/34
f 46/71/50 47/74/51 35/75/36
f 46/71/50 35/75/36 31/76/39
f 41/51/44 18/18/13 38/60/41
f 41/51/44 38/60/41 37/77/40
f 42/78/45 48/79/52 22/22/17
f 42/78/45 22/22/17 15/62/10
f 12/12/7 41/51/44 37/77/40
f 12/12/7 37/77/40 8/53/3
f 11/58/6 44/57/47 48/79/52
f 11/58/6 48/79/52 42/78/45
f 34/80/35 33/81/34 36/82/37
f 34/80/35 36/82/37 47/83/51
f 36/82/37 35/84/36 47/83/51
f 49/85/53 34/80/35 47/83/51
f 50/86/54 44/57/47 43/56/46
f 50/86/54 43/56/46 51/87/55
f 39/49/42 38/48/41 27/35/28
f 39/49/42 27/35/28 30/38/31
f 52/88/56 45/68/48 2/69/49
f 52/88/56 2/69/49 1/89/57
f 52/90/56 51/87/55 43/56/46
f 52/90/56 43/56/46 45/65/48
f 53/91/58 46/71/50 21/21/16
f 53/91/58 21/21/16 20/20/15
f 53/91/58 49/92/53 47/74/51
f 53/91/58 47/74/51 46/71/50
f 19/19/14 22/22/17 48/79/52
f 19/19/14 48/79/52 54/93/59
f 54/93/59 48/79/52 44/57/47
f 54/93/59 44/57/47 50/86/54
