o sponza_77
v 129.761 66.0363 57.5725
v 129.761 66.0363 57.0199
v 129.861 66.0363 57.0199
v 130.31 66.0363 57.5726
v 129.811 66.0363 56.9587
v 130.31 66.0363 56.8976
v 129.86 66.0363 56.8976
v 129.715 66.4232 56.9615
v 129.715 66.4232 57.5725
v 129.651 67.0696 57.5725
v 129.651 67.0696 56.8794
v 129.582 66.2297 57.5725
v 129.582 66.2297 56.8075
v 129.167 69.0959 56.289
v 129.167 69.0959 57.5725
v 129 69.3141 57.5725
v 129 69.3141 56.0923
v 129.167 69.5323 57.5725
v 129.167 69.5323 56.2968
v 129.437 67.9695 56.6193
v 129.437 67.9695 57.5725
v 129.167 68.6596 57.5725
v 129.167 68.6596 56.2855
v 129.764 66.4232 56.9011
v 129.699 67.0696 56.8212
v 129.216 69.0959 56.2284
v 129.215 68.6596 56.2266
v 129.053 69.3141 56.0277
v 129.219 69.5323 56.2323
v 129.486 67.9695 56.5597
v 129.635 66.2297 56.7427
v 130.31 69.5323 57.5726
v 129.813 66.4232 56.8407
v 129.746 67.0696 56.7631
v 130.31 67.0696 56.7631
v 130.31 66.4232 56.8407
v 129.688 66.2297 56.678
v 130.31 66.2297 56.678
v 129.266 69.096 56.1677
v 129.105 69.3141 55.9631
v 130.31 69.3141 55.9631
v 130.31 69.096 56.1677
v 129.272 69.5323 56.1677
v 130.31 69.5323 56.1677
v 129.534 67.9695 56.5002
v 129.263 68.6596 56.1677
v 130.31 68.6596 56.1677
v 130.31 67.9695 56.5002
v 129.761 66.0363 57.5725
v 129.761 66.0363 57.0199
v 129.811 66.0363 56.9587
v 130.31 66.0363 56.8976
v 129.86 66.0363 56.8976
v 129.053 69.3141 56.0277
v 129.635 66.2297 56.7427
v 129.688 66.2297 56.678
v 130.31 66.2297 56.678
v 129.105 69.3141 55.9631
v 130.31 69.3141 55.9631
vt 0.4476 0.6742
vt 0.4476 0.6911
vt 0.4439 0.6911
vt 0.427 0.6742
vt 0.4457 0.6929
vt 0.4476 0.6742
vt 0.4476 0.6911
vt 0.5504 0.8881
vt 0.5337 0.8881
vt 0.5337 0.9084
vt 0.5526 0.9084
vt 0.9865 0.7672
vt 0.9619 0.7672
vt 0.9632 0.7791
vt 0.9959 0.7791
vt 0.5546 0.882
vt 0.5337 0.882
vt 0.5687 0.9721
vt 0.5337 0.9721
vt 0.5337 0.979
vt 0.5741 0.979
vt 0.5337 0.9859
vt 0.5685 0.9859
vt 0.5597 0.9367
vt 0.5337 0.9367
vt 0.5337 0.9584
vt 0.5688 0.9584
vt 0.6071 0.8899
vt 0.605 0.8907
vt 0.6028 0.9094
vt 0.605 0.9099
vt 0.5867 0.9726
vt 0.5888 0.9735
vt 0.5887 0.9599
vt 0.5865 0.9593
vt 0.5815 0.9806
vt 0.5834 0.9806
vt 0.5871 0.99
vt 0.589 0.988
vt 0.5834 0.9806
vt 0.5978 0.9381
vt 0.5957 0.9372
vt 0.6007 0.8862
vt 0.6028 0.8842
vt 0.0107 0.7672
vt 0.0079 0.7672
vt 0.0078 0.7789
vt 0.0104 0.779
vt 0.0105 0.8749
vt 0.0091 0.876
vt 0.0091 0.8976
vt 0.0406 0.8976
vt 0.5504 0.8881
vt 0.5526 0.9084
vt 0.5337 0.9084
vt 0.5337 0.8881
vt 0.9865 0.7672
vt 0.9959 0.7791
vt 0.9632 0.7791
vt 0.9619 0.7672
vt 0.5337 0.882
vt 0.5546 0.882
vt 0.5687 0.9721
vt 0.5741 0.979
vt 0.5337 0.979
vt 0.5337 0.9721
vt 0.5685 0.9859
vt 0.5337 0.9859
vt 0.5337 0.979
vt 0.5741 0.979
vt 0.5597 0.9367
vt 0.5688 0.9584
vt 0.5337 0.9584
vt 0.5337 0.9367
vt 0.605 0.8907
vt 0.6028 0.9094
vt 0.5867 0.9726
vt 0.5865 0.9593
vt 0.5815 0.9806
vt 0.5871 0.99
vt 0.5815 0.9806
vt 0.5957 0.9372
vt 0.6007 0.8862
vt 0.0078 0.7789
vt 0.0079 0.7672
vt 0.0091 0.8976
vt 0.0091 0.876
vn 0 -1 0
vn 0 -1 -0.0002
vn -0.9118 0.3115 -0.2676
vn -0.9686 0.2488 0
vn -0.9863 -0.1647 0
vn -0.9232 -0.2213 -0.3143
vn -0.4048 -0.9098 -0.0915
vn -0.4007 -0.9162 -0
vn -0.9973 -0.0728 0
vn -0.9149 -0.0672 -0.3981
vn -0.8773 -0.4014 -0.263
vn -0.9473 -0.3203 0
vn -1 0 0
vn -0.9163 0.0033 -0.4004
vn -0.4434 0.8963 0
vn -0.4484 0.8877 -0.1047
vn -0.8738 -0.3895 -0.2912
vn -0.9543 -0.2989 0
vn -0.9826 -0.1858 0
vn -0.9078 -0.2348 -0.3474
vn -0.7353 0.3179 -0.5986
vn -0.7508 -0.2505 -0.6112
vn -0.7058 -0.4145 -0.5745
vn -0.7473 -0.2677 -0.6082
vn -0.506 -0.7578 -0.4119
vn -0.2665 0.9391 -0.2168
vn -0.5004 0.764 -0.4073
vn -0.6985 -0.4346 -0.5686
vn -0.5393 0.7187 -0.439
vn -0.2354 -0.9529 -0.1915
vn -0.4487 -0.8156 -0.3652
vn -0 1 0
vn -0.3714 0.3626 -0.8548
vn -0.4078 -0.254 -0.877
vn 0 -0.2005 -0.9797
vn 0 0.2858 -0.9583
vn -0.138 -0.924 -0.3565
vn -0.2667 -0.8177 -0.5102
vn 0 -0.7505 -0.6609
vn -0 -0.9355 -0.3532
vn 0 0.6437 -0.7653
vn -0.3173 0.7224 -0.6144
vn -0.3557 -0.462 -0.8125
vn -0.2995 -0.7604 -0.5763
vn 0 -0.6841 -0.7294
vn 0 -0.3678 -0.9299
vn -0.1562 0.9026 -0.401
vn -0 0.9176 -0.3974
vn -0 0.6841 -0.7294
vn -0.2992 0.7642 -0.5713
vn -0.3735 -0.4407 -0.8162
vn -0.4272 -0.251 -0.8686
vn 0 -0.2226 -0.9749
vn 0 -0.3584 -0.9336
f 49/1/1 50/2/1 3/3/1
f 49/1/1 3/3/1 4/4/1
f 51/5/2 3/3/2 50/2/2
f 52/6/1 4/4/1 3/3/1
f 52/6/1 3/3/1 53/7/1
f 51/5/1 53/7/1 3/3/1
f 8/8/3 9/9/4 10/10/5
f 8/8/3 10/10/5 11/11/6
f 2/12/7 1/13/8 12/14/9
f 2/12/7 12/14/9 13/15/10
f 8/8/3 13/16/10 12/17/9
f 8/8/3 12/17/9 9/9/4
f 14/18/11 15/19/12 16/20/13
f 14/18/11 16/20/13 17/21/14
f 16/20/13 18/22/15 19/23/16
f 16/20/13 19/23/16 17/21/14
f 20/24/17 21/25/18 22/26/19
f 20/24/17 22/26/19 23/27/20
f 11/11/6 10/10/5 21/25/18
f 11/11/6 21/25/18 20/24/17
f 24/28/21 8/29/3 11/30/6
f 24/28/21 11/30/6 25/31/22
f 14/32/11 26/33/23 27/34/24
f 14/32/11 27/34/24 23/35/20
f 17/36/14 54/37/25 26/33/23
f 17/36/14 26/33/23 14/32/11
f 17/36/14 19/38/16 29/39/26
f 17/36/14 29/39/26 28/40/27
f 23/35/20 27/34/24 30/41/28
f 23/35/20 30/41/28 20/42/17
f 20/42/17 30/41/28 25/31/22
f 20/42/17 25/31/22 11/30/6
f 14/18/11 23/27/20 22/26/19
f 14/18/11 22/26/19 15/19/12
f 13/43/10 8/29/3 24/28/21
f 13/43/10 24/28/21 55/44/29
f 5/45/30 2/46/7 13/47/10
f 5/45/30 13/47/10 31/48/31
f 29/49/26 19/50/16 18/51/15
f 29/49/26 18/51/15 32/52/32
f 33/53/33 34/54/34 35/55/35
f 33/53/33 35/55/35 36/56/36
f 7/57/37 56/58/38 57/59/39
f 7/57/37 57/59/39 6/60/40
f 33/53/33 36/56/36 38/61/41
f 33/53/33 38/61/41 37/62/42
f 39/63/43 58/64/44 59/65/45
f 39/63/43 59/65/45 42/66/46
f 43/67/47 44/68/48 41/69/49
f 43/67/47 41/69/49 40/70/50
f 45/71/51 46/72/52 47/73/53
f 45/71/51 47/73/53 48/74/54
f 34/54/34 45/71/51 48/74/54
f 34/54/34 48/74/54 35/55/35
f 33/75/33 24/28/21 25/31/22
f 33/75/33 25/31/22 34/76/34
f 27/34/24 26/33/23 39/77/43
f 27/34/24 39/77/43 46/78/52
f 39/77/43 26/33/23 54/37/25
f 39/77/43 54/37/25 58/79/44
f 28/40/27 29/39/26 43/80/47
f 28/40/27 43/80/47 40/81/50
f 45/82/51 30/41/28 27/34/24
f 45/82/51 27/34/24 46/78/52
f 34/76/34 25/31/22 30/41/28
f 34/76/34 30/41/28 45/82/51
f 47/73/53 46/72/52 39/63/43
f 47/73/53 39/63/43 42/66/46
f 33/75/33 37/83/42 55/44/29
f 33/75/33 55/44/29 24/28/21
f 31/48/31 56/84/38 7/85/37
f 31/48/31 7/85/37 5/45/30
f 44/86/48 43/87/47 29/49/26
f 44/86/48 29/49/26 32/52/32
