o sponza_12
v 52.867 22.0997 24.457
v 52.867 22.0997 16.7692
v 45.1916 22.0997 16.7692
v 45.1916 22.0997 24.457
v 52.867 20.7888 24.457
v 52.867 21.2978 24.457
v 45.1916 21.2978 24.457
v 45.1916 20.7888 24.457
v 52.867 20.7888 16.7692
v 52.867 21.2978 16.7692
v 45.1916 20.7888 16.7692
v 45.1916 21.2978 16.7692
v 45.4103 20.4087 16.9882
v 45.4103 20.4087 24.238
v 52.6483 20.4087 16.9882
v 52.6483 20.4087 24.238
v 45.963 20.1172 17.5418
v 45.963 20.1172 23.6844
v 52.0957 20.1172 17.5418
v 52.0957 20.1172 23.6844
v 50.1184 -0.246079 18.0071
v 50.1184 18.6651 18.0071
v 51.6291 18.6651 19.5178
v 51.6291 -0.246079 19.5178
v 47.9819 -0.246079 18.0071
v 47.9819 18.6651 18.0071
v 46.4713 -0.246079 19.5178
v 46.4713 18.6651 19.5178
v 46.4713 -0.246081 21.6543
v 46.4713 18.6651 21.6543
v 47.9819 -0.246082 23.165
v 47.9819 18.6651 23.165
v 50.1184 -0.246082 23.165
v 50.1184 18.6651 23.165
v 51.6291 -0.246081 21.6543
v 51.6291 18.6651 21.6543
v 50.1184 19.1226 18.0071
v 50.1836 19.25 17.8497
v 51.7865 19.25 19.4526
v 51.6291 19.1226 19.5178
v 47.9819 19.1226 18.0071
v 47.9167 19.25 17.8497
v 46.4713 19.1226 19.5178
v 46.3138 19.25 19.4526
v 46.4713 19.1226 21.6543
v 46.3138 19.25 21.7195
v 47.9819 19.1226 23.165
v 47.9167 19.25 23.3224
v 50.1184 19.1226 23.165
v 50.1836 19.25 23.3224
v 51.6291 19.1226 21.6543
v 51.7865 19.25 21.7195
v 50.1385 19.6322 17.9586
v 50.2114 19.926 17.7826
v 51.8536 19.926 19.4248
v 51.6776 19.6322 19.4977
v 47.9619 19.6322 17.9586
v 47.8889 19.926 17.7826
v 46.4227 19.6322 19.4977
v 46.2467 19.926 19.4248
v 46.4227 19.6322 21.6744
v 46.2467 19.926 21.7473
v 47.9619 19.6322 23.2135
v 47.8889 19.926 23.3895
v 50.1385 19.6322 23.2135
v 50.2114 19.926 23.3895
v 51.6776 19.6322 21.6744
v 51.8536 19.926 21.7473
v 50.2217 18.8939 17.7576
v 51.8786 18.8939 19.4145
v 47.8786 18.8939 17.7576
v 46.2217 18.8939 19.4145
v 46.2217 18.8939 21.7576
v 47.8786 18.8939 23.4145
v 50.2217 18.8939 23.4145
v 51.8786 18.8939 21.7576
v 51.6914 19.3774 19.492
v 50.1442 19.3774 17.9448
v 47.9561 19.3774 17.9448
v 46.4088 19.3774 19.492
v 46.4088 19.3774 21.6801
v 47.9561 19.3774 23.2273
v 50.1442 19.3774 23.2273
v 51.6914 19.3774 21.6801
v 52.7742 21.2978 24.3641
v 52.7742 21.5209 24.3641
v 45.2845 21.5209 24.3641
v 45.2845 21.2978 24.3641
v 52.7742 21.2978 16.862
v 52.7742 21.5209 16.862
v 45.2845 21.2978 16.862
v 45.2845 21.5209 16.862
v 45.1916 21.5209 24.457
v 52.867 21.5209 24.457
v 52.867 21.5209 16.7692
v 45.1916 21.5209 16.7692
v 52.867 22.0997 24.457
v 52.867 22.0997 24.457
v 52.867 22.0997 16.7692
v 52.867 22.0997 16.7692
v 45.1916 22.0997 16.7692
v 45.1916 22.0997 16.7692
v 45.1916 22.0997 24.457
v 45.1916 22.0997 24.457
v 52.867 21.2978 24.457
v 52.867 21.2978 24.457
v 45.1916 21.2978 24.457
v 45.1916 21.2978 24.457
v 52.867 21.2978 16.7692
v 52.867 21.2978 16.7692
v 45.1916 21.2978 16.7692
v 45.1916 21.2978 16.7692
v 50.1836 19.25 17.8497
v 51.7865 19.25 19.4526
v 50.1184 19.1226 18.0071
v 51.6291 19.1226 19.5178
v 47.9167 19.25 17.8497
v 47.9819 19.1226 18.0071
v 46.3138 19.25 19.4526
v 46.4713 19.1226 19.5178
v 46.3138 19.25 21.7195
v 46.4713 19.1226 21.6543
v 47.9167 19.25 23.3224
v 47.9819 19.1226 23.165
v 50.1836 19.25 23.3224
v 50.1184 19.1226 23.165
v 51.7865 19.25 21.7195
v 51.6291 19.1226 21.6543
v 50.2217 18.8939 17.7576
v 51.8786 18.8939 19.4145
v 47.8786 18.8939 17.7576
v 46.2217 18.8939 19.4145
v 46.2217 18.8939 21.7576
v 47.8786 18.8939 23.4145
v 50.2217 18.8939 23.4145
v 51.8786 18.8939 21.7576
v 52.7742 21.2978 24.3641
v 52.7742 21.2978 24.3641
v 52.7742 21.5209 24.3641
v 52.7742 21.5209 24.3641
v 45.2845 21.5209 24.3641
v 45.2845 21.5209 24.3641
v 45.2845 21.2978 24.3641
v 45.2845 21.2978 24.3641
v 52.7742 21.2978 16.862
v 52.7742 21.2978 16.862
v 52.7742 21.5209 16.862
v 52.7742 21.5209 16.862
v 45.2845 21.2978 16.862
v 45.2845 21.2978 16.862
v 45.2845 21.5209 16.862
v 45.2845 21.5209 16.862
v 45.1916 21.5209 24.457
v 45.1916 21.5209 24.457
v 52.867 21.5209 24.457
v 52.867 21.5209 24.457
v 52.867 21.5209 16.7692
v 52.867 21.5209 16.7692
v 45.1916 21.5209 16.7692
v 45.1916 21.5209 16.7692
vt 0.1052 0.7136
vt 0.2969 0.7136
vt 0.2969 0.905
vt 0.1052 0.905
vt 0.0579 0.2559
vt 0.0419 0.2559
vt 0.0419 0.0149
vt 0.0579 0.0149
vt 0.0577 0.4944
vt 0.0419 0.4944
vt 0.0419 0.2559
vt 0.0577 0.7325
vt 0.0419 0.7325
vt 0.0419 0.4944
vt 0.0579 0.974
vt 0.0419 0.974
vt 0.0419 0.7325
vt 0.0698 0.7394
vt 0.0698 0.9671
vt 0.0694 0.5012
vt 0.0694 0.7257
vt 0.0694 0.2627
vt 0.0694 0.4876
vt 0.0698 0.0217
vt 0.0698 0.2491
vt 0.0871 0.7568
vt 0.0871 0.9497
vt 0.0866 0.5183
vt 0.0866 0.7086
vt 0.0866 0.2799
vt 0.0866 0.4704
vt 0.0872 0.0391
vt 0.0872 0.2317
vt 0.8927 0.0086
vt 0.8927 0.9003
vt 0.8215 0.9003
vt 0.8215 0.0086
vt 0.9935 0.0086
vt 0.9935 0.9003
vt 0.3768 0.0086
vt 0.3768 0.9003
vt 0.3056 0.9003
vt 0.3056 0.0086
vt 0.4775 0.0086
vt 0.4775 0.9003
vt 0.5488 0.0086
vt 0.5488 0.9003
vt 0.6495 0.0086
vt 0.6495 0.9003
vt 0.7207 0.0086
vt 0.7207 0.9003
vt 0.2428 0.9414
vt 0.2428 0.9493
vt 0.1356 0.9493
vt 0.1356 0.9414
vt 0.35 0.9414
vt 0.35 0.9493
vt 0.4571 0.9414
vt 0.4571 0.9493
vt 0.5643 0.9414
vt 0.5643 0.9493
vt 0.6715 0.9414
vt 0.6715 0.9493
vt 0.7787 0.9414
vt 0.7787 0.9493
vt 0.8859 0.9414
vt 0.8859 0.9493
vt 0.9931 0.9414
vt 0.9931 0.9493
vt 0.2428 0.9727
vt 0.2428 0.9908
vt 0.1356 0.9908
vt 0.1356 0.9727
vt 0.35 0.9727
vt 0.35 0.9908
vt 0.4571 0.9727
vt 0.4571 0.9908
vt 0.5643 0.9727
vt 0.5643 0.9908
vt 0.6715 0.9727
vt 0.6715 0.9908
vt 0.7787 0.9727
vt 0.7787 0.9908
vt 0.8859 0.9727
vt 0.8859 0.9908
vt 0.9931 0.9727
vt 0.9931 0.9908
vt 0.0941 0.5768
vt 0.0941 0.6488
vt 0.145 0.5258
vt 0.0941 0.34
vt 0.0941 0.412
vt 0.0964 0.1725
vt 0.148 0.2241
vt 0.0964 0.0996
vt 0.148 0.048
vt 0.0961 0.8159
vt 0.0961 0.8889
vt 0.145 0.6998
vt 0.2428 0.9274
vt 0.1356 0.9274
vt 0.1356 0.9133
vt 0.2428 0.9133
vt 0.35 0.9274
vt 0.35 0.9133
vt 0.4571 0.9274
vt 0.4571 0.9133
vt 0.5643 0.9274
vt 0.5643 0.9133
vt 0.6715 0.9274
vt 0.6715 0.9133
vt 0.7787 0.9274
vt 0.7787 0.9133
vt 0.8859 0.9274
vt 0.8859 0.9133
vt 0.9931 0.9274
vt 0.9931 0.9133
vt 0.2428 0.9414
vt 0.1356 0.9414
vt 0.1356 0.9274
vt 0.2428 0.9274
vt 0.35 0.9414
vt 0.35 0.9274
vt 0.4571 0.9414
vt 0.4571 0.9274
vt 0.5643 0.9414
vt 0.5643 0.9274
vt 0.6715 0.9414
vt 0.6715 0.9274
vt 0.7787 0.9414
vt 0.7787 0.9274
vt 0.8859 0.9414
vt 0.8859 0.9274
vt 0.9931 0.9414
vt 0.9931 0.9274
vt 0.1356 0.9571
vt 0.2428 0.9571
vt 0.35 0.9571
vt 0.4571 0.9571
vt 0.5643 0.9571
vt 0.6715 0.9571
vt 0.7787 0.9571
vt 0.8859 0.9571
vt 0.9931 0.9571
vt 0.1356 0.9493
vt 0.2428 0.9493
vt 0.35 0.9493
vt 0.4571 0.9493
vt 0.5643 0.9493
vt 0.6715 0.9493
vt 0.7787 0.9493
vt 0.8859 0.9493
vt 0.9931 0.9493
vt 0.0389 0.2559
vt 0.0318 0.2559
vt 0.0318 0.0178
vt 0.0389 0.0178
vt 0.0389 0.4944
vt 0.0318 0.4944
vt 0.0318 0.2559
vt 0.0389 0.2559
vt 0.0389 0.7325
vt 0.0318 0.7325
vt 0.0318 0.4944
vt 0.0389 0.4944
vt 0.0389 0.971
vt 0.0318 0.971
vt 0.0318 0.7325
vt 0.0389 0.7325
vt 0.0059 0.7385
vt 0.0059 0.4945
vt 0.0243 0.4945
vt 0.0243 0.7385
vt 0.0059 0.9829
vt 0.0059 0.7385
vt 0.0243 0.7385
vt 0.0243 0.9829
vt 0.0059 0.2501
vt 0.0059 0.0061
vt 0.0243 0.0061
vt 0.0243 0.2501
vt 0.0059 0.4945
vt 0.0059 0.2501
vt 0.0243 0.2501
vt 0.0243 0.4945
vt 0.0419 0.2559
vt 0.0389 0.2559
vt 0.0389 0.0178
vt 0.0419 0.0149
vt 0.0419 0.4944
vt 0.0389 0.4944
vt 0.0419 0.7325
vt 0.0389 0.7325
vt 0.0419 0.974
vt 0.0389 0.971
vt 0.0243 0.4945
vt 0.0272 0.4974
vt 0.0272 0.7355
vt 0.0243 0.7385
vt 0.0243 0.2501
vt 0.0272 0.253
vt 0.0272 0.4915
vt 0.0243 0.0061
vt 0.0272 0.009
vt 0.0272 0.2471
vt 0.0272 0.7414
vt 0.0272 0.9799
vt 0.0243 0.9829
vn 0 1 0
vn 0.6756 -0.2951 0.6757
vn 0 0 1
vn -0.6756 -0.2951 0.6756
vn 0.6756 -0.2951 -0.6757
vn 1 0 0
vn -0.6756 -0.2951 -0.6756
vn 0 0 -1
vn -1 0 0
vn -0.4627 -0.7564 -0.4624
vn -0.4627 -0.7564 0.4624
vn 0.4627 -0.7564 -0.4624
vn 0.4627 -0.7564 0.4624
vn -0.2177 -0.9516 -0.217
vn -0.2165 -0.952 0.2162
vn 0.2183 -0.9512 -0.218
vn 0.2171 -0.9517 0.2172
vn 0.3827 0 -0.9239
vn 0.3387 -0.4655 -0.8177
vn 0.8177 -0.4655 -0.3387
vn 0.9239 0 -0.3827
vn -0.3827 0 -0.9239
vn -0.3387 -0.4655 -0.8177
vn -0.9239 0 -0.3827
vn -0.8177 -0.4655 -0.3387
vn -0.9239 -0 0.3827
vn -0.8177 -0.4655 0.3387
vn -0.3827 -0 0.9239
vn -0.3387 -0.4655 0.8177
vn 0.3827 -0 0.9239
vn 0.3387 -0.4655 0.8177
vn 0.9239 -0 0.3827
vn 0.8177 -0.4655 0.3387
vn 0.2291 -0.8009 -0.5532
vn 0.5532 -0.8009 -0.2291
vn -0.2292 -0.8009 -0.5532
vn -0.2291 -0.8009 -0.5532
vn -0.5532 -0.801 -0.2291
vn -0.5531 -0.801 -0.2291
vn -0.5532 -0.8009 0.2291
vn -0.2291 -0.8009 0.5532
vn 0.2291 -0.8009 0.5532
vn 0.5532 -0.8009 0.2291
vn 0.3678 -0.2764 -0.8879
vn 0.1476 -0.7551 -0.6388
vn 0.6379 -0.7559 -0.1476
vn 0.8879 -0.2764 -0.3678
vn -0.3678 -0.2764 -0.8879
vn -0.1473 -0.7551 -0.6389
vn -0.8879 -0.2764 -0.3678
vn -0.6079 -0.7801 -0.1479
vn -0.8879 -0.2764 0.3678
vn -0.608 -0.7801 0.1475
vn -0.3678 -0.2764 0.8879
vn -0.1477 -0.7856 0.6008
vn 0.3678 -0.2764 0.8879
vn 0.148 -0.7856 0.6007
vn 0.8879 -0.2764 0.3678
vn 0.6379 -0.7559 0.1472
vn 0.2473 -0.7631 -0.5971
vn 0.5971 -0.7631 -0.2473
vn -0.2473 -0.7631 -0.5971
vn -0.5971 -0.7631 -0.2473
vn -0.5971 -0.7631 0.2473
vn -0.2473 -0.7631 0.5971
vn 0.2473 -0.7631 0.5971
vn 0.5971 -0.7631 0.2473
vn 0.2473 0.7631 -0.5971
vn 0.5971 0.7631 -0.2473
vn -0.2473 0.7631 -0.5971
vn -0.5971 0.7631 -0.2473
vn -0.5971 0.7631 0.2473
vn -0.2473 0.7631 0.5971
vn 0.2473 0.7631 0.5971
vn 0.5971 0.7631 0.2473
vn 0.8513 0.3886 -0.3526
vn 0.3526 0.3886 -0.8513
vn -0.3526 0.3887 -0.8512
vn -0.8513 0.3886 -0.3526
vn -0.8513 0.3886 0.3526
vn -0.3526 0.3886 0.8512
vn 0.3526 0.3886 0.8512
vn 0.8512 0.3887 0.3526
vn 0.7187 0.6284 -0.2977
vn 0.2977 0.6283 -0.7187
vn -0.2977 0.6284 -0.7187
vn -0.7188 0.6283 -0.2977
vn -0.7188 0.6283 0.2977
vn -0.2977 0.6283 0.7187
vn 0.2977 0.6283 0.7187
vn 0.7187 0.6284 0.2977
vn -0 -1 -0
f 97/1/1 99/2/1 101/3/1
f 97/1/1 101/3/1 103/4/1
f 5/5/2 105/6/3 107/7/3
f 5/5/2 107/7/3 8/8/4
f 9/9/5 109/10/6 106/11/6
f 9/9/5 106/11/6 5/5/2
f 11/12/7 111/13/8 110/14/8
f 11/12/7 110/14/8 9/9/5
f 8/15/4 108/16/9 112/17/9
f 8/15/4 112/17/9 11/12/7
f 11/12/7 13/18/10 14/19/11
f 11/12/7 14/19/11 8/15/4
f 9/9/5 15/20/12 13/21/10
f 9/9/5 13/21/10 11/12/7
f 5/5/2 16/22/13 15/23/12
f 5/5/2 15/23/12 9/9/5
f 8/8/4 14/24/11 16/25/13
f 8/8/4 16/25/13 5/5/2
f 17/26/14 18/27/15 14/19/11
f 17/26/14 14/19/11 13/18/10
f 19/28/16 17/29/14 13/21/10
f 19/28/16 13/21/10 15/20/12
f 20/30/17 19/31/16 15/23/12
f 20/30/17 15/23/12 16/22/13
f 18/32/15 20/33/17 16/25/13
f 18/32/15 16/25/13 14/24/11
f 21/34/18 22/35/19 23/36/20
f 21/34/18 23/36/20 24/37/21
f 25/38/22 26/39/23 22/35/19
f 25/38/22 22/35/19 21/34/18
f 27/40/24 28/41/25 26/42/23
f 27/40/24 26/42/23 25/43/22
f 29/44/26 30/45/27 28/41/25
f 29/44/26 28/41/25 27/40/24
f 31/46/28 32/47/29 30/45/27
f 31/46/28 30/45/27 29/44/26
f 33/48/30 34/49/31 32/47/29
f 33/48/30 32/47/29 31/46/28
f 35/50/32 36/51/33 34/49/31
f 35/50/32 34/49/31 33/48/30
f 24/37/21 23/36/20 36/51/33
f 24/37/21 36/51/33 35/50/32
f 115/52/34 113/53/34 114/54/35
f 115/52/34 114/54/35 116/55/35
f 118/56/36 117/57/37 113/53/34
f 118/56/36 113/53/34 115/52/34
f 120/58/38 119/59/39 117/57/37
f 120/58/38 117/57/37 118/56/36
f 122/60/40 121/61/40 119/59/39
f 122/60/40 119/59/39 120/58/38
f 124/62/41 123/63/41 121/61/40
f 124/62/41 121/61/40 122/60/40
f 126/64/42 125/65/42 123/63/41
f 126/64/42 123/63/41 124/62/41
f 128/66/43 127/67/43 125/65/42
f 128/66/43 125/65/42 126/64/42
f 116/68/35 114/69/35 127/67/43
f 116/68/35 127/67/43 128/66/43
f 53/70/44 54/71/45 55/72/46
f 53/70/44 55/72/46 56/73/47
f 57/74/48 58/75/49 54/71/45
f 57/74/48 54/71/45 53/70/44
f 59/76/50 60/77/51 58/75/49
f 59/76/50 58/75/49 57/74/48
f 61/78/52 62/79/53 60/77/51
f 61/78/52 60/77/51 59/76/50
f 63/80/54 64/81/55 62/79/53
f 63/80/54 62/79/53 61/78/52
f 65/82/56 66/83/57 64/81/55
f 65/82/56 64/81/55 63/80/54
f 67/84/58 68/85/59 66/83/57
f 67/84/58 66/83/57 65/82/56
f 56/86/47 55/87/46 68/85/59
f 56/86/47 68/85/59 67/84/58
f 19/28/16 54/88/45 58/89/49
f 19/28/16 58/89/49 17/29/14
f 19/28/16 55/90/46 54/88/45
f 19/31/16 20/30/17 68/91/59
f 19/31/16 68/91/59 55/92/46
f 20/33/17 66/93/57 68/94/59
f 20/33/17 18/32/15 64/95/55
f 20/33/17 64/95/55 66/93/57
f 18/32/15 62/96/53 64/95/55
f 17/26/14 60/97/51 62/98/53
f 17/26/14 62/98/53 18/27/15
f 17/29/14 58/89/49 60/99/51
f 129/100/60 130/101/61 23/102/20
f 129/100/60 23/102/20 22/103/19
f 131/104/62 129/100/60 22/103/19
f 131/104/62 22/103/19 26/105/23
f 132/106/63 131/104/62 26/105/23
f 132/106/63 26/105/23 28/107/25
f 133/108/64 132/106/63 28/107/25
f 133/108/64 28/107/25 30/109/27
f 134/110/65 133/108/64 30/109/27
f 134/110/65 30/109/27 32/111/29
f 135/112/66 134/110/65 32/111/29
f 135/112/66 32/111/29 34/113/31
f 136/114/67 135/112/66 34/113/31
f 136/114/67 34/113/31 36/115/33
f 130/116/61 136/114/67 36/115/33
f 130/116/61 36/115/33 23/117/20
f 37/118/68 40/119/69 70/120/69
f 37/118/68 70/120/69 69/121/68
f 41/122/70 37/118/68 69/121/68
f 41/122/70 69/121/68 71/123/70
f 43/124/71 41/122/70 71/123/70
f 43/124/71 71/123/70 72/125/71
f 45/126/72 43/124/71 72/125/71
f 45/126/72 72/125/71 73/127/72
f 47/128/73 45/126/72 73/127/72
f 47/128/73 73/127/72 74/129/73
f 49/130/74 47/128/73 74/129/73
f 49/130/74 74/129/73 75/131/74
f 51/132/75 49/130/74 75/131/74
f 51/132/75 75/131/74 76/133/75
f 40/134/69 51/132/75 76/133/75
f 40/134/69 76/133/75 70/135/69
f 53/70/44 56/73/47 77/136/76
f 53/70/44 77/136/76 78/137/77
f 57/74/48 53/70/44 78/137/77
f 57/74/48 78/137/77 79/138/78
f 59/76/50 57/74/48 79/138/78
f 59/76/50 79/138/78 80/139/79
f 61/78/52 59/76/50 80/139/79
f 61/78/52 80/139/79 81/140/80
f 63/80/54 61/78/52 81/140/80
f 63/80/54 81/140/80 82/141/81
f 65/82/56 63/80/54 82/141/81
f 65/82/56 82/141/81 83/142/82
f 67/84/58 65/82/56 83/142/82
f 67/84/58 83/142/82 84/143/83
f 56/86/47 67/84/58 84/143/83
f 56/86/47 84/143/83 77/144/76
f 78/137/77 77/136/76 39/145/84
f 78/137/77 39/145/84 38/146/85
f 79/138/78 78/137/77 38/146/85
f 79/138/78 38/146/85 42/147/86
f 80/139/79 79/138/78 42/147/86
f 80/139/79 42/147/86 44/148/87
f 81/140/80 80/139/79 44/148/87
f 81/140/80 44/148/87 46/149/88
f 82/141/81 81/140/80 46/149/88
f 82/141/81 46/149/88 48/150/89
f 83/142/82 82/141/81 48/150/89
f 83/142/82 48/150/89 50/151/90
f 84/143/83 83/142/82 50/151/90
f 84/143/83 50/151/90 52/152/91
f 77/144/76 84/143/83 52/152/91
f 77/144/76 52/152/91 39/153/84
f 137/154/3 139/155/3 141/156/3
f 137/154/3 141/156/3 143/157/3
f 145/158/6 147/159/6 140/160/6
f 145/158/6 140/160/6 138/161/6
f 149/162/8 151/163/8 148/164/8
f 149/162/8 148/164/8 146/165/8
f 144/166/9 142/167/9 152/168/9
f 144/166/9 152/168/9 150/169/9
f 98/170/3 104/171/3 153/172/3
f 98/170/3 153/172/3 155/173/3
f 100/174/6 1/175/6 156/176/6
f 100/174/6 156/176/6 157/177/6
f 102/178/8 2/179/8 158/180/8
f 102/178/8 158/180/8 159/181/8
f 4/182/9 3/183/9 160/184/9
f 4/182/9 160/184/9 154/185/9
f 6/186/1 85/187/1 88/188/1
f 6/186/1 88/188/1 7/189/1
f 10/190/1 89/191/1 85/187/1
f 10/190/1 85/187/1 6/186/1
f 12/192/1 91/193/1 89/191/1
f 12/192/1 89/191/1 10/190/1
f 7/194/1 88/195/1 91/193/1
f 7/194/1 91/193/1 12/192/1
f 93/196/92 87/197/92 86/198/92
f 93/196/92 86/198/92 94/199/92
f 96/200/92 92/201/92 87/202/92
f 96/200/92 87/202/92 93/196/92
f 95/203/92 90/204/92 92/205/92
f 95/203/92 92/205/92 96/200/92
f 94/199/92 86/206/92 90/207/92
f 94/199/92 90/207/92 95/208/92
