o sponza_190
v -45.3454 51.7402 -29.9671
v -45.371 51.6433 -29.9926
v -45.371 51.6433 -26.0097
v -45.3454 51.7402 -26.0352
v -45.3454 51.7402 -26.0352
v -45.371 51.6433 -26.0097
v -45.3315 51.6433 -25.9702
v -45.306 51.7402 -25.9958
v -45.7209 51.1885 -25.6597
v -45.8886 51.0635 -25.492
v -45.8491 51.0635 -25.4525
v -45.6814 51.1885 -25.6203
v -45.4162 51.484 -25.8855
v -45.3622 51.5709 -25.9395
v -45.4016 51.5709 -25.979
v -45.4557 51.484 -25.925
v -45.5422 51.368 -25.8384
v -45.6209 51.2804 -25.7597
v -45.5814 51.2804 -25.7203
v -45.5028 51.368 -25.7989
v -45.5422 51.368 -30.1639
v -45.6209 51.2804 -30.2425
v -45.5422 51.368 -25.8384
v -45.4016 51.5709 -30.0233
v -45.4016 51.5709 -25.979
v -45.3454 51.7402 -29.9671
v -45.306 51.7402 -30.0065
v -45.3315 51.6433 -30.0321
v -45.371 51.6433 -29.9926
v -45.8491 51.0635 -30.5498
v -45.8886 51.0635 -30.5103
v -45.7209 51.1886 -30.3425
v -45.6814 51.1886 -30.382
v -45.4016 51.5709 -30.0233
v -45.3622 51.5709 -30.0627
v -45.4162 51.484 -30.1167
v -45.4557 51.484 -30.0773
v -45.5814 51.2804 -30.282
v -45.6209 51.2804 -30.2425
v -45.5422 51.368 -30.1639
v -45.5028 51.368 -30.2033
v -40.8318 51.0635 -30.5498
v -40.9996 51.1886 -30.382
v -41.2648 51.484 -30.1167
v -45.4162 51.484 -30.1167
v -45.3622 51.5709 -30.0627
v -41.3188 51.5709 -30.0627
v -45.5028 51.368 -30.2033
v -41.1782 51.368 -30.2033
v -41.0996 51.2804 -30.282
v -45.3315 51.6433 -30.0321
v -41.3494 51.6433 -30.0321
v -41.3355 51.7402 -29.9671
v -41.31 51.6433 -29.9926
v -41.3494 51.6433 -30.0321
v -41.375 51.7402 -30.0065
v -40.9601 51.1886 -30.3425
v -40.7924 51.0635 -30.5103
v -41.2648 51.484 -30.1167
v -41.3188 51.5709 -30.0627
v -41.2793 51.5709 -30.0233
v -41.2253 51.484 -30.0773
v -41.1387 51.368 -30.1639
v -41.0601 51.2804 -30.2425
v -41.1782 51.368 -30.2033
v -45.306 51.7402 -30.0065
v -41.375 51.7402 -30.0065
v -45.7209 51.1886 -30.3425
v -45.8886 51.0635 -30.5103
v -45.4557 51.484 -30.0773
v -45.4557 51.484 -25.925
v -45.8886 51.0635 -25.492
v -45.8886 50.9806 -25.492
v -45.8491 50.9806 -25.4525
v -45.8491 51.0635 -25.4525
v -45.8886 50.9806 -30.5103
v -45.8886 50.9806 -25.492
v -45.8886 51.0635 -25.492
v -45.8886 51.0635 -30.5103
v -40.8318 51.0635 -30.5498
v -40.8318 50.9806 -30.5498
v -45.8491 50.9806 -30.5498
v -45.8491 51.0635 -30.5498
v -45.8491 51.0635 -30.5498
v -45.8491 50.9806 -30.5498
v -45.8886 50.9806 -30.5103
v -45.8886 51.0635 -30.5103
v -40.7924 51.0635 -30.5103
v -40.7924 50.9806 -30.5103
v -40.8318 50.9806 -30.5498
v -40.8318 51.0635 -30.5498
v -45.8886 50.9806 -25.492
v -46.0875 50.9806 -25.2961
v -46.0449 50.9806 -25.2536
v -45.8491 50.9806 -25.4525
v -45.8886 50.9806 -30.5103
v -46.0875 50.9806 -30.7062
v -40.8318 50.9806 -30.5498
v -40.636 50.9806 -30.7487
v -46.0449 50.9806 -30.7487
v -45.8491 50.9806 -30.5498
v -46.0875 50.9806 -30.7062
v -45.8886 50.9806 -30.5103
v -40.7924 50.9806 -30.5103
v -40.5935 50.9806 -30.7062
v -46.0875 50.6634 -25.2961
v -46.0449 50.6634 -25.2536
v -46.0449 50.9806 -25.2536
v -46.0875 50.9806 -25.2961
v -46.0875 50.6634 -30.7062
v -46.0875 50.6634 -25.2961
v -46.0875 50.9806 -25.2961
v -46.0875 50.9806 -30.7062
v -40.636 50.6634 -30.7487
v -46.0449 50.6634 -30.7487
v -46.0449 50.9806 -30.7487
v -40.636 50.9806 -30.7487
v -46.0449 50.6634 -30.7487
v -46.0875 50.6634 -30.7062
v -46.0875 50.9806 -30.7062
v -46.0449 50.9806 -30.7487
v -40.5935 50.6634 -30.7062
v -40.636 50.6634 -30.7487
v -40.636 50.9806 -30.7487
v -40.5935 50.9806 -30.7062
v -41.3355 51.7402 -26.0352
v -41.31 51.6433 -26.0097
v -41.31 51.6433 -29.9926
v -41.3355 51.7402 -29.9671
v -41.1387 51.368 -25.8384
v -41.0601 51.2804 -25.7597
v -41.0601 51.2804 -30.2425
v -41.1387 51.368 -30.1639
v -41.2793 51.5709 -25.979
v -41.2793 51.5709 -30.0233
v -41.3494 51.6433 -25.9702
v -41.31 51.6433 -26.0097
v -41.3355 51.7402 -26.0352
v -41.375 51.7402 -25.9958
v -40.8318 51.0635 -25.4525
v -40.7924 51.0635 -25.492
v -40.9601 51.1885 -25.6597
v -40.9996 51.1885 -25.6203
v -41.2793 51.5709 -25.979
v -41.3188 51.5709 -25.9395
v -41.2648 51.484 -25.8855
v -41.2253 51.484 -25.925
v -41.0996 51.2804 -25.7203
v -41.0601 51.2804 -25.7597
v -41.1387 51.368 -25.8384
v -41.1782 51.368 -25.7989
v -45.8491 51.0635 -25.4525
v -45.6814 51.1885 -25.6203
v -45.4162 51.484 -25.8855
v -41.2648 51.484 -25.8855
v -41.3188 51.5709 -25.9395
v -45.3622 51.5709 -25.9395
v -41.1782 51.368 -25.7989
v -45.5028 51.368 -25.7989
v -45.5814 51.2804 -25.7203
v -41.3494 51.6433 -25.9702
v -45.3315 51.6433 -25.9702
v -41.375 51.7402 -25.9958
v -45.306 51.7402 -25.9958
v -40.9601 51.1885 -25.6597
v -40.7924 51.0635 -25.492
v -40.7924 51.0635 -30.5103
v -40.9601 51.1886 -30.3425
v -41.2253 51.484 -25.925
v -41.2253 51.484 -30.0773
v -40.7924 50.9806 -25.492
v -40.7924 50.9806 -30.5103
v -40.7924 51.0635 -30.5103
v -40.7924 51.0635 -25.492
v -45.8491 51.0635 -25.4525
v -45.8491 50.9806 -25.4525
v -40.8318 50.9806 -25.4525
v -40.8318 51.0635 -25.4525
v -40.8318 51.0635 -25.4525
v -40.8318 50.9806 -25.4525
v -40.7924 50.9806 -25.492
v -40.7924 51.0635 -25.492
v -40.7924 50.9806 -25.492
v -40.5935 50.9806 -25.2961
v -40.5935 50.9806 -30.7062
v -40.7924 50.9806 -30.5103
v -45.8491 50.9806 -25.4525
v -46.0449 50.9806 -25.2536
v -40.636 50.9806 -25.2536
v -40.8318 50.9806 -25.4525
v -40.5935 50.9806 -25.2961
v -40.7924 50.9806 -25.492
v -40.5935 50.6634 -25.2961
v -40.5935 50.6634 -30.7062
v -40.5935 50.9806 -30.7062
v -40.5935 50.9806 -25.2961
v -46.0449 50.6634 -25.2536
v -40.636 50.6634 -25.2536
v -40.636 50.9806 -25.2536
v -46.0449 50.9806 -25.2536
v -40.636 50.6634 -25.2536
v -40.5935 50.6634 -25.2961
v -40.5935 50.9806 -25.2961
v -40.636 50.9806 -25.2536
v -41.3355 51.7402 -29.9671
v -41.375 51.7402 -30.0065
v -41.375 51.7402 -25.9958
v -41.3355 51.7402 -26.0352
v -45.3454 51.7402 -26.0352
v -45.306 51.7402 -25.9958
v -45.306 51.7402 -30.0065
v -45.3454 51.7402 -29.9671
vt 0.2734 0.7237
vt 0.2788 0.7224
vt 0.2788 0.949
vt 0.2733 0.9476
vt 0.2733 0.9476
vt 0.2788 0.949
vt 0.2778 0.9519
vt 0.2712 0.9499
vt 0.3052 0.9689
vt 0.3147 0.9785
vt 0.3144 0.9807
vt 0.3029 0.9712
vt 0.286 0.9566
vt 0.2816 0.9534
vt 0.2829 0.9508
vt 0.2879 0.9539
vt 0.2945 0.9588
vt 0.2995 0.9633
vt 0.2972 0.9656
vt 0.2922 0.9615
vt 0.2945 0.7126
vt 0.2995 0.7081
vt 0.2945 0.9588
vt 0.2829 0.7206
vt 0.2829 0.9508
vt 0.2734 0.7237
vt 0.2711 0.7216
vt 0.2725 0.7161
vt 0.2755 0.7168
vt 0.302 0.6802
vt 0.3045 0.6818
vt 0.2947 0.692
vt 0.2924 0.6897
vt 0.2768 0.7135
vt 0.2743 0.7119
vt 0.2773 0.707
vt 0.2801 0.7089
vt 0.2867 0.6954
vt 0.2891 0.6976
vt 0.285 0.7026
vt 0.2823 0.7004
vt 0.0164 0.6802
vt 0.026 0.6897
vt 0.0411 0.707
vt 0.2773 0.707
vt 0.2743 0.7119
vt 0.0441 0.7119
vt 0.2823 0.7004
vt 0.0361 0.7004
vt 0.0317 0.6953
vt 0.2725 0.7161
vt 0.0459 0.7161
vt 0.0451 0.7238
vt 0.044 0.7173
vt 0.0459 0.7161
vt 0.0473 0.7216
vt 0.0237 0.692
vt 0.014 0.6812
vt 0.0411 0.707
vt 0.0441 0.7119
vt 0.0416 0.7135
vt 0.0383 0.7089
vt 0.0334 0.7026
vt 0.0293 0.6976
vt 0.0361 0.7004
vt 0.2711 0.7216
vt 0.0473 0.7216
vt 0.3052 0.7024
vt 0.3147 0.6929
vt 0.2879 0.7175
vt 0.2879 0.9539
vt 0.3147 0.9785
vt 0.3194 0.9785
vt 0.3184 0.9812
vt 0.3144 0.9807
vt 0.3194 0.6929
vt 0.3194 0.9785
vt 0.3147 0.9785
vt 0.3147 0.6929
vt 0.0164 0.6802
vt 0.0164 0.6754
vt 0.302 0.6754
vt 0.302 0.6802
vt 0.302 0.6802
vt 0.302 0.6754
vt 0.3048 0.6767
vt 0.3045 0.6818
vt 0.014 0.6812
vt 0.0138 0.6766
vt 0.0164 0.6754
vt 0.0164 0.6802
vt 0.3194 0.9785
vt 0.3307 0.9896
vt 0.3283 0.9921
vt 0.3184 0.9812
vt 0.3194 0.6929
vt 0.3307 0.6817
vt 0.0164 0.6754
vt 0.0053 0.6641
vt 0.3131 0.6641
vt 0.302 0.6754
vt 0.316 0.6653
vt 0.3048 0.6767
vt 0.0138 0.6766
vt 0.0029 0.6653
vt 0.3488 0.9896
vt 0.3488 0.9921
vt 0.3307 0.9921
vt 0.3307 0.9896
vt 0.3488 0.6817
vt 0.3488 0.9896
vt 0.3307 0.9896
vt 0.3307 0.6817
vt 0.0053 0.6461
vt 0.3131 0.6461
vt 0.3131 0.6641
vt 0.0053 0.6641
vt 0.3131 0.6461
vt 0.3155 0.6461
vt 0.316 0.6653
vt 0.3131 0.6641
vt 0.0029 0.6461
vt 0.0053 0.6461
vt 0.0053 0.6641
vt 0.0029 0.6653
vt 0.2734 0.7237
vt 0.2788 0.7224
vt 0.2788 0.949
vt 0.2733 0.9476
vt 0.2945 0.7126
vt 0.2995 0.7081
vt 0.2995 0.9633
vt 0.2945 0.9588
vt 0.2829 0.7206
vt 0.2829 0.9508
vt 0.2725 0.7161
vt 0.2755 0.7168
vt 0.2734 0.7237
vt 0.2711 0.7216
vt 0.302 0.6802
vt 0.3045 0.6818
vt 0.2947 0.692
vt 0.2924 0.6897
vt 0.2768 0.7135
vt 0.2743 0.7119
vt 0.2773 0.707
vt 0.2801 0.7089
vt 0.2867 0.6954
vt 0.2891 0.6976
vt 0.285 0.7026
vt 0.2823 0.7004
vt 0.0164 0.6802
vt 0.026 0.6897
vt 0.0411 0.707
vt 0.2773 0.707
vt 0.2743 0.7119
vt 0.0441 0.7119
vt 0.2823 0.7004
vt 0.0361 0.7004
vt 0.0317 0.6953
vt 0.2725 0.7161
vt 0.0459 0.7161
vt 0.2711 0.7216
vt 0.0473 0.7216
vt 0.3052 0.7024
vt 0.3147 0.6929
vt 0.3147 0.9785
vt 0.3052 0.9689
vt 0.2879 0.7175
vt 0.2879 0.9539
vt 0.3194 0.6929
vt 0.3194 0.9785
vt 0.3147 0.9785
vt 0.3147 0.6929
vt 0.0164 0.6802
vt 0.0164 0.6754
vt 0.302 0.6754
vt 0.302 0.6802
vt 0.302 0.6802
vt 0.302 0.6754
vt 0.3048 0.6767
vt 0.3045 0.6818
vt 0.3194 0.6929
vt 0.3307 0.6817
vt 0.3307 0.9896
vt 0.3194 0.9785
vt 0.0164 0.6754
vt 0.0053 0.6641
vt 0.3131 0.6641
vt 0.302 0.6754
vt 0.316 0.6653
vt 0.3048 0.6767
vt 0.3488 0.6817
vt 0.3488 0.9896
vt 0.3307 0.9896
vt 0.3307 0.6817
vt 0.0053 0.6461
vt 0.3131 0.6461
vt 0.3131 0.6641
vt 0.0053 0.6641
vt 0.3131 0.6461
vt 0.3155 0.6461
vt 0.316 0.6653
vt 0.3131 0.6641
vt 0.0451 0.7238
vt 0.0473 0.7216
vt 0.0473 0.9498
vt 0.0451 0.9476
vt 0.2733 0.9476
vt 0.2712 0.9499
vt 0.2711 0.7216
vt 0.2734 0.7237
vn -0.9669 0.255 0
vn -0.9419 0.3359 0
vn -0.9419 0.336 0
vn -0.9669 0.255 0
vn -0.6626 0.3495 0.6625
vn -0.6374 0.4332 0.6372
vn -0.6374 0.4333 0.6372
vn -0.6625 0.3495 0.6625
vn -0.5035 0.8445 0.1824
vn -0.4365 0.8737 0.2147
vn -0.2148 0.8737 0.4365
vn -0.1825 0.8445 0.5035
vn -0.5092 0.6939 0.5091
vn -0.5712 0.5894 0.5712
vn -0.5712 0.5894 0.5712
vn -0.5092 0.6939 0.5091
vn -0.4624 0.7566 0.4624
vn -0.575 0.7904 0.2114
vn -0.2114 0.7904 0.575
vn -0.4624 0.7566 0.4624
vn -0.7633 0.646 0
vn -0.575 0.7904 -0.2114
vn -0.7633 0.646 0
vn -0.8781 0.4784 0
vn -0.8781 0.4784 0
vn -0.6625 0.3496 -0.6625
vn -0.6624 0.3497 -0.6625
vn -0.6374 0.4332 -0.6372
vn -0.6374 0.4332 -0.6373
vn -0.2147 0.8737 -0.4364
vn -0.4365 0.8737 -0.2147
vn -0.5035 0.8445 -0.1825
vn -0.1825 0.8445 -0.5035
vn -0.5711 0.5894 -0.5713
vn -0.5712 0.5893 -0.5713
vn -0.5092 0.6939 -0.5092
vn -0.5092 0.6939 -0.5091
vn -0.2114 0.7904 -0.575
vn -0.575 0.7904 -0.2114
vn -0.4624 0.7566 -0.4624
vn -0.4624 0.7566 -0.4624
vn 0.2147 0.8738 -0.4364
vn 0.1824 0.8446 -0.5034
vn 0 0.5749 -0.8182
vn 0 0.5749 -0.8182
vn 0 0.4785 -0.8781
vn 0 0.4785 -0.8781
vn 0 0.6461 -0.7633
vn 0 0.6461 -0.7633
vn 0.2114 0.7904 -0.575
vn 0 0.336 -0.9419
vn 0 0.336 -0.9419
vn 0.6626 0.3495 -0.6625
vn 0.6373 0.4333 -0.6373
vn 0.6373 0.4333 -0.6373
vn 0.6626 0.3495 -0.6624
vn 0.5035 0.8445 -0.1824
vn 0.4365 0.8737 -0.2147
vn 0.5091 0.6939 -0.5092
vn 0.5712 0.5894 -0.5713
vn 0.5712 0.5894 -0.5713
vn 0.5091 0.6939 -0.5092
vn 0.4624 0.7566 -0.4624
vn 0.575 0.7904 -0.2114
vn 0.4623 0.7566 -0.4624
vn 0 0.2551 -0.9669
vn 0 0.2551 -0.9669
vn -0.5035 0.8445 -0.1825
vn -0.4365 0.8737 -0.2147
vn -0.8183 0.5748 0
vn -0.8183 0.5748 0
vn -0.7072 0 0.707
vn -0.7072 0 0.707
vn -0.7072 0 0.707
vn -0.7072 0 0.707
vn -1 0 0
vn -1 0 0
vn -1 0 0
vn -1 0 0
vn 0 0 -1
vn 0 0 -1
vn 0 0 -1
vn 0 0 -1
vn -0.7071 0 -0.7071
vn -0.7072 0 -0.7071
vn -0.7071 0 -0.7071
vn -0.7071 0 -0.7071
vn 0.7071 0 -0.7071
vn 0.7072 0 -0.7071
vn 0.7071 0 -0.7071
vn 0.7071 0 -0.7071
vn 0 1 -0
vn 0 1 -0
vn 0 1 -0
vn 0 1 -0
vn 0 1 -0
vn 0 1 -0
vn 0 1 -0
vn 0 1 -0
vn 0 1 -0
vn 0 1 -0
vn 0 1 -0
vn 0 1 -0
vn 0 1 -0
vn 0 1 -0
vn -0.707 0 0.7072
vn -0.707 0 0.7072
vn -0.7069 0 0.7073
vn -0.7069 0 0.7073
vn -1 0 0
vn -1 0 0
vn -1 0 0
vn -1 0 0
vn 0 0 -1
vn 0 0 -1
vn 0 0 -1
vn 0 0 -1
vn -0.707 0 -0.7072
vn -0.707 0 -0.7072
vn -0.707 0 -0.7072
vn -0.707 0 -0.7072
vn 0.7071 0 -0.7071
vn 0.7071 0 -0.7071
vn 0.7071 0 -0.7071
vn 0.7071 0 -0.7071
vn 0.9669 0.255 0
vn 0.9419 0.3358 0
vn 0.9419 0.3359 0
vn 0.9669 0.2551 0
vn 0.7634 0.646 0
vn 0.5751 0.7903 0.2114
vn 0.575 0.7904 -0.2114
vn 0.7634 0.646 0
vn 0.8781 0.4785 0
vn 0.8781 0.4785 0
vn 0.6374 0.4333 0.6372
vn 0.6374 0.4332 0.6372
vn 0.6626 0.3495 0.6624
vn 0.6626 0.3495 0.6624
vn 0.2147 0.8737 0.4364
vn 0.4365 0.8737 0.2147
vn 0.5035 0.8445 0.1824
vn 0.1824 0.8445 0.5035
vn 0.5713 0.5893 0.5712
vn 0.5713 0.5893 0.5712
vn 0.5092 0.6939 0.5091
vn 0.5091 0.694 0.5091
vn 0.2114 0.7904 0.575
vn 0.5751 0.7903 0.2114
vn 0.4623 0.7566 0.4624
vn 0.4623 0.7566 0.4624
vn -0.2148 0.8737 0.4365
vn -0.1825 0.8445 0.5035
vn 0 0.5749 0.8182
vn 0 0.5749 0.8182
vn 0 0.4785 0.8781
vn 0 0.4785 0.8781
vn 0 0.6461 0.7633
vn 0 0.6461 0.7632
vn -0.2114 0.7904 0.575
vn 0 0.336 0.9419
vn 0 0.336 0.9419
vn 0 0.255 0.9669
vn 0 0.2551 0.9669
vn 0.5035 0.8445 0.1824
vn 0.4365 0.8737 0.2147
vn 0.4365 0.8737 -0.2147
vn 0.5035 0.8445 -0.1824
vn 0.8183 0.5748 0
vn 0.8183 0.5748 0
vn 1 0 0
vn 1 0 0
vn 1 0 0
vn 1 0 0
vn 0 0 1
vn 0 0 1
vn 0 0 1
vn 0 0 1
vn 0.7072 0 0.707
vn 0.7072 0 0.707
vn 0.7072 0 0.707
vn 0.7072 0 0.707
vn 0 1 -0
vn 0 1 -0
vn 0 1 -0
vn 0 1 -0
vn 0 1 -0
vn 0 1 -0
vn 0 1 -0
vn 0 1 -0
vn 0 1 -0
vn 0 1 -0
vn 1 0 0
vn 1 0 0
vn 1 0 0
vn 1 0 0
vn 0 0 1
vn 0 0 1
vn 0 0 1
vn 0 0 1
vn 0.707 0 0.7072
vn 0.707 0 0.7072
vn 0.7071 0 0.7071
vn 0.7071 0 0.7071
vn 0 1 -0
vn 0 1 -0
vn 0 1 -0
vn 0 1 -0
vn 0 1 -0
vn 0 1 -0
vn 0 1 -0
vn 0 1 -0
f 1/1/1 2/2/2 3/3/3
f 1/1/1 3/3/3 4/4/4
f 5/5/5 6/6/6 7/7/7
f 5/5/5 7/7/7 8/8/8
f 9/9/9 10/10/10 11/11/11
f 9/9/9 11/11/11 12/12/12
f 13/13/13 14/14/14 15/15/15
f 13/13/13 15/15/15 16/16/16
f 17/17/17 18/18/18 19/19/19
f 17/17/17 19/19/19 20/20/20
f 18/18/18 9/9/9 12/12/12
f 18/18/18 12/12/12 19/19/19
f 20/20/20 13/13/13 16/16/16
f 20/20/20 16/16/16 17/17/17
f 14/14/14 7/7/7 6/6/6
f 14/14/14 6/6/6 15/15/15
f 21/21/21 22/22/22 18/18/18
f 21/21/21 18/18/18 23/23/23
f 2/2/2 24/24/24 25/25/25
f 2/2/2 25/25/25 3/3/3
f 26/26/26 27/27/27 28/28/28
f 26/26/26 28/28/28 29/29/29
f 30/30/30 31/31/31 32/32/32
f 30/30/30 32/32/32 33/33/33
f 34/34/34 35/35/35 36/36/36
f 34/34/34 36/36/36 37/37/37
f 38/38/38 39/39/39 40/40/40
f 38/38/38 40/40/40 41/41/41
f 33/33/33 32/32/32 39/39/39
f 33/33/33 39/39/39 38/38/38
f 37/37/37 36/36/36 41/41/41
f 37/37/37 41/41/41 40/40/40
f 29/29/29 28/28/28 35/35/35
f 29/29/29 35/35/35 34/34/34
f 42/42/42 30/30/30 33/33/33
f 42/42/42 33/33/33 43/43/43
f 44/44/44 45/45/45 46/46/46
f 44/44/44 46/46/46 47/47/47
f 38/38/38 48/48/48 49/49/49
f 38/38/38 49/49/49 50/50/50
f 49/49/49 48/48/48 45/45/45
f 49/49/49 45/45/45 44/44/44
f 43/43/43 33/33/33 38/38/38
f 43/43/43 38/38/38 50/50/50
f 47/47/47 46/46/46 51/51/51
f 47/47/47 51/51/51 52/52/52
f 53/53/53 54/54/54 55/55/55
f 53/53/53 55/55/55 56/56/56
f 57/57/57 58/58/58 42/42/42
f 57/57/57 42/42/42 43/43/43
f 59/59/59 60/60/60 61/61/61
f 59/59/59 61/61/61 62/62/62
f 63/63/63 64/64/64 50/50/50
f 63/63/63 50/50/50 65/65/65
f 64/64/64 57/57/57 43/43/43
f 64/64/64 43/43/43 50/50/50
f 65/65/65 59/59/59 62/62/62
f 65/65/65 62/62/62 63/63/63
f 60/60/60 55/55/55 54/54/54
f 60/60/60 54/54/54 61/61/61
f 51/51/51 66/66/66 67/67/67
f 51/51/51 67/67/67 52/52/52
f 68/68/68 69/69/69 10/10/10
f 68/68/68 10/10/10 9/9/9
f 24/24/24 70/70/70 71/71/71
f 24/24/24 71/71/71 25/25/25
f 70/70/70 21/21/21 23/23/23
f 70/70/70 23/23/23 71/71/71
f 22/22/22 68/68/68 9/9/9
f 22/22/22 9/9/9 18/18/18
f 72/72/72 73/73/73 74/74/74
f 72/72/72 74/74/74 75/75/75
f 76/76/76 77/77/77 78/78/78
f 76/76/76 78/78/78 79/79/79
f 80/80/80 81/81/81 82/82/82
f 80/80/80 82/82/82 83/83/83
f 84/84/84 85/85/85 86/86/86
f 84/84/84 86/86/86 87/87/87
f 88/88/88 89/89/89 90/90/90
f 88/88/88 90/90/90 91/91/91
f 92/92/92 93/93/93 94/94/94
f 92/92/92 94/94/94 95/95/95
f 96/96/96 97/97/97 93/93/93
f 96/96/96 93/93/93 92/92/92
f 98/98/98 99/99/99 100/100/100
f 98/98/98 100/100/100 101/101/101
f 101/101/101 100/100/100 102/102/102
f 101/101/101 102/102/102 103/103/103
f 104/104/104 105/105/105 99/99/99
f 104/104/104 99/99/99 98/98/98
f 106/106/106 107/107/107 108/108/108
f 106/106/106 108/108/108 109/109/109
f 110/110/110 111/111/111 112/112/112
f 110/110/110 112/112/112 113/113/113
f 114/114/114 115/115/115 116/116/116
f 114/114/114 116/116/116 117/117/117
f 118/118/118 119/119/119 120/120/120
f 118/118/118 120/120/120 121/121/121
f 122/122/122 123/123/123 124/124/124
f 122/122/122 124/124/124 125/125/125
f 126/126/126 127/127/127 128/128/128
f 126/126/126 128/128/128 129/129/129
f 130/130/130 131/131/131 132/132/132
f 130/130/130 132/132/132 133/133/133
f 127/127/127 134/134/134 135/135/135
f 127/127/127 135/135/135 128/128/128
f 136/136/136 137/137/137 138/138/138
f 136/136/136 138/138/138 139/139/139
f 140/140/140 141/141/141 142/142/142
f 140/140/140 142/142/142 143/143/143
f 144/144/144 145/145/145 146/146/146
f 144/144/144 146/146/146 147/147/147
f 148/148/148 149/149/149 150/150/150
f 148/148/148 150/150/150 151/151/151
f 143/143/143 142/142/142 149/149/149
f 143/143/143 149/149/149 148/148/148
f 147/147/147 146/146/146 151/151/151
f 147/147/147 151/151/151 150/150/150
f 137/137/137 136/136/136 145/145/145
f 137/137/137 145/145/145 144/144/144
f 152/152/152 140/140/140 143/143/143
f 152/152/152 143/143/143 153/153/153
f 154/154/154 155/155/155 156/156/156
f 154/154/154 156/156/156 157/157/157
f 148/148/148 158/158/158 159/159/159
f 148/148/148 159/159/159 160/160/160
f 159/159/159 158/158/158 155/155/155
f 159/159/159 155/155/155 154/154/154
f 153/153/153 143/143/143 148/148/148
f 153/153/153 148/148/148 160/160/160
f 157/157/157 156/156/156 161/161/161
f 157/157/157 161/161/161 162/162/162
f 161/161/161 163/163/163 164/164/164
f 161/161/161 164/164/164 162/162/162
f 165/165/165 166/166/166 167/167/167
f 165/165/165 167/167/167 168/168/168
f 134/134/134 169/169/169 170/170/170
f 134/134/134 170/170/170 135/135/135
f 169/169/169 130/130/130 133/133/133
f 169/169/169 133/133/133 170/170/170
f 131/131/131 165/165/165 168/168/168
f 131/131/131 168/168/168 132/132/132
f 171/171/171 172/172/172 173/173/173
f 171/171/171 173/173/173 174/174/174
f 175/175/175 176/176/176 177/177/177
f 175/175/175 177/177/177 178/178/178
f 179/179/179 180/180/180 181/181/181
f 179/179/179 181/181/181 182/182/182
f 183/183/183 184/184/184 185/185/185
f 183/183/183 185/185/185 186/186/186
f 187/187/187 188/188/188 189/189/189
f 187/187/187 189/189/189 190/190/190
f 190/190/190 189/189/189 191/191/191
f 190/190/190 191/191/191 192/192/192
f 193/193/193 194/194/194 195/195/195
f 193/193/193 195/195/195 196/196/196
f 197/197/197 198/198/198 199/199/199
f 197/197/197 199/199/199 200/200/200
f 201/201/201 202/202/202 203/203/203
f 201/201/201 203/203/203 204/204/204
f 205/205/205 206/206/206 207/207/207
f 205/205/205 207/207/207 208/208/208
f 207/207/207 206/206/206 209/209/209
f 207/207/207 209/209/209 210/210/210
f 211/211/211 212/212/212 209/209/209
f 211/211/211 209/209/209 206/206/206
