o sponza_93
v -142.478 66.0363 16.3254
v -142.478 66.0363 22.9586
v -143.031 66.0363 22.9586
v -143.031 66.0363 16.3254
v -142.403 66.0363 16.4139
v -142.403 66.0363 22.87
v -142.42 66.4232 16.2578
v -143.031 66.4232 16.2578
v -143.031 67.0696 16.1657
v -142.337 67.0696 16.1657
v -142.346 66.4232 16.3447
v -142.269 67.0696 16.2471
v -142.269 67.0696 23.0368
v -142.346 66.4232 22.9392
v -141.674 69.096 15.5463
v -141.674 69.096 23.7376
v -141.674 68.6596 23.7418
v -141.674 68.6597 15.5422
v -141.747 69.096 23.8249
v -143.031 69.096 23.8249
v -143.031 68.6596 23.8249
v -141.744 68.6596 23.8249
v -143.031 66.2298 16.0647
v -142.266 66.2298 16.0647
v -142.184 66.2298 16.1618
v -142.184 66.2298 23.1221
v -141.747 69.096 15.4591
v -143.031 69.096 15.4591
v -143.031 69.3141 15.2162
v -141.55 69.3141 15.2162
v -141.469 69.3141 15.3128
v -141.469 69.3141 23.9712
v -143.031 69.5323 15.4591
v -141.755 69.5323 15.4591
v -141.674 69.5323 15.5556
v -141.674 69.5322 23.7284
v -142.077 67.9695 15.8536
v -143.031 67.9695 15.8536
v -143.031 68.6597 15.4591
v -141.744 68.6597 15.4591
v -142.006 67.9695 15.9384
v -142.006 67.9695 23.3456
v -142.337 67.0696 23.1183
v -142.42 66.4232 23.0261
v -142.266 66.2298 23.2192
v -141.55 69.3141 24.0678
v -141.755 69.5322 23.8249
v -142.077 67.9695 23.4303
v -143.031 69.5322 23.8249
v -143.031 67.0696 23.1183
v -143.031 66.4232 23.0261
v -143.031 66.2298 23.2193
v -143.031 69.3141 24.0678
v -143.031 67.9695 23.4303
v -142.478 66.0363 22.9586
v -143.031 66.0363 22.9586
v -142.478 66.0363 16.3254
v -143.031 66.0363 16.3254
v -142.403 66.0363 16.4139
v -142.403 66.0363 22.87
v -143.031 66.2298 16.0647
v -142.266 66.2298 16.0647
v -142.184 66.2298 16.1618
v -142.184 66.2298 23.1221
v -143.031 69.3141 15.2162
v -141.55 69.3141 15.2162
v -141.469 69.3141 15.3128
v -141.469 69.3141 23.9712
v -142.266 66.2298 23.2192
v -141.55 69.3141 24.0678
v -143.031 66.2298 23.2193
v -143.031 69.3141 24.0678
vt 0.4476 0.6911
vt 0.2773 0.6911
vt 0.2773 0.6742
vt 0.4476 0.6742
vt 0.4453 0.6933
vt 0.2795 0.6933
vt 0.5504 0.8881
vt 0.5337 0.8881
vt 0.5337 0.9084
vt 0.5526 0.9084
vt 0.6076 0.8897
vt 0.6053 0.91
vt 0.7614 0.91
vt 0.7592 0.8897
vt 0.5892 0.9737
vt 0.7775 0.9737
vt 0.7776 0.96
vt 0.5891 0.96
vt 0.7937 0.9733
vt 0.8287 0.9733
vt 0.8287 0.9596
vt 0.7936 0.9596
vt 0.9865 0.7672
vt 0.9619 0.7672
vt 0.9632 0.7791
vt 0.9959 0.7791
vt 0.0112 0.7672
vt 0.0111 0.779
vt 0.2524 0.779
vt 0.2525 0.7672
vt 0.5546 0.882
vt 0.5337 0.882
vt 0.6034 0.8836
vt 0.7634 0.8836
vt 0.5687 0.9721
vt 0.5337 0.9721
vt 0.5337 0.979
vt 0.5741 0.979
vt 0.5839 0.9806
vt 0.7829 0.9806
vt 0.5337 0.979
vt 0.5337 0.9859
vt 0.5685 0.9859
vt 0.5741 0.979
vt 0.5839 0.9806
vt 0.5894 0.9875
vt 0.7773 0.9875
vt 0.7829 0.9806
vt 0.5597 0.9367
vt 0.5337 0.9367
vt 0.5337 0.9584
vt 0.5688 0.9584
vt 0.5982 0.9383
vt 0.7685 0.9383
vt 0.605 0.8907
vt 0.6028 0.9094
vt 0.8073 0.909
vt 0.8098 0.9096
vt 0.8121 0.8892
vt 0.8095 0.8902
vt 0.5867 0.9726
vt 0.5865 0.9593
vt 0.7912 0.9721
vt 0.791 0.9589
vt 0.6007 0.8862
vt 0.8079 0.8832
vt 0.8052 0.8857
vt 0.0079 0.7672
vt 0.0078 0.7789
vt 0.2558 0.7672
vt 0.2559 0.779
vt 0.5815 0.9806
vt 0.786 0.9801
vt 0.7884 0.9801
vt 0.5871 0.99
vt 0.5815 0.9806
vt 0.786 0.9801
vt 0.7916 0.9896
vt 0.7939 0.987
vt 0.7884 0.9801
vt 0.5957 0.9372
vt 0.8027 0.9379
vt 0.8002 0.9367
vt 0.1674 0.876
vt 0.1655 0.8746
vt 0.0109 0.8746
vt 0.0091 0.8976
vt 0.0091 0.876
vt 0.1674 0.8976
vt 0.8287 0.9096
vt 0.8287 0.8892
vt 0.2874 0.779
vt 0.2803 0.7672
vt 0.8287 0.8832
vt 0.8287 0.9801
vt 0.8287 0.9801
vt 0.8287 0.987
vt 0.8287 0.9379
vn -0 -1 0
vn 0.3528 0.3982 -0.8467
vn 0 0.316 -0.9488
vn 0 -0.2354 -0.9719
vn 0.3927 -0.2994 -0.8696
vn 0.8967 0.3533 -0.2665
vn 0.9104 -0.267 -0.3159
vn 0.9105 -0.267 0.3158
vn 0.8967 0.3533 0.2665
vn 0.8513 -0.4551 -0.261
vn 0.8514 -0.455 0.261
vn 0.895 -0.273 0.3526
vn 0.895 -0.273 -0.3527
vn 0.3354 -0.5075 0.7937
vn 0 -0.4072 0.9133
vn 0 -0.2568 0.9665
vn 0.4175 -0.2861 0.8625
vn 0.1148 -0.9417 -0.3163
vn 0 -0.9495 -0.3138
vn 0 -0.8031 -0.5958
vn 0.2333 -0.8622 -0.4497
vn 0.3561 -0.931 -0.0807
vn 0.4891 -0.8437 -0.2212
vn 0.4892 -0.8437 0.2213
vn 0.3561 -0.931 0.0807
vn 0.2848 0.7813 -0.5554
vn 0 0.7065 -0.7077
vn 0.5993 0.7551 -0.2657
vn 0.5992 0.7552 0.2657
vn 0.3353 -0.5075 -0.7937
vn 0 -0.4073 -0.9133
vn 0 -0.7439 -0.6683
vn 0.2662 -0.8143 -0.5159
vn 0.5583 -0.7911 -0.2499
vn 0.5584 -0.791 0.2499
vn 0 0.7439 -0.6682
vn -0 0.9338 -0.3578
vn 0.1314 0.9234 -0.3607
vn 0.2657 0.8176 -0.5107
vn 0.5524 0.7954 -0.2494
vn 0.4011 0.9113 -0.0932
vn 0.4011 0.9113 0.0932
vn 0.5524 0.7954 0.2493
vn 0.3492 -0.5056 -0.7889
vn 0 -0.4138 -0.9104
vn 0 -0.2568 -0.9665
vn 0.4174 -0.2861 -0.8625
vn 0.8416 -0.4587 -0.285
vn 0.8417 -0.4587 0.2849
vn 0.3929 -0.2994 0.8695
vn 0.3529 0.3982 0.8467
vn 0.2848 0.7813 0.5555
vn 0.1148 -0.9417 0.3163
vn 0.2333 -0.8622 0.4498
vn 0.2662 -0.8143 0.5159
vn 0.1314 0.9234 0.3607
vn 0.2657 0.8177 0.5107
vn 0.3492 -0.5056 0.7889
vn 0 0.9338 0.3578
vn 0 -0.2355 0.9719
vn 0 0.316 0.9488
vn 0 -0.8031 0.5959
vn -0 -0.9495 0.3138
vn 0 0.7065 0.7077
vn 0 -0.7439 0.6683
vn 0 0.7439 0.6683
vn 0 -0.4138 0.9104
f 57/1/1 55/2/1 56/3/1
f 57/1/1 56/3/1 58/4/1
f 55/2/1 57/1/1 59/5/1
f 55/2/1 59/5/1 60/6/1
f 7/7/2 8/8/3 9/9/4
f 7/7/2 9/9/4 10/10/5
f 11/11/6 12/12/7 13/13/8
f 11/11/6 13/13/8 14/14/9
f 15/15/10 16/16/11 17/17/12
f 15/15/10 17/17/12 18/18/13
f 19/19/14 20/20/15 21/21/16
f 19/19/14 21/21/16 22/22/17
f 1/23/18 4/24/19 61/25/20
f 1/23/18 61/25/20 62/26/21
f 5/27/22 63/28/23 64/29/24
f 5/27/22 64/29/24 6/30/25
f 7/7/2 24/31/26 23/32/27
f 7/7/2 23/32/27 8/8/3
f 25/33/28 11/11/6 14/14/9
f 25/33/28 14/14/9 26/34/29
f 27/35/30 28/36/31 65/37/32
f 27/35/30 65/37/32 66/38/33
f 15/15/10 67/39/34 68/40/35
f 15/15/10 68/40/35 16/16/11
f 29/41/36 33/42/37 34/43/38
f 29/41/36 34/43/38 30/44/39
f 31/45/40 35/46/41 36/47/42
f 31/45/40 36/47/42 32/48/43
f 37/49/44 38/50/45 39/51/46
f 37/49/44 39/51/46 40/52/47
f 41/53/48 18/18/13 17/17/12
f 41/53/48 17/17/12 42/54/49
f 10/10/5 9/9/4 38/50/45
f 10/10/5 38/50/45 37/49/44
f 12/12/7 41/53/48 42/54/49
f 12/12/7 42/54/49 13/13/8
f 7/55/2 10/56/5 12/12/7
f 7/55/2 12/12/7 11/11/6
f 13/57/8 43/58/50 44/59/51
f 13/57/8 44/59/51 14/60/9
f 27/61/30 15/15/10 18/18/13
f 27/61/30 18/18/13 40/62/47
f 16/63/11 19/19/14 22/22/17
f 16/63/11 22/22/17 17/64/12
f 7/55/2 11/11/6 25/33/28
f 7/55/2 25/33/28 24/65/26
f 44/59/51 69/66/52 26/67/29
f 44/59/51 26/67/29 14/60/9
f 63/28/23 5/27/22 1/68/18
f 63/28/23 1/68/18 62/69/21
f 2/70/53 6/30/25 64/29/24
f 2/70/53 64/29/24 45/71/54
f 27/61/30 66/72/33 67/39/34
f 27/61/30 67/39/34 15/15/10
f 68/73/35 70/74/55 19/19/14
f 68/73/35 19/19/14 16/63/11
f 34/75/38 35/46/41 31/45/40
f 34/75/38 31/45/40 30/76/39
f 32/77/43 36/78/42 47/79/56
f 32/77/43 47/79/56 46/80/57
f 37/81/44 40/62/47 18/18/13
f 37/81/44 18/18/13 41/53/48
f 17/64/12 22/22/17 48/82/58
f 17/64/12 48/82/58 42/83/49
f 10/56/5 37/81/44 41/53/48
f 10/56/5 41/53/48 12/12/7
f 42/83/49 48/82/58 43/58/50
f 42/83/49 43/58/50 13/57/8
f 47/84/56 36/85/42 35/86/41
f 47/84/56 35/86/41 33/87/37
f 35/86/41 34/88/38 33/87/37
f 49/89/59 47/84/56 33/87/37
f 44/59/51 43/58/50 50/90/60
f 44/59/51 50/90/60 51/91/61
f 27/35/30 40/52/47 39/51/46
f 27/35/30 39/51/46 28/36/31
f 2/70/53 45/71/54 71/92/62
f 2/70/53 71/92/62 3/93/63
f 52/94/64 69/66/52 44/59/51
f 52/94/64 44/59/51 51/91/61
f 19/19/14 70/74/55 72/95/65
f 19/19/14 72/95/65 20/20/15
f 53/96/66 46/80/57 47/79/56
f 53/96/66 47/79/56 49/97/59
f 48/82/58 22/22/17 21/21/16
f 48/82/58 21/21/16 54/98/67
f 43/58/50 48/82/58 54/98/67
f 43/58/50 54/98/67 50/90/60
