o sponza_59
v 69.3764 99.0795 20.2787
v 69.3764 99.0795 17.511
v 69.3764 92.7364 17.511
v 69.3764 92.7363 20.2787
v 71.8709 101.136 16.9319
v 72.182 101.447 16.9319
v 72.182 92.7364 16.9319
v 71.8709 92.7364 16.9319
v 72.182 101.447 20.2787
v 72.182 92.7363 20.2787
v 71.3959 100.661 17.511
v 71.3959 92.7364 17.511
v 67.5242 99.0795 17.511
v 67.5242 100.661 17.511
v 67.5242 101.136 16.9319
v 67.5242 99.0795 20.2787
v 67.5242 101.447 16.9319
v 67.5242 101.447 20.2787
v 65.672 92.7364 17.511
v 65.672 99.0795 17.511
v 65.672 99.0795 20.2787
v 65.672 92.7363 20.2787
v 63.1491 92.7364 16.9319
v 63.149 101.447 16.9319
v 63.4601 101.136 16.9319
v 63.4601 92.7364 16.9319
v 63.149 101.447 20.2787
v 63.1491 92.7363 20.2787
v 63.9351 92.7364 17.511
v 63.9351 100.661 17.511
v 69.3764 99.0795 20.2787
v 69.3764 99.0795 17.511
v 69.3764 99.0795 17.511
v 69.3764 92.7364 17.511
v 72.182 101.447 16.9319
v 72.182 101.447 16.9319
v 72.182 92.7364 16.9319
v 72.182 101.447 20.2787
v 67.5242 99.0795 17.511
v 67.5242 101.447 16.9319
v 65.672 92.7364 17.511
v 65.672 99.0795 17.511
v 65.672 99.0795 17.511
v 65.672 99.0795 20.2787
v 63.1491 92.7364 16.9319
v 63.149 101.447 16.9319
v 63.149 101.447 16.9319
v 63.149 101.447 20.2787
vt 0.7878 0.0638
vt 0.7878 0.1543
vt 0.9965 0.1543
vt 0.9965 0.0638
vt 0.7384 0.2067
vt 0.7282 0.2169
vt 0.9965 0.2169
vt 0.9965 0.2067
vt 0.9965 0.2169
vt 0.7282 0.2169
vt 0.7282 0.3263
vt 0.9965 0.3263
vt 0.7878 0.1543
vt 0.7541 0.1878
vt 0.9965 0.1878
vt 0.9965 0.1543
vt 0.8487 0.1543
vt 0.8487 0.1878
vt 0.8487 0.2067
vt 0.7878 0.0638
vt 0.8487 0.0638
vt 0.8487 0.1543
vt 0.7878 0.1543
vt 0.8487 0.2169
vt 0.8487 0.3263
vt 0.7282 0.3263
vt 0.7282 0.2169
vt 0.8487 0.2169
vt 0.9965 0.1543
vt 0.7878 0.1543
vt 0.7878 0.0638
vt 0.9965 0.0638
vt 0.9965 0.2169
vt 0.7282 0.2169
vt 0.7384 0.2067
vt 0.9965 0.2067
vt 0.7282 0.3263
vt 0.7282 0.2169
vt 0.9965 0.2169
vt 0.9965 0.3263
vt 0.7878 0.1543
vt 0.9965 0.1543
vt 0.9965 0.1878
vt 0.7541 0.1878
vt 0.7878 0.0638
vt 0.7878 0.1543
vt 0.7282 0.2169
vt 0.7282 0.3263
vn -1 -0 0
vn -0.1277 -0.1277 -0.9836
vn 0 0 -1
vn -0.4277 0 -0.9039
vn 1 0 0
vn -0.3387 -0.3387 -0.8778
vn 0 -0.4277 -0.9039
vn 0 -1 -0
vn 0 1 0
vn 0.1277 -0.1277 -0.9836
vn 0.4277 0 -0.9039
vn 0.3387 -0.3387 -0.8778
f 31/1/1 32/2/1 34/3/1
f 31/1/1 34/3/1 4/4/1
f 5/5/2 35/6/3 37/7/3
f 5/5/2 37/7/3 8/8/4
f 7/9/5 36/10/5 38/11/5
f 7/9/5 38/11/5 10/12/5
f 33/13/3 11/14/6 12/15/4
f 33/13/3 12/15/4 3/16/3
f 11/14/6 5/5/2 8/8/4
f 11/14/6 8/8/4 12/15/4
f 33/13/3 39/17/3 14/18/7
f 33/13/3 14/18/7 11/14/6
f 11/14/6 14/18/7 15/19/7
f 11/14/6 15/19/7 5/5/2
f 1/20/8 16/21/8 13/22/8
f 1/20/8 13/22/8 2/23/8
f 40/24/3 35/6/3 5/5/2
f 40/24/3 5/5/2 15/19/7
f 18/25/9 9/26/9 6/27/9
f 18/25/9 6/27/9 17/28/9
f 41/29/5 42/30/5 44/31/5
f 41/29/5 44/31/5 22/32/5
f 45/33/3 46/34/3 25/35/10
f 45/33/3 25/35/10 26/36/11
f 48/37/1 47/38/1 23/39/1
f 48/37/1 23/39/1 28/40/1
f 43/41/3 19/42/3 29/43/11
f 43/41/3 29/43/11 30/44/12
f 30/44/12 29/43/11 26/36/11
f 30/44/12 26/36/11 25/35/10
f 43/41/3 30/44/12 14/18/7
f 43/41/3 14/18/7 39/17/3
f 30/44/12 25/35/10 15/19/7
f 30/44/12 15/19/7 14/18/7
f 21/45/8 20/46/8 13/22/8
f 21/45/8 13/22/8 16/21/8
f 25/35/10 46/34/3 40/24/3
f 25/35/10 40/24/3 15/19/7
f 24/47/9 27/48/9 18/25/9
f 24/47/9 18/25/9 17/28/9
