o sponza_194
v 69.1504 67.4124 20.0014
v 70.3092 67.4124 20.0014
v 70.3092 67.4124 20.9239
v 69.1504 67.4124 20.9239
v 70.6504 68.7219 20.9239
v 70.6504 68.7219 20.0014
v 69.1504 68.7219 20.0014
v 69.1504 68.7219 20.9239
v 70.4259 67.6029 20.9239
v 70.4259 67.6029 20.0014
v 70.6504 67.7063 20.9239
v 70.6504 67.7063 20.0014
v 69.1504 67.4124 20.0014
v 70.3092 67.4124 20.0014
v 69.1504 67.4124 20.9239
v 70.3092 67.4124 20.9239
v 70.6504 68.7219 20.9239
v 70.6504 68.7219 20.9239
v 70.6504 68.7219 20.0014
v 70.6504 68.7219 20.0014
v 69.1504 68.7219 20.0014
v 69.1504 68.7219 20.9239
v 70.4259 67.6029 20.9239
v 70.4259 67.6029 20.0014
v 70.6504 67.7063 20.9239
v 70.6504 67.7063 20.0014
vt 0.5979 0.9823
vt 0.5979 0.9132
vt 0.6529 0.9132
vt 0.6529 0.9823
vt 0.6529 0.826
vt 0.5979 0.826
vt 0.5979 0.7366
vt 0.6529 0.7366
vt 0.5153 0.8138
vt 0.5266 0.8068
vt 0.5153 0.8829
vt 0.5979 0.8999
vt 0.6529 0.8999
vt 0.5979 0.9132
vt 0.5979 0.9823
vt 0.5866 0.9063
vt 0.5933 0.8829
vt 0.5933 0.7934
vt 0.6529 0.826
vt 0.6529 0.8865
vt 0.5979 0.8865
vt 0.5979 0.826
vt 0.5198 0.9823
vt 0.5199 0.8929
vt 0.5328 0.7934
vt 0.5804 0.8929
vn 0 -1 0
vn 0.4887 -0.8725 0
vn 0.4887 -0.8724 0
vn 0 1 0
vn 0 0 1
vn 0.6642 -0.7475 0
vn 0.6643 -0.7475 0
vn 0 0 -1
vn 1 0 0
vn 0.8422 -0.5392 0
f 13/1/1 14/2/2 16/3/3
f 13/1/1 16/3/3 15/4/1
f 17/5/4 19/6/4 21/7/4
f 17/5/4 21/7/4 22/8/4
f 3/9/5 23/10/5 4/11/5
f 24/12/6 9/13/7 16/3/3
f 24/12/6 16/3/3 14/2/2
f 2/14/8 1/15/8 10/16/8
f 8/17/5 4/11/5 23/10/5
f 8/17/5 23/10/5 18/18/5
f 5/19/9 25/20/10 26/21/10
f 5/19/9 26/21/10 20/22/9
f 10/16/8 1/15/8 7/23/8
f 10/16/8 7/23/8 6/24/8
f 18/18/5 23/10/5 11/25/5
f 24/12/6 26/21/10 25/20/10
f 24/12/6 25/20/10 9/13/7
f 10/16/8 6/24/8 12/26/8
