o sponza_75
v -142.735 41.9964 -63.6975
v -142.716 41.9964 57.0747
v -142.716 41.5461 57.0747
v -142.735 41.5462 -63.6975
v 129.764 41.9964 57.0747
v 129.764 41.9964 4.22645
v 129.764 41.5462 4.24482
v 129.764 41.5461 57.0747
v -143.19 41.9964 -64.153
v -143.19 41.5462 -64.153
v -143.172 41.5461 57.53
v -143.172 41.9964 57.53
v 130.219 41.9964 -11.0069
v 130.219 41.5462 -11.0069
v 130.219 41.5462 -64.1602
v 130.219 41.9964 -64.1602
v 130.219 41.5461 57.5301
v 130.219 41.9964 57.5301
v -143.172 42.4466 57.53
v -143.19 42.4466 -64.153
v 130.219 42.4466 -64.1602
v 130.219 42.4466 -11.0069
v 130.219 42.4466 57.5301
v 129.764 41.9964 -63.7049
v 129.764 41.5462 -63.7049
v 129.764 41.5462 -11.0148
v 129.764 41.9964 -11.0148
v 130.219 41.5462 4.2416
v 130.219 41.9964 4.22323
v 130.219 42.4466 4.20486
v -142.735 41.9964 -63.6975
v -142.735 41.9964 -63.6975
v -142.716 41.9964 57.0747
v -142.716 41.9964 57.0747
v -142.716 41.5461 57.0747
v -142.716 41.5461 57.0747
v -142.735 41.5462 -63.6975
v -142.735 41.5462 -63.6975
v 129.764 41.9964 57.0747
v 129.764 41.9964 57.0747
v 129.764 41.9964 4.22645
v 129.764 41.5461 57.0747
v 129.764 41.5461 57.0747
v 129.764 41.5462 4.24482
v -143.19 41.9964 -64.153
v -143.19 41.5462 -64.153
v -143.19 41.5462 -64.153
v -143.172 41.5461 57.53
v -143.172 41.5461 57.53
v -143.172 41.9964 57.53
v 130.219 41.5462 -11.0069
v 130.219 41.5462 -64.1602
v 130.219 41.5462 -64.1602
v 130.219 41.9964 -64.1602
v 130.219 41.5461 57.5301
v 130.219 41.5461 57.5301
v 130.219 41.9964 57.5301
v -143.172 42.4466 57.53
v -143.172 42.4466 57.53
v -143.19 42.4466 -64.153
v -143.19 42.4466 -64.153
v 130.219 42.4466 -64.1602
v 130.219 42.4466 -64.1602
v 130.219 42.4466 -11.0069
v 130.219 42.4466 57.5301
v 130.219 42.4466 57.5301
v 129.764 41.9964 -63.7049
v 129.764 41.9964 -63.7049
v 129.764 41.5462 -63.7049
v 129.764 41.5462 -63.7049
v 129.764 41.5462 -11.0148
v 129.764 41.9964 -11.0148
v 130.219 41.5462 4.2416
v 130.219 42.4466 4.20486
vt 18.4629 1.0961
vt 22.1504 1.0961
vt 22.1504 1.1206
vt 18.4629 1.1206
vt 6.479 1.0961
vt 8.0867 1.0961
vt 8.0861 1.1206
vt 6.479 1.1206
vt -1.8204 1.0961
vt 6.479 1.0961
vt 6.479 1.1206
vt -1.8204 1.1206
vt 18.4491 1.0471
vt 18.4491 1.0226
vt 22.1643 1.0226
vt 22.1643 1.0471
vt 8.5512 1.0471
vt 8.5512 1.0226
vt 10.1775 1.0226
vt 10.1775 1.0471
vt 11.0295 1.0471
vt 11.0295 1.0226
vt 18.4768 1.0226
vt 18.4768 1.0471
vt -1.8343 1.0471
vt -1.8343 1.0226
vt 6.4929 1.0226
vt 6.4929 1.0471
vt 22.1643 1.0716
vt 18.4491 1.0716
vt 10.1775 1.0716
vt 8.5512 1.0716
vt 18.4768 1.0716
vt 11.0295 1.0716
vt 6.4929 1.0716
vt -1.8343 1.0716
vt 11.0432 1.0961
vt 18.4629 1.0961
vt 18.4629 1.1206
vt 11.0432 1.1206
vt 10.1636 1.0961
vt 10.1636 1.1206
vt 8.5515 1.1206
vt 8.5515 1.0961
vt 6.4651 1.0471
vt 6.4651 1.0226
vt 8.0862 1.0226
vt 8.0868 1.0471
vt 6.4651 1.0716
vt 8.0873 1.0716
vt 18.4629 1.0961
vt 18.4491 1.0716
vt 22.1643 1.0716
vt 22.1504 1.0961
vt 8.0873 1.0716
vt 8.0867 1.0961
vt 6.479 1.0961
vt 6.4651 1.0716
vt 6.4929 1.0716
vt -1.8204 1.0961
vt -1.8343 1.0716
vt 22.1504 1.1206
vt 22.1643 1.1257
vt 18.4491 1.1257
vt 18.4629 1.1206
vt 6.479 1.1206
vt 8.0861 1.1206
vt 8.0862 1.1257
vt 6.4651 1.1257
vt 6.4929 1.1257
vt -1.8343 1.1257
vt -1.8204 1.1206
vt 11.0419 1.1029
vt 11.0295 1.0784
vt 18.4768 1.0716
vt 18.4768 1.1262
vt 11.0308 1.1229
vt 11.0432 1.1178
vt 8.5512 1.0716
vt 10.1775 1.0716
vt 10.1636 1.0961
vt 8.5515 1.0961
vt 10.1636 1.1206
vt 10.1775 1.1257
vt 8.5512 1.1257
vt 8.5515 1.1206
vn 1 0 -0.0002
vn -1 -0 0
vn 0 0 -1
vn -1 0 0.0001
vn 1 0 0
vn -0 0 1
vn 0.5772 0.5778 0.5771
vn -0.4845 0.7285 -0.4843
vn -0.4843 0.7285 0.4845
vn 0.5771 0.5777 -0.5772
vn 0.3802 0.9249 -0
vn -0.9189 0.3944 0
vn -0.5771 0.5778 -0.5771
vn 0.4845 0.7284 0.4844
vn 0.3015 -0.9045 -0.3016
vn -0.5772 -0.5774 0.5774
vn -0.5773 -0.5774 -0.5773
vn 0.3015 -0.9046 0.3015
vn -0.3015 -0.9045 -0.3015
vn -0.7145 -0.6996 -0
vn 0.7177 -0.6964 -0
vn 0.5773 -0.5773 0.5774
vn -0.5771 0.5778 0.5772
vn 0.4844 0.7284 -0.4845
vn 0.5773 -0.5773 -0.5774
vn -0.3015 -0.9045 0.3015
vn 0.394 0.9191 0
vn -0.9222 0.3868 -0
vn 0.711 -0.7031 -0
vn -0.7032 -0.711 0
f 31/1/1 33/2/1 35/3/1
f 31/1/1 35/3/1 37/4/1
f 39/5/2 41/6/2 44/7/2
f 39/5/2 44/7/2 42/8/2
f 34/9/3 40/10/3 43/11/3
f 34/9/3 43/11/3 36/12/3
f 45/13/4 46/14/4 48/15/4
f 45/13/4 48/15/4 50/16/4
f 13/17/5 51/18/5 52/19/5
f 13/17/5 52/19/5 54/20/5
f 16/21/3 53/22/3 47/23/3
f 16/21/3 47/23/3 9/24/3
f 12/25/6 49/26/6 55/27/6
f 12/25/6 55/27/6 57/28/6
f 58/29/4 60/30/4 45/13/4
f 58/29/4 45/13/4 50/16/4
f 62/31/5 64/32/5 13/17/5
f 62/31/5 13/17/5 54/20/5
f 61/33/3 63/34/3 16/21/3
f 61/33/3 16/21/3 9/24/3
f 65/35/6 59/36/6 12/25/6
f 65/35/6 12/25/6 57/28/6
f 67/37/6 32/38/6 38/39/6
f 67/37/6 38/39/6 69/40/6
f 68/41/2 70/42/2 71/43/2
f 68/41/2 71/43/2 72/44/2
f 18/45/5 56/46/5 73/47/5
f 18/45/5 73/47/5 29/48/5
f 66/49/5 18/45/5 29/48/5
f 66/49/5 29/48/5 74/50/5
f 1/51/7 20/52/8 19/53/9
f 1/51/7 19/53/9 2/54/10
f 30/55/11 6/56/12 5/57/13
f 30/55/11 5/57/13 23/58/14
f 23/59/14 5/57/13 2/60/10
f 23/59/14 2/60/10 19/61/9
f 3/62/15 11/63/16 10/64/17
f 3/62/15 10/64/17 4/65/18
f 8/66/19 7/67/20 28/68/21
f 8/66/19 28/68/21 17/69/22
f 8/66/19 17/70/22 11/71/16
f 8/66/19 11/71/16 3/72/15
f 1/51/7 24/73/23 21/74/24
f 1/51/7 21/74/24 20/75/8
f 10/76/17 15/77/25 25/78/26
f 10/76/17 25/78/26 4/65/18
f 22/79/27 21/80/24 24/81/23
f 22/79/27 24/81/23 27/82/28
f 25/83/26 15/84/25 14/85/29
f 25/83/26 14/85/29 26/86/30
