o sponza_105
v 84.6308 18.2652 57.5488
v 84.6308 18.2652 56.9962
v 91.264 18.2652 56.9962
v 91.264 18.2652 57.5488
v 91.1754 18.2652 56.9216
v 84.7194 18.2652 56.9216
v 91.3316 18.6521 56.9378
v 91.4237 19.2985 56.8557
v 91.4237 19.2985 57.5488
v 91.3316 18.6521 57.5488
v 84.5526 19.2985 56.787
v 91.3423 19.2985 56.787
v 91.2447 18.6521 56.8646
v 84.6501 18.6521 56.8646
v 83.8476 20.8885 56.1918
v 83.8518 21.3248 56.1918
v 92.043 21.3248 56.1918
v 92.0472 20.8885 56.1918
v 83.7645 20.8885 57.5488
v 83.7645 21.3248 57.5488
v 83.7645 21.3248 56.2653
v 83.7645 20.8885 56.2618
v 91.5247 18.4586 56.7838
v 91.5247 18.4586 57.5488
v 84.4673 18.4586 56.702
v 91.4276 18.4586 56.702
v 92.1303 21.3248 56.2653
v 92.3732 21.543 56.0686
v 92.3732 21.543 57.5488
v 92.1303 21.3248 57.5488
v 83.6182 21.543 55.9872
v 92.2766 21.543 55.9872
v 92.1303 21.7611 56.2731
v 92.1303 21.7611 57.5488
v 83.861 21.7611 56.1918
v 92.0338 21.7611 56.1918
v 91.7357 20.1984 56.5956
v 92.1303 20.8885 56.2618
v 92.1303 20.8885 57.5488
v 91.7357 20.1984 57.5488
v 91.651 20.1984 56.5242
v 84.2438 20.1984 56.5242
v 84.5633 18.6521 56.9378
v 84.4711 19.2985 56.8557
v 84.3702 18.4586 56.7838
v 83.5216 21.543 56.0686
v 83.7645 21.7611 56.2731
v 84.1591 20.1984 56.5956
v 83.7645 21.7611 57.5488
v 84.4711 19.2985 57.5488
v 84.5633 18.6521 57.5488
v 84.3701 18.4586 57.5488
v 83.5216 21.543 57.5488
v 84.1591 20.1984 57.5488
v 84.6308 18.2652 57.5488
v 84.6308 18.2652 56.9962
v 91.264 18.2652 56.9962
v 91.264 18.2652 57.5488
v 91.1754 18.2652 56.9216
v 84.7194 18.2652 56.9216
v 91.5247 18.4586 56.7838
v 91.5247 18.4586 57.5488
v 84.4673 18.4586 56.702
v 91.4276 18.4586 56.702
v 92.3732 21.543 56.0686
v 92.3732 21.543 57.5488
v 83.6182 21.543 55.9872
v 92.2766 21.543 55.9872
v 84.3702 18.4586 56.7838
v 83.5216 21.543 56.0686
v 84.3701 18.4586 57.5488
v 83.5216 21.543 57.5488
vt 0.2773 0.6742
vt 0.2773 0.6911
vt 0.4476 0.6911
vt 0.4476 0.6742
vt 0.4453 0.6933
vt 0.2795 0.6933
vt 0.5504 0.8881
vt 0.5526 0.9084
vt 0.5337 0.9084
vt 0.5337 0.8881
vt 0.7614 0.91
vt 0.6053 0.91
vt 0.6076 0.8897
vt 0.7592 0.8897
vt 0.7776 0.96
vt 0.7775 0.9737
vt 0.5892 0.9737
vt 0.5891 0.96
vt 0.8287 0.9596
vt 0.8287 0.9733
vt 0.7937 0.9733
vt 0.7936 0.9596
vt 0.9865 0.7672
vt 0.9959 0.7791
vt 0.9632 0.7791
vt 0.9619 0.7672
vt 0.2524 0.779
vt 0.0111 0.779
vt 0.0112 0.7672
vt 0.2525 0.7672
vt 0.5337 0.882
vt 0.5546 0.882
vt 0.6034 0.8836
vt 0.7634 0.8836
vt 0.5687 0.9721
vt 0.5741 0.979
vt 0.5337 0.979
vt 0.5337 0.9721
vt 0.7829 0.9806
vt 0.5839 0.9806
vt 0.5685 0.9859
vt 0.5337 0.9859
vt 0.5337 0.979
vt 0.5741 0.979
vt 0.7773 0.9875
vt 0.5894 0.9875
vt 0.5839 0.9806
vt 0.7829 0.9806
vt 0.5597 0.9367
vt 0.5688 0.9584
vt 0.5337 0.9584
vt 0.5337 0.9367
vt 0.5982 0.9383
vt 0.7685 0.9383
vt 0.605 0.8907
vt 0.6028 0.9094
vt 0.8121 0.8892
vt 0.8098 0.9096
vt 0.8073 0.909
vt 0.8095 0.8902
vt 0.5867 0.9726
vt 0.5865 0.9593
vt 0.7912 0.9721
vt 0.791 0.9589
vt 0.6007 0.8862
vt 0.8052 0.8857
vt 0.8079 0.8832
vt 0.0078 0.7789
vt 0.0079 0.7672
vt 0.2558 0.7672
vt 0.2559 0.779
vt 0.5815 0.9806
vt 0.7884 0.9801
vt 0.786 0.9801
vt 0.5871 0.99
vt 0.5815 0.9806
vt 0.786 0.9801
vt 0.7884 0.9801
vt 0.7939 0.987
vt 0.7916 0.9896
vt 0.5957 0.9372
vt 0.8027 0.9379
vt 0.8002 0.9367
vt 0.0091 0.8976
vt 0.0091 0.876
vt 0.0109 0.8746
vt 0.1674 0.876
vt 0.1655 0.8746
vt 0.1674 0.8976
vt 0.8287 0.9096
vt 0.8287 0.8892
vt 0.2874 0.779
vt 0.2803 0.7672
vt 0.8287 0.8832
vt 0.8287 0.9801
vt 0.8287 0.9801
vt 0.8287 0.987
vt 0.8287 0.9379
vn 0 -1 0
vn 0.8468 0.3982 -0.3527
vn 0.8696 -0.2994 -0.3927
vn 0.9719 -0.2354 0
vn 0.9488 0.316 0
vn -0.3159 -0.267 -0.9105
vn 0.316 -0.267 -0.9104
vn 0.2666 0.3533 -0.8967
vn -0.2666 0.3533 -0.8967
vn -0.3526 -0.273 -0.8951
vn -0.261 -0.4551 -0.8514
vn 0.261 -0.4551 -0.8513
vn 0.3527 -0.273 -0.895
vn -0.9665 -0.2568 0
vn -0.9133 -0.4072 0
vn -0.7937 -0.5075 -0.3354
vn -0.8625 -0.2861 -0.4175
vn 0.3163 -0.9417 -0.1148
vn 0.4497 -0.8622 -0.2333
vn 0.5959 -0.8031 0
vn 0.3138 -0.9495 -0
vn -0.2212 -0.8437 -0.4892
vn 0.2212 -0.8437 -0.4892
vn 0.0807 -0.9309 -0.3561
vn -0.0807 -0.9309 -0.3562
vn 0.7077 0.7065 0
vn 0.5554 0.7813 -0.2848
vn 0.2658 0.7551 -0.5993
vn -0.2658 0.7552 -0.5993
vn 0.7937 -0.5075 -0.3353
vn 0.5158 -0.8143 -0.2661
vn 0.6683 -0.7439 0
vn 0.9133 -0.4073 0
vn -0.2499 -0.7911 -0.5583
vn 0.2499 -0.7911 -0.5583
vn 0.3607 0.9234 -0.1314
vn 0.3578 0.9338 0
vn 0.6683 0.7439 0
vn 0.5107 0.8177 -0.2657
vn -0.0931 0.9113 -0.4011
vn 0.0932 0.9113 -0.4011
vn 0.2493 0.7955 -0.5523
vn -0.2493 0.7955 -0.5523
vn 0.789 -0.5056 -0.3491
vn 0.8625 -0.2861 -0.4174
vn 0.9665 -0.2568 0
vn 0.9104 -0.4138 0
vn 0.2851 -0.4587 -0.8416
vn -0.285 -0.4587 -0.8417
vn -0.8468 0.3982 -0.3527
vn -0.8695 -0.2994 -0.3928
vn -0.5554 0.7813 -0.2848
vn -0.3163 -0.9417 -0.1148
vn -0.4497 -0.8622 -0.2333
vn -0.5159 -0.8143 -0.2661
vn -0.5107 0.8177 -0.2657
vn -0.3607 0.9234 -0.1314
vn -0.7889 -0.5056 -0.3492
vn -0.3579 0.9338 0
vn -0.9719 -0.2355 0
vn -0.9488 0.316 0
vn -0.5959 -0.8031 -0
vn -0.3139 -0.9495 -0
vn -0.7077 0.7065 -0
vn -0.6683 -0.7439 0
vn -0.6683 0.7439 0
vn -0.9104 -0.4138 0
f 55/1/1 56/2/1 57/3/1
f 55/1/1 57/3/1 58/4/1
f 59/5/1 57/3/1 56/2/1
f 59/5/1 56/2/1 60/6/1
f 7/7/2 8/8/3 9/9/4
f 7/7/2 9/9/4 10/10/5
f 11/11/6 12/12/7 13/13/8
f 11/11/6 13/13/8 14/14/9
f 15/15/10 16/16/11 17/17/12
f 15/15/10 17/17/12 18/18/13
f 19/19/14 20/20/15 21/21/16
f 19/19/14 21/21/16 22/22/17
f 3/23/18 61/24/19 62/25/20
f 3/23/18 62/25/20 4/26/21
f 63/27/22 64/28/23 5/29/24
f 63/27/22 5/29/24 6/30/25
f 7/7/2 10/10/5 24/31/26
f 7/7/2 24/31/26 23/32/27
f 14/14/9 13/13/8 26/33/28
f 14/14/9 26/33/28 25/34/29
f 27/35/30 65/36/31 66/37/32
f 27/35/30 66/37/32 30/38/33
f 67/39/34 68/40/35 17/17/12
f 67/39/34 17/17/12 16/16/11
f 33/41/36 34/42/37 29/43/38
f 33/41/36 29/43/38 28/44/39
f 35/45/40 36/46/41 32/47/42
f 35/45/40 32/47/42 31/48/43
f 37/49/44 38/50/45 39/51/46
f 37/49/44 39/51/46 40/52/47
f 15/15/10 18/18/13 41/53/48
f 15/15/10 41/53/48 42/54/49
f 8/8/3 37/49/44 40/52/47
f 8/8/3 40/52/47 9/9/4
f 42/54/49 41/53/48 12/12/7
f 42/54/49 12/12/7 11/11/6
f 7/55/2 13/13/8 12/12/7
f 7/55/2 12/12/7 8/56/3
f 43/57/50 44/58/51 11/59/6
f 43/57/50 11/59/6 14/60/9
f 18/18/13 17/17/12 27/61/30
f 18/18/13 27/61/30 38/62/45
f 22/22/17 21/21/16 16/63/11
f 22/22/17 16/63/11 15/64/10
f 7/55/2 23/65/27 26/33/28
f 7/55/2 26/33/28 13/13/8
f 43/57/50 14/60/9 25/66/29
f 43/57/50 25/66/29 69/67/52
f 64/28/23 61/68/19 3/69/18
f 64/28/23 3/69/18 5/29/24
f 63/27/22 6/30/25 2/70/53
f 63/27/22 2/70/53 45/71/54
f 27/61/30 17/17/12 68/40/35
f 27/61/30 68/40/35 65/72/31
f 21/21/16 70/73/55 67/74/34
f 21/21/16 67/74/34 16/63/11
f 32/47/42 36/46/41 33/75/36
f 32/47/42 33/75/36 28/76/39
f 31/77/43 46/78/56 47/79/57
f 31/77/43 47/79/57 35/80/40
f 37/81/44 41/53/48 18/18/13
f 37/81/44 18/18/13 38/62/45
f 48/82/58 22/22/17 15/64/10
f 48/82/58 15/64/10 42/83/49
f 8/56/3 12/12/7 41/53/48
f 8/56/3 41/53/48 37/81/44
f 44/58/51 48/82/58 42/83/49
f 44/58/51 42/83/49 11/59/6
f 34/84/37 33/85/36 36/86/41
f 34/84/37 36/86/41 47/87/57
f 36/86/41 35/88/40 47/87/57
f 49/89/59 34/84/37 47/87/57
f 50/90/60 44/58/51 43/57/50
f 50/90/60 43/57/50 51/91/61
f 39/51/46 38/50/45 27/35/30
f 39/51/46 27/35/30 30/38/33
f 71/92/62 45/71/54 2/70/53
f 71/92/62 2/70/53 1/93/63
f 52/94/64 51/91/61 43/57/50
f 52/94/64 43/57/50 69/67/52
f 72/95/65 70/73/55 21/21/16
f 72/95/65 21/21/16 20/20/15
f 53/96/66 49/97/59 47/79/57
f 53/96/66 47/79/57 46/78/56
f 19/19/14 22/22/17 48/82/58
f 19/19/14 48/82/58 54/98/67
f 54/98/67 48/82/58 44/58/51
f 54/98/67 44/58/51 50/90/60
