o sponza_382
v 138.06 -11.5979 -78.2521
v 138.06 -11.598 67.4757
v -150.447 -11.598 67.4757
v -150.447 -11.5979 -78.2521
v 138.06 127.104 67.4758
v -150.447 127.104 67.4758
v -150.447 -11.598 67.4757
v 138.06 -11.598 67.4757
v 138.06 -11.598 67.4757
v 138.06 -11.5979 -78.2521
v 138.06 127.104 -78.2519
v 138.06 127.104 67.4758
v 138.06 -11.5979 -78.2521
v -150.447 -11.5979 -78.2521
v -150.447 127.104 -78.2519
v 138.06 127.104 -78.2519
v -150.447 127.104 67.4758
v -150.447 127.104 -78.2519
v -150.447 -11.5979 -78.2521
v -150.447 -11.598 67.4757
vt -3.6432 0
vt -3.6432 -3.6432
vt -10.8559 -3.6432
vt -10.8559 0
vt -0 3.5588
vt 7.2127 3.5588
vt 7.2127 -0
vt -0 0
vt -0 0
vt -3.6432 0
vt -3.6432 3.5588
vt -0 3.5588
vt -3.6432 0
vt -10.8559 0
vt -10.8559 3.5588
vt -3.6432 3.5588
vt -14.4991 3.5588
vt -10.8559 3.5588
vt -10.8559 0
vt -14.4991 0
vn 0 -1 -0
vn 0 -1 -0
vn 0 -1 -0
vn 0 -1 -0
vn 0 -0 1
vn 0 -0 1
vn 0 -0 1
vn 0 -0 1
vn 1 -0 -0
vn 1 -0 -0
vn 1 -0 -0
vn 1 -0 -0
vn 0 0 -1
vn 0 0 -1
vn 0 0 -1
vn 0 0 -1
vn -1 0 0
vn -1 0 0
vn -1 0 0
vn -1 0 0
f 1/1/1 2/2/2 3/3/3
f 1/1/1 3/3/3 4/4/4
f 5/5/5 6/6/6 7/7/7
f 5/5/5 7/7/7 8/8/8
f 9/9/9 10/10/10 11/11/11
f 9/9/9 11/11/11 12/12/12
f 13/13/13 14/14/14 15/15/15
f 13/13/13 15/15/15 16/16/16
f 17/17/17 18/18/18 19/19/19
f 17/17/17 19/19/19 20/20/20
