o sponza_379
v -186.439 -12.6442 -113.644
v 174.41 -12.6442 -113.644
v 174.41 -12.6443 103.712
v -186.439 -12.6443 103.712
v 174.669 133.498 103.971
v -186.698 133.498 103.971
v 174.669 133.498 -113.903
v -186.698 133.498 -113.903
v -185.284 -11.4895 -112.489
v -185.284 -11.4896 102.557
v 173.255 -11.4896 102.557
v 173.255 -11.4895 -112.489
v -185.284 134.72 102.557
v 173.255 134.72 102.557
v 173.255 134.72 -112.489
v -185.284 134.72 -112.489
v -186.439 -12.6442 -113.644
v -186.439 -12.6442 -113.644
v 174.41 -12.6442 -113.644
v 174.41 -12.6442 -113.644
v 174.41 -12.6443 103.712
v 174.41 -12.6443 103.712
v -186.439 -12.6443 103.712
v -186.439 -12.6443 103.712
v -185.284 -11.4895 -112.489
v -185.284 -11.4895 -112.489
v -185.284 -11.4896 102.557
v -185.284 -11.4896 102.557
v 173.255 -11.4896 102.557
v 173.255 -11.4896 102.557
v 173.255 -11.4895 -112.489
v 173.255 -11.4895 -112.489
v -185.284 134.72 102.557
v -185.284 134.72 102.557
v 173.255 134.72 102.557
v 173.255 134.72 102.557
v 173.255 134.72 -112.489
v 173.255 134.72 -112.489
v -185.284 134.72 -112.489
v -185.284 134.72 -112.489
vt 18.4104 2.6857
vt 9.2318 2.6857
vt 9.2318 -2.8194
vt 18.4104 -2.8194
vt 9.2318 -2.8194
vt 9.2318 -6.5756
vt 18.4104 -6.5756
vt 18.4104 -2.8194
vt 3.7266 -2.8194
vt 3.7266 -6.5756
vt 9.2318 -2.8194
vt -5.452 -2.8194
vt -5.452 -6.5756
vt 3.7266 -2.8194
vt 23.9155 -6.5756
vt 23.9155 -2.8194
vt 18.4104 -2.8194
vt 18.4104 2.6857
vt 18.4104 -2.8194
vt 9.2318 -2.8194
vt 9.2318 2.6857
vt 9.2318 -2.8194
vt 18.4104 -2.8194
vt 18.4104 -6.5756
vt 9.2318 -6.5756
vt 3.7266 -2.8194
vt 9.2318 -2.8194
vt 9.2318 -6.5756
vt 3.7266 -6.5756
vt -5.452 -2.8194
vt 3.7266 -2.8194
vt 3.7266 -6.5756
vt -5.452 -6.5756
vt 18.4104 -2.8194
vt 23.9155 -2.8194
vt 23.9155 -6.5756
vt 18.4104 -6.5756
vt 9.2318 -6.5756
vt 18.4104 -6.5756
vt 3.7266 -6.5756
vt -5.452 -6.5756
vt 23.9155 -6.5756
vn 0 -1 -0
vn 0 -0.0018 1
vn 0.6441 0.4126 0.6441
vn -0.6441 0.4126 0.6441
vn 1 -0.0018 -0
vn 0.6441 0.4126 -0.6441
vn 0 -0.0018 -1
vn -0.6441 0.4126 -0.6441
vn -1 -0.0018 -0
vn 0 1 0
vn 0 0 -1
vn -1 -0 0
vn 0 -0 1
vn 1 -0 0
vn 0.3686 0.8534 0.3686
vn -0.3685 0.8534 0.3685
vn 0.3685 0.8534 -0.3685
vn -0.3685 0.8534 -0.3686
f 17/1/1 19/2/1 21/3/1
f 17/1/1 21/3/1 23/4/1
f 22/5/2 5/6/3 6/7/4
f 22/5/2 6/7/4 24/8/2
f 20/9/5 7/10/6 5/6/3
f 20/9/5 5/6/3 3/11/5
f 18/12/7 8/13/8 7/10/6
f 18/12/7 7/10/6 2/14/7
f 8/15/8 1/16/9 4/17/9
f 8/15/8 4/17/9 6/7/4
f 25/18/10 27/19/10 29/20/10
f 25/18/10 29/20/10 31/21/10
f 30/22/11 28/23/11 33/24/11
f 30/22/11 33/24/11 35/25/11
f 32/26/12 11/27/12 36/28/12
f 32/26/12 36/28/12 37/29/12
f 26/30/13 12/31/13 38/32/13
f 26/30/13 38/32/13 39/33/13
f 10/34/14 9/35/14 40/36/14
f 10/34/14 40/36/14 34/37/14
f 5/6/3 14/38/15 13/39/16
f 5/6/3 13/39/16 6/7/4
f 7/10/6 15/40/17 14/38/15
f 7/10/6 14/38/15 5/6/3
f 8/13/8 16/41/18 15/40/17
f 8/13/8 15/40/17 7/10/6
f 6/7/4 13/39/16 16/42/18
f 6/7/4 16/42/18 8/15/8
