o sponza_83
v 9.98105 66.0363 57.5488
v 9.98107 66.0363 56.9962
v 14.53 66.0363 56.9962
v 14.53 66.0363 57.5488
v 14.4693 66.0363 56.9216
v 10.0418 66.0363 56.9216
v 14.5764 66.4232 56.9379
v 14.6396 67.0696 56.8557
v 14.6396 67.0696 57.5488
v 14.5764 66.4232 57.5488
v 9.92739 67.0696 56.787
v 14.5837 67.0696 56.787
v 14.5168 66.4232 56.8647
v 9.99431 66.4232 56.8647
v 9.44391 68.6596 56.1918
v 9.44677 69.096 56.1918
v 15.0643 69.096 56.1918
v 15.0672 68.6596 56.1918
v 9.38691 68.6596 57.5488
v 9.38691 69.0959 57.5488
v 9.38691 69.0959 56.2654
v 9.38691 68.6596 56.2618
v 14.7088 66.2297 56.7838
v 14.7088 66.2297 57.5488
v 9.86889 66.2297 56.702
v 14.6422 66.2297 56.702
v 15.1242 69.0959 56.2654
v 15.2907 69.3141 56.0686
v 15.2907 69.3141 57.5488
v 15.1242 69.0959 57.5488
v 9.28659 69.3141 55.9873
v 15.2245 69.3141 55.9873
v 15.1242 69.5323 56.2731
v 15.1242 69.5323 57.5488
v 9.45312 69.5323 56.1918
v 15.058 69.5323 56.1918
v 14.8536 67.9695 56.5956
v 15.1242 68.6596 56.2618
v 15.1242 68.6596 57.5488
v 14.8536 67.9695 57.5488
v 14.7954 67.9695 56.5242
v 9.71564 67.9695 56.5242
v 9.93471 66.4232 56.9379
v 9.8715 67.0696 56.8557
v 9.80229 66.2297 56.7838
v 9.2204 69.3141 56.0686
v 9.38691 69.5323 56.2731
v 9.65751 67.9695 56.5956
v 9.38691 69.5323 57.5488
v 9.8715 67.0696 57.5488
v 9.93471 66.4232 57.5488
v 9.80226 66.2297 57.5488
v 9.2204 69.3141 57.5488
v 9.65754 67.9695 57.5488
v 9.98105 66.0363 57.5488
v 9.98107 66.0363 56.9962
v 14.53 66.0363 56.9962
v 14.53 66.0363 57.5488
v 14.4693 66.0363 56.9216
v 10.0418 66.0363 56.9216
v 9.86889 66.2297 56.702
v 14.6422 66.2297 56.702
v 9.28659 69.3141 55.9873
v 15.2245 69.3141 55.9873
vt 0.2773 0.6742
vt 0.2773 0.6911
vt 0.4476 0.6911
vt 0.4476 0.6742
vt 0.4453 0.6933
vt 0.2795 0.6933
vt 0.5504 0.8881
vt 0.5526 0.9084
vt 0.5337 0.9084
vt 0.5337 0.8881
vt 0.7614 0.91
vt 0.6053 0.91
vt 0.6076 0.8897
vt 0.7592 0.8897
vt 0.7776 0.96
vt 0.7775 0.9737
vt 0.5892 0.9737
vt 0.5891 0.96
vt 0.8287 0.9596
vt 0.8287 0.9733
vt 0.7937 0.9733
vt 0.7936 0.9596
vt 0.9865 0.7672
vt 0.9959 0.7791
vt 0.9632 0.7791
vt 0.9619 0.7672
vt 0.2524 0.779
vt 0.0111 0.779
vt 0.0112 0.7672
vt 0.2525 0.7672
vt 0.5337 0.882
vt 0.5546 0.882
vt 0.6034 0.8836
vt 0.7634 0.8836
vt 0.5687 0.9721
vt 0.5741 0.979
vt 0.5337 0.979
vt 0.5337 0.9721
vt 0.7829 0.9806
vt 0.5839 0.9806
vt 0.5685 0.9859
vt 0.5337 0.9859
vt 0.7773 0.9875
vt 0.5894 0.9875
vt 0.5839 0.9806
vt 0.7829 0.9806
vt 0.5597 0.9367
vt 0.5688 0.9584
vt 0.5337 0.9584
vt 0.5337 0.9367
vt 0.5982 0.9383
vt 0.7685 0.9383
vt 0.6028 0.9094
vt 0.605 0.8907
vt 0.8095 0.8902
vt 0.8121 0.8892
vt 0.8098 0.9096
vt 0.8073 0.909
vt 0.5867 0.9726
vt 0.5865 0.9593
vt 0.7912 0.9721
vt 0.791 0.9589
vt 0.6007 0.8862
vt 0.8052 0.8857
vt 0.8079 0.8832
vt 0.0078 0.7789
vt 0.0079 0.7672
vt 0.2559 0.779
vt 0.2558 0.7672
vt 0.5815 0.9806
vt 0.7884 0.9801
vt 0.786 0.9801
vt 0.5871 0.99
vt 0.7939 0.987
vt 0.7916 0.9896
vt 0.786 0.9801
vt 0.5957 0.9372
vt 0.8002 0.9367
vt 0.8027 0.9379
vt 0.0091 0.8976
vt 0.0091 0.876
vt 0.0109 0.8746
vt 0.1674 0.876
vt 0.1655 0.8746
vt 0.1674 0.8976
vt 0.8287 0.9096
vt 0.8287 0.8892
vt 0.2874 0.779
vt 0.2803 0.7672
vt 0.8287 0.8832
vt 0.8287 0.9801
vt 0.8287 0.987
vt 0.8287 0.9379
vn 0 -1 0
vn 0 -1 -0.0001
vn 0.9118 0.3115 -0.2677
vn 0.9232 -0.2213 -0.3143
vn 0.9863 -0.1647 0
vn 0.9686 0.2488 0
vn -0.4078 -0.254 -0.877
vn 0.4079 -0.254 -0.877
vn 0.3713 0.3626 -0.8548
vn -0.3713 0.3626 -0.8548
vn -0.4271 -0.251 -0.8686
vn -0.3556 -0.4619 -0.8125
vn 0.3556 -0.4619 -0.8125
vn 0.4272 -0.251 -0.8686
vn -0.9826 -0.1858 0
vn -0.9473 -0.3202 0
vn -0.8773 -0.4014 -0.2631
vn -0.9078 -0.2349 -0.3475
vn 0.4048 -0.9098 -0.0916
vn 0.9149 -0.0672 -0.3981
vn 0.9973 -0.0728 0
vn 0.4008 -0.9162 -0
vn -0.2667 -0.8176 -0.5102
vn 0.2667 -0.8176 -0.5102
vn 0.138 -0.924 -0.3566
vn -0.138 -0.924 -0.3566
vn 0.3172 0.7224 -0.6144
vn -0.3172 0.7224 -0.6144
vn 0.8773 -0.4014 -0.263
vn 0.9163 0.0033 -0.4005
vn 1 0 0
vn 0.9473 -0.3203 0
vn -0.2995 -0.7603 -0.5764
vn 0.2994 -0.7603 -0.5764
vn 0.4484 0.8877 -0.1047
vn 0.4434 0.8963 0
vn -0.1562 0.9026 -0.4011
vn 0.1562 0.9026 -0.4011
vn 0.2992 0.7642 -0.5715
vn -0.2992 0.7642 -0.5714
vn 0.8737 -0.3895 -0.2914
vn 0.9078 -0.2349 -0.3474
vn 0.9826 -0.1858 0
vn 0.9543 -0.2989 0
vn 0.3736 -0.4407 -0.8162
vn -0.3736 -0.4407 -0.8162
vn -0.9118 0.3115 -0.2677
vn -0.9231 -0.2213 -0.3144
vn -0.9149 -0.0672 -0.3981
vn -0.4048 -0.9098 -0.0916
vn -0.9164 0.0033 -0.4004
vn -0.4484 0.8877 -0.1048
vn -0.8737 -0.3895 -0.2913
vn -0.4434 0.8963 0
vn -0.9863 -0.1647 0
vn -0.9685 0.2488 0
vn -0.9973 -0.0728 -0
vn -0.4008 -0.9162 -0
vn -1 0 0
vn -0.9543 -0.2989 0
f 55/1/1 56/2/1 57/3/1
f 55/1/1 57/3/1 58/4/1
f 59/5/1 57/3/1 56/2/1
f 59/5/2 56/2/2 60/6/2
f 7/7/3 8/8/4 9/9/5
f 7/7/3 9/9/5 10/10/6
f 11/11/7 12/12/8 13/13/9
f 11/11/7 13/13/9 14/14/10
f 15/15/11 16/16/12 17/17/13
f 15/15/11 17/17/13 18/18/14
f 19/19/15 20/20/16 21/21/17
f 19/19/15 21/21/17 22/22/18
f 3/23/19 23/24/20 24/25/21
f 3/23/19 24/25/21 4/26/22
f 61/27/23 62/28/24 5/29/25
f 61/27/23 5/29/25 6/30/26
f 7/7/3 10/10/6 24/31/21
f 7/7/3 24/31/21 23/32/20
f 14/14/10 13/13/9 26/33/27
f 14/14/10 26/33/27 25/34/28
f 27/35/29 28/36/30 29/37/31
f 27/35/29 29/37/31 30/38/32
f 63/39/33 64/40/34 17/17/13
f 63/39/33 17/17/13 16/16/12
f 33/41/35 34/42/36 29/37/31
f 33/41/35 29/37/31 28/36/30
f 35/43/37 36/44/38 32/45/39
f 35/43/37 32/45/39 31/46/40
f 37/47/41 38/48/42 39/49/43
f 37/47/41 39/49/43 40/50/44
f 15/15/11 18/18/14 41/51/45
f 15/15/11 41/51/45 42/52/46
f 8/8/4 37/47/41 40/50/44
f 8/8/4 40/50/44 9/9/5
f 42/52/46 41/51/45 12/12/8
f 42/52/46 12/12/8 11/11/7
f 8/53/4 7/54/3 13/13/9
f 8/53/4 13/13/9 12/12/8
f 14/55/10 43/56/47 44/57/48
f 14/55/10 44/57/48 11/58/7
f 18/18/14 17/17/13 27/59/29
f 18/18/14 27/59/29 38/60/42
f 22/22/18 21/21/17 16/61/12
f 22/22/18 16/61/12 15/62/11
f 13/13/9 7/54/3 23/63/20
f 13/13/9 23/63/20 26/33/27
f 14/55/10 25/64/28 45/65/49
f 14/55/10 45/65/49 43/56/47
f 23/66/20 3/67/19 5/29/25
f 23/66/20 5/29/25 62/28/24
f 45/68/49 61/27/23 6/30/26
f 45/68/49 6/30/26 2/69/50
f 17/17/13 64/40/34 28/70/30
f 17/17/13 28/70/30 27/59/29
f 16/61/12 21/21/17 46/71/51
f 16/61/12 46/71/51 63/72/33
f 28/70/30 32/45/39 36/44/38
f 28/70/30 36/44/38 33/73/35
f 46/71/51 47/74/52 35/75/37
f 46/71/51 35/75/37 31/76/40
f 41/51/45 18/18/14 38/60/42
f 41/51/45 38/60/42 37/77/41
f 42/78/46 48/79/53 22/22/18
f 42/78/46 22/22/18 15/62/11
f 12/12/8 41/51/45 37/77/41
f 12/12/8 37/77/41 8/53/4
f 11/58/7 44/57/48 48/79/53
f 11/58/7 48/79/53 42/78/46
f 34/80/36 33/81/35 36/82/38
f 34/80/36 36/82/38 47/83/52
f 36/82/38 35/84/37 47/83/52
f 49/85/54 34/80/36 47/83/52
f 50/86/55 44/57/48 43/56/47
f 50/86/55 43/56/47 51/87/56
f 39/49/43 38/48/42 27/35/29
f 39/49/43 27/35/29 30/38/32
f 52/88/57 45/68/49 2/69/50
f 52/88/57 2/69/50 1/89/58
f 52/90/57 51/87/56 43/56/47
f 52/90/57 43/56/47 45/65/49
f 53/91/59 46/71/51 21/21/17
f 53/91/59 21/21/17 20/20/16
f 53/91/59 49/92/54 47/74/52
f 53/91/59 47/74/52 46/71/51
f 19/19/15 22/22/18 48/79/53
f 19/19/15 48/79/53 54/93/60
f 54/93/60 48/79/53 44/57/48
f 54/93/60 44/57/48 50/86/55
