o sponza_111
v 91.264 18.2653 -64.1441
v 84.6308 18.2653 -64.1441
v 84.6308 18.2653 -64.6968
v 91.264 18.2653 -64.6968
v 91.1754 18.2653 -64.0695
v 84.7194 18.2653 -64.0695
v 91.3316 18.6522 -64.0858
v 91.3316 18.6522 -64.6968
v 91.4237 19.2986 -64.6968
v 91.4237 19.2986 -64.0036
v 91.2447 18.6522 -64.0126
v 91.3423 19.2986 -63.935
v 84.5526 19.2986 -63.935
v 84.6501 18.6522 -64.0126
v 92.043 21.3249 -63.3397
v 83.8518 21.3249 -63.3397
v 83.8476 20.8886 -63.3397
v 92.0472 20.8886 -63.3397
v 83.7645 21.3249 -63.4133
v 83.7645 21.3249 -64.6968
v 83.7645 20.8886 -64.6968
v 83.7645 20.8886 -63.4098
v 91.264 18.2653 -64.1441
v 91.264 18.2653 -64.6968
v 91.5247 18.4587 -64.6968
v 91.5247 18.4587 -63.9318
v 91.1754 18.2653 -64.0695
v 91.4276 18.4587 -63.85
v 84.4673 18.4587 -63.85
v 84.7194 18.2653 -64.0695
v 91.3316 18.6522 -64.0858
v 91.5247 18.4587 -63.9318
v 91.5247 18.4587 -64.6968
v 91.3316 18.6522 -64.6968
v 91.4276 18.4587 -63.85
v 91.2447 18.6522 -64.0126
v 84.6501 18.6522 -64.0126
v 84.4673 18.4587 -63.85
v 92.1303 21.3249 -63.4133
v 92.1303 21.3249 -64.6968
v 92.3732 21.5431 -64.6968
v 92.3732 21.5431 -63.2165
v 92.043 21.3249 -63.3397
v 92.2766 21.5431 -63.1352
v 83.6182 21.5431 -63.1352
v 83.8518 21.3249 -63.3397
v 92.3732 21.5431 -64.6968
v 92.1303 21.7612 -64.6968
v 92.1303 21.7612 -63.4211
v 92.3732 21.5431 -63.2165
v 92.2766 21.5431 -63.1352
v 92.0338 21.7612 -63.3397
v 83.861 21.7612 -63.3397
v 83.6182 21.5431 -63.1352
v 91.7357 20.1985 -63.7435
v 91.7357 20.1985 -64.6968
v 92.1303 20.8886 -64.6968
v 92.1303 20.8886 -63.4098
v 91.651 20.1985 -63.6721
v 84.2438 20.1985 -63.6721
v 91.3316 18.6522 -64.0858
v 91.4237 19.2986 -64.0036
v 91.3423 19.2986 -63.935
v 91.2447 18.6522 -64.0126
v 84.5526 19.2986 -63.935
v 84.4711 19.2986 -64.0036
v 84.5633 18.6522 -64.0858
v 84.6501 18.6522 -64.0126
v 92.1303 21.3249 -63.4133
v 92.043 21.3249 -63.3397
v 92.0472 20.8886 -63.3397
v 92.1303 20.8886 -63.4098
v 83.8518 21.3249 -63.3397
v 83.7645 21.3249 -63.4133
v 83.7645 20.8886 -63.4098
v 83.8476 20.8886 -63.3397
v 91.3316 18.6522 -64.0858
v 91.5247 18.4587 -63.9318
v 84.5633 18.6522 -64.0858
v 84.3702 18.4587 -63.9318
v 84.4673 18.4587 -63.85
v 84.6501 18.6522 -64.0126
v 91.264 18.2653 -64.1441
v 91.5247 18.4587 -63.9318
v 84.6308 18.2653 -64.1441
v 84.3702 18.4587 -63.9318
v 92.1303 21.3249 -63.4133
v 92.3732 21.5431 -63.2165
v 83.6182 21.5431 -63.1352
v 83.5216 21.5431 -63.2165
v 83.7645 21.3249 -63.4133
v 83.8518 21.3249 -63.3397
v 92.1303 21.7612 -63.4211
v 92.3732 21.5431 -63.2165
v 83.6182 21.5431 -63.1352
v 83.861 21.7612 -63.3397
v 83.7645 21.7612 -63.4211
v 83.5216 21.5431 -63.2165
v 91.7357 20.1985 -63.7435
v 92.1303 20.8886 -63.4098
v 92.0472 20.8886 -63.3397
v 91.651 20.1985 -63.6721
v 83.8476 20.8886 -63.3397
v 83.7645 20.8886 -63.4098
v 84.1591 20.1985 -63.7435
v 84.2438 20.1985 -63.6721
v 83.7645 21.7612 -63.4211
v 83.861 21.7612 -63.3397
v 92.0338 21.7612 -63.3397
v 92.1303 21.7612 -64.6968
v 92.1303 21.7612 -63.4211
v 83.7645 21.7612 -64.6968
v 84.5633 18.6522 -64.0858
v 84.4711 19.2986 -64.0036
v 84.4711 19.2986 -64.6968
v 84.5633 18.6522 -64.6968
v 92.1303 21.3249 -63.4133
v 92.1303 21.3249 -64.6968
v 84.3701 18.4587 -64.6968
v 84.6308 18.2653 -64.6968
v 84.3701 18.4587 -64.6968
v 84.3702 18.4587 -63.9318
v 84.5633 18.6522 -64.0858
v 84.5633 18.6522 -64.6968
v 83.7645 21.3249 -63.4133
v 83.5216 21.5431 -63.2165
v 83.5216 21.5431 -64.6968
v 83.7645 21.3249 -64.6968
v 83.5216 21.5431 -64.6968
v 83.5216 21.5431 -63.2165
v 83.7645 21.7612 -63.4211
v 83.7645 21.7612 -64.6968
v 84.1591 20.1985 -63.7435
v 84.1591 20.1985 -64.6968
vt 0.4476 0.6911
vt 0.2773 0.6911
vt 0.2773 0.6742
vt 0.4476 0.6742
vt 0.4453 0.6933
vt 0.2795 0.6933
vt 0.5504 0.8881
vt 0.5337 0.8881
vt 0.5337 0.9084
vt 0.5526 0.9084
vt 0.6076 0.8897
vt 0.6053 0.91
vt 0.7614 0.91
vt 0.7592 0.8897
vt 0.5892 0.9737
vt 0.7775 0.9737
vt 0.7776 0.96
vt 0.5891 0.96
vt 0.7937 0.9733
vt 0.8287 0.9733
vt 0.8287 0.9596
vt 0.7936 0.9596
vt 0.9865 0.7672
vt 0.9619 0.7672
vt 0.9632 0.7791
vt 0.9959 0.7791
vt 0.0112 0.7672
vt 0.0111 0.779
vt 0.2524 0.779
vt 0.2525 0.7672
vt 0.5504 0.8881
vt 0.5546 0.882
vt 0.5337 0.882
vt 0.5337 0.8881
vt 0.6034 0.8836
vt 0.6076 0.8897
vt 0.7592 0.8897
vt 0.7634 0.8836
vt 0.5687 0.9721
vt 0.5337 0.9721
vt 0.5337 0.979
vt 0.5741 0.979
vt 0.5892 0.9737
vt 0.5839 0.9806
vt 0.7829 0.9806
vt 0.7775 0.9737
vt 0.5337 0.979
vt 0.5337 0.9859
vt 0.5685 0.9859
vt 0.5741 0.979
vt 0.5839 0.9806
vt 0.5894 0.9875
vt 0.7773 0.9875
vt 0.7829 0.9806
vt 0.5597 0.9367
vt 0.5337 0.9367
vt 0.5337 0.9584
vt 0.5688 0.9584
vt 0.5982 0.9383
vt 0.7685 0.9383
vt 0.605 0.8907
vt 0.6028 0.9094
vt 0.6053 0.91
vt 0.6076 0.8897
vt 0.8073 0.909
vt 0.8098 0.9096
vt 0.8121 0.8892
vt 0.8095 0.8902
vt 0.5867 0.9726
vt 0.5892 0.9737
vt 0.5891 0.96
vt 0.5865 0.9593
vt 0.7912 0.9721
vt 0.7937 0.9733
vt 0.7936 0.9596
vt 0.791 0.9589
vt 0.605 0.8907
vt 0.6007 0.8862
vt 0.8121 0.8892
vt 0.8079 0.8832
vt 0.8052 0.8857
vt 0.8095 0.8902
vt 0.0079 0.7672
vt 0.0078 0.7789
vt 0.2558 0.7672
vt 0.2559 0.779
vt 0.5867 0.9726
vt 0.5815 0.9806
vt 0.786 0.9801
vt 0.7884 0.9801
vt 0.7937 0.9733
vt 0.7912 0.9721
vt 0.5871 0.99
vt 0.5815 0.9806
vt 0.786 0.9801
vt 0.7916 0.9896
vt 0.7939 0.987
vt 0.7884 0.9801
vt 0.5957 0.9372
vt 0.5865 0.9593
vt 0.5891 0.96
vt 0.5982 0.9383
vt 0.791 0.9589
vt 0.7936 0.9596
vt 0.8027 0.9379
vt 0.8002 0.9367
vt 0.1674 0.876
vt 0.1655 0.8746
vt 0.0109 0.8746
vt 0.0091 0.8976
vt 0.0091 0.876
vt 0.1674 0.8976
vt 0.8121 0.8892
vt 0.8098 0.9096
vt 0.8287 0.9096
vt 0.8287 0.8892
vt 0.5687 0.9721
vt 0.5337 0.9721
vt 0.2874 0.779
vt 0.2803 0.7672
vt 0.8287 0.8832
vt 0.8079 0.8832
vt 0.8121 0.8892
vt 0.8287 0.8892
vt 0.7937 0.9733
vt 0.7884 0.9801
vt 0.8287 0.9801
vt 0.8287 0.9733
vt 0.8287 0.9801
vt 0.7884 0.9801
vt 0.7939 0.987
vt 0.8287 0.987
vt 0.8027 0.9379
vt 0.8287 0.9379
vn 0 -1 -0
vn 0 -1 -0
vn 0 -1 -0
vn 0 -1 -0
vn 0 -1 -0
vn 0 -1 -0
vn 0.99 -0.1411 -0
vn 0.99 -0.1411 -0
vn 0.9719 -0.2354 -0
vn 0.9691 -0.2466 -0
vn 0 -0.1192 0.9929
vn 0 -0.2119 0.9773
vn 0 -0.2119 0.9773
vn 0 -0.1192 0.9929
vn 0 0 1
vn 0 0 1
vn 0 -0.1832 0.9831
vn 0 -0.1832 0.9831
vn -1 0 0
vn -1 0 0
vn -0.9665 -0.2568 -0
vn -0.9755 -0.2201 -0
vn 0.3163 -0.9417 0.1147
vn 0.3138 -0.9495 0
vn 0.5958 -0.8031 -0
vn 0.4497 -0.8622 0.2333
vn 0.0807 -0.9309 0.3561
vn 0.2212 -0.8437 0.4892
vn -0.2212 -0.8437 0.4892
vn -0.0807 -0.9309 0.3562
vn 0.7077 0.7065 0
vn 0.7077 0.7065 0
vn 0.7077 0.7065 0
vn 0.7077 0.7065 0
vn 0.2657 0.7552 0.5993
vn 0.1657 0.7218 0.672
vn -0.1657 0.7218 0.672
vn -0.2657 0.7552 0.5993
vn 0.6683 -0.7439 -0
vn 0.6683 -0.7439 -0
vn 0.6683 -0.7439 -0
vn 0.6682 -0.7439 -0
vn 0.1511 -0.7574 0.6352
vn 0.2499 -0.7911 0.5583
vn -0.2499 -0.7911 0.5583
vn -0.1511 -0.7574 0.6353
vn 0.6683 0.7439 0
vn 0.6683 0.7439 0
vn 0.6682 0.744 0
vn 0.6682 0.744 0
vn 0.2493 0.7954 0.5523
vn 0.1474 0.7589 0.6344
vn -0.1473 0.7588 0.6344
vn -0.2493 0.7954 0.5524
vn 0.9024 -0.4309 -0
vn 0.9104 -0.4138 -0
vn 0.9665 -0.2568 -0
vn 0.9755 -0.2201 -0
vn 0 -0.3769 0.9263
vn 0 -0.3769 0.9263
vn 0.633 -0.1858 0.7515
vn 0.6145 -0.3014 0.729
vn 0.6159 -0.2942 0.7308
vn 0.6329 -0.1858 0.7516
vn -0.6158 -0.2942 0.7309
vn -0.6143 -0.3014 0.7292
vn -0.6329 -0.1858 0.7516
vn -0.6329 -0.1858 0.7516
vn 0.6443 0.0062 0.7647
vn 0.6443 0.0062 0.7647
vn 0.6444 0.0062 0.7647
vn 0.6444 0.0062 0.7647
vn -0.6442 0.0062 0.7649
vn -0.6441 0.0062 0.7649
vn -0.6442 0.0062 0.7648
vn -0.6443 0.0062 0.7648
vn 0.402 0.7814 0.4773
vn 0.402 0.7814 0.4773
vn -0.402 0.7814 0.4772
vn -0.402 0.7814 0.4773
vn -0.2657 0.7552 0.5993
vn -0.1657 0.7218 0.672
vn 0.3163 -0.9417 0.1147
vn 0.4497 -0.8622 0.2333
vn -0.3163 -0.9417 0.1148
vn -0.4497 -0.8622 0.2333
vn 0.3733 -0.8151 0.443
vn 0.3732 -0.8151 0.4431
vn -0.2499 -0.7911 0.5583
vn -0.3732 -0.8151 0.443
vn -0.3732 -0.8151 0.4431
vn -0.1511 -0.7574 0.6353
vn 0.3686 0.8203 0.4373
vn 0.3685 0.8203 0.4374
vn -0.2493 0.7954 0.5524
vn -0.1473 0.7588 0.6344
vn -0.3685 0.8203 0.4375
vn -0.3685 0.8203 0.4374
vn 0.5552 -0.5081 0.6585
vn 0.5184 -0.594 0.6151
vn 0.5184 -0.594 0.6151
vn 0.559 -0.4978 0.6631
vn -0.5183 -0.594 0.6153
vn -0.5183 -0.594 0.6153
vn -0.555 -0.5081 0.6586
vn -0.5589 -0.4978 0.6632
vn -0 1 0
vn -0 1 0
vn -0 1 0
vn -0 1 0
vn -0 1 0
vn -0 1 0
vn -0.99 -0.1411 -0
vn -0.9691 -0.2466 -0
vn -0.9719 -0.2354 -0
vn -0.99 -0.1411 -0
vn 1 0 0
vn 1 0 0
vn -0.5959 -0.8031 0
vn -0.3138 -0.9495 0
vn -0.7077 0.7065 0
vn -0.7077 0.7065 0
vn -0.7077 0.7065 0
vn -0.7077 0.7065 0
vn -0.6683 -0.7439 -0
vn -0.6683 -0.7439 -0
vn -0.6683 -0.7439 -0
vn -0.6683 -0.7439 -0
vn -0.6683 0.7439 0
vn -0.6683 0.7439 0
vn -0.6683 0.7439 0
vn -0.6683 0.7439 0
vn -0.9024 -0.4309 -0
vn -0.9104 -0.4138 -0
f 1/1/1 2/2/2 3/3/3
f 1/1/1 3/3/3 4/4/4
f 2/2/2 1/1/1 5/5/5
f 2/2/2 5/5/5 6/6/6
f 7/7/7 8/8/8 9/9/9
f 7/7/7 9/9/9 10/10/10
f 11/11/11 12/12/12 13/13/13
f 11/11/11 13/13/13 14/14/14
f 15/15/15 16/16/16 17/17/17
f 15/15/15 17/17/17 18/18/18
f 19/19/19 20/20/20 21/21/21
f 19/19/19 21/21/21 22/22/22
f 23/23/23 24/24/24 25/25/25
f 23/23/23 25/25/25 26/26/26
f 27/27/27 28/28/28 29/29/29
f 27/27/27 29/29/29 30/30/30
f 31/31/31 32/32/32 33/33/33
f 31/31/31 33/33/33 34/34/34
f 35/35/35 36/36/36 37/37/37
f 35/35/35 37/37/37 38/38/38
f 39/39/39 40/40/40 41/41/41
f 39/39/39 41/41/41 42/42/42
f 43/43/43 44/44/44 45/45/45
f 43/43/43 45/45/45 46/46/46
f 47/47/47 48/48/48 49/49/49
f 47/47/47 49/49/49 50/50/50
f 51/51/51 52/52/52 53/53/53
f 51/51/51 53/53/53 54/54/54
f 55/55/55 56/56/56 57/57/57
f 55/55/55 57/57/57 58/58/58
f 59/59/59 18/18/18 17/17/17
f 59/59/59 17/17/17 60/60/60
f 10/10/10 9/9/9 56/56/56
f 10/10/10 56/56/56 55/55/55
f 12/12/12 59/59/59 60/60/60
f 12/12/12 60/60/60 13/13/13
f 61/61/61 62/62/62 63/63/63
f 61/61/61 63/63/63 64/64/64
f 65/65/65 66/66/66 67/67/67
f 65/65/65 67/67/67 68/68/68
f 69/69/69 70/70/70 71/71/71
f 69/69/69 71/71/71 72/72/72
f 73/73/73 74/74/74 75/75/75
f 73/73/73 75/75/75 76/76/76
f 77/77/77 36/36/36 35/35/35
f 77/77/77 35/35/35 78/78/78
f 79/79/79 80/80/80 81/81/81
f 79/79/79 81/81/81 82/82/82
f 28/28/28 27/27/27 83/83/83
f 28/28/28 83/83/83 84/84/84
f 85/85/85 30/30/30 29/29/29
f 85/85/85 29/29/29 86/86/86
f 87/87/87 88/88/88 44/44/44
f 87/87/87 44/44/44 43/43/43
f 89/89/89 90/90/90 91/91/91
f 89/89/89 91/91/91 92/92/92
f 93/93/93 52/52/52 51/51/51
f 93/93/93 51/51/51 94/94/94
f 95/95/95 96/96/96 97/97/97
f 95/95/95 97/97/97 98/98/98
f 99/99/99 100/100/100 101/101/101
f 99/99/99 101/101/101 102/102/102
f 103/103/103 104/104/104 105/105/105
f 103/103/103 105/105/105 106/106/106
f 62/62/62 99/99/99 102/102/102
f 62/62/62 102/102/102 63/63/63
f 106/106/106 105/105/105 66/66/66
f 106/106/106 66/66/66 65/65/65
f 107/107/107 108/108/108 109/109/109
f 107/107/107 109/109/109 110/110/110
f 109/109/109 111/111/111 110/110/110
f 112/112/112 107/107/107 110/110/110
f 113/113/113 114/114/114 115/115/115
f 113/113/113 115/115/115 116/116/116
f 117/117/117 58/58/58 57/57/57
f 117/117/117 57/57/57 118/118/118
f 85/85/85 86/86/86 119/119/119
f 85/85/85 119/119/119 120/120/120
f 121/121/121 122/122/122 123/123/123
f 121/121/121 123/123/123 124/124/124
f 125/125/125 126/126/126 127/127/127
f 125/125/125 127/127/127 128/128/128
f 129/129/129 130/130/130 131/131/131
f 129/129/129 131/131/131 132/132/132
f 133/133/133 22/22/22 21/21/21
f 133/133/133 21/21/21 134/134/134
f 114/114/114 133/133/133 134/134/134
f 114/114/114 134/134/134 115/115/115
