o sponza_131
v -100.881 67.3907 -1.55443
v -100.881 67.3907 -1.66902
v -100.881 67.458 -1.81865
v -100.881 67.458 -1.38693
v -100.881 67.7901 -1.25168
v -100.881 67.7901 -2.11439
v -100.881 67.9443 -2.02438
v -100.881 67.9443 -1.28864
v -100.881 68.0985 -1.85624
v -100.881 68.0985 -1.42118
v -100.881 67.5901 -1.90269
v -100.881 67.6159 -1.27631
v -100.881 66.9701 -2.22856
v -100.881 67.1083 -2.4765
v -101.476 67.9443 -1.28864
v -101.476 67.7901 -1.25168
v -101.476 68.0985 -1.42118
v -101.476 67.458 -1.81865
v -101.476 67.5901 -1.90269
v -101.476 67.6159 -1.27631
v -101.476 67.458 -1.38693
v -101.476 66.9701 -2.22856
v -101.476 67.1083 -2.4765
v -101.476 67.3907 -1.55443
v -101.476 67.3907 -1.66902
v -101.476 67.9443 -2.02438
v -101.476 67.7901 -2.11439
v -101.476 68.0985 -1.85624
v -100.881 67.3907 -1.55443
v -100.881 67.3907 -1.66902
v -100.881 67.458 -1.81865
v -100.881 67.458 -1.38693
v -100.881 67.7901 -1.25168
v -100.881 67.9443 -1.28864
v -100.881 68.0985 -1.42118
v -100.881 67.6159 -1.27631
v -100.881 67.5901 -1.90269
v -100.881 67.5901 -1.90269
v -100.881 66.9701 -2.22856
v -100.881 66.9701 -2.22856
v -100.881 67.1083 -2.4765
v -101.476 67.9443 -1.28864
v -101.476 67.7901 -1.25168
v -101.476 68.0985 -1.42118
v -101.476 67.458 -1.81865
v -101.476 67.5901 -1.90269
v -101.476 67.5901 -1.90269
v -101.476 67.6159 -1.27631
v -101.476 67.458 -1.38693
v -101.476 66.9701 -2.22856
v -101.476 66.9701 -2.22856
v -101.476 67.1083 -2.4765
v -101.476 67.3907 -1.55443
v -101.476 67.3907 -1.66902
vt 0.1992 0.5029
vt 0.1937 0.4935
vt 0.1809 0.4846
vt 0.2019 0.5199
vt 0.1813 0.5471
vt 0.1394 0.4765
vt 0.1311 0.4913
vt 0.1669 0.5515
vt 0.1267 0.5126
vt 0.1478 0.5482
vt 0.166 0.4841
vt 0.1943 0.5366
vt 0.2009 0.4273
vt 0.1776 0.4138
vt 0.1179 0.2654
vt 0.0646 0.2653
vt 0.0645 0.2791
vt 0.1179 0.2792
vt 0.0646 0.2515
vt 0.118 0.2515
vt 0.0645 0.3476
vt 0.0645 0.3594
vt 0.1178 0.3595
vt 0.1178 0.3476
vt 0.1179 0.2948
vt 0.0645 0.2947
vt 0.0645 0.3089
vt 0.1179 0.3089
vt 0.1178 0.3595
vt 0.0645 0.3594
vt 0.0644 0.415
vt 0.1178 0.415
vt 0.1178 0.415
vt 0.0644 0.415
vt 0.0644 0.4372
vt 0.1177 0.4373
vt 0.1564 0.5656
vt 0.1415 0.5741
vt 0.1821 0.5684
vt 0.1671 0.564
vt 0.2079 0.6115
vt 0.2144 0.5958
vt 0.1331 0.6072
vt 0.1386 0.6212
vt 0.1941 0.6282
vt 0.1531 0.634
vt 0.1918 0.5797
vt 0.1331 0.5904
vt 0.2395 0.5268
vt 0.2143 0.517
vt 0.1179 0.3342
vt 0.1179 0.324
vt 0.0645 0.3239
vt 0.0645 0.3342
vn 1 0 0
vn 1 0.0002 0
vn 0 0.4552 0.8904
vn 0 0.0474 0.9989
vn 0 0.6518 0.7584
vn 0 -0.7561 -0.6544
vn 0 -0.5368 -0.8437
vn 0 -0.7561 -0.6545
vn 0 -0.367 0.9302
vn 0 -0.7832 0.6217
vn 0 -0.7833 0.6217
vn 0 -0.4652 0.8852
vn 0 -0.8733 -0.4871
vn -1 0.0002 0
vn -1 0 0
vn -1 -0.0001 0
vn -1 -0.0002 0
vn -1 0.0001 0
vn 0 -0.9777 -0.2099
vn 0 -0.9818 0.1899
vn 0 -0.9777 -0.2098
f 29/1/1 30/2/2 31/3/1
f 29/1/1 31/3/1 32/4/1
f 33/5/1 6/6/1 7/7/1
f 33/5/1 7/7/1 34/8/1
f 34/8/1 7/7/1 9/9/1
f 34/8/1 9/9/1 35/10/1
f 37/11/1 6/6/1 33/5/1
f 37/11/1 33/5/1 36/12/1
f 32/4/1 31/3/1 37/11/1
f 32/4/1 37/11/1 36/12/1
f 37/11/1 39/13/1 41/14/1
f 37/11/1 41/14/1 6/6/1
f 8/15/3 42/16/3 43/17/4
f 8/15/3 43/17/4 5/18/4
f 44/19/5 42/16/3 8/15/3
f 44/19/5 8/15/3 10/20/5
f 45/21/6 46/22/7 38/23/7
f 45/21/6 38/23/7 3/24/8
f 12/25/9 48/26/9 49/27/10
f 12/25/9 49/27/10 4/28/11
f 11/29/12 47/30/12 50/31/12
f 11/29/12 50/31/12 40/32/12
f 13/33/13 51/34/13 52/35/13
f 13/33/13 52/35/13 14/36/13
f 53/37/14 21/38/15 18/39/16
f 53/37/14 18/39/16 54/40/17
f 26/41/15 27/42/15 16/43/15
f 26/41/15 16/43/15 15/44/15
f 28/45/15 26/41/15 15/44/15
f 28/45/15 15/44/15 17/46/18
f 16/43/15 27/42/15 19/47/15
f 16/43/15 19/47/15 20/48/15
f 21/38/15 20/48/15 19/47/15
f 21/38/15 19/47/15 18/39/16
f 19/47/15 27/42/15 23/49/15
f 19/47/15 23/49/15 22/50/15
f 2/51/19 1/52/20 24/53/20
f 2/51/19 24/53/20 25/54/21
f 1/52/20 4/28/11 49/27/10
f 1/52/20 49/27/10 24/53/20
f 43/17/4 48/26/9 12/25/9
f 43/17/4 12/25/9 5/18/4
f 25/54/21 45/21/6 3/24/8
f 25/54/21 3/24/8 2/51/19
